M48
; DRILL file {KiCad (5.1.8)-1} date 11/22/20 23:20:19
; FORMAT={-:-/ absolute / inch / decimal}
; #@! TF.CreationDate,2020-11-22T23:20:19-08:00
; #@! TF.GenerationSoftware,Kicad,Pcbnew,(5.1.8)-1
FMAT,2
INCH
T1C0.0118
T2C0.0390
%
G90
G05
T1
X3.2736Y-4.0492
X3.2854Y-4.124
X3.2904Y-3.6959
X3.2923Y-3.6289
X3.2933Y-4.0768
X3.3012Y-3.5758
X3.3258Y-3.7156
X3.3268Y-4.0846
X3.3504Y-4.124
X3.3524Y-4.0374
X3.3563Y-4.1535
X3.3598Y-4.0012
X3.3642Y-3.4537
X3.3673Y-4.1815
X3.372Y-4.1142
X3.378Y-4.0374
X3.3843Y-4.2894
X3.3917Y-4.0059
X3.3927Y-3.564
X3.3996Y-3.6378
X3.4134Y-3.6102
X3.4134Y-3.9823
X3.4213Y-4.0945
X3.4232Y-3.6683
X3.4291Y-3.5581
X3.4321Y-3.5295
X3.433Y-4.256
X3.4331Y-3.6319
X3.4366Y-4.0268
X3.4405Y-4.1796
X3.4472Y-3.772
X3.4488Y-4.1142
X3.4508Y-3.5039
X3.4557Y-3.69
X3.4567Y-3.876
X3.4596Y-3.6535
X3.4622Y-4.2118
X3.4622Y-4.3181
X3.4626Y-3.5709
X3.465Y-4.0268
X3.4685Y-3.9114
X3.4705Y-3.6191
X3.4724Y-3.3386
X3.4724Y-3.5207
X3.4787Y-3.9567
X3.4803Y-3.5453
X3.4819Y-3.7709
X3.4843Y-4.1083
X3.4856Y-4.2364
X3.4882Y-4.1845
X3.4898Y-4.4043
X3.4961Y-3.5709
X3.4961Y-3.876
X3.497Y-3.6496
X3.497Y-3.6791
X3.498Y-3.7106
X3.4988Y-4.3476
X3.499Y-3.3386
X3.501Y-3.5207
X3.5098Y-3.6161
X3.5138Y-3.5472
X3.5185Y-3.7689
X3.5201Y-3.9429
X3.5241Y-3.9075
X3.5276Y-3.3071
X3.5276Y-3.3386
X3.5315Y-3.5207
X3.5335Y-3.6526
X3.5344Y-3.7323
X3.5354Y-3.6929
X3.5472Y-3.2795
X3.5551Y-3.3386
X3.5595Y-4.4067
X3.5659Y-3.3071
X3.5659Y-3.5207
X3.5681Y-4.4329
X3.5813Y-4.4601
X3.5827Y-3.3386
X3.5827Y-3.8327
X3.5827Y-3.9409
X3.5866Y-3.2795
X3.593Y-4.4877
X3.5955Y-3.5207
X3.6063Y-3.252
X3.6063Y-3.3071
X3.6083Y-3.7562
X3.627Y-3.5207
X3.6299Y-3.2795
X3.6339Y-3.2283
X3.6347Y-3.9471
X3.6368Y-3.7562
X3.6412Y-4.282
X3.6417Y-4.2185
X3.6496Y-4.0874
X3.6496Y-4.128
X3.6535Y-3.252
X3.6585Y-3.8293
X3.6589Y-3.8642
X3.6594Y-3.9065
X3.662Y-4.2633
X3.6699Y-4.0613
X3.6701Y-3.7142
X3.6709Y-3.6858
X3.6732Y-3.2205
X3.6732Y-3.2795
X3.6752Y-3.5118
X3.6772Y-3.5591
X3.6822Y-4.2844
X3.685Y-4.3681
X3.6929Y-3.252
X3.6947Y-3.8986
X3.7008Y-3.5344
X3.7008Y-4.122
X3.7032Y-4.2666
X3.7039Y-3.6858
X3.7043Y-3.7146
X3.7109Y-4.4383
X3.7126Y-3.2205
X3.7126Y-3.2795
X3.7126Y-3.3602
X3.7276Y-4.2843
X3.728Y-4.0866
X3.7352Y-3.8268
X3.7387Y-4.2225
X3.7411Y-3.9409
X3.7453Y-3.7142
X3.7457Y-3.6862
X3.75Y-4.3976
X3.752Y-3.4596
X3.7563Y-4.0199
X3.7596Y-4.4583
X3.7603Y-4.1994
X3.7608Y-3.9823
X3.7638Y-4.4311
X3.7717Y-3.1811
X3.7756Y-3.2441
X3.7799Y-3.7142
X3.7803Y-3.6862
X3.7933Y-4.0413
X3.7937Y-3.8681
X3.7938Y-3.8977
X3.7948Y-3.9808
X3.7976Y-3.9406
X3.7992Y-4.4498
X3.8071Y-3.2126
X3.8071Y-3.2756
X3.8071Y-4.0794
X3.8081Y-4.1585
X3.8219Y-3.3435
X3.8248Y-3.5207
X3.8248Y-3.5787
X3.8268Y-3.2441
X3.8307Y-3.1772
X3.8346Y-3.3071
X3.8366Y-3.5492
X3.8376Y-4.2805
X3.8386Y-3.9724
X3.8396Y-4.2333
X3.8396Y-4.4183
X3.8415Y-4.0305
X3.8425Y-4.0638
X3.8425Y-3.872
X3.8465Y-3.2756
X3.8474Y-3.3435
X3.8494Y-3.5207
X3.8494Y-3.5787
X3.8504Y-3.2126
X3.8504Y-3.6398
X3.8504Y-3.7372
X3.8514Y-3.685
X3.8622Y-3.5492
X3.8654Y-4.5059
X3.8661Y-3.2441
X3.8661Y-3.3071
X3.8701Y-3.1772
X3.8701Y-4.3514
X3.8711Y-3.7106
X3.8711Y-4.3967
X3.873Y-3.6191
X3.873Y-3.6555
X3.875Y-3.5207
X3.875Y-3.5787
X3.877Y-3.3435
X3.8819Y-3.2756
X3.8869Y-3.8346
X3.8878Y-3.9213
X3.8878Y-3.9646
X3.8933Y-4.5094
X3.8937Y-3.2126
X3.9016Y-3.2441
X3.9016Y-3.3071
X3.9065Y-3.3435
X3.9065Y-3.5207
X3.9094Y-4.3986
X3.9104Y-4.2628
X3.9173Y-3.1772
X3.9193Y-3.9213
X3.9193Y-3.9646
X3.9213Y-3.2756
X3.9232Y-4.4929
X3.9272Y-4.2264
X3.9291Y-4.3412
X3.9341Y-3.3435
X3.935Y-3.7628
X3.939Y-3.5207
X3.9449Y-3.2126
X3.9449Y-3.2441
X3.9449Y-3.3071
X3.9498Y-4.3986
X3.9519Y-4.1478
X3.9528Y-3.9213
X3.9607Y-4.4857
X3.9622Y-3.7673
X3.9626Y-4.2638
X3.9646Y-3.2756
X3.9675Y-3.9872
X3.9675Y-4.3652
X3.9705Y-3.5207
X3.9744Y-4.2264
X3.9764Y-3.1772
X3.9842Y-4.3353
X3.9843Y-3.2441
X3.9862Y-3.9213
X3.9862Y-4.4132
X3.9913Y-4.148
X3.9995Y-3.276
X4.002Y-4.2264
X4.003Y-4.123
X4.0039Y-3.2126
X4.0055Y-4.5231
X4.0167Y-4.3858
X4.0177Y-3.6831
X4.0177Y-3.7116
X4.0197Y-3.2441
X4.0207Y-4.4154
X4.0217Y-3.8622
X4.0217Y-3.4587
X4.0266Y-4.503
X4.0276Y-3.1772
X4.0315Y-4.3465
X4.034Y-4.1353
X4.0354Y-4.2904
X4.0394Y-3.2756
X4.0413Y-4.0945
X4.0472Y-3.2126
X4.0472Y-3.3543
X4.0561Y-3.6821
X4.0561Y-3.7126
X4.0608Y-4.0136
X4.0638Y-4.4673
X4.0643Y-3.9863
X4.0649Y-4.4304
X4.065Y-4.1796
X4.0827Y-3.8047
X4.0918Y-3.9879
X4.094Y-4.1439
X4.0945Y-3.2126
X4.0945Y-3.3701
X4.0974Y-3.6831
X4.0974Y-3.7126
X4.0984Y-3.2756
X4.0994Y-3.624
X4.1033Y-3.5266
X4.1053Y-3.501
X4.1061Y-4.4609
X4.1102Y-3.847
X4.1132Y-3.6526
X4.1132Y-3.7392
X4.1142Y-3.185
X4.1142Y-3.2441
X4.1181Y-3.805
X4.1191Y-4.0984
X4.1219Y-4.2666
X4.126Y-3.624
X4.127Y-3.6831
X4.127Y-3.7126
X4.1309Y-3.8962
X4.1339Y-3.2126
X4.1339Y-3.2756
X4.135Y-4.1965
X4.1417Y-4.3957
X4.1429Y-4.4858
X4.1447Y-4.1329
X4.1455Y-4.2908
X4.1496Y-3.2441
X4.1535Y-3.8066
X4.1547Y-4.2232
X4.1693Y-3.2756
X4.1713Y-3.5207
X4.1722Y-3.5787
X4.173Y-3.941
X4.1732Y-3.2126
X4.1732Y-3.9124
X4.1742Y-4.3917
X4.1748Y-3.9689
X4.1752Y-4.1564
X4.1756Y-3.3386
X4.179Y-4.0236
X4.187Y-3.5502
X4.189Y-3.2441
X4.189Y-3.3071
X4.1917Y-4.1969
X4.1919Y-4.1191
X4.1936Y-4.4191
X4.2008Y-3.5787
X4.2018Y-3.5207
X4.2031Y-3.3386
X4.2047Y-3.2756
X4.2057Y-3.9587
X4.2136Y-3.5502
X4.2139Y-4.3507
X4.2205Y-3.3071
X4.2224Y-3.8026
X4.2239Y-3.774
X4.2244Y-3.2441
X4.2264Y-3.5787
X4.2274Y-3.5207
X4.2323Y-3.3386
X4.2362Y-3.2756
X4.25Y-4.1093
X4.251Y-4.2608
X4.252Y-3.3071
X4.252Y-4.162
X4.2569Y-3.5207
X4.2579Y-4.4043
X4.2583Y-4.2138
X4.2598Y-3.339
X4.2638Y-3.2441
X4.2677Y-3.2756
X4.2787Y-3.915
X4.2795Y-3.8677
X4.2835Y-3.3071
X4.2874Y-3.5207
X4.2886Y-3.3394
X4.2894Y-3.4587
X4.2953Y-4.3622
X4.2961Y-4.4181
X4.3071Y-3.2756
X4.3071Y-4.0197
X4.3071Y-4.1624
X4.314Y-4.1004
X4.3209Y-3.5207
X4.3209Y-3.7815
X4.3209Y-3.813
X4.3238Y-4.2244
X4.3268Y-3.3071
X4.3307Y-3.9055
X4.3366Y-4.4138
X4.3398Y-3.9409
X4.3474Y-3.8504
X4.3622Y-3.9055
X4.365Y-3.9539
X4.3661Y-4.3189
X4.3691Y-3.6841
X4.3691Y-3.7116
X4.372Y-4.1063
X4.373Y-4.1526
X4.376Y-3.502
X4.376Y-3.5305
X4.376Y-3.6545
X4.3789Y-3.8494
X4.3848Y-4.2559
X4.3868Y-3.7343
X4.3878Y-3.9331
X4.3967Y-3.7854
X4.4006Y-3.6841
X4.4006Y-3.7116
X4.4016Y-3.627
X4.4016Y-3.6545
X4.4016Y-3.9016
X4.4035Y-3.8504
X4.4045Y-3.502
X4.4045Y-3.5305
X4.4055Y-3.9528
X4.4152Y-4.3911
X4.4203Y-3.7343
X4.4213Y-3.9311
X4.4252Y-3.8159
X4.4262Y-3.7874
X4.4291Y-3.997
X4.438Y-4.2785
X4.4419Y-3.6841
X4.4419Y-3.7116
X4.4774Y-3.6831
X4.4774Y-3.7116
X4.4911Y-4.0197
X4.5277Y-3.6719
X4.5658Y-3.6508
T2
X4.212Y-4.2839
X4.252Y-3.9839
X4.292Y-4.2839
T0
M30
