G04 #@! TF.GenerationSoftware,KiCad,Pcbnew,(5.1.5)-3*
G04 #@! TF.CreationDate,2020-08-22T17:19:44-02:30*
G04 #@! TF.ProjectId,Thruster_Controller_V2,54687275-7374-4657-925f-436f6e74726f,rev?*
G04 #@! TF.SameCoordinates,Original*
G04 #@! TF.FileFunction,Legend,Top*
G04 #@! TF.FilePolarity,Positive*
%FSLAX46Y46*%
G04 Gerber Fmt 4.6, Leading zero omitted, Abs format (unit mm)*
G04 Created by KiCad (PCBNEW (5.1.5)-3) date 2020-08-22 17:19:44*
%MOMM*%
%LPD*%
G04 APERTURE LIST*
%ADD10C,0.125000*%
%ADD11C,0.150000*%
%ADD12C,0.120000*%
G04 APERTURE END LIST*
D10*
X104502380Y-101264285D02*
X104335714Y-101264285D01*
X104335714Y-101526190D02*
X104335714Y-101026190D01*
X104573809Y-101026190D01*
X104740476Y-101383333D02*
X104978571Y-101383333D01*
X104692857Y-101526190D02*
X104859523Y-101026190D01*
X105026190Y-101526190D01*
X105192857Y-101026190D02*
X105192857Y-101430952D01*
X105216666Y-101478571D01*
X105240476Y-101502380D01*
X105288095Y-101526190D01*
X105383333Y-101526190D01*
X105430952Y-101502380D01*
X105454761Y-101478571D01*
X105478571Y-101430952D01*
X105478571Y-101026190D01*
X105954761Y-101526190D02*
X105716666Y-101526190D01*
X105716666Y-101026190D01*
X106050000Y-101026190D02*
X106335714Y-101026190D01*
X106192857Y-101526190D02*
X106192857Y-101026190D01*
X96380952Y-96964285D02*
X96214285Y-96964285D01*
X96214285Y-97226190D02*
X96214285Y-96726190D01*
X96452380Y-96726190D01*
X96714285Y-97226190D02*
X96666666Y-97202380D01*
X96642857Y-97178571D01*
X96619047Y-97130952D01*
X96619047Y-96988095D01*
X96642857Y-96940476D01*
X96666666Y-96916666D01*
X96714285Y-96892857D01*
X96785714Y-96892857D01*
X96833333Y-96916666D01*
X96857142Y-96940476D01*
X96880952Y-96988095D01*
X96880952Y-97130952D01*
X96857142Y-97178571D01*
X96833333Y-97202380D01*
X96785714Y-97226190D01*
X96714285Y-97226190D01*
X97095238Y-97226190D02*
X97095238Y-96892857D01*
X97095238Y-96988095D02*
X97119047Y-96940476D01*
X97142857Y-96916666D01*
X97190476Y-96892857D01*
X97238095Y-96892857D01*
X97714285Y-96892857D02*
X97904761Y-96892857D01*
X97785714Y-96726190D02*
X97785714Y-97154761D01*
X97809523Y-97202380D01*
X97857142Y-97226190D01*
X97904761Y-97226190D01*
X98071428Y-97226190D02*
X98071428Y-96726190D01*
X98285714Y-97226190D02*
X98285714Y-96964285D01*
X98261904Y-96916666D01*
X98214285Y-96892857D01*
X98142857Y-96892857D01*
X98095238Y-96916666D01*
X98071428Y-96940476D01*
X98714285Y-97202380D02*
X98666666Y-97226190D01*
X98571428Y-97226190D01*
X98523809Y-97202380D01*
X98500000Y-97154761D01*
X98500000Y-96964285D01*
X98523809Y-96916666D01*
X98571428Y-96892857D01*
X98666666Y-96892857D01*
X98714285Y-96916666D01*
X98738095Y-96964285D01*
X98738095Y-97011904D01*
X98500000Y-97059523D01*
X99500000Y-96964285D02*
X99571428Y-96988095D01*
X99595238Y-97011904D01*
X99619047Y-97059523D01*
X99619047Y-97130952D01*
X99595238Y-97178571D01*
X99571428Y-97202380D01*
X99523809Y-97226190D01*
X99333333Y-97226190D01*
X99333333Y-96726190D01*
X99500000Y-96726190D01*
X99547619Y-96750000D01*
X99571428Y-96773809D01*
X99595238Y-96821428D01*
X99595238Y-96869047D01*
X99571428Y-96916666D01*
X99547619Y-96940476D01*
X99500000Y-96964285D01*
X99333333Y-96964285D01*
X100119047Y-97226190D02*
X99952380Y-96988095D01*
X99833333Y-97226190D02*
X99833333Y-96726190D01*
X100023809Y-96726190D01*
X100071428Y-96750000D01*
X100095238Y-96773809D01*
X100119047Y-96821428D01*
X100119047Y-96892857D01*
X100095238Y-96940476D01*
X100071428Y-96964285D01*
X100023809Y-96988095D01*
X99833333Y-96988095D01*
X100642857Y-96726190D02*
X100928571Y-96726190D01*
X100785714Y-97226190D02*
X100785714Y-96726190D01*
X101071428Y-96773809D02*
X101095238Y-96750000D01*
X101142857Y-96726190D01*
X101261904Y-96726190D01*
X101309523Y-96750000D01*
X101333333Y-96773809D01*
X101357142Y-96821428D01*
X101357142Y-96869047D01*
X101333333Y-96940476D01*
X101047619Y-97226190D01*
X101357142Y-97226190D01*
X101666666Y-96726190D02*
X101714285Y-96726190D01*
X101761904Y-96750000D01*
X101785714Y-96773809D01*
X101809523Y-96821428D01*
X101833333Y-96916666D01*
X101833333Y-97035714D01*
X101809523Y-97130952D01*
X101785714Y-97178571D01*
X101761904Y-97202380D01*
X101714285Y-97226190D01*
X101666666Y-97226190D01*
X101619047Y-97202380D01*
X101595238Y-97178571D01*
X101571428Y-97130952D01*
X101547619Y-97035714D01*
X101547619Y-96916666D01*
X101571428Y-96821428D01*
X101595238Y-96773809D01*
X101619047Y-96750000D01*
X101666666Y-96726190D01*
X102142857Y-96726190D02*
X102190476Y-96726190D01*
X102238095Y-96750000D01*
X102261904Y-96773809D01*
X102285714Y-96821428D01*
X102309523Y-96916666D01*
X102309523Y-97035714D01*
X102285714Y-97130952D01*
X102261904Y-97178571D01*
X102238095Y-97202380D01*
X102190476Y-97226190D01*
X102142857Y-97226190D01*
X102095238Y-97202380D01*
X102071428Y-97178571D01*
X102047619Y-97130952D01*
X102023809Y-97035714D01*
X102023809Y-96916666D01*
X102047619Y-96821428D01*
X102071428Y-96773809D01*
X102095238Y-96750000D01*
X102142857Y-96726190D01*
D11*
X93716666Y-96103571D02*
X93500000Y-96103571D01*
X93500000Y-96444047D02*
X93500000Y-95794047D01*
X93809523Y-95794047D01*
X94180952Y-95794047D02*
X94304761Y-95794047D01*
X94366666Y-95825000D01*
X94428571Y-95886904D01*
X94459523Y-96010714D01*
X94459523Y-96227380D01*
X94428571Y-96351190D01*
X94366666Y-96413095D01*
X94304761Y-96444047D01*
X94180952Y-96444047D01*
X94119047Y-96413095D01*
X94057142Y-96351190D01*
X94026190Y-96227380D01*
X94026190Y-96010714D01*
X94057142Y-95886904D01*
X94119047Y-95825000D01*
X94180952Y-95794047D01*
X95109523Y-96382142D02*
X95078571Y-96413095D01*
X94985714Y-96444047D01*
X94923809Y-96444047D01*
X94830952Y-96413095D01*
X94769047Y-96351190D01*
X94738095Y-96289285D01*
X94707142Y-96165476D01*
X94707142Y-96072619D01*
X94738095Y-95948809D01*
X94769047Y-95886904D01*
X94830952Y-95825000D01*
X94923809Y-95794047D01*
X94985714Y-95794047D01*
X95078571Y-95825000D01*
X95109523Y-95855952D01*
X95790476Y-95794047D02*
X96161904Y-95794047D01*
X95976190Y-96444047D02*
X95976190Y-95794047D01*
X96378571Y-96444047D02*
X96378571Y-95794047D01*
X96657142Y-96444047D02*
X96657142Y-96103571D01*
X96626190Y-96041666D01*
X96564285Y-96010714D01*
X96471428Y-96010714D01*
X96409523Y-96041666D01*
X96378571Y-96072619D01*
X96966666Y-96444047D02*
X96966666Y-96010714D01*
X96966666Y-96134523D02*
X96997619Y-96072619D01*
X97028571Y-96041666D01*
X97090476Y-96010714D01*
X97152380Y-96010714D01*
X97647619Y-96010714D02*
X97647619Y-96444047D01*
X97369047Y-96010714D02*
X97369047Y-96351190D01*
X97400000Y-96413095D01*
X97461904Y-96444047D01*
X97554761Y-96444047D01*
X97616666Y-96413095D01*
X97647619Y-96382142D01*
X97926190Y-96413095D02*
X97988095Y-96444047D01*
X98111904Y-96444047D01*
X98173809Y-96413095D01*
X98204761Y-96351190D01*
X98204761Y-96320238D01*
X98173809Y-96258333D01*
X98111904Y-96227380D01*
X98019047Y-96227380D01*
X97957142Y-96196428D01*
X97926190Y-96134523D01*
X97926190Y-96103571D01*
X97957142Y-96041666D01*
X98019047Y-96010714D01*
X98111904Y-96010714D01*
X98173809Y-96041666D01*
X98390476Y-96010714D02*
X98638095Y-96010714D01*
X98483333Y-95794047D02*
X98483333Y-96351190D01*
X98514285Y-96413095D01*
X98576190Y-96444047D01*
X98638095Y-96444047D01*
X99102380Y-96413095D02*
X99040476Y-96444047D01*
X98916666Y-96444047D01*
X98854761Y-96413095D01*
X98823809Y-96351190D01*
X98823809Y-96103571D01*
X98854761Y-96041666D01*
X98916666Y-96010714D01*
X99040476Y-96010714D01*
X99102380Y-96041666D01*
X99133333Y-96103571D01*
X99133333Y-96165476D01*
X98823809Y-96227380D01*
X99411904Y-96444047D02*
X99411904Y-96010714D01*
X99411904Y-96134523D02*
X99442857Y-96072619D01*
X99473809Y-96041666D01*
X99535714Y-96010714D01*
X99597619Y-96010714D01*
X100680952Y-96382142D02*
X100650000Y-96413095D01*
X100557142Y-96444047D01*
X100495238Y-96444047D01*
X100402380Y-96413095D01*
X100340476Y-96351190D01*
X100309523Y-96289285D01*
X100278571Y-96165476D01*
X100278571Y-96072619D01*
X100309523Y-95948809D01*
X100340476Y-95886904D01*
X100402380Y-95825000D01*
X100495238Y-95794047D01*
X100557142Y-95794047D01*
X100650000Y-95825000D01*
X100680952Y-95855952D01*
X101052380Y-96444047D02*
X100990476Y-96413095D01*
X100959523Y-96382142D01*
X100928571Y-96320238D01*
X100928571Y-96134523D01*
X100959523Y-96072619D01*
X100990476Y-96041666D01*
X101052380Y-96010714D01*
X101145238Y-96010714D01*
X101207142Y-96041666D01*
X101238095Y-96072619D01*
X101269047Y-96134523D01*
X101269047Y-96320238D01*
X101238095Y-96382142D01*
X101207142Y-96413095D01*
X101145238Y-96444047D01*
X101052380Y-96444047D01*
X101547619Y-96010714D02*
X101547619Y-96444047D01*
X101547619Y-96072619D02*
X101578571Y-96041666D01*
X101640476Y-96010714D01*
X101733333Y-96010714D01*
X101795238Y-96041666D01*
X101826190Y-96103571D01*
X101826190Y-96444047D01*
X102042857Y-96010714D02*
X102290476Y-96010714D01*
X102135714Y-95794047D02*
X102135714Y-96351190D01*
X102166666Y-96413095D01*
X102228571Y-96444047D01*
X102290476Y-96444047D01*
X102507142Y-96444047D02*
X102507142Y-96010714D01*
X102507142Y-96134523D02*
X102538095Y-96072619D01*
X102569047Y-96041666D01*
X102630952Y-96010714D01*
X102692857Y-96010714D01*
X103002380Y-96444047D02*
X102940476Y-96413095D01*
X102909523Y-96382142D01*
X102878571Y-96320238D01*
X102878571Y-96134523D01*
X102909523Y-96072619D01*
X102940476Y-96041666D01*
X103002380Y-96010714D01*
X103095238Y-96010714D01*
X103157142Y-96041666D01*
X103188095Y-96072619D01*
X103219047Y-96134523D01*
X103219047Y-96320238D01*
X103188095Y-96382142D01*
X103157142Y-96413095D01*
X103095238Y-96444047D01*
X103002380Y-96444047D01*
X103590476Y-96444047D02*
X103528571Y-96413095D01*
X103497619Y-96351190D01*
X103497619Y-95794047D01*
X103930952Y-96444047D02*
X103869047Y-96413095D01*
X103838095Y-96351190D01*
X103838095Y-95794047D01*
X104426190Y-96413095D02*
X104364285Y-96444047D01*
X104240476Y-96444047D01*
X104178571Y-96413095D01*
X104147619Y-96351190D01*
X104147619Y-96103571D01*
X104178571Y-96041666D01*
X104240476Y-96010714D01*
X104364285Y-96010714D01*
X104426190Y-96041666D01*
X104457142Y-96103571D01*
X104457142Y-96165476D01*
X104147619Y-96227380D01*
X104735714Y-96444047D02*
X104735714Y-96010714D01*
X104735714Y-96134523D02*
X104766666Y-96072619D01*
X104797619Y-96041666D01*
X104859523Y-96010714D01*
X104921428Y-96010714D01*
X105540476Y-95794047D02*
X105757142Y-96444047D01*
X105973809Y-95794047D01*
X106159523Y-95855952D02*
X106190476Y-95825000D01*
X106252380Y-95794047D01*
X106407142Y-95794047D01*
X106469047Y-95825000D01*
X106499999Y-95855952D01*
X106530952Y-95917857D01*
X106530952Y-95979761D01*
X106499999Y-96072619D01*
X106128571Y-96444047D01*
X106530952Y-96444047D01*
D10*
X89326190Y-103983333D02*
X89326190Y-104269047D01*
X89326190Y-104126190D02*
X88826190Y-104126190D01*
X88897619Y-104173809D01*
X88945238Y-104221428D01*
X88969047Y-104269047D01*
X88873809Y-103792857D02*
X88850000Y-103769047D01*
X88826190Y-103721428D01*
X88826190Y-103602380D01*
X88850000Y-103554761D01*
X88873809Y-103530952D01*
X88921428Y-103507142D01*
X88969047Y-103507142D01*
X89040476Y-103530952D01*
X89326190Y-103816666D01*
X89326190Y-103507142D01*
X88826190Y-103197619D02*
X88826190Y-103150000D01*
X88850000Y-103102380D01*
X88873809Y-103078571D01*
X88921428Y-103054761D01*
X89016666Y-103030952D01*
X89135714Y-103030952D01*
X89230952Y-103054761D01*
X89278571Y-103078571D01*
X89302380Y-103102380D01*
X89326190Y-103150000D01*
X89326190Y-103197619D01*
X89302380Y-103245238D01*
X89278571Y-103269047D01*
X89230952Y-103292857D01*
X89135714Y-103316666D01*
X89016666Y-103316666D01*
X88921428Y-103292857D01*
X88873809Y-103269047D01*
X88850000Y-103245238D01*
X88826190Y-103197619D01*
X91916666Y-106378571D02*
X91892857Y-106402380D01*
X91821428Y-106426190D01*
X91773809Y-106426190D01*
X91702380Y-106402380D01*
X91654761Y-106354761D01*
X91630952Y-106307142D01*
X91607142Y-106211904D01*
X91607142Y-106140476D01*
X91630952Y-106045238D01*
X91654761Y-105997619D01*
X91702380Y-105950000D01*
X91773809Y-105926190D01*
X91821428Y-105926190D01*
X91892857Y-105950000D01*
X91916666Y-105973809D01*
X92107142Y-106283333D02*
X92345238Y-106283333D01*
X92059523Y-106426190D02*
X92226190Y-105926190D01*
X92392857Y-106426190D01*
X92559523Y-106426190D02*
X92559523Y-105926190D01*
X92845238Y-106426190D01*
X92845238Y-105926190D01*
X93083333Y-106426190D02*
X93083333Y-105926190D01*
X93083333Y-106164285D02*
X93369047Y-106164285D01*
X93369047Y-106426190D02*
X93369047Y-105926190D01*
X91926190Y-101578571D02*
X91902380Y-101602380D01*
X91830952Y-101626190D01*
X91783333Y-101626190D01*
X91711904Y-101602380D01*
X91664285Y-101554761D01*
X91640476Y-101507142D01*
X91616666Y-101411904D01*
X91616666Y-101340476D01*
X91640476Y-101245238D01*
X91664285Y-101197619D01*
X91711904Y-101150000D01*
X91783333Y-101126190D01*
X91830952Y-101126190D01*
X91902380Y-101150000D01*
X91926190Y-101173809D01*
X92116666Y-101483333D02*
X92354761Y-101483333D01*
X92069047Y-101626190D02*
X92235714Y-101126190D01*
X92402380Y-101626190D01*
X92569047Y-101626190D02*
X92569047Y-101126190D01*
X92854761Y-101626190D01*
X92854761Y-101126190D01*
X93330952Y-101626190D02*
X93092857Y-101626190D01*
X93092857Y-101126190D01*
X111630952Y-103526190D02*
X111940476Y-103526190D01*
X111773809Y-103716666D01*
X111845238Y-103716666D01*
X111892857Y-103740476D01*
X111916666Y-103764285D01*
X111940476Y-103811904D01*
X111940476Y-103930952D01*
X111916666Y-103978571D01*
X111892857Y-104002380D01*
X111845238Y-104026190D01*
X111702380Y-104026190D01*
X111654761Y-104002380D01*
X111630952Y-103978571D01*
X112083333Y-103526190D02*
X112250000Y-104026190D01*
X112416666Y-103526190D01*
X112535714Y-103526190D02*
X112845238Y-103526190D01*
X112678571Y-103716666D01*
X112750000Y-103716666D01*
X112797619Y-103740476D01*
X112821428Y-103764285D01*
X112845238Y-103811904D01*
X112845238Y-103930952D01*
X112821428Y-103978571D01*
X112797619Y-104002380D01*
X112750000Y-104026190D01*
X112607142Y-104026190D01*
X112559523Y-104002380D01*
X112535714Y-103978571D01*
D11*
X94611904Y-84466666D02*
X95088095Y-84466666D01*
X94516666Y-84752380D02*
X94850000Y-83752380D01*
X95183333Y-84752380D01*
X103421428Y-82578571D02*
X103564285Y-82626190D01*
X103611904Y-82673809D01*
X103659523Y-82769047D01*
X103659523Y-82911904D01*
X103611904Y-83007142D01*
X103564285Y-83054761D01*
X103469047Y-83102380D01*
X103088095Y-83102380D01*
X103088095Y-82102380D01*
X103421428Y-82102380D01*
X103516666Y-82150000D01*
X103564285Y-82197619D01*
X103611904Y-82292857D01*
X103611904Y-82388095D01*
X103564285Y-82483333D01*
X103516666Y-82530952D01*
X103421428Y-82578571D01*
X103088095Y-82578571D01*
X111059523Y-85257142D02*
X111011904Y-85304761D01*
X110869047Y-85352380D01*
X110773809Y-85352380D01*
X110630952Y-85304761D01*
X110535714Y-85209523D01*
X110488095Y-85114285D01*
X110440476Y-84923809D01*
X110440476Y-84780952D01*
X110488095Y-84590476D01*
X110535714Y-84495238D01*
X110630952Y-84400000D01*
X110773809Y-84352380D01*
X110869047Y-84352380D01*
X111011904Y-84400000D01*
X111059523Y-84447619D01*
D10*
X88152380Y-86726190D02*
X88319047Y-87226190D01*
X88485714Y-86726190D01*
X88652380Y-87226190D02*
X88652380Y-86726190D01*
X88890476Y-87226190D02*
X88890476Y-86726190D01*
X89176190Y-87226190D01*
X89176190Y-86726190D01*
X90119047Y-95425000D02*
X90071428Y-95401190D01*
X90000000Y-95401190D01*
X89928571Y-95425000D01*
X89880952Y-95472619D01*
X89857142Y-95520238D01*
X89833333Y-95615476D01*
X89833333Y-95686904D01*
X89857142Y-95782142D01*
X89880952Y-95829761D01*
X89928571Y-95877380D01*
X90000000Y-95901190D01*
X90047619Y-95901190D01*
X90119047Y-95877380D01*
X90142857Y-95853571D01*
X90142857Y-95686904D01*
X90047619Y-95686904D01*
X90357142Y-95901190D02*
X90357142Y-95401190D01*
X90642857Y-95901190D01*
X90642857Y-95401190D01*
X90880952Y-95901190D02*
X90880952Y-95401190D01*
X91000000Y-95401190D01*
X91071428Y-95425000D01*
X91119047Y-95472619D01*
X91142857Y-95520238D01*
X91166666Y-95615476D01*
X91166666Y-95686904D01*
X91142857Y-95782142D01*
X91119047Y-95829761D01*
X91071428Y-95877380D01*
X91000000Y-95901190D01*
X90880952Y-95901190D01*
D11*
X95333333Y-115816666D02*
X95333333Y-115116666D01*
X95566666Y-115616666D01*
X95800000Y-115116666D01*
X95800000Y-115816666D01*
X96433333Y-115816666D02*
X96433333Y-115450000D01*
X96400000Y-115383333D01*
X96333333Y-115350000D01*
X96200000Y-115350000D01*
X96133333Y-115383333D01*
X96433333Y-115783333D02*
X96366666Y-115816666D01*
X96200000Y-115816666D01*
X96133333Y-115783333D01*
X96100000Y-115716666D01*
X96100000Y-115650000D01*
X96133333Y-115583333D01*
X96200000Y-115550000D01*
X96366666Y-115550000D01*
X96433333Y-115516666D01*
X96766666Y-115816666D02*
X96766666Y-115350000D01*
X96766666Y-115483333D02*
X96800000Y-115416666D01*
X96833333Y-115383333D01*
X96900000Y-115350000D01*
X96966666Y-115350000D01*
X97200000Y-115816666D02*
X97200000Y-115116666D01*
X97266666Y-115550000D02*
X97466666Y-115816666D01*
X97466666Y-115350000D02*
X97200000Y-115616666D01*
X98533333Y-115450000D02*
X98633333Y-115483333D01*
X98666666Y-115516666D01*
X98700000Y-115583333D01*
X98700000Y-115683333D01*
X98666666Y-115750000D01*
X98633333Y-115783333D01*
X98566666Y-115816666D01*
X98300000Y-115816666D01*
X98300000Y-115116666D01*
X98533333Y-115116666D01*
X98600000Y-115150000D01*
X98633333Y-115183333D01*
X98666666Y-115250000D01*
X98666666Y-115316666D01*
X98633333Y-115383333D01*
X98600000Y-115416666D01*
X98533333Y-115450000D01*
X98300000Y-115450000D01*
X99266666Y-115783333D02*
X99200000Y-115816666D01*
X99066666Y-115816666D01*
X99000000Y-115783333D01*
X98966666Y-115716666D01*
X98966666Y-115450000D01*
X99000000Y-115383333D01*
X99066666Y-115350000D01*
X99200000Y-115350000D01*
X99266666Y-115383333D01*
X99300000Y-115450000D01*
X99300000Y-115516666D01*
X98966666Y-115583333D01*
X99700000Y-115816666D02*
X99633333Y-115783333D01*
X99600000Y-115716666D01*
X99600000Y-115116666D01*
X99966666Y-115816666D02*
X99966666Y-115116666D01*
X99966666Y-115383333D02*
X100033333Y-115350000D01*
X100166666Y-115350000D01*
X100233333Y-115383333D01*
X100266666Y-115416666D01*
X100300000Y-115483333D01*
X100300000Y-115683333D01*
X100266666Y-115750000D01*
X100233333Y-115783333D01*
X100166666Y-115816666D01*
X100033333Y-115816666D01*
X99966666Y-115783333D01*
X100600000Y-115816666D02*
X100600000Y-115350000D01*
X100600000Y-115116666D02*
X100566666Y-115150000D01*
X100600000Y-115183333D01*
X100633333Y-115150000D01*
X100600000Y-115116666D01*
X100600000Y-115183333D01*
X100933333Y-115350000D02*
X100933333Y-115816666D01*
X100933333Y-115416666D02*
X100966666Y-115383333D01*
X101033333Y-115350000D01*
X101133333Y-115350000D01*
X101200000Y-115383333D01*
X101233333Y-115450000D01*
X101233333Y-115816666D01*
X101566666Y-115550000D02*
X102100000Y-115550000D01*
X102400000Y-115183333D02*
X102433333Y-115150000D01*
X102500000Y-115116666D01*
X102666666Y-115116666D01*
X102733333Y-115150000D01*
X102766666Y-115183333D01*
X102800000Y-115250000D01*
X102800000Y-115316666D01*
X102766666Y-115416666D01*
X102366666Y-115816666D01*
X102800000Y-115816666D01*
X103233333Y-115116666D02*
X103300000Y-115116666D01*
X103366666Y-115150000D01*
X103400000Y-115183333D01*
X103433333Y-115250000D01*
X103466666Y-115383333D01*
X103466666Y-115550000D01*
X103433333Y-115683333D01*
X103400000Y-115750000D01*
X103366666Y-115783333D01*
X103300000Y-115816666D01*
X103233333Y-115816666D01*
X103166666Y-115783333D01*
X103133333Y-115750000D01*
X103100000Y-115683333D01*
X103066666Y-115550000D01*
X103066666Y-115383333D01*
X103100000Y-115250000D01*
X103133333Y-115183333D01*
X103166666Y-115150000D01*
X103233333Y-115116666D01*
X103733333Y-115183333D02*
X103766666Y-115150000D01*
X103833333Y-115116666D01*
X104000000Y-115116666D01*
X104066666Y-115150000D01*
X104100000Y-115183333D01*
X104133333Y-115250000D01*
X104133333Y-115316666D01*
X104100000Y-115416666D01*
X103700000Y-115816666D01*
X104133333Y-115816666D01*
X104566666Y-115116666D02*
X104633333Y-115116666D01*
X104700000Y-115150000D01*
X104733333Y-115183333D01*
X104766666Y-115250000D01*
X104800000Y-115383333D01*
X104800000Y-115550000D01*
X104766666Y-115683333D01*
X104733333Y-115750000D01*
X104700000Y-115783333D01*
X104633333Y-115816666D01*
X104566666Y-115816666D01*
X104500000Y-115783333D01*
X104466666Y-115750000D01*
X104433333Y-115683333D01*
X104400000Y-115550000D01*
X104400000Y-115383333D01*
X104433333Y-115250000D01*
X104466666Y-115183333D01*
X104500000Y-115150000D01*
X104566666Y-115116666D01*
D12*
X101450000Y-88260000D02*
X101450000Y-94100000D01*
X100690000Y-87500000D02*
X101450000Y-88260000D01*
X94850000Y-88260000D02*
X95610000Y-87500000D01*
X94850000Y-94100000D02*
X94850000Y-88260000D01*
X100690000Y-87500000D02*
X99270000Y-87500000D01*
X95610000Y-87500000D02*
X97030000Y-87500000D01*
X101450000Y-94100000D02*
X99270000Y-94100000D01*
X94850000Y-94100000D02*
X97030000Y-94100000D01*
X101780000Y-105800000D02*
X101780000Y-106300000D01*
X102720000Y-106300000D02*
X102720000Y-105800000D01*
X97005000Y-102350000D02*
X97005000Y-102850000D01*
X97945000Y-102850000D02*
X97945000Y-102350000D01*
X96950000Y-101550000D02*
X96950000Y-102250000D01*
X95750000Y-102250000D02*
X95750000Y-101550000D01*
X94350000Y-102250000D02*
X94350000Y-101550000D01*
X95550000Y-101550000D02*
X95550000Y-102250000D01*
X101800000Y-102325000D02*
X101100000Y-102325000D01*
X101100000Y-101125000D02*
X101800000Y-101125000D01*
X103075000Y-99800000D02*
X105175000Y-99800000D01*
X103075000Y-100800000D02*
X105175000Y-100800000D01*
X103075000Y-99800000D02*
X103075000Y-100800000D01*
X113125000Y-103725000D02*
X113125000Y-101625000D01*
X114125000Y-103725000D02*
X114125000Y-101625000D01*
X113125000Y-103725000D02*
X114125000Y-103725000D01*
X99480000Y-113970000D02*
X99980000Y-113970000D01*
X99980000Y-112910000D02*
X99480000Y-112910000D01*
X115425000Y-93225000D02*
X115425000Y-91125000D01*
X116425000Y-93225000D02*
X116425000Y-91125000D01*
X115425000Y-93225000D02*
X116425000Y-93225000D01*
X105700000Y-110130000D02*
X105200000Y-110130000D01*
X105200000Y-111070000D02*
X105700000Y-111070000D01*
X109100000Y-111230000D02*
X108600000Y-111230000D01*
X108600000Y-112170000D02*
X109100000Y-112170000D01*
X89080000Y-111900000D02*
X89080000Y-112400000D01*
X90020000Y-112400000D02*
X90020000Y-111900000D01*
X108350000Y-111120000D02*
X108850000Y-111120000D01*
X108850000Y-110180000D02*
X108350000Y-110180000D01*
X93420000Y-98925000D02*
X93420000Y-98425000D01*
X92480000Y-98425000D02*
X92480000Y-98925000D01*
X88270000Y-96950000D02*
X88270000Y-97450000D01*
X89330000Y-97450000D02*
X89330000Y-96950000D01*
X87270000Y-96950000D02*
X87270000Y-97450000D01*
X88330000Y-97450000D02*
X88330000Y-96950000D01*
X90330000Y-97450000D02*
X90330000Y-96950000D01*
X89270000Y-96950000D02*
X89270000Y-97450000D01*
X89330000Y-99150000D02*
X89330000Y-98650000D01*
X88270000Y-98650000D02*
X88270000Y-99150000D01*
X88330000Y-99150000D02*
X88330000Y-98650000D01*
X87270000Y-98650000D02*
X87270000Y-99150000D01*
X89270000Y-98650000D02*
X89270000Y-99150000D01*
X90330000Y-99150000D02*
X90330000Y-98650000D01*
X87600000Y-102030000D02*
X88100000Y-102030000D01*
X88100000Y-100970000D02*
X87600000Y-100970000D01*
X87600000Y-101030000D02*
X88100000Y-101030000D01*
X88100000Y-99970000D02*
X87600000Y-99970000D01*
X106200000Y-108130000D02*
X106700000Y-108130000D01*
X106700000Y-107070000D02*
X106200000Y-107070000D01*
X88270000Y-106050000D02*
X88270000Y-105550000D01*
X87330000Y-105550000D02*
X87330000Y-106050000D01*
X87200000Y-105050000D02*
X87200000Y-105750000D01*
X86000000Y-105750000D02*
X86000000Y-105050000D01*
X89670000Y-103350000D02*
X89670000Y-103850000D01*
X90730000Y-103850000D02*
X90730000Y-103350000D01*
X113325000Y-106275000D02*
X113325000Y-108375000D01*
X112325000Y-106275000D02*
X112325000Y-108375000D01*
X113325000Y-106275000D02*
X112325000Y-106275000D01*
X112055000Y-106850000D02*
X112055000Y-107850000D01*
X110695000Y-107850000D02*
X110695000Y-106850000D01*
X101700000Y-94100000D02*
X103880000Y-94100000D01*
X108300000Y-94100000D02*
X106120000Y-94100000D01*
X102460000Y-87500000D02*
X103880000Y-87500000D01*
X107540000Y-87500000D02*
X106120000Y-87500000D01*
X101700000Y-94100000D02*
X101700000Y-88260000D01*
X101700000Y-88260000D02*
X102460000Y-87500000D01*
X107540000Y-87500000D02*
X108300000Y-88260000D01*
X108300000Y-88260000D02*
X108300000Y-94100000D01*
X115150000Y-88260000D02*
X115150000Y-94100000D01*
X114390000Y-87500000D02*
X115150000Y-88260000D01*
X108550000Y-88260000D02*
X109310000Y-87500000D01*
X108550000Y-94100000D02*
X108550000Y-88260000D01*
X114390000Y-87500000D02*
X112970000Y-87500000D01*
X109310000Y-87500000D02*
X110730000Y-87500000D01*
X115150000Y-94100000D02*
X112970000Y-94100000D01*
X108550000Y-94100000D02*
X110730000Y-94100000D01*
X110550000Y-97300000D02*
X111550000Y-97300000D01*
X111550000Y-95600000D02*
X110550000Y-95600000D01*
X111025000Y-100825000D02*
X111725000Y-100825000D01*
X111725000Y-102025000D02*
X111025000Y-102025000D01*
X97800000Y-101370000D02*
X98300000Y-101370000D01*
X98300000Y-100430000D02*
X97800000Y-100430000D01*
X108650000Y-87380000D02*
X108150000Y-87380000D01*
X108150000Y-88320000D02*
X108650000Y-88320000D01*
X101350000Y-88320000D02*
X101850000Y-88320000D01*
X101850000Y-87380000D02*
X101350000Y-87380000D01*
X95000000Y-87430000D02*
X94500000Y-87430000D01*
X94500000Y-88370000D02*
X95000000Y-88370000D01*
X114875000Y-105700000D02*
X114875000Y-106400000D01*
X113675000Y-106400000D02*
X113675000Y-105700000D01*
X112425000Y-110375000D02*
X111725000Y-110375000D01*
X111725000Y-109175000D02*
X112425000Y-109175000D01*
X97880000Y-111250000D02*
X97880000Y-111750000D01*
X98820000Y-111750000D02*
X98820000Y-111250000D01*
X86350000Y-109450000D02*
X86350000Y-108750000D01*
X87550000Y-108750000D02*
X87550000Y-109450000D01*
X99780000Y-111475000D02*
X99780000Y-111975000D01*
X100720000Y-111975000D02*
X100720000Y-111475000D01*
X88925000Y-110075000D02*
X88925000Y-110775000D01*
X87725000Y-110775000D02*
X87725000Y-110075000D01*
X101595000Y-113075000D02*
X101595000Y-112575000D01*
X100655000Y-112575000D02*
X100655000Y-113075000D01*
X102475000Y-111845000D02*
X102975000Y-111845000D01*
X102975000Y-110905000D02*
X102475000Y-110905000D01*
X98755000Y-111475000D02*
X98755000Y-111975000D01*
X99695000Y-111975000D02*
X99695000Y-111475000D01*
X102975000Y-111755000D02*
X102475000Y-111755000D01*
X102475000Y-112695000D02*
X102975000Y-112695000D01*
X103990000Y-108130000D02*
X103490000Y-108130000D01*
X103490000Y-109070000D02*
X103990000Y-109070000D01*
X97830000Y-113275000D02*
X97830000Y-113775000D01*
X98770000Y-113775000D02*
X98770000Y-113275000D01*
X106520000Y-106250000D02*
X106020000Y-106250000D01*
X106020000Y-107190000D02*
X106520000Y-107190000D01*
X93475000Y-102630000D02*
X92975000Y-102630000D01*
X92975000Y-103570000D02*
X93475000Y-103570000D01*
X92030000Y-104325000D02*
X92030000Y-104825000D01*
X92970000Y-104825000D02*
X92970000Y-104325000D01*
X100905000Y-105800000D02*
X100905000Y-106300000D01*
X101845000Y-106300000D02*
X101845000Y-105800000D01*
X96025000Y-107995000D02*
X96525000Y-107995000D01*
X96525000Y-107055000D02*
X96025000Y-107055000D01*
X96525000Y-106180000D02*
X96025000Y-106180000D01*
X96025000Y-107120000D02*
X96525000Y-107120000D01*
X99380000Y-106050000D02*
X99380000Y-106550000D01*
X100320000Y-106550000D02*
X100320000Y-106050000D01*
X107505000Y-99025000D02*
X107505000Y-98525000D01*
X106445000Y-98525000D02*
X106445000Y-99025000D01*
X103695000Y-111850000D02*
X103695000Y-112350000D01*
X104755000Y-112350000D02*
X104755000Y-111850000D01*
X106505000Y-99025000D02*
X106505000Y-98525000D01*
X105445000Y-98525000D02*
X105445000Y-99025000D01*
X103675000Y-98195000D02*
X104675000Y-98195000D01*
X104675000Y-99555000D02*
X103675000Y-99555000D01*
X103650000Y-113955000D02*
X104150000Y-113955000D01*
X104150000Y-112895000D02*
X103650000Y-112895000D01*
X104670000Y-111850000D02*
X104670000Y-112350000D01*
X105730000Y-112350000D02*
X105730000Y-111850000D01*
X115730000Y-102350000D02*
X115730000Y-103350000D01*
X114370000Y-103350000D02*
X114370000Y-102350000D01*
X109230000Y-99000000D02*
X109230000Y-98500000D01*
X108170000Y-98500000D02*
X108170000Y-99000000D01*
X110680000Y-110550000D02*
X110680000Y-110050000D01*
X109620000Y-110050000D02*
X109620000Y-110550000D01*
X110520000Y-104500000D02*
X110520000Y-105000000D01*
X111580000Y-105000000D02*
X111580000Y-104500000D01*
X92325000Y-109170000D02*
X91825000Y-109170000D01*
X91825000Y-110230000D02*
X92325000Y-110230000D01*
X90275000Y-108330000D02*
X90775000Y-108330000D01*
X90775000Y-107270000D02*
X90275000Y-107270000D01*
D11*
X110120000Y-100525000D02*
X110120000Y-98350000D01*
X112320000Y-99800000D02*
X112320000Y-98350000D01*
D10*
X95548571Y-89003571D02*
X95524761Y-89027380D01*
X95453333Y-89051190D01*
X95405714Y-89051190D01*
X95334285Y-89027380D01*
X95286666Y-88979761D01*
X95262857Y-88932142D01*
X95239047Y-88836904D01*
X95239047Y-88765476D01*
X95262857Y-88670238D01*
X95286666Y-88622619D01*
X95334285Y-88575000D01*
X95405714Y-88551190D01*
X95453333Y-88551190D01*
X95524761Y-88575000D01*
X95548571Y-88598809D01*
X96024761Y-89051190D02*
X95739047Y-89051190D01*
X95881904Y-89051190D02*
X95881904Y-88551190D01*
X95834285Y-88622619D01*
X95786666Y-88670238D01*
X95739047Y-88694047D01*
X96334285Y-88551190D02*
X96381904Y-88551190D01*
X96429523Y-88575000D01*
X96453333Y-88598809D01*
X96477142Y-88646428D01*
X96500952Y-88741666D01*
X96500952Y-88860714D01*
X96477142Y-88955952D01*
X96453333Y-89003571D01*
X96429523Y-89027380D01*
X96381904Y-89051190D01*
X96334285Y-89051190D01*
X96286666Y-89027380D01*
X96262857Y-89003571D01*
X96239047Y-88955952D01*
X96215238Y-88860714D01*
X96215238Y-88741666D01*
X96239047Y-88646428D01*
X96262857Y-88598809D01*
X96286666Y-88575000D01*
X96334285Y-88551190D01*
D11*
X96421428Y-86780952D02*
X96421428Y-86019047D01*
X96802380Y-86400000D02*
X96040476Y-86400000D01*
D10*
X102428571Y-108271428D02*
X102452380Y-108295238D01*
X102476190Y-108366666D01*
X102476190Y-108414285D01*
X102452380Y-108485714D01*
X102404761Y-108533333D01*
X102357142Y-108557142D01*
X102261904Y-108580952D01*
X102190476Y-108580952D01*
X102095238Y-108557142D01*
X102047619Y-108533333D01*
X102000000Y-108485714D01*
X101976190Y-108414285D01*
X101976190Y-108366666D01*
X102000000Y-108295238D01*
X102023809Y-108271428D01*
X102142857Y-107842857D02*
X102476190Y-107842857D01*
X101952380Y-107961904D02*
X102309523Y-108080952D01*
X102309523Y-107771428D01*
X101976190Y-107485714D02*
X101976190Y-107438095D01*
X102000000Y-107390476D01*
X102023809Y-107366666D01*
X102071428Y-107342857D01*
X102166666Y-107319047D01*
X102285714Y-107319047D01*
X102380952Y-107342857D01*
X102428571Y-107366666D01*
X102452380Y-107390476D01*
X102476190Y-107438095D01*
X102476190Y-107485714D01*
X102452380Y-107533333D01*
X102428571Y-107557142D01*
X102380952Y-107580952D01*
X102285714Y-107604761D01*
X102166666Y-107604761D01*
X102071428Y-107580952D01*
X102023809Y-107557142D01*
X102000000Y-107533333D01*
X101976190Y-107485714D01*
X98578571Y-102728333D02*
X98602380Y-102752142D01*
X98626190Y-102823571D01*
X98626190Y-102871190D01*
X98602380Y-102942619D01*
X98554761Y-102990238D01*
X98507142Y-103014047D01*
X98411904Y-103037857D01*
X98340476Y-103037857D01*
X98245238Y-103014047D01*
X98197619Y-102990238D01*
X98150000Y-102942619D01*
X98126190Y-102871190D01*
X98126190Y-102823571D01*
X98150000Y-102752142D01*
X98173809Y-102728333D01*
X98173809Y-102537857D02*
X98150000Y-102514047D01*
X98126190Y-102466428D01*
X98126190Y-102347380D01*
X98150000Y-102299761D01*
X98173809Y-102275952D01*
X98221428Y-102252142D01*
X98269047Y-102252142D01*
X98340476Y-102275952D01*
X98626190Y-102561666D01*
X98626190Y-102252142D01*
X95966666Y-100078571D02*
X95942857Y-100102380D01*
X95871428Y-100126190D01*
X95823809Y-100126190D01*
X95752380Y-100102380D01*
X95704761Y-100054761D01*
X95680952Y-100007142D01*
X95657142Y-99911904D01*
X95657142Y-99840476D01*
X95680952Y-99745238D01*
X95704761Y-99697619D01*
X95752380Y-99650000D01*
X95823809Y-99626190D01*
X95871428Y-99626190D01*
X95942857Y-99650000D01*
X95966666Y-99673809D01*
X96442857Y-100126190D02*
X96157142Y-100126190D01*
X96300000Y-100126190D02*
X96300000Y-99626190D01*
X96252380Y-99697619D01*
X96204761Y-99745238D01*
X96157142Y-99769047D01*
X94616666Y-99728571D02*
X94592857Y-99752380D01*
X94521428Y-99776190D01*
X94473809Y-99776190D01*
X94402380Y-99752380D01*
X94354761Y-99704761D01*
X94330952Y-99657142D01*
X94307142Y-99561904D01*
X94307142Y-99490476D01*
X94330952Y-99395238D01*
X94354761Y-99347619D01*
X94402380Y-99300000D01*
X94473809Y-99276190D01*
X94521428Y-99276190D01*
X94592857Y-99300000D01*
X94616666Y-99323809D01*
X95069047Y-99276190D02*
X94830952Y-99276190D01*
X94807142Y-99514285D01*
X94830952Y-99490476D01*
X94878571Y-99466666D01*
X94997619Y-99466666D01*
X95045238Y-99490476D01*
X95069047Y-99514285D01*
X95092857Y-99561904D01*
X95092857Y-99680952D01*
X95069047Y-99728571D01*
X95045238Y-99752380D01*
X94997619Y-99776190D01*
X94878571Y-99776190D01*
X94830952Y-99752380D01*
X94807142Y-99728571D01*
X99733571Y-101566428D02*
X99757380Y-101590238D01*
X99781190Y-101661666D01*
X99781190Y-101709285D01*
X99757380Y-101780714D01*
X99709761Y-101828333D01*
X99662142Y-101852142D01*
X99566904Y-101875952D01*
X99495476Y-101875952D01*
X99400238Y-101852142D01*
X99352619Y-101828333D01*
X99305000Y-101780714D01*
X99281190Y-101709285D01*
X99281190Y-101661666D01*
X99305000Y-101590238D01*
X99328809Y-101566428D01*
X99328809Y-101375952D02*
X99305000Y-101352142D01*
X99281190Y-101304523D01*
X99281190Y-101185476D01*
X99305000Y-101137857D01*
X99328809Y-101114047D01*
X99376428Y-101090238D01*
X99424047Y-101090238D01*
X99495476Y-101114047D01*
X99781190Y-101399761D01*
X99781190Y-101090238D01*
X99281190Y-100780714D02*
X99281190Y-100733095D01*
X99305000Y-100685476D01*
X99328809Y-100661666D01*
X99376428Y-100637857D01*
X99471666Y-100614047D01*
X99590714Y-100614047D01*
X99685952Y-100637857D01*
X99733571Y-100661666D01*
X99757380Y-100685476D01*
X99781190Y-100733095D01*
X99781190Y-100780714D01*
X99757380Y-100828333D01*
X99733571Y-100852142D01*
X99685952Y-100875952D01*
X99590714Y-100899761D01*
X99471666Y-100899761D01*
X99376428Y-100875952D01*
X99328809Y-100852142D01*
X99305000Y-100828333D01*
X99281190Y-100780714D01*
X102005952Y-100526190D02*
X102005952Y-100026190D01*
X102125000Y-100026190D01*
X102196428Y-100050000D01*
X102244047Y-100097619D01*
X102267857Y-100145238D01*
X102291666Y-100240476D01*
X102291666Y-100311904D01*
X102267857Y-100407142D01*
X102244047Y-100454761D01*
X102196428Y-100502380D01*
X102125000Y-100526190D01*
X102005952Y-100526190D01*
X102482142Y-100073809D02*
X102505952Y-100050000D01*
X102553571Y-100026190D01*
X102672619Y-100026190D01*
X102720238Y-100050000D01*
X102744047Y-100073809D01*
X102767857Y-100121428D01*
X102767857Y-100169047D01*
X102744047Y-100240476D01*
X102458333Y-100526190D01*
X102767857Y-100526190D01*
X112795952Y-100921190D02*
X112795952Y-100421190D01*
X112915000Y-100421190D01*
X112986428Y-100445000D01*
X113034047Y-100492619D01*
X113057857Y-100540238D01*
X113081666Y-100635476D01*
X113081666Y-100706904D01*
X113057857Y-100802142D01*
X113034047Y-100849761D01*
X112986428Y-100897380D01*
X112915000Y-100921190D01*
X112795952Y-100921190D01*
X113248333Y-100421190D02*
X113557857Y-100421190D01*
X113391190Y-100611666D01*
X113462619Y-100611666D01*
X113510238Y-100635476D01*
X113534047Y-100659285D01*
X113557857Y-100706904D01*
X113557857Y-100825952D01*
X113534047Y-100873571D01*
X113510238Y-100897380D01*
X113462619Y-100921190D01*
X113319761Y-100921190D01*
X113272142Y-100897380D01*
X113248333Y-100873571D01*
X100416666Y-114401190D02*
X100178571Y-114401190D01*
X100178571Y-113901190D01*
X100535714Y-113901190D02*
X100845238Y-113901190D01*
X100678571Y-114091666D01*
X100750000Y-114091666D01*
X100797619Y-114115476D01*
X100821428Y-114139285D01*
X100845238Y-114186904D01*
X100845238Y-114305952D01*
X100821428Y-114353571D01*
X100797619Y-114377380D01*
X100750000Y-114401190D01*
X100607142Y-114401190D01*
X100559523Y-114377380D01*
X100535714Y-114353571D01*
X115880952Y-94226190D02*
X115880952Y-93726190D01*
X116000000Y-93726190D01*
X116071428Y-93750000D01*
X116119047Y-93797619D01*
X116142857Y-93845238D01*
X116166666Y-93940476D01*
X116166666Y-94011904D01*
X116142857Y-94107142D01*
X116119047Y-94154761D01*
X116071428Y-94202380D01*
X116000000Y-94226190D01*
X115880952Y-94226190D01*
X116642857Y-94226190D02*
X116357142Y-94226190D01*
X116500000Y-94226190D02*
X116500000Y-93726190D01*
X116452380Y-93797619D01*
X116404761Y-93845238D01*
X116357142Y-93869047D01*
X105316666Y-109928571D02*
X105292857Y-109952380D01*
X105221428Y-109976190D01*
X105173809Y-109976190D01*
X105102380Y-109952380D01*
X105054761Y-109904761D01*
X105030952Y-109857142D01*
X105007142Y-109761904D01*
X105007142Y-109690476D01*
X105030952Y-109595238D01*
X105054761Y-109547619D01*
X105102380Y-109500000D01*
X105173809Y-109476190D01*
X105221428Y-109476190D01*
X105292857Y-109500000D01*
X105316666Y-109523809D01*
X105745238Y-109476190D02*
X105650000Y-109476190D01*
X105602380Y-109500000D01*
X105578571Y-109523809D01*
X105530952Y-109595238D01*
X105507142Y-109690476D01*
X105507142Y-109880952D01*
X105530952Y-109928571D01*
X105554761Y-109952380D01*
X105602380Y-109976190D01*
X105697619Y-109976190D01*
X105745238Y-109952380D01*
X105769047Y-109928571D01*
X105792857Y-109880952D01*
X105792857Y-109761904D01*
X105769047Y-109714285D01*
X105745238Y-109690476D01*
X105697619Y-109666666D01*
X105602380Y-109666666D01*
X105554761Y-109690476D01*
X105530952Y-109714285D01*
X105507142Y-109761904D01*
X107226666Y-111878571D02*
X107202857Y-111902380D01*
X107131428Y-111926190D01*
X107083809Y-111926190D01*
X107012380Y-111902380D01*
X106964761Y-111854761D01*
X106940952Y-111807142D01*
X106917142Y-111711904D01*
X106917142Y-111640476D01*
X106940952Y-111545238D01*
X106964761Y-111497619D01*
X107012380Y-111450000D01*
X107083809Y-111426190D01*
X107131428Y-111426190D01*
X107202857Y-111450000D01*
X107226666Y-111473809D01*
X107393333Y-111426190D02*
X107726666Y-111426190D01*
X107512380Y-111926190D01*
X89828571Y-110583333D02*
X89852380Y-110607142D01*
X89876190Y-110678571D01*
X89876190Y-110726190D01*
X89852380Y-110797619D01*
X89804761Y-110845238D01*
X89757142Y-110869047D01*
X89661904Y-110892857D01*
X89590476Y-110892857D01*
X89495238Y-110869047D01*
X89447619Y-110845238D01*
X89400000Y-110797619D01*
X89376190Y-110726190D01*
X89376190Y-110678571D01*
X89400000Y-110607142D01*
X89423809Y-110583333D01*
X89590476Y-110297619D02*
X89566666Y-110345238D01*
X89542857Y-110369047D01*
X89495238Y-110392857D01*
X89471428Y-110392857D01*
X89423809Y-110369047D01*
X89400000Y-110345238D01*
X89376190Y-110297619D01*
X89376190Y-110202380D01*
X89400000Y-110154761D01*
X89423809Y-110130952D01*
X89471428Y-110107142D01*
X89495238Y-110107142D01*
X89542857Y-110130952D01*
X89566666Y-110154761D01*
X89590476Y-110202380D01*
X89590476Y-110297619D01*
X89614285Y-110345238D01*
X89638095Y-110369047D01*
X89685714Y-110392857D01*
X89780952Y-110392857D01*
X89828571Y-110369047D01*
X89852380Y-110345238D01*
X89876190Y-110297619D01*
X89876190Y-110202380D01*
X89852380Y-110154761D01*
X89828571Y-110130952D01*
X89780952Y-110107142D01*
X89685714Y-110107142D01*
X89638095Y-110130952D01*
X89614285Y-110154761D01*
X89590476Y-110202380D01*
X108178571Y-109978571D02*
X108154761Y-110002380D01*
X108083333Y-110026190D01*
X108035714Y-110026190D01*
X107964285Y-110002380D01*
X107916666Y-109954761D01*
X107892857Y-109907142D01*
X107869047Y-109811904D01*
X107869047Y-109740476D01*
X107892857Y-109645238D01*
X107916666Y-109597619D01*
X107964285Y-109550000D01*
X108035714Y-109526190D01*
X108083333Y-109526190D01*
X108154761Y-109550000D01*
X108178571Y-109573809D01*
X108654761Y-110026190D02*
X108369047Y-110026190D01*
X108511904Y-110026190D02*
X108511904Y-109526190D01*
X108464285Y-109597619D01*
X108416666Y-109645238D01*
X108369047Y-109669047D01*
X108821428Y-109526190D02*
X109154761Y-109526190D01*
X108940476Y-110026190D01*
X93978571Y-98121428D02*
X94002380Y-98145238D01*
X94026190Y-98216666D01*
X94026190Y-98264285D01*
X94002380Y-98335714D01*
X93954761Y-98383333D01*
X93907142Y-98407142D01*
X93811904Y-98430952D01*
X93740476Y-98430952D01*
X93645238Y-98407142D01*
X93597619Y-98383333D01*
X93550000Y-98335714D01*
X93526190Y-98264285D01*
X93526190Y-98216666D01*
X93550000Y-98145238D01*
X93573809Y-98121428D01*
X93573809Y-97930952D02*
X93550000Y-97907142D01*
X93526190Y-97859523D01*
X93526190Y-97740476D01*
X93550000Y-97692857D01*
X93573809Y-97669047D01*
X93621428Y-97645238D01*
X93669047Y-97645238D01*
X93740476Y-97669047D01*
X94026190Y-97954761D01*
X94026190Y-97645238D01*
X93526190Y-97192857D02*
X93526190Y-97430952D01*
X93764285Y-97454761D01*
X93740476Y-97430952D01*
X93716666Y-97383333D01*
X93716666Y-97264285D01*
X93740476Y-97216666D01*
X93764285Y-97192857D01*
X93811904Y-97169047D01*
X93930952Y-97169047D01*
X93978571Y-97192857D01*
X94002380Y-97216666D01*
X94026190Y-97264285D01*
X94026190Y-97383333D01*
X94002380Y-97430952D01*
X93978571Y-97454761D01*
X91926190Y-96733333D02*
X91688095Y-96900000D01*
X91926190Y-97019047D02*
X91426190Y-97019047D01*
X91426190Y-96828571D01*
X91450000Y-96780952D01*
X91473809Y-96757142D01*
X91521428Y-96733333D01*
X91592857Y-96733333D01*
X91640476Y-96757142D01*
X91664285Y-96780952D01*
X91688095Y-96828571D01*
X91688095Y-97019047D01*
X91426190Y-96566666D02*
X91426190Y-96257142D01*
X91616666Y-96423809D01*
X91616666Y-96352380D01*
X91640476Y-96304761D01*
X91664285Y-96280952D01*
X91711904Y-96257142D01*
X91830952Y-96257142D01*
X91878571Y-96280952D01*
X91902380Y-96304761D01*
X91926190Y-96352380D01*
X91926190Y-96495238D01*
X91902380Y-96542857D01*
X91878571Y-96566666D01*
X91151190Y-96758333D02*
X90913095Y-96925000D01*
X91151190Y-97044047D02*
X90651190Y-97044047D01*
X90651190Y-96853571D01*
X90675000Y-96805952D01*
X90698809Y-96782142D01*
X90746428Y-96758333D01*
X90817857Y-96758333D01*
X90865476Y-96782142D01*
X90889285Y-96805952D01*
X90913095Y-96853571D01*
X90913095Y-97044047D01*
X90817857Y-96329761D02*
X91151190Y-96329761D01*
X90627380Y-96448809D02*
X90984523Y-96567857D01*
X90984523Y-96258333D01*
X92676190Y-96733333D02*
X92438095Y-96900000D01*
X92676190Y-97019047D02*
X92176190Y-97019047D01*
X92176190Y-96828571D01*
X92200000Y-96780952D01*
X92223809Y-96757142D01*
X92271428Y-96733333D01*
X92342857Y-96733333D01*
X92390476Y-96757142D01*
X92414285Y-96780952D01*
X92438095Y-96828571D01*
X92438095Y-97019047D01*
X92176190Y-96280952D02*
X92176190Y-96519047D01*
X92414285Y-96542857D01*
X92390476Y-96519047D01*
X92366666Y-96471428D01*
X92366666Y-96352380D01*
X92390476Y-96304761D01*
X92414285Y-96280952D01*
X92461904Y-96257142D01*
X92580952Y-96257142D01*
X92628571Y-96280952D01*
X92652380Y-96304761D01*
X92676190Y-96352380D01*
X92676190Y-96471428D01*
X92652380Y-96519047D01*
X92628571Y-96542857D01*
X86776190Y-102621428D02*
X86538095Y-102788095D01*
X86776190Y-102907142D02*
X86276190Y-102907142D01*
X86276190Y-102716666D01*
X86300000Y-102669047D01*
X86323809Y-102645238D01*
X86371428Y-102621428D01*
X86442857Y-102621428D01*
X86490476Y-102645238D01*
X86514285Y-102669047D01*
X86538095Y-102716666D01*
X86538095Y-102907142D01*
X86776190Y-102145238D02*
X86776190Y-102430952D01*
X86776190Y-102288095D02*
X86276190Y-102288095D01*
X86347619Y-102335714D01*
X86395238Y-102383333D01*
X86419047Y-102430952D01*
X86323809Y-101954761D02*
X86300000Y-101930952D01*
X86276190Y-101883333D01*
X86276190Y-101764285D01*
X86300000Y-101716666D01*
X86323809Y-101692857D01*
X86371428Y-101669047D01*
X86419047Y-101669047D01*
X86490476Y-101692857D01*
X86776190Y-101978571D01*
X86776190Y-101669047D01*
X85926190Y-102171428D02*
X85688095Y-102338095D01*
X85926190Y-102457142D02*
X85426190Y-102457142D01*
X85426190Y-102266666D01*
X85450000Y-102219047D01*
X85473809Y-102195238D01*
X85521428Y-102171428D01*
X85592857Y-102171428D01*
X85640476Y-102195238D01*
X85664285Y-102219047D01*
X85688095Y-102266666D01*
X85688095Y-102457142D01*
X85926190Y-101695238D02*
X85926190Y-101980952D01*
X85926190Y-101838095D02*
X85426190Y-101838095D01*
X85497619Y-101885714D01*
X85545238Y-101933333D01*
X85569047Y-101980952D01*
X85426190Y-101528571D02*
X85426190Y-101219047D01*
X85616666Y-101385714D01*
X85616666Y-101314285D01*
X85640476Y-101266666D01*
X85664285Y-101242857D01*
X85711904Y-101219047D01*
X85830952Y-101219047D01*
X85878571Y-101242857D01*
X85902380Y-101266666D01*
X85926190Y-101314285D01*
X85926190Y-101457142D01*
X85902380Y-101504761D01*
X85878571Y-101528571D01*
X91026190Y-99271428D02*
X90788095Y-99438095D01*
X91026190Y-99557142D02*
X90526190Y-99557142D01*
X90526190Y-99366666D01*
X90550000Y-99319047D01*
X90573809Y-99295238D01*
X90621428Y-99271428D01*
X90692857Y-99271428D01*
X90740476Y-99295238D01*
X90764285Y-99319047D01*
X90788095Y-99366666D01*
X90788095Y-99557142D01*
X91026190Y-98795238D02*
X91026190Y-99080952D01*
X91026190Y-98938095D02*
X90526190Y-98938095D01*
X90597619Y-98985714D01*
X90645238Y-99033333D01*
X90669047Y-99080952D01*
X90692857Y-98366666D02*
X91026190Y-98366666D01*
X90502380Y-98485714D02*
X90859523Y-98604761D01*
X90859523Y-98295238D01*
X87528571Y-103726190D02*
X87361904Y-103488095D01*
X87242857Y-103726190D02*
X87242857Y-103226190D01*
X87433333Y-103226190D01*
X87480952Y-103250000D01*
X87504761Y-103273809D01*
X87528571Y-103321428D01*
X87528571Y-103392857D01*
X87504761Y-103440476D01*
X87480952Y-103464285D01*
X87433333Y-103488095D01*
X87242857Y-103488095D01*
X88004761Y-103726190D02*
X87719047Y-103726190D01*
X87861904Y-103726190D02*
X87861904Y-103226190D01*
X87814285Y-103297619D01*
X87766666Y-103345238D01*
X87719047Y-103369047D01*
X88457142Y-103226190D02*
X88219047Y-103226190D01*
X88195238Y-103464285D01*
X88219047Y-103440476D01*
X88266666Y-103416666D01*
X88385714Y-103416666D01*
X88433333Y-103440476D01*
X88457142Y-103464285D01*
X88480952Y-103511904D01*
X88480952Y-103630952D01*
X88457142Y-103678571D01*
X88433333Y-103702380D01*
X88385714Y-103726190D01*
X88266666Y-103726190D01*
X88219047Y-103702380D01*
X88195238Y-103678571D01*
X87578571Y-102611190D02*
X87411904Y-102373095D01*
X87292857Y-102611190D02*
X87292857Y-102111190D01*
X87483333Y-102111190D01*
X87530952Y-102135000D01*
X87554761Y-102158809D01*
X87578571Y-102206428D01*
X87578571Y-102277857D01*
X87554761Y-102325476D01*
X87530952Y-102349285D01*
X87483333Y-102373095D01*
X87292857Y-102373095D01*
X88054761Y-102611190D02*
X87769047Y-102611190D01*
X87911904Y-102611190D02*
X87911904Y-102111190D01*
X87864285Y-102182619D01*
X87816666Y-102230238D01*
X87769047Y-102254047D01*
X88483333Y-102111190D02*
X88388095Y-102111190D01*
X88340476Y-102135000D01*
X88316666Y-102158809D01*
X88269047Y-102230238D01*
X88245238Y-102325476D01*
X88245238Y-102515952D01*
X88269047Y-102563571D01*
X88292857Y-102587380D01*
X88340476Y-102611190D01*
X88435714Y-102611190D01*
X88483333Y-102587380D01*
X88507142Y-102563571D01*
X88530952Y-102515952D01*
X88530952Y-102396904D01*
X88507142Y-102349285D01*
X88483333Y-102325476D01*
X88435714Y-102301666D01*
X88340476Y-102301666D01*
X88292857Y-102325476D01*
X88269047Y-102349285D01*
X88245238Y-102396904D01*
X107956190Y-107741428D02*
X107718095Y-107908095D01*
X107956190Y-108027142D02*
X107456190Y-108027142D01*
X107456190Y-107836666D01*
X107480000Y-107789047D01*
X107503809Y-107765238D01*
X107551428Y-107741428D01*
X107622857Y-107741428D01*
X107670476Y-107765238D01*
X107694285Y-107789047D01*
X107718095Y-107836666D01*
X107718095Y-108027142D01*
X107456190Y-107574761D02*
X107456190Y-107265238D01*
X107646666Y-107431904D01*
X107646666Y-107360476D01*
X107670476Y-107312857D01*
X107694285Y-107289047D01*
X107741904Y-107265238D01*
X107860952Y-107265238D01*
X107908571Y-107289047D01*
X107932380Y-107312857D01*
X107956190Y-107360476D01*
X107956190Y-107503333D01*
X107932380Y-107550952D01*
X107908571Y-107574761D01*
X107456190Y-106955714D02*
X107456190Y-106908095D01*
X107480000Y-106860476D01*
X107503809Y-106836666D01*
X107551428Y-106812857D01*
X107646666Y-106789047D01*
X107765714Y-106789047D01*
X107860952Y-106812857D01*
X107908571Y-106836666D01*
X107932380Y-106860476D01*
X107956190Y-106908095D01*
X107956190Y-106955714D01*
X107932380Y-107003333D01*
X107908571Y-107027142D01*
X107860952Y-107050952D01*
X107765714Y-107074761D01*
X107646666Y-107074761D01*
X107551428Y-107050952D01*
X107503809Y-107027142D01*
X107480000Y-107003333D01*
X107456190Y-106955714D01*
X88878571Y-106321428D02*
X88902380Y-106345238D01*
X88926190Y-106416666D01*
X88926190Y-106464285D01*
X88902380Y-106535714D01*
X88854761Y-106583333D01*
X88807142Y-106607142D01*
X88711904Y-106630952D01*
X88640476Y-106630952D01*
X88545238Y-106607142D01*
X88497619Y-106583333D01*
X88450000Y-106535714D01*
X88426190Y-106464285D01*
X88426190Y-106416666D01*
X88450000Y-106345238D01*
X88473809Y-106321428D01*
X88473809Y-106130952D02*
X88450000Y-106107142D01*
X88426190Y-106059523D01*
X88426190Y-105940476D01*
X88450000Y-105892857D01*
X88473809Y-105869047D01*
X88521428Y-105845238D01*
X88569047Y-105845238D01*
X88640476Y-105869047D01*
X88926190Y-106154761D01*
X88926190Y-105845238D01*
X88426190Y-105678571D02*
X88426190Y-105369047D01*
X88616666Y-105535714D01*
X88616666Y-105464285D01*
X88640476Y-105416666D01*
X88664285Y-105392857D01*
X88711904Y-105369047D01*
X88830952Y-105369047D01*
X88878571Y-105392857D01*
X88902380Y-105416666D01*
X88926190Y-105464285D01*
X88926190Y-105607142D01*
X88902380Y-105654761D01*
X88878571Y-105678571D01*
X85628571Y-105521428D02*
X85652380Y-105545238D01*
X85676190Y-105616666D01*
X85676190Y-105664285D01*
X85652380Y-105735714D01*
X85604761Y-105783333D01*
X85557142Y-105807142D01*
X85461904Y-105830952D01*
X85390476Y-105830952D01*
X85295238Y-105807142D01*
X85247619Y-105783333D01*
X85200000Y-105735714D01*
X85176190Y-105664285D01*
X85176190Y-105616666D01*
X85200000Y-105545238D01*
X85223809Y-105521428D01*
X85223809Y-105330952D02*
X85200000Y-105307142D01*
X85176190Y-105259523D01*
X85176190Y-105140476D01*
X85200000Y-105092857D01*
X85223809Y-105069047D01*
X85271428Y-105045238D01*
X85319047Y-105045238D01*
X85390476Y-105069047D01*
X85676190Y-105354761D01*
X85676190Y-105045238D01*
X85390476Y-104759523D02*
X85366666Y-104807142D01*
X85342857Y-104830952D01*
X85295238Y-104854761D01*
X85271428Y-104854761D01*
X85223809Y-104830952D01*
X85200000Y-104807142D01*
X85176190Y-104759523D01*
X85176190Y-104664285D01*
X85200000Y-104616666D01*
X85223809Y-104592857D01*
X85271428Y-104569047D01*
X85295238Y-104569047D01*
X85342857Y-104592857D01*
X85366666Y-104616666D01*
X85390476Y-104664285D01*
X85390476Y-104759523D01*
X85414285Y-104807142D01*
X85438095Y-104830952D01*
X85485714Y-104854761D01*
X85580952Y-104854761D01*
X85628571Y-104830952D01*
X85652380Y-104807142D01*
X85676190Y-104759523D01*
X85676190Y-104664285D01*
X85652380Y-104616666D01*
X85628571Y-104592857D01*
X85580952Y-104569047D01*
X85485714Y-104569047D01*
X85438095Y-104592857D01*
X85414285Y-104616666D01*
X85390476Y-104664285D01*
X91526190Y-103956783D02*
X91288095Y-104123450D01*
X91526190Y-104242497D02*
X91026190Y-104242497D01*
X91026190Y-104052021D01*
X91050000Y-104004402D01*
X91073809Y-103980593D01*
X91121428Y-103956783D01*
X91192857Y-103956783D01*
X91240476Y-103980593D01*
X91264285Y-104004402D01*
X91288095Y-104052021D01*
X91288095Y-104242497D01*
X91026190Y-103790116D02*
X91026190Y-103480593D01*
X91216666Y-103647259D01*
X91216666Y-103575831D01*
X91240476Y-103528212D01*
X91264285Y-103504402D01*
X91311904Y-103480593D01*
X91430952Y-103480593D01*
X91478571Y-103504402D01*
X91502380Y-103528212D01*
X91526190Y-103575831D01*
X91526190Y-103718688D01*
X91502380Y-103766307D01*
X91478571Y-103790116D01*
X91026190Y-103028212D02*
X91026190Y-103266307D01*
X91264285Y-103290116D01*
X91240476Y-103266307D01*
X91216666Y-103218688D01*
X91216666Y-103099640D01*
X91240476Y-103052021D01*
X91264285Y-103028212D01*
X91311904Y-103004402D01*
X91430952Y-103004402D01*
X91478571Y-103028212D01*
X91502380Y-103052021D01*
X91526190Y-103099640D01*
X91526190Y-103218688D01*
X91502380Y-103266307D01*
X91478571Y-103290116D01*
X112480952Y-105876190D02*
X112480952Y-105376190D01*
X112600000Y-105376190D01*
X112671428Y-105400000D01*
X112719047Y-105447619D01*
X112742857Y-105495238D01*
X112766666Y-105590476D01*
X112766666Y-105661904D01*
X112742857Y-105757142D01*
X112719047Y-105804761D01*
X112671428Y-105852380D01*
X112600000Y-105876190D01*
X112480952Y-105876190D01*
X113219047Y-105376190D02*
X112980952Y-105376190D01*
X112957142Y-105614285D01*
X112980952Y-105590476D01*
X113028571Y-105566666D01*
X113147619Y-105566666D01*
X113195238Y-105590476D01*
X113219047Y-105614285D01*
X113242857Y-105661904D01*
X113242857Y-105780952D01*
X113219047Y-105828571D01*
X113195238Y-105852380D01*
X113147619Y-105876190D01*
X113028571Y-105876190D01*
X112980952Y-105852380D01*
X112957142Y-105828571D01*
X109578571Y-106776190D02*
X109411904Y-106538095D01*
X109292857Y-106776190D02*
X109292857Y-106276190D01*
X109483333Y-106276190D01*
X109530952Y-106300000D01*
X109554761Y-106323809D01*
X109578571Y-106371428D01*
X109578571Y-106442857D01*
X109554761Y-106490476D01*
X109530952Y-106514285D01*
X109483333Y-106538095D01*
X109292857Y-106538095D01*
X109745238Y-106276190D02*
X110054761Y-106276190D01*
X109888095Y-106466666D01*
X109959523Y-106466666D01*
X110007142Y-106490476D01*
X110030952Y-106514285D01*
X110054761Y-106561904D01*
X110054761Y-106680952D01*
X110030952Y-106728571D01*
X110007142Y-106752380D01*
X109959523Y-106776190D01*
X109816666Y-106776190D01*
X109769047Y-106752380D01*
X109745238Y-106728571D01*
X110530952Y-106776190D02*
X110245238Y-106776190D01*
X110388095Y-106776190D02*
X110388095Y-106276190D01*
X110340476Y-106347619D01*
X110292857Y-106395238D01*
X110245238Y-106419047D01*
X102573571Y-89013571D02*
X102549761Y-89037380D01*
X102478333Y-89061190D01*
X102430714Y-89061190D01*
X102359285Y-89037380D01*
X102311666Y-88989761D01*
X102287857Y-88942142D01*
X102264047Y-88846904D01*
X102264047Y-88775476D01*
X102287857Y-88680238D01*
X102311666Y-88632619D01*
X102359285Y-88585000D01*
X102430714Y-88561190D01*
X102478333Y-88561190D01*
X102549761Y-88585000D01*
X102573571Y-88608809D01*
X103049761Y-89061190D02*
X102764047Y-89061190D01*
X102906904Y-89061190D02*
X102906904Y-88561190D01*
X102859285Y-88632619D01*
X102811666Y-88680238D01*
X102764047Y-88704047D01*
X103216428Y-88561190D02*
X103525952Y-88561190D01*
X103359285Y-88751666D01*
X103430714Y-88751666D01*
X103478333Y-88775476D01*
X103502142Y-88799285D01*
X103525952Y-88846904D01*
X103525952Y-88965952D01*
X103502142Y-89013571D01*
X103478333Y-89037380D01*
X103430714Y-89061190D01*
X103287857Y-89061190D01*
X103240238Y-89037380D01*
X103216428Y-89013571D01*
D11*
X103121428Y-86730952D02*
X103121428Y-85969047D01*
X103502380Y-86350000D02*
X102740476Y-86350000D01*
D10*
X109528571Y-88828571D02*
X109504761Y-88852380D01*
X109433333Y-88876190D01*
X109385714Y-88876190D01*
X109314285Y-88852380D01*
X109266666Y-88804761D01*
X109242857Y-88757142D01*
X109219047Y-88661904D01*
X109219047Y-88590476D01*
X109242857Y-88495238D01*
X109266666Y-88447619D01*
X109314285Y-88400000D01*
X109385714Y-88376190D01*
X109433333Y-88376190D01*
X109504761Y-88400000D01*
X109528571Y-88423809D01*
X110004761Y-88876190D02*
X109719047Y-88876190D01*
X109861904Y-88876190D02*
X109861904Y-88376190D01*
X109814285Y-88447619D01*
X109766666Y-88495238D01*
X109719047Y-88519047D01*
X110457142Y-88376190D02*
X110219047Y-88376190D01*
X110195238Y-88614285D01*
X110219047Y-88590476D01*
X110266666Y-88566666D01*
X110385714Y-88566666D01*
X110433333Y-88590476D01*
X110457142Y-88614285D01*
X110480952Y-88661904D01*
X110480952Y-88780952D01*
X110457142Y-88828571D01*
X110433333Y-88852380D01*
X110385714Y-88876190D01*
X110266666Y-88876190D01*
X110219047Y-88852380D01*
X110195238Y-88828571D01*
D11*
X109921428Y-87030952D02*
X109921428Y-86269047D01*
X110302380Y-86650000D02*
X109540476Y-86650000D01*
D10*
X108466666Y-96178571D02*
X108442857Y-96202380D01*
X108371428Y-96226190D01*
X108323809Y-96226190D01*
X108252380Y-96202380D01*
X108204761Y-96154761D01*
X108180952Y-96107142D01*
X108157142Y-96011904D01*
X108157142Y-95940476D01*
X108180952Y-95845238D01*
X108204761Y-95797619D01*
X108252380Y-95750000D01*
X108323809Y-95726190D01*
X108371428Y-95726190D01*
X108442857Y-95750000D01*
X108466666Y-95773809D01*
X108633333Y-95726190D02*
X108942857Y-95726190D01*
X108776190Y-95916666D01*
X108847619Y-95916666D01*
X108895238Y-95940476D01*
X108919047Y-95964285D01*
X108942857Y-96011904D01*
X108942857Y-96130952D01*
X108919047Y-96178571D01*
X108895238Y-96202380D01*
X108847619Y-96226190D01*
X108704761Y-96226190D01*
X108657142Y-96202380D01*
X108633333Y-96178571D01*
X110866666Y-102778571D02*
X110842857Y-102802380D01*
X110771428Y-102826190D01*
X110723809Y-102826190D01*
X110652380Y-102802380D01*
X110604761Y-102754761D01*
X110580952Y-102707142D01*
X110557142Y-102611904D01*
X110557142Y-102540476D01*
X110580952Y-102445238D01*
X110604761Y-102397619D01*
X110652380Y-102350000D01*
X110723809Y-102326190D01*
X110771428Y-102326190D01*
X110842857Y-102350000D01*
X110866666Y-102373809D01*
X111295238Y-102492857D02*
X111295238Y-102826190D01*
X111176190Y-102302380D02*
X111057142Y-102659523D01*
X111366666Y-102659523D01*
X97766666Y-100028571D02*
X97742857Y-100052380D01*
X97671428Y-100076190D01*
X97623809Y-100076190D01*
X97552380Y-100052380D01*
X97504761Y-100004761D01*
X97480952Y-99957142D01*
X97457142Y-99861904D01*
X97457142Y-99790476D01*
X97480952Y-99695238D01*
X97504761Y-99647619D01*
X97552380Y-99600000D01*
X97623809Y-99576190D01*
X97671428Y-99576190D01*
X97742857Y-99600000D01*
X97766666Y-99623809D01*
X98004761Y-100076190D02*
X98100000Y-100076190D01*
X98147619Y-100052380D01*
X98171428Y-100028571D01*
X98219047Y-99957142D01*
X98242857Y-99861904D01*
X98242857Y-99671428D01*
X98219047Y-99623809D01*
X98195238Y-99600000D01*
X98147619Y-99576190D01*
X98052380Y-99576190D01*
X98004761Y-99600000D01*
X97980952Y-99623809D01*
X97957142Y-99671428D01*
X97957142Y-99790476D01*
X97980952Y-99838095D01*
X98004761Y-99861904D01*
X98052380Y-99885714D01*
X98147619Y-99885714D01*
X98195238Y-99861904D01*
X98219047Y-99838095D01*
X98242857Y-99790476D01*
X108128571Y-87128571D02*
X108104761Y-87152380D01*
X108033333Y-87176190D01*
X107985714Y-87176190D01*
X107914285Y-87152380D01*
X107866666Y-87104761D01*
X107842857Y-87057142D01*
X107819047Y-86961904D01*
X107819047Y-86890476D01*
X107842857Y-86795238D01*
X107866666Y-86747619D01*
X107914285Y-86700000D01*
X107985714Y-86676190D01*
X108033333Y-86676190D01*
X108104761Y-86700000D01*
X108128571Y-86723809D01*
X108604761Y-87176190D02*
X108319047Y-87176190D01*
X108461904Y-87176190D02*
X108461904Y-86676190D01*
X108414285Y-86747619D01*
X108366666Y-86795238D01*
X108319047Y-86819047D01*
X109080952Y-87176190D02*
X108795238Y-87176190D01*
X108938095Y-87176190D02*
X108938095Y-86676190D01*
X108890476Y-86747619D01*
X108842857Y-86795238D01*
X108795238Y-86819047D01*
X101228571Y-87028571D02*
X101204761Y-87052380D01*
X101133333Y-87076190D01*
X101085714Y-87076190D01*
X101014285Y-87052380D01*
X100966666Y-87004761D01*
X100942857Y-86957142D01*
X100919047Y-86861904D01*
X100919047Y-86790476D01*
X100942857Y-86695238D01*
X100966666Y-86647619D01*
X101014285Y-86600000D01*
X101085714Y-86576190D01*
X101133333Y-86576190D01*
X101204761Y-86600000D01*
X101228571Y-86623809D01*
X101704761Y-87076190D02*
X101419047Y-87076190D01*
X101561904Y-87076190D02*
X101561904Y-86576190D01*
X101514285Y-86647619D01*
X101466666Y-86695238D01*
X101419047Y-86719047D01*
X101895238Y-86623809D02*
X101919047Y-86600000D01*
X101966666Y-86576190D01*
X102085714Y-86576190D01*
X102133333Y-86600000D01*
X102157142Y-86623809D01*
X102180952Y-86671428D01*
X102180952Y-86719047D01*
X102157142Y-86790476D01*
X101871428Y-87076190D01*
X102180952Y-87076190D01*
X94428571Y-87128571D02*
X94404761Y-87152380D01*
X94333333Y-87176190D01*
X94285714Y-87176190D01*
X94214285Y-87152380D01*
X94166666Y-87104761D01*
X94142857Y-87057142D01*
X94119047Y-86961904D01*
X94119047Y-86890476D01*
X94142857Y-86795238D01*
X94166666Y-86747619D01*
X94214285Y-86700000D01*
X94285714Y-86676190D01*
X94333333Y-86676190D01*
X94404761Y-86700000D01*
X94428571Y-86723809D01*
X94904761Y-87176190D02*
X94619047Y-87176190D01*
X94761904Y-87176190D02*
X94761904Y-86676190D01*
X94714285Y-86747619D01*
X94666666Y-86795238D01*
X94619047Y-86819047D01*
X95333333Y-86842857D02*
X95333333Y-87176190D01*
X95214285Y-86652380D02*
X95095238Y-87009523D01*
X95404761Y-87009523D01*
X115428571Y-105128571D02*
X115404761Y-105152380D01*
X115333333Y-105176190D01*
X115285714Y-105176190D01*
X115214285Y-105152380D01*
X115166666Y-105104761D01*
X115142857Y-105057142D01*
X115119047Y-104961904D01*
X115119047Y-104890476D01*
X115142857Y-104795238D01*
X115166666Y-104747619D01*
X115214285Y-104700000D01*
X115285714Y-104676190D01*
X115333333Y-104676190D01*
X115404761Y-104700000D01*
X115428571Y-104723809D01*
X115904761Y-105176190D02*
X115619047Y-105176190D01*
X115761904Y-105176190D02*
X115761904Y-104676190D01*
X115714285Y-104747619D01*
X115666666Y-104795238D01*
X115619047Y-104819047D01*
X116333333Y-104676190D02*
X116238095Y-104676190D01*
X116190476Y-104700000D01*
X116166666Y-104723809D01*
X116119047Y-104795238D01*
X116095238Y-104890476D01*
X116095238Y-105080952D01*
X116119047Y-105128571D01*
X116142857Y-105152380D01*
X116190476Y-105176190D01*
X116285714Y-105176190D01*
X116333333Y-105152380D01*
X116357142Y-105128571D01*
X116380952Y-105080952D01*
X116380952Y-104961904D01*
X116357142Y-104914285D01*
X116333333Y-104890476D01*
X116285714Y-104866666D01*
X116190476Y-104866666D01*
X116142857Y-104890476D01*
X116119047Y-104914285D01*
X116095238Y-104961904D01*
X111328571Y-111278571D02*
X111304761Y-111302380D01*
X111233333Y-111326190D01*
X111185714Y-111326190D01*
X111114285Y-111302380D01*
X111066666Y-111254761D01*
X111042857Y-111207142D01*
X111019047Y-111111904D01*
X111019047Y-111040476D01*
X111042857Y-110945238D01*
X111066666Y-110897619D01*
X111114285Y-110850000D01*
X111185714Y-110826190D01*
X111233333Y-110826190D01*
X111304761Y-110850000D01*
X111328571Y-110873809D01*
X111804761Y-111326190D02*
X111519047Y-111326190D01*
X111661904Y-111326190D02*
X111661904Y-110826190D01*
X111614285Y-110897619D01*
X111566666Y-110945238D01*
X111519047Y-110969047D01*
X112090476Y-111040476D02*
X112042857Y-111016666D01*
X112019047Y-110992857D01*
X111995238Y-110945238D01*
X111995238Y-110921428D01*
X112019047Y-110873809D01*
X112042857Y-110850000D01*
X112090476Y-110826190D01*
X112185714Y-110826190D01*
X112233333Y-110850000D01*
X112257142Y-110873809D01*
X112280952Y-110921428D01*
X112280952Y-110945238D01*
X112257142Y-110992857D01*
X112233333Y-111016666D01*
X112185714Y-111040476D01*
X112090476Y-111040476D01*
X112042857Y-111064285D01*
X112019047Y-111088095D01*
X111995238Y-111135714D01*
X111995238Y-111230952D01*
X112019047Y-111278571D01*
X112042857Y-111302380D01*
X112090476Y-111326190D01*
X112185714Y-111326190D01*
X112233333Y-111302380D01*
X112257142Y-111278571D01*
X112280952Y-111230952D01*
X112280952Y-111135714D01*
X112257142Y-111088095D01*
X112233333Y-111064285D01*
X112185714Y-111040476D01*
X98528571Y-110021428D02*
X98552380Y-110045238D01*
X98576190Y-110116666D01*
X98576190Y-110164285D01*
X98552380Y-110235714D01*
X98504761Y-110283333D01*
X98457142Y-110307142D01*
X98361904Y-110330952D01*
X98290476Y-110330952D01*
X98195238Y-110307142D01*
X98147619Y-110283333D01*
X98100000Y-110235714D01*
X98076190Y-110164285D01*
X98076190Y-110116666D01*
X98100000Y-110045238D01*
X98123809Y-110021428D01*
X98576190Y-109545238D02*
X98576190Y-109830952D01*
X98576190Y-109688095D02*
X98076190Y-109688095D01*
X98147619Y-109735714D01*
X98195238Y-109783333D01*
X98219047Y-109830952D01*
X98576190Y-109307142D02*
X98576190Y-109211904D01*
X98552380Y-109164285D01*
X98528571Y-109140476D01*
X98457142Y-109092857D01*
X98361904Y-109069047D01*
X98171428Y-109069047D01*
X98123809Y-109092857D01*
X98100000Y-109116666D01*
X98076190Y-109164285D01*
X98076190Y-109259523D01*
X98100000Y-109307142D01*
X98123809Y-109330952D01*
X98171428Y-109354761D01*
X98290476Y-109354761D01*
X98338095Y-109330952D01*
X98361904Y-109307142D01*
X98385714Y-109259523D01*
X98385714Y-109164285D01*
X98361904Y-109116666D01*
X98338095Y-109092857D01*
X98290476Y-109069047D01*
X85928571Y-108471428D02*
X85952380Y-108495238D01*
X85976190Y-108566666D01*
X85976190Y-108614285D01*
X85952380Y-108685714D01*
X85904761Y-108733333D01*
X85857142Y-108757142D01*
X85761904Y-108780952D01*
X85690476Y-108780952D01*
X85595238Y-108757142D01*
X85547619Y-108733333D01*
X85500000Y-108685714D01*
X85476190Y-108614285D01*
X85476190Y-108566666D01*
X85500000Y-108495238D01*
X85523809Y-108471428D01*
X85523809Y-108280952D02*
X85500000Y-108257142D01*
X85476190Y-108209523D01*
X85476190Y-108090476D01*
X85500000Y-108042857D01*
X85523809Y-108019047D01*
X85571428Y-107995238D01*
X85619047Y-107995238D01*
X85690476Y-108019047D01*
X85976190Y-108304761D01*
X85976190Y-107995238D01*
X85976190Y-107519047D02*
X85976190Y-107804761D01*
X85976190Y-107661904D02*
X85476190Y-107661904D01*
X85547619Y-107709523D01*
X85595238Y-107757142D01*
X85619047Y-107804761D01*
X100528571Y-110071428D02*
X100552380Y-110095238D01*
X100576190Y-110166666D01*
X100576190Y-110214285D01*
X100552380Y-110285714D01*
X100504761Y-110333333D01*
X100457142Y-110357142D01*
X100361904Y-110380952D01*
X100290476Y-110380952D01*
X100195238Y-110357142D01*
X100147619Y-110333333D01*
X100100000Y-110285714D01*
X100076190Y-110214285D01*
X100076190Y-110166666D01*
X100100000Y-110095238D01*
X100123809Y-110071428D01*
X100123809Y-109880952D02*
X100100000Y-109857142D01*
X100076190Y-109809523D01*
X100076190Y-109690476D01*
X100100000Y-109642857D01*
X100123809Y-109619047D01*
X100171428Y-109595238D01*
X100219047Y-109595238D01*
X100290476Y-109619047D01*
X100576190Y-109904761D01*
X100576190Y-109595238D01*
X100123809Y-109404761D02*
X100100000Y-109380952D01*
X100076190Y-109333333D01*
X100076190Y-109214285D01*
X100100000Y-109166666D01*
X100123809Y-109142857D01*
X100171428Y-109119047D01*
X100219047Y-109119047D01*
X100290476Y-109142857D01*
X100576190Y-109428571D01*
X100576190Y-109119047D01*
X88478571Y-108471428D02*
X88502380Y-108495238D01*
X88526190Y-108566666D01*
X88526190Y-108614285D01*
X88502380Y-108685714D01*
X88454761Y-108733333D01*
X88407142Y-108757142D01*
X88311904Y-108780952D01*
X88240476Y-108780952D01*
X88145238Y-108757142D01*
X88097619Y-108733333D01*
X88050000Y-108685714D01*
X88026190Y-108614285D01*
X88026190Y-108566666D01*
X88050000Y-108495238D01*
X88073809Y-108471428D01*
X88073809Y-108280952D02*
X88050000Y-108257142D01*
X88026190Y-108209523D01*
X88026190Y-108090476D01*
X88050000Y-108042857D01*
X88073809Y-108019047D01*
X88121428Y-107995238D01*
X88169047Y-107995238D01*
X88240476Y-108019047D01*
X88526190Y-108304761D01*
X88526190Y-107995238D01*
X88026190Y-107828571D02*
X88026190Y-107495238D01*
X88526190Y-107709523D01*
X101278571Y-111321428D02*
X101302380Y-111345238D01*
X101326190Y-111416666D01*
X101326190Y-111464285D01*
X101302380Y-111535714D01*
X101254761Y-111583333D01*
X101207142Y-111607142D01*
X101111904Y-111630952D01*
X101040476Y-111630952D01*
X100945238Y-111607142D01*
X100897619Y-111583333D01*
X100850000Y-111535714D01*
X100826190Y-111464285D01*
X100826190Y-111416666D01*
X100850000Y-111345238D01*
X100873809Y-111321428D01*
X100873809Y-111130952D02*
X100850000Y-111107142D01*
X100826190Y-111059523D01*
X100826190Y-110940476D01*
X100850000Y-110892857D01*
X100873809Y-110869047D01*
X100921428Y-110845238D01*
X100969047Y-110845238D01*
X101040476Y-110869047D01*
X101326190Y-111154761D01*
X101326190Y-110845238D01*
X101326190Y-110607142D02*
X101326190Y-110511904D01*
X101302380Y-110464285D01*
X101278571Y-110440476D01*
X101207142Y-110392857D01*
X101111904Y-110369047D01*
X100921428Y-110369047D01*
X100873809Y-110392857D01*
X100850000Y-110416666D01*
X100826190Y-110464285D01*
X100826190Y-110559523D01*
X100850000Y-110607142D01*
X100873809Y-110630952D01*
X100921428Y-110654761D01*
X101040476Y-110654761D01*
X101088095Y-110630952D01*
X101111904Y-110607142D01*
X101135714Y-110559523D01*
X101135714Y-110464285D01*
X101111904Y-110416666D01*
X101088095Y-110392857D01*
X101040476Y-110369047D01*
X102328571Y-110628571D02*
X102304761Y-110652380D01*
X102233333Y-110676190D01*
X102185714Y-110676190D01*
X102114285Y-110652380D01*
X102066666Y-110604761D01*
X102042857Y-110557142D01*
X102019047Y-110461904D01*
X102019047Y-110390476D01*
X102042857Y-110295238D01*
X102066666Y-110247619D01*
X102114285Y-110200000D01*
X102185714Y-110176190D01*
X102233333Y-110176190D01*
X102304761Y-110200000D01*
X102328571Y-110223809D01*
X102495238Y-110176190D02*
X102804761Y-110176190D01*
X102638095Y-110366666D01*
X102709523Y-110366666D01*
X102757142Y-110390476D01*
X102780952Y-110414285D01*
X102804761Y-110461904D01*
X102804761Y-110580952D01*
X102780952Y-110628571D01*
X102757142Y-110652380D01*
X102709523Y-110676190D01*
X102566666Y-110676190D01*
X102519047Y-110652380D01*
X102495238Y-110628571D01*
X103114285Y-110176190D02*
X103161904Y-110176190D01*
X103209523Y-110200000D01*
X103233333Y-110223809D01*
X103257142Y-110271428D01*
X103280952Y-110366666D01*
X103280952Y-110485714D01*
X103257142Y-110580952D01*
X103233333Y-110628571D01*
X103209523Y-110652380D01*
X103161904Y-110676190D01*
X103114285Y-110676190D01*
X103066666Y-110652380D01*
X103042857Y-110628571D01*
X103019047Y-110580952D01*
X102995238Y-110485714D01*
X102995238Y-110366666D01*
X103019047Y-110271428D01*
X103042857Y-110223809D01*
X103066666Y-110200000D01*
X103114285Y-110176190D01*
X99428571Y-110021428D02*
X99452380Y-110045238D01*
X99476190Y-110116666D01*
X99476190Y-110164285D01*
X99452380Y-110235714D01*
X99404761Y-110283333D01*
X99357142Y-110307142D01*
X99261904Y-110330952D01*
X99190476Y-110330952D01*
X99095238Y-110307142D01*
X99047619Y-110283333D01*
X99000000Y-110235714D01*
X98976190Y-110164285D01*
X98976190Y-110116666D01*
X99000000Y-110045238D01*
X99023809Y-110021428D01*
X98976190Y-109854761D02*
X98976190Y-109545238D01*
X99166666Y-109711904D01*
X99166666Y-109640476D01*
X99190476Y-109592857D01*
X99214285Y-109569047D01*
X99261904Y-109545238D01*
X99380952Y-109545238D01*
X99428571Y-109569047D01*
X99452380Y-109592857D01*
X99476190Y-109640476D01*
X99476190Y-109783333D01*
X99452380Y-109830952D01*
X99428571Y-109854761D01*
X99476190Y-109069047D02*
X99476190Y-109354761D01*
X99476190Y-109211904D02*
X98976190Y-109211904D01*
X99047619Y-109259523D01*
X99095238Y-109307142D01*
X99119047Y-109354761D01*
X102028571Y-113428571D02*
X102004761Y-113452380D01*
X101933333Y-113476190D01*
X101885714Y-113476190D01*
X101814285Y-113452380D01*
X101766666Y-113404761D01*
X101742857Y-113357142D01*
X101719047Y-113261904D01*
X101719047Y-113190476D01*
X101742857Y-113095238D01*
X101766666Y-113047619D01*
X101814285Y-113000000D01*
X101885714Y-112976190D01*
X101933333Y-112976190D01*
X102004761Y-113000000D01*
X102028571Y-113023809D01*
X102195238Y-112976190D02*
X102504761Y-112976190D01*
X102338095Y-113166666D01*
X102409523Y-113166666D01*
X102457142Y-113190476D01*
X102480952Y-113214285D01*
X102504761Y-113261904D01*
X102504761Y-113380952D01*
X102480952Y-113428571D01*
X102457142Y-113452380D01*
X102409523Y-113476190D01*
X102266666Y-113476190D01*
X102219047Y-113452380D01*
X102195238Y-113428571D01*
X102695238Y-113023809D02*
X102719047Y-113000000D01*
X102766666Y-112976190D01*
X102885714Y-112976190D01*
X102933333Y-113000000D01*
X102957142Y-113023809D01*
X102980952Y-113071428D01*
X102980952Y-113119047D01*
X102957142Y-113190476D01*
X102671428Y-113476190D01*
X102980952Y-113476190D01*
X103378571Y-109728571D02*
X103354761Y-109752380D01*
X103283333Y-109776190D01*
X103235714Y-109776190D01*
X103164285Y-109752380D01*
X103116666Y-109704761D01*
X103092857Y-109657142D01*
X103069047Y-109561904D01*
X103069047Y-109490476D01*
X103092857Y-109395238D01*
X103116666Y-109347619D01*
X103164285Y-109300000D01*
X103235714Y-109276190D01*
X103283333Y-109276190D01*
X103354761Y-109300000D01*
X103378571Y-109323809D01*
X103545238Y-109276190D02*
X103854761Y-109276190D01*
X103688095Y-109466666D01*
X103759523Y-109466666D01*
X103807142Y-109490476D01*
X103830952Y-109514285D01*
X103854761Y-109561904D01*
X103854761Y-109680952D01*
X103830952Y-109728571D01*
X103807142Y-109752380D01*
X103759523Y-109776190D01*
X103616666Y-109776190D01*
X103569047Y-109752380D01*
X103545238Y-109728571D01*
X104021428Y-109276190D02*
X104330952Y-109276190D01*
X104164285Y-109466666D01*
X104235714Y-109466666D01*
X104283333Y-109490476D01*
X104307142Y-109514285D01*
X104330952Y-109561904D01*
X104330952Y-109680952D01*
X104307142Y-109728571D01*
X104283333Y-109752380D01*
X104235714Y-109776190D01*
X104092857Y-109776190D01*
X104045238Y-109752380D01*
X104021428Y-109728571D01*
X97678571Y-114021428D02*
X97702380Y-114045238D01*
X97726190Y-114116666D01*
X97726190Y-114164285D01*
X97702380Y-114235714D01*
X97654761Y-114283333D01*
X97607142Y-114307142D01*
X97511904Y-114330952D01*
X97440476Y-114330952D01*
X97345238Y-114307142D01*
X97297619Y-114283333D01*
X97250000Y-114235714D01*
X97226190Y-114164285D01*
X97226190Y-114116666D01*
X97250000Y-114045238D01*
X97273809Y-114021428D01*
X97226190Y-113854761D02*
X97226190Y-113545238D01*
X97416666Y-113711904D01*
X97416666Y-113640476D01*
X97440476Y-113592857D01*
X97464285Y-113569047D01*
X97511904Y-113545238D01*
X97630952Y-113545238D01*
X97678571Y-113569047D01*
X97702380Y-113592857D01*
X97726190Y-113640476D01*
X97726190Y-113783333D01*
X97702380Y-113830952D01*
X97678571Y-113854761D01*
X97392857Y-113116666D02*
X97726190Y-113116666D01*
X97202380Y-113235714D02*
X97559523Y-113354761D01*
X97559523Y-113045238D01*
X106578571Y-106028571D02*
X106554761Y-106052380D01*
X106483333Y-106076190D01*
X106435714Y-106076190D01*
X106364285Y-106052380D01*
X106316666Y-106004761D01*
X106292857Y-105957142D01*
X106269047Y-105861904D01*
X106269047Y-105790476D01*
X106292857Y-105695238D01*
X106316666Y-105647619D01*
X106364285Y-105600000D01*
X106435714Y-105576190D01*
X106483333Y-105576190D01*
X106554761Y-105600000D01*
X106578571Y-105623809D01*
X106745238Y-105576190D02*
X107054761Y-105576190D01*
X106888095Y-105766666D01*
X106959523Y-105766666D01*
X107007142Y-105790476D01*
X107030952Y-105814285D01*
X107054761Y-105861904D01*
X107054761Y-105980952D01*
X107030952Y-106028571D01*
X107007142Y-106052380D01*
X106959523Y-106076190D01*
X106816666Y-106076190D01*
X106769047Y-106052380D01*
X106745238Y-106028571D01*
X107507142Y-105576190D02*
X107269047Y-105576190D01*
X107245238Y-105814285D01*
X107269047Y-105790476D01*
X107316666Y-105766666D01*
X107435714Y-105766666D01*
X107483333Y-105790476D01*
X107507142Y-105814285D01*
X107530952Y-105861904D01*
X107530952Y-105980952D01*
X107507142Y-106028571D01*
X107483333Y-106052380D01*
X107435714Y-106076190D01*
X107316666Y-106076190D01*
X107269047Y-106052380D01*
X107245238Y-106028571D01*
X92878571Y-102428571D02*
X92854761Y-102452380D01*
X92783333Y-102476190D01*
X92735714Y-102476190D01*
X92664285Y-102452380D01*
X92616666Y-102404761D01*
X92592857Y-102357142D01*
X92569047Y-102261904D01*
X92569047Y-102190476D01*
X92592857Y-102095238D01*
X92616666Y-102047619D01*
X92664285Y-102000000D01*
X92735714Y-101976190D01*
X92783333Y-101976190D01*
X92854761Y-102000000D01*
X92878571Y-102023809D01*
X93045238Y-101976190D02*
X93354761Y-101976190D01*
X93188095Y-102166666D01*
X93259523Y-102166666D01*
X93307142Y-102190476D01*
X93330952Y-102214285D01*
X93354761Y-102261904D01*
X93354761Y-102380952D01*
X93330952Y-102428571D01*
X93307142Y-102452380D01*
X93259523Y-102476190D01*
X93116666Y-102476190D01*
X93069047Y-102452380D01*
X93045238Y-102428571D01*
X93783333Y-101976190D02*
X93688095Y-101976190D01*
X93640476Y-102000000D01*
X93616666Y-102023809D01*
X93569047Y-102095238D01*
X93545238Y-102190476D01*
X93545238Y-102380952D01*
X93569047Y-102428571D01*
X93592857Y-102452380D01*
X93640476Y-102476190D01*
X93735714Y-102476190D01*
X93783333Y-102452380D01*
X93807142Y-102428571D01*
X93830952Y-102380952D01*
X93830952Y-102261904D01*
X93807142Y-102214285D01*
X93783333Y-102190476D01*
X93735714Y-102166666D01*
X93640476Y-102166666D01*
X93592857Y-102190476D01*
X93569047Y-102214285D01*
X93545238Y-102261904D01*
X93578571Y-105221428D02*
X93602380Y-105245238D01*
X93626190Y-105316666D01*
X93626190Y-105364285D01*
X93602380Y-105435714D01*
X93554761Y-105483333D01*
X93507142Y-105507142D01*
X93411904Y-105530952D01*
X93340476Y-105530952D01*
X93245238Y-105507142D01*
X93197619Y-105483333D01*
X93150000Y-105435714D01*
X93126190Y-105364285D01*
X93126190Y-105316666D01*
X93150000Y-105245238D01*
X93173809Y-105221428D01*
X93126190Y-105054761D02*
X93126190Y-104745238D01*
X93316666Y-104911904D01*
X93316666Y-104840476D01*
X93340476Y-104792857D01*
X93364285Y-104769047D01*
X93411904Y-104745238D01*
X93530952Y-104745238D01*
X93578571Y-104769047D01*
X93602380Y-104792857D01*
X93626190Y-104840476D01*
X93626190Y-104983333D01*
X93602380Y-105030952D01*
X93578571Y-105054761D01*
X93126190Y-104578571D02*
X93126190Y-104245238D01*
X93626190Y-104459523D01*
X101628571Y-108421428D02*
X101652380Y-108445238D01*
X101676190Y-108516666D01*
X101676190Y-108564285D01*
X101652380Y-108635714D01*
X101604761Y-108683333D01*
X101557142Y-108707142D01*
X101461904Y-108730952D01*
X101390476Y-108730952D01*
X101295238Y-108707142D01*
X101247619Y-108683333D01*
X101200000Y-108635714D01*
X101176190Y-108564285D01*
X101176190Y-108516666D01*
X101200000Y-108445238D01*
X101223809Y-108421428D01*
X101176190Y-108254761D02*
X101176190Y-107945238D01*
X101366666Y-108111904D01*
X101366666Y-108040476D01*
X101390476Y-107992857D01*
X101414285Y-107969047D01*
X101461904Y-107945238D01*
X101580952Y-107945238D01*
X101628571Y-107969047D01*
X101652380Y-107992857D01*
X101676190Y-108040476D01*
X101676190Y-108183333D01*
X101652380Y-108230952D01*
X101628571Y-108254761D01*
X101390476Y-107659523D02*
X101366666Y-107707142D01*
X101342857Y-107730952D01*
X101295238Y-107754761D01*
X101271428Y-107754761D01*
X101223809Y-107730952D01*
X101200000Y-107707142D01*
X101176190Y-107659523D01*
X101176190Y-107564285D01*
X101200000Y-107516666D01*
X101223809Y-107492857D01*
X101271428Y-107469047D01*
X101295238Y-107469047D01*
X101342857Y-107492857D01*
X101366666Y-107516666D01*
X101390476Y-107564285D01*
X101390476Y-107659523D01*
X101414285Y-107707142D01*
X101438095Y-107730952D01*
X101485714Y-107754761D01*
X101580952Y-107754761D01*
X101628571Y-107730952D01*
X101652380Y-107707142D01*
X101676190Y-107659523D01*
X101676190Y-107564285D01*
X101652380Y-107516666D01*
X101628571Y-107492857D01*
X101580952Y-107469047D01*
X101485714Y-107469047D01*
X101438095Y-107492857D01*
X101414285Y-107516666D01*
X101390476Y-107564285D01*
X95978571Y-108678571D02*
X95954761Y-108702380D01*
X95883333Y-108726190D01*
X95835714Y-108726190D01*
X95764285Y-108702380D01*
X95716666Y-108654761D01*
X95692857Y-108607142D01*
X95669047Y-108511904D01*
X95669047Y-108440476D01*
X95692857Y-108345238D01*
X95716666Y-108297619D01*
X95764285Y-108250000D01*
X95835714Y-108226190D01*
X95883333Y-108226190D01*
X95954761Y-108250000D01*
X95978571Y-108273809D01*
X96145238Y-108226190D02*
X96454761Y-108226190D01*
X96288095Y-108416666D01*
X96359523Y-108416666D01*
X96407142Y-108440476D01*
X96430952Y-108464285D01*
X96454761Y-108511904D01*
X96454761Y-108630952D01*
X96430952Y-108678571D01*
X96407142Y-108702380D01*
X96359523Y-108726190D01*
X96216666Y-108726190D01*
X96169047Y-108702380D01*
X96145238Y-108678571D01*
X96692857Y-108726190D02*
X96788095Y-108726190D01*
X96835714Y-108702380D01*
X96859523Y-108678571D01*
X96907142Y-108607142D01*
X96930952Y-108511904D01*
X96930952Y-108321428D01*
X96907142Y-108273809D01*
X96883333Y-108250000D01*
X96835714Y-108226190D01*
X96740476Y-108226190D01*
X96692857Y-108250000D01*
X96669047Y-108273809D01*
X96645238Y-108321428D01*
X96645238Y-108440476D01*
X96669047Y-108488095D01*
X96692857Y-108511904D01*
X96740476Y-108535714D01*
X96835714Y-108535714D01*
X96883333Y-108511904D01*
X96907142Y-108488095D01*
X96930952Y-108440476D01*
X95278571Y-105928571D02*
X95254761Y-105952380D01*
X95183333Y-105976190D01*
X95135714Y-105976190D01*
X95064285Y-105952380D01*
X95016666Y-105904761D01*
X94992857Y-105857142D01*
X94969047Y-105761904D01*
X94969047Y-105690476D01*
X94992857Y-105595238D01*
X95016666Y-105547619D01*
X95064285Y-105500000D01*
X95135714Y-105476190D01*
X95183333Y-105476190D01*
X95254761Y-105500000D01*
X95278571Y-105523809D01*
X95707142Y-105642857D02*
X95707142Y-105976190D01*
X95588095Y-105452380D02*
X95469047Y-105809523D01*
X95778571Y-105809523D01*
X96230952Y-105976190D02*
X95945238Y-105976190D01*
X96088095Y-105976190D02*
X96088095Y-105476190D01*
X96040476Y-105547619D01*
X95992857Y-105595238D01*
X95945238Y-105619047D01*
X99128571Y-106521428D02*
X99152380Y-106545238D01*
X99176190Y-106616666D01*
X99176190Y-106664285D01*
X99152380Y-106735714D01*
X99104761Y-106783333D01*
X99057142Y-106807142D01*
X98961904Y-106830952D01*
X98890476Y-106830952D01*
X98795238Y-106807142D01*
X98747619Y-106783333D01*
X98700000Y-106735714D01*
X98676190Y-106664285D01*
X98676190Y-106616666D01*
X98700000Y-106545238D01*
X98723809Y-106521428D01*
X98842857Y-106092857D02*
X99176190Y-106092857D01*
X98652380Y-106211904D02*
X99009523Y-106330952D01*
X99009523Y-106021428D01*
X98723809Y-105854761D02*
X98700000Y-105830952D01*
X98676190Y-105783333D01*
X98676190Y-105664285D01*
X98700000Y-105616666D01*
X98723809Y-105592857D01*
X98771428Y-105569047D01*
X98819047Y-105569047D01*
X98890476Y-105592857D01*
X99176190Y-105878571D01*
X99176190Y-105569047D01*
X107016666Y-97626190D02*
X106850000Y-97388095D01*
X106730952Y-97626190D02*
X106730952Y-97126190D01*
X106921428Y-97126190D01*
X106969047Y-97150000D01*
X106992857Y-97173809D01*
X107016666Y-97221428D01*
X107016666Y-97292857D01*
X106992857Y-97340476D01*
X106969047Y-97364285D01*
X106921428Y-97388095D01*
X106730952Y-97388095D01*
X107492857Y-97626190D02*
X107207142Y-97626190D01*
X107350000Y-97626190D02*
X107350000Y-97126190D01*
X107302380Y-97197619D01*
X107254761Y-97245238D01*
X107207142Y-97269047D01*
X103766666Y-110726190D02*
X103600000Y-110488095D01*
X103480952Y-110726190D02*
X103480952Y-110226190D01*
X103671428Y-110226190D01*
X103719047Y-110250000D01*
X103742857Y-110273809D01*
X103766666Y-110321428D01*
X103766666Y-110392857D01*
X103742857Y-110440476D01*
X103719047Y-110464285D01*
X103671428Y-110488095D01*
X103480952Y-110488095D01*
X103957142Y-110273809D02*
X103980952Y-110250000D01*
X104028571Y-110226190D01*
X104147619Y-110226190D01*
X104195238Y-110250000D01*
X104219047Y-110273809D01*
X104242857Y-110321428D01*
X104242857Y-110369047D01*
X104219047Y-110440476D01*
X103933333Y-110726190D01*
X104242857Y-110726190D01*
X105716666Y-97676190D02*
X105550000Y-97438095D01*
X105430952Y-97676190D02*
X105430952Y-97176190D01*
X105621428Y-97176190D01*
X105669047Y-97200000D01*
X105692857Y-97223809D01*
X105716666Y-97271428D01*
X105716666Y-97342857D01*
X105692857Y-97390476D01*
X105669047Y-97414285D01*
X105621428Y-97438095D01*
X105430952Y-97438095D01*
X106145238Y-97176190D02*
X106050000Y-97176190D01*
X106002380Y-97200000D01*
X105978571Y-97223809D01*
X105930952Y-97295238D01*
X105907142Y-97390476D01*
X105907142Y-97580952D01*
X105930952Y-97628571D01*
X105954761Y-97652380D01*
X106002380Y-97676190D01*
X106097619Y-97676190D01*
X106145238Y-97652380D01*
X106169047Y-97628571D01*
X106192857Y-97580952D01*
X106192857Y-97461904D01*
X106169047Y-97414285D01*
X106145238Y-97390476D01*
X106097619Y-97366666D01*
X106002380Y-97366666D01*
X105954761Y-97390476D01*
X105930952Y-97414285D01*
X105907142Y-97461904D01*
X101628571Y-99076190D02*
X101461904Y-98838095D01*
X101342857Y-99076190D02*
X101342857Y-98576190D01*
X101533333Y-98576190D01*
X101580952Y-98600000D01*
X101604761Y-98623809D01*
X101628571Y-98671428D01*
X101628571Y-98742857D01*
X101604761Y-98790476D01*
X101580952Y-98814285D01*
X101533333Y-98838095D01*
X101342857Y-98838095D01*
X102104761Y-99076190D02*
X101819047Y-99076190D01*
X101961904Y-99076190D02*
X101961904Y-98576190D01*
X101914285Y-98647619D01*
X101866666Y-98695238D01*
X101819047Y-98719047D01*
X102414285Y-98576190D02*
X102461904Y-98576190D01*
X102509523Y-98600000D01*
X102533333Y-98623809D01*
X102557142Y-98671428D01*
X102580952Y-98766666D01*
X102580952Y-98885714D01*
X102557142Y-98980952D01*
X102533333Y-99028571D01*
X102509523Y-99052380D01*
X102461904Y-99076190D01*
X102414285Y-99076190D01*
X102366666Y-99052380D01*
X102342857Y-99028571D01*
X102319047Y-98980952D01*
X102295238Y-98885714D01*
X102295238Y-98766666D01*
X102319047Y-98671428D01*
X102342857Y-98623809D01*
X102366666Y-98600000D01*
X102414285Y-98576190D01*
X105278571Y-113926190D02*
X105111904Y-113688095D01*
X104992857Y-113926190D02*
X104992857Y-113426190D01*
X105183333Y-113426190D01*
X105230952Y-113450000D01*
X105254761Y-113473809D01*
X105278571Y-113521428D01*
X105278571Y-113592857D01*
X105254761Y-113640476D01*
X105230952Y-113664285D01*
X105183333Y-113688095D01*
X104992857Y-113688095D01*
X105754761Y-113926190D02*
X105469047Y-113926190D01*
X105611904Y-113926190D02*
X105611904Y-113426190D01*
X105564285Y-113497619D01*
X105516666Y-113545238D01*
X105469047Y-113569047D01*
X105921428Y-113426190D02*
X106254761Y-113426190D01*
X106040476Y-113926190D01*
X106478571Y-113226190D02*
X106311904Y-112988095D01*
X106192857Y-113226190D02*
X106192857Y-112726190D01*
X106383333Y-112726190D01*
X106430952Y-112750000D01*
X106454761Y-112773809D01*
X106478571Y-112821428D01*
X106478571Y-112892857D01*
X106454761Y-112940476D01*
X106430952Y-112964285D01*
X106383333Y-112988095D01*
X106192857Y-112988095D01*
X106954761Y-113226190D02*
X106669047Y-113226190D01*
X106811904Y-113226190D02*
X106811904Y-112726190D01*
X106764285Y-112797619D01*
X106716666Y-112845238D01*
X106669047Y-112869047D01*
X107240476Y-112940476D02*
X107192857Y-112916666D01*
X107169047Y-112892857D01*
X107145238Y-112845238D01*
X107145238Y-112821428D01*
X107169047Y-112773809D01*
X107192857Y-112750000D01*
X107240476Y-112726190D01*
X107335714Y-112726190D01*
X107383333Y-112750000D01*
X107407142Y-112773809D01*
X107430952Y-112821428D01*
X107430952Y-112845238D01*
X107407142Y-112892857D01*
X107383333Y-112916666D01*
X107335714Y-112940476D01*
X107240476Y-112940476D01*
X107192857Y-112964285D01*
X107169047Y-112988095D01*
X107145238Y-113035714D01*
X107145238Y-113130952D01*
X107169047Y-113178571D01*
X107192857Y-113202380D01*
X107240476Y-113226190D01*
X107335714Y-113226190D01*
X107383333Y-113202380D01*
X107407142Y-113178571D01*
X107430952Y-113130952D01*
X107430952Y-113035714D01*
X107407142Y-112988095D01*
X107383333Y-112964285D01*
X107335714Y-112940476D01*
X116526190Y-103221428D02*
X116288095Y-103388095D01*
X116526190Y-103507142D02*
X116026190Y-103507142D01*
X116026190Y-103316666D01*
X116050000Y-103269047D01*
X116073809Y-103245238D01*
X116121428Y-103221428D01*
X116192857Y-103221428D01*
X116240476Y-103245238D01*
X116264285Y-103269047D01*
X116288095Y-103316666D01*
X116288095Y-103507142D01*
X116526190Y-102745238D02*
X116526190Y-103030952D01*
X116526190Y-102888095D02*
X116026190Y-102888095D01*
X116097619Y-102935714D01*
X116145238Y-102983333D01*
X116169047Y-103030952D01*
X116526190Y-102507142D02*
X116526190Y-102411904D01*
X116502380Y-102364285D01*
X116478571Y-102340476D01*
X116407142Y-102292857D01*
X116311904Y-102269047D01*
X116121428Y-102269047D01*
X116073809Y-102292857D01*
X116050000Y-102316666D01*
X116026190Y-102364285D01*
X116026190Y-102459523D01*
X116050000Y-102507142D01*
X116073809Y-102530952D01*
X116121428Y-102554761D01*
X116240476Y-102554761D01*
X116288095Y-102530952D01*
X116311904Y-102507142D01*
X116335714Y-102459523D01*
X116335714Y-102364285D01*
X116311904Y-102316666D01*
X116288095Y-102292857D01*
X116240476Y-102269047D01*
X108178571Y-97726190D02*
X108011904Y-97488095D01*
X107892857Y-97726190D02*
X107892857Y-97226190D01*
X108083333Y-97226190D01*
X108130952Y-97250000D01*
X108154761Y-97273809D01*
X108178571Y-97321428D01*
X108178571Y-97392857D01*
X108154761Y-97440476D01*
X108130952Y-97464285D01*
X108083333Y-97488095D01*
X107892857Y-97488095D01*
X108369047Y-97273809D02*
X108392857Y-97250000D01*
X108440476Y-97226190D01*
X108559523Y-97226190D01*
X108607142Y-97250000D01*
X108630952Y-97273809D01*
X108654761Y-97321428D01*
X108654761Y-97369047D01*
X108630952Y-97440476D01*
X108345238Y-97726190D01*
X108654761Y-97726190D01*
X109107142Y-97226190D02*
X108869047Y-97226190D01*
X108845238Y-97464285D01*
X108869047Y-97440476D01*
X108916666Y-97416666D01*
X109035714Y-97416666D01*
X109083333Y-97440476D01*
X109107142Y-97464285D01*
X109130952Y-97511904D01*
X109130952Y-97630952D01*
X109107142Y-97678571D01*
X109083333Y-97702380D01*
X109035714Y-97726190D01*
X108916666Y-97726190D01*
X108869047Y-97702380D01*
X108845238Y-97678571D01*
X110626190Y-112371428D02*
X110388095Y-112538095D01*
X110626190Y-112657142D02*
X110126190Y-112657142D01*
X110126190Y-112466666D01*
X110150000Y-112419047D01*
X110173809Y-112395238D01*
X110221428Y-112371428D01*
X110292857Y-112371428D01*
X110340476Y-112395238D01*
X110364285Y-112419047D01*
X110388095Y-112466666D01*
X110388095Y-112657142D01*
X110173809Y-112180952D02*
X110150000Y-112157142D01*
X110126190Y-112109523D01*
X110126190Y-111990476D01*
X110150000Y-111942857D01*
X110173809Y-111919047D01*
X110221428Y-111895238D01*
X110269047Y-111895238D01*
X110340476Y-111919047D01*
X110626190Y-112204761D01*
X110626190Y-111895238D01*
X110126190Y-111466666D02*
X110126190Y-111561904D01*
X110150000Y-111609523D01*
X110173809Y-111633333D01*
X110245238Y-111680952D01*
X110340476Y-111704761D01*
X110530952Y-111704761D01*
X110578571Y-111680952D01*
X110602380Y-111657142D01*
X110626190Y-111609523D01*
X110626190Y-111514285D01*
X110602380Y-111466666D01*
X110578571Y-111442857D01*
X110530952Y-111419047D01*
X110411904Y-111419047D01*
X110364285Y-111442857D01*
X110340476Y-111466666D01*
X110316666Y-111514285D01*
X110316666Y-111609523D01*
X110340476Y-111657142D01*
X110364285Y-111680952D01*
X110411904Y-111704761D01*
X110276190Y-105421428D02*
X110038095Y-105588095D01*
X110276190Y-105707142D02*
X109776190Y-105707142D01*
X109776190Y-105516666D01*
X109800000Y-105469047D01*
X109823809Y-105445238D01*
X109871428Y-105421428D01*
X109942857Y-105421428D01*
X109990476Y-105445238D01*
X110014285Y-105469047D01*
X110038095Y-105516666D01*
X110038095Y-105707142D01*
X109823809Y-105230952D02*
X109800000Y-105207142D01*
X109776190Y-105159523D01*
X109776190Y-105040476D01*
X109800000Y-104992857D01*
X109823809Y-104969047D01*
X109871428Y-104945238D01*
X109919047Y-104945238D01*
X109990476Y-104969047D01*
X110276190Y-105254761D01*
X110276190Y-104945238D01*
X109776190Y-104778571D02*
X109776190Y-104445238D01*
X110276190Y-104659523D01*
X91753571Y-110976190D02*
X91586904Y-110738095D01*
X91467857Y-110976190D02*
X91467857Y-110476190D01*
X91658333Y-110476190D01*
X91705952Y-110500000D01*
X91729761Y-110523809D01*
X91753571Y-110571428D01*
X91753571Y-110642857D01*
X91729761Y-110690476D01*
X91705952Y-110714285D01*
X91658333Y-110738095D01*
X91467857Y-110738095D01*
X91944047Y-110523809D02*
X91967857Y-110500000D01*
X92015476Y-110476190D01*
X92134523Y-110476190D01*
X92182142Y-110500000D01*
X92205952Y-110523809D01*
X92229761Y-110571428D01*
X92229761Y-110619047D01*
X92205952Y-110690476D01*
X91920238Y-110976190D01*
X92229761Y-110976190D01*
X92515476Y-110690476D02*
X92467857Y-110666666D01*
X92444047Y-110642857D01*
X92420238Y-110595238D01*
X92420238Y-110571428D01*
X92444047Y-110523809D01*
X92467857Y-110500000D01*
X92515476Y-110476190D01*
X92610714Y-110476190D01*
X92658333Y-110500000D01*
X92682142Y-110523809D01*
X92705952Y-110571428D01*
X92705952Y-110595238D01*
X92682142Y-110642857D01*
X92658333Y-110666666D01*
X92610714Y-110690476D01*
X92515476Y-110690476D01*
X92467857Y-110714285D01*
X92444047Y-110738095D01*
X92420238Y-110785714D01*
X92420238Y-110880952D01*
X92444047Y-110928571D01*
X92467857Y-110952380D01*
X92515476Y-110976190D01*
X92610714Y-110976190D01*
X92658333Y-110952380D01*
X92682142Y-110928571D01*
X92705952Y-110880952D01*
X92705952Y-110785714D01*
X92682142Y-110738095D01*
X92658333Y-110714285D01*
X92610714Y-110690476D01*
X89928571Y-109076190D02*
X89761904Y-108838095D01*
X89642857Y-109076190D02*
X89642857Y-108576190D01*
X89833333Y-108576190D01*
X89880952Y-108600000D01*
X89904761Y-108623809D01*
X89928571Y-108671428D01*
X89928571Y-108742857D01*
X89904761Y-108790476D01*
X89880952Y-108814285D01*
X89833333Y-108838095D01*
X89642857Y-108838095D01*
X90119047Y-108623809D02*
X90142857Y-108600000D01*
X90190476Y-108576190D01*
X90309523Y-108576190D01*
X90357142Y-108600000D01*
X90380952Y-108623809D01*
X90404761Y-108671428D01*
X90404761Y-108719047D01*
X90380952Y-108790476D01*
X90095238Y-109076190D01*
X90404761Y-109076190D01*
X90642857Y-109076190D02*
X90738095Y-109076190D01*
X90785714Y-109052380D01*
X90809523Y-109028571D01*
X90857142Y-108957142D01*
X90880952Y-108861904D01*
X90880952Y-108671428D01*
X90857142Y-108623809D01*
X90833333Y-108600000D01*
X90785714Y-108576190D01*
X90690476Y-108576190D01*
X90642857Y-108600000D01*
X90619047Y-108623809D01*
X90595238Y-108671428D01*
X90595238Y-108790476D01*
X90619047Y-108838095D01*
X90642857Y-108861904D01*
X90690476Y-108885714D01*
X90785714Y-108885714D01*
X90833333Y-108861904D01*
X90857142Y-108838095D01*
X90880952Y-108790476D01*
X109019047Y-100276190D02*
X109019047Y-100680952D01*
X109042857Y-100728571D01*
X109066666Y-100752380D01*
X109114285Y-100776190D01*
X109209523Y-100776190D01*
X109257142Y-100752380D01*
X109280952Y-100728571D01*
X109304761Y-100680952D01*
X109304761Y-100276190D01*
X109804761Y-100776190D02*
X109519047Y-100776190D01*
X109661904Y-100776190D02*
X109661904Y-100276190D01*
X109614285Y-100347619D01*
X109566666Y-100395238D01*
X109519047Y-100419047D01*
M02*
