G04 #@! TF.GenerationSoftware,KiCad,Pcbnew,(5.1.8)-1*
G04 #@! TF.CreationDate,2020-11-22T23:20:16-08:00*
G04 #@! TF.ProjectId,Thruster_Controller_V2,54687275-7374-4657-925f-436f6e74726f,rev?*
G04 #@! TF.SameCoordinates,Original*
G04 #@! TF.FileFunction,Paste,Top*
G04 #@! TF.FilePolarity,Positive*
%FSLAX46Y46*%
G04 Gerber Fmt 4.6, Leading zero omitted, Abs format (unit mm)*
G04 Created by KiCad (PCBNEW (5.1.8)-1) date 2020-11-22 23:20:16*
%MOMM*%
%LPD*%
G01*
G04 APERTURE LIST*
%ADD10R,1.600000X3.500000*%
%ADD11C,4.000000*%
%ADD12R,2.500000X1.850000*%
%ADD13C,2.000000*%
G04 APERTURE END LIST*
D10*
X98150000Y-88100000D03*
X98150000Y-93500000D03*
X105000000Y-88100000D03*
X105000000Y-93500000D03*
X111850000Y-88100000D03*
X111850000Y-93500000D03*
D11*
X91950000Y-84400000D03*
X99800000Y-82600000D03*
X107800000Y-84150000D03*
D12*
X89900000Y-89175000D03*
X89825000Y-93550000D03*
D13*
X91050000Y-105600000D03*
X91050000Y-101600000D03*
G36*
G01*
X96100000Y-100575000D02*
X96600000Y-100575000D01*
G75*
G02*
X96825000Y-100800000I0J-225000D01*
G01*
X96825000Y-101250000D01*
G75*
G02*
X96600000Y-101475000I-225000J0D01*
G01*
X96100000Y-101475000D01*
G75*
G02*
X95875000Y-101250000I0J225000D01*
G01*
X95875000Y-100800000D01*
G75*
G02*
X96100000Y-100575000I225000J0D01*
G01*
G37*
G36*
G01*
X96100000Y-102125000D02*
X96600000Y-102125000D01*
G75*
G02*
X96825000Y-102350000I0J-225000D01*
G01*
X96825000Y-102800000D01*
G75*
G02*
X96600000Y-103025000I-225000J0D01*
G01*
X96100000Y-103025000D01*
G75*
G02*
X95875000Y-102800000I0J225000D01*
G01*
X95875000Y-102350000D01*
G75*
G02*
X96100000Y-102125000I225000J0D01*
G01*
G37*
G36*
G01*
X97770000Y-103500000D02*
X97430000Y-103500000D01*
G75*
G02*
X97290000Y-103360000I0J140000D01*
G01*
X97290000Y-103080000D01*
G75*
G02*
X97430000Y-102940000I140000J0D01*
G01*
X97770000Y-102940000D01*
G75*
G02*
X97910000Y-103080000I0J-140000D01*
G01*
X97910000Y-103360000D01*
G75*
G02*
X97770000Y-103500000I-140000J0D01*
G01*
G37*
G36*
G01*
X97770000Y-102540000D02*
X97430000Y-102540000D01*
G75*
G02*
X97290000Y-102400000I0J140000D01*
G01*
X97290000Y-102120000D01*
G75*
G02*
X97430000Y-101980000I140000J0D01*
G01*
X97770000Y-101980000D01*
G75*
G02*
X97910000Y-102120000I0J-140000D01*
G01*
X97910000Y-102400000D01*
G75*
G02*
X97770000Y-102540000I-140000J0D01*
G01*
G37*
G36*
G01*
X110600000Y-95975000D02*
X110600000Y-96925000D01*
G75*
G02*
X110350000Y-97175000I-250000J0D01*
G01*
X109850000Y-97175000D01*
G75*
G02*
X109600000Y-96925000I0J250000D01*
G01*
X109600000Y-95975000D01*
G75*
G02*
X109850000Y-95725000I250000J0D01*
G01*
X110350000Y-95725000D01*
G75*
G02*
X110600000Y-95975000I0J-250000D01*
G01*
G37*
G36*
G01*
X112500000Y-95975000D02*
X112500000Y-96925000D01*
G75*
G02*
X112250000Y-97175000I-250000J0D01*
G01*
X111750000Y-97175000D01*
G75*
G02*
X111500000Y-96925000I0J250000D01*
G01*
X111500000Y-95975000D01*
G75*
G02*
X111750000Y-95725000I250000J0D01*
G01*
X112250000Y-95725000D01*
G75*
G02*
X112500000Y-95975000I0J-250000D01*
G01*
G37*
G36*
G01*
X112275000Y-98800000D02*
X112275000Y-99300000D01*
G75*
G02*
X112050000Y-99525000I-225000J0D01*
G01*
X111600000Y-99525000D01*
G75*
G02*
X111375000Y-99300000I0J225000D01*
G01*
X111375000Y-98800000D01*
G75*
G02*
X111600000Y-98575000I225000J0D01*
G01*
X112050000Y-98575000D01*
G75*
G02*
X112275000Y-98800000I0J-225000D01*
G01*
G37*
G36*
G01*
X110725000Y-98800000D02*
X110725000Y-99300000D01*
G75*
G02*
X110500000Y-99525000I-225000J0D01*
G01*
X110050000Y-99525000D01*
G75*
G02*
X109825000Y-99300000I0J225000D01*
G01*
X109825000Y-98800000D01*
G75*
G02*
X110050000Y-98575000I225000J0D01*
G01*
X110500000Y-98575000D01*
G75*
G02*
X110725000Y-98800000I0J-225000D01*
G01*
G37*
G36*
G01*
X94580000Y-102125000D02*
X95080000Y-102125000D01*
G75*
G02*
X95305000Y-102350000I0J-225000D01*
G01*
X95305000Y-102800000D01*
G75*
G02*
X95080000Y-103025000I-225000J0D01*
G01*
X94580000Y-103025000D01*
G75*
G02*
X94355000Y-102800000I0J225000D01*
G01*
X94355000Y-102350000D01*
G75*
G02*
X94580000Y-102125000I225000J0D01*
G01*
G37*
G36*
G01*
X94580000Y-100575000D02*
X95080000Y-100575000D01*
G75*
G02*
X95305000Y-100800000I0J-225000D01*
G01*
X95305000Y-101250000D01*
G75*
G02*
X95080000Y-101475000I-225000J0D01*
G01*
X94580000Y-101475000D01*
G75*
G02*
X94355000Y-101250000I0J225000D01*
G01*
X94355000Y-100800000D01*
G75*
G02*
X94580000Y-100575000I225000J0D01*
G01*
G37*
G36*
G01*
X103650000Y-110555000D02*
X103650000Y-110895000D01*
G75*
G02*
X103510000Y-111035000I-140000J0D01*
G01*
X103230000Y-111035000D01*
G75*
G02*
X103090000Y-110895000I0J140000D01*
G01*
X103090000Y-110555000D01*
G75*
G02*
X103230000Y-110415000I140000J0D01*
G01*
X103510000Y-110415000D01*
G75*
G02*
X103650000Y-110555000I0J-140000D01*
G01*
G37*
G36*
G01*
X104610000Y-110555000D02*
X104610000Y-110895000D01*
G75*
G02*
X104470000Y-111035000I-140000J0D01*
G01*
X104190000Y-111035000D01*
G75*
G02*
X104050000Y-110895000I0J140000D01*
G01*
X104050000Y-110555000D01*
G75*
G02*
X104190000Y-110415000I140000J0D01*
G01*
X104470000Y-110415000D01*
G75*
G02*
X104610000Y-110555000I0J-140000D01*
G01*
G37*
G36*
G01*
X107870000Y-112040000D02*
X107870000Y-111700000D01*
G75*
G02*
X108010000Y-111560000I140000J0D01*
G01*
X108290000Y-111560000D01*
G75*
G02*
X108430000Y-111700000I0J-140000D01*
G01*
X108430000Y-112040000D01*
G75*
G02*
X108290000Y-112180000I-140000J0D01*
G01*
X108010000Y-112180000D01*
G75*
G02*
X107870000Y-112040000I0J140000D01*
G01*
G37*
G36*
G01*
X108830000Y-112040000D02*
X108830000Y-111700000D01*
G75*
G02*
X108970000Y-111560000I140000J0D01*
G01*
X109250000Y-111560000D01*
G75*
G02*
X109390000Y-111700000I0J-140000D01*
G01*
X109390000Y-112040000D01*
G75*
G02*
X109250000Y-112180000I-140000J0D01*
G01*
X108970000Y-112180000D01*
G75*
G02*
X108830000Y-112040000I0J140000D01*
G01*
G37*
G36*
G01*
X91140000Y-112090000D02*
X90800000Y-112090000D01*
G75*
G02*
X90660000Y-111950000I0J140000D01*
G01*
X90660000Y-111670000D01*
G75*
G02*
X90800000Y-111530000I140000J0D01*
G01*
X91140000Y-111530000D01*
G75*
G02*
X91280000Y-111670000I0J-140000D01*
G01*
X91280000Y-111950000D01*
G75*
G02*
X91140000Y-112090000I-140000J0D01*
G01*
G37*
G36*
G01*
X91140000Y-111130000D02*
X90800000Y-111130000D01*
G75*
G02*
X90660000Y-110990000I0J140000D01*
G01*
X90660000Y-110710000D01*
G75*
G02*
X90800000Y-110570000I140000J0D01*
G01*
X91140000Y-110570000D01*
G75*
G02*
X91280000Y-110710000I0J-140000D01*
G01*
X91280000Y-110990000D01*
G75*
G02*
X91140000Y-111130000I-140000J0D01*
G01*
G37*
G36*
G01*
X98250000Y-101070000D02*
X98250000Y-100730000D01*
G75*
G02*
X98390000Y-100590000I140000J0D01*
G01*
X98670000Y-100590000D01*
G75*
G02*
X98810000Y-100730000I0J-140000D01*
G01*
X98810000Y-101070000D01*
G75*
G02*
X98670000Y-101210000I-140000J0D01*
G01*
X98390000Y-101210000D01*
G75*
G02*
X98250000Y-101070000I0J140000D01*
G01*
G37*
G36*
G01*
X97290000Y-101070000D02*
X97290000Y-100730000D01*
G75*
G02*
X97430000Y-100590000I140000J0D01*
G01*
X97710000Y-100590000D01*
G75*
G02*
X97850000Y-100730000I0J-140000D01*
G01*
X97850000Y-101070000D01*
G75*
G02*
X97710000Y-101210000I-140000J0D01*
G01*
X97430000Y-101210000D01*
G75*
G02*
X97290000Y-101070000I0J140000D01*
G01*
G37*
G36*
G01*
X107640000Y-88020000D02*
X107640000Y-87680000D01*
G75*
G02*
X107780000Y-87540000I140000J0D01*
G01*
X108060000Y-87540000D01*
G75*
G02*
X108200000Y-87680000I0J-140000D01*
G01*
X108200000Y-88020000D01*
G75*
G02*
X108060000Y-88160000I-140000J0D01*
G01*
X107780000Y-88160000D01*
G75*
G02*
X107640000Y-88020000I0J140000D01*
G01*
G37*
G36*
G01*
X108600000Y-88020000D02*
X108600000Y-87680000D01*
G75*
G02*
X108740000Y-87540000I140000J0D01*
G01*
X109020000Y-87540000D01*
G75*
G02*
X109160000Y-87680000I0J-140000D01*
G01*
X109160000Y-88020000D01*
G75*
G02*
X109020000Y-88160000I-140000J0D01*
G01*
X108740000Y-88160000D01*
G75*
G02*
X108600000Y-88020000I0J140000D01*
G01*
G37*
G36*
G01*
X101800000Y-88020000D02*
X101800000Y-87680000D01*
G75*
G02*
X101940000Y-87540000I140000J0D01*
G01*
X102220000Y-87540000D01*
G75*
G02*
X102360000Y-87680000I0J-140000D01*
G01*
X102360000Y-88020000D01*
G75*
G02*
X102220000Y-88160000I-140000J0D01*
G01*
X101940000Y-88160000D01*
G75*
G02*
X101800000Y-88020000I0J140000D01*
G01*
G37*
G36*
G01*
X100840000Y-88020000D02*
X100840000Y-87680000D01*
G75*
G02*
X100980000Y-87540000I140000J0D01*
G01*
X101260000Y-87540000D01*
G75*
G02*
X101400000Y-87680000I0J-140000D01*
G01*
X101400000Y-88020000D01*
G75*
G02*
X101260000Y-88160000I-140000J0D01*
G01*
X100980000Y-88160000D01*
G75*
G02*
X100840000Y-88020000I0J140000D01*
G01*
G37*
G36*
G01*
X94950000Y-88070000D02*
X94950000Y-87730000D01*
G75*
G02*
X95090000Y-87590000I140000J0D01*
G01*
X95370000Y-87590000D01*
G75*
G02*
X95510000Y-87730000I0J-140000D01*
G01*
X95510000Y-88070000D01*
G75*
G02*
X95370000Y-88210000I-140000J0D01*
G01*
X95090000Y-88210000D01*
G75*
G02*
X94950000Y-88070000I0J140000D01*
G01*
G37*
G36*
G01*
X93990000Y-88070000D02*
X93990000Y-87730000D01*
G75*
G02*
X94130000Y-87590000I140000J0D01*
G01*
X94410000Y-87590000D01*
G75*
G02*
X94550000Y-87730000I0J-140000D01*
G01*
X94550000Y-88070000D01*
G75*
G02*
X94410000Y-88210000I-140000J0D01*
G01*
X94130000Y-88210000D01*
G75*
G02*
X93990000Y-88070000I0J140000D01*
G01*
G37*
G36*
G01*
X96975000Y-107900000D02*
X96975000Y-107400000D01*
G75*
G02*
X97200000Y-107175000I225000J0D01*
G01*
X97650000Y-107175000D01*
G75*
G02*
X97875000Y-107400000I0J-225000D01*
G01*
X97875000Y-107900000D01*
G75*
G02*
X97650000Y-108125000I-225000J0D01*
G01*
X97200000Y-108125000D01*
G75*
G02*
X96975000Y-107900000I0J225000D01*
G01*
G37*
G36*
G01*
X95425000Y-107900000D02*
X95425000Y-107400000D01*
G75*
G02*
X95650000Y-107175000I225000J0D01*
G01*
X96100000Y-107175000D01*
G75*
G02*
X96325000Y-107400000I0J-225000D01*
G01*
X96325000Y-107900000D01*
G75*
G02*
X96100000Y-108125000I-225000J0D01*
G01*
X95650000Y-108125000D01*
G75*
G02*
X95425000Y-107900000I0J225000D01*
G01*
G37*
G36*
G01*
X107870000Y-110980000D02*
X107870000Y-110640000D01*
G75*
G02*
X108010000Y-110500000I140000J0D01*
G01*
X108290000Y-110500000D01*
G75*
G02*
X108430000Y-110640000I0J-140000D01*
G01*
X108430000Y-110980000D01*
G75*
G02*
X108290000Y-111120000I-140000J0D01*
G01*
X108010000Y-111120000D01*
G75*
G02*
X107870000Y-110980000I0J140000D01*
G01*
G37*
G36*
G01*
X108830000Y-110980000D02*
X108830000Y-110640000D01*
G75*
G02*
X108970000Y-110500000I140000J0D01*
G01*
X109250000Y-110500000D01*
G75*
G02*
X109390000Y-110640000I0J-140000D01*
G01*
X109390000Y-110980000D01*
G75*
G02*
X109250000Y-111120000I-140000J0D01*
G01*
X108970000Y-111120000D01*
G75*
G02*
X108830000Y-110980000I0J140000D01*
G01*
G37*
G36*
G01*
X104650000Y-109225000D02*
X104650000Y-109725000D01*
G75*
G02*
X104425000Y-109950000I-225000J0D01*
G01*
X103975000Y-109950000D01*
G75*
G02*
X103750000Y-109725000I0J225000D01*
G01*
X103750000Y-109225000D01*
G75*
G02*
X103975000Y-109000000I225000J0D01*
G01*
X104425000Y-109000000D01*
G75*
G02*
X104650000Y-109225000I0J-225000D01*
G01*
G37*
G36*
G01*
X103100000Y-109225000D02*
X103100000Y-109725000D01*
G75*
G02*
X102875000Y-109950000I-225000J0D01*
G01*
X102425000Y-109950000D01*
G75*
G02*
X102200000Y-109725000I0J225000D01*
G01*
X102200000Y-109225000D01*
G75*
G02*
X102425000Y-109000000I225000J0D01*
G01*
X102875000Y-109000000D01*
G75*
G02*
X103100000Y-109225000I0J-225000D01*
G01*
G37*
G36*
G01*
X99470000Y-113335000D02*
X99130000Y-113335000D01*
G75*
G02*
X98990000Y-113195000I0J140000D01*
G01*
X98990000Y-112915000D01*
G75*
G02*
X99130000Y-112775000I140000J0D01*
G01*
X99470000Y-112775000D01*
G75*
G02*
X99610000Y-112915000I0J-140000D01*
G01*
X99610000Y-113195000D01*
G75*
G02*
X99470000Y-113335000I-140000J0D01*
G01*
G37*
G36*
G01*
X99470000Y-112375000D02*
X99130000Y-112375000D01*
G75*
G02*
X98990000Y-112235000I0J140000D01*
G01*
X98990000Y-111955000D01*
G75*
G02*
X99130000Y-111815000I140000J0D01*
G01*
X99470000Y-111815000D01*
G75*
G02*
X99610000Y-111955000I0J-140000D01*
G01*
X99610000Y-112235000D01*
G75*
G02*
X99470000Y-112375000I-140000J0D01*
G01*
G37*
G36*
G01*
X101125000Y-101475000D02*
X101125000Y-101975000D01*
G75*
G02*
X100900000Y-102200000I-225000J0D01*
G01*
X100450000Y-102200000D01*
G75*
G02*
X100225000Y-101975000I0J225000D01*
G01*
X100225000Y-101475000D01*
G75*
G02*
X100450000Y-101250000I225000J0D01*
G01*
X100900000Y-101250000D01*
G75*
G02*
X101125000Y-101475000I0J-225000D01*
G01*
G37*
G36*
G01*
X102675000Y-101475000D02*
X102675000Y-101975000D01*
G75*
G02*
X102450000Y-102200000I-225000J0D01*
G01*
X102000000Y-102200000D01*
G75*
G02*
X101775000Y-101975000I0J225000D01*
G01*
X101775000Y-101475000D01*
G75*
G02*
X102000000Y-101250000I225000J0D01*
G01*
X102450000Y-101250000D01*
G75*
G02*
X102675000Y-101475000I0J-225000D01*
G01*
G37*
G36*
G01*
X86155000Y-109630000D02*
X86155000Y-109130000D01*
G75*
G02*
X86380000Y-108905000I225000J0D01*
G01*
X86830000Y-108905000D01*
G75*
G02*
X87055000Y-109130000I0J-225000D01*
G01*
X87055000Y-109630000D01*
G75*
G02*
X86830000Y-109855000I-225000J0D01*
G01*
X86380000Y-109855000D01*
G75*
G02*
X86155000Y-109630000I0J225000D01*
G01*
G37*
G36*
G01*
X87705000Y-109630000D02*
X87705000Y-109130000D01*
G75*
G02*
X87930000Y-108905000I225000J0D01*
G01*
X88380000Y-108905000D01*
G75*
G02*
X88605000Y-109130000I0J-225000D01*
G01*
X88605000Y-109630000D01*
G75*
G02*
X88380000Y-109855000I-225000J0D01*
G01*
X87930000Y-109855000D01*
G75*
G02*
X87705000Y-109630000I0J225000D01*
G01*
G37*
G36*
G01*
X100445000Y-113335000D02*
X100105000Y-113335000D01*
G75*
G02*
X99965000Y-113195000I0J140000D01*
G01*
X99965000Y-112915000D01*
G75*
G02*
X100105000Y-112775000I140000J0D01*
G01*
X100445000Y-112775000D01*
G75*
G02*
X100585000Y-112915000I0J-140000D01*
G01*
X100585000Y-113195000D01*
G75*
G02*
X100445000Y-113335000I-140000J0D01*
G01*
G37*
G36*
G01*
X100445000Y-112375000D02*
X100105000Y-112375000D01*
G75*
G02*
X99965000Y-112235000I0J140000D01*
G01*
X99965000Y-111955000D01*
G75*
G02*
X100105000Y-111815000I140000J0D01*
G01*
X100445000Y-111815000D01*
G75*
G02*
X100585000Y-111955000I0J-140000D01*
G01*
X100585000Y-112235000D01*
G75*
G02*
X100445000Y-112375000I-140000J0D01*
G01*
G37*
G36*
G01*
X89020000Y-104600000D02*
X88680000Y-104600000D01*
G75*
G02*
X88540000Y-104460000I0J140000D01*
G01*
X88540000Y-104180000D01*
G75*
G02*
X88680000Y-104040000I140000J0D01*
G01*
X89020000Y-104040000D01*
G75*
G02*
X89160000Y-104180000I0J-140000D01*
G01*
X89160000Y-104460000D01*
G75*
G02*
X89020000Y-104600000I-140000J0D01*
G01*
G37*
G36*
G01*
X89020000Y-105560000D02*
X88680000Y-105560000D01*
G75*
G02*
X88540000Y-105420000I0J140000D01*
G01*
X88540000Y-105140000D01*
G75*
G02*
X88680000Y-105000000I140000J0D01*
G01*
X89020000Y-105000000D01*
G75*
G02*
X89160000Y-105140000I0J-140000D01*
G01*
X89160000Y-105420000D01*
G75*
G02*
X89020000Y-105560000I-140000J0D01*
G01*
G37*
G36*
G01*
X92780000Y-97915000D02*
X93120000Y-97915000D01*
G75*
G02*
X93260000Y-98055000I0J-140000D01*
G01*
X93260000Y-98335000D01*
G75*
G02*
X93120000Y-98475000I-140000J0D01*
G01*
X92780000Y-98475000D01*
G75*
G02*
X92640000Y-98335000I0J140000D01*
G01*
X92640000Y-98055000D01*
G75*
G02*
X92780000Y-97915000I140000J0D01*
G01*
G37*
G36*
G01*
X92780000Y-98875000D02*
X93120000Y-98875000D01*
G75*
G02*
X93260000Y-99015000I0J-140000D01*
G01*
X93260000Y-99295000D01*
G75*
G02*
X93120000Y-99435000I-140000J0D01*
G01*
X92780000Y-99435000D01*
G75*
G02*
X92640000Y-99295000I0J140000D01*
G01*
X92640000Y-99015000D01*
G75*
G02*
X92780000Y-98875000I140000J0D01*
G01*
G37*
G36*
G01*
X89430000Y-110695000D02*
X89930000Y-110695000D01*
G75*
G02*
X90155000Y-110920000I0J-225000D01*
G01*
X90155000Y-111370000D01*
G75*
G02*
X89930000Y-111595000I-225000J0D01*
G01*
X89430000Y-111595000D01*
G75*
G02*
X89205000Y-111370000I0J225000D01*
G01*
X89205000Y-110920000D01*
G75*
G02*
X89430000Y-110695000I225000J0D01*
G01*
G37*
G36*
G01*
X89430000Y-109145000D02*
X89930000Y-109145000D01*
G75*
G02*
X90155000Y-109370000I0J-225000D01*
G01*
X90155000Y-109820000D01*
G75*
G02*
X89930000Y-110045000I-225000J0D01*
G01*
X89430000Y-110045000D01*
G75*
G02*
X89205000Y-109820000I0J225000D01*
G01*
X89205000Y-109370000D01*
G75*
G02*
X89430000Y-109145000I225000J0D01*
G01*
G37*
G36*
G01*
X87830000Y-104635000D02*
X87330000Y-104635000D01*
G75*
G02*
X87105000Y-104410000I0J225000D01*
G01*
X87105000Y-103960000D01*
G75*
G02*
X87330000Y-103735000I225000J0D01*
G01*
X87830000Y-103735000D01*
G75*
G02*
X88055000Y-103960000I0J-225000D01*
G01*
X88055000Y-104410000D01*
G75*
G02*
X87830000Y-104635000I-225000J0D01*
G01*
G37*
G36*
G01*
X87830000Y-106185000D02*
X87330000Y-106185000D01*
G75*
G02*
X87105000Y-105960000I0J225000D01*
G01*
X87105000Y-105510000D01*
G75*
G02*
X87330000Y-105285000I225000J0D01*
G01*
X87830000Y-105285000D01*
G75*
G02*
X88055000Y-105510000I0J-225000D01*
G01*
X88055000Y-105960000D01*
G75*
G02*
X87830000Y-106185000I-225000J0D01*
G01*
G37*
G36*
G01*
X101420000Y-112375000D02*
X101080000Y-112375000D01*
G75*
G02*
X100940000Y-112235000I0J140000D01*
G01*
X100940000Y-111955000D01*
G75*
G02*
X101080000Y-111815000I140000J0D01*
G01*
X101420000Y-111815000D01*
G75*
G02*
X101560000Y-111955000I0J-140000D01*
G01*
X101560000Y-112235000D01*
G75*
G02*
X101420000Y-112375000I-140000J0D01*
G01*
G37*
G36*
G01*
X101420000Y-113335000D02*
X101080000Y-113335000D01*
G75*
G02*
X100940000Y-113195000I0J140000D01*
G01*
X100940000Y-112915000D01*
G75*
G02*
X101080000Y-112775000I140000J0D01*
G01*
X101420000Y-112775000D01*
G75*
G02*
X101560000Y-112915000I0J-140000D01*
G01*
X101560000Y-113195000D01*
G75*
G02*
X101420000Y-113335000I-140000J0D01*
G01*
G37*
G36*
G01*
X103460000Y-111530000D02*
X103460000Y-111870000D01*
G75*
G02*
X103320000Y-112010000I-140000J0D01*
G01*
X103040000Y-112010000D01*
G75*
G02*
X102900000Y-111870000I0J140000D01*
G01*
X102900000Y-111530000D01*
G75*
G02*
X103040000Y-111390000I140000J0D01*
G01*
X103320000Y-111390000D01*
G75*
G02*
X103460000Y-111530000I0J-140000D01*
G01*
G37*
G36*
G01*
X102500000Y-111530000D02*
X102500000Y-111870000D01*
G75*
G02*
X102360000Y-112010000I-140000J0D01*
G01*
X102080000Y-112010000D01*
G75*
G02*
X101940000Y-111870000I0J140000D01*
G01*
X101940000Y-111530000D01*
G75*
G02*
X102080000Y-111390000I140000J0D01*
G01*
X102360000Y-111390000D01*
G75*
G02*
X102500000Y-111530000I0J-140000D01*
G01*
G37*
G36*
G01*
X98495000Y-113335000D02*
X98155000Y-113335000D01*
G75*
G02*
X98015000Y-113195000I0J140000D01*
G01*
X98015000Y-112915000D01*
G75*
G02*
X98155000Y-112775000I140000J0D01*
G01*
X98495000Y-112775000D01*
G75*
G02*
X98635000Y-112915000I0J-140000D01*
G01*
X98635000Y-113195000D01*
G75*
G02*
X98495000Y-113335000I-140000J0D01*
G01*
G37*
G36*
G01*
X98495000Y-112375000D02*
X98155000Y-112375000D01*
G75*
G02*
X98015000Y-112235000I0J140000D01*
G01*
X98015000Y-111955000D01*
G75*
G02*
X98155000Y-111815000I140000J0D01*
G01*
X98495000Y-111815000D01*
G75*
G02*
X98635000Y-111955000I0J-140000D01*
G01*
X98635000Y-112235000D01*
G75*
G02*
X98495000Y-112375000I-140000J0D01*
G01*
G37*
G36*
G01*
X103460000Y-112505000D02*
X103460000Y-112845000D01*
G75*
G02*
X103320000Y-112985000I-140000J0D01*
G01*
X103040000Y-112985000D01*
G75*
G02*
X102900000Y-112845000I0J140000D01*
G01*
X102900000Y-112505000D01*
G75*
G02*
X103040000Y-112365000I140000J0D01*
G01*
X103320000Y-112365000D01*
G75*
G02*
X103460000Y-112505000I0J-140000D01*
G01*
G37*
G36*
G01*
X102500000Y-112505000D02*
X102500000Y-112845000D01*
G75*
G02*
X102360000Y-112985000I-140000J0D01*
G01*
X102080000Y-112985000D01*
G75*
G02*
X101940000Y-112845000I0J140000D01*
G01*
X101940000Y-112505000D01*
G75*
G02*
X102080000Y-112365000I140000J0D01*
G01*
X102360000Y-112365000D01*
G75*
G02*
X102500000Y-112505000I0J-140000D01*
G01*
G37*
G36*
G01*
X103625000Y-108055000D02*
X103625000Y-108395000D01*
G75*
G02*
X103485000Y-108535000I-140000J0D01*
G01*
X103205000Y-108535000D01*
G75*
G02*
X103065000Y-108395000I0J140000D01*
G01*
X103065000Y-108055000D01*
G75*
G02*
X103205000Y-107915000I140000J0D01*
G01*
X103485000Y-107915000D01*
G75*
G02*
X103625000Y-108055000I0J-140000D01*
G01*
G37*
G36*
G01*
X104585000Y-108055000D02*
X104585000Y-108395000D01*
G75*
G02*
X104445000Y-108535000I-140000J0D01*
G01*
X104165000Y-108535000D01*
G75*
G02*
X104025000Y-108395000I0J140000D01*
G01*
X104025000Y-108055000D01*
G75*
G02*
X104165000Y-107915000I140000J0D01*
G01*
X104445000Y-107915000D01*
G75*
G02*
X104585000Y-108055000I0J-140000D01*
G01*
G37*
G36*
G01*
X97495000Y-113985000D02*
X97155000Y-113985000D01*
G75*
G02*
X97015000Y-113845000I0J140000D01*
G01*
X97015000Y-113565000D01*
G75*
G02*
X97155000Y-113425000I140000J0D01*
G01*
X97495000Y-113425000D01*
G75*
G02*
X97635000Y-113565000I0J-140000D01*
G01*
X97635000Y-113845000D01*
G75*
G02*
X97495000Y-113985000I-140000J0D01*
G01*
G37*
G36*
G01*
X97495000Y-113025000D02*
X97155000Y-113025000D01*
G75*
G02*
X97015000Y-112885000I0J140000D01*
G01*
X97015000Y-112605000D01*
G75*
G02*
X97155000Y-112465000I140000J0D01*
G01*
X97495000Y-112465000D01*
G75*
G02*
X97635000Y-112605000I0J-140000D01*
G01*
X97635000Y-112885000D01*
G75*
G02*
X97495000Y-113025000I-140000J0D01*
G01*
G37*
G36*
G01*
X110920000Y-111260000D02*
X110920000Y-110920000D01*
G75*
G02*
X111060000Y-110780000I140000J0D01*
G01*
X111340000Y-110780000D01*
G75*
G02*
X111480000Y-110920000I0J-140000D01*
G01*
X111480000Y-111260000D01*
G75*
G02*
X111340000Y-111400000I-140000J0D01*
G01*
X111060000Y-111400000D01*
G75*
G02*
X110920000Y-111260000I0J140000D01*
G01*
G37*
G36*
G01*
X111880000Y-111260000D02*
X111880000Y-110920000D01*
G75*
G02*
X112020000Y-110780000I140000J0D01*
G01*
X112300000Y-110780000D01*
G75*
G02*
X112440000Y-110920000I0J-140000D01*
G01*
X112440000Y-111260000D01*
G75*
G02*
X112300000Y-111400000I-140000J0D01*
G01*
X112020000Y-111400000D01*
G75*
G02*
X111880000Y-111260000I0J140000D01*
G01*
G37*
G36*
G01*
X94010000Y-103630000D02*
X94010000Y-103970000D01*
G75*
G02*
X93870000Y-104110000I-140000J0D01*
G01*
X93590000Y-104110000D01*
G75*
G02*
X93450000Y-103970000I0J140000D01*
G01*
X93450000Y-103630000D01*
G75*
G02*
X93590000Y-103490000I140000J0D01*
G01*
X93870000Y-103490000D01*
G75*
G02*
X94010000Y-103630000I0J-140000D01*
G01*
G37*
G36*
G01*
X94970000Y-103630000D02*
X94970000Y-103970000D01*
G75*
G02*
X94830000Y-104110000I-140000J0D01*
G01*
X94550000Y-104110000D01*
G75*
G02*
X94410000Y-103970000I0J140000D01*
G01*
X94410000Y-103630000D01*
G75*
G02*
X94550000Y-103490000I140000J0D01*
G01*
X94830000Y-103490000D01*
G75*
G02*
X94970000Y-103630000I0J-140000D01*
G01*
G37*
G36*
G01*
X92870000Y-105060000D02*
X92530000Y-105060000D01*
G75*
G02*
X92390000Y-104920000I0J140000D01*
G01*
X92390000Y-104640000D01*
G75*
G02*
X92530000Y-104500000I140000J0D01*
G01*
X92870000Y-104500000D01*
G75*
G02*
X93010000Y-104640000I0J-140000D01*
G01*
X93010000Y-104920000D01*
G75*
G02*
X92870000Y-105060000I-140000J0D01*
G01*
G37*
G36*
G01*
X92870000Y-104100000D02*
X92530000Y-104100000D01*
G75*
G02*
X92390000Y-103960000I0J140000D01*
G01*
X92390000Y-103680000D01*
G75*
G02*
X92530000Y-103540000I140000J0D01*
G01*
X92870000Y-103540000D01*
G75*
G02*
X93010000Y-103680000I0J-140000D01*
G01*
X93010000Y-103960000D01*
G75*
G02*
X92870000Y-104100000I-140000J0D01*
G01*
G37*
G36*
G01*
X101080000Y-106250000D02*
X101420000Y-106250000D01*
G75*
G02*
X101560000Y-106390000I0J-140000D01*
G01*
X101560000Y-106670000D01*
G75*
G02*
X101420000Y-106810000I-140000J0D01*
G01*
X101080000Y-106810000D01*
G75*
G02*
X100940000Y-106670000I0J140000D01*
G01*
X100940000Y-106390000D01*
G75*
G02*
X101080000Y-106250000I140000J0D01*
G01*
G37*
G36*
G01*
X101080000Y-105290000D02*
X101420000Y-105290000D01*
G75*
G02*
X101560000Y-105430000I0J-140000D01*
G01*
X101560000Y-105710000D01*
G75*
G02*
X101420000Y-105850000I-140000J0D01*
G01*
X101080000Y-105850000D01*
G75*
G02*
X100940000Y-105710000I0J140000D01*
G01*
X100940000Y-105430000D01*
G75*
G02*
X101080000Y-105290000I140000J0D01*
G01*
G37*
G36*
G01*
X96450000Y-109070000D02*
X96450000Y-108730000D01*
G75*
G02*
X96590000Y-108590000I140000J0D01*
G01*
X96870000Y-108590000D01*
G75*
G02*
X97010000Y-108730000I0J-140000D01*
G01*
X97010000Y-109070000D01*
G75*
G02*
X96870000Y-109210000I-140000J0D01*
G01*
X96590000Y-109210000D01*
G75*
G02*
X96450000Y-109070000I0J140000D01*
G01*
G37*
G36*
G01*
X95490000Y-109070000D02*
X95490000Y-108730000D01*
G75*
G02*
X95630000Y-108590000I140000J0D01*
G01*
X95910000Y-108590000D01*
G75*
G02*
X96050000Y-108730000I0J-140000D01*
G01*
X96050000Y-109070000D01*
G75*
G02*
X95910000Y-109210000I-140000J0D01*
G01*
X95630000Y-109210000D01*
G75*
G02*
X95490000Y-109070000I0J140000D01*
G01*
G37*
G36*
G01*
X102080000Y-106250000D02*
X102420000Y-106250000D01*
G75*
G02*
X102560000Y-106390000I0J-140000D01*
G01*
X102560000Y-106670000D01*
G75*
G02*
X102420000Y-106810000I-140000J0D01*
G01*
X102080000Y-106810000D01*
G75*
G02*
X101940000Y-106670000I0J140000D01*
G01*
X101940000Y-106390000D01*
G75*
G02*
X102080000Y-106250000I140000J0D01*
G01*
G37*
G36*
G01*
X102080000Y-105290000D02*
X102420000Y-105290000D01*
G75*
G02*
X102560000Y-105430000I0J-140000D01*
G01*
X102560000Y-105710000D01*
G75*
G02*
X102420000Y-105850000I-140000J0D01*
G01*
X102080000Y-105850000D01*
G75*
G02*
X101940000Y-105710000I0J140000D01*
G01*
X101940000Y-105430000D01*
G75*
G02*
X102080000Y-105290000I140000J0D01*
G01*
G37*
G36*
G01*
X95490000Y-106570000D02*
X95490000Y-106230000D01*
G75*
G02*
X95630000Y-106090000I140000J0D01*
G01*
X95910000Y-106090000D01*
G75*
G02*
X96050000Y-106230000I0J-140000D01*
G01*
X96050000Y-106570000D01*
G75*
G02*
X95910000Y-106710000I-140000J0D01*
G01*
X95630000Y-106710000D01*
G75*
G02*
X95490000Y-106570000I0J140000D01*
G01*
G37*
G36*
G01*
X96450000Y-106570000D02*
X96450000Y-106230000D01*
G75*
G02*
X96590000Y-106090000I140000J0D01*
G01*
X96870000Y-106090000D01*
G75*
G02*
X97010000Y-106230000I0J-140000D01*
G01*
X97010000Y-106570000D01*
G75*
G02*
X96870000Y-106710000I-140000J0D01*
G01*
X96590000Y-106710000D01*
G75*
G02*
X96450000Y-106570000I0J140000D01*
G01*
G37*
G36*
G01*
X99680000Y-106500000D02*
X100020000Y-106500000D01*
G75*
G02*
X100160000Y-106640000I0J-140000D01*
G01*
X100160000Y-106920000D01*
G75*
G02*
X100020000Y-107060000I-140000J0D01*
G01*
X99680000Y-107060000D01*
G75*
G02*
X99540000Y-106920000I0J140000D01*
G01*
X99540000Y-106640000D01*
G75*
G02*
X99680000Y-106500000I140000J0D01*
G01*
G37*
G36*
G01*
X99680000Y-105540000D02*
X100020000Y-105540000D01*
G75*
G02*
X100160000Y-105680000I0J-140000D01*
G01*
X100160000Y-105960000D01*
G75*
G02*
X100020000Y-106100000I-140000J0D01*
G01*
X99680000Y-106100000D01*
G75*
G02*
X99540000Y-105960000I0J140000D01*
G01*
X99540000Y-105680000D01*
G75*
G02*
X99680000Y-105540000I140000J0D01*
G01*
G37*
G36*
G01*
X85950000Y-102575000D02*
X85950000Y-103525000D01*
G75*
G02*
X85700000Y-103775000I-250000J0D01*
G01*
X85200000Y-103775000D01*
G75*
G02*
X84950000Y-103525000I0J250000D01*
G01*
X84950000Y-102575000D01*
G75*
G02*
X85200000Y-102325000I250000J0D01*
G01*
X85700000Y-102325000D01*
G75*
G02*
X85950000Y-102575000I0J-250000D01*
G01*
G37*
G36*
G01*
X84050000Y-102575000D02*
X84050000Y-103525000D01*
G75*
G02*
X83800000Y-103775000I-250000J0D01*
G01*
X83300000Y-103775000D01*
G75*
G02*
X83050000Y-103525000I0J250000D01*
G01*
X83050000Y-102575000D01*
G75*
G02*
X83300000Y-102325000I250000J0D01*
G01*
X83800000Y-102325000D01*
G75*
G02*
X84050000Y-102575000I0J-250000D01*
G01*
G37*
G36*
G01*
X85725000Y-104570000D02*
X85725000Y-105070000D01*
G75*
G02*
X85500000Y-105295000I-225000J0D01*
G01*
X85050000Y-105295000D01*
G75*
G02*
X84825000Y-105070000I0J225000D01*
G01*
X84825000Y-104570000D01*
G75*
G02*
X85050000Y-104345000I225000J0D01*
G01*
X85500000Y-104345000D01*
G75*
G02*
X85725000Y-104570000I0J-225000D01*
G01*
G37*
G36*
G01*
X84175000Y-104570000D02*
X84175000Y-105070000D01*
G75*
G02*
X83950000Y-105295000I-225000J0D01*
G01*
X83500000Y-105295000D01*
G75*
G02*
X83275000Y-105070000I0J225000D01*
G01*
X83275000Y-104570000D01*
G75*
G02*
X83500000Y-104345000I225000J0D01*
G01*
X83950000Y-104345000D01*
G75*
G02*
X84175000Y-104570000I0J-225000D01*
G01*
G37*
G36*
G01*
X116181250Y-91575000D02*
X115668750Y-91575000D01*
G75*
G02*
X115450000Y-91356250I0J218750D01*
G01*
X115450000Y-90918750D01*
G75*
G02*
X115668750Y-90700000I218750J0D01*
G01*
X116181250Y-90700000D01*
G75*
G02*
X116400000Y-90918750I0J-218750D01*
G01*
X116400000Y-91356250D01*
G75*
G02*
X116181250Y-91575000I-218750J0D01*
G01*
G37*
G36*
G01*
X116181250Y-93150000D02*
X115668750Y-93150000D01*
G75*
G02*
X115450000Y-92931250I0J218750D01*
G01*
X115450000Y-92493750D01*
G75*
G02*
X115668750Y-92275000I218750J0D01*
G01*
X116181250Y-92275000D01*
G75*
G02*
X116400000Y-92493750I0J-218750D01*
G01*
X116400000Y-92931250D01*
G75*
G02*
X116181250Y-93150000I-218750J0D01*
G01*
G37*
G36*
G01*
X104550000Y-100456250D02*
X104550000Y-99943750D01*
G75*
G02*
X104768750Y-99725000I218750J0D01*
G01*
X105206250Y-99725000D01*
G75*
G02*
X105425000Y-99943750I0J-218750D01*
G01*
X105425000Y-100456250D01*
G75*
G02*
X105206250Y-100675000I-218750J0D01*
G01*
X104768750Y-100675000D01*
G75*
G02*
X104550000Y-100456250I0J218750D01*
G01*
G37*
G36*
G01*
X102975000Y-100456250D02*
X102975000Y-99943750D01*
G75*
G02*
X103193750Y-99725000I218750J0D01*
G01*
X103631250Y-99725000D01*
G75*
G02*
X103850000Y-99943750I0J-218750D01*
G01*
X103850000Y-100456250D01*
G75*
G02*
X103631250Y-100675000I-218750J0D01*
G01*
X103193750Y-100675000D01*
G75*
G02*
X102975000Y-100456250I0J218750D01*
G01*
G37*
G36*
G01*
X112981250Y-103900000D02*
X112468750Y-103900000D01*
G75*
G02*
X112250000Y-103681250I0J218750D01*
G01*
X112250000Y-103243750D01*
G75*
G02*
X112468750Y-103025000I218750J0D01*
G01*
X112981250Y-103025000D01*
G75*
G02*
X113200000Y-103243750I0J-218750D01*
G01*
X113200000Y-103681250D01*
G75*
G02*
X112981250Y-103900000I-218750J0D01*
G01*
G37*
G36*
G01*
X112981250Y-102325000D02*
X112468750Y-102325000D01*
G75*
G02*
X112250000Y-102106250I0J218750D01*
G01*
X112250000Y-101668750D01*
G75*
G02*
X112468750Y-101450000I218750J0D01*
G01*
X112981250Y-101450000D01*
G75*
G02*
X113200000Y-101668750I0J-218750D01*
G01*
X113200000Y-102106250D01*
G75*
G02*
X112981250Y-102325000I-218750J0D01*
G01*
G37*
G36*
G01*
X84065000Y-106596250D02*
X84065000Y-106083750D01*
G75*
G02*
X84283750Y-105865000I218750J0D01*
G01*
X84721250Y-105865000D01*
G75*
G02*
X84940000Y-106083750I0J-218750D01*
G01*
X84940000Y-106596250D01*
G75*
G02*
X84721250Y-106815000I-218750J0D01*
G01*
X84283750Y-106815000D01*
G75*
G02*
X84065000Y-106596250I0J218750D01*
G01*
G37*
G36*
G01*
X85640000Y-106596250D02*
X85640000Y-106083750D01*
G75*
G02*
X85858750Y-105865000I218750J0D01*
G01*
X86296250Y-105865000D01*
G75*
G02*
X86515000Y-106083750I0J-218750D01*
G01*
X86515000Y-106596250D01*
G75*
G02*
X86296250Y-106815000I-218750J0D01*
G01*
X85858750Y-106815000D01*
G75*
G02*
X85640000Y-106596250I0J218750D01*
G01*
G37*
G36*
G01*
X112643750Y-106350000D02*
X113156250Y-106350000D01*
G75*
G02*
X113375000Y-106568750I0J-218750D01*
G01*
X113375000Y-107006250D01*
G75*
G02*
X113156250Y-107225000I-218750J0D01*
G01*
X112643750Y-107225000D01*
G75*
G02*
X112425000Y-107006250I0J218750D01*
G01*
X112425000Y-106568750D01*
G75*
G02*
X112643750Y-106350000I218750J0D01*
G01*
G37*
G36*
G01*
X112643750Y-107925000D02*
X113156250Y-107925000D01*
G75*
G02*
X113375000Y-108143750I0J-218750D01*
G01*
X113375000Y-108581250D01*
G75*
G02*
X113156250Y-108800000I-218750J0D01*
G01*
X112643750Y-108800000D01*
G75*
G02*
X112425000Y-108581250I0J218750D01*
G01*
X112425000Y-108143750D01*
G75*
G02*
X112643750Y-107925000I218750J0D01*
G01*
G37*
G36*
G01*
X89030000Y-108292500D02*
X89030000Y-107947500D01*
G75*
G02*
X89177500Y-107800000I147500J0D01*
G01*
X89472500Y-107800000D01*
G75*
G02*
X89620000Y-107947500I0J-147500D01*
G01*
X89620000Y-108292500D01*
G75*
G02*
X89472500Y-108440000I-147500J0D01*
G01*
X89177500Y-108440000D01*
G75*
G02*
X89030000Y-108292500I0J147500D01*
G01*
G37*
G36*
G01*
X88060000Y-108292500D02*
X88060000Y-107947500D01*
G75*
G02*
X88207500Y-107800000I147500J0D01*
G01*
X88502500Y-107800000D01*
G75*
G02*
X88650000Y-107947500I0J-147500D01*
G01*
X88650000Y-108292500D01*
G75*
G02*
X88502500Y-108440000I-147500J0D01*
G01*
X88207500Y-108440000D01*
G75*
G02*
X88060000Y-108292500I0J147500D01*
G01*
G37*
G36*
G01*
X99295000Y-114262500D02*
X99295000Y-113917500D01*
G75*
G02*
X99442500Y-113770000I147500J0D01*
G01*
X99737500Y-113770000D01*
G75*
G02*
X99885000Y-113917500I0J-147500D01*
G01*
X99885000Y-114262500D01*
G75*
G02*
X99737500Y-114410000I-147500J0D01*
G01*
X99442500Y-114410000D01*
G75*
G02*
X99295000Y-114262500I0J147500D01*
G01*
G37*
G36*
G01*
X100265000Y-114262500D02*
X100265000Y-113917500D01*
G75*
G02*
X100412500Y-113770000I147500J0D01*
G01*
X100707500Y-113770000D01*
G75*
G02*
X100855000Y-113917500I0J-147500D01*
G01*
X100855000Y-114262500D01*
G75*
G02*
X100707500Y-114410000I-147500J0D01*
G01*
X100412500Y-114410000D01*
G75*
G02*
X100265000Y-114262500I0J147500D01*
G01*
G37*
G36*
G01*
X107040000Y-97995000D02*
X107410000Y-97995000D01*
G75*
G02*
X107545000Y-98130000I0J-135000D01*
G01*
X107545000Y-98400000D01*
G75*
G02*
X107410000Y-98535000I-135000J0D01*
G01*
X107040000Y-98535000D01*
G75*
G02*
X106905000Y-98400000I0J135000D01*
G01*
X106905000Y-98130000D01*
G75*
G02*
X107040000Y-97995000I135000J0D01*
G01*
G37*
G36*
G01*
X107040000Y-99015000D02*
X107410000Y-99015000D01*
G75*
G02*
X107545000Y-99150000I0J-135000D01*
G01*
X107545000Y-99420000D01*
G75*
G02*
X107410000Y-99555000I-135000J0D01*
G01*
X107040000Y-99555000D01*
G75*
G02*
X106905000Y-99420000I0J135000D01*
G01*
X106905000Y-99150000D01*
G75*
G02*
X107040000Y-99015000I135000J0D01*
G01*
G37*
G36*
G01*
X104040000Y-112415000D02*
X104410000Y-112415000D01*
G75*
G02*
X104545000Y-112550000I0J-135000D01*
G01*
X104545000Y-112820000D01*
G75*
G02*
X104410000Y-112955000I-135000J0D01*
G01*
X104040000Y-112955000D01*
G75*
G02*
X103905000Y-112820000I0J135000D01*
G01*
X103905000Y-112550000D01*
G75*
G02*
X104040000Y-112415000I135000J0D01*
G01*
G37*
G36*
G01*
X104040000Y-111395000D02*
X104410000Y-111395000D01*
G75*
G02*
X104545000Y-111530000I0J-135000D01*
G01*
X104545000Y-111800000D01*
G75*
G02*
X104410000Y-111935000I-135000J0D01*
G01*
X104040000Y-111935000D01*
G75*
G02*
X103905000Y-111800000I0J135000D01*
G01*
X103905000Y-111530000D01*
G75*
G02*
X104040000Y-111395000I135000J0D01*
G01*
G37*
G36*
G01*
X88605000Y-96190000D02*
X88975000Y-96190000D01*
G75*
G02*
X89110000Y-96325000I0J-135000D01*
G01*
X89110000Y-96595000D01*
G75*
G02*
X88975000Y-96730000I-135000J0D01*
G01*
X88605000Y-96730000D01*
G75*
G02*
X88470000Y-96595000I0J135000D01*
G01*
X88470000Y-96325000D01*
G75*
G02*
X88605000Y-96190000I135000J0D01*
G01*
G37*
G36*
G01*
X88605000Y-97210000D02*
X88975000Y-97210000D01*
G75*
G02*
X89110000Y-97345000I0J-135000D01*
G01*
X89110000Y-97615000D01*
G75*
G02*
X88975000Y-97750000I-135000J0D01*
G01*
X88605000Y-97750000D01*
G75*
G02*
X88470000Y-97615000I0J135000D01*
G01*
X88470000Y-97345000D01*
G75*
G02*
X88605000Y-97210000I135000J0D01*
G01*
G37*
G36*
G01*
X87605000Y-97220000D02*
X87975000Y-97220000D01*
G75*
G02*
X88110000Y-97355000I0J-135000D01*
G01*
X88110000Y-97625000D01*
G75*
G02*
X87975000Y-97760000I-135000J0D01*
G01*
X87605000Y-97760000D01*
G75*
G02*
X87470000Y-97625000I0J135000D01*
G01*
X87470000Y-97355000D01*
G75*
G02*
X87605000Y-97220000I135000J0D01*
G01*
G37*
G36*
G01*
X87605000Y-96200000D02*
X87975000Y-96200000D01*
G75*
G02*
X88110000Y-96335000I0J-135000D01*
G01*
X88110000Y-96605000D01*
G75*
G02*
X87975000Y-96740000I-135000J0D01*
G01*
X87605000Y-96740000D01*
G75*
G02*
X87470000Y-96605000I0J135000D01*
G01*
X87470000Y-96335000D01*
G75*
G02*
X87605000Y-96200000I135000J0D01*
G01*
G37*
G36*
G01*
X89605000Y-97220000D02*
X89975000Y-97220000D01*
G75*
G02*
X90110000Y-97355000I0J-135000D01*
G01*
X90110000Y-97625000D01*
G75*
G02*
X89975000Y-97760000I-135000J0D01*
G01*
X89605000Y-97760000D01*
G75*
G02*
X89470000Y-97625000I0J135000D01*
G01*
X89470000Y-97355000D01*
G75*
G02*
X89605000Y-97220000I135000J0D01*
G01*
G37*
G36*
G01*
X89605000Y-96200000D02*
X89975000Y-96200000D01*
G75*
G02*
X90110000Y-96335000I0J-135000D01*
G01*
X90110000Y-96605000D01*
G75*
G02*
X89975000Y-96740000I-135000J0D01*
G01*
X89605000Y-96740000D01*
G75*
G02*
X89470000Y-96605000I0J135000D01*
G01*
X89470000Y-96335000D01*
G75*
G02*
X89605000Y-96200000I135000J0D01*
G01*
G37*
G36*
G01*
X106410000Y-99555000D02*
X106040000Y-99555000D01*
G75*
G02*
X105905000Y-99420000I0J135000D01*
G01*
X105905000Y-99150000D01*
G75*
G02*
X106040000Y-99015000I135000J0D01*
G01*
X106410000Y-99015000D01*
G75*
G02*
X106545000Y-99150000I0J-135000D01*
G01*
X106545000Y-99420000D01*
G75*
G02*
X106410000Y-99555000I-135000J0D01*
G01*
G37*
G36*
G01*
X106410000Y-98535000D02*
X106040000Y-98535000D01*
G75*
G02*
X105905000Y-98400000I0J135000D01*
G01*
X105905000Y-98130000D01*
G75*
G02*
X106040000Y-97995000I135000J0D01*
G01*
X106410000Y-97995000D01*
G75*
G02*
X106545000Y-98130000I0J-135000D01*
G01*
X106545000Y-98400000D01*
G75*
G02*
X106410000Y-98535000I-135000J0D01*
G01*
G37*
G36*
G01*
X102975000Y-98945000D02*
X102975000Y-98395000D01*
G75*
G02*
X103175000Y-98195000I200000J0D01*
G01*
X103575000Y-98195000D01*
G75*
G02*
X103775000Y-98395000I0J-200000D01*
G01*
X103775000Y-98945000D01*
G75*
G02*
X103575000Y-99145000I-200000J0D01*
G01*
X103175000Y-99145000D01*
G75*
G02*
X102975000Y-98945000I0J200000D01*
G01*
G37*
G36*
G01*
X104625000Y-98945000D02*
X104625000Y-98395000D01*
G75*
G02*
X104825000Y-98195000I200000J0D01*
G01*
X105225000Y-98195000D01*
G75*
G02*
X105425000Y-98395000I0J-200000D01*
G01*
X105425000Y-98945000D01*
G75*
G02*
X105225000Y-99145000I-200000J0D01*
G01*
X104825000Y-99145000D01*
G75*
G02*
X104625000Y-98945000I0J200000D01*
G01*
G37*
G36*
G01*
X88615000Y-99140000D02*
X88985000Y-99140000D01*
G75*
G02*
X89120000Y-99275000I0J-135000D01*
G01*
X89120000Y-99545000D01*
G75*
G02*
X88985000Y-99680000I-135000J0D01*
G01*
X88615000Y-99680000D01*
G75*
G02*
X88480000Y-99545000I0J135000D01*
G01*
X88480000Y-99275000D01*
G75*
G02*
X88615000Y-99140000I135000J0D01*
G01*
G37*
G36*
G01*
X88615000Y-98120000D02*
X88985000Y-98120000D01*
G75*
G02*
X89120000Y-98255000I0J-135000D01*
G01*
X89120000Y-98525000D01*
G75*
G02*
X88985000Y-98660000I-135000J0D01*
G01*
X88615000Y-98660000D01*
G75*
G02*
X88480000Y-98525000I0J135000D01*
G01*
X88480000Y-98255000D01*
G75*
G02*
X88615000Y-98120000I135000J0D01*
G01*
G37*
G36*
G01*
X87615000Y-98120000D02*
X87985000Y-98120000D01*
G75*
G02*
X88120000Y-98255000I0J-135000D01*
G01*
X88120000Y-98525000D01*
G75*
G02*
X87985000Y-98660000I-135000J0D01*
G01*
X87615000Y-98660000D01*
G75*
G02*
X87480000Y-98525000I0J135000D01*
G01*
X87480000Y-98255000D01*
G75*
G02*
X87615000Y-98120000I135000J0D01*
G01*
G37*
G36*
G01*
X87615000Y-99140000D02*
X87985000Y-99140000D01*
G75*
G02*
X88120000Y-99275000I0J-135000D01*
G01*
X88120000Y-99545000D01*
G75*
G02*
X87985000Y-99680000I-135000J0D01*
G01*
X87615000Y-99680000D01*
G75*
G02*
X87480000Y-99545000I0J135000D01*
G01*
X87480000Y-99275000D01*
G75*
G02*
X87615000Y-99140000I135000J0D01*
G01*
G37*
G36*
G01*
X89615000Y-98120000D02*
X89985000Y-98120000D01*
G75*
G02*
X90120000Y-98255000I0J-135000D01*
G01*
X90120000Y-98525000D01*
G75*
G02*
X89985000Y-98660000I-135000J0D01*
G01*
X89615000Y-98660000D01*
G75*
G02*
X89480000Y-98525000I0J135000D01*
G01*
X89480000Y-98255000D01*
G75*
G02*
X89615000Y-98120000I135000J0D01*
G01*
G37*
G36*
G01*
X89615000Y-99140000D02*
X89985000Y-99140000D01*
G75*
G02*
X90120000Y-99275000I0J-135000D01*
G01*
X90120000Y-99545000D01*
G75*
G02*
X89985000Y-99680000I-135000J0D01*
G01*
X89615000Y-99680000D01*
G75*
G02*
X89480000Y-99545000I0J135000D01*
G01*
X89480000Y-99275000D01*
G75*
G02*
X89615000Y-99140000I135000J0D01*
G01*
G37*
G36*
G01*
X86940000Y-101695000D02*
X86940000Y-101325000D01*
G75*
G02*
X87075000Y-101190000I135000J0D01*
G01*
X87345000Y-101190000D01*
G75*
G02*
X87480000Y-101325000I0J-135000D01*
G01*
X87480000Y-101695000D01*
G75*
G02*
X87345000Y-101830000I-135000J0D01*
G01*
X87075000Y-101830000D01*
G75*
G02*
X86940000Y-101695000I0J135000D01*
G01*
G37*
G36*
G01*
X87960000Y-101695000D02*
X87960000Y-101325000D01*
G75*
G02*
X88095000Y-101190000I135000J0D01*
G01*
X88365000Y-101190000D01*
G75*
G02*
X88500000Y-101325000I0J-135000D01*
G01*
X88500000Y-101695000D01*
G75*
G02*
X88365000Y-101830000I-135000J0D01*
G01*
X88095000Y-101830000D01*
G75*
G02*
X87960000Y-101695000I0J135000D01*
G01*
G37*
G36*
G01*
X88630000Y-100315000D02*
X88630000Y-100685000D01*
G75*
G02*
X88495000Y-100820000I-135000J0D01*
G01*
X88225000Y-100820000D01*
G75*
G02*
X88090000Y-100685000I0J135000D01*
G01*
X88090000Y-100315000D01*
G75*
G02*
X88225000Y-100180000I135000J0D01*
G01*
X88495000Y-100180000D01*
G75*
G02*
X88630000Y-100315000I0J-135000D01*
G01*
G37*
G36*
G01*
X87610000Y-100315000D02*
X87610000Y-100685000D01*
G75*
G02*
X87475000Y-100820000I-135000J0D01*
G01*
X87205000Y-100820000D01*
G75*
G02*
X87070000Y-100685000I0J135000D01*
G01*
X87070000Y-100315000D01*
G75*
G02*
X87205000Y-100180000I135000J0D01*
G01*
X87475000Y-100180000D01*
G75*
G02*
X87610000Y-100315000I0J-135000D01*
G01*
G37*
G36*
G01*
X103120000Y-113845000D02*
X103120000Y-113475000D01*
G75*
G02*
X103255000Y-113340000I135000J0D01*
G01*
X103525000Y-113340000D01*
G75*
G02*
X103660000Y-113475000I0J-135000D01*
G01*
X103660000Y-113845000D01*
G75*
G02*
X103525000Y-113980000I-135000J0D01*
G01*
X103255000Y-113980000D01*
G75*
G02*
X103120000Y-113845000I0J135000D01*
G01*
G37*
G36*
G01*
X104140000Y-113845000D02*
X104140000Y-113475000D01*
G75*
G02*
X104275000Y-113340000I135000J0D01*
G01*
X104545000Y-113340000D01*
G75*
G02*
X104680000Y-113475000I0J-135000D01*
G01*
X104680000Y-113845000D01*
G75*
G02*
X104545000Y-113980000I-135000J0D01*
G01*
X104275000Y-113980000D01*
G75*
G02*
X104140000Y-113845000I0J135000D01*
G01*
G37*
G36*
G01*
X105065000Y-112415000D02*
X105435000Y-112415000D01*
G75*
G02*
X105570000Y-112550000I0J-135000D01*
G01*
X105570000Y-112820000D01*
G75*
G02*
X105435000Y-112955000I-135000J0D01*
G01*
X105065000Y-112955000D01*
G75*
G02*
X104930000Y-112820000I0J135000D01*
G01*
X104930000Y-112550000D01*
G75*
G02*
X105065000Y-112415000I135000J0D01*
G01*
G37*
G36*
G01*
X105065000Y-111395000D02*
X105435000Y-111395000D01*
G75*
G02*
X105570000Y-111530000I0J-135000D01*
G01*
X105570000Y-111800000D01*
G75*
G02*
X105435000Y-111935000I-135000J0D01*
G01*
X105065000Y-111935000D01*
G75*
G02*
X104930000Y-111800000I0J135000D01*
G01*
X104930000Y-111530000D01*
G75*
G02*
X105065000Y-111395000I135000J0D01*
G01*
G37*
G36*
G01*
X114525000Y-102675000D02*
X113975000Y-102675000D01*
G75*
G02*
X113775000Y-102475000I0J200000D01*
G01*
X113775000Y-102075000D01*
G75*
G02*
X113975000Y-101875000I200000J0D01*
G01*
X114525000Y-101875000D01*
G75*
G02*
X114725000Y-102075000I0J-200000D01*
G01*
X114725000Y-102475000D01*
G75*
G02*
X114525000Y-102675000I-200000J0D01*
G01*
G37*
G36*
G01*
X114525000Y-104325000D02*
X113975000Y-104325000D01*
G75*
G02*
X113775000Y-104125000I0J200000D01*
G01*
X113775000Y-103725000D01*
G75*
G02*
X113975000Y-103525000I200000J0D01*
G01*
X114525000Y-103525000D01*
G75*
G02*
X114725000Y-103725000I0J-200000D01*
G01*
X114725000Y-104125000D01*
G75*
G02*
X114525000Y-104325000I-200000J0D01*
G01*
G37*
G36*
G01*
X108515000Y-97990000D02*
X108885000Y-97990000D01*
G75*
G02*
X109020000Y-98125000I0J-135000D01*
G01*
X109020000Y-98395000D01*
G75*
G02*
X108885000Y-98530000I-135000J0D01*
G01*
X108515000Y-98530000D01*
G75*
G02*
X108380000Y-98395000I0J135000D01*
G01*
X108380000Y-98125000D01*
G75*
G02*
X108515000Y-97990000I135000J0D01*
G01*
G37*
G36*
G01*
X108515000Y-99010000D02*
X108885000Y-99010000D01*
G75*
G02*
X109020000Y-99145000I0J-135000D01*
G01*
X109020000Y-99415000D01*
G75*
G02*
X108885000Y-99550000I-135000J0D01*
G01*
X108515000Y-99550000D01*
G75*
G02*
X108380000Y-99415000I0J135000D01*
G01*
X108380000Y-99145000D01*
G75*
G02*
X108515000Y-99010000I135000J0D01*
G01*
G37*
G36*
G01*
X110335000Y-111030000D02*
X109965000Y-111030000D01*
G75*
G02*
X109830000Y-110895000I0J135000D01*
G01*
X109830000Y-110625000D01*
G75*
G02*
X109965000Y-110490000I135000J0D01*
G01*
X110335000Y-110490000D01*
G75*
G02*
X110470000Y-110625000I0J-135000D01*
G01*
X110470000Y-110895000D01*
G75*
G02*
X110335000Y-111030000I-135000J0D01*
G01*
G37*
G36*
G01*
X110335000Y-112050000D02*
X109965000Y-112050000D01*
G75*
G02*
X109830000Y-111915000I0J135000D01*
G01*
X109830000Y-111645000D01*
G75*
G02*
X109965000Y-111510000I135000J0D01*
G01*
X110335000Y-111510000D01*
G75*
G02*
X110470000Y-111645000I0J-135000D01*
G01*
X110470000Y-111915000D01*
G75*
G02*
X110335000Y-112050000I-135000J0D01*
G01*
G37*
G36*
G01*
X111235000Y-105530000D02*
X110865000Y-105530000D01*
G75*
G02*
X110730000Y-105395000I0J135000D01*
G01*
X110730000Y-105125000D01*
G75*
G02*
X110865000Y-104990000I135000J0D01*
G01*
X111235000Y-104990000D01*
G75*
G02*
X111370000Y-105125000I0J-135000D01*
G01*
X111370000Y-105395000D01*
G75*
G02*
X111235000Y-105530000I-135000J0D01*
G01*
G37*
G36*
G01*
X111235000Y-104510000D02*
X110865000Y-104510000D01*
G75*
G02*
X110730000Y-104375000I0J135000D01*
G01*
X110730000Y-104105000D01*
G75*
G02*
X110865000Y-103970000I135000J0D01*
G01*
X111235000Y-103970000D01*
G75*
G02*
X111370000Y-104105000I0J-135000D01*
G01*
X111370000Y-104375000D01*
G75*
G02*
X111235000Y-104510000I-135000J0D01*
G01*
G37*
G36*
G01*
X94860000Y-109335000D02*
X94490000Y-109335000D01*
G75*
G02*
X94355000Y-109200000I0J135000D01*
G01*
X94355000Y-108930000D01*
G75*
G02*
X94490000Y-108795000I135000J0D01*
G01*
X94860000Y-108795000D01*
G75*
G02*
X94995000Y-108930000I0J-135000D01*
G01*
X94995000Y-109200000D01*
G75*
G02*
X94860000Y-109335000I-135000J0D01*
G01*
G37*
G36*
G01*
X94860000Y-110355000D02*
X94490000Y-110355000D01*
G75*
G02*
X94355000Y-110220000I0J135000D01*
G01*
X94355000Y-109950000D01*
G75*
G02*
X94490000Y-109815000I135000J0D01*
G01*
X94860000Y-109815000D01*
G75*
G02*
X94995000Y-109950000I0J-135000D01*
G01*
X94995000Y-110220000D01*
G75*
G02*
X94860000Y-110355000I-135000J0D01*
G01*
G37*
G36*
G01*
X93440000Y-109320000D02*
X93810000Y-109320000D01*
G75*
G02*
X93945000Y-109455000I0J-135000D01*
G01*
X93945000Y-109725000D01*
G75*
G02*
X93810000Y-109860000I-135000J0D01*
G01*
X93440000Y-109860000D01*
G75*
G02*
X93305000Y-109725000I0J135000D01*
G01*
X93305000Y-109455000D01*
G75*
G02*
X93440000Y-109320000I135000J0D01*
G01*
G37*
G36*
G01*
X93440000Y-110340000D02*
X93810000Y-110340000D01*
G75*
G02*
X93945000Y-110475000I0J-135000D01*
G01*
X93945000Y-110745000D01*
G75*
G02*
X93810000Y-110880000I-135000J0D01*
G01*
X93440000Y-110880000D01*
G75*
G02*
X93305000Y-110745000I0J135000D01*
G01*
X93305000Y-110475000D01*
G75*
G02*
X93440000Y-110340000I135000J0D01*
G01*
G37*
G36*
G01*
X111440000Y-109805000D02*
X111440000Y-110175000D01*
G75*
G02*
X111305000Y-110310000I-135000J0D01*
G01*
X111035000Y-110310000D01*
G75*
G02*
X110900000Y-110175000I0J135000D01*
G01*
X110900000Y-109805000D01*
G75*
G02*
X111035000Y-109670000I135000J0D01*
G01*
X111305000Y-109670000D01*
G75*
G02*
X111440000Y-109805000I0J-135000D01*
G01*
G37*
G36*
G01*
X112460000Y-109805000D02*
X112460000Y-110175000D01*
G75*
G02*
X112325000Y-110310000I-135000J0D01*
G01*
X112055000Y-110310000D01*
G75*
G02*
X111920000Y-110175000I0J135000D01*
G01*
X111920000Y-109805000D01*
G75*
G02*
X112055000Y-109670000I135000J0D01*
G01*
X112325000Y-109670000D01*
G75*
G02*
X112460000Y-109805000I0J-135000D01*
G01*
G37*
G36*
G01*
X111100000Y-106125000D02*
X111650000Y-106125000D01*
G75*
G02*
X111850000Y-106325000I0J-200000D01*
G01*
X111850000Y-106725000D01*
G75*
G02*
X111650000Y-106925000I-200000J0D01*
G01*
X111100000Y-106925000D01*
G75*
G02*
X110900000Y-106725000I0J200000D01*
G01*
X110900000Y-106325000D01*
G75*
G02*
X111100000Y-106125000I200000J0D01*
G01*
G37*
G36*
G01*
X111100000Y-107775000D02*
X111650000Y-107775000D01*
G75*
G02*
X111850000Y-107975000I0J-200000D01*
G01*
X111850000Y-108375000D01*
G75*
G02*
X111650000Y-108575000I-200000J0D01*
G01*
X111100000Y-108575000D01*
G75*
G02*
X110900000Y-108375000I0J200000D01*
G01*
X110900000Y-107975000D01*
G75*
G02*
X111100000Y-107775000I200000J0D01*
G01*
G37*
G36*
G01*
X86525000Y-108135000D02*
X86525000Y-107585000D01*
G75*
G02*
X86725000Y-107385000I200000J0D01*
G01*
X87125000Y-107385000D01*
G75*
G02*
X87325000Y-107585000I0J-200000D01*
G01*
X87325000Y-108135000D01*
G75*
G02*
X87125000Y-108335000I-200000J0D01*
G01*
X86725000Y-108335000D01*
G75*
G02*
X86525000Y-108135000I0J200000D01*
G01*
G37*
G36*
G01*
X84875000Y-108135000D02*
X84875000Y-107585000D01*
G75*
G02*
X85075000Y-107385000I200000J0D01*
G01*
X85475000Y-107385000D01*
G75*
G02*
X85675000Y-107585000I0J-200000D01*
G01*
X85675000Y-108135000D01*
G75*
G02*
X85475000Y-108335000I-200000J0D01*
G01*
X85075000Y-108335000D01*
G75*
G02*
X84875000Y-108135000I0J200000D01*
G01*
G37*
G36*
G01*
X90135000Y-104430000D02*
X89765000Y-104430000D01*
G75*
G02*
X89630000Y-104295000I0J135000D01*
G01*
X89630000Y-104025000D01*
G75*
G02*
X89765000Y-103890000I135000J0D01*
G01*
X90135000Y-103890000D01*
G75*
G02*
X90270000Y-104025000I0J-135000D01*
G01*
X90270000Y-104295000D01*
G75*
G02*
X90135000Y-104430000I-135000J0D01*
G01*
G37*
G36*
G01*
X90135000Y-103410000D02*
X89765000Y-103410000D01*
G75*
G02*
X89630000Y-103275000I0J135000D01*
G01*
X89630000Y-103005000D01*
G75*
G02*
X89765000Y-102870000I135000J0D01*
G01*
X90135000Y-102870000D01*
G75*
G02*
X90270000Y-103005000I0J-135000D01*
G01*
X90270000Y-103275000D01*
G75*
G02*
X90135000Y-103410000I-135000J0D01*
G01*
G37*
M02*
