G04 #@! TF.GenerationSoftware,KiCad,Pcbnew,(5.1.5)-3*
G04 #@! TF.CreationDate,2020-08-22T17:19:44-02:30*
G04 #@! TF.ProjectId,Thruster_Controller_V2,54687275-7374-4657-925f-436f6e74726f,rev?*
G04 #@! TF.SameCoordinates,Original*
G04 #@! TF.FileFunction,Profile,NP*
%FSLAX46Y46*%
G04 Gerber Fmt 4.6, Leading zero omitted, Abs format (unit mm)*
G04 Created by KiCad (PCBNEW (5.1.5)-3) date 2020-08-22 17:19:44*
%MOMM*%
%LPD*%
G04 APERTURE LIST*
%ADD10C,0.100000*%
G04 APERTURE END LIST*
D10*
X112939482Y-99035960D02*
X112920898Y-98952774D01*
X112920898Y-98952774D02*
X112904460Y-98868049D01*
X112904460Y-98868049D02*
X112889820Y-98779762D01*
X112889820Y-98779762D02*
X112877407Y-98690065D01*
X112877407Y-98690065D02*
X112867095Y-98597598D01*
X112867095Y-98597598D02*
X112859127Y-98503729D01*
X112859127Y-98503729D02*
X112853507Y-98406936D01*
X112853507Y-98406936D02*
X112850468Y-98307304D01*
X112850468Y-98307304D02*
X112850000Y-98250000D01*
X113201097Y-99711569D02*
X113165334Y-99645339D01*
X113165334Y-99645339D02*
X113131642Y-99578291D01*
X113131642Y-99578291D02*
X113098791Y-99507724D01*
X113098791Y-99507724D02*
X113068251Y-99436558D01*
X113068251Y-99436558D02*
X113039123Y-99362574D01*
X113039123Y-99362574D02*
X113012215Y-99287612D01*
X113012215Y-99287612D02*
X112987261Y-99210897D01*
X112987261Y-99210897D02*
X112964272Y-99132298D01*
X112964272Y-99132298D02*
X112943522Y-99052673D01*
X112943522Y-99052673D02*
X112939482Y-99035960D01*
X114126886Y-100701770D02*
X114067927Y-100659821D01*
X114067927Y-100659821D02*
X114006590Y-100614331D01*
X114006590Y-100614331D02*
X113949178Y-100569907D01*
X113949178Y-100569907D02*
X113891899Y-100523667D01*
X113891899Y-100523667D02*
X113837104Y-100477494D01*
X113837104Y-100477494D02*
X113781313Y-100428367D01*
X113781313Y-100428367D02*
X113728563Y-100379783D01*
X113728563Y-100379783D02*
X113676891Y-100329995D01*
X113676891Y-100329995D02*
X113625885Y-100278507D01*
X113625885Y-100278507D02*
X113572925Y-100222337D01*
X113572925Y-100222337D02*
X113524897Y-100168750D01*
X113524897Y-100168750D02*
X113478152Y-100113903D01*
X113478152Y-100113903D02*
X113432744Y-100057786D01*
X113432744Y-100057786D02*
X113388724Y-100000385D01*
X113388724Y-100000385D02*
X113344975Y-99940034D01*
X113344975Y-99940034D02*
X113303545Y-99879425D01*
X113303545Y-99879425D02*
X113264042Y-99818041D01*
X113264042Y-99818041D02*
X113225784Y-99754733D01*
X113225784Y-99754733D02*
X113201097Y-99711569D01*
X115350400Y-101321239D02*
X115277323Y-101292792D01*
X115277323Y-101292792D02*
X115205371Y-101264132D01*
X115205371Y-101264132D02*
X115128876Y-101232880D01*
X115128876Y-101232880D02*
X115057973Y-101203121D01*
X115057973Y-101203121D02*
X114985126Y-101171677D01*
X114985126Y-101171677D02*
X114911638Y-101138988D01*
X114911638Y-101138988D02*
X114840005Y-101106101D01*
X114840005Y-101106101D02*
X114771725Y-101073737D01*
X114771725Y-101073737D02*
X114702251Y-101039708D01*
X114702251Y-101039708D02*
X114633134Y-101004662D01*
X114633134Y-101004662D02*
X114564696Y-100968700D01*
X114564696Y-100968700D02*
X114496957Y-100931773D01*
X114496957Y-100931773D02*
X114430368Y-100894083D01*
X114430368Y-100894083D02*
X114365928Y-100856200D01*
X114365928Y-100856200D02*
X114302624Y-100817537D01*
X114302624Y-100817537D02*
X114235601Y-100774918D01*
X114235601Y-100774918D02*
X114175182Y-100734911D01*
X114175182Y-100734911D02*
X114126886Y-100701770D01*
X116709919Y-101779744D02*
X116629642Y-101754500D01*
X116629642Y-101754500D02*
X116543879Y-101727489D01*
X116543879Y-101727489D02*
X116447286Y-101696955D01*
X116447286Y-101696955D02*
X116361382Y-101669654D01*
X116361382Y-101669654D02*
X116278170Y-101643028D01*
X116278170Y-101643028D02*
X116197695Y-101617076D01*
X116197695Y-101617076D02*
X116111955Y-101589158D01*
X116111955Y-101589158D02*
X116031712Y-101562743D01*
X116031712Y-101562743D02*
X115951639Y-101536065D01*
X115951639Y-101536065D02*
X115867796Y-101507746D01*
X115867796Y-101507746D02*
X115791846Y-101481714D01*
X115791846Y-101481714D02*
X115712869Y-101454221D01*
X115712869Y-101454221D02*
X115633893Y-101426255D01*
X115633893Y-101426255D02*
X115559213Y-101399333D01*
X115559213Y-101399333D02*
X115482305Y-101371077D01*
X115482305Y-101371077D02*
X115408417Y-101343386D01*
X115408417Y-101343386D02*
X115350400Y-101321239D01*
X116709919Y-101779744D02*
G75*
G02X117694830Y-103648424I-449805J-1430970D01*
G01*
X117694831Y-103648425D02*
G75*
G02X82305169Y-103648424I-17694831J5398425D01*
G01*
X82305169Y-103648424D02*
G75*
G02X83290080Y-101779744I1434716J437710D01*
G01*
X84649599Y-101321239D02*
X84573951Y-101350041D01*
X84573951Y-101350041D02*
X84494756Y-101379559D01*
X84494756Y-101379559D02*
X84418543Y-101407399D01*
X84418543Y-101407399D02*
X84343757Y-101434216D01*
X84343757Y-101434216D02*
X84268479Y-101460751D01*
X84268479Y-101460751D02*
X84193239Y-101486853D01*
X84193239Y-101486853D02*
X84117576Y-101512714D01*
X84117576Y-101512714D02*
X84037688Y-101539638D01*
X84037688Y-101539638D02*
X83958927Y-101565837D01*
X83958927Y-101565837D02*
X83878665Y-101592223D01*
X83878665Y-101592223D02*
X83802298Y-101617076D01*
X83802298Y-101617076D02*
X83721822Y-101643028D01*
X83721822Y-101643028D02*
X83638613Y-101669654D01*
X83638613Y-101669654D02*
X83552709Y-101696955D01*
X83552709Y-101696955D02*
X83456117Y-101727489D01*
X83456117Y-101727489D02*
X83370352Y-101754500D01*
X83370352Y-101754500D02*
X83290080Y-101779744D01*
X85873113Y-100701770D02*
X85806401Y-100747268D01*
X85806401Y-100747268D02*
X85742701Y-100788908D01*
X85742701Y-100788908D02*
X85679917Y-100828344D01*
X85679917Y-100828344D02*
X85617556Y-100866042D01*
X85617556Y-100866042D02*
X85553945Y-100903088D01*
X85553945Y-100903088D02*
X85489803Y-100939092D01*
X85489803Y-100939092D02*
X85423546Y-100974968D01*
X85423546Y-100974968D02*
X85357365Y-101009549D01*
X85357365Y-101009549D02*
X85290554Y-101043284D01*
X85290554Y-101043284D02*
X85223128Y-101076209D01*
X85223128Y-101076209D02*
X85145343Y-101112910D01*
X85145343Y-101112910D02*
X85075121Y-101144948D01*
X85075121Y-101144948D02*
X85005559Y-101175745D01*
X85005559Y-101175745D02*
X84934982Y-101206110D01*
X84934982Y-101206110D02*
X84862293Y-101236527D01*
X84862293Y-101236527D02*
X84790179Y-101265922D01*
X84790179Y-101265922D02*
X84715639Y-101295555D01*
X84715639Y-101295555D02*
X84649599Y-101321239D01*
X86798902Y-99711569D02*
X86761927Y-99775502D01*
X86761927Y-99775502D02*
X86723318Y-99838079D01*
X86723318Y-99838079D02*
X86682933Y-99899591D01*
X86682933Y-99899591D02*
X86641583Y-99958938D01*
X86641583Y-99958938D02*
X86597866Y-100018193D01*
X86597866Y-100018193D02*
X86553934Y-100074547D01*
X86553934Y-100074547D02*
X86507909Y-100130541D01*
X86507909Y-100130541D02*
X86461438Y-100184260D01*
X86461438Y-100184260D02*
X86412596Y-100237976D01*
X86412596Y-100237976D02*
X86359023Y-100293989D01*
X86359023Y-100293989D02*
X86308858Y-100343945D01*
X86308858Y-100343945D02*
X86256395Y-100393851D01*
X86256395Y-100393851D02*
X86201359Y-100443857D01*
X86201359Y-100443857D02*
X86147760Y-100490439D01*
X86147760Y-100490439D02*
X86092190Y-100536704D01*
X86092190Y-100536704D02*
X86036214Y-100581378D01*
X86036214Y-100581378D02*
X85979377Y-100624905D01*
X85979377Y-100624905D02*
X85921193Y-100667684D01*
X85921193Y-100667684D02*
X85873113Y-100701770D01*
X87060517Y-99035960D02*
X87039801Y-99117367D01*
X87039801Y-99117367D02*
X87016881Y-99197335D01*
X87016881Y-99197335D02*
X86992216Y-99274516D01*
X86992216Y-99274516D02*
X86965553Y-99350015D01*
X86965553Y-99350015D02*
X86937452Y-99422561D01*
X86937452Y-99422561D02*
X86907625Y-99493233D01*
X86907625Y-99493233D02*
X86875233Y-99563959D01*
X86875233Y-99563959D02*
X86841441Y-99632227D01*
X86841441Y-99632227D02*
X86806191Y-99698435D01*
X86806191Y-99698435D02*
X86798902Y-99711569D01*
X87150000Y-98250000D02*
X87148544Y-98350832D01*
X87148544Y-98350832D02*
X87144452Y-98447517D01*
X87144452Y-98447517D02*
X87137951Y-98541581D01*
X87137951Y-98541581D02*
X87129063Y-98634638D01*
X87129063Y-98634638D02*
X87118009Y-98725200D01*
X87118009Y-98725200D02*
X87104885Y-98813387D01*
X87104885Y-98813387D02*
X87089817Y-98898950D01*
X87089817Y-98898950D02*
X87072277Y-98984625D01*
X87072277Y-98984625D02*
X87060517Y-99035960D01*
X87060517Y-97464039D02*
X87079251Y-97547962D01*
X87079251Y-97547962D02*
X87095669Y-97632700D01*
X87095669Y-97632700D02*
X87109994Y-97719078D01*
X87109994Y-97719078D02*
X87122535Y-97809539D01*
X87122535Y-97809539D02*
X87132619Y-97899572D01*
X87132619Y-97899572D02*
X87140641Y-97993141D01*
X87140641Y-97993141D02*
X87146488Y-98093059D01*
X87146488Y-98093059D02*
X87149525Y-98192689D01*
X87149525Y-98192689D02*
X87150000Y-98250000D01*
X86798902Y-96788430D02*
X86834658Y-96854653D01*
X86834658Y-96854653D02*
X86868346Y-96921700D01*
X86868346Y-96921700D02*
X86902120Y-96994334D01*
X86902120Y-96994334D02*
X86932809Y-97066034D01*
X86932809Y-97066034D02*
X86961832Y-97139990D01*
X86961832Y-97139990D02*
X86988413Y-97214246D01*
X86988413Y-97214246D02*
X87013375Y-97291178D01*
X87013375Y-97291178D02*
X87036504Y-97370534D01*
X87036504Y-97370534D02*
X87057578Y-97451855D01*
X87057578Y-97451855D02*
X87060517Y-97464039D01*
X85873113Y-95798229D02*
X85932465Y-95840460D01*
X85932465Y-95840460D02*
X85993402Y-95885661D01*
X85993402Y-95885661D02*
X86050811Y-95930084D01*
X86050811Y-95930084D02*
X86108090Y-95976323D01*
X86108090Y-95976323D02*
X86165399Y-96024663D01*
X86165399Y-96024663D02*
X86218677Y-96071622D01*
X86218677Y-96071622D02*
X86271428Y-96120208D01*
X86271428Y-96120208D02*
X86323575Y-96170464D01*
X86323575Y-96170464D02*
X86375265Y-96222681D01*
X86375265Y-96222681D02*
X86423908Y-96274223D01*
X86423908Y-96274223D02*
X86471798Y-96327479D01*
X86471798Y-96327479D02*
X86518207Y-96381724D01*
X86518207Y-96381724D02*
X86563306Y-96437216D01*
X86563306Y-96437216D02*
X86608057Y-96495312D01*
X86608057Y-96495312D02*
X86650749Y-96553914D01*
X86650749Y-96553914D02*
X86691960Y-96613828D01*
X86691960Y-96613828D02*
X86732087Y-96675780D01*
X86732087Y-96675780D02*
X86771111Y-96739980D01*
X86771111Y-96739980D02*
X86798902Y-96788430D01*
X84649599Y-95178760D02*
X84722670Y-95207201D01*
X84722670Y-95207201D02*
X84795257Y-95236117D01*
X84795257Y-95236117D02*
X84866705Y-95265287D01*
X84866705Y-95265287D02*
X84939517Y-95295808D01*
X84939517Y-95295808D02*
X85009904Y-95326145D01*
X85009904Y-95326145D02*
X85079738Y-95357118D01*
X85079738Y-95357118D02*
X85150228Y-95389348D01*
X85150228Y-95389348D02*
X85222522Y-95423490D01*
X85222522Y-95423490D02*
X85290554Y-95456711D01*
X85290554Y-95456711D02*
X85357365Y-95490443D01*
X85357365Y-95490443D02*
X85425897Y-95526276D01*
X85425897Y-95526276D02*
X85496060Y-95564352D01*
X85496060Y-95564352D02*
X85563155Y-95602183D01*
X85563155Y-95602183D02*
X85627238Y-95639709D01*
X85627238Y-95639709D02*
X85690055Y-95677911D01*
X85690055Y-95677911D02*
X85755503Y-95719316D01*
X85755503Y-95719316D02*
X85819595Y-95761567D01*
X85819595Y-95761567D02*
X85873113Y-95798229D01*
X83290080Y-94720255D02*
X83370352Y-94745494D01*
X83370352Y-94745494D02*
X83456117Y-94772505D01*
X83456117Y-94772505D02*
X83541973Y-94799637D01*
X83541973Y-94799637D02*
X83627875Y-94826919D01*
X83627875Y-94826919D02*
X83705718Y-94851796D01*
X83705718Y-94851796D02*
X83786208Y-94877710D01*
X83786208Y-94877710D02*
X83862595Y-94902518D01*
X83862595Y-94902518D02*
X83946898Y-94930181D01*
X83946898Y-94930181D02*
X84027019Y-94956786D01*
X84027019Y-94956786D02*
X84106937Y-94983670D01*
X84106937Y-94983670D02*
X84191914Y-95012683D01*
X84191914Y-95012683D02*
X84276566Y-95042070D01*
X84276566Y-95042070D02*
X84351645Y-95068581D01*
X84351645Y-95068581D02*
X84434241Y-95098283D01*
X84434241Y-95098283D02*
X84508584Y-95125541D01*
X84508584Y-95125541D02*
X84581877Y-95152939D01*
X84581877Y-95152939D02*
X84649599Y-95178760D01*
X83290080Y-94720255D02*
G75*
G02X82305169Y-92851575I449805J1430970D01*
G01*
X82305170Y-92851577D02*
G75*
G02X117694830Y-92851575I17694830J-5398423D01*
G01*
X117694830Y-92851575D02*
G75*
G02X116709919Y-94720255I-1434716J-437710D01*
G01*
X115350400Y-95178760D02*
X115424098Y-95150681D01*
X115424098Y-95150681D02*
X115497914Y-95123135D01*
X115497914Y-95123135D02*
X115576214Y-95094487D01*
X115576214Y-95094487D02*
X115654919Y-95066242D01*
X115654919Y-95066242D02*
X115770999Y-95025492D01*
X115770999Y-95025492D02*
X115854513Y-94996773D01*
X115854513Y-94996773D02*
X115930321Y-94971087D01*
X115930321Y-94971087D02*
X116012009Y-94943782D01*
X116012009Y-94943782D02*
X116095894Y-94916097D01*
X116095894Y-94916097D02*
X116178929Y-94889002D01*
X116178929Y-94889002D02*
X116256703Y-94863864D01*
X116256703Y-94863864D02*
X116335877Y-94838479D01*
X116335877Y-94838479D02*
X116425811Y-94809848D01*
X116425811Y-94809848D02*
X116511691Y-94782663D01*
X116511691Y-94782663D02*
X116597493Y-94755610D01*
X116597493Y-94755610D02*
X116683175Y-94728659D01*
X116683175Y-94728659D02*
X116709919Y-94720255D01*
X114126886Y-95798229D02*
X114186989Y-95757139D01*
X114186989Y-95757139D02*
X114248938Y-95716448D01*
X114248938Y-95716448D02*
X114311623Y-95676865D01*
X114311623Y-95676865D02*
X114375029Y-95638353D01*
X114375029Y-95638353D02*
X114439137Y-95600862D01*
X114439137Y-95600862D02*
X114503204Y-95564753D01*
X114503204Y-95564753D02*
X114569394Y-95528783D01*
X114569394Y-95528783D02*
X114637880Y-95492886D01*
X114637880Y-95492886D02*
X114704795Y-95459018D01*
X114704795Y-95459018D02*
X114774446Y-95424944D01*
X114774446Y-95424944D02*
X114849765Y-95389348D01*
X114849765Y-95389348D02*
X114918404Y-95357951D01*
X114918404Y-95357951D02*
X114988848Y-95326688D01*
X114988848Y-95326688D02*
X115059850Y-95296074D01*
X115059850Y-95296074D02*
X115132655Y-95265548D01*
X115132655Y-95265548D02*
X115204737Y-95236117D01*
X115204737Y-95236117D02*
X115279879Y-95206195D01*
X115279879Y-95206195D02*
X115350400Y-95178760D01*
X113201097Y-96788430D02*
X113238587Y-96723615D01*
X113238587Y-96723615D02*
X113277398Y-96660771D01*
X113277398Y-96660771D02*
X113317057Y-96600400D01*
X113317057Y-96600400D02*
X113358405Y-96541051D01*
X113358405Y-96541051D02*
X113402124Y-96481797D01*
X113402124Y-96481797D02*
X113446056Y-96425444D01*
X113446056Y-96425444D02*
X113493803Y-96367410D01*
X113493803Y-96367410D02*
X113540766Y-96313241D01*
X113540766Y-96313241D02*
X113589212Y-96260070D01*
X113589212Y-96260070D02*
X113640969Y-96206002D01*
X113640969Y-96206002D02*
X113691132Y-96156045D01*
X113691132Y-96156045D02*
X113743596Y-96106139D01*
X113743596Y-96106139D02*
X113798633Y-96056134D01*
X113798633Y-96056134D02*
X113854252Y-96007835D01*
X113854252Y-96007835D02*
X113912043Y-95959832D01*
X113912043Y-95959832D02*
X113967956Y-95915349D01*
X113967956Y-95915349D02*
X114024857Y-95871908D01*
X114024857Y-95871908D02*
X114082561Y-95829599D01*
X114082561Y-95829599D02*
X114126886Y-95798229D01*
X112939482Y-97464039D02*
X112959806Y-97384050D01*
X112959806Y-97384050D02*
X112982163Y-97305793D01*
X112982163Y-97305793D02*
X113006745Y-97228541D01*
X113006745Y-97228541D02*
X113033452Y-97152644D01*
X113033452Y-97152644D02*
X113061880Y-97079062D01*
X113061880Y-97079062D02*
X113092367Y-97006760D01*
X113092367Y-97006760D02*
X113123867Y-96937908D01*
X113123867Y-96937908D02*
X113157922Y-96868987D01*
X113157922Y-96868987D02*
X113193473Y-96802156D01*
X113193473Y-96802156D02*
X113201097Y-96788430D01*
X112850000Y-98250000D02*
X112851452Y-98149164D01*
X112851452Y-98149164D02*
X112855544Y-98052479D01*
X112855544Y-98052479D02*
X112862009Y-97958802D01*
X112862009Y-97958802D02*
X112870845Y-97866133D01*
X112870845Y-97866133D02*
X112881878Y-97775562D01*
X112881878Y-97775562D02*
X112894919Y-97687745D01*
X112894919Y-97687745D02*
X112910032Y-97601793D01*
X112910032Y-97601793D02*
X112927716Y-97515368D01*
X112927716Y-97515368D02*
X112939482Y-97464039D01*
M02*
