G04 #@! TF.GenerationSoftware,KiCad,Pcbnew,(5.1.5)-3*
G04 #@! TF.CreationDate,2020-08-22T17:19:44-02:30*
G04 #@! TF.ProjectId,Thruster_Controller_V2,54687275-7374-4657-925f-436f6e74726f,rev?*
G04 #@! TF.SameCoordinates,Original*
G04 #@! TF.FileFunction,Soldermask,Top*
G04 #@! TF.FilePolarity,Negative*
%FSLAX46Y46*%
G04 Gerber Fmt 4.6, Leading zero omitted, Abs format (unit mm)*
G04 Created by KiCad (PCBNEW (5.1.5)-3) date 2020-08-22 17:19:44*
%MOMM*%
%LPD*%
G04 APERTURE LIST*
%ADD10C,0.100000*%
G04 APERTURE END LIST*
D10*
G36*
X93662500Y-95050000D02*
G01*
X85600000Y-95050000D01*
X85600000Y-91550000D01*
X93637500Y-91550000D01*
X93662500Y-95050000D01*
G37*
X93662500Y-95050000D02*
X85600000Y-95050000D01*
X85600000Y-91550000D01*
X93637500Y-91550000D01*
X93662500Y-95050000D01*
G36*
X93612500Y-91000000D02*
G01*
X85625000Y-90975000D01*
X85625000Y-87650000D01*
X93587500Y-87650000D01*
X93612500Y-91000000D01*
G37*
X93612500Y-91000000D02*
X85625000Y-90975000D01*
X85625000Y-87650000D01*
X93587500Y-87650000D01*
X93612500Y-91000000D01*
G36*
X98601000Y-114426000D02*
G01*
X97999000Y-114426000D01*
X97999000Y-113724000D01*
X98601000Y-113724000D01*
X98601000Y-114426000D01*
G37*
G36*
X99531000Y-113791000D02*
G01*
X99029000Y-113791000D01*
X99029000Y-113089000D01*
X99531000Y-113089000D01*
X99531000Y-113791000D01*
G37*
G36*
X100431000Y-113791000D02*
G01*
X99929000Y-113791000D01*
X99929000Y-113089000D01*
X100431000Y-113089000D01*
X100431000Y-113791000D01*
G37*
G36*
X104601000Y-113776000D02*
G01*
X104099000Y-113776000D01*
X104099000Y-113074000D01*
X104601000Y-113074000D01*
X104601000Y-113776000D01*
G37*
G36*
X103701000Y-113776000D02*
G01*
X103199000Y-113776000D01*
X103199000Y-113074000D01*
X103701000Y-113074000D01*
X103701000Y-113776000D01*
G37*
G36*
X101426000Y-113726000D02*
G01*
X100824000Y-113726000D01*
X100824000Y-113024000D01*
X101426000Y-113024000D01*
X101426000Y-113726000D01*
G37*
G36*
X98601000Y-113326000D02*
G01*
X97999000Y-113326000D01*
X97999000Y-112624000D01*
X98601000Y-112624000D01*
X98601000Y-113326000D01*
G37*
G36*
X89851000Y-113051000D02*
G01*
X89249000Y-113051000D01*
X89249000Y-112349000D01*
X89851000Y-112349000D01*
X89851000Y-113051000D01*
G37*
G36*
X104576000Y-112801000D02*
G01*
X103874000Y-112801000D01*
X103874000Y-112299000D01*
X104576000Y-112299000D01*
X104576000Y-112801000D01*
G37*
G36*
X105551000Y-112801000D02*
G01*
X104849000Y-112801000D01*
X104849000Y-112299000D01*
X105551000Y-112299000D01*
X105551000Y-112801000D01*
G37*
G36*
X100551000Y-112626000D02*
G01*
X99949000Y-112626000D01*
X99949000Y-111924000D01*
X100551000Y-111924000D01*
X100551000Y-112626000D01*
G37*
G36*
X101426000Y-112626000D02*
G01*
X100824000Y-112626000D01*
X100824000Y-111924000D01*
X101426000Y-111924000D01*
X101426000Y-112626000D01*
G37*
G36*
X99526000Y-112626000D02*
G01*
X98924000Y-112626000D01*
X98924000Y-111924000D01*
X99526000Y-111924000D01*
X99526000Y-112626000D01*
G37*
G36*
X102526000Y-112526000D02*
G01*
X101824000Y-112526000D01*
X101824000Y-111924000D01*
X102526000Y-111924000D01*
X102526000Y-112526000D01*
G37*
G36*
X103626000Y-112526000D02*
G01*
X102924000Y-112526000D01*
X102924000Y-111924000D01*
X103626000Y-111924000D01*
X103626000Y-112526000D01*
G37*
G36*
X98651000Y-112401000D02*
G01*
X98049000Y-112401000D01*
X98049000Y-111699000D01*
X98651000Y-111699000D01*
X98651000Y-112401000D01*
G37*
G36*
X108651000Y-112001000D02*
G01*
X107949000Y-112001000D01*
X107949000Y-111399000D01*
X108651000Y-111399000D01*
X108651000Y-112001000D01*
G37*
G36*
X109751000Y-112001000D02*
G01*
X109049000Y-112001000D01*
X109049000Y-111399000D01*
X109751000Y-111399000D01*
X109751000Y-112001000D01*
G37*
G36*
X89851000Y-111951000D02*
G01*
X89249000Y-111951000D01*
X89249000Y-111249000D01*
X89851000Y-111249000D01*
X89851000Y-111951000D01*
G37*
G36*
X104576000Y-111901000D02*
G01*
X103874000Y-111901000D01*
X103874000Y-111399000D01*
X104576000Y-111399000D01*
X104576000Y-111901000D01*
G37*
G36*
X105551000Y-111901000D02*
G01*
X104849000Y-111901000D01*
X104849000Y-111399000D01*
X105551000Y-111399000D01*
X105551000Y-111901000D01*
G37*
G36*
X102526000Y-111676000D02*
G01*
X101824000Y-111676000D01*
X101824000Y-111074000D01*
X102526000Y-111074000D01*
X102526000Y-111676000D01*
G37*
G36*
X103626000Y-111676000D02*
G01*
X102924000Y-111676000D01*
X102924000Y-111074000D01*
X103626000Y-111074000D01*
X103626000Y-111676000D01*
G37*
G36*
X88751000Y-111626000D02*
G01*
X87899000Y-111626000D01*
X87899000Y-110724000D01*
X88751000Y-110724000D01*
X88751000Y-111626000D01*
G37*
G36*
X100551000Y-111526000D02*
G01*
X99949000Y-111526000D01*
X99949000Y-110824000D01*
X100551000Y-110824000D01*
X100551000Y-111526000D01*
G37*
G36*
X99526000Y-111526000D02*
G01*
X98924000Y-111526000D01*
X98924000Y-110824000D01*
X99526000Y-110824000D01*
X99526000Y-111526000D01*
G37*
G36*
X98651000Y-111301000D02*
G01*
X98049000Y-111301000D01*
X98049000Y-110599000D01*
X98651000Y-110599000D01*
X98651000Y-111301000D01*
G37*
G36*
X110501000Y-111001000D02*
G01*
X109799000Y-111001000D01*
X109799000Y-110499000D01*
X110501000Y-110499000D01*
X110501000Y-111001000D01*
G37*
G36*
X109501000Y-110951000D02*
G01*
X108799000Y-110951000D01*
X108799000Y-110349000D01*
X109501000Y-110349000D01*
X109501000Y-110951000D01*
G37*
G36*
X108401000Y-110951000D02*
G01*
X107699000Y-110951000D01*
X107699000Y-110349000D01*
X108401000Y-110349000D01*
X108401000Y-110951000D01*
G37*
G36*
X106351000Y-110901000D02*
G01*
X105649000Y-110901000D01*
X105649000Y-110299000D01*
X106351000Y-110299000D01*
X106351000Y-110901000D01*
G37*
G36*
X105251000Y-110901000D02*
G01*
X104549000Y-110901000D01*
X104549000Y-110299000D01*
X105251000Y-110299000D01*
X105251000Y-110901000D01*
G37*
G36*
X87376000Y-110301000D02*
G01*
X86524000Y-110301000D01*
X86524000Y-109399000D01*
X87376000Y-109399000D01*
X87376000Y-110301000D01*
G37*
G36*
X113276000Y-110201000D02*
G01*
X112374000Y-110201000D01*
X112374000Y-109349000D01*
X113276000Y-109349000D01*
X113276000Y-110201000D01*
G37*
G36*
X111776000Y-110201000D02*
G01*
X110874000Y-110201000D01*
X110874000Y-109349000D01*
X111776000Y-109349000D01*
X111776000Y-110201000D01*
G37*
G36*
X88751000Y-110126000D02*
G01*
X87899000Y-110126000D01*
X87899000Y-109224000D01*
X88751000Y-109224000D01*
X88751000Y-110126000D01*
G37*
G36*
X110501000Y-110101000D02*
G01*
X109799000Y-110101000D01*
X109799000Y-109599000D01*
X110501000Y-109599000D01*
X110501000Y-110101000D01*
G37*
G36*
X92776000Y-110051000D02*
G01*
X92274000Y-110051000D01*
X92274000Y-109349000D01*
X92776000Y-109349000D01*
X92776000Y-110051000D01*
G37*
G36*
X91876000Y-110051000D02*
G01*
X91374000Y-110051000D01*
X91374000Y-109349000D01*
X91876000Y-109349000D01*
X91876000Y-110051000D01*
G37*
G36*
X109175350Y-108284694D02*
G01*
X109274770Y-108325875D01*
X109364246Y-108385661D01*
X109440339Y-108461754D01*
X109500125Y-108551230D01*
X109541306Y-108650650D01*
X109562300Y-108756194D01*
X109562300Y-108863806D01*
X109541306Y-108969350D01*
X109500125Y-109068770D01*
X109440339Y-109158246D01*
X109364246Y-109234339D01*
X109274770Y-109294125D01*
X109175350Y-109335306D01*
X109069806Y-109356300D01*
X108962194Y-109356300D01*
X108856650Y-109335306D01*
X108757230Y-109294125D01*
X108667754Y-109234339D01*
X108591661Y-109158246D01*
X108531875Y-109068770D01*
X108490694Y-108969350D01*
X108469700Y-108863806D01*
X108469700Y-108756194D01*
X108490694Y-108650650D01*
X108531875Y-108551230D01*
X108591661Y-108461754D01*
X108667754Y-108385661D01*
X108757230Y-108325875D01*
X108856650Y-108284694D01*
X108962194Y-108263700D01*
X109069806Y-108263700D01*
X109175350Y-108284694D01*
G37*
G36*
X107143350Y-108284694D02*
G01*
X107242770Y-108325875D01*
X107332246Y-108385661D01*
X107408339Y-108461754D01*
X107468125Y-108551230D01*
X107509306Y-108650650D01*
X107530300Y-108756194D01*
X107530300Y-108863806D01*
X107509306Y-108969350D01*
X107468125Y-109068770D01*
X107408339Y-109158246D01*
X107332246Y-109234339D01*
X107242770Y-109294125D01*
X107143350Y-109335306D01*
X107037806Y-109356300D01*
X106930194Y-109356300D01*
X106824650Y-109335306D01*
X106725230Y-109294125D01*
X106635754Y-109234339D01*
X106559661Y-109158246D01*
X106499875Y-109068770D01*
X106458694Y-108969350D01*
X106437700Y-108863806D01*
X106437700Y-108756194D01*
X106458694Y-108650650D01*
X106499875Y-108551230D01*
X106559661Y-108461754D01*
X106635754Y-108385661D01*
X106725230Y-108325875D01*
X106824650Y-108284694D01*
X106930194Y-108263700D01*
X107037806Y-108263700D01*
X107143350Y-108284694D01*
G37*
G36*
X103541000Y-108901000D02*
G01*
X102839000Y-108901000D01*
X102839000Y-108299000D01*
X103541000Y-108299000D01*
X103541000Y-108901000D01*
G37*
G36*
X104641000Y-108901000D02*
G01*
X103939000Y-108901000D01*
X103939000Y-108299000D01*
X104641000Y-108299000D01*
X104641000Y-108901000D01*
G37*
G36*
X113276000Y-108826000D02*
G01*
X112374000Y-108826000D01*
X112374000Y-107924000D01*
X113276000Y-107924000D01*
X113276000Y-108826000D01*
G37*
G36*
X87376000Y-108801000D02*
G01*
X86524000Y-108801000D01*
X86524000Y-107899000D01*
X87376000Y-107899000D01*
X87376000Y-108801000D01*
G37*
G36*
X111876000Y-108401000D02*
G01*
X110874000Y-108401000D01*
X110874000Y-107799000D01*
X111876000Y-107799000D01*
X111876000Y-108401000D01*
G37*
G36*
X91226000Y-108151000D02*
G01*
X90724000Y-108151000D01*
X90724000Y-107449000D01*
X91226000Y-107449000D01*
X91226000Y-108151000D01*
G37*
G36*
X90326000Y-108151000D02*
G01*
X89824000Y-108151000D01*
X89824000Y-107449000D01*
X90326000Y-107449000D01*
X90326000Y-108151000D01*
G37*
G36*
X107151000Y-107951000D02*
G01*
X106649000Y-107951000D01*
X106649000Y-107249000D01*
X107151000Y-107249000D01*
X107151000Y-107951000D01*
G37*
G36*
X106251000Y-107951000D02*
G01*
X105749000Y-107951000D01*
X105749000Y-107249000D01*
X106251000Y-107249000D01*
X106251000Y-107951000D01*
G37*
G36*
X96076000Y-107826000D02*
G01*
X95374000Y-107826000D01*
X95374000Y-107224000D01*
X96076000Y-107224000D01*
X96076000Y-107826000D01*
G37*
G36*
X97176000Y-107826000D02*
G01*
X96474000Y-107826000D01*
X96474000Y-107224000D01*
X97176000Y-107224000D01*
X97176000Y-107826000D01*
G37*
G36*
X114701000Y-107251000D02*
G01*
X113849000Y-107251000D01*
X113849000Y-106349000D01*
X114701000Y-106349000D01*
X114701000Y-107251000D01*
G37*
G36*
X113276000Y-107226000D02*
G01*
X112374000Y-107226000D01*
X112374000Y-106324000D01*
X113276000Y-106324000D01*
X113276000Y-107226000D01*
G37*
G36*
X100151000Y-107201000D02*
G01*
X99549000Y-107201000D01*
X99549000Y-106499000D01*
X100151000Y-106499000D01*
X100151000Y-107201000D01*
G37*
G36*
X106071000Y-107021000D02*
G01*
X105369000Y-107021000D01*
X105369000Y-106419000D01*
X106071000Y-106419000D01*
X106071000Y-107021000D01*
G37*
G36*
X107171000Y-107021000D02*
G01*
X106469000Y-107021000D01*
X106469000Y-106419000D01*
X107171000Y-106419000D01*
X107171000Y-107021000D01*
G37*
G36*
X96076000Y-106951000D02*
G01*
X95374000Y-106951000D01*
X95374000Y-106349000D01*
X96076000Y-106349000D01*
X96076000Y-106951000D01*
G37*
G36*
X97176000Y-106951000D02*
G01*
X96474000Y-106951000D01*
X96474000Y-106349000D01*
X97176000Y-106349000D01*
X97176000Y-106951000D01*
G37*
G36*
X102551000Y-106951000D02*
G01*
X101949000Y-106951000D01*
X101949000Y-106249000D01*
X102551000Y-106249000D01*
X102551000Y-106951000D01*
G37*
G36*
X101676000Y-106951000D02*
G01*
X101074000Y-106951000D01*
X101074000Y-106249000D01*
X101676000Y-106249000D01*
X101676000Y-106951000D01*
G37*
G36*
X111876000Y-106901000D02*
G01*
X110874000Y-106901000D01*
X110874000Y-106299000D01*
X111876000Y-106299000D01*
X111876000Y-106901000D01*
G37*
G36*
X90506563Y-104689389D02*
G01*
X90506566Y-104689390D01*
X90506565Y-104689390D01*
X90697835Y-104768616D01*
X90869973Y-104883635D01*
X91016365Y-105030027D01*
X91131384Y-105202165D01*
X91197017Y-105360619D01*
X91210611Y-105393437D01*
X91251000Y-105596484D01*
X91251000Y-105803516D01*
X91210611Y-106006563D01*
X91210610Y-106006565D01*
X91131384Y-106197835D01*
X91016365Y-106369973D01*
X90869973Y-106516365D01*
X90697835Y-106631384D01*
X90539381Y-106697017D01*
X90506563Y-106710611D01*
X90303516Y-106751000D01*
X90096484Y-106751000D01*
X89893437Y-106710611D01*
X89860619Y-106697017D01*
X89702165Y-106631384D01*
X89530027Y-106516365D01*
X89383635Y-106369973D01*
X89268616Y-106197835D01*
X89189390Y-106006565D01*
X89189389Y-106006563D01*
X89149000Y-105803516D01*
X89149000Y-105596484D01*
X89189389Y-105393437D01*
X89202983Y-105360619D01*
X89268616Y-105202165D01*
X89383635Y-105030027D01*
X89530027Y-104883635D01*
X89702165Y-104768616D01*
X89893435Y-104689390D01*
X89893434Y-104689390D01*
X89893437Y-104689389D01*
X90096484Y-104649000D01*
X90303516Y-104649000D01*
X90506563Y-104689389D01*
G37*
G36*
X88101000Y-106701000D02*
G01*
X87499000Y-106701000D01*
X87499000Y-105999000D01*
X88101000Y-105999000D01*
X88101000Y-106701000D01*
G37*
G36*
X87026000Y-106601000D02*
G01*
X86174000Y-106601000D01*
X86174000Y-105699000D01*
X87026000Y-105699000D01*
X87026000Y-106601000D01*
G37*
G36*
X100151000Y-106101000D02*
G01*
X99549000Y-106101000D01*
X99549000Y-105399000D01*
X100151000Y-105399000D01*
X100151000Y-106101000D01*
G37*
G36*
X102551000Y-105851000D02*
G01*
X101949000Y-105851000D01*
X101949000Y-105149000D01*
X102551000Y-105149000D01*
X102551000Y-105851000D01*
G37*
G36*
X101676000Y-105851000D02*
G01*
X101074000Y-105851000D01*
X101074000Y-105149000D01*
X101676000Y-105149000D01*
X101676000Y-105851000D01*
G37*
G36*
X114701000Y-105751000D02*
G01*
X113849000Y-105751000D01*
X113849000Y-104849000D01*
X114701000Y-104849000D01*
X114701000Y-105751000D01*
G37*
G36*
X88101000Y-105601000D02*
G01*
X87499000Y-105601000D01*
X87499000Y-104899000D01*
X88101000Y-104899000D01*
X88101000Y-105601000D01*
G37*
G36*
X92801000Y-105476000D02*
G01*
X92199000Y-105476000D01*
X92199000Y-104774000D01*
X92801000Y-104774000D01*
X92801000Y-105476000D01*
G37*
G36*
X111401000Y-105451000D02*
G01*
X110699000Y-105451000D01*
X110699000Y-104949000D01*
X111401000Y-104949000D01*
X111401000Y-105451000D01*
G37*
G36*
X87026000Y-105101000D02*
G01*
X86174000Y-105101000D01*
X86174000Y-104199000D01*
X87026000Y-104199000D01*
X87026000Y-105101000D01*
G37*
G36*
X111401000Y-104551000D02*
G01*
X110699000Y-104551000D01*
X110699000Y-104049000D01*
X111401000Y-104049000D01*
X111401000Y-104551000D01*
G37*
G36*
X92801000Y-104376000D02*
G01*
X92199000Y-104376000D01*
X92199000Y-103674000D01*
X92801000Y-103674000D01*
X92801000Y-104376000D01*
G37*
G36*
X90551000Y-104301000D02*
G01*
X89849000Y-104301000D01*
X89849000Y-103799000D01*
X90551000Y-103799000D01*
X90551000Y-104301000D01*
G37*
G36*
X115551000Y-103901000D02*
G01*
X114549000Y-103901000D01*
X114549000Y-103299000D01*
X115551000Y-103299000D01*
X115551000Y-103901000D01*
G37*
G36*
X114076000Y-103676000D02*
G01*
X113174000Y-103676000D01*
X113174000Y-102774000D01*
X114076000Y-102774000D01*
X114076000Y-103676000D01*
G37*
G36*
X97776000Y-103501000D02*
G01*
X97174000Y-103501000D01*
X97174000Y-102799000D01*
X97776000Y-102799000D01*
X97776000Y-103501000D01*
G37*
G36*
X93026000Y-103401000D02*
G01*
X92324000Y-103401000D01*
X92324000Y-102799000D01*
X93026000Y-102799000D01*
X93026000Y-103401000D01*
G37*
G36*
X94126000Y-103401000D02*
G01*
X93424000Y-103401000D01*
X93424000Y-102799000D01*
X94126000Y-102799000D01*
X94126000Y-103401000D01*
G37*
G36*
X90551000Y-103401000D02*
G01*
X89849000Y-103401000D01*
X89849000Y-102899000D01*
X90551000Y-102899000D01*
X90551000Y-103401000D01*
G37*
G36*
X112435719Y-102220174D02*
G01*
X112435722Y-102220175D01*
X112435721Y-102220175D01*
X112535996Y-102261710D01*
X112626242Y-102322010D01*
X112702990Y-102398758D01*
X112763290Y-102489004D01*
X112763290Y-102489005D01*
X112804826Y-102589281D01*
X112826000Y-102695730D01*
X112826000Y-102804270D01*
X112804826Y-102910719D01*
X112804825Y-102910721D01*
X112763290Y-103010996D01*
X112702990Y-103101242D01*
X112626242Y-103177990D01*
X112535996Y-103238290D01*
X112465090Y-103267660D01*
X112435719Y-103279826D01*
X112329270Y-103301000D01*
X112220730Y-103301000D01*
X112114281Y-103279826D01*
X112084910Y-103267660D01*
X112014004Y-103238290D01*
X111923758Y-103177990D01*
X111847010Y-103101242D01*
X111786710Y-103010996D01*
X111745175Y-102910721D01*
X111745174Y-102910719D01*
X111724000Y-102804270D01*
X111724000Y-102695730D01*
X111745174Y-102589281D01*
X111786710Y-102489005D01*
X111786710Y-102489004D01*
X111847010Y-102398758D01*
X111923758Y-102322010D01*
X112014004Y-102261710D01*
X112114279Y-102220175D01*
X112114278Y-102220175D01*
X112114281Y-102220174D01*
X112220730Y-102199000D01*
X112329270Y-102199000D01*
X112435719Y-102220174D01*
G37*
G36*
X95376000Y-103101000D02*
G01*
X94524000Y-103101000D01*
X94524000Y-102199000D01*
X95376000Y-102199000D01*
X95376000Y-103101000D01*
G37*
G36*
X96776000Y-103101000D02*
G01*
X95924000Y-103101000D01*
X95924000Y-102199000D01*
X96776000Y-102199000D01*
X96776000Y-103101000D01*
G37*
G36*
X90506563Y-100489389D02*
G01*
X90506566Y-100489390D01*
X90506565Y-100489390D01*
X90697835Y-100568616D01*
X90869973Y-100683635D01*
X91016365Y-100830027D01*
X91131384Y-101002165D01*
X91143183Y-101030651D01*
X91210611Y-101193437D01*
X91251000Y-101396484D01*
X91251000Y-101603516D01*
X91210611Y-101806563D01*
X91210610Y-101806565D01*
X91131384Y-101997835D01*
X91016365Y-102169973D01*
X90869973Y-102316365D01*
X90697835Y-102431384D01*
X90558727Y-102489004D01*
X90506563Y-102510611D01*
X90303516Y-102551000D01*
X90096484Y-102551000D01*
X89893437Y-102510611D01*
X89841273Y-102489004D01*
X89702165Y-102431384D01*
X89530027Y-102316365D01*
X89383635Y-102169973D01*
X89268616Y-101997835D01*
X89189390Y-101806565D01*
X89189389Y-101806563D01*
X89149000Y-101603516D01*
X89149000Y-101396484D01*
X89189389Y-101193437D01*
X89256817Y-101030651D01*
X89268616Y-101002165D01*
X89383635Y-100830027D01*
X89530027Y-100683635D01*
X89702165Y-100568616D01*
X89893435Y-100489390D01*
X89893434Y-100489390D01*
X89893437Y-100489389D01*
X90096484Y-100449000D01*
X90303516Y-100449000D01*
X90506563Y-100489389D01*
G37*
G36*
X115551000Y-102401000D02*
G01*
X114549000Y-102401000D01*
X114549000Y-101799000D01*
X115551000Y-101799000D01*
X115551000Y-102401000D01*
G37*
G36*
X97776000Y-102401000D02*
G01*
X97174000Y-102401000D01*
X97174000Y-101699000D01*
X97776000Y-101699000D01*
X97776000Y-102401000D01*
G37*
G36*
X102651000Y-102151000D02*
G01*
X101749000Y-102151000D01*
X101749000Y-101299000D01*
X102651000Y-101299000D01*
X102651000Y-102151000D01*
G37*
G36*
X101151000Y-102151000D02*
G01*
X100249000Y-102151000D01*
X100249000Y-101299000D01*
X101151000Y-101299000D01*
X101151000Y-102151000D01*
G37*
G36*
X114076000Y-102076000D02*
G01*
X113174000Y-102076000D01*
X113174000Y-101174000D01*
X114076000Y-101174000D01*
X114076000Y-102076000D01*
G37*
G36*
X111076000Y-101851000D02*
G01*
X110174000Y-101851000D01*
X110174000Y-100999000D01*
X111076000Y-100999000D01*
X111076000Y-101851000D01*
G37*
G36*
X88551000Y-101851000D02*
G01*
X88049000Y-101851000D01*
X88049000Y-101149000D01*
X88551000Y-101149000D01*
X88551000Y-101851000D01*
G37*
G36*
X87651000Y-101851000D02*
G01*
X87149000Y-101851000D01*
X87149000Y-101149000D01*
X87651000Y-101149000D01*
X87651000Y-101851000D01*
G37*
G36*
X112576000Y-101851000D02*
G01*
X111674000Y-101851000D01*
X111674000Y-100999000D01*
X112576000Y-100999000D01*
X112576000Y-101851000D01*
G37*
G36*
X108159350Y-100664694D02*
G01*
X108258770Y-100705875D01*
X108348246Y-100765661D01*
X108424339Y-100841754D01*
X108484125Y-100931230D01*
X108525306Y-101030650D01*
X108546300Y-101136194D01*
X108546300Y-101243806D01*
X108525306Y-101349350D01*
X108484125Y-101448770D01*
X108424339Y-101538246D01*
X108348246Y-101614339D01*
X108258770Y-101674125D01*
X108159350Y-101715306D01*
X108053806Y-101736300D01*
X107946194Y-101736300D01*
X107840650Y-101715306D01*
X107741230Y-101674125D01*
X107651754Y-101614339D01*
X107575661Y-101538246D01*
X107515875Y-101448770D01*
X107474694Y-101349350D01*
X107453700Y-101243806D01*
X107453700Y-101136194D01*
X107474694Y-101030650D01*
X107515875Y-100931230D01*
X107575661Y-100841754D01*
X107651754Y-100765661D01*
X107741230Y-100705875D01*
X107840650Y-100664694D01*
X107946194Y-100643700D01*
X108053806Y-100643700D01*
X108159350Y-100664694D01*
G37*
G36*
X96776000Y-101601000D02*
G01*
X95924000Y-101601000D01*
X95924000Y-100699000D01*
X96776000Y-100699000D01*
X96776000Y-101601000D01*
G37*
G36*
X95376000Y-101601000D02*
G01*
X94524000Y-101601000D01*
X94524000Y-100699000D01*
X95376000Y-100699000D01*
X95376000Y-101601000D01*
G37*
G36*
X97851000Y-101201000D02*
G01*
X97149000Y-101201000D01*
X97149000Y-100599000D01*
X97851000Y-100599000D01*
X97851000Y-101201000D01*
G37*
G36*
X98951000Y-101201000D02*
G01*
X98249000Y-101201000D01*
X98249000Y-100599000D01*
X98951000Y-100599000D01*
X98951000Y-101201000D01*
G37*
G36*
X88551000Y-100851000D02*
G01*
X88049000Y-100851000D01*
X88049000Y-100149000D01*
X88551000Y-100149000D01*
X88551000Y-100851000D01*
G37*
G36*
X87651000Y-100851000D02*
G01*
X87149000Y-100851000D01*
X87149000Y-100149000D01*
X87651000Y-100149000D01*
X87651000Y-100851000D01*
G37*
G36*
X104026000Y-100751000D02*
G01*
X103124000Y-100751000D01*
X103124000Y-99849000D01*
X104026000Y-99849000D01*
X104026000Y-100751000D01*
G37*
G36*
X105626000Y-100751000D02*
G01*
X104724000Y-100751000D01*
X104724000Y-99849000D01*
X105626000Y-99849000D01*
X105626000Y-100751000D01*
G37*
G36*
X112096000Y-100501000D02*
G01*
X111644000Y-100501000D01*
X111644000Y-99749000D01*
X112096000Y-99749000D01*
X112096000Y-100501000D01*
G37*
G36*
X111446000Y-100501000D02*
G01*
X110994000Y-100501000D01*
X110994000Y-99749000D01*
X111446000Y-99749000D01*
X111446000Y-100501000D01*
G37*
G36*
X110796000Y-100501000D02*
G01*
X110344000Y-100501000D01*
X110344000Y-99749000D01*
X110796000Y-99749000D01*
X110796000Y-100501000D01*
G37*
G36*
X112071000Y-99626000D02*
G01*
X110369000Y-99626000D01*
X110369000Y-98524000D01*
X112071000Y-98524000D01*
X112071000Y-99626000D01*
G37*
G36*
X90151000Y-99601000D02*
G01*
X89449000Y-99601000D01*
X89449000Y-99099000D01*
X90151000Y-99099000D01*
X90151000Y-99601000D01*
G37*
G36*
X89151000Y-99601000D02*
G01*
X88449000Y-99601000D01*
X88449000Y-99099000D01*
X89151000Y-99099000D01*
X89151000Y-99601000D01*
G37*
G36*
X88151000Y-99601000D02*
G01*
X87449000Y-99601000D01*
X87449000Y-99099000D01*
X88151000Y-99099000D01*
X88151000Y-99601000D01*
G37*
G36*
X93251000Y-99576000D02*
G01*
X92649000Y-99576000D01*
X92649000Y-98874000D01*
X93251000Y-98874000D01*
X93251000Y-99576000D01*
G37*
G36*
X107326000Y-99476000D02*
G01*
X106624000Y-99476000D01*
X106624000Y-98974000D01*
X107326000Y-98974000D01*
X107326000Y-99476000D01*
G37*
G36*
X106326000Y-99476000D02*
G01*
X105624000Y-99476000D01*
X105624000Y-98974000D01*
X106326000Y-98974000D01*
X106326000Y-99476000D01*
G37*
G36*
X109051000Y-99451000D02*
G01*
X108349000Y-99451000D01*
X108349000Y-98949000D01*
X109051000Y-98949000D01*
X109051000Y-99451000D01*
G37*
G36*
X105226000Y-99376000D02*
G01*
X104624000Y-99376000D01*
X104624000Y-98374000D01*
X105226000Y-98374000D01*
X105226000Y-99376000D01*
G37*
G36*
X103726000Y-99376000D02*
G01*
X103124000Y-99376000D01*
X103124000Y-98374000D01*
X103726000Y-98374000D01*
X103726000Y-99376000D01*
G37*
G36*
X90151000Y-98701000D02*
G01*
X89449000Y-98701000D01*
X89449000Y-98199000D01*
X90151000Y-98199000D01*
X90151000Y-98701000D01*
G37*
G36*
X89151000Y-98701000D02*
G01*
X88449000Y-98701000D01*
X88449000Y-98199000D01*
X89151000Y-98199000D01*
X89151000Y-98701000D01*
G37*
G36*
X88151000Y-98701000D02*
G01*
X87449000Y-98701000D01*
X87449000Y-98199000D01*
X88151000Y-98199000D01*
X88151000Y-98701000D01*
G37*
G36*
X106326000Y-98576000D02*
G01*
X105624000Y-98576000D01*
X105624000Y-98074000D01*
X106326000Y-98074000D01*
X106326000Y-98576000D01*
G37*
G36*
X107326000Y-98576000D02*
G01*
X106624000Y-98576000D01*
X106624000Y-98074000D01*
X107326000Y-98074000D01*
X107326000Y-98576000D01*
G37*
G36*
X109051000Y-98551000D02*
G01*
X108349000Y-98551000D01*
X108349000Y-98049000D01*
X109051000Y-98049000D01*
X109051000Y-98551000D01*
G37*
G36*
X93251000Y-98476000D02*
G01*
X92649000Y-98476000D01*
X92649000Y-97774000D01*
X93251000Y-97774000D01*
X93251000Y-98476000D01*
G37*
G36*
X112096000Y-98401000D02*
G01*
X111644000Y-98401000D01*
X111644000Y-97649000D01*
X112096000Y-97649000D01*
X112096000Y-98401000D01*
G37*
G36*
X111446000Y-98401000D02*
G01*
X110994000Y-98401000D01*
X110994000Y-97649000D01*
X111446000Y-97649000D01*
X111446000Y-98401000D01*
G37*
G36*
X110796000Y-98401000D02*
G01*
X110344000Y-98401000D01*
X110344000Y-97649000D01*
X110796000Y-97649000D01*
X110796000Y-98401000D01*
G37*
G36*
X89151000Y-97901000D02*
G01*
X88449000Y-97901000D01*
X88449000Y-97399000D01*
X89151000Y-97399000D01*
X89151000Y-97901000D01*
G37*
G36*
X88151000Y-97901000D02*
G01*
X87449000Y-97901000D01*
X87449000Y-97399000D01*
X88151000Y-97399000D01*
X88151000Y-97901000D01*
G37*
G36*
X90151000Y-97901000D02*
G01*
X89449000Y-97901000D01*
X89449000Y-97399000D01*
X90151000Y-97399000D01*
X90151000Y-97901000D01*
G37*
G36*
X112601000Y-97126000D02*
G01*
X111499000Y-97126000D01*
X111499000Y-95774000D01*
X112601000Y-95774000D01*
X112601000Y-97126000D01*
G37*
G36*
X110601000Y-97126000D02*
G01*
X109499000Y-97126000D01*
X109499000Y-95774000D01*
X110601000Y-95774000D01*
X110601000Y-97126000D01*
G37*
G36*
X90151000Y-97001000D02*
G01*
X89449000Y-97001000D01*
X89449000Y-96499000D01*
X90151000Y-96499000D01*
X90151000Y-97001000D01*
G37*
G36*
X89151000Y-97001000D02*
G01*
X88449000Y-97001000D01*
X88449000Y-96499000D01*
X89151000Y-96499000D01*
X89151000Y-97001000D01*
G37*
G36*
X88151000Y-97001000D02*
G01*
X87449000Y-97001000D01*
X87449000Y-96499000D01*
X88151000Y-96499000D01*
X88151000Y-97001000D01*
G37*
G36*
X99001000Y-95301000D02*
G01*
X97299000Y-95301000D01*
X97299000Y-91699000D01*
X99001000Y-91699000D01*
X99001000Y-95301000D01*
G37*
G36*
X105851000Y-95301000D02*
G01*
X104149000Y-95301000D01*
X104149000Y-91699000D01*
X105851000Y-91699000D01*
X105851000Y-95301000D01*
G37*
G36*
X112701000Y-95301000D02*
G01*
X110999000Y-95301000D01*
X110999000Y-91699000D01*
X112701000Y-91699000D01*
X112701000Y-95301000D01*
G37*
G36*
X91126000Y-94526000D02*
G01*
X88524000Y-94526000D01*
X88524000Y-92574000D01*
X91126000Y-92574000D01*
X91126000Y-94526000D01*
G37*
G36*
X116376000Y-93176000D02*
G01*
X115474000Y-93176000D01*
X115474000Y-92274000D01*
X116376000Y-92274000D01*
X116376000Y-93176000D01*
G37*
G36*
X116376000Y-91576000D02*
G01*
X115474000Y-91576000D01*
X115474000Y-90674000D01*
X116376000Y-90674000D01*
X116376000Y-91576000D01*
G37*
G36*
X84935719Y-89520174D02*
G01*
X84935722Y-89520175D01*
X84935721Y-89520175D01*
X85035996Y-89561710D01*
X85126242Y-89622010D01*
X85202990Y-89698758D01*
X85263290Y-89789004D01*
X85263290Y-89789005D01*
X85304826Y-89889281D01*
X85326000Y-89995730D01*
X85326000Y-90104270D01*
X85304826Y-90210719D01*
X85304825Y-90210721D01*
X85263290Y-90310996D01*
X85202990Y-90401242D01*
X85126242Y-90477990D01*
X85035996Y-90538290D01*
X84965090Y-90567660D01*
X84935719Y-90579826D01*
X84829270Y-90601000D01*
X84720730Y-90601000D01*
X84614281Y-90579826D01*
X84584910Y-90567660D01*
X84514004Y-90538290D01*
X84423758Y-90477990D01*
X84347010Y-90401242D01*
X84286710Y-90310996D01*
X84245175Y-90210721D01*
X84245174Y-90210719D01*
X84224000Y-90104270D01*
X84224000Y-89995730D01*
X84245174Y-89889281D01*
X84286710Y-89789005D01*
X84286710Y-89789004D01*
X84347010Y-89698758D01*
X84423758Y-89622010D01*
X84514004Y-89561710D01*
X84614279Y-89520175D01*
X84614278Y-89520175D01*
X84614281Y-89520174D01*
X84720730Y-89499000D01*
X84829270Y-89499000D01*
X84935719Y-89520174D01*
G37*
G36*
X91201000Y-90151000D02*
G01*
X88599000Y-90151000D01*
X88599000Y-88199000D01*
X91201000Y-88199000D01*
X91201000Y-90151000D01*
G37*
G36*
X105851000Y-89901000D02*
G01*
X104149000Y-89901000D01*
X104149000Y-86299000D01*
X105851000Y-86299000D01*
X105851000Y-89901000D01*
G37*
G36*
X112701000Y-89901000D02*
G01*
X110999000Y-89901000D01*
X110999000Y-86299000D01*
X112701000Y-86299000D01*
X112701000Y-89901000D01*
G37*
G36*
X99001000Y-89901000D02*
G01*
X97299000Y-89901000D01*
X97299000Y-86299000D01*
X99001000Y-86299000D01*
X99001000Y-89901000D01*
G37*
G36*
X94551000Y-88201000D02*
G01*
X93849000Y-88201000D01*
X93849000Y-87599000D01*
X94551000Y-87599000D01*
X94551000Y-88201000D01*
G37*
G36*
X95651000Y-88201000D02*
G01*
X94949000Y-88201000D01*
X94949000Y-87599000D01*
X95651000Y-87599000D01*
X95651000Y-88201000D01*
G37*
G36*
X109301000Y-88151000D02*
G01*
X108599000Y-88151000D01*
X108599000Y-87549000D01*
X109301000Y-87549000D01*
X109301000Y-88151000D01*
G37*
G36*
X108201000Y-88151000D02*
G01*
X107499000Y-88151000D01*
X107499000Y-87549000D01*
X108201000Y-87549000D01*
X108201000Y-88151000D01*
G37*
G36*
X102501000Y-88151000D02*
G01*
X101799000Y-88151000D01*
X101799000Y-87549000D01*
X102501000Y-87549000D01*
X102501000Y-88151000D01*
G37*
G36*
X101401000Y-88151000D02*
G01*
X100699000Y-88151000D01*
X100699000Y-87549000D01*
X101401000Y-87549000D01*
X101401000Y-88151000D01*
G37*
G36*
X92548253Y-82427818D02*
G01*
X92548256Y-82427819D01*
X92548255Y-82427819D01*
X92921513Y-82582427D01*
X93190616Y-82762236D01*
X93250138Y-82802007D01*
X93257436Y-82806884D01*
X93543116Y-83092564D01*
X93767573Y-83428487D01*
X93826815Y-83571511D01*
X93922182Y-83801747D01*
X94001000Y-84197993D01*
X94001000Y-84602007D01*
X93922182Y-84998253D01*
X93922181Y-84998255D01*
X93767573Y-85371513D01*
X93543116Y-85707436D01*
X93257436Y-85993116D01*
X92921513Y-86217573D01*
X92612295Y-86345655D01*
X92548253Y-86372182D01*
X92152007Y-86451000D01*
X91747993Y-86451000D01*
X91351747Y-86372182D01*
X91287705Y-86345655D01*
X90978487Y-86217573D01*
X90642564Y-85993116D01*
X90356884Y-85707436D01*
X90132427Y-85371513D01*
X89977819Y-84998255D01*
X89977818Y-84998253D01*
X89899000Y-84602007D01*
X89899000Y-84197993D01*
X89977818Y-83801747D01*
X90073185Y-83571511D01*
X90132427Y-83428487D01*
X90356884Y-83092564D01*
X90642564Y-82806884D01*
X90649863Y-82802007D01*
X90709384Y-82762236D01*
X90978487Y-82582427D01*
X91351745Y-82427819D01*
X91351744Y-82427819D01*
X91351747Y-82427818D01*
X91747993Y-82349000D01*
X92152007Y-82349000D01*
X92548253Y-82427818D01*
G37*
G36*
X108398253Y-82177818D02*
G01*
X108398256Y-82177819D01*
X108398255Y-82177819D01*
X108771513Y-82332427D01*
X109107436Y-82556884D01*
X109393116Y-82842564D01*
X109617573Y-83178487D01*
X109721126Y-83428487D01*
X109772182Y-83551747D01*
X109851000Y-83947993D01*
X109851000Y-84352007D01*
X109772182Y-84748253D01*
X109772181Y-84748255D01*
X109617573Y-85121513D01*
X109393116Y-85457436D01*
X109107436Y-85743116D01*
X108771513Y-85967573D01*
X108462295Y-86095655D01*
X108398253Y-86122182D01*
X108002007Y-86201000D01*
X107597993Y-86201000D01*
X107201747Y-86122182D01*
X107137705Y-86095655D01*
X106828487Y-85967573D01*
X106492564Y-85743116D01*
X106206884Y-85457436D01*
X105982427Y-85121513D01*
X105827819Y-84748255D01*
X105827818Y-84748253D01*
X105749000Y-84352007D01*
X105749000Y-83947993D01*
X105827818Y-83551747D01*
X105878874Y-83428487D01*
X105982427Y-83178487D01*
X106206884Y-82842564D01*
X106492564Y-82556884D01*
X106828487Y-82332427D01*
X107201745Y-82177819D01*
X107201744Y-82177819D01*
X107201747Y-82177818D01*
X107597993Y-82099000D01*
X108002007Y-82099000D01*
X108398253Y-82177818D01*
G37*
G36*
X100398253Y-80627818D02*
G01*
X100398256Y-80627819D01*
X100398255Y-80627819D01*
X100771513Y-80782427D01*
X101107436Y-81006884D01*
X101393116Y-81292564D01*
X101617573Y-81628487D01*
X101745655Y-81937705D01*
X101772182Y-82001747D01*
X101851000Y-82397993D01*
X101851000Y-82802007D01*
X101772182Y-83198253D01*
X101772181Y-83198255D01*
X101617573Y-83571513D01*
X101463735Y-83801747D01*
X101393117Y-83907435D01*
X101107435Y-84193117D01*
X101100136Y-84197994D01*
X100771513Y-84417573D01*
X100462295Y-84545655D01*
X100398253Y-84572182D01*
X100002007Y-84651000D01*
X99597993Y-84651000D01*
X99201747Y-84572182D01*
X99137705Y-84545655D01*
X98828487Y-84417573D01*
X98499864Y-84197994D01*
X98492565Y-84193117D01*
X98206883Y-83907435D01*
X98136265Y-83801747D01*
X97982427Y-83571513D01*
X97827819Y-83198255D01*
X97827818Y-83198253D01*
X97749000Y-82802007D01*
X97749000Y-82397993D01*
X97827818Y-82001747D01*
X97854345Y-81937705D01*
X97982427Y-81628487D01*
X98206884Y-81292564D01*
X98492564Y-81006884D01*
X98828487Y-80782427D01*
X99201745Y-80627819D01*
X99201744Y-80627819D01*
X99201747Y-80627818D01*
X99597993Y-80549000D01*
X100002007Y-80549000D01*
X100398253Y-80627818D01*
G37*
M02*
