G04 #@! TF.GenerationSoftware,KiCad,Pcbnew,(5.1.8)-1*
G04 #@! TF.CreationDate,2020-11-22T23:20:16-08:00*
G04 #@! TF.ProjectId,Thruster_Controller_V2,54687275-7374-4657-925f-436f6e74726f,rev?*
G04 #@! TF.SameCoordinates,Original*
G04 #@! TF.FileFunction,Copper,L1,Top*
G04 #@! TF.FilePolarity,Positive*
%FSLAX46Y46*%
G04 Gerber Fmt 4.6, Leading zero omitted, Abs format (unit mm)*
G04 Created by KiCad (PCBNEW (5.1.8)-1) date 2020-11-22 23:20:16*
%MOMM*%
%LPD*%
G01*
G04 APERTURE LIST*
G04 #@! TA.AperFunction,SMDPad,CuDef*
%ADD10R,1.600000X3.500000*%
G04 #@! TD*
G04 #@! TA.AperFunction,SMDPad,CuDef*
%ADD11C,4.000000*%
G04 #@! TD*
G04 #@! TA.AperFunction,SMDPad,CuDef*
%ADD12R,2.500000X1.850000*%
G04 #@! TD*
G04 #@! TA.AperFunction,SMDPad,CuDef*
%ADD13C,2.000000*%
G04 #@! TD*
G04 #@! TA.AperFunction,SMDPad,CuDef*
%ADD14C,1.000000*%
G04 #@! TD*
G04 #@! TA.AperFunction,ViaPad*
%ADD15C,0.500000*%
G04 #@! TD*
G04 #@! TA.AperFunction,Conductor*
%ADD16C,0.250000*%
G04 #@! TD*
G04 #@! TA.AperFunction,Conductor*
%ADD17C,0.500000*%
G04 #@! TD*
G04 #@! TA.AperFunction,Conductor*
%ADD18C,0.127000*%
G04 #@! TD*
G04 #@! TA.AperFunction,Conductor*
%ADD19C,0.101600*%
G04 #@! TD*
G04 #@! TA.AperFunction,Conductor*
%ADD20C,0.200000*%
G04 #@! TD*
G04 #@! TA.AperFunction,Conductor*
%ADD21C,0.100000*%
G04 #@! TD*
G04 #@! TA.AperFunction,Conductor*
%ADD22C,0.254000*%
G04 #@! TD*
G04 APERTURE END LIST*
D10*
X98150000Y-88100000D03*
X98150000Y-93500000D03*
X105000000Y-88100000D03*
X105000000Y-93500000D03*
X111850000Y-88100000D03*
X111850000Y-93500000D03*
D11*
X91950000Y-84400000D03*
X99800000Y-82600000D03*
X107800000Y-84150000D03*
D12*
X89900000Y-89175000D03*
X89825000Y-93550000D03*
D13*
X91050000Y-105600000D03*
X91050000Y-101600000D03*
D14*
X111375000Y-102050000D03*
X84775000Y-90050000D03*
X91210000Y-108070000D03*
G04 #@! TA.AperFunction,SMDPad,CuDef*
G36*
G01*
X96100000Y-100575000D02*
X96600000Y-100575000D01*
G75*
G02*
X96825000Y-100800000I0J-225000D01*
G01*
X96825000Y-101250000D01*
G75*
G02*
X96600000Y-101475000I-225000J0D01*
G01*
X96100000Y-101475000D01*
G75*
G02*
X95875000Y-101250000I0J225000D01*
G01*
X95875000Y-100800000D01*
G75*
G02*
X96100000Y-100575000I225000J0D01*
G01*
G37*
G04 #@! TD.AperFunction*
G04 #@! TA.AperFunction,SMDPad,CuDef*
G36*
G01*
X96100000Y-102125000D02*
X96600000Y-102125000D01*
G75*
G02*
X96825000Y-102350000I0J-225000D01*
G01*
X96825000Y-102800000D01*
G75*
G02*
X96600000Y-103025000I-225000J0D01*
G01*
X96100000Y-103025000D01*
G75*
G02*
X95875000Y-102800000I0J225000D01*
G01*
X95875000Y-102350000D01*
G75*
G02*
X96100000Y-102125000I225000J0D01*
G01*
G37*
G04 #@! TD.AperFunction*
G04 #@! TA.AperFunction,SMDPad,CuDef*
G36*
G01*
X97770000Y-103500000D02*
X97430000Y-103500000D01*
G75*
G02*
X97290000Y-103360000I0J140000D01*
G01*
X97290000Y-103080000D01*
G75*
G02*
X97430000Y-102940000I140000J0D01*
G01*
X97770000Y-102940000D01*
G75*
G02*
X97910000Y-103080000I0J-140000D01*
G01*
X97910000Y-103360000D01*
G75*
G02*
X97770000Y-103500000I-140000J0D01*
G01*
G37*
G04 #@! TD.AperFunction*
G04 #@! TA.AperFunction,SMDPad,CuDef*
G36*
G01*
X97770000Y-102540000D02*
X97430000Y-102540000D01*
G75*
G02*
X97290000Y-102400000I0J140000D01*
G01*
X97290000Y-102120000D01*
G75*
G02*
X97430000Y-101980000I140000J0D01*
G01*
X97770000Y-101980000D01*
G75*
G02*
X97910000Y-102120000I0J-140000D01*
G01*
X97910000Y-102400000D01*
G75*
G02*
X97770000Y-102540000I-140000J0D01*
G01*
G37*
G04 #@! TD.AperFunction*
G04 #@! TA.AperFunction,SMDPad,CuDef*
G36*
G01*
X110600000Y-95975000D02*
X110600000Y-96925000D01*
G75*
G02*
X110350000Y-97175000I-250000J0D01*
G01*
X109850000Y-97175000D01*
G75*
G02*
X109600000Y-96925000I0J250000D01*
G01*
X109600000Y-95975000D01*
G75*
G02*
X109850000Y-95725000I250000J0D01*
G01*
X110350000Y-95725000D01*
G75*
G02*
X110600000Y-95975000I0J-250000D01*
G01*
G37*
G04 #@! TD.AperFunction*
G04 #@! TA.AperFunction,SMDPad,CuDef*
G36*
G01*
X112500000Y-95975000D02*
X112500000Y-96925000D01*
G75*
G02*
X112250000Y-97175000I-250000J0D01*
G01*
X111750000Y-97175000D01*
G75*
G02*
X111500000Y-96925000I0J250000D01*
G01*
X111500000Y-95975000D01*
G75*
G02*
X111750000Y-95725000I250000J0D01*
G01*
X112250000Y-95725000D01*
G75*
G02*
X112500000Y-95975000I0J-250000D01*
G01*
G37*
G04 #@! TD.AperFunction*
G04 #@! TA.AperFunction,SMDPad,CuDef*
G36*
G01*
X112275000Y-98800000D02*
X112275000Y-99300000D01*
G75*
G02*
X112050000Y-99525000I-225000J0D01*
G01*
X111600000Y-99525000D01*
G75*
G02*
X111375000Y-99300000I0J225000D01*
G01*
X111375000Y-98800000D01*
G75*
G02*
X111600000Y-98575000I225000J0D01*
G01*
X112050000Y-98575000D01*
G75*
G02*
X112275000Y-98800000I0J-225000D01*
G01*
G37*
G04 #@! TD.AperFunction*
G04 #@! TA.AperFunction,SMDPad,CuDef*
G36*
G01*
X110725000Y-98800000D02*
X110725000Y-99300000D01*
G75*
G02*
X110500000Y-99525000I-225000J0D01*
G01*
X110050000Y-99525000D01*
G75*
G02*
X109825000Y-99300000I0J225000D01*
G01*
X109825000Y-98800000D01*
G75*
G02*
X110050000Y-98575000I225000J0D01*
G01*
X110500000Y-98575000D01*
G75*
G02*
X110725000Y-98800000I0J-225000D01*
G01*
G37*
G04 #@! TD.AperFunction*
G04 #@! TA.AperFunction,SMDPad,CuDef*
G36*
G01*
X94580000Y-102125000D02*
X95080000Y-102125000D01*
G75*
G02*
X95305000Y-102350000I0J-225000D01*
G01*
X95305000Y-102800000D01*
G75*
G02*
X95080000Y-103025000I-225000J0D01*
G01*
X94580000Y-103025000D01*
G75*
G02*
X94355000Y-102800000I0J225000D01*
G01*
X94355000Y-102350000D01*
G75*
G02*
X94580000Y-102125000I225000J0D01*
G01*
G37*
G04 #@! TD.AperFunction*
G04 #@! TA.AperFunction,SMDPad,CuDef*
G36*
G01*
X94580000Y-100575000D02*
X95080000Y-100575000D01*
G75*
G02*
X95305000Y-100800000I0J-225000D01*
G01*
X95305000Y-101250000D01*
G75*
G02*
X95080000Y-101475000I-225000J0D01*
G01*
X94580000Y-101475000D01*
G75*
G02*
X94355000Y-101250000I0J225000D01*
G01*
X94355000Y-100800000D01*
G75*
G02*
X94580000Y-100575000I225000J0D01*
G01*
G37*
G04 #@! TD.AperFunction*
G04 #@! TA.AperFunction,SMDPad,CuDef*
G36*
G01*
X103650000Y-110555000D02*
X103650000Y-110895000D01*
G75*
G02*
X103510000Y-111035000I-140000J0D01*
G01*
X103230000Y-111035000D01*
G75*
G02*
X103090000Y-110895000I0J140000D01*
G01*
X103090000Y-110555000D01*
G75*
G02*
X103230000Y-110415000I140000J0D01*
G01*
X103510000Y-110415000D01*
G75*
G02*
X103650000Y-110555000I0J-140000D01*
G01*
G37*
G04 #@! TD.AperFunction*
G04 #@! TA.AperFunction,SMDPad,CuDef*
G36*
G01*
X104610000Y-110555000D02*
X104610000Y-110895000D01*
G75*
G02*
X104470000Y-111035000I-140000J0D01*
G01*
X104190000Y-111035000D01*
G75*
G02*
X104050000Y-110895000I0J140000D01*
G01*
X104050000Y-110555000D01*
G75*
G02*
X104190000Y-110415000I140000J0D01*
G01*
X104470000Y-110415000D01*
G75*
G02*
X104610000Y-110555000I0J-140000D01*
G01*
G37*
G04 #@! TD.AperFunction*
G04 #@! TA.AperFunction,SMDPad,CuDef*
G36*
G01*
X107870000Y-112040000D02*
X107870000Y-111700000D01*
G75*
G02*
X108010000Y-111560000I140000J0D01*
G01*
X108290000Y-111560000D01*
G75*
G02*
X108430000Y-111700000I0J-140000D01*
G01*
X108430000Y-112040000D01*
G75*
G02*
X108290000Y-112180000I-140000J0D01*
G01*
X108010000Y-112180000D01*
G75*
G02*
X107870000Y-112040000I0J140000D01*
G01*
G37*
G04 #@! TD.AperFunction*
G04 #@! TA.AperFunction,SMDPad,CuDef*
G36*
G01*
X108830000Y-112040000D02*
X108830000Y-111700000D01*
G75*
G02*
X108970000Y-111560000I140000J0D01*
G01*
X109250000Y-111560000D01*
G75*
G02*
X109390000Y-111700000I0J-140000D01*
G01*
X109390000Y-112040000D01*
G75*
G02*
X109250000Y-112180000I-140000J0D01*
G01*
X108970000Y-112180000D01*
G75*
G02*
X108830000Y-112040000I0J140000D01*
G01*
G37*
G04 #@! TD.AperFunction*
G04 #@! TA.AperFunction,SMDPad,CuDef*
G36*
G01*
X91140000Y-112090000D02*
X90800000Y-112090000D01*
G75*
G02*
X90660000Y-111950000I0J140000D01*
G01*
X90660000Y-111670000D01*
G75*
G02*
X90800000Y-111530000I140000J0D01*
G01*
X91140000Y-111530000D01*
G75*
G02*
X91280000Y-111670000I0J-140000D01*
G01*
X91280000Y-111950000D01*
G75*
G02*
X91140000Y-112090000I-140000J0D01*
G01*
G37*
G04 #@! TD.AperFunction*
G04 #@! TA.AperFunction,SMDPad,CuDef*
G36*
G01*
X91140000Y-111130000D02*
X90800000Y-111130000D01*
G75*
G02*
X90660000Y-110990000I0J140000D01*
G01*
X90660000Y-110710000D01*
G75*
G02*
X90800000Y-110570000I140000J0D01*
G01*
X91140000Y-110570000D01*
G75*
G02*
X91280000Y-110710000I0J-140000D01*
G01*
X91280000Y-110990000D01*
G75*
G02*
X91140000Y-111130000I-140000J0D01*
G01*
G37*
G04 #@! TD.AperFunction*
G04 #@! TA.AperFunction,SMDPad,CuDef*
G36*
G01*
X98250000Y-101070000D02*
X98250000Y-100730000D01*
G75*
G02*
X98390000Y-100590000I140000J0D01*
G01*
X98670000Y-100590000D01*
G75*
G02*
X98810000Y-100730000I0J-140000D01*
G01*
X98810000Y-101070000D01*
G75*
G02*
X98670000Y-101210000I-140000J0D01*
G01*
X98390000Y-101210000D01*
G75*
G02*
X98250000Y-101070000I0J140000D01*
G01*
G37*
G04 #@! TD.AperFunction*
G04 #@! TA.AperFunction,SMDPad,CuDef*
G36*
G01*
X97290000Y-101070000D02*
X97290000Y-100730000D01*
G75*
G02*
X97430000Y-100590000I140000J0D01*
G01*
X97710000Y-100590000D01*
G75*
G02*
X97850000Y-100730000I0J-140000D01*
G01*
X97850000Y-101070000D01*
G75*
G02*
X97710000Y-101210000I-140000J0D01*
G01*
X97430000Y-101210000D01*
G75*
G02*
X97290000Y-101070000I0J140000D01*
G01*
G37*
G04 #@! TD.AperFunction*
G04 #@! TA.AperFunction,SMDPad,CuDef*
G36*
G01*
X107640000Y-88020000D02*
X107640000Y-87680000D01*
G75*
G02*
X107780000Y-87540000I140000J0D01*
G01*
X108060000Y-87540000D01*
G75*
G02*
X108200000Y-87680000I0J-140000D01*
G01*
X108200000Y-88020000D01*
G75*
G02*
X108060000Y-88160000I-140000J0D01*
G01*
X107780000Y-88160000D01*
G75*
G02*
X107640000Y-88020000I0J140000D01*
G01*
G37*
G04 #@! TD.AperFunction*
G04 #@! TA.AperFunction,SMDPad,CuDef*
G36*
G01*
X108600000Y-88020000D02*
X108600000Y-87680000D01*
G75*
G02*
X108740000Y-87540000I140000J0D01*
G01*
X109020000Y-87540000D01*
G75*
G02*
X109160000Y-87680000I0J-140000D01*
G01*
X109160000Y-88020000D01*
G75*
G02*
X109020000Y-88160000I-140000J0D01*
G01*
X108740000Y-88160000D01*
G75*
G02*
X108600000Y-88020000I0J140000D01*
G01*
G37*
G04 #@! TD.AperFunction*
G04 #@! TA.AperFunction,SMDPad,CuDef*
G36*
G01*
X101800000Y-88020000D02*
X101800000Y-87680000D01*
G75*
G02*
X101940000Y-87540000I140000J0D01*
G01*
X102220000Y-87540000D01*
G75*
G02*
X102360000Y-87680000I0J-140000D01*
G01*
X102360000Y-88020000D01*
G75*
G02*
X102220000Y-88160000I-140000J0D01*
G01*
X101940000Y-88160000D01*
G75*
G02*
X101800000Y-88020000I0J140000D01*
G01*
G37*
G04 #@! TD.AperFunction*
G04 #@! TA.AperFunction,SMDPad,CuDef*
G36*
G01*
X100840000Y-88020000D02*
X100840000Y-87680000D01*
G75*
G02*
X100980000Y-87540000I140000J0D01*
G01*
X101260000Y-87540000D01*
G75*
G02*
X101400000Y-87680000I0J-140000D01*
G01*
X101400000Y-88020000D01*
G75*
G02*
X101260000Y-88160000I-140000J0D01*
G01*
X100980000Y-88160000D01*
G75*
G02*
X100840000Y-88020000I0J140000D01*
G01*
G37*
G04 #@! TD.AperFunction*
G04 #@! TA.AperFunction,SMDPad,CuDef*
G36*
G01*
X94950000Y-88070000D02*
X94950000Y-87730000D01*
G75*
G02*
X95090000Y-87590000I140000J0D01*
G01*
X95370000Y-87590000D01*
G75*
G02*
X95510000Y-87730000I0J-140000D01*
G01*
X95510000Y-88070000D01*
G75*
G02*
X95370000Y-88210000I-140000J0D01*
G01*
X95090000Y-88210000D01*
G75*
G02*
X94950000Y-88070000I0J140000D01*
G01*
G37*
G04 #@! TD.AperFunction*
G04 #@! TA.AperFunction,SMDPad,CuDef*
G36*
G01*
X93990000Y-88070000D02*
X93990000Y-87730000D01*
G75*
G02*
X94130000Y-87590000I140000J0D01*
G01*
X94410000Y-87590000D01*
G75*
G02*
X94550000Y-87730000I0J-140000D01*
G01*
X94550000Y-88070000D01*
G75*
G02*
X94410000Y-88210000I-140000J0D01*
G01*
X94130000Y-88210000D01*
G75*
G02*
X93990000Y-88070000I0J140000D01*
G01*
G37*
G04 #@! TD.AperFunction*
G04 #@! TA.AperFunction,SMDPad,CuDef*
G36*
G01*
X96975000Y-107900000D02*
X96975000Y-107400000D01*
G75*
G02*
X97200000Y-107175000I225000J0D01*
G01*
X97650000Y-107175000D01*
G75*
G02*
X97875000Y-107400000I0J-225000D01*
G01*
X97875000Y-107900000D01*
G75*
G02*
X97650000Y-108125000I-225000J0D01*
G01*
X97200000Y-108125000D01*
G75*
G02*
X96975000Y-107900000I0J225000D01*
G01*
G37*
G04 #@! TD.AperFunction*
G04 #@! TA.AperFunction,SMDPad,CuDef*
G36*
G01*
X95425000Y-107900000D02*
X95425000Y-107400000D01*
G75*
G02*
X95650000Y-107175000I225000J0D01*
G01*
X96100000Y-107175000D01*
G75*
G02*
X96325000Y-107400000I0J-225000D01*
G01*
X96325000Y-107900000D01*
G75*
G02*
X96100000Y-108125000I-225000J0D01*
G01*
X95650000Y-108125000D01*
G75*
G02*
X95425000Y-107900000I0J225000D01*
G01*
G37*
G04 #@! TD.AperFunction*
G04 #@! TA.AperFunction,SMDPad,CuDef*
G36*
G01*
X107870000Y-110980000D02*
X107870000Y-110640000D01*
G75*
G02*
X108010000Y-110500000I140000J0D01*
G01*
X108290000Y-110500000D01*
G75*
G02*
X108430000Y-110640000I0J-140000D01*
G01*
X108430000Y-110980000D01*
G75*
G02*
X108290000Y-111120000I-140000J0D01*
G01*
X108010000Y-111120000D01*
G75*
G02*
X107870000Y-110980000I0J140000D01*
G01*
G37*
G04 #@! TD.AperFunction*
G04 #@! TA.AperFunction,SMDPad,CuDef*
G36*
G01*
X108830000Y-110980000D02*
X108830000Y-110640000D01*
G75*
G02*
X108970000Y-110500000I140000J0D01*
G01*
X109250000Y-110500000D01*
G75*
G02*
X109390000Y-110640000I0J-140000D01*
G01*
X109390000Y-110980000D01*
G75*
G02*
X109250000Y-111120000I-140000J0D01*
G01*
X108970000Y-111120000D01*
G75*
G02*
X108830000Y-110980000I0J140000D01*
G01*
G37*
G04 #@! TD.AperFunction*
G04 #@! TA.AperFunction,SMDPad,CuDef*
G36*
G01*
X104650000Y-109225000D02*
X104650000Y-109725000D01*
G75*
G02*
X104425000Y-109950000I-225000J0D01*
G01*
X103975000Y-109950000D01*
G75*
G02*
X103750000Y-109725000I0J225000D01*
G01*
X103750000Y-109225000D01*
G75*
G02*
X103975000Y-109000000I225000J0D01*
G01*
X104425000Y-109000000D01*
G75*
G02*
X104650000Y-109225000I0J-225000D01*
G01*
G37*
G04 #@! TD.AperFunction*
G04 #@! TA.AperFunction,SMDPad,CuDef*
G36*
G01*
X103100000Y-109225000D02*
X103100000Y-109725000D01*
G75*
G02*
X102875000Y-109950000I-225000J0D01*
G01*
X102425000Y-109950000D01*
G75*
G02*
X102200000Y-109725000I0J225000D01*
G01*
X102200000Y-109225000D01*
G75*
G02*
X102425000Y-109000000I225000J0D01*
G01*
X102875000Y-109000000D01*
G75*
G02*
X103100000Y-109225000I0J-225000D01*
G01*
G37*
G04 #@! TD.AperFunction*
G04 #@! TA.AperFunction,SMDPad,CuDef*
G36*
G01*
X99470000Y-113335000D02*
X99130000Y-113335000D01*
G75*
G02*
X98990000Y-113195000I0J140000D01*
G01*
X98990000Y-112915000D01*
G75*
G02*
X99130000Y-112775000I140000J0D01*
G01*
X99470000Y-112775000D01*
G75*
G02*
X99610000Y-112915000I0J-140000D01*
G01*
X99610000Y-113195000D01*
G75*
G02*
X99470000Y-113335000I-140000J0D01*
G01*
G37*
G04 #@! TD.AperFunction*
G04 #@! TA.AperFunction,SMDPad,CuDef*
G36*
G01*
X99470000Y-112375000D02*
X99130000Y-112375000D01*
G75*
G02*
X98990000Y-112235000I0J140000D01*
G01*
X98990000Y-111955000D01*
G75*
G02*
X99130000Y-111815000I140000J0D01*
G01*
X99470000Y-111815000D01*
G75*
G02*
X99610000Y-111955000I0J-140000D01*
G01*
X99610000Y-112235000D01*
G75*
G02*
X99470000Y-112375000I-140000J0D01*
G01*
G37*
G04 #@! TD.AperFunction*
G04 #@! TA.AperFunction,SMDPad,CuDef*
G36*
G01*
X101125000Y-101475000D02*
X101125000Y-101975000D01*
G75*
G02*
X100900000Y-102200000I-225000J0D01*
G01*
X100450000Y-102200000D01*
G75*
G02*
X100225000Y-101975000I0J225000D01*
G01*
X100225000Y-101475000D01*
G75*
G02*
X100450000Y-101250000I225000J0D01*
G01*
X100900000Y-101250000D01*
G75*
G02*
X101125000Y-101475000I0J-225000D01*
G01*
G37*
G04 #@! TD.AperFunction*
G04 #@! TA.AperFunction,SMDPad,CuDef*
G36*
G01*
X102675000Y-101475000D02*
X102675000Y-101975000D01*
G75*
G02*
X102450000Y-102200000I-225000J0D01*
G01*
X102000000Y-102200000D01*
G75*
G02*
X101775000Y-101975000I0J225000D01*
G01*
X101775000Y-101475000D01*
G75*
G02*
X102000000Y-101250000I225000J0D01*
G01*
X102450000Y-101250000D01*
G75*
G02*
X102675000Y-101475000I0J-225000D01*
G01*
G37*
G04 #@! TD.AperFunction*
G04 #@! TA.AperFunction,SMDPad,CuDef*
G36*
G01*
X86155000Y-109630000D02*
X86155000Y-109130000D01*
G75*
G02*
X86380000Y-108905000I225000J0D01*
G01*
X86830000Y-108905000D01*
G75*
G02*
X87055000Y-109130000I0J-225000D01*
G01*
X87055000Y-109630000D01*
G75*
G02*
X86830000Y-109855000I-225000J0D01*
G01*
X86380000Y-109855000D01*
G75*
G02*
X86155000Y-109630000I0J225000D01*
G01*
G37*
G04 #@! TD.AperFunction*
G04 #@! TA.AperFunction,SMDPad,CuDef*
G36*
G01*
X87705000Y-109630000D02*
X87705000Y-109130000D01*
G75*
G02*
X87930000Y-108905000I225000J0D01*
G01*
X88380000Y-108905000D01*
G75*
G02*
X88605000Y-109130000I0J-225000D01*
G01*
X88605000Y-109630000D01*
G75*
G02*
X88380000Y-109855000I-225000J0D01*
G01*
X87930000Y-109855000D01*
G75*
G02*
X87705000Y-109630000I0J225000D01*
G01*
G37*
G04 #@! TD.AperFunction*
G04 #@! TA.AperFunction,SMDPad,CuDef*
G36*
G01*
X100445000Y-113335000D02*
X100105000Y-113335000D01*
G75*
G02*
X99965000Y-113195000I0J140000D01*
G01*
X99965000Y-112915000D01*
G75*
G02*
X100105000Y-112775000I140000J0D01*
G01*
X100445000Y-112775000D01*
G75*
G02*
X100585000Y-112915000I0J-140000D01*
G01*
X100585000Y-113195000D01*
G75*
G02*
X100445000Y-113335000I-140000J0D01*
G01*
G37*
G04 #@! TD.AperFunction*
G04 #@! TA.AperFunction,SMDPad,CuDef*
G36*
G01*
X100445000Y-112375000D02*
X100105000Y-112375000D01*
G75*
G02*
X99965000Y-112235000I0J140000D01*
G01*
X99965000Y-111955000D01*
G75*
G02*
X100105000Y-111815000I140000J0D01*
G01*
X100445000Y-111815000D01*
G75*
G02*
X100585000Y-111955000I0J-140000D01*
G01*
X100585000Y-112235000D01*
G75*
G02*
X100445000Y-112375000I-140000J0D01*
G01*
G37*
G04 #@! TD.AperFunction*
G04 #@! TA.AperFunction,SMDPad,CuDef*
G36*
G01*
X89020000Y-104600000D02*
X88680000Y-104600000D01*
G75*
G02*
X88540000Y-104460000I0J140000D01*
G01*
X88540000Y-104180000D01*
G75*
G02*
X88680000Y-104040000I140000J0D01*
G01*
X89020000Y-104040000D01*
G75*
G02*
X89160000Y-104180000I0J-140000D01*
G01*
X89160000Y-104460000D01*
G75*
G02*
X89020000Y-104600000I-140000J0D01*
G01*
G37*
G04 #@! TD.AperFunction*
G04 #@! TA.AperFunction,SMDPad,CuDef*
G36*
G01*
X89020000Y-105560000D02*
X88680000Y-105560000D01*
G75*
G02*
X88540000Y-105420000I0J140000D01*
G01*
X88540000Y-105140000D01*
G75*
G02*
X88680000Y-105000000I140000J0D01*
G01*
X89020000Y-105000000D01*
G75*
G02*
X89160000Y-105140000I0J-140000D01*
G01*
X89160000Y-105420000D01*
G75*
G02*
X89020000Y-105560000I-140000J0D01*
G01*
G37*
G04 #@! TD.AperFunction*
G04 #@! TA.AperFunction,SMDPad,CuDef*
G36*
G01*
X92780000Y-97915000D02*
X93120000Y-97915000D01*
G75*
G02*
X93260000Y-98055000I0J-140000D01*
G01*
X93260000Y-98335000D01*
G75*
G02*
X93120000Y-98475000I-140000J0D01*
G01*
X92780000Y-98475000D01*
G75*
G02*
X92640000Y-98335000I0J140000D01*
G01*
X92640000Y-98055000D01*
G75*
G02*
X92780000Y-97915000I140000J0D01*
G01*
G37*
G04 #@! TD.AperFunction*
G04 #@! TA.AperFunction,SMDPad,CuDef*
G36*
G01*
X92780000Y-98875000D02*
X93120000Y-98875000D01*
G75*
G02*
X93260000Y-99015000I0J-140000D01*
G01*
X93260000Y-99295000D01*
G75*
G02*
X93120000Y-99435000I-140000J0D01*
G01*
X92780000Y-99435000D01*
G75*
G02*
X92640000Y-99295000I0J140000D01*
G01*
X92640000Y-99015000D01*
G75*
G02*
X92780000Y-98875000I140000J0D01*
G01*
G37*
G04 #@! TD.AperFunction*
G04 #@! TA.AperFunction,SMDPad,CuDef*
G36*
G01*
X89430000Y-110695000D02*
X89930000Y-110695000D01*
G75*
G02*
X90155000Y-110920000I0J-225000D01*
G01*
X90155000Y-111370000D01*
G75*
G02*
X89930000Y-111595000I-225000J0D01*
G01*
X89430000Y-111595000D01*
G75*
G02*
X89205000Y-111370000I0J225000D01*
G01*
X89205000Y-110920000D01*
G75*
G02*
X89430000Y-110695000I225000J0D01*
G01*
G37*
G04 #@! TD.AperFunction*
G04 #@! TA.AperFunction,SMDPad,CuDef*
G36*
G01*
X89430000Y-109145000D02*
X89930000Y-109145000D01*
G75*
G02*
X90155000Y-109370000I0J-225000D01*
G01*
X90155000Y-109820000D01*
G75*
G02*
X89930000Y-110045000I-225000J0D01*
G01*
X89430000Y-110045000D01*
G75*
G02*
X89205000Y-109820000I0J225000D01*
G01*
X89205000Y-109370000D01*
G75*
G02*
X89430000Y-109145000I225000J0D01*
G01*
G37*
G04 #@! TD.AperFunction*
G04 #@! TA.AperFunction,SMDPad,CuDef*
G36*
G01*
X87830000Y-104635000D02*
X87330000Y-104635000D01*
G75*
G02*
X87105000Y-104410000I0J225000D01*
G01*
X87105000Y-103960000D01*
G75*
G02*
X87330000Y-103735000I225000J0D01*
G01*
X87830000Y-103735000D01*
G75*
G02*
X88055000Y-103960000I0J-225000D01*
G01*
X88055000Y-104410000D01*
G75*
G02*
X87830000Y-104635000I-225000J0D01*
G01*
G37*
G04 #@! TD.AperFunction*
G04 #@! TA.AperFunction,SMDPad,CuDef*
G36*
G01*
X87830000Y-106185000D02*
X87330000Y-106185000D01*
G75*
G02*
X87105000Y-105960000I0J225000D01*
G01*
X87105000Y-105510000D01*
G75*
G02*
X87330000Y-105285000I225000J0D01*
G01*
X87830000Y-105285000D01*
G75*
G02*
X88055000Y-105510000I0J-225000D01*
G01*
X88055000Y-105960000D01*
G75*
G02*
X87830000Y-106185000I-225000J0D01*
G01*
G37*
G04 #@! TD.AperFunction*
G04 #@! TA.AperFunction,SMDPad,CuDef*
G36*
G01*
X101420000Y-112375000D02*
X101080000Y-112375000D01*
G75*
G02*
X100940000Y-112235000I0J140000D01*
G01*
X100940000Y-111955000D01*
G75*
G02*
X101080000Y-111815000I140000J0D01*
G01*
X101420000Y-111815000D01*
G75*
G02*
X101560000Y-111955000I0J-140000D01*
G01*
X101560000Y-112235000D01*
G75*
G02*
X101420000Y-112375000I-140000J0D01*
G01*
G37*
G04 #@! TD.AperFunction*
G04 #@! TA.AperFunction,SMDPad,CuDef*
G36*
G01*
X101420000Y-113335000D02*
X101080000Y-113335000D01*
G75*
G02*
X100940000Y-113195000I0J140000D01*
G01*
X100940000Y-112915000D01*
G75*
G02*
X101080000Y-112775000I140000J0D01*
G01*
X101420000Y-112775000D01*
G75*
G02*
X101560000Y-112915000I0J-140000D01*
G01*
X101560000Y-113195000D01*
G75*
G02*
X101420000Y-113335000I-140000J0D01*
G01*
G37*
G04 #@! TD.AperFunction*
G04 #@! TA.AperFunction,SMDPad,CuDef*
G36*
G01*
X103460000Y-111530000D02*
X103460000Y-111870000D01*
G75*
G02*
X103320000Y-112010000I-140000J0D01*
G01*
X103040000Y-112010000D01*
G75*
G02*
X102900000Y-111870000I0J140000D01*
G01*
X102900000Y-111530000D01*
G75*
G02*
X103040000Y-111390000I140000J0D01*
G01*
X103320000Y-111390000D01*
G75*
G02*
X103460000Y-111530000I0J-140000D01*
G01*
G37*
G04 #@! TD.AperFunction*
G04 #@! TA.AperFunction,SMDPad,CuDef*
G36*
G01*
X102500000Y-111530000D02*
X102500000Y-111870000D01*
G75*
G02*
X102360000Y-112010000I-140000J0D01*
G01*
X102080000Y-112010000D01*
G75*
G02*
X101940000Y-111870000I0J140000D01*
G01*
X101940000Y-111530000D01*
G75*
G02*
X102080000Y-111390000I140000J0D01*
G01*
X102360000Y-111390000D01*
G75*
G02*
X102500000Y-111530000I0J-140000D01*
G01*
G37*
G04 #@! TD.AperFunction*
G04 #@! TA.AperFunction,SMDPad,CuDef*
G36*
G01*
X98495000Y-113335000D02*
X98155000Y-113335000D01*
G75*
G02*
X98015000Y-113195000I0J140000D01*
G01*
X98015000Y-112915000D01*
G75*
G02*
X98155000Y-112775000I140000J0D01*
G01*
X98495000Y-112775000D01*
G75*
G02*
X98635000Y-112915000I0J-140000D01*
G01*
X98635000Y-113195000D01*
G75*
G02*
X98495000Y-113335000I-140000J0D01*
G01*
G37*
G04 #@! TD.AperFunction*
G04 #@! TA.AperFunction,SMDPad,CuDef*
G36*
G01*
X98495000Y-112375000D02*
X98155000Y-112375000D01*
G75*
G02*
X98015000Y-112235000I0J140000D01*
G01*
X98015000Y-111955000D01*
G75*
G02*
X98155000Y-111815000I140000J0D01*
G01*
X98495000Y-111815000D01*
G75*
G02*
X98635000Y-111955000I0J-140000D01*
G01*
X98635000Y-112235000D01*
G75*
G02*
X98495000Y-112375000I-140000J0D01*
G01*
G37*
G04 #@! TD.AperFunction*
G04 #@! TA.AperFunction,SMDPad,CuDef*
G36*
G01*
X103460000Y-112505000D02*
X103460000Y-112845000D01*
G75*
G02*
X103320000Y-112985000I-140000J0D01*
G01*
X103040000Y-112985000D01*
G75*
G02*
X102900000Y-112845000I0J140000D01*
G01*
X102900000Y-112505000D01*
G75*
G02*
X103040000Y-112365000I140000J0D01*
G01*
X103320000Y-112365000D01*
G75*
G02*
X103460000Y-112505000I0J-140000D01*
G01*
G37*
G04 #@! TD.AperFunction*
G04 #@! TA.AperFunction,SMDPad,CuDef*
G36*
G01*
X102500000Y-112505000D02*
X102500000Y-112845000D01*
G75*
G02*
X102360000Y-112985000I-140000J0D01*
G01*
X102080000Y-112985000D01*
G75*
G02*
X101940000Y-112845000I0J140000D01*
G01*
X101940000Y-112505000D01*
G75*
G02*
X102080000Y-112365000I140000J0D01*
G01*
X102360000Y-112365000D01*
G75*
G02*
X102500000Y-112505000I0J-140000D01*
G01*
G37*
G04 #@! TD.AperFunction*
G04 #@! TA.AperFunction,SMDPad,CuDef*
G36*
G01*
X103625000Y-108055000D02*
X103625000Y-108395000D01*
G75*
G02*
X103485000Y-108535000I-140000J0D01*
G01*
X103205000Y-108535000D01*
G75*
G02*
X103065000Y-108395000I0J140000D01*
G01*
X103065000Y-108055000D01*
G75*
G02*
X103205000Y-107915000I140000J0D01*
G01*
X103485000Y-107915000D01*
G75*
G02*
X103625000Y-108055000I0J-140000D01*
G01*
G37*
G04 #@! TD.AperFunction*
G04 #@! TA.AperFunction,SMDPad,CuDef*
G36*
G01*
X104585000Y-108055000D02*
X104585000Y-108395000D01*
G75*
G02*
X104445000Y-108535000I-140000J0D01*
G01*
X104165000Y-108535000D01*
G75*
G02*
X104025000Y-108395000I0J140000D01*
G01*
X104025000Y-108055000D01*
G75*
G02*
X104165000Y-107915000I140000J0D01*
G01*
X104445000Y-107915000D01*
G75*
G02*
X104585000Y-108055000I0J-140000D01*
G01*
G37*
G04 #@! TD.AperFunction*
G04 #@! TA.AperFunction,SMDPad,CuDef*
G36*
G01*
X97495000Y-113985000D02*
X97155000Y-113985000D01*
G75*
G02*
X97015000Y-113845000I0J140000D01*
G01*
X97015000Y-113565000D01*
G75*
G02*
X97155000Y-113425000I140000J0D01*
G01*
X97495000Y-113425000D01*
G75*
G02*
X97635000Y-113565000I0J-140000D01*
G01*
X97635000Y-113845000D01*
G75*
G02*
X97495000Y-113985000I-140000J0D01*
G01*
G37*
G04 #@! TD.AperFunction*
G04 #@! TA.AperFunction,SMDPad,CuDef*
G36*
G01*
X97495000Y-113025000D02*
X97155000Y-113025000D01*
G75*
G02*
X97015000Y-112885000I0J140000D01*
G01*
X97015000Y-112605000D01*
G75*
G02*
X97155000Y-112465000I140000J0D01*
G01*
X97495000Y-112465000D01*
G75*
G02*
X97635000Y-112605000I0J-140000D01*
G01*
X97635000Y-112885000D01*
G75*
G02*
X97495000Y-113025000I-140000J0D01*
G01*
G37*
G04 #@! TD.AperFunction*
G04 #@! TA.AperFunction,SMDPad,CuDef*
G36*
G01*
X110920000Y-111260000D02*
X110920000Y-110920000D01*
G75*
G02*
X111060000Y-110780000I140000J0D01*
G01*
X111340000Y-110780000D01*
G75*
G02*
X111480000Y-110920000I0J-140000D01*
G01*
X111480000Y-111260000D01*
G75*
G02*
X111340000Y-111400000I-140000J0D01*
G01*
X111060000Y-111400000D01*
G75*
G02*
X110920000Y-111260000I0J140000D01*
G01*
G37*
G04 #@! TD.AperFunction*
G04 #@! TA.AperFunction,SMDPad,CuDef*
G36*
G01*
X111880000Y-111260000D02*
X111880000Y-110920000D01*
G75*
G02*
X112020000Y-110780000I140000J0D01*
G01*
X112300000Y-110780000D01*
G75*
G02*
X112440000Y-110920000I0J-140000D01*
G01*
X112440000Y-111260000D01*
G75*
G02*
X112300000Y-111400000I-140000J0D01*
G01*
X112020000Y-111400000D01*
G75*
G02*
X111880000Y-111260000I0J140000D01*
G01*
G37*
G04 #@! TD.AperFunction*
G04 #@! TA.AperFunction,SMDPad,CuDef*
G36*
G01*
X94010000Y-103630000D02*
X94010000Y-103970000D01*
G75*
G02*
X93870000Y-104110000I-140000J0D01*
G01*
X93590000Y-104110000D01*
G75*
G02*
X93450000Y-103970000I0J140000D01*
G01*
X93450000Y-103630000D01*
G75*
G02*
X93590000Y-103490000I140000J0D01*
G01*
X93870000Y-103490000D01*
G75*
G02*
X94010000Y-103630000I0J-140000D01*
G01*
G37*
G04 #@! TD.AperFunction*
G04 #@! TA.AperFunction,SMDPad,CuDef*
G36*
G01*
X94970000Y-103630000D02*
X94970000Y-103970000D01*
G75*
G02*
X94830000Y-104110000I-140000J0D01*
G01*
X94550000Y-104110000D01*
G75*
G02*
X94410000Y-103970000I0J140000D01*
G01*
X94410000Y-103630000D01*
G75*
G02*
X94550000Y-103490000I140000J0D01*
G01*
X94830000Y-103490000D01*
G75*
G02*
X94970000Y-103630000I0J-140000D01*
G01*
G37*
G04 #@! TD.AperFunction*
G04 #@! TA.AperFunction,SMDPad,CuDef*
G36*
G01*
X92870000Y-105060000D02*
X92530000Y-105060000D01*
G75*
G02*
X92390000Y-104920000I0J140000D01*
G01*
X92390000Y-104640000D01*
G75*
G02*
X92530000Y-104500000I140000J0D01*
G01*
X92870000Y-104500000D01*
G75*
G02*
X93010000Y-104640000I0J-140000D01*
G01*
X93010000Y-104920000D01*
G75*
G02*
X92870000Y-105060000I-140000J0D01*
G01*
G37*
G04 #@! TD.AperFunction*
G04 #@! TA.AperFunction,SMDPad,CuDef*
G36*
G01*
X92870000Y-104100000D02*
X92530000Y-104100000D01*
G75*
G02*
X92390000Y-103960000I0J140000D01*
G01*
X92390000Y-103680000D01*
G75*
G02*
X92530000Y-103540000I140000J0D01*
G01*
X92870000Y-103540000D01*
G75*
G02*
X93010000Y-103680000I0J-140000D01*
G01*
X93010000Y-103960000D01*
G75*
G02*
X92870000Y-104100000I-140000J0D01*
G01*
G37*
G04 #@! TD.AperFunction*
G04 #@! TA.AperFunction,SMDPad,CuDef*
G36*
G01*
X101080000Y-106250000D02*
X101420000Y-106250000D01*
G75*
G02*
X101560000Y-106390000I0J-140000D01*
G01*
X101560000Y-106670000D01*
G75*
G02*
X101420000Y-106810000I-140000J0D01*
G01*
X101080000Y-106810000D01*
G75*
G02*
X100940000Y-106670000I0J140000D01*
G01*
X100940000Y-106390000D01*
G75*
G02*
X101080000Y-106250000I140000J0D01*
G01*
G37*
G04 #@! TD.AperFunction*
G04 #@! TA.AperFunction,SMDPad,CuDef*
G36*
G01*
X101080000Y-105290000D02*
X101420000Y-105290000D01*
G75*
G02*
X101560000Y-105430000I0J-140000D01*
G01*
X101560000Y-105710000D01*
G75*
G02*
X101420000Y-105850000I-140000J0D01*
G01*
X101080000Y-105850000D01*
G75*
G02*
X100940000Y-105710000I0J140000D01*
G01*
X100940000Y-105430000D01*
G75*
G02*
X101080000Y-105290000I140000J0D01*
G01*
G37*
G04 #@! TD.AperFunction*
G04 #@! TA.AperFunction,SMDPad,CuDef*
G36*
G01*
X96450000Y-109070000D02*
X96450000Y-108730000D01*
G75*
G02*
X96590000Y-108590000I140000J0D01*
G01*
X96870000Y-108590000D01*
G75*
G02*
X97010000Y-108730000I0J-140000D01*
G01*
X97010000Y-109070000D01*
G75*
G02*
X96870000Y-109210000I-140000J0D01*
G01*
X96590000Y-109210000D01*
G75*
G02*
X96450000Y-109070000I0J140000D01*
G01*
G37*
G04 #@! TD.AperFunction*
G04 #@! TA.AperFunction,SMDPad,CuDef*
G36*
G01*
X95490000Y-109070000D02*
X95490000Y-108730000D01*
G75*
G02*
X95630000Y-108590000I140000J0D01*
G01*
X95910000Y-108590000D01*
G75*
G02*
X96050000Y-108730000I0J-140000D01*
G01*
X96050000Y-109070000D01*
G75*
G02*
X95910000Y-109210000I-140000J0D01*
G01*
X95630000Y-109210000D01*
G75*
G02*
X95490000Y-109070000I0J140000D01*
G01*
G37*
G04 #@! TD.AperFunction*
G04 #@! TA.AperFunction,SMDPad,CuDef*
G36*
G01*
X102080000Y-106250000D02*
X102420000Y-106250000D01*
G75*
G02*
X102560000Y-106390000I0J-140000D01*
G01*
X102560000Y-106670000D01*
G75*
G02*
X102420000Y-106810000I-140000J0D01*
G01*
X102080000Y-106810000D01*
G75*
G02*
X101940000Y-106670000I0J140000D01*
G01*
X101940000Y-106390000D01*
G75*
G02*
X102080000Y-106250000I140000J0D01*
G01*
G37*
G04 #@! TD.AperFunction*
G04 #@! TA.AperFunction,SMDPad,CuDef*
G36*
G01*
X102080000Y-105290000D02*
X102420000Y-105290000D01*
G75*
G02*
X102560000Y-105430000I0J-140000D01*
G01*
X102560000Y-105710000D01*
G75*
G02*
X102420000Y-105850000I-140000J0D01*
G01*
X102080000Y-105850000D01*
G75*
G02*
X101940000Y-105710000I0J140000D01*
G01*
X101940000Y-105430000D01*
G75*
G02*
X102080000Y-105290000I140000J0D01*
G01*
G37*
G04 #@! TD.AperFunction*
G04 #@! TA.AperFunction,SMDPad,CuDef*
G36*
G01*
X95490000Y-106570000D02*
X95490000Y-106230000D01*
G75*
G02*
X95630000Y-106090000I140000J0D01*
G01*
X95910000Y-106090000D01*
G75*
G02*
X96050000Y-106230000I0J-140000D01*
G01*
X96050000Y-106570000D01*
G75*
G02*
X95910000Y-106710000I-140000J0D01*
G01*
X95630000Y-106710000D01*
G75*
G02*
X95490000Y-106570000I0J140000D01*
G01*
G37*
G04 #@! TD.AperFunction*
G04 #@! TA.AperFunction,SMDPad,CuDef*
G36*
G01*
X96450000Y-106570000D02*
X96450000Y-106230000D01*
G75*
G02*
X96590000Y-106090000I140000J0D01*
G01*
X96870000Y-106090000D01*
G75*
G02*
X97010000Y-106230000I0J-140000D01*
G01*
X97010000Y-106570000D01*
G75*
G02*
X96870000Y-106710000I-140000J0D01*
G01*
X96590000Y-106710000D01*
G75*
G02*
X96450000Y-106570000I0J140000D01*
G01*
G37*
G04 #@! TD.AperFunction*
G04 #@! TA.AperFunction,SMDPad,CuDef*
G36*
G01*
X99680000Y-106500000D02*
X100020000Y-106500000D01*
G75*
G02*
X100160000Y-106640000I0J-140000D01*
G01*
X100160000Y-106920000D01*
G75*
G02*
X100020000Y-107060000I-140000J0D01*
G01*
X99680000Y-107060000D01*
G75*
G02*
X99540000Y-106920000I0J140000D01*
G01*
X99540000Y-106640000D01*
G75*
G02*
X99680000Y-106500000I140000J0D01*
G01*
G37*
G04 #@! TD.AperFunction*
G04 #@! TA.AperFunction,SMDPad,CuDef*
G36*
G01*
X99680000Y-105540000D02*
X100020000Y-105540000D01*
G75*
G02*
X100160000Y-105680000I0J-140000D01*
G01*
X100160000Y-105960000D01*
G75*
G02*
X100020000Y-106100000I-140000J0D01*
G01*
X99680000Y-106100000D01*
G75*
G02*
X99540000Y-105960000I0J140000D01*
G01*
X99540000Y-105680000D01*
G75*
G02*
X99680000Y-105540000I140000J0D01*
G01*
G37*
G04 #@! TD.AperFunction*
G04 #@! TA.AperFunction,SMDPad,CuDef*
G36*
G01*
X85950000Y-102575000D02*
X85950000Y-103525000D01*
G75*
G02*
X85700000Y-103775000I-250000J0D01*
G01*
X85200000Y-103775000D01*
G75*
G02*
X84950000Y-103525000I0J250000D01*
G01*
X84950000Y-102575000D01*
G75*
G02*
X85200000Y-102325000I250000J0D01*
G01*
X85700000Y-102325000D01*
G75*
G02*
X85950000Y-102575000I0J-250000D01*
G01*
G37*
G04 #@! TD.AperFunction*
G04 #@! TA.AperFunction,SMDPad,CuDef*
G36*
G01*
X84050000Y-102575000D02*
X84050000Y-103525000D01*
G75*
G02*
X83800000Y-103775000I-250000J0D01*
G01*
X83300000Y-103775000D01*
G75*
G02*
X83050000Y-103525000I0J250000D01*
G01*
X83050000Y-102575000D01*
G75*
G02*
X83300000Y-102325000I250000J0D01*
G01*
X83800000Y-102325000D01*
G75*
G02*
X84050000Y-102575000I0J-250000D01*
G01*
G37*
G04 #@! TD.AperFunction*
G04 #@! TA.AperFunction,SMDPad,CuDef*
G36*
G01*
X85725000Y-104570000D02*
X85725000Y-105070000D01*
G75*
G02*
X85500000Y-105295000I-225000J0D01*
G01*
X85050000Y-105295000D01*
G75*
G02*
X84825000Y-105070000I0J225000D01*
G01*
X84825000Y-104570000D01*
G75*
G02*
X85050000Y-104345000I225000J0D01*
G01*
X85500000Y-104345000D01*
G75*
G02*
X85725000Y-104570000I0J-225000D01*
G01*
G37*
G04 #@! TD.AperFunction*
G04 #@! TA.AperFunction,SMDPad,CuDef*
G36*
G01*
X84175000Y-104570000D02*
X84175000Y-105070000D01*
G75*
G02*
X83950000Y-105295000I-225000J0D01*
G01*
X83500000Y-105295000D01*
G75*
G02*
X83275000Y-105070000I0J225000D01*
G01*
X83275000Y-104570000D01*
G75*
G02*
X83500000Y-104345000I225000J0D01*
G01*
X83950000Y-104345000D01*
G75*
G02*
X84175000Y-104570000I0J-225000D01*
G01*
G37*
G04 #@! TD.AperFunction*
G04 #@! TA.AperFunction,SMDPad,CuDef*
G36*
G01*
X116181250Y-91575000D02*
X115668750Y-91575000D01*
G75*
G02*
X115450000Y-91356250I0J218750D01*
G01*
X115450000Y-90918750D01*
G75*
G02*
X115668750Y-90700000I218750J0D01*
G01*
X116181250Y-90700000D01*
G75*
G02*
X116400000Y-90918750I0J-218750D01*
G01*
X116400000Y-91356250D01*
G75*
G02*
X116181250Y-91575000I-218750J0D01*
G01*
G37*
G04 #@! TD.AperFunction*
G04 #@! TA.AperFunction,SMDPad,CuDef*
G36*
G01*
X116181250Y-93150000D02*
X115668750Y-93150000D01*
G75*
G02*
X115450000Y-92931250I0J218750D01*
G01*
X115450000Y-92493750D01*
G75*
G02*
X115668750Y-92275000I218750J0D01*
G01*
X116181250Y-92275000D01*
G75*
G02*
X116400000Y-92493750I0J-218750D01*
G01*
X116400000Y-92931250D01*
G75*
G02*
X116181250Y-93150000I-218750J0D01*
G01*
G37*
G04 #@! TD.AperFunction*
G04 #@! TA.AperFunction,SMDPad,CuDef*
G36*
G01*
X104550000Y-100456250D02*
X104550000Y-99943750D01*
G75*
G02*
X104768750Y-99725000I218750J0D01*
G01*
X105206250Y-99725000D01*
G75*
G02*
X105425000Y-99943750I0J-218750D01*
G01*
X105425000Y-100456250D01*
G75*
G02*
X105206250Y-100675000I-218750J0D01*
G01*
X104768750Y-100675000D01*
G75*
G02*
X104550000Y-100456250I0J218750D01*
G01*
G37*
G04 #@! TD.AperFunction*
G04 #@! TA.AperFunction,SMDPad,CuDef*
G36*
G01*
X102975000Y-100456250D02*
X102975000Y-99943750D01*
G75*
G02*
X103193750Y-99725000I218750J0D01*
G01*
X103631250Y-99725000D01*
G75*
G02*
X103850000Y-99943750I0J-218750D01*
G01*
X103850000Y-100456250D01*
G75*
G02*
X103631250Y-100675000I-218750J0D01*
G01*
X103193750Y-100675000D01*
G75*
G02*
X102975000Y-100456250I0J218750D01*
G01*
G37*
G04 #@! TD.AperFunction*
G04 #@! TA.AperFunction,SMDPad,CuDef*
G36*
G01*
X112981250Y-103900000D02*
X112468750Y-103900000D01*
G75*
G02*
X112250000Y-103681250I0J218750D01*
G01*
X112250000Y-103243750D01*
G75*
G02*
X112468750Y-103025000I218750J0D01*
G01*
X112981250Y-103025000D01*
G75*
G02*
X113200000Y-103243750I0J-218750D01*
G01*
X113200000Y-103681250D01*
G75*
G02*
X112981250Y-103900000I-218750J0D01*
G01*
G37*
G04 #@! TD.AperFunction*
G04 #@! TA.AperFunction,SMDPad,CuDef*
G36*
G01*
X112981250Y-102325000D02*
X112468750Y-102325000D01*
G75*
G02*
X112250000Y-102106250I0J218750D01*
G01*
X112250000Y-101668750D01*
G75*
G02*
X112468750Y-101450000I218750J0D01*
G01*
X112981250Y-101450000D01*
G75*
G02*
X113200000Y-101668750I0J-218750D01*
G01*
X113200000Y-102106250D01*
G75*
G02*
X112981250Y-102325000I-218750J0D01*
G01*
G37*
G04 #@! TD.AperFunction*
G04 #@! TA.AperFunction,SMDPad,CuDef*
G36*
G01*
X84065000Y-106596250D02*
X84065000Y-106083750D01*
G75*
G02*
X84283750Y-105865000I218750J0D01*
G01*
X84721250Y-105865000D01*
G75*
G02*
X84940000Y-106083750I0J-218750D01*
G01*
X84940000Y-106596250D01*
G75*
G02*
X84721250Y-106815000I-218750J0D01*
G01*
X84283750Y-106815000D01*
G75*
G02*
X84065000Y-106596250I0J218750D01*
G01*
G37*
G04 #@! TD.AperFunction*
G04 #@! TA.AperFunction,SMDPad,CuDef*
G36*
G01*
X85640000Y-106596250D02*
X85640000Y-106083750D01*
G75*
G02*
X85858750Y-105865000I218750J0D01*
G01*
X86296250Y-105865000D01*
G75*
G02*
X86515000Y-106083750I0J-218750D01*
G01*
X86515000Y-106596250D01*
G75*
G02*
X86296250Y-106815000I-218750J0D01*
G01*
X85858750Y-106815000D01*
G75*
G02*
X85640000Y-106596250I0J218750D01*
G01*
G37*
G04 #@! TD.AperFunction*
G04 #@! TA.AperFunction,SMDPad,CuDef*
G36*
G01*
X112643750Y-106350000D02*
X113156250Y-106350000D01*
G75*
G02*
X113375000Y-106568750I0J-218750D01*
G01*
X113375000Y-107006250D01*
G75*
G02*
X113156250Y-107225000I-218750J0D01*
G01*
X112643750Y-107225000D01*
G75*
G02*
X112425000Y-107006250I0J218750D01*
G01*
X112425000Y-106568750D01*
G75*
G02*
X112643750Y-106350000I218750J0D01*
G01*
G37*
G04 #@! TD.AperFunction*
G04 #@! TA.AperFunction,SMDPad,CuDef*
G36*
G01*
X112643750Y-107925000D02*
X113156250Y-107925000D01*
G75*
G02*
X113375000Y-108143750I0J-218750D01*
G01*
X113375000Y-108581250D01*
G75*
G02*
X113156250Y-108800000I-218750J0D01*
G01*
X112643750Y-108800000D01*
G75*
G02*
X112425000Y-108581250I0J218750D01*
G01*
X112425000Y-108143750D01*
G75*
G02*
X112643750Y-107925000I218750J0D01*
G01*
G37*
G04 #@! TD.AperFunction*
G04 #@! TA.AperFunction,SMDPad,CuDef*
G36*
G01*
X89030000Y-108292500D02*
X89030000Y-107947500D01*
G75*
G02*
X89177500Y-107800000I147500J0D01*
G01*
X89472500Y-107800000D01*
G75*
G02*
X89620000Y-107947500I0J-147500D01*
G01*
X89620000Y-108292500D01*
G75*
G02*
X89472500Y-108440000I-147500J0D01*
G01*
X89177500Y-108440000D01*
G75*
G02*
X89030000Y-108292500I0J147500D01*
G01*
G37*
G04 #@! TD.AperFunction*
G04 #@! TA.AperFunction,SMDPad,CuDef*
G36*
G01*
X88060000Y-108292500D02*
X88060000Y-107947500D01*
G75*
G02*
X88207500Y-107800000I147500J0D01*
G01*
X88502500Y-107800000D01*
G75*
G02*
X88650000Y-107947500I0J-147500D01*
G01*
X88650000Y-108292500D01*
G75*
G02*
X88502500Y-108440000I-147500J0D01*
G01*
X88207500Y-108440000D01*
G75*
G02*
X88060000Y-108292500I0J147500D01*
G01*
G37*
G04 #@! TD.AperFunction*
G04 #@! TA.AperFunction,SMDPad,CuDef*
G36*
G01*
X99295000Y-114262500D02*
X99295000Y-113917500D01*
G75*
G02*
X99442500Y-113770000I147500J0D01*
G01*
X99737500Y-113770000D01*
G75*
G02*
X99885000Y-113917500I0J-147500D01*
G01*
X99885000Y-114262500D01*
G75*
G02*
X99737500Y-114410000I-147500J0D01*
G01*
X99442500Y-114410000D01*
G75*
G02*
X99295000Y-114262500I0J147500D01*
G01*
G37*
G04 #@! TD.AperFunction*
G04 #@! TA.AperFunction,SMDPad,CuDef*
G36*
G01*
X100265000Y-114262500D02*
X100265000Y-113917500D01*
G75*
G02*
X100412500Y-113770000I147500J0D01*
G01*
X100707500Y-113770000D01*
G75*
G02*
X100855000Y-113917500I0J-147500D01*
G01*
X100855000Y-114262500D01*
G75*
G02*
X100707500Y-114410000I-147500J0D01*
G01*
X100412500Y-114410000D01*
G75*
G02*
X100265000Y-114262500I0J147500D01*
G01*
G37*
G04 #@! TD.AperFunction*
G04 #@! TA.AperFunction,SMDPad,CuDef*
G36*
G01*
X107040000Y-97995000D02*
X107410000Y-97995000D01*
G75*
G02*
X107545000Y-98130000I0J-135000D01*
G01*
X107545000Y-98400000D01*
G75*
G02*
X107410000Y-98535000I-135000J0D01*
G01*
X107040000Y-98535000D01*
G75*
G02*
X106905000Y-98400000I0J135000D01*
G01*
X106905000Y-98130000D01*
G75*
G02*
X107040000Y-97995000I135000J0D01*
G01*
G37*
G04 #@! TD.AperFunction*
G04 #@! TA.AperFunction,SMDPad,CuDef*
G36*
G01*
X107040000Y-99015000D02*
X107410000Y-99015000D01*
G75*
G02*
X107545000Y-99150000I0J-135000D01*
G01*
X107545000Y-99420000D01*
G75*
G02*
X107410000Y-99555000I-135000J0D01*
G01*
X107040000Y-99555000D01*
G75*
G02*
X106905000Y-99420000I0J135000D01*
G01*
X106905000Y-99150000D01*
G75*
G02*
X107040000Y-99015000I135000J0D01*
G01*
G37*
G04 #@! TD.AperFunction*
G04 #@! TA.AperFunction,SMDPad,CuDef*
G36*
G01*
X104040000Y-112415000D02*
X104410000Y-112415000D01*
G75*
G02*
X104545000Y-112550000I0J-135000D01*
G01*
X104545000Y-112820000D01*
G75*
G02*
X104410000Y-112955000I-135000J0D01*
G01*
X104040000Y-112955000D01*
G75*
G02*
X103905000Y-112820000I0J135000D01*
G01*
X103905000Y-112550000D01*
G75*
G02*
X104040000Y-112415000I135000J0D01*
G01*
G37*
G04 #@! TD.AperFunction*
G04 #@! TA.AperFunction,SMDPad,CuDef*
G36*
G01*
X104040000Y-111395000D02*
X104410000Y-111395000D01*
G75*
G02*
X104545000Y-111530000I0J-135000D01*
G01*
X104545000Y-111800000D01*
G75*
G02*
X104410000Y-111935000I-135000J0D01*
G01*
X104040000Y-111935000D01*
G75*
G02*
X103905000Y-111800000I0J135000D01*
G01*
X103905000Y-111530000D01*
G75*
G02*
X104040000Y-111395000I135000J0D01*
G01*
G37*
G04 #@! TD.AperFunction*
G04 #@! TA.AperFunction,SMDPad,CuDef*
G36*
G01*
X88605000Y-96190000D02*
X88975000Y-96190000D01*
G75*
G02*
X89110000Y-96325000I0J-135000D01*
G01*
X89110000Y-96595000D01*
G75*
G02*
X88975000Y-96730000I-135000J0D01*
G01*
X88605000Y-96730000D01*
G75*
G02*
X88470000Y-96595000I0J135000D01*
G01*
X88470000Y-96325000D01*
G75*
G02*
X88605000Y-96190000I135000J0D01*
G01*
G37*
G04 #@! TD.AperFunction*
G04 #@! TA.AperFunction,SMDPad,CuDef*
G36*
G01*
X88605000Y-97210000D02*
X88975000Y-97210000D01*
G75*
G02*
X89110000Y-97345000I0J-135000D01*
G01*
X89110000Y-97615000D01*
G75*
G02*
X88975000Y-97750000I-135000J0D01*
G01*
X88605000Y-97750000D01*
G75*
G02*
X88470000Y-97615000I0J135000D01*
G01*
X88470000Y-97345000D01*
G75*
G02*
X88605000Y-97210000I135000J0D01*
G01*
G37*
G04 #@! TD.AperFunction*
G04 #@! TA.AperFunction,SMDPad,CuDef*
G36*
G01*
X87605000Y-97220000D02*
X87975000Y-97220000D01*
G75*
G02*
X88110000Y-97355000I0J-135000D01*
G01*
X88110000Y-97625000D01*
G75*
G02*
X87975000Y-97760000I-135000J0D01*
G01*
X87605000Y-97760000D01*
G75*
G02*
X87470000Y-97625000I0J135000D01*
G01*
X87470000Y-97355000D01*
G75*
G02*
X87605000Y-97220000I135000J0D01*
G01*
G37*
G04 #@! TD.AperFunction*
G04 #@! TA.AperFunction,SMDPad,CuDef*
G36*
G01*
X87605000Y-96200000D02*
X87975000Y-96200000D01*
G75*
G02*
X88110000Y-96335000I0J-135000D01*
G01*
X88110000Y-96605000D01*
G75*
G02*
X87975000Y-96740000I-135000J0D01*
G01*
X87605000Y-96740000D01*
G75*
G02*
X87470000Y-96605000I0J135000D01*
G01*
X87470000Y-96335000D01*
G75*
G02*
X87605000Y-96200000I135000J0D01*
G01*
G37*
G04 #@! TD.AperFunction*
G04 #@! TA.AperFunction,SMDPad,CuDef*
G36*
G01*
X89605000Y-97220000D02*
X89975000Y-97220000D01*
G75*
G02*
X90110000Y-97355000I0J-135000D01*
G01*
X90110000Y-97625000D01*
G75*
G02*
X89975000Y-97760000I-135000J0D01*
G01*
X89605000Y-97760000D01*
G75*
G02*
X89470000Y-97625000I0J135000D01*
G01*
X89470000Y-97355000D01*
G75*
G02*
X89605000Y-97220000I135000J0D01*
G01*
G37*
G04 #@! TD.AperFunction*
G04 #@! TA.AperFunction,SMDPad,CuDef*
G36*
G01*
X89605000Y-96200000D02*
X89975000Y-96200000D01*
G75*
G02*
X90110000Y-96335000I0J-135000D01*
G01*
X90110000Y-96605000D01*
G75*
G02*
X89975000Y-96740000I-135000J0D01*
G01*
X89605000Y-96740000D01*
G75*
G02*
X89470000Y-96605000I0J135000D01*
G01*
X89470000Y-96335000D01*
G75*
G02*
X89605000Y-96200000I135000J0D01*
G01*
G37*
G04 #@! TD.AperFunction*
G04 #@! TA.AperFunction,SMDPad,CuDef*
G36*
G01*
X106410000Y-99555000D02*
X106040000Y-99555000D01*
G75*
G02*
X105905000Y-99420000I0J135000D01*
G01*
X105905000Y-99150000D01*
G75*
G02*
X106040000Y-99015000I135000J0D01*
G01*
X106410000Y-99015000D01*
G75*
G02*
X106545000Y-99150000I0J-135000D01*
G01*
X106545000Y-99420000D01*
G75*
G02*
X106410000Y-99555000I-135000J0D01*
G01*
G37*
G04 #@! TD.AperFunction*
G04 #@! TA.AperFunction,SMDPad,CuDef*
G36*
G01*
X106410000Y-98535000D02*
X106040000Y-98535000D01*
G75*
G02*
X105905000Y-98400000I0J135000D01*
G01*
X105905000Y-98130000D01*
G75*
G02*
X106040000Y-97995000I135000J0D01*
G01*
X106410000Y-97995000D01*
G75*
G02*
X106545000Y-98130000I0J-135000D01*
G01*
X106545000Y-98400000D01*
G75*
G02*
X106410000Y-98535000I-135000J0D01*
G01*
G37*
G04 #@! TD.AperFunction*
G04 #@! TA.AperFunction,SMDPad,CuDef*
G36*
G01*
X102975000Y-98945000D02*
X102975000Y-98395000D01*
G75*
G02*
X103175000Y-98195000I200000J0D01*
G01*
X103575000Y-98195000D01*
G75*
G02*
X103775000Y-98395000I0J-200000D01*
G01*
X103775000Y-98945000D01*
G75*
G02*
X103575000Y-99145000I-200000J0D01*
G01*
X103175000Y-99145000D01*
G75*
G02*
X102975000Y-98945000I0J200000D01*
G01*
G37*
G04 #@! TD.AperFunction*
G04 #@! TA.AperFunction,SMDPad,CuDef*
G36*
G01*
X104625000Y-98945000D02*
X104625000Y-98395000D01*
G75*
G02*
X104825000Y-98195000I200000J0D01*
G01*
X105225000Y-98195000D01*
G75*
G02*
X105425000Y-98395000I0J-200000D01*
G01*
X105425000Y-98945000D01*
G75*
G02*
X105225000Y-99145000I-200000J0D01*
G01*
X104825000Y-99145000D01*
G75*
G02*
X104625000Y-98945000I0J200000D01*
G01*
G37*
G04 #@! TD.AperFunction*
G04 #@! TA.AperFunction,SMDPad,CuDef*
G36*
G01*
X88615000Y-99140000D02*
X88985000Y-99140000D01*
G75*
G02*
X89120000Y-99275000I0J-135000D01*
G01*
X89120000Y-99545000D01*
G75*
G02*
X88985000Y-99680000I-135000J0D01*
G01*
X88615000Y-99680000D01*
G75*
G02*
X88480000Y-99545000I0J135000D01*
G01*
X88480000Y-99275000D01*
G75*
G02*
X88615000Y-99140000I135000J0D01*
G01*
G37*
G04 #@! TD.AperFunction*
G04 #@! TA.AperFunction,SMDPad,CuDef*
G36*
G01*
X88615000Y-98120000D02*
X88985000Y-98120000D01*
G75*
G02*
X89120000Y-98255000I0J-135000D01*
G01*
X89120000Y-98525000D01*
G75*
G02*
X88985000Y-98660000I-135000J0D01*
G01*
X88615000Y-98660000D01*
G75*
G02*
X88480000Y-98525000I0J135000D01*
G01*
X88480000Y-98255000D01*
G75*
G02*
X88615000Y-98120000I135000J0D01*
G01*
G37*
G04 #@! TD.AperFunction*
G04 #@! TA.AperFunction,SMDPad,CuDef*
G36*
G01*
X87615000Y-98120000D02*
X87985000Y-98120000D01*
G75*
G02*
X88120000Y-98255000I0J-135000D01*
G01*
X88120000Y-98525000D01*
G75*
G02*
X87985000Y-98660000I-135000J0D01*
G01*
X87615000Y-98660000D01*
G75*
G02*
X87480000Y-98525000I0J135000D01*
G01*
X87480000Y-98255000D01*
G75*
G02*
X87615000Y-98120000I135000J0D01*
G01*
G37*
G04 #@! TD.AperFunction*
G04 #@! TA.AperFunction,SMDPad,CuDef*
G36*
G01*
X87615000Y-99140000D02*
X87985000Y-99140000D01*
G75*
G02*
X88120000Y-99275000I0J-135000D01*
G01*
X88120000Y-99545000D01*
G75*
G02*
X87985000Y-99680000I-135000J0D01*
G01*
X87615000Y-99680000D01*
G75*
G02*
X87480000Y-99545000I0J135000D01*
G01*
X87480000Y-99275000D01*
G75*
G02*
X87615000Y-99140000I135000J0D01*
G01*
G37*
G04 #@! TD.AperFunction*
G04 #@! TA.AperFunction,SMDPad,CuDef*
G36*
G01*
X89615000Y-98120000D02*
X89985000Y-98120000D01*
G75*
G02*
X90120000Y-98255000I0J-135000D01*
G01*
X90120000Y-98525000D01*
G75*
G02*
X89985000Y-98660000I-135000J0D01*
G01*
X89615000Y-98660000D01*
G75*
G02*
X89480000Y-98525000I0J135000D01*
G01*
X89480000Y-98255000D01*
G75*
G02*
X89615000Y-98120000I135000J0D01*
G01*
G37*
G04 #@! TD.AperFunction*
G04 #@! TA.AperFunction,SMDPad,CuDef*
G36*
G01*
X89615000Y-99140000D02*
X89985000Y-99140000D01*
G75*
G02*
X90120000Y-99275000I0J-135000D01*
G01*
X90120000Y-99545000D01*
G75*
G02*
X89985000Y-99680000I-135000J0D01*
G01*
X89615000Y-99680000D01*
G75*
G02*
X89480000Y-99545000I0J135000D01*
G01*
X89480000Y-99275000D01*
G75*
G02*
X89615000Y-99140000I135000J0D01*
G01*
G37*
G04 #@! TD.AperFunction*
G04 #@! TA.AperFunction,SMDPad,CuDef*
G36*
G01*
X86940000Y-101695000D02*
X86940000Y-101325000D01*
G75*
G02*
X87075000Y-101190000I135000J0D01*
G01*
X87345000Y-101190000D01*
G75*
G02*
X87480000Y-101325000I0J-135000D01*
G01*
X87480000Y-101695000D01*
G75*
G02*
X87345000Y-101830000I-135000J0D01*
G01*
X87075000Y-101830000D01*
G75*
G02*
X86940000Y-101695000I0J135000D01*
G01*
G37*
G04 #@! TD.AperFunction*
G04 #@! TA.AperFunction,SMDPad,CuDef*
G36*
G01*
X87960000Y-101695000D02*
X87960000Y-101325000D01*
G75*
G02*
X88095000Y-101190000I135000J0D01*
G01*
X88365000Y-101190000D01*
G75*
G02*
X88500000Y-101325000I0J-135000D01*
G01*
X88500000Y-101695000D01*
G75*
G02*
X88365000Y-101830000I-135000J0D01*
G01*
X88095000Y-101830000D01*
G75*
G02*
X87960000Y-101695000I0J135000D01*
G01*
G37*
G04 #@! TD.AperFunction*
G04 #@! TA.AperFunction,SMDPad,CuDef*
G36*
G01*
X88630000Y-100315000D02*
X88630000Y-100685000D01*
G75*
G02*
X88495000Y-100820000I-135000J0D01*
G01*
X88225000Y-100820000D01*
G75*
G02*
X88090000Y-100685000I0J135000D01*
G01*
X88090000Y-100315000D01*
G75*
G02*
X88225000Y-100180000I135000J0D01*
G01*
X88495000Y-100180000D01*
G75*
G02*
X88630000Y-100315000I0J-135000D01*
G01*
G37*
G04 #@! TD.AperFunction*
G04 #@! TA.AperFunction,SMDPad,CuDef*
G36*
G01*
X87610000Y-100315000D02*
X87610000Y-100685000D01*
G75*
G02*
X87475000Y-100820000I-135000J0D01*
G01*
X87205000Y-100820000D01*
G75*
G02*
X87070000Y-100685000I0J135000D01*
G01*
X87070000Y-100315000D01*
G75*
G02*
X87205000Y-100180000I135000J0D01*
G01*
X87475000Y-100180000D01*
G75*
G02*
X87610000Y-100315000I0J-135000D01*
G01*
G37*
G04 #@! TD.AperFunction*
G04 #@! TA.AperFunction,SMDPad,CuDef*
G36*
G01*
X103120000Y-113845000D02*
X103120000Y-113475000D01*
G75*
G02*
X103255000Y-113340000I135000J0D01*
G01*
X103525000Y-113340000D01*
G75*
G02*
X103660000Y-113475000I0J-135000D01*
G01*
X103660000Y-113845000D01*
G75*
G02*
X103525000Y-113980000I-135000J0D01*
G01*
X103255000Y-113980000D01*
G75*
G02*
X103120000Y-113845000I0J135000D01*
G01*
G37*
G04 #@! TD.AperFunction*
G04 #@! TA.AperFunction,SMDPad,CuDef*
G36*
G01*
X104140000Y-113845000D02*
X104140000Y-113475000D01*
G75*
G02*
X104275000Y-113340000I135000J0D01*
G01*
X104545000Y-113340000D01*
G75*
G02*
X104680000Y-113475000I0J-135000D01*
G01*
X104680000Y-113845000D01*
G75*
G02*
X104545000Y-113980000I-135000J0D01*
G01*
X104275000Y-113980000D01*
G75*
G02*
X104140000Y-113845000I0J135000D01*
G01*
G37*
G04 #@! TD.AperFunction*
G04 #@! TA.AperFunction,SMDPad,CuDef*
G36*
G01*
X105065000Y-112415000D02*
X105435000Y-112415000D01*
G75*
G02*
X105570000Y-112550000I0J-135000D01*
G01*
X105570000Y-112820000D01*
G75*
G02*
X105435000Y-112955000I-135000J0D01*
G01*
X105065000Y-112955000D01*
G75*
G02*
X104930000Y-112820000I0J135000D01*
G01*
X104930000Y-112550000D01*
G75*
G02*
X105065000Y-112415000I135000J0D01*
G01*
G37*
G04 #@! TD.AperFunction*
G04 #@! TA.AperFunction,SMDPad,CuDef*
G36*
G01*
X105065000Y-111395000D02*
X105435000Y-111395000D01*
G75*
G02*
X105570000Y-111530000I0J-135000D01*
G01*
X105570000Y-111800000D01*
G75*
G02*
X105435000Y-111935000I-135000J0D01*
G01*
X105065000Y-111935000D01*
G75*
G02*
X104930000Y-111800000I0J135000D01*
G01*
X104930000Y-111530000D01*
G75*
G02*
X105065000Y-111395000I135000J0D01*
G01*
G37*
G04 #@! TD.AperFunction*
G04 #@! TA.AperFunction,SMDPad,CuDef*
G36*
G01*
X114525000Y-102675000D02*
X113975000Y-102675000D01*
G75*
G02*
X113775000Y-102475000I0J200000D01*
G01*
X113775000Y-102075000D01*
G75*
G02*
X113975000Y-101875000I200000J0D01*
G01*
X114525000Y-101875000D01*
G75*
G02*
X114725000Y-102075000I0J-200000D01*
G01*
X114725000Y-102475000D01*
G75*
G02*
X114525000Y-102675000I-200000J0D01*
G01*
G37*
G04 #@! TD.AperFunction*
G04 #@! TA.AperFunction,SMDPad,CuDef*
G36*
G01*
X114525000Y-104325000D02*
X113975000Y-104325000D01*
G75*
G02*
X113775000Y-104125000I0J200000D01*
G01*
X113775000Y-103725000D01*
G75*
G02*
X113975000Y-103525000I200000J0D01*
G01*
X114525000Y-103525000D01*
G75*
G02*
X114725000Y-103725000I0J-200000D01*
G01*
X114725000Y-104125000D01*
G75*
G02*
X114525000Y-104325000I-200000J0D01*
G01*
G37*
G04 #@! TD.AperFunction*
G04 #@! TA.AperFunction,SMDPad,CuDef*
G36*
G01*
X108515000Y-97990000D02*
X108885000Y-97990000D01*
G75*
G02*
X109020000Y-98125000I0J-135000D01*
G01*
X109020000Y-98395000D01*
G75*
G02*
X108885000Y-98530000I-135000J0D01*
G01*
X108515000Y-98530000D01*
G75*
G02*
X108380000Y-98395000I0J135000D01*
G01*
X108380000Y-98125000D01*
G75*
G02*
X108515000Y-97990000I135000J0D01*
G01*
G37*
G04 #@! TD.AperFunction*
G04 #@! TA.AperFunction,SMDPad,CuDef*
G36*
G01*
X108515000Y-99010000D02*
X108885000Y-99010000D01*
G75*
G02*
X109020000Y-99145000I0J-135000D01*
G01*
X109020000Y-99415000D01*
G75*
G02*
X108885000Y-99550000I-135000J0D01*
G01*
X108515000Y-99550000D01*
G75*
G02*
X108380000Y-99415000I0J135000D01*
G01*
X108380000Y-99145000D01*
G75*
G02*
X108515000Y-99010000I135000J0D01*
G01*
G37*
G04 #@! TD.AperFunction*
G04 #@! TA.AperFunction,SMDPad,CuDef*
G36*
G01*
X110335000Y-111030000D02*
X109965000Y-111030000D01*
G75*
G02*
X109830000Y-110895000I0J135000D01*
G01*
X109830000Y-110625000D01*
G75*
G02*
X109965000Y-110490000I135000J0D01*
G01*
X110335000Y-110490000D01*
G75*
G02*
X110470000Y-110625000I0J-135000D01*
G01*
X110470000Y-110895000D01*
G75*
G02*
X110335000Y-111030000I-135000J0D01*
G01*
G37*
G04 #@! TD.AperFunction*
G04 #@! TA.AperFunction,SMDPad,CuDef*
G36*
G01*
X110335000Y-112050000D02*
X109965000Y-112050000D01*
G75*
G02*
X109830000Y-111915000I0J135000D01*
G01*
X109830000Y-111645000D01*
G75*
G02*
X109965000Y-111510000I135000J0D01*
G01*
X110335000Y-111510000D01*
G75*
G02*
X110470000Y-111645000I0J-135000D01*
G01*
X110470000Y-111915000D01*
G75*
G02*
X110335000Y-112050000I-135000J0D01*
G01*
G37*
G04 #@! TD.AperFunction*
G04 #@! TA.AperFunction,SMDPad,CuDef*
G36*
G01*
X111235000Y-105530000D02*
X110865000Y-105530000D01*
G75*
G02*
X110730000Y-105395000I0J135000D01*
G01*
X110730000Y-105125000D01*
G75*
G02*
X110865000Y-104990000I135000J0D01*
G01*
X111235000Y-104990000D01*
G75*
G02*
X111370000Y-105125000I0J-135000D01*
G01*
X111370000Y-105395000D01*
G75*
G02*
X111235000Y-105530000I-135000J0D01*
G01*
G37*
G04 #@! TD.AperFunction*
G04 #@! TA.AperFunction,SMDPad,CuDef*
G36*
G01*
X111235000Y-104510000D02*
X110865000Y-104510000D01*
G75*
G02*
X110730000Y-104375000I0J135000D01*
G01*
X110730000Y-104105000D01*
G75*
G02*
X110865000Y-103970000I135000J0D01*
G01*
X111235000Y-103970000D01*
G75*
G02*
X111370000Y-104105000I0J-135000D01*
G01*
X111370000Y-104375000D01*
G75*
G02*
X111235000Y-104510000I-135000J0D01*
G01*
G37*
G04 #@! TD.AperFunction*
G04 #@! TA.AperFunction,SMDPad,CuDef*
G36*
G01*
X94860000Y-109335000D02*
X94490000Y-109335000D01*
G75*
G02*
X94355000Y-109200000I0J135000D01*
G01*
X94355000Y-108930000D01*
G75*
G02*
X94490000Y-108795000I135000J0D01*
G01*
X94860000Y-108795000D01*
G75*
G02*
X94995000Y-108930000I0J-135000D01*
G01*
X94995000Y-109200000D01*
G75*
G02*
X94860000Y-109335000I-135000J0D01*
G01*
G37*
G04 #@! TD.AperFunction*
G04 #@! TA.AperFunction,SMDPad,CuDef*
G36*
G01*
X94860000Y-110355000D02*
X94490000Y-110355000D01*
G75*
G02*
X94355000Y-110220000I0J135000D01*
G01*
X94355000Y-109950000D01*
G75*
G02*
X94490000Y-109815000I135000J0D01*
G01*
X94860000Y-109815000D01*
G75*
G02*
X94995000Y-109950000I0J-135000D01*
G01*
X94995000Y-110220000D01*
G75*
G02*
X94860000Y-110355000I-135000J0D01*
G01*
G37*
G04 #@! TD.AperFunction*
G04 #@! TA.AperFunction,SMDPad,CuDef*
G36*
G01*
X93440000Y-109320000D02*
X93810000Y-109320000D01*
G75*
G02*
X93945000Y-109455000I0J-135000D01*
G01*
X93945000Y-109725000D01*
G75*
G02*
X93810000Y-109860000I-135000J0D01*
G01*
X93440000Y-109860000D01*
G75*
G02*
X93305000Y-109725000I0J135000D01*
G01*
X93305000Y-109455000D01*
G75*
G02*
X93440000Y-109320000I135000J0D01*
G01*
G37*
G04 #@! TD.AperFunction*
G04 #@! TA.AperFunction,SMDPad,CuDef*
G36*
G01*
X93440000Y-110340000D02*
X93810000Y-110340000D01*
G75*
G02*
X93945000Y-110475000I0J-135000D01*
G01*
X93945000Y-110745000D01*
G75*
G02*
X93810000Y-110880000I-135000J0D01*
G01*
X93440000Y-110880000D01*
G75*
G02*
X93305000Y-110745000I0J135000D01*
G01*
X93305000Y-110475000D01*
G75*
G02*
X93440000Y-110340000I135000J0D01*
G01*
G37*
G04 #@! TD.AperFunction*
G04 #@! TA.AperFunction,SMDPad,CuDef*
G36*
G01*
X111440000Y-109805000D02*
X111440000Y-110175000D01*
G75*
G02*
X111305000Y-110310000I-135000J0D01*
G01*
X111035000Y-110310000D01*
G75*
G02*
X110900000Y-110175000I0J135000D01*
G01*
X110900000Y-109805000D01*
G75*
G02*
X111035000Y-109670000I135000J0D01*
G01*
X111305000Y-109670000D01*
G75*
G02*
X111440000Y-109805000I0J-135000D01*
G01*
G37*
G04 #@! TD.AperFunction*
G04 #@! TA.AperFunction,SMDPad,CuDef*
G36*
G01*
X112460000Y-109805000D02*
X112460000Y-110175000D01*
G75*
G02*
X112325000Y-110310000I-135000J0D01*
G01*
X112055000Y-110310000D01*
G75*
G02*
X111920000Y-110175000I0J135000D01*
G01*
X111920000Y-109805000D01*
G75*
G02*
X112055000Y-109670000I135000J0D01*
G01*
X112325000Y-109670000D01*
G75*
G02*
X112460000Y-109805000I0J-135000D01*
G01*
G37*
G04 #@! TD.AperFunction*
G04 #@! TA.AperFunction,SMDPad,CuDef*
G36*
G01*
X111100000Y-106125000D02*
X111650000Y-106125000D01*
G75*
G02*
X111850000Y-106325000I0J-200000D01*
G01*
X111850000Y-106725000D01*
G75*
G02*
X111650000Y-106925000I-200000J0D01*
G01*
X111100000Y-106925000D01*
G75*
G02*
X110900000Y-106725000I0J200000D01*
G01*
X110900000Y-106325000D01*
G75*
G02*
X111100000Y-106125000I200000J0D01*
G01*
G37*
G04 #@! TD.AperFunction*
G04 #@! TA.AperFunction,SMDPad,CuDef*
G36*
G01*
X111100000Y-107775000D02*
X111650000Y-107775000D01*
G75*
G02*
X111850000Y-107975000I0J-200000D01*
G01*
X111850000Y-108375000D01*
G75*
G02*
X111650000Y-108575000I-200000J0D01*
G01*
X111100000Y-108575000D01*
G75*
G02*
X110900000Y-108375000I0J200000D01*
G01*
X110900000Y-107975000D01*
G75*
G02*
X111100000Y-107775000I200000J0D01*
G01*
G37*
G04 #@! TD.AperFunction*
G04 #@! TA.AperFunction,SMDPad,CuDef*
G36*
G01*
X86525000Y-108135000D02*
X86525000Y-107585000D01*
G75*
G02*
X86725000Y-107385000I200000J0D01*
G01*
X87125000Y-107385000D01*
G75*
G02*
X87325000Y-107585000I0J-200000D01*
G01*
X87325000Y-108135000D01*
G75*
G02*
X87125000Y-108335000I-200000J0D01*
G01*
X86725000Y-108335000D01*
G75*
G02*
X86525000Y-108135000I0J200000D01*
G01*
G37*
G04 #@! TD.AperFunction*
G04 #@! TA.AperFunction,SMDPad,CuDef*
G36*
G01*
X84875000Y-108135000D02*
X84875000Y-107585000D01*
G75*
G02*
X85075000Y-107385000I200000J0D01*
G01*
X85475000Y-107385000D01*
G75*
G02*
X85675000Y-107585000I0J-200000D01*
G01*
X85675000Y-108135000D01*
G75*
G02*
X85475000Y-108335000I-200000J0D01*
G01*
X85075000Y-108335000D01*
G75*
G02*
X84875000Y-108135000I0J200000D01*
G01*
G37*
G04 #@! TD.AperFunction*
G04 #@! TA.AperFunction,SMDPad,CuDef*
G36*
G01*
X90135000Y-104430000D02*
X89765000Y-104430000D01*
G75*
G02*
X89630000Y-104295000I0J135000D01*
G01*
X89630000Y-104025000D01*
G75*
G02*
X89765000Y-103890000I135000J0D01*
G01*
X90135000Y-103890000D01*
G75*
G02*
X90270000Y-104025000I0J-135000D01*
G01*
X90270000Y-104295000D01*
G75*
G02*
X90135000Y-104430000I-135000J0D01*
G01*
G37*
G04 #@! TD.AperFunction*
G04 #@! TA.AperFunction,SMDPad,CuDef*
G36*
G01*
X90135000Y-103410000D02*
X89765000Y-103410000D01*
G75*
G02*
X89630000Y-103275000I0J135000D01*
G01*
X89630000Y-103005000D01*
G75*
G02*
X89765000Y-102870000I135000J0D01*
G01*
X90135000Y-102870000D01*
G75*
G02*
X90270000Y-103005000I0J-135000D01*
G01*
X90270000Y-103275000D01*
G75*
G02*
X90135000Y-103410000I-135000J0D01*
G01*
G37*
G04 #@! TD.AperFunction*
D15*
X85800000Y-102550000D03*
X111875000Y-89675000D03*
X111875000Y-88950000D03*
X111150000Y-88950000D03*
X111150000Y-89675000D03*
X104225000Y-89575000D03*
X104275000Y-88925000D03*
X92125000Y-89425000D03*
X109750000Y-89425000D03*
X108900000Y-89425000D03*
X108125000Y-89425000D03*
X107375000Y-89425000D03*
X106725000Y-89425000D03*
X105950000Y-89425000D03*
X107350000Y-90900000D03*
X105975000Y-90900000D03*
X100850000Y-89425000D03*
X100050000Y-89425000D03*
X99225000Y-89425000D03*
X98425000Y-89425000D03*
X97775000Y-89425000D03*
X97150000Y-89425000D03*
X97150000Y-90900000D03*
X98425000Y-90900000D03*
X91325000Y-89425000D03*
X90575000Y-89425000D03*
X89700000Y-89425000D03*
X88925000Y-89425000D03*
X88200000Y-89425000D03*
X96387500Y-101112500D03*
X89250000Y-90100000D03*
X88400000Y-90050000D03*
X97775000Y-90900000D03*
X97450000Y-90150000D03*
X98100000Y-90150000D03*
X106700000Y-90900000D03*
X106350000Y-90175000D03*
X107025000Y-90175000D03*
X97500000Y-100900000D03*
X83850000Y-90825000D03*
X85450000Y-87725000D03*
X95525000Y-101150000D03*
X86175000Y-90525000D03*
X87175000Y-89650000D03*
X87100000Y-90375000D03*
X93400000Y-90400000D03*
X93350000Y-89200000D03*
X94000000Y-89775000D03*
X87950000Y-90700000D03*
X88800000Y-90700000D03*
X87650000Y-89000000D03*
X86700000Y-101150000D03*
X85150000Y-102550000D03*
X111675000Y-96150000D03*
X112425000Y-96200000D03*
X112400000Y-96925000D03*
X85340000Y-101630000D03*
X86150000Y-101750000D03*
X88500000Y-104350000D03*
X87600000Y-104500000D03*
X86900000Y-104000000D03*
X83150000Y-102850000D03*
X83650000Y-103550000D03*
X110425000Y-97800000D03*
X109750000Y-96850000D03*
X100775000Y-110875000D03*
X98300000Y-110525000D03*
X89750000Y-92775000D03*
X89800000Y-93800000D03*
X100650000Y-108300000D03*
X99325000Y-108275000D03*
X88825000Y-92700000D03*
X88825000Y-93450000D03*
X88850000Y-94250000D03*
X98375000Y-91925000D03*
X97800000Y-92450000D03*
X98375000Y-92850000D03*
X97825000Y-93600000D03*
X98325000Y-94250000D03*
X97800000Y-94925000D03*
X104475000Y-94975000D03*
X104475000Y-92775000D03*
X104800000Y-92050000D03*
X104125000Y-92050000D03*
X103025000Y-93525000D03*
X103025000Y-94300000D03*
X104075000Y-94300000D03*
X104075000Y-93550000D03*
X104825000Y-93550000D03*
X104825000Y-94300000D03*
X102050000Y-94275000D03*
X102050000Y-93550000D03*
X112275000Y-94850000D03*
X111425000Y-94850000D03*
X111150000Y-92825000D03*
X111800000Y-92825000D03*
X111800000Y-92125000D03*
X113725000Y-93550000D03*
X110975000Y-93575000D03*
X111775000Y-93575000D03*
X112825000Y-93575000D03*
X113725000Y-94275000D03*
X112825000Y-94275000D03*
X111775000Y-94275000D03*
X110975000Y-94275000D03*
X110800000Y-99200000D03*
X111225000Y-97775000D03*
X102025000Y-111400000D03*
X93220000Y-94340000D03*
X94090000Y-94350000D03*
X95130000Y-94340000D03*
X96010000Y-94340000D03*
X96020000Y-93630000D03*
X95140000Y-93630000D03*
X94080000Y-93620000D03*
X93240000Y-93620000D03*
X97525000Y-107525000D03*
X99550000Y-100700000D03*
X98750000Y-100700000D03*
X101250000Y-99600000D03*
X100400000Y-99600000D03*
X99550000Y-99600000D03*
X98750000Y-99600000D03*
X114075000Y-102100000D03*
X101197677Y-110115974D03*
X99800000Y-110265521D03*
X100775000Y-101275000D03*
X107950000Y-104375000D03*
X87775000Y-93725000D03*
X86950000Y-93175000D03*
X86350000Y-92400000D03*
X87200000Y-92250000D03*
X87875000Y-92800000D03*
X88150000Y-91925000D03*
X86700000Y-91700000D03*
X84475000Y-94375000D03*
X83575000Y-93875000D03*
X83625000Y-92175000D03*
X89150000Y-91850000D03*
X89775000Y-94800000D03*
X109100000Y-110800000D03*
X89511500Y-99250000D03*
X88100000Y-99350000D03*
X102400000Y-110400000D03*
X96350000Y-102650018D03*
X94000000Y-104700000D03*
X83450000Y-104750000D03*
X84500000Y-103750000D03*
X110000000Y-99200000D03*
X111849992Y-97800000D03*
X109750000Y-96050000D03*
X99750000Y-107350000D03*
X100949994Y-107350000D03*
X101650000Y-107350000D03*
X97475000Y-108725000D03*
X98325000Y-111675000D03*
X99300000Y-111725000D03*
X100325000Y-111725000D03*
X101250000Y-112095000D03*
X97525000Y-112225000D03*
X102500000Y-108975004D03*
X102125000Y-112150000D03*
X106470000Y-106600000D03*
X93215653Y-103157390D03*
X92700000Y-103819974D03*
X87940000Y-109680000D03*
X87196979Y-108103612D03*
X115003510Y-93265964D03*
X109120000Y-112220000D03*
X112145137Y-111534640D03*
X88640000Y-111870000D03*
X97599988Y-103220000D03*
X97575000Y-102375000D03*
X97600000Y-98350000D03*
X96359479Y-98250000D03*
X95299998Y-87873785D03*
X102150000Y-87850000D03*
X108950000Y-87850000D03*
X102149984Y-98100000D03*
X104600000Y-96647989D03*
X103144445Y-101946005D03*
X100601659Y-113936902D03*
X111800000Y-99100000D03*
X106000000Y-99375000D03*
X112500000Y-101525000D03*
X112725000Y-108675000D03*
X111075000Y-105475000D03*
X109400000Y-102100000D03*
X99648119Y-114120183D03*
X111450000Y-99900000D03*
X111900000Y-100400000D03*
X112300000Y-99850000D03*
X92500000Y-107150000D03*
X110230000Y-100100000D03*
X110870000Y-100430000D03*
X108700000Y-98240024D03*
X85960000Y-108950000D03*
X88534692Y-107603499D03*
X110150000Y-112110000D03*
X106039998Y-100810000D03*
X115971538Y-92730819D03*
X93300000Y-83300000D03*
X92800000Y-82600000D03*
X91600000Y-82600000D03*
X92200000Y-83300000D03*
X91600000Y-84000000D03*
X91100000Y-83300000D03*
X89600000Y-84800000D03*
X90575000Y-84000000D03*
X91000000Y-84800000D03*
X90300000Y-84800000D03*
X88875000Y-84800000D03*
X88200000Y-84800000D03*
X94300000Y-85350000D03*
X89600000Y-84000000D03*
X90100000Y-83300000D03*
X94300000Y-83300000D03*
X93800000Y-82600000D03*
X93300000Y-81800000D03*
X92300000Y-82000000D03*
X94300000Y-81800000D03*
X87560000Y-95810000D03*
X99500000Y-80700000D03*
X100200000Y-81600000D03*
X98900000Y-81600000D03*
X98200000Y-82400000D03*
X99100000Y-82400000D03*
X100200000Y-82400000D03*
X101200000Y-82400000D03*
X100700000Y-83200000D03*
X99600000Y-83200000D03*
X98600000Y-83200000D03*
X100200000Y-84000000D03*
X99100000Y-84000000D03*
X98475000Y-84925000D03*
X99925000Y-84925000D03*
X99225000Y-84925000D03*
X97725000Y-84925000D03*
X97075000Y-84925000D03*
X97400000Y-84000000D03*
X98200000Y-84000000D03*
X96700000Y-83200000D03*
X97700000Y-83200000D03*
X101588500Y-83211500D03*
X102600000Y-83200000D03*
X102100000Y-82400000D03*
X97200000Y-82400000D03*
X95900000Y-82400000D03*
X96700000Y-81600000D03*
X97800000Y-81600000D03*
X101700000Y-81600000D03*
X102800000Y-81600000D03*
X102300000Y-80700000D03*
X101000000Y-80700000D03*
X98300000Y-80700000D03*
X97300000Y-80700000D03*
X95800000Y-80800000D03*
X102800000Y-85200000D03*
X88440000Y-95780000D03*
X107500000Y-84800000D03*
X108300000Y-82400000D03*
X107300000Y-82400000D03*
X109400000Y-83200000D03*
X108400000Y-83200000D03*
X107600000Y-83200000D03*
X106800000Y-83200000D03*
X108800000Y-84000000D03*
X108000000Y-84000000D03*
X107200000Y-84000000D03*
X106400000Y-84000000D03*
X108930000Y-84820000D03*
X108200000Y-84810000D03*
X106760000Y-84800000D03*
X106060000Y-84800000D03*
X109900000Y-84000000D03*
X105900000Y-83200000D03*
X105000000Y-83200000D03*
X104100000Y-83200000D03*
X104500000Y-82400000D03*
X105400000Y-82400000D03*
X106400000Y-82400000D03*
X104000000Y-81600000D03*
X105000000Y-81600000D03*
X106000000Y-81600000D03*
X104500000Y-80900000D03*
X104000000Y-85600000D03*
X89370000Y-95730000D03*
X106475000Y-104625000D03*
X94060948Y-108371040D03*
X108679992Y-99440000D03*
X107975000Y-108225000D03*
X93014488Y-108286579D03*
X109825000Y-107300000D03*
X92486053Y-108762092D03*
X109575000Y-104150000D03*
X111050000Y-104300000D03*
X93527998Y-108824891D03*
X87290025Y-102280709D03*
X88010006Y-102280573D03*
X98728310Y-97400012D03*
X103700000Y-96640521D03*
X105500000Y-96686490D03*
X104400000Y-97713510D03*
X96361786Y-99000869D03*
X96460000Y-100090000D03*
X88600000Y-106286500D03*
X95493559Y-113241872D03*
X94256898Y-112733111D03*
X87940000Y-106980000D03*
X103988510Y-105255977D03*
X95600000Y-112550000D03*
X95250000Y-111700000D03*
X103251268Y-106160755D03*
X105993940Y-100100172D03*
X103232816Y-101251596D03*
X96700000Y-103616146D03*
X95410011Y-102104996D03*
X88800000Y-98450000D03*
X107031830Y-110508170D03*
X90628963Y-112595224D03*
X102274950Y-114376817D03*
X89410000Y-100150000D03*
X90411033Y-111930000D03*
X91262358Y-113986777D03*
X87800000Y-98450000D03*
X108150000Y-111870018D03*
X92950000Y-99225000D03*
X95025000Y-100100000D03*
X91000000Y-100100000D03*
X106517510Y-112244000D03*
X101738504Y-114886490D03*
X92322606Y-100256541D03*
X92936500Y-98150000D03*
X100378302Y-105355173D03*
X94963510Y-107251679D03*
X102463149Y-105036137D03*
X98180000Y-114450000D03*
X88870000Y-110430000D03*
X103248812Y-112532685D03*
X110900000Y-109700000D03*
X94690000Y-103799982D03*
X92700000Y-104850000D03*
X108160000Y-107030000D03*
X105530000Y-107270000D03*
X108000001Y-105714476D03*
X105030000Y-106590000D03*
X107250000Y-96586500D03*
X100640561Y-95689635D03*
X92375000Y-95407468D03*
X93846490Y-99025000D03*
X99950000Y-95575000D03*
X92925008Y-97264330D03*
X107285906Y-95860270D03*
X94875000Y-97200000D03*
X91000000Y-97350000D03*
X91651379Y-95407468D03*
X104294821Y-113306019D03*
X106025006Y-111550000D03*
X104925000Y-98963510D03*
X101675000Y-104725000D03*
X104625000Y-104100000D03*
X106825000Y-100550000D03*
X103220000Y-113470000D03*
X105230000Y-113940000D03*
X105199908Y-111650000D03*
X94680793Y-108820917D03*
X93600000Y-110950000D03*
X109400000Y-105725000D03*
X111375000Y-108100000D03*
X106050868Y-105572988D03*
X102650000Y-103999190D03*
X96724984Y-105625000D03*
X103931653Y-101292134D03*
X105275000Y-104975000D03*
X96500000Y-113025000D03*
X106146490Y-102200000D03*
X105296458Y-108986500D03*
X88360000Y-100500044D03*
X90964286Y-113285714D03*
X95512287Y-106663927D03*
X104697262Y-108372262D03*
X98890000Y-114540000D03*
X101379913Y-105359776D03*
X85100000Y-104750000D03*
X85250000Y-105500000D03*
X85650000Y-104500000D03*
X85530000Y-106210000D03*
X87388107Y-106161893D03*
D16*
X96600000Y-100900000D02*
X96387500Y-101112500D01*
X97500000Y-100900000D02*
X96600000Y-100900000D01*
X115975062Y-91024938D02*
X115975062Y-91125000D01*
X116000000Y-91000000D02*
X115975062Y-91024938D01*
D17*
X94950000Y-101150000D02*
X95525000Y-101150000D01*
X95525000Y-101150000D02*
X96350000Y-101150000D01*
D18*
X87350000Y-101500000D02*
X87050000Y-101500000D01*
X87050000Y-101500000D02*
X86700000Y-101150000D01*
D16*
X114150000Y-102350000D02*
X114150000Y-102175000D01*
X114150000Y-102175000D02*
X114075000Y-102100000D01*
D17*
X96825000Y-106825000D02*
X97525000Y-107525000D01*
X96825000Y-106650000D02*
X96825000Y-106825000D01*
D18*
X100750000Y-102050000D02*
X100750000Y-101300000D01*
X100750000Y-101300000D02*
X100775000Y-101275000D01*
X109150000Y-110650000D02*
X109150000Y-110750000D01*
X109150000Y-110750000D02*
X109100000Y-110800000D01*
X89800000Y-99350000D02*
X89611500Y-99350000D01*
X89611500Y-99350000D02*
X89511500Y-99250000D01*
D16*
X87800000Y-99350000D02*
X88100000Y-99350000D01*
X88800000Y-99350000D02*
X89800000Y-99350000D01*
X87400000Y-99750000D02*
X87400000Y-100500000D01*
X87800000Y-99350000D02*
X87400000Y-99750000D01*
X88100000Y-99350000D02*
X88800000Y-99350000D01*
X102600000Y-110600000D02*
X102400000Y-110400000D01*
X103300000Y-110600000D02*
X102600000Y-110600000D01*
X96350000Y-102650000D02*
X96350000Y-102650018D01*
X111870000Y-97820008D02*
X111849992Y-97800000D01*
X110050000Y-96450000D02*
X110050000Y-96350000D01*
X110050000Y-96350000D02*
X109750000Y-96050000D01*
D17*
X99850000Y-107050000D02*
X99750000Y-107150000D01*
X99750000Y-107150000D02*
X99750000Y-107350000D01*
X100949994Y-106830006D02*
X100949994Y-107350000D01*
X101250000Y-106530000D02*
X100949994Y-106830006D01*
X102250000Y-106750000D02*
X101650000Y-107350000D01*
X102250000Y-106600000D02*
X102250000Y-106750000D01*
D16*
X97300000Y-108900000D02*
X97475000Y-108725000D01*
X96730000Y-108900000D02*
X97300000Y-108900000D01*
X97525000Y-107525000D02*
X97525000Y-108675000D01*
X97525000Y-108675000D02*
X97475000Y-108725000D01*
X99400000Y-112025000D02*
X98525000Y-112025000D01*
X101075000Y-112025000D02*
X99400000Y-112025000D01*
X101250000Y-112095000D02*
X101075000Y-112025000D01*
X97525000Y-112225000D02*
X97375000Y-112675000D01*
X102400000Y-110400000D02*
X102400000Y-109075004D01*
X102400000Y-109075004D02*
X102500000Y-108975004D01*
D18*
X102904996Y-108975004D02*
X102500000Y-108975004D01*
D16*
X103250004Y-108225000D02*
X102500000Y-108975004D01*
X103345000Y-108225000D02*
X103250004Y-108225000D01*
D18*
X102220000Y-111595000D02*
X102025000Y-111400000D01*
X102220000Y-111700000D02*
X102220000Y-111595000D01*
X102220000Y-112245000D02*
X102125000Y-112150000D01*
X102220000Y-112675000D02*
X102220000Y-112245000D01*
X106590000Y-106720000D02*
X106470000Y-106600000D01*
X93650000Y-103591737D02*
X93465652Y-103407389D01*
X93465652Y-103407389D02*
X93215653Y-103157390D01*
X93650000Y-103700000D02*
X93650000Y-103591737D01*
D16*
X89975000Y-110850000D02*
X90970000Y-110850000D01*
X89680000Y-111145000D02*
X89975000Y-110850000D01*
D18*
X88155000Y-109465000D02*
X87940000Y-109680000D01*
X88155000Y-109380000D02*
X88155000Y-109465000D01*
X86953367Y-107860000D02*
X87196979Y-108103612D01*
X86925000Y-107860000D02*
X86953367Y-107860000D01*
X88820000Y-104350000D02*
X88850000Y-104320000D01*
X88500000Y-104350000D02*
X88820000Y-104350000D01*
X109110000Y-112210000D02*
X109120000Y-112220000D01*
X109110000Y-111990000D02*
X109110000Y-112210000D01*
X112205000Y-111075000D02*
X112205000Y-111474777D01*
X112205000Y-111474777D02*
X112145137Y-111534640D01*
X89405000Y-111870000D02*
X88640000Y-111870000D01*
X89680000Y-111595000D02*
X89405000Y-111870000D01*
X89680000Y-111145000D02*
X89680000Y-111595000D01*
X97600000Y-102120000D02*
X97600000Y-102325002D01*
X97600000Y-98350000D02*
X96459479Y-98350000D01*
X96459479Y-98350000D02*
X96359479Y-98250000D01*
X103397988Y-97850001D02*
X104600000Y-96647989D01*
X102149984Y-98100000D02*
X102399983Y-97850001D01*
X102399983Y-97850001D02*
X103397988Y-97850001D01*
X102790892Y-101946005D02*
X103144445Y-101946005D01*
X102353995Y-101946005D02*
X102790892Y-101946005D01*
D16*
X100601659Y-114223341D02*
X100525000Y-114300000D01*
X100601659Y-113936902D02*
X100601659Y-114223341D01*
X100351660Y-113686903D02*
X100601659Y-113936902D01*
X100250000Y-113585243D02*
X100351660Y-113686903D01*
X100250000Y-113080000D02*
X100250000Y-113585243D01*
X100275000Y-113055000D02*
X100250000Y-113080000D01*
X101150000Y-113388561D02*
X100601659Y-113936902D01*
X101150000Y-113055000D02*
X101150000Y-113388561D01*
X101125000Y-113080000D02*
X101150000Y-113055000D01*
X101125000Y-113375000D02*
X101125000Y-113080000D01*
X112725000Y-101875000D02*
X112725000Y-101750000D01*
X112725000Y-101750000D02*
X112500000Y-101525000D01*
X112825000Y-108375000D02*
X112825000Y-108575000D01*
X112825000Y-108575000D02*
X112725000Y-108675000D01*
D18*
X111050000Y-105200000D02*
X111050000Y-105450000D01*
X111050000Y-105450000D02*
X111075000Y-105475000D01*
D16*
X99625000Y-113900000D02*
X99625000Y-114300000D01*
X99625000Y-114143302D02*
X99648119Y-114120183D01*
X99400000Y-113125000D02*
X99400000Y-113675000D01*
X99400000Y-113675000D02*
X99625000Y-113900000D01*
X99625000Y-114300000D02*
X99625000Y-114143302D01*
X112550000Y-102050000D02*
X112725000Y-101875000D01*
X111375000Y-102050000D02*
X112550000Y-102050000D01*
D18*
X106975000Y-98450000D02*
X106975000Y-98325000D01*
X106200000Y-99225000D02*
X106975000Y-98450000D01*
X105975000Y-99225000D02*
X106200000Y-99225000D01*
D16*
X106115000Y-99375000D02*
X106000000Y-99375000D01*
X107225000Y-98265000D02*
X106115000Y-99375000D01*
D18*
X108700000Y-98300000D02*
X108700000Y-98240024D01*
D16*
X108700000Y-98240000D02*
X108700000Y-98240024D01*
X94180000Y-109590000D02*
X94675000Y-110085000D01*
X93625000Y-109590000D02*
X94180000Y-109590000D01*
D18*
X112260000Y-109975000D02*
X112260000Y-109670000D01*
X112725000Y-109205000D02*
X112725000Y-108675000D01*
X112260000Y-109670000D02*
X112725000Y-109205000D01*
X91973501Y-108436481D02*
X91973501Y-107676499D01*
X91972552Y-108437430D02*
X91973501Y-108436481D01*
X91973501Y-107676499D02*
X92500000Y-107150000D01*
X91972552Y-109222552D02*
X91972552Y-108437430D01*
X92340000Y-109590000D02*
X91972552Y-109222552D01*
X94180000Y-109590000D02*
X92340000Y-109590000D01*
X86390000Y-109380000D02*
X85960000Y-108950000D01*
X86605000Y-109380000D02*
X86390000Y-109380000D01*
X88355000Y-108070000D02*
X88355000Y-107783191D01*
X88355000Y-107783191D02*
X88534692Y-107603499D01*
X110150000Y-111780000D02*
X110150000Y-112110000D01*
X105175000Y-100300000D02*
X105685000Y-100810000D01*
X105685000Y-100810000D02*
X106039998Y-100810000D01*
D16*
X103575000Y-99025000D02*
X103425000Y-98875000D01*
X103575000Y-100300000D02*
X103575000Y-99025000D01*
X112725000Y-103475000D02*
X113000000Y-103475000D01*
X113375000Y-103850000D02*
X114150000Y-103850000D01*
X113000000Y-103475000D02*
X113375000Y-103850000D01*
D18*
X93600000Y-85350000D02*
X92550000Y-84300000D01*
X94300000Y-85350000D02*
X93600000Y-85350000D01*
X87790000Y-96040000D02*
X87560000Y-95810000D01*
X87790000Y-96470000D02*
X87790000Y-96040000D01*
X101027000Y-82650000D02*
X100650000Y-82650000D01*
X101588500Y-83211500D02*
X101027000Y-82650000D01*
X101588500Y-83211500D02*
X102800000Y-84423000D01*
X102800000Y-84423000D02*
X102800000Y-85200000D01*
X88790000Y-96130000D02*
X88440000Y-95780000D01*
X88790000Y-96460000D02*
X88790000Y-96130000D01*
X89619999Y-95979999D02*
X89370000Y-95730000D01*
X89790000Y-96150000D02*
X89619999Y-95979999D01*
X89790000Y-96470000D02*
X89790000Y-96150000D01*
X94170000Y-108261988D02*
X94060948Y-108371040D01*
X95876697Y-105110689D02*
X94170000Y-106817386D01*
X98569163Y-105110689D02*
X95876697Y-105110689D01*
X100229847Y-103450002D02*
X98569163Y-105110689D01*
X104946449Y-103450002D02*
X100229847Y-103450002D01*
X106121447Y-104625000D02*
X104946449Y-103450002D01*
X106475000Y-104625000D02*
X106121447Y-104625000D01*
X94170000Y-106817386D02*
X94170000Y-108261988D01*
X108470000Y-110030000D02*
X107975000Y-109535000D01*
X109420000Y-110030000D02*
X108470000Y-110030000D01*
X107975000Y-109535000D02*
X107975000Y-108225000D01*
X110150000Y-110760000D02*
X109420000Y-110030000D01*
X105771974Y-103245981D02*
X105321973Y-102795980D01*
X98298259Y-104456667D02*
X95605793Y-104456667D01*
X93515978Y-106546482D02*
X93515978Y-107496485D01*
X93515978Y-107496485D02*
X93014488Y-107997974D01*
X93014488Y-107997974D02*
X93014488Y-108286579D01*
X95605793Y-104456667D02*
X93515978Y-106546482D01*
X99958946Y-102795980D02*
X98298259Y-104456667D01*
X109430962Y-103245981D02*
X105771974Y-103245981D01*
X110088500Y-103903519D02*
X109430962Y-103245981D01*
X110088500Y-106111500D02*
X110088500Y-103903519D01*
X107975000Y-108225000D02*
X110088500Y-106111500D01*
X105321973Y-102795980D02*
X99958946Y-102795980D01*
X109566414Y-102918970D02*
X105918970Y-102918970D01*
X110415511Y-106709489D02*
X110415511Y-103768067D01*
X92486053Y-108063947D02*
X92486053Y-108762092D01*
X110415511Y-103768067D02*
X109566414Y-102918970D01*
X105918970Y-102918970D02*
X105468969Y-102468969D01*
X98162807Y-104129656D02*
X95470341Y-104129656D01*
X109825000Y-107300000D02*
X110415511Y-106709489D01*
X105468969Y-102468969D02*
X99823494Y-102468969D01*
X95470341Y-104129656D02*
X93188967Y-106411030D01*
X93188967Y-106411030D02*
X93188967Y-107361033D01*
X93188967Y-107361033D02*
X92486053Y-108063947D01*
X99823494Y-102468969D02*
X98162807Y-104129656D01*
X100094398Y-103122991D02*
X98433711Y-104783678D01*
X95741245Y-104783678D02*
X93842989Y-106681934D01*
X93527998Y-107946928D02*
X93527998Y-108824891D01*
X98433711Y-104783678D02*
X95741245Y-104783678D01*
X93842989Y-107631937D02*
X93527998Y-107946928D01*
X93842989Y-106681934D02*
X93842989Y-107631937D01*
X105186521Y-103122991D02*
X100094398Y-103122991D01*
X105636522Y-103572992D02*
X105186521Y-103122991D01*
X108997992Y-103572992D02*
X105636522Y-103572992D01*
X109575000Y-104150000D02*
X108997992Y-103572992D01*
X89950000Y-104100000D02*
X90650000Y-104100000D01*
X91050000Y-104500000D02*
X91050000Y-105600000D01*
X90650000Y-104100000D02*
X91050000Y-104500000D01*
X88477010Y-103527010D02*
X89177010Y-103527010D01*
X89177010Y-103527010D02*
X89750000Y-104100000D01*
X87290025Y-102280709D02*
X87290025Y-102340025D01*
X89750000Y-104100000D02*
X89950000Y-104100000D01*
X87290025Y-102340025D02*
X88477010Y-103527010D01*
X88929433Y-103200000D02*
X89950000Y-103200000D01*
X88010006Y-102280573D02*
X88929433Y-103200000D01*
X89950000Y-103200000D02*
X90600000Y-103200000D01*
X90600000Y-103200000D02*
X91000000Y-102800000D01*
X91000000Y-101650000D02*
X91050000Y-101600000D01*
X91000000Y-102800000D02*
X91000000Y-101650000D01*
X98728310Y-97400012D02*
X102940509Y-97400012D01*
X102940509Y-97400012D02*
X103700000Y-96640521D01*
X104472980Y-97713510D02*
X104400000Y-97713510D01*
X105500000Y-96686490D02*
X104472980Y-97713510D01*
X96361786Y-99991786D02*
X96460000Y-100090000D01*
X96361786Y-99000869D02*
X96361786Y-99991786D01*
X95493559Y-113240561D02*
X95493559Y-113241872D01*
X95476499Y-113223501D02*
X95493559Y-113240561D01*
X90437011Y-108614549D02*
X93970854Y-112148392D01*
X88600000Y-106286500D02*
X89298963Y-106286500D01*
X89298963Y-106286500D02*
X90437011Y-107424548D01*
X90437011Y-107424548D02*
X90437011Y-108614549D01*
X93970854Y-112148392D02*
X94400079Y-112148392D01*
X94400079Y-112148392D02*
X95493559Y-113241872D01*
X90090000Y-107570000D02*
X89500000Y-106980000D01*
X90090000Y-108730000D02*
X90090000Y-107570000D01*
X94093111Y-112733111D02*
X90090000Y-108730000D01*
X89500000Y-106980000D02*
X87940000Y-106980000D01*
X94256898Y-112733111D02*
X94093111Y-112733111D01*
X95849999Y-112300001D02*
X95600000Y-112550000D01*
X103988510Y-105255977D02*
X103938510Y-105305977D01*
X95849999Y-111712463D02*
X95849999Y-112300001D01*
X98421950Y-109140512D02*
X95849999Y-111712463D01*
X101051981Y-109140512D02*
X98421950Y-109140512D01*
X103938510Y-106253983D02*
X101051981Y-109140512D01*
X103938510Y-105305977D02*
X103938510Y-106253983D01*
X103251268Y-106474946D02*
X103251268Y-106160755D01*
X98286499Y-108813501D02*
X100912713Y-108813501D01*
X100912713Y-108813501D02*
X103251268Y-106474946D01*
X95400000Y-111700000D02*
X98286499Y-108813501D01*
X95250000Y-111700000D02*
X95400000Y-111700000D01*
X106347493Y-100100172D02*
X105993940Y-100100172D01*
X106975000Y-99225000D02*
X106975000Y-99472665D01*
X106975000Y-99472665D02*
X106347493Y-100100172D01*
X98027355Y-103802645D02*
X96886499Y-103802645D01*
X99600000Y-102230000D02*
X98027355Y-103802645D01*
X99600000Y-101500000D02*
X99600000Y-102230000D01*
X102606220Y-100625000D02*
X100475000Y-100625000D01*
X103232816Y-101251596D02*
X102606220Y-100625000D01*
X96886499Y-103802645D02*
X96700000Y-103616146D01*
X100475000Y-100625000D02*
X99600000Y-101500000D01*
D16*
X112650000Y-106600000D02*
X112825000Y-106775000D01*
X111375000Y-106600000D02*
X112650000Y-106600000D01*
D17*
X95160012Y-102354995D02*
X95410011Y-102104996D01*
X94950000Y-102565005D02*
X95160012Y-102354995D01*
X94950000Y-102650000D02*
X94950000Y-102565005D01*
D18*
X88800000Y-98450000D02*
X88800000Y-97650000D01*
X104400000Y-110600000D02*
X104491830Y-110508170D01*
X104491830Y-110508170D02*
X107031830Y-110508170D01*
X106940000Y-110600000D02*
X107031830Y-110508170D01*
X91295224Y-112595224D02*
X90628963Y-112595224D01*
X107090000Y-112770000D02*
X106830000Y-113780000D01*
X101825000Y-115675000D02*
X100625000Y-115725000D01*
X92925000Y-114225000D02*
X91295224Y-112595224D01*
X107052012Y-110528352D02*
X107090000Y-112770000D01*
X99675000Y-115725000D02*
X98350000Y-115650000D01*
X98350000Y-115650000D02*
X96306312Y-115388772D01*
X103778869Y-115370000D02*
X101825000Y-115675000D01*
X100625000Y-115725000D02*
X99675000Y-115725000D01*
X103969894Y-115327076D02*
X103778869Y-115370000D01*
X106830000Y-113780000D02*
X106340000Y-114530000D01*
X96306312Y-115388772D02*
X92925000Y-114225000D01*
X107031830Y-110508170D02*
X107052012Y-110528352D01*
X106340000Y-114530000D02*
X103969894Y-115327076D01*
X89974302Y-100150000D02*
X89410000Y-100150000D01*
X90383510Y-99740792D02*
X89974302Y-100150000D01*
X90383510Y-99109930D02*
X90383510Y-99740792D01*
X89800000Y-97650000D02*
X89800000Y-98526420D01*
X89800000Y-98526420D02*
X90383510Y-99109930D01*
X90300000Y-112000000D02*
X90370000Y-111930000D01*
X100519677Y-115275000D02*
X98175000Y-115275000D01*
X102024951Y-114126818D02*
X101667859Y-114126818D01*
X90370000Y-111930000D02*
X90411033Y-111930000D01*
X96285597Y-114905597D02*
X93100000Y-113875000D01*
X91155000Y-111930000D02*
X90411033Y-111930000D01*
X101667859Y-114126818D02*
X100519677Y-115275000D01*
X93100000Y-113875000D02*
X91155000Y-111930000D01*
X98175000Y-115275000D02*
X96285597Y-114905597D01*
X102274950Y-114376817D02*
X102024951Y-114126818D01*
X87800000Y-97650000D02*
X87800000Y-98450000D01*
X106674303Y-115167499D02*
X106688032Y-115161966D01*
X106424246Y-115264029D02*
X106674303Y-115167499D01*
X106172811Y-115356856D02*
X106424246Y-115264029D01*
X105920057Y-115445960D02*
X106172811Y-115356856D01*
X105410845Y-115612916D02*
X105666041Y-115531322D01*
X104896705Y-115764863D02*
X105154281Y-115690800D01*
X104638009Y-115835136D02*
X104896705Y-115764863D01*
X103856406Y-116022908D02*
X104117954Y-115964136D01*
X103331061Y-116128819D02*
X103594128Y-116077798D01*
X103067257Y-116175961D02*
X103331061Y-116128819D01*
X102802752Y-116219215D02*
X103067257Y-116175961D01*
X102537636Y-116258568D02*
X102802752Y-116219215D01*
X102272024Y-116294002D02*
X102537636Y-116258568D01*
X102005896Y-116325523D02*
X102272024Y-116294002D01*
X101739323Y-116353118D02*
X102005896Y-116325523D01*
X103594128Y-116077798D02*
X103856406Y-116022908D01*
X101205073Y-116396512D02*
X101472368Y-116376783D01*
X100937532Y-116412301D02*
X101205073Y-116396512D01*
X100937530Y-116412299D02*
X100937532Y-116412301D01*
X99062456Y-116412299D02*
X100937530Y-116412299D01*
X98794908Y-116396510D02*
X99062456Y-116412299D01*
X98527629Y-116376782D02*
X98794908Y-116396510D01*
X98260666Y-116353116D02*
X98527629Y-116376782D01*
X93575738Y-115264023D02*
X93827178Y-115356852D01*
X93325688Y-115167496D02*
X93575738Y-115264023D01*
X95361838Y-115835095D02*
X95621432Y-115901522D01*
X92584652Y-114856045D02*
X92830085Y-114963481D01*
X105666041Y-115531322D02*
X105920057Y-115445960D01*
X91619213Y-114390338D02*
X91857961Y-114512083D01*
X93827178Y-115356852D02*
X94079928Y-115445955D01*
X92098477Y-114630295D02*
X92340675Y-114744934D01*
X105154281Y-115690800D02*
X105410845Y-115612916D01*
X91857961Y-114512083D02*
X92098477Y-114630295D01*
X96143568Y-116022901D02*
X96405866Y-116077796D01*
X92830085Y-114963481D02*
X93077198Y-115067340D01*
X104117954Y-115964136D02*
X104378505Y-115901539D01*
X93077198Y-115067340D02*
X93325688Y-115167496D01*
X91262358Y-114199413D02*
X91382229Y-114265060D01*
X104378505Y-115901539D02*
X104638009Y-115835136D01*
X91382229Y-114265060D02*
X91619213Y-114390338D01*
X92340675Y-114744934D02*
X92584652Y-114856045D01*
X96932741Y-116175960D02*
X97197241Y-116219213D01*
X94333935Y-115531314D02*
X94589144Y-115612912D01*
X101472368Y-116376783D02*
X101739323Y-116353118D01*
X97727973Y-116294001D02*
X97994101Y-116325522D01*
X91262358Y-113986777D02*
X91262358Y-114199413D01*
X94845696Y-115690793D02*
X95103206Y-115764837D01*
X94079928Y-115445955D02*
X94333935Y-115531314D01*
X94589144Y-115612912D02*
X94845696Y-115690793D01*
X96668922Y-116128815D02*
X96932741Y-116175960D01*
X95103206Y-115764837D02*
X95361838Y-115835095D01*
X95621432Y-115901522D02*
X95882027Y-115964129D01*
X95882027Y-115964129D02*
X96143568Y-116022901D01*
X96405866Y-116077796D02*
X96668922Y-116128815D01*
X97197241Y-116219213D02*
X97462377Y-116258569D01*
X97462377Y-116258569D02*
X97727973Y-116294001D01*
X97994101Y-116325522D02*
X98260666Y-116353116D01*
X108060000Y-113070000D02*
X108150000Y-111870018D01*
X107510000Y-114460000D02*
X108060000Y-113070000D01*
X106688036Y-115161964D02*
X107510000Y-114460000D01*
X106674303Y-115167499D02*
X106688036Y-115161964D01*
X106517510Y-112244000D02*
X106517510Y-112426070D01*
X106520000Y-112780000D02*
X106517510Y-112244000D01*
X106166965Y-114023035D02*
X106500000Y-113370000D01*
X104233255Y-114893500D02*
X105835260Y-114354740D01*
X105835260Y-114354740D02*
X106166965Y-114023035D01*
X104050080Y-114893500D02*
X104233255Y-114893500D01*
X106500000Y-113370000D02*
X106520000Y-112780000D01*
X102220000Y-114980000D02*
X104050080Y-114893500D01*
X101738504Y-114886490D02*
X102220000Y-114980000D01*
X91000000Y-100100000D02*
X92166065Y-100100000D01*
X93744298Y-100256541D02*
X92322606Y-100256541D01*
X95025000Y-100100000D02*
X93900839Y-100100000D01*
X93900839Y-100100000D02*
X93744298Y-100256541D01*
X92166065Y-100100000D02*
X92322606Y-100256541D01*
D17*
X100083475Y-105650000D02*
X100128303Y-105605172D01*
X100128303Y-105605172D02*
X100378302Y-105355173D01*
X99850000Y-105650000D02*
X100083475Y-105650000D01*
X102463149Y-105389690D02*
X102463149Y-105036137D01*
X102250000Y-105500000D02*
X102352839Y-105500000D01*
X102352839Y-105500000D02*
X102463149Y-105389690D01*
D16*
X94963510Y-107605232D02*
X94963510Y-107251679D01*
X95099990Y-108099990D02*
X94963510Y-107963510D01*
X95099990Y-108127824D02*
X95099990Y-108099990D01*
X94963510Y-107963510D02*
X94963510Y-107605232D01*
X95450010Y-108450010D02*
X95422176Y-108450010D01*
X95422176Y-108450010D02*
X95099990Y-108127824D01*
X95770000Y-108770000D02*
X95450010Y-108450010D01*
X95770000Y-108900000D02*
X95770000Y-108770000D01*
X97375000Y-114109480D02*
X97375000Y-113775000D01*
X97575000Y-114309480D02*
X97375000Y-114109480D01*
X97859480Y-114309480D02*
X97575000Y-114309480D01*
X98180000Y-114450000D02*
X97859480Y-114309480D01*
X89380000Y-109295000D02*
X89680000Y-109595000D01*
X89380000Y-108415000D02*
X89380000Y-109295000D01*
D18*
X89265000Y-108270000D02*
X89370000Y-108375000D01*
X89680000Y-109620000D02*
X88870000Y-110430000D01*
X89680000Y-109595000D02*
X89680000Y-109620000D01*
D17*
X103250000Y-112531497D02*
X103248812Y-112532685D01*
X103250000Y-111625000D02*
X103250000Y-112531497D01*
D18*
X111245000Y-110045000D02*
X110900000Y-109700000D01*
X111245000Y-111075000D02*
X111245000Y-110045000D01*
X94750000Y-103700000D02*
X94750000Y-103739982D01*
X94750000Y-103739982D02*
X94690000Y-103799982D01*
X105539999Y-107279999D02*
X105530000Y-107270000D01*
X106640001Y-107279999D02*
X105539999Y-107279999D01*
X106890000Y-107030000D02*
X106640001Y-107279999D01*
X108160000Y-107030000D02*
X106890000Y-107030000D01*
X105320000Y-106590000D02*
X105030000Y-106590000D01*
X107627979Y-106086498D02*
X105823502Y-106086498D01*
X108000001Y-105714476D02*
X107627979Y-106086498D01*
X105823502Y-106086498D02*
X105320000Y-106590000D01*
X100203185Y-96127011D02*
X94772989Y-96127011D01*
X106790511Y-96127011D02*
X101685452Y-96127011D01*
X100640561Y-95689635D02*
X100203185Y-96127011D01*
X94772989Y-96127011D02*
X93846490Y-97053510D01*
X93846490Y-97053510D02*
X93846490Y-99025000D01*
X101685452Y-96127011D02*
X100985452Y-96827011D01*
X100985452Y-96827011D02*
X96044479Y-96827011D01*
X96044479Y-96827011D02*
X93846490Y-99025000D01*
X107250000Y-96586500D02*
X106790511Y-96127011D01*
X92375000Y-99553609D02*
X92609892Y-99788501D01*
X93436542Y-99788501D02*
X93846490Y-99378553D01*
X93846490Y-99378553D02*
X93846490Y-99025000D01*
X92375000Y-95407468D02*
X92375000Y-99553609D01*
X92609892Y-99788501D02*
X93436542Y-99788501D01*
X99725000Y-95800000D02*
X94389338Y-95800000D01*
X94389338Y-95800000D02*
X93175007Y-97014331D01*
X99950000Y-95575000D02*
X99725000Y-95800000D01*
X93175007Y-97014331D02*
X92925008Y-97264330D01*
X95124999Y-96950001D02*
X94875000Y-97200000D01*
X107035907Y-95610271D02*
X101739729Y-95610271D01*
X107285906Y-95860270D02*
X107035907Y-95610271D01*
X101739729Y-95610271D02*
X100850000Y-96500000D01*
X95575000Y-96500000D02*
X95124999Y-96950001D01*
X100850000Y-96500000D02*
X95575000Y-96500000D01*
X92000000Y-95804821D02*
X91651379Y-95456200D01*
X91651379Y-95456200D02*
X91651379Y-95407468D01*
X92000000Y-96700000D02*
X92000000Y-95804821D01*
X91025000Y-97325000D02*
X91375000Y-97325000D01*
X91375000Y-97325000D02*
X92000000Y-96700000D01*
X105050840Y-112550000D02*
X104544820Y-113056020D01*
X104544820Y-113056020D02*
X104294821Y-113306019D01*
X105200000Y-112550000D02*
X105050840Y-112550000D01*
X104410000Y-113421198D02*
X104294821Y-113306019D01*
X104410000Y-113660000D02*
X104410000Y-113421198D01*
X104294821Y-112754821D02*
X104225000Y-112685000D01*
X104294821Y-113306019D02*
X104294821Y-112754821D01*
X104225000Y-111650000D02*
X104225000Y-111665000D01*
X104225000Y-111665000D02*
X104270650Y-111665000D01*
X105601024Y-111126018D02*
X106025006Y-111550000D01*
X104809632Y-111126018D02*
X105601024Y-111126018D01*
X104270650Y-111665000D02*
X104809632Y-111126018D01*
D16*
X105475000Y-98325000D02*
X105975000Y-98325000D01*
X104925000Y-98875000D02*
X105475000Y-98325000D01*
D18*
X104925000Y-98875000D02*
X104925000Y-98963510D01*
D19*
X101864664Y-104535336D02*
X104189664Y-104535336D01*
X104189664Y-104535336D02*
X104625000Y-104100000D01*
X101675000Y-104725000D02*
X101864664Y-104535336D01*
D18*
X107808510Y-97964930D02*
X107808510Y-99920043D01*
X107575070Y-97731490D02*
X107808510Y-97964930D01*
X106568510Y-97731490D02*
X107575070Y-97731490D01*
X105975000Y-98325000D02*
X106568510Y-97731490D01*
X107178553Y-100550000D02*
X106825000Y-100550000D01*
X107808510Y-99920043D02*
X107178553Y-100550000D01*
X104083510Y-114243510D02*
X104926490Y-114243510D01*
X104926490Y-114243510D02*
X105230000Y-113940000D01*
X103403601Y-113563601D02*
X104083510Y-114243510D01*
X105200000Y-111650000D02*
X105199908Y-111650000D01*
D16*
X94640000Y-108861710D02*
X94680793Y-108820917D01*
X93625000Y-110925000D02*
X93600000Y-110950000D01*
X93625000Y-110610000D02*
X93625000Y-110925000D01*
D18*
X108875000Y-105200000D02*
X106423856Y-105200000D01*
X106423856Y-105200000D02*
X106050868Y-105572988D01*
X109400000Y-105725000D02*
X108875000Y-105200000D01*
D19*
X96924984Y-105425000D02*
X96724984Y-105625000D01*
X98950000Y-105425000D02*
X96924984Y-105425000D01*
X100565000Y-103810000D02*
X98950000Y-105425000D01*
X102460810Y-103810000D02*
X100565000Y-103810000D01*
X102650000Y-103999190D02*
X102460810Y-103810000D01*
D18*
X96500000Y-112671447D02*
X96500000Y-113025000D01*
X104265521Y-105984479D02*
X104265521Y-106389434D01*
X105275000Y-104975000D02*
X104265521Y-105984479D01*
X96500000Y-111529253D02*
X96500000Y-112671447D01*
X104265521Y-106389434D02*
X101187432Y-109467523D01*
X101187432Y-109467523D02*
X98561730Y-109467523D01*
X98561730Y-109467523D02*
X96500000Y-111529253D01*
X103931653Y-101292134D02*
X105238624Y-101292134D01*
X105238624Y-101292134D02*
X106146490Y-102200000D01*
X107623000Y-110650000D02*
X108050000Y-110650000D01*
X107550000Y-110577000D02*
X107623000Y-110650000D01*
X107550000Y-110330018D02*
X107550000Y-110577000D01*
X105296458Y-108986500D02*
X106304626Y-109994668D01*
X107278312Y-109994668D02*
X107550000Y-110266356D01*
X106304626Y-109994668D02*
X107278312Y-109994668D01*
X107550000Y-110266356D02*
X107550000Y-110330018D01*
X88250000Y-100610044D02*
X88360000Y-100500044D01*
X88250000Y-101500000D02*
X88250000Y-100610044D01*
X107550000Y-112523618D02*
X107550000Y-110330018D01*
X107550000Y-112989998D02*
X107550000Y-112523618D01*
X107090000Y-114230000D02*
X107550000Y-112989998D01*
X106580000Y-114800000D02*
X107090000Y-114230000D01*
X105061578Y-115377197D02*
X106580000Y-114800000D01*
X104808623Y-115449930D02*
X105061578Y-115377197D01*
X104554717Y-115518901D02*
X104808623Y-115449930D01*
X98030272Y-116000508D02*
X98291969Y-116027598D01*
X97768854Y-115969546D02*
X98030272Y-116000508D01*
X97247700Y-115896109D02*
X97508003Y-115934748D01*
X96470525Y-115757233D02*
X96728850Y-115807333D01*
X102752282Y-115896114D02*
X103012055Y-115853635D01*
X96987925Y-115853630D02*
X97247700Y-115896109D01*
X96212983Y-115703334D02*
X96470525Y-115757233D01*
X96142586Y-115687515D02*
X96212983Y-115703334D01*
X97508003Y-115934748D02*
X97768854Y-115969546D01*
X92775000Y-114575000D02*
X96142586Y-115687515D01*
X91500000Y-113500000D02*
X92775000Y-114575000D01*
X96728850Y-115807333D02*
X96987925Y-115853630D01*
X101425000Y-116050000D02*
X101708030Y-116027600D01*
X90964286Y-113285714D02*
X91500000Y-113500000D01*
X104043891Y-115645613D02*
X104299760Y-115584142D01*
X98291969Y-116027598D02*
X98554174Y-116050841D01*
X98554174Y-116050841D02*
X98816585Y-116070209D01*
X103786950Y-115703350D02*
X104043891Y-115645613D01*
X98816585Y-116070209D02*
X101183395Y-116070209D01*
X101183395Y-116070209D02*
X101425000Y-116050000D01*
X101708030Y-116027600D02*
X101969735Y-116000509D01*
X101969735Y-116000509D02*
X102231155Y-115969547D01*
X102231155Y-115969547D02*
X102492012Y-115934748D01*
X102492012Y-115934748D02*
X102752282Y-115896114D01*
X103012055Y-115853635D02*
X103271127Y-115807339D01*
X103271127Y-115807339D02*
X103529437Y-115757242D01*
X103529437Y-115757242D02*
X103786950Y-115703350D01*
X104299760Y-115584142D02*
X104554717Y-115518901D01*
D16*
X95900000Y-106600000D02*
X95700000Y-106400000D01*
X95900000Y-107525000D02*
X95900000Y-106600000D01*
D18*
X95512287Y-106587713D02*
X95700000Y-106400000D01*
X95512287Y-106663927D02*
X95512287Y-106587713D01*
D16*
X104305000Y-109320000D02*
X104305000Y-108225000D01*
X104100000Y-109525000D02*
X104305000Y-109320000D01*
X104100000Y-109725000D02*
X104100000Y-109525000D01*
D18*
X104728676Y-108500000D02*
X104697262Y-108468586D01*
X104697262Y-108468586D02*
X104697262Y-108372262D01*
D16*
X104305000Y-108225000D02*
X104175000Y-108225000D01*
X104322262Y-108372262D02*
X104697262Y-108372262D01*
X104175000Y-108225000D02*
X104322262Y-108372262D01*
D18*
X98350000Y-113125000D02*
X98525000Y-113125000D01*
X98350000Y-113731424D02*
X98350000Y-113125000D01*
X98890000Y-114540000D02*
X98350000Y-113731424D01*
D16*
X85150000Y-104700000D02*
X85100000Y-104750000D01*
X85250000Y-104700000D02*
X85150000Y-104700000D01*
D18*
X91210000Y-108390000D02*
X91210000Y-108070000D01*
X91210000Y-107683000D02*
X88877000Y-105350000D01*
X88877000Y-105350000D02*
X88500000Y-105350000D01*
X91210000Y-108070000D02*
X91210000Y-107683000D01*
D16*
X84820000Y-107405000D02*
X85275000Y-107860000D01*
X84820000Y-107220000D02*
X84820000Y-107405000D01*
X84350000Y-106750000D02*
X84820000Y-107220000D01*
X84350000Y-106100000D02*
X84350000Y-106750000D01*
D20*
X104809405Y-80749171D02*
X106375759Y-81257087D01*
X107889632Y-81904875D01*
X109338559Y-82687202D01*
X110710627Y-83597633D01*
X111994521Y-84628663D01*
X113179696Y-85771819D01*
X114256385Y-87017687D01*
X114377553Y-87186722D01*
X112951451Y-87186217D01*
X112951451Y-86350000D01*
X112945659Y-86291190D01*
X112928504Y-86234640D01*
X112900647Y-86182523D01*
X112863158Y-86136842D01*
X112817477Y-86099353D01*
X112765360Y-86071496D01*
X112708810Y-86054341D01*
X112650000Y-86048549D01*
X111050000Y-86048549D01*
X110991190Y-86054341D01*
X110934640Y-86071496D01*
X110882523Y-86099353D01*
X110836842Y-86136842D01*
X110799353Y-86182523D01*
X110771496Y-86234640D01*
X110754341Y-86291190D01*
X110748549Y-86350000D01*
X110748549Y-87185437D01*
X106101451Y-87183791D01*
X106101451Y-86350000D01*
X106095659Y-86291190D01*
X106078504Y-86234640D01*
X106050647Y-86182523D01*
X106013158Y-86136842D01*
X105967477Y-86099353D01*
X105915360Y-86071496D01*
X105858810Y-86054341D01*
X105800000Y-86048549D01*
X104200000Y-86048549D01*
X104141190Y-86054341D01*
X104084640Y-86071496D01*
X104032523Y-86099353D01*
X103986842Y-86136842D01*
X103949353Y-86182523D01*
X103921496Y-86234640D01*
X103904341Y-86291190D01*
X103898549Y-86350000D01*
X103898549Y-87183011D01*
X103650000Y-87182923D01*
X103650000Y-80486481D01*
X104809405Y-80749171D01*
G04 #@! TA.AperFunction,Conductor*
D21*
G36*
X104809405Y-80749171D02*
G01*
X106375759Y-81257087D01*
X107889632Y-81904875D01*
X109338559Y-82687202D01*
X110710627Y-83597633D01*
X111994521Y-84628663D01*
X113179696Y-85771819D01*
X114256385Y-87017687D01*
X114377553Y-87186722D01*
X112951451Y-87186217D01*
X112951451Y-86350000D01*
X112945659Y-86291190D01*
X112928504Y-86234640D01*
X112900647Y-86182523D01*
X112863158Y-86136842D01*
X112817477Y-86099353D01*
X112765360Y-86071496D01*
X112708810Y-86054341D01*
X112650000Y-86048549D01*
X111050000Y-86048549D01*
X110991190Y-86054341D01*
X110934640Y-86071496D01*
X110882523Y-86099353D01*
X110836842Y-86136842D01*
X110799353Y-86182523D01*
X110771496Y-86234640D01*
X110754341Y-86291190D01*
X110748549Y-86350000D01*
X110748549Y-87185437D01*
X106101451Y-87183791D01*
X106101451Y-86350000D01*
X106095659Y-86291190D01*
X106078504Y-86234640D01*
X106050647Y-86182523D01*
X106013158Y-86136842D01*
X105967477Y-86099353D01*
X105915360Y-86071496D01*
X105858810Y-86054341D01*
X105800000Y-86048549D01*
X104200000Y-86048549D01*
X104141190Y-86054341D01*
X104084640Y-86071496D01*
X104032523Y-86099353D01*
X103986842Y-86136842D01*
X103949353Y-86182523D01*
X103921496Y-86234640D01*
X103904341Y-86291190D01*
X103898549Y-86350000D01*
X103898549Y-87183011D01*
X103650000Y-87182923D01*
X103650000Y-80486481D01*
X104809405Y-80749171D01*
G37*
G04 #@! TD.AperFunction*
D20*
X101571164Y-80168495D02*
X103203475Y-80385310D01*
X103250000Y-80395851D01*
X103250000Y-87182782D01*
X99251451Y-87181366D01*
X99251451Y-86350000D01*
X99245659Y-86291190D01*
X99228504Y-86234640D01*
X99200647Y-86182523D01*
X99163158Y-86136842D01*
X99117477Y-86099353D01*
X99065360Y-86071496D01*
X99008810Y-86054341D01*
X98950000Y-86048549D01*
X97350000Y-86048549D01*
X97291190Y-86054341D01*
X97234640Y-86071496D01*
X97182523Y-86099353D01*
X97136842Y-86136842D01*
X97099353Y-86182523D01*
X97071496Y-86234640D01*
X97054341Y-86291190D01*
X97048549Y-86350000D01*
X97048549Y-87180585D01*
X95250000Y-87179948D01*
X95250000Y-80741484D01*
X96650806Y-80412054D01*
X98281294Y-80181922D01*
X99925919Y-80100513D01*
X101571164Y-80168495D01*
G04 #@! TA.AperFunction,Conductor*
D21*
G36*
X101571164Y-80168495D02*
G01*
X103203475Y-80385310D01*
X103250000Y-80395851D01*
X103250000Y-87182782D01*
X99251451Y-87181366D01*
X99251451Y-86350000D01*
X99245659Y-86291190D01*
X99228504Y-86234640D01*
X99200647Y-86182523D01*
X99163158Y-86136842D01*
X99117477Y-86099353D01*
X99065360Y-86071496D01*
X99008810Y-86054341D01*
X98950000Y-86048549D01*
X97350000Y-86048549D01*
X97291190Y-86054341D01*
X97234640Y-86071496D01*
X97182523Y-86099353D01*
X97136842Y-86136842D01*
X97099353Y-86182523D01*
X97071496Y-86234640D01*
X97054341Y-86291190D01*
X97048549Y-86350000D01*
X97048549Y-87180585D01*
X95250000Y-87179948D01*
X95250000Y-80741484D01*
X96650806Y-80412054D01*
X98281294Y-80181922D01*
X99925919Y-80100513D01*
X101571164Y-80168495D01*
G37*
G04 #@! TD.AperFunction*
D20*
X94850000Y-87179807D02*
X85622736Y-87176540D01*
X85652401Y-87134434D01*
X86718882Y-85879823D01*
X87894684Y-84727031D01*
X89170128Y-83685547D01*
X90534714Y-82763950D01*
X91977202Y-81969824D01*
X93485741Y-81309698D01*
X94850000Y-80854974D01*
X94850000Y-87179807D01*
G04 #@! TA.AperFunction,Conductor*
D21*
G36*
X94850000Y-87179807D02*
G01*
X85622736Y-87176540D01*
X85652401Y-87134434D01*
X86718882Y-85879823D01*
X87894684Y-84727031D01*
X89170128Y-83685547D01*
X90534714Y-82763950D01*
X91977202Y-81969824D01*
X93485741Y-81309698D01*
X94850000Y-80854974D01*
X94850000Y-87179807D01*
G37*
G04 #@! TD.AperFunction*
D20*
X94911654Y-91499678D02*
X94948147Y-91509521D01*
X94965230Y-91526638D01*
X94978379Y-91575776D01*
X94998443Y-91650984D01*
X95005329Y-91669339D01*
X95015662Y-91685998D01*
X95024121Y-91695685D01*
X95078979Y-91750906D01*
X95094091Y-91763392D01*
X95111349Y-91772690D01*
X95123511Y-91776878D01*
X95198586Y-91797436D01*
X95224339Y-91800985D01*
X116999384Y-91944242D01*
X117318388Y-92819091D01*
X117355209Y-92938037D01*
X117402625Y-93173913D01*
X117403274Y-93398029D01*
X117360382Y-93617997D01*
X117275581Y-93825447D01*
X117152099Y-94012476D01*
X116994645Y-94171955D01*
X116809107Y-94297887D01*
X116588734Y-94391466D01*
X116519301Y-94413298D01*
X116519284Y-94413305D01*
X116519054Y-94413376D01*
X116390361Y-94453947D01*
X116390329Y-94453960D01*
X116389743Y-94454142D01*
X116260902Y-94495022D01*
X116260849Y-94495045D01*
X116259934Y-94495331D01*
X116131108Y-94536618D01*
X116131045Y-94536645D01*
X116129782Y-94537046D01*
X116001136Y-94578841D01*
X116001065Y-94578872D01*
X115999451Y-94579393D01*
X115871149Y-94621796D01*
X115871073Y-94621830D01*
X115869100Y-94622480D01*
X115741308Y-94665591D01*
X115741228Y-94665627D01*
X115738889Y-94666417D01*
X115611772Y-94710337D01*
X115611698Y-94710371D01*
X115608983Y-94711313D01*
X115482701Y-94756142D01*
X115482634Y-94756173D01*
X115479526Y-94757286D01*
X115354248Y-94803123D01*
X115354190Y-94803151D01*
X115350679Y-94804451D01*
X115226569Y-94851398D01*
X115226503Y-94851430D01*
X115223291Y-94852657D01*
X115141276Y-94884625D01*
X115141227Y-94884650D01*
X115137576Y-94886091D01*
X115015719Y-94935193D01*
X115015503Y-94935306D01*
X115015261Y-94935377D01*
X115010744Y-94937242D01*
X114890366Y-94987912D01*
X114889845Y-94988194D01*
X114889278Y-94988372D01*
X114884794Y-94990314D01*
X114765982Y-95042769D01*
X114765162Y-95043231D01*
X114764262Y-95043533D01*
X114759816Y-95045562D01*
X114642658Y-95100017D01*
X114641540Y-95100676D01*
X114640321Y-95101114D01*
X114635919Y-95103237D01*
X114520503Y-95159909D01*
X114519102Y-95160776D01*
X114517562Y-95161370D01*
X114513211Y-95163595D01*
X114509819Y-95165360D01*
X113731090Y-95174842D01*
X113713047Y-95174245D01*
X113417578Y-95151071D01*
X113413669Y-95150841D01*
X113394121Y-95150076D01*
X113390211Y-95150000D01*
X101375778Y-95150000D01*
X101356269Y-95151921D01*
X101337510Y-95157612D01*
X101327579Y-95162382D01*
X101322280Y-95165297D01*
X101308131Y-95175000D01*
X100835341Y-95175000D01*
X100800990Y-95160771D01*
X100694731Y-95139635D01*
X100586391Y-95139635D01*
X100480132Y-95160771D01*
X100445781Y-95175000D01*
X100327817Y-95175000D01*
X100300604Y-95147787D01*
X100210523Y-95087597D01*
X100110429Y-95046136D01*
X100004170Y-95025000D01*
X99895830Y-95025000D01*
X99789571Y-95046136D01*
X99689477Y-95087597D01*
X99599396Y-95147787D01*
X99572183Y-95175000D01*
X95599957Y-95175000D01*
X92872062Y-95170264D01*
X92862403Y-95146945D01*
X92802213Y-95056864D01*
X92725604Y-94980255D01*
X92635523Y-94920065D01*
X92535429Y-94878604D01*
X92429170Y-94857468D01*
X92320830Y-94857468D01*
X92214571Y-94878604D01*
X92114477Y-94920065D01*
X92024396Y-94980255D01*
X92013190Y-94991462D01*
X92001983Y-94980255D01*
X91911902Y-94920065D01*
X91811808Y-94878604D01*
X91705549Y-94857468D01*
X91597209Y-94857468D01*
X91490950Y-94878604D01*
X91390856Y-94920065D01*
X91300775Y-94980255D01*
X91224166Y-95056864D01*
X91163976Y-95146945D01*
X91155551Y-95167284D01*
X85473808Y-95157419D01*
X85405121Y-95123046D01*
X85403798Y-95122538D01*
X85402595Y-95121795D01*
X85398192Y-95119673D01*
X85281605Y-95064505D01*
X85280607Y-95064147D01*
X85279691Y-95063606D01*
X85275247Y-95061573D01*
X85156976Y-95008476D01*
X85156306Y-95008251D01*
X85155687Y-95007900D01*
X85151206Y-95005948D01*
X85031341Y-94954707D01*
X85030995Y-94954598D01*
X85030677Y-94954424D01*
X85026166Y-94952544D01*
X84904792Y-94902943D01*
X84904772Y-94902937D01*
X84904755Y-94902928D01*
X84900218Y-94901112D01*
X84777426Y-94852938D01*
X84777362Y-94852920D01*
X84774053Y-94851634D01*
X84691450Y-94820208D01*
X84691369Y-94820186D01*
X84688404Y-94819066D01*
X84563497Y-94772870D01*
X84563426Y-94772851D01*
X84560190Y-94771666D01*
X84434226Y-94726513D01*
X84434148Y-94726493D01*
X84431311Y-94725482D01*
X84304453Y-94681270D01*
X84304372Y-94681250D01*
X84301912Y-94680395D01*
X84174325Y-94637025D01*
X84174239Y-94637005D01*
X84172154Y-94636295D01*
X84044004Y-94593667D01*
X84043924Y-94593649D01*
X84042196Y-94593071D01*
X83913646Y-94551085D01*
X83913575Y-94551069D01*
X83912202Y-94550617D01*
X83783418Y-94509172D01*
X83783356Y-94509158D01*
X83782329Y-94508824D01*
X83653474Y-94467819D01*
X83653429Y-94467809D01*
X83652742Y-94467587D01*
X83523983Y-94426925D01*
X83523961Y-94426920D01*
X83523606Y-94426806D01*
X83411403Y-94391511D01*
X83189316Y-94297013D01*
X83004065Y-94170881D01*
X82846842Y-94011169D01*
X82723636Y-93823963D01*
X82639137Y-93616390D01*
X82596567Y-93396363D01*
X82597544Y-93172115D01*
X82643315Y-92945279D01*
X82803796Y-92493750D01*
X115148549Y-92493750D01*
X115148549Y-92931250D01*
X115158545Y-93032736D01*
X115188147Y-93130322D01*
X115236219Y-93220258D01*
X115300912Y-93299088D01*
X115379742Y-93363781D01*
X115469678Y-93411853D01*
X115567264Y-93441455D01*
X115668750Y-93451451D01*
X116181250Y-93451451D01*
X116282736Y-93441455D01*
X116380322Y-93411853D01*
X116470258Y-93363781D01*
X116549088Y-93299088D01*
X116613781Y-93220258D01*
X116661853Y-93130322D01*
X116691455Y-93032736D01*
X116701451Y-92931250D01*
X116701451Y-92493750D01*
X116691455Y-92392264D01*
X116661853Y-92294678D01*
X116613781Y-92204742D01*
X116549088Y-92125912D01*
X116470258Y-92061219D01*
X116380322Y-92013147D01*
X116282736Y-91983545D01*
X116181250Y-91973549D01*
X115668750Y-91973549D01*
X115567264Y-91983545D01*
X115469678Y-92013147D01*
X115379742Y-92061219D01*
X115300912Y-92125912D01*
X115236219Y-92204742D01*
X115188147Y-92294678D01*
X115158545Y-92392264D01*
X115148549Y-92493750D01*
X82803796Y-92493750D01*
X83165343Y-91476510D01*
X94911654Y-91499678D01*
G04 #@! TA.AperFunction,Conductor*
D21*
G36*
X94911654Y-91499678D02*
G01*
X94948147Y-91509521D01*
X94965230Y-91526638D01*
X94978379Y-91575776D01*
X94998443Y-91650984D01*
X95005329Y-91669339D01*
X95015662Y-91685998D01*
X95024121Y-91695685D01*
X95078979Y-91750906D01*
X95094091Y-91763392D01*
X95111349Y-91772690D01*
X95123511Y-91776878D01*
X95198586Y-91797436D01*
X95224339Y-91800985D01*
X116999384Y-91944242D01*
X117318388Y-92819091D01*
X117355209Y-92938037D01*
X117402625Y-93173913D01*
X117403274Y-93398029D01*
X117360382Y-93617997D01*
X117275581Y-93825447D01*
X117152099Y-94012476D01*
X116994645Y-94171955D01*
X116809107Y-94297887D01*
X116588734Y-94391466D01*
X116519301Y-94413298D01*
X116519284Y-94413305D01*
X116519054Y-94413376D01*
X116390361Y-94453947D01*
X116390329Y-94453960D01*
X116389743Y-94454142D01*
X116260902Y-94495022D01*
X116260849Y-94495045D01*
X116259934Y-94495331D01*
X116131108Y-94536618D01*
X116131045Y-94536645D01*
X116129782Y-94537046D01*
X116001136Y-94578841D01*
X116001065Y-94578872D01*
X115999451Y-94579393D01*
X115871149Y-94621796D01*
X115871073Y-94621830D01*
X115869100Y-94622480D01*
X115741308Y-94665591D01*
X115741228Y-94665627D01*
X115738889Y-94666417D01*
X115611772Y-94710337D01*
X115611698Y-94710371D01*
X115608983Y-94711313D01*
X115482701Y-94756142D01*
X115482634Y-94756173D01*
X115479526Y-94757286D01*
X115354248Y-94803123D01*
X115354190Y-94803151D01*
X115350679Y-94804451D01*
X115226569Y-94851398D01*
X115226503Y-94851430D01*
X115223291Y-94852657D01*
X115141276Y-94884625D01*
X115141227Y-94884650D01*
X115137576Y-94886091D01*
X115015719Y-94935193D01*
X115015503Y-94935306D01*
X115015261Y-94935377D01*
X115010744Y-94937242D01*
X114890366Y-94987912D01*
X114889845Y-94988194D01*
X114889278Y-94988372D01*
X114884794Y-94990314D01*
X114765982Y-95042769D01*
X114765162Y-95043231D01*
X114764262Y-95043533D01*
X114759816Y-95045562D01*
X114642658Y-95100017D01*
X114641540Y-95100676D01*
X114640321Y-95101114D01*
X114635919Y-95103237D01*
X114520503Y-95159909D01*
X114519102Y-95160776D01*
X114517562Y-95161370D01*
X114513211Y-95163595D01*
X114509819Y-95165360D01*
X113731090Y-95174842D01*
X113713047Y-95174245D01*
X113417578Y-95151071D01*
X113413669Y-95150841D01*
X113394121Y-95150076D01*
X113390211Y-95150000D01*
X101375778Y-95150000D01*
X101356269Y-95151921D01*
X101337510Y-95157612D01*
X101327579Y-95162382D01*
X101322280Y-95165297D01*
X101308131Y-95175000D01*
X100835341Y-95175000D01*
X100800990Y-95160771D01*
X100694731Y-95139635D01*
X100586391Y-95139635D01*
X100480132Y-95160771D01*
X100445781Y-95175000D01*
X100327817Y-95175000D01*
X100300604Y-95147787D01*
X100210523Y-95087597D01*
X100110429Y-95046136D01*
X100004170Y-95025000D01*
X99895830Y-95025000D01*
X99789571Y-95046136D01*
X99689477Y-95087597D01*
X99599396Y-95147787D01*
X99572183Y-95175000D01*
X95599957Y-95175000D01*
X92872062Y-95170264D01*
X92862403Y-95146945D01*
X92802213Y-95056864D01*
X92725604Y-94980255D01*
X92635523Y-94920065D01*
X92535429Y-94878604D01*
X92429170Y-94857468D01*
X92320830Y-94857468D01*
X92214571Y-94878604D01*
X92114477Y-94920065D01*
X92024396Y-94980255D01*
X92013190Y-94991462D01*
X92001983Y-94980255D01*
X91911902Y-94920065D01*
X91811808Y-94878604D01*
X91705549Y-94857468D01*
X91597209Y-94857468D01*
X91490950Y-94878604D01*
X91390856Y-94920065D01*
X91300775Y-94980255D01*
X91224166Y-95056864D01*
X91163976Y-95146945D01*
X91155551Y-95167284D01*
X85473808Y-95157419D01*
X85405121Y-95123046D01*
X85403798Y-95122538D01*
X85402595Y-95121795D01*
X85398192Y-95119673D01*
X85281605Y-95064505D01*
X85280607Y-95064147D01*
X85279691Y-95063606D01*
X85275247Y-95061573D01*
X85156976Y-95008476D01*
X85156306Y-95008251D01*
X85155687Y-95007900D01*
X85151206Y-95005948D01*
X85031341Y-94954707D01*
X85030995Y-94954598D01*
X85030677Y-94954424D01*
X85026166Y-94952544D01*
X84904792Y-94902943D01*
X84904772Y-94902937D01*
X84904755Y-94902928D01*
X84900218Y-94901112D01*
X84777426Y-94852938D01*
X84777362Y-94852920D01*
X84774053Y-94851634D01*
X84691450Y-94820208D01*
X84691369Y-94820186D01*
X84688404Y-94819066D01*
X84563497Y-94772870D01*
X84563426Y-94772851D01*
X84560190Y-94771666D01*
X84434226Y-94726513D01*
X84434148Y-94726493D01*
X84431311Y-94725482D01*
X84304453Y-94681270D01*
X84304372Y-94681250D01*
X84301912Y-94680395D01*
X84174325Y-94637025D01*
X84174239Y-94637005D01*
X84172154Y-94636295D01*
X84044004Y-94593667D01*
X84043924Y-94593649D01*
X84042196Y-94593071D01*
X83913646Y-94551085D01*
X83913575Y-94551069D01*
X83912202Y-94550617D01*
X83783418Y-94509172D01*
X83783356Y-94509158D01*
X83782329Y-94508824D01*
X83653474Y-94467819D01*
X83653429Y-94467809D01*
X83652742Y-94467587D01*
X83523983Y-94426925D01*
X83523961Y-94426920D01*
X83523606Y-94426806D01*
X83411403Y-94391511D01*
X83189316Y-94297013D01*
X83004065Y-94170881D01*
X82846842Y-94011169D01*
X82723636Y-93823963D01*
X82639137Y-93616390D01*
X82596567Y-93396363D01*
X82597544Y-93172115D01*
X82643315Y-92945279D01*
X82803796Y-92493750D01*
X115148549Y-92493750D01*
X115148549Y-92931250D01*
X115158545Y-93032736D01*
X115188147Y-93130322D01*
X115236219Y-93220258D01*
X115300912Y-93299088D01*
X115379742Y-93363781D01*
X115469678Y-93411853D01*
X115567264Y-93441455D01*
X115668750Y-93451451D01*
X116181250Y-93451451D01*
X116282736Y-93441455D01*
X116380322Y-93411853D01*
X116470258Y-93363781D01*
X116549088Y-93299088D01*
X116613781Y-93220258D01*
X116661853Y-93130322D01*
X116691455Y-93032736D01*
X116701451Y-92931250D01*
X116701451Y-92493750D01*
X116691455Y-92392264D01*
X116661853Y-92294678D01*
X116613781Y-92204742D01*
X116549088Y-92125912D01*
X116470258Y-92061219D01*
X116380322Y-92013147D01*
X116282736Y-91983545D01*
X116181250Y-91973549D01*
X115668750Y-91973549D01*
X115567264Y-91983545D01*
X115469678Y-92013147D01*
X115379742Y-92061219D01*
X115300912Y-92125912D01*
X115236219Y-92204742D01*
X115188147Y-92294678D01*
X115158545Y-92392264D01*
X115148549Y-92493750D01*
X82803796Y-92493750D01*
X83165343Y-91476510D01*
X94911654Y-91499678D01*
G37*
G04 #@! TD.AperFunction*
D20*
X94676485Y-87579745D02*
X94657031Y-87643877D01*
X94648549Y-87730000D01*
X94648549Y-88070000D01*
X94657031Y-88156123D01*
X94682152Y-88238936D01*
X94722947Y-88315257D01*
X94777847Y-88382153D01*
X94844743Y-88437053D01*
X94921064Y-88477848D01*
X95003877Y-88502969D01*
X95090000Y-88511451D01*
X95370000Y-88511451D01*
X95456123Y-88502969D01*
X95538936Y-88477848D01*
X95615257Y-88437053D01*
X95682153Y-88382153D01*
X95737053Y-88315257D01*
X95777848Y-88238936D01*
X95802969Y-88156123D01*
X95810644Y-88078196D01*
X95828862Y-88034214D01*
X95849998Y-87927955D01*
X95849998Y-87819615D01*
X95828862Y-87713356D01*
X95803869Y-87653020D01*
X95802969Y-87643877D01*
X95783634Y-87580138D01*
X101510584Y-87582166D01*
X101507031Y-87593877D01*
X101498549Y-87680000D01*
X101498549Y-88020000D01*
X101507031Y-88106123D01*
X101532152Y-88188936D01*
X101572947Y-88265257D01*
X101627847Y-88332153D01*
X101694743Y-88387053D01*
X101771064Y-88427848D01*
X101853877Y-88452969D01*
X101940000Y-88461451D01*
X102220000Y-88461451D01*
X102306123Y-88452969D01*
X102388936Y-88427848D01*
X102465257Y-88387053D01*
X102532153Y-88332153D01*
X102587053Y-88265257D01*
X102627848Y-88188936D01*
X102652969Y-88106123D01*
X102657256Y-88062594D01*
X102678864Y-88010429D01*
X102700000Y-87904170D01*
X102700000Y-87795830D01*
X102678864Y-87689571D01*
X102657256Y-87637406D01*
X102652969Y-87593877D01*
X102649539Y-87582569D01*
X108309853Y-87584573D01*
X108307031Y-87593877D01*
X108298549Y-87680000D01*
X108298549Y-88020000D01*
X108307031Y-88106123D01*
X108332152Y-88188936D01*
X108372947Y-88265257D01*
X108427847Y-88332153D01*
X108494743Y-88387053D01*
X108571064Y-88427848D01*
X108653877Y-88452969D01*
X108740000Y-88461451D01*
X109020000Y-88461451D01*
X109106123Y-88452969D01*
X109188936Y-88427848D01*
X109265257Y-88387053D01*
X109332153Y-88332153D01*
X109387053Y-88265257D01*
X109427848Y-88188936D01*
X109452969Y-88106123D01*
X109457256Y-88062594D01*
X109478864Y-88010429D01*
X109500000Y-87904170D01*
X109500000Y-87795830D01*
X109478864Y-87689571D01*
X109457256Y-87637406D01*
X109452969Y-87593877D01*
X109450269Y-87584977D01*
X114664356Y-87586824D01*
X115215726Y-88356008D01*
X116049824Y-89775773D01*
X116751806Y-91265275D01*
X116853174Y-91543271D01*
X112838810Y-91516860D01*
X112817477Y-91499353D01*
X112765360Y-91471496D01*
X112708810Y-91454341D01*
X112650000Y-91448549D01*
X111050000Y-91448549D01*
X110991190Y-91454341D01*
X110934640Y-91471496D01*
X110882523Y-91499353D01*
X110876918Y-91503953D01*
X105914737Y-91471307D01*
X105858810Y-91454341D01*
X105800000Y-91448549D01*
X104200000Y-91448549D01*
X104141190Y-91454341D01*
X104124096Y-91459527D01*
X98600738Y-91423189D01*
X98535429Y-91396136D01*
X98429170Y-91375000D01*
X98320830Y-91375000D01*
X98214571Y-91396136D01*
X98156320Y-91420265D01*
X95345892Y-91401775D01*
X95344718Y-91397389D01*
X95332191Y-91360405D01*
X95304519Y-91308512D01*
X95267254Y-91263015D01*
X95212363Y-91208016D01*
X95183044Y-91182234D01*
X95133153Y-91151096D01*
X95078146Y-91130290D01*
X95003123Y-91110055D01*
X94925592Y-91099705D01*
X83341857Y-91076858D01*
X83881543Y-89907057D01*
X84704018Y-88480541D01*
X85340992Y-87576439D01*
X94676485Y-87579745D01*
G04 #@! TA.AperFunction,Conductor*
D21*
G36*
X94676485Y-87579745D02*
G01*
X94657031Y-87643877D01*
X94648549Y-87730000D01*
X94648549Y-88070000D01*
X94657031Y-88156123D01*
X94682152Y-88238936D01*
X94722947Y-88315257D01*
X94777847Y-88382153D01*
X94844743Y-88437053D01*
X94921064Y-88477848D01*
X95003877Y-88502969D01*
X95090000Y-88511451D01*
X95370000Y-88511451D01*
X95456123Y-88502969D01*
X95538936Y-88477848D01*
X95615257Y-88437053D01*
X95682153Y-88382153D01*
X95737053Y-88315257D01*
X95777848Y-88238936D01*
X95802969Y-88156123D01*
X95810644Y-88078196D01*
X95828862Y-88034214D01*
X95849998Y-87927955D01*
X95849998Y-87819615D01*
X95828862Y-87713356D01*
X95803869Y-87653020D01*
X95802969Y-87643877D01*
X95783634Y-87580138D01*
X101510584Y-87582166D01*
X101507031Y-87593877D01*
X101498549Y-87680000D01*
X101498549Y-88020000D01*
X101507031Y-88106123D01*
X101532152Y-88188936D01*
X101572947Y-88265257D01*
X101627847Y-88332153D01*
X101694743Y-88387053D01*
X101771064Y-88427848D01*
X101853877Y-88452969D01*
X101940000Y-88461451D01*
X102220000Y-88461451D01*
X102306123Y-88452969D01*
X102388936Y-88427848D01*
X102465257Y-88387053D01*
X102532153Y-88332153D01*
X102587053Y-88265257D01*
X102627848Y-88188936D01*
X102652969Y-88106123D01*
X102657256Y-88062594D01*
X102678864Y-88010429D01*
X102700000Y-87904170D01*
X102700000Y-87795830D01*
X102678864Y-87689571D01*
X102657256Y-87637406D01*
X102652969Y-87593877D01*
X102649539Y-87582569D01*
X108309853Y-87584573D01*
X108307031Y-87593877D01*
X108298549Y-87680000D01*
X108298549Y-88020000D01*
X108307031Y-88106123D01*
X108332152Y-88188936D01*
X108372947Y-88265257D01*
X108427847Y-88332153D01*
X108494743Y-88387053D01*
X108571064Y-88427848D01*
X108653877Y-88452969D01*
X108740000Y-88461451D01*
X109020000Y-88461451D01*
X109106123Y-88452969D01*
X109188936Y-88427848D01*
X109265257Y-88387053D01*
X109332153Y-88332153D01*
X109387053Y-88265257D01*
X109427848Y-88188936D01*
X109452969Y-88106123D01*
X109457256Y-88062594D01*
X109478864Y-88010429D01*
X109500000Y-87904170D01*
X109500000Y-87795830D01*
X109478864Y-87689571D01*
X109457256Y-87637406D01*
X109452969Y-87593877D01*
X109450269Y-87584977D01*
X114664356Y-87586824D01*
X115215726Y-88356008D01*
X116049824Y-89775773D01*
X116751806Y-91265275D01*
X116853174Y-91543271D01*
X112838810Y-91516860D01*
X112817477Y-91499353D01*
X112765360Y-91471496D01*
X112708810Y-91454341D01*
X112650000Y-91448549D01*
X111050000Y-91448549D01*
X110991190Y-91454341D01*
X110934640Y-91471496D01*
X110882523Y-91499353D01*
X110876918Y-91503953D01*
X105914737Y-91471307D01*
X105858810Y-91454341D01*
X105800000Y-91448549D01*
X104200000Y-91448549D01*
X104141190Y-91454341D01*
X104124096Y-91459527D01*
X98600738Y-91423189D01*
X98535429Y-91396136D01*
X98429170Y-91375000D01*
X98320830Y-91375000D01*
X98214571Y-91396136D01*
X98156320Y-91420265D01*
X95345892Y-91401775D01*
X95344718Y-91397389D01*
X95332191Y-91360405D01*
X95304519Y-91308512D01*
X95267254Y-91263015D01*
X95212363Y-91208016D01*
X95183044Y-91182234D01*
X95133153Y-91151096D01*
X95078146Y-91130290D01*
X95003123Y-91110055D01*
X94925592Y-91099705D01*
X83341857Y-91076858D01*
X83881543Y-89907057D01*
X84704018Y-88480541D01*
X85340992Y-87576439D01*
X94676485Y-87579745D01*
G37*
G04 #@! TD.AperFunction*
D22*
X86451815Y-104367816D02*
X86532184Y-104448185D01*
X86626688Y-104511331D01*
X86731695Y-104554826D01*
X86802499Y-104568910D01*
X86818557Y-104621847D01*
X86869713Y-104717554D01*
X86938558Y-104801442D01*
X87022446Y-104870287D01*
X87118153Y-104921443D01*
X87222002Y-104952945D01*
X87242300Y-104954944D01*
X87326688Y-105011331D01*
X87431695Y-105054826D01*
X87543170Y-105077000D01*
X87656830Y-105077000D01*
X87768305Y-105054826D01*
X87873312Y-105011331D01*
X87967816Y-104948185D01*
X87973967Y-104942034D01*
X88041847Y-104921443D01*
X88137554Y-104870287D01*
X88183572Y-104832521D01*
X88226688Y-104861331D01*
X88331695Y-104904826D01*
X88443170Y-104927000D01*
X88556830Y-104927000D01*
X88592302Y-104919944D01*
X88680000Y-104928582D01*
X89020000Y-104928582D01*
X89111416Y-104919578D01*
X89173000Y-104900897D01*
X89173000Y-105896000D01*
X89025501Y-105896000D01*
X88967816Y-105838315D01*
X88873312Y-105775169D01*
X88768305Y-105731674D01*
X88656830Y-105709500D01*
X88543170Y-105709500D01*
X88431695Y-105731674D01*
X88326688Y-105775169D01*
X88232184Y-105838315D01*
X88151815Y-105918684D01*
X88088669Y-106013188D01*
X88045174Y-106118195D01*
X88023000Y-106229670D01*
X88023000Y-106343330D01*
X88036436Y-106410878D01*
X87996830Y-106403000D01*
X87883170Y-106403000D01*
X87771695Y-106425174D01*
X87666688Y-106468669D01*
X87572184Y-106531815D01*
X87491815Y-106612184D01*
X87428669Y-106706688D01*
X87421912Y-106723000D01*
X85252007Y-106723000D01*
X85258065Y-106703029D01*
X85268582Y-106596250D01*
X85268582Y-106083750D01*
X85258065Y-105976971D01*
X85226919Y-105874295D01*
X85176340Y-105779669D01*
X85108272Y-105696728D01*
X85025331Y-105628660D01*
X84930705Y-105578081D01*
X84828029Y-105546935D01*
X84827000Y-105546834D01*
X84827000Y-104412509D01*
X84838662Y-104353881D01*
X84864785Y-104314785D01*
X84903881Y-104288662D01*
X84962509Y-104277000D01*
X86391133Y-104277000D01*
X86451815Y-104367816D01*
G04 #@! TA.AperFunction,Conductor*
D21*
G36*
X86451815Y-104367816D02*
G01*
X86532184Y-104448185D01*
X86626688Y-104511331D01*
X86731695Y-104554826D01*
X86802499Y-104568910D01*
X86818557Y-104621847D01*
X86869713Y-104717554D01*
X86938558Y-104801442D01*
X87022446Y-104870287D01*
X87118153Y-104921443D01*
X87222002Y-104952945D01*
X87242300Y-104954944D01*
X87326688Y-105011331D01*
X87431695Y-105054826D01*
X87543170Y-105077000D01*
X87656830Y-105077000D01*
X87768305Y-105054826D01*
X87873312Y-105011331D01*
X87967816Y-104948185D01*
X87973967Y-104942034D01*
X88041847Y-104921443D01*
X88137554Y-104870287D01*
X88183572Y-104832521D01*
X88226688Y-104861331D01*
X88331695Y-104904826D01*
X88443170Y-104927000D01*
X88556830Y-104927000D01*
X88592302Y-104919944D01*
X88680000Y-104928582D01*
X89020000Y-104928582D01*
X89111416Y-104919578D01*
X89173000Y-104900897D01*
X89173000Y-105896000D01*
X89025501Y-105896000D01*
X88967816Y-105838315D01*
X88873312Y-105775169D01*
X88768305Y-105731674D01*
X88656830Y-105709500D01*
X88543170Y-105709500D01*
X88431695Y-105731674D01*
X88326688Y-105775169D01*
X88232184Y-105838315D01*
X88151815Y-105918684D01*
X88088669Y-106013188D01*
X88045174Y-106118195D01*
X88023000Y-106229670D01*
X88023000Y-106343330D01*
X88036436Y-106410878D01*
X87996830Y-106403000D01*
X87883170Y-106403000D01*
X87771695Y-106425174D01*
X87666688Y-106468669D01*
X87572184Y-106531815D01*
X87491815Y-106612184D01*
X87428669Y-106706688D01*
X87421912Y-106723000D01*
X85252007Y-106723000D01*
X85258065Y-106703029D01*
X85268582Y-106596250D01*
X85268582Y-106083750D01*
X85258065Y-105976971D01*
X85226919Y-105874295D01*
X85176340Y-105779669D01*
X85108272Y-105696728D01*
X85025331Y-105628660D01*
X84930705Y-105578081D01*
X84828029Y-105546935D01*
X84827000Y-105546834D01*
X84827000Y-104412509D01*
X84838662Y-104353881D01*
X84864785Y-104314785D01*
X84903881Y-104288662D01*
X84962509Y-104277000D01*
X86391133Y-104277000D01*
X86451815Y-104367816D01*
G37*
G04 #@! TD.AperFunction*
D20*
X112187780Y-98794163D02*
X112236851Y-98828651D01*
X112273653Y-98888709D01*
X112642957Y-99914554D01*
X112654757Y-99982168D01*
X112654757Y-100420028D01*
X112641528Y-100486533D01*
X112609438Y-100534560D01*
X112561411Y-100566650D01*
X112494906Y-100579879D01*
X111956089Y-100579879D01*
X111954276Y-100579871D01*
X109941115Y-100562278D01*
X109874670Y-100548443D01*
X109826898Y-100515874D01*
X109795245Y-100467491D01*
X109782678Y-100400792D01*
X109787415Y-99941335D01*
X109800693Y-99876471D01*
X109831859Y-99829435D01*
X109878351Y-99797463D01*
X109882232Y-99796599D01*
X109947295Y-99816335D01*
X110050000Y-99826451D01*
X110500000Y-99826451D01*
X110602705Y-99816335D01*
X110701464Y-99786377D01*
X110749217Y-99760853D01*
X111003690Y-99753841D01*
X111022207Y-99751590D01*
X111112939Y-99731838D01*
X111131593Y-99725811D01*
X111147133Y-99717336D01*
X111224398Y-99665833D01*
X111239565Y-99653413D01*
X111250940Y-99639850D01*
X111304078Y-99563701D01*
X111313667Y-99546603D01*
X111319307Y-99529823D01*
X111340987Y-99439532D01*
X111343632Y-99421068D01*
X111367544Y-98932080D01*
X111383115Y-98868203D01*
X111415655Y-98822584D01*
X111462807Y-98792313D01*
X111527373Y-98779879D01*
X112118805Y-98779879D01*
X112187780Y-98794163D01*
G04 #@! TA.AperFunction,Conductor*
D21*
G36*
X112187780Y-98794163D02*
G01*
X112236851Y-98828651D01*
X112273653Y-98888709D01*
X112642957Y-99914554D01*
X112654757Y-99982168D01*
X112654757Y-100420028D01*
X112641528Y-100486533D01*
X112609438Y-100534560D01*
X112561411Y-100566650D01*
X112494906Y-100579879D01*
X111956089Y-100579879D01*
X111954276Y-100579871D01*
X109941115Y-100562278D01*
X109874670Y-100548443D01*
X109826898Y-100515874D01*
X109795245Y-100467491D01*
X109782678Y-100400792D01*
X109787415Y-99941335D01*
X109800693Y-99876471D01*
X109831859Y-99829435D01*
X109878351Y-99797463D01*
X109882232Y-99796599D01*
X109947295Y-99816335D01*
X110050000Y-99826451D01*
X110500000Y-99826451D01*
X110602705Y-99816335D01*
X110701464Y-99786377D01*
X110749217Y-99760853D01*
X111003690Y-99753841D01*
X111022207Y-99751590D01*
X111112939Y-99731838D01*
X111131593Y-99725811D01*
X111147133Y-99717336D01*
X111224398Y-99665833D01*
X111239565Y-99653413D01*
X111250940Y-99639850D01*
X111304078Y-99563701D01*
X111313667Y-99546603D01*
X111319307Y-99529823D01*
X111340987Y-99439532D01*
X111343632Y-99421068D01*
X111367544Y-98932080D01*
X111383115Y-98868203D01*
X111415655Y-98822584D01*
X111462807Y-98792313D01*
X111527373Y-98779879D01*
X112118805Y-98779879D01*
X112187780Y-98794163D01*
G37*
G04 #@! TD.AperFunction*
M02*
