G04 #@! TF.GenerationSoftware,KiCad,Pcbnew,(5.1.8)-1*
G04 #@! TF.CreationDate,2020-11-22T18:17:10-08:00*
G04 #@! TF.ProjectId,Thruster_Controller_V2,54687275-7374-4657-925f-436f6e74726f,rev?*
G04 #@! TF.SameCoordinates,Original*
G04 #@! TF.FileFunction,Legend,Bot*
G04 #@! TF.FilePolarity,Positive*
%FSLAX46Y46*%
G04 Gerber Fmt 4.6, Leading zero omitted, Abs format (unit mm)*
G04 Created by KiCad (PCBNEW (5.1.8)-1) date 2020-11-22 18:17:10*
%MOMM*%
%LPD*%
G01*
G04 APERTURE LIST*
%ADD10C,0.125000*%
%ADD11C,0.120000*%
%ADD12C,0.150000*%
G04 APERTURE END LIST*
D10*
X110176190Y-102197619D02*
X110533333Y-102197619D01*
X110604761Y-102173809D01*
X110652380Y-102126190D01*
X110676190Y-102054761D01*
X110676190Y-102007142D01*
X110176190Y-102364285D02*
X110176190Y-102650000D01*
X110676190Y-102507142D02*
X110176190Y-102507142D01*
X110533333Y-102792857D02*
X110533333Y-103030952D01*
X110676190Y-102745238D02*
X110176190Y-102911904D01*
X110676190Y-103078571D01*
X110200000Y-103507142D02*
X110176190Y-103459523D01*
X110176190Y-103388095D01*
X110200000Y-103316666D01*
X110247619Y-103269047D01*
X110295238Y-103245238D01*
X110390476Y-103221428D01*
X110461904Y-103221428D01*
X110557142Y-103245238D01*
X110604761Y-103269047D01*
X110652380Y-103316666D01*
X110676190Y-103388095D01*
X110676190Y-103435714D01*
X110652380Y-103507142D01*
X110628571Y-103530952D01*
X110461904Y-103530952D01*
X110461904Y-103435714D01*
X110676190Y-104126190D02*
X110176190Y-104126190D01*
X110176190Y-104316666D01*
X110200000Y-104364285D01*
X110223809Y-104388095D01*
X110271428Y-104411904D01*
X110342857Y-104411904D01*
X110390476Y-104388095D01*
X110414285Y-104364285D01*
X110438095Y-104316666D01*
X110438095Y-104126190D01*
X110676190Y-104911904D02*
X110438095Y-104745238D01*
X110676190Y-104626190D02*
X110176190Y-104626190D01*
X110176190Y-104816666D01*
X110200000Y-104864285D01*
X110223809Y-104888095D01*
X110271428Y-104911904D01*
X110342857Y-104911904D01*
X110390476Y-104888095D01*
X110414285Y-104864285D01*
X110438095Y-104816666D01*
X110438095Y-104626190D01*
X110176190Y-105221428D02*
X110176190Y-105316666D01*
X110200000Y-105364285D01*
X110247619Y-105411904D01*
X110342857Y-105435714D01*
X110509523Y-105435714D01*
X110604761Y-105411904D01*
X110652380Y-105364285D01*
X110676190Y-105316666D01*
X110676190Y-105221428D01*
X110652380Y-105173809D01*
X110604761Y-105126190D01*
X110509523Y-105102380D01*
X110342857Y-105102380D01*
X110247619Y-105126190D01*
X110200000Y-105173809D01*
X110176190Y-105221428D01*
X110200000Y-105911904D02*
X110176190Y-105864285D01*
X110176190Y-105792857D01*
X110200000Y-105721428D01*
X110247619Y-105673809D01*
X110295238Y-105650000D01*
X110390476Y-105626190D01*
X110461904Y-105626190D01*
X110557142Y-105650000D01*
X110604761Y-105673809D01*
X110652380Y-105721428D01*
X110676190Y-105792857D01*
X110676190Y-105840476D01*
X110652380Y-105911904D01*
X110628571Y-105935714D01*
X110461904Y-105935714D01*
X110461904Y-105840476D01*
X110676190Y-106435714D02*
X110438095Y-106269047D01*
X110676190Y-106150000D02*
X110176190Y-106150000D01*
X110176190Y-106340476D01*
X110200000Y-106388095D01*
X110223809Y-106411904D01*
X110271428Y-106435714D01*
X110342857Y-106435714D01*
X110390476Y-106411904D01*
X110414285Y-106388095D01*
X110438095Y-106340476D01*
X110438095Y-106150000D01*
X110533333Y-106626190D02*
X110533333Y-106864285D01*
X110676190Y-106578571D02*
X110176190Y-106745238D01*
X110676190Y-106911904D01*
X110676190Y-107078571D02*
X110176190Y-107078571D01*
X110533333Y-107245238D01*
X110176190Y-107411904D01*
X110676190Y-107411904D01*
X110676190Y-107650000D02*
X110176190Y-107650000D01*
X110533333Y-107816666D01*
X110176190Y-107983333D01*
X110676190Y-107983333D01*
X110676190Y-108221428D02*
X110176190Y-108221428D01*
X110676190Y-108459523D02*
X110176190Y-108459523D01*
X110676190Y-108745238D01*
X110176190Y-108745238D01*
X110200000Y-109245238D02*
X110176190Y-109197619D01*
X110176190Y-109126190D01*
X110200000Y-109054761D01*
X110247619Y-109007142D01*
X110295238Y-108983333D01*
X110390476Y-108959523D01*
X110461904Y-108959523D01*
X110557142Y-108983333D01*
X110604761Y-109007142D01*
X110652380Y-109054761D01*
X110676190Y-109126190D01*
X110676190Y-109173809D01*
X110652380Y-109245238D01*
X110628571Y-109269047D01*
X110461904Y-109269047D01*
X110461904Y-109173809D01*
D11*
X109270000Y-102460000D02*
X109270000Y-101825000D01*
X109270000Y-101825000D02*
X108635000Y-101825000D01*
X92780000Y-88200000D02*
X92780000Y-93400000D01*
X96420000Y-93400000D02*
X96420000Y-88200000D01*
D12*
X89275000Y-106200000D02*
X89275000Y-103025000D01*
X86025000Y-105475000D02*
X86025000Y-103025000D01*
D11*
X114395000Y-91175000D02*
X114395000Y-92175000D01*
X115755000Y-92175000D02*
X115755000Y-91175000D01*
X91470000Y-99325000D02*
X91470000Y-99825000D01*
X90530000Y-99825000D02*
X90530000Y-99325000D01*
X95420000Y-99325000D02*
X95420000Y-99825000D01*
X94480000Y-99825000D02*
X94480000Y-99325000D01*
X91530000Y-97450000D02*
X91530000Y-97950000D01*
X90470000Y-97950000D02*
X90470000Y-97450000D01*
X93480000Y-97450000D02*
X93480000Y-97950000D01*
X92420000Y-97950000D02*
X92420000Y-97450000D01*
X95430000Y-97450000D02*
X95430000Y-97950000D01*
X94370000Y-97950000D02*
X94370000Y-97450000D01*
X101680000Y-88200000D02*
X101680000Y-93400000D01*
X105320000Y-93400000D02*
X105320000Y-88200000D01*
X110580000Y-88200000D02*
X110580000Y-93400000D01*
X114220000Y-93400000D02*
X114220000Y-88200000D01*
X90555000Y-97450000D02*
X90555000Y-97950000D01*
X89495000Y-97950000D02*
X89495000Y-97450000D01*
X92505000Y-97450000D02*
X92505000Y-97950000D01*
X91445000Y-97950000D02*
X91445000Y-97450000D01*
X94455000Y-97450000D02*
X94455000Y-97950000D01*
X93395000Y-97950000D02*
X93395000Y-97450000D01*
X93650000Y-99555000D02*
X93150000Y-99555000D01*
X93150000Y-98495000D02*
X93650000Y-98495000D01*
D12*
X112150000Y-99300000D02*
X112150000Y-97125000D01*
X109950000Y-98575000D02*
X109950000Y-97125000D01*
X96350000Y-106050000D02*
X96350000Y-106750000D01*
X96350000Y-112600000D02*
X96350000Y-113350000D01*
X96350000Y-106050000D02*
X97100000Y-106050000D01*
X96350000Y-113350000D02*
X97050000Y-113350000D01*
X103650000Y-113350000D02*
X102900000Y-113350000D01*
X103500000Y-106050000D02*
X102900000Y-106050000D01*
X103650000Y-112600000D02*
X103650000Y-113350000D01*
D11*
X102667000Y-103167000D02*
X102667000Y-102659000D01*
X102159000Y-103167000D02*
X102667000Y-103167000D01*
X102667000Y-97833000D02*
X102159000Y-97833000D01*
X102667000Y-98341000D02*
X102667000Y-97833000D01*
X97333000Y-97833000D02*
X97333000Y-98341000D01*
X97841000Y-97833000D02*
X97333000Y-97833000D01*
X97841000Y-103167000D02*
X97333000Y-103167000D01*
X95250000Y-102175000D02*
X95250000Y-106175000D01*
X92050000Y-102175000D02*
X95250000Y-102175000D01*
D12*
X85550000Y-105150000D02*
X85550000Y-102975000D01*
X83350000Y-104425000D02*
X83350000Y-102975000D01*
D10*
X90237619Y-91803809D02*
X90285238Y-91780000D01*
X90332857Y-91732380D01*
X90404285Y-91660952D01*
X90451904Y-91637142D01*
X90499523Y-91637142D01*
X90475714Y-91756190D02*
X90523333Y-91732380D01*
X90570952Y-91684761D01*
X90594761Y-91589523D01*
X90594761Y-91422857D01*
X90570952Y-91327619D01*
X90523333Y-91280000D01*
X90475714Y-91256190D01*
X90380476Y-91256190D01*
X90332857Y-91280000D01*
X90285238Y-91327619D01*
X90261428Y-91422857D01*
X90261428Y-91589523D01*
X90285238Y-91684761D01*
X90332857Y-91732380D01*
X90380476Y-91756190D01*
X90475714Y-91756190D01*
X90070952Y-91303809D02*
X90047142Y-91280000D01*
X89999523Y-91256190D01*
X89880476Y-91256190D01*
X89832857Y-91280000D01*
X89809047Y-91303809D01*
X89785238Y-91351428D01*
X89785238Y-91399047D01*
X89809047Y-91470476D01*
X90094761Y-91756190D01*
X89785238Y-91756190D01*
X94153333Y-88996190D02*
X94320000Y-88758095D01*
X94439047Y-88996190D02*
X94439047Y-88496190D01*
X94248571Y-88496190D01*
X94200952Y-88520000D01*
X94177142Y-88543809D01*
X94153333Y-88591428D01*
X94153333Y-88662857D01*
X94177142Y-88710476D01*
X94200952Y-88734285D01*
X94248571Y-88758095D01*
X94439047Y-88758095D01*
X93915238Y-88996190D02*
X93820000Y-88996190D01*
X93772380Y-88972380D01*
X93748571Y-88948571D01*
X93700952Y-88877142D01*
X93677142Y-88781904D01*
X93677142Y-88591428D01*
X93700952Y-88543809D01*
X93724761Y-88520000D01*
X93772380Y-88496190D01*
X93867619Y-88496190D01*
X93915238Y-88520000D01*
X93939047Y-88543809D01*
X93962857Y-88591428D01*
X93962857Y-88710476D01*
X93939047Y-88758095D01*
X93915238Y-88781904D01*
X93867619Y-88805714D01*
X93772380Y-88805714D01*
X93724761Y-88781904D01*
X93700952Y-88758095D01*
X93677142Y-88710476D01*
X97797619Y-91773809D02*
X97845238Y-91750000D01*
X97892857Y-91702380D01*
X97964285Y-91630952D01*
X98011904Y-91607142D01*
X98059523Y-91607142D01*
X98035714Y-91726190D02*
X98083333Y-91702380D01*
X98130952Y-91654761D01*
X98154761Y-91559523D01*
X98154761Y-91392857D01*
X98130952Y-91297619D01*
X98083333Y-91250000D01*
X98035714Y-91226190D01*
X97940476Y-91226190D01*
X97892857Y-91250000D01*
X97845238Y-91297619D01*
X97821428Y-91392857D01*
X97821428Y-91559523D01*
X97845238Y-91654761D01*
X97892857Y-91702380D01*
X97940476Y-91726190D01*
X98035714Y-91726190D01*
X97345238Y-91726190D02*
X97630952Y-91726190D01*
X97488095Y-91726190D02*
X97488095Y-91226190D01*
X97535714Y-91297619D01*
X97583333Y-91345238D01*
X97630952Y-91369047D01*
X89640952Y-106616190D02*
X89640952Y-107020952D01*
X89617142Y-107068571D01*
X89593333Y-107092380D01*
X89545714Y-107116190D01*
X89450476Y-107116190D01*
X89402857Y-107092380D01*
X89379047Y-107068571D01*
X89355238Y-107020952D01*
X89355238Y-106616190D01*
X89045714Y-106830476D02*
X89093333Y-106806666D01*
X89117142Y-106782857D01*
X89140952Y-106735238D01*
X89140952Y-106711428D01*
X89117142Y-106663809D01*
X89093333Y-106640000D01*
X89045714Y-106616190D01*
X88950476Y-106616190D01*
X88902857Y-106640000D01*
X88879047Y-106663809D01*
X88855238Y-106711428D01*
X88855238Y-106735238D01*
X88879047Y-106782857D01*
X88902857Y-106806666D01*
X88950476Y-106830476D01*
X89045714Y-106830476D01*
X89093333Y-106854285D01*
X89117142Y-106878095D01*
X89140952Y-106925714D01*
X89140952Y-107020952D01*
X89117142Y-107068571D01*
X89093333Y-107092380D01*
X89045714Y-107116190D01*
X88950476Y-107116190D01*
X88902857Y-107092380D01*
X88879047Y-107068571D01*
X88855238Y-107020952D01*
X88855238Y-106925714D01*
X88879047Y-106878095D01*
X88902857Y-106854285D01*
X88950476Y-106830476D01*
X115028333Y-90151190D02*
X115195000Y-89913095D01*
X115314047Y-90151190D02*
X115314047Y-89651190D01*
X115123571Y-89651190D01*
X115075952Y-89675000D01*
X115052142Y-89698809D01*
X115028333Y-89746428D01*
X115028333Y-89817857D01*
X115052142Y-89865476D01*
X115075952Y-89889285D01*
X115123571Y-89913095D01*
X115314047Y-89913095D01*
X114861666Y-89651190D02*
X114528333Y-89651190D01*
X114742619Y-90151190D01*
X90178571Y-99333571D02*
X90202380Y-99309761D01*
X90226190Y-99238333D01*
X90226190Y-99190714D01*
X90202380Y-99119285D01*
X90154761Y-99071666D01*
X90107142Y-99047857D01*
X90011904Y-99024047D01*
X89940476Y-99024047D01*
X89845238Y-99047857D01*
X89797619Y-99071666D01*
X89750000Y-99119285D01*
X89726190Y-99190714D01*
X89726190Y-99238333D01*
X89750000Y-99309761D01*
X89773809Y-99333571D01*
X89773809Y-99524047D02*
X89750000Y-99547857D01*
X89726190Y-99595476D01*
X89726190Y-99714523D01*
X89750000Y-99762142D01*
X89773809Y-99785952D01*
X89821428Y-99809761D01*
X89869047Y-99809761D01*
X89940476Y-99785952D01*
X90226190Y-99500238D01*
X90226190Y-99809761D01*
X89892857Y-100238333D02*
X90226190Y-100238333D01*
X89702380Y-100119285D02*
X90059523Y-100000238D01*
X90059523Y-100309761D01*
X96128571Y-99578571D02*
X96152380Y-99554761D01*
X96176190Y-99483333D01*
X96176190Y-99435714D01*
X96152380Y-99364285D01*
X96104761Y-99316666D01*
X96057142Y-99292857D01*
X95961904Y-99269047D01*
X95890476Y-99269047D01*
X95795238Y-99292857D01*
X95747619Y-99316666D01*
X95700000Y-99364285D01*
X95676190Y-99435714D01*
X95676190Y-99483333D01*
X95700000Y-99554761D01*
X95723809Y-99578571D01*
X95723809Y-99769047D02*
X95700000Y-99792857D01*
X95676190Y-99840476D01*
X95676190Y-99959523D01*
X95700000Y-100007142D01*
X95723809Y-100030952D01*
X95771428Y-100054761D01*
X95819047Y-100054761D01*
X95890476Y-100030952D01*
X96176190Y-99745238D01*
X96176190Y-100054761D01*
X95676190Y-100483333D02*
X95676190Y-100388095D01*
X95700000Y-100340476D01*
X95723809Y-100316666D01*
X95795238Y-100269047D01*
X95890476Y-100245238D01*
X96080952Y-100245238D01*
X96128571Y-100269047D01*
X96152380Y-100292857D01*
X96176190Y-100340476D01*
X96176190Y-100435714D01*
X96152380Y-100483333D01*
X96128571Y-100507142D01*
X96080952Y-100530952D01*
X95961904Y-100530952D01*
X95914285Y-100507142D01*
X95890476Y-100483333D01*
X95866666Y-100435714D01*
X95866666Y-100340476D01*
X95890476Y-100292857D01*
X95914285Y-100269047D01*
X95961904Y-100245238D01*
X91251190Y-95778571D02*
X91013095Y-95611904D01*
X91251190Y-95492857D02*
X90751190Y-95492857D01*
X90751190Y-95683333D01*
X90775000Y-95730952D01*
X90798809Y-95754761D01*
X90846428Y-95778571D01*
X90917857Y-95778571D01*
X90965476Y-95754761D01*
X90989285Y-95730952D01*
X91013095Y-95683333D01*
X91013095Y-95492857D01*
X90798809Y-95969047D02*
X90775000Y-95992857D01*
X90751190Y-96040476D01*
X90751190Y-96159523D01*
X90775000Y-96207142D01*
X90798809Y-96230952D01*
X90846428Y-96254761D01*
X90894047Y-96254761D01*
X90965476Y-96230952D01*
X91251190Y-95945238D01*
X91251190Y-96254761D01*
X90751190Y-96564285D02*
X90751190Y-96611904D01*
X90775000Y-96659523D01*
X90798809Y-96683333D01*
X90846428Y-96707142D01*
X90941666Y-96730952D01*
X91060714Y-96730952D01*
X91155952Y-96707142D01*
X91203571Y-96683333D01*
X91227380Y-96659523D01*
X91251190Y-96611904D01*
X91251190Y-96564285D01*
X91227380Y-96516666D01*
X91203571Y-96492857D01*
X91155952Y-96469047D01*
X91060714Y-96445238D01*
X90941666Y-96445238D01*
X90846428Y-96469047D01*
X90798809Y-96492857D01*
X90775000Y-96516666D01*
X90751190Y-96564285D01*
X93201190Y-95828571D02*
X92963095Y-95661904D01*
X93201190Y-95542857D02*
X92701190Y-95542857D01*
X92701190Y-95733333D01*
X92725000Y-95780952D01*
X92748809Y-95804761D01*
X92796428Y-95828571D01*
X92867857Y-95828571D01*
X92915476Y-95804761D01*
X92939285Y-95780952D01*
X92963095Y-95733333D01*
X92963095Y-95542857D01*
X92748809Y-96019047D02*
X92725000Y-96042857D01*
X92701190Y-96090476D01*
X92701190Y-96209523D01*
X92725000Y-96257142D01*
X92748809Y-96280952D01*
X92796428Y-96304761D01*
X92844047Y-96304761D01*
X92915476Y-96280952D01*
X93201190Y-95995238D01*
X93201190Y-96304761D01*
X93201190Y-96780952D02*
X93201190Y-96495238D01*
X93201190Y-96638095D02*
X92701190Y-96638095D01*
X92772619Y-96590476D01*
X92820238Y-96542857D01*
X92844047Y-96495238D01*
X95176190Y-95803571D02*
X94938095Y-95636904D01*
X95176190Y-95517857D02*
X94676190Y-95517857D01*
X94676190Y-95708333D01*
X94700000Y-95755952D01*
X94723809Y-95779761D01*
X94771428Y-95803571D01*
X94842857Y-95803571D01*
X94890476Y-95779761D01*
X94914285Y-95755952D01*
X94938095Y-95708333D01*
X94938095Y-95517857D01*
X94723809Y-95994047D02*
X94700000Y-96017857D01*
X94676190Y-96065476D01*
X94676190Y-96184523D01*
X94700000Y-96232142D01*
X94723809Y-96255952D01*
X94771428Y-96279761D01*
X94819047Y-96279761D01*
X94890476Y-96255952D01*
X95176190Y-95970238D01*
X95176190Y-96279761D01*
X94723809Y-96470238D02*
X94700000Y-96494047D01*
X94676190Y-96541666D01*
X94676190Y-96660714D01*
X94700000Y-96708333D01*
X94723809Y-96732142D01*
X94771428Y-96755952D01*
X94819047Y-96755952D01*
X94890476Y-96732142D01*
X95176190Y-96446428D01*
X95176190Y-96755952D01*
X106717619Y-91813809D02*
X106765238Y-91790000D01*
X106812857Y-91742380D01*
X106884285Y-91670952D01*
X106931904Y-91647142D01*
X106979523Y-91647142D01*
X106955714Y-91766190D02*
X107003333Y-91742380D01*
X107050952Y-91694761D01*
X107074761Y-91599523D01*
X107074761Y-91432857D01*
X107050952Y-91337619D01*
X107003333Y-91290000D01*
X106955714Y-91266190D01*
X106860476Y-91266190D01*
X106812857Y-91290000D01*
X106765238Y-91337619D01*
X106741428Y-91432857D01*
X106741428Y-91599523D01*
X106765238Y-91694761D01*
X106812857Y-91742380D01*
X106860476Y-91766190D01*
X106955714Y-91766190D01*
X106574761Y-91266190D02*
X106265238Y-91266190D01*
X106431904Y-91456666D01*
X106360476Y-91456666D01*
X106312857Y-91480476D01*
X106289047Y-91504285D01*
X106265238Y-91551904D01*
X106265238Y-91670952D01*
X106289047Y-91718571D01*
X106312857Y-91742380D01*
X106360476Y-91766190D01*
X106503333Y-91766190D01*
X106550952Y-91742380D01*
X106574761Y-91718571D01*
X102873333Y-89066190D02*
X103040000Y-88828095D01*
X103159047Y-89066190D02*
X103159047Y-88566190D01*
X102968571Y-88566190D01*
X102920952Y-88590000D01*
X102897142Y-88613809D01*
X102873333Y-88661428D01*
X102873333Y-88732857D01*
X102897142Y-88780476D01*
X102920952Y-88804285D01*
X102968571Y-88828095D01*
X103159047Y-88828095D01*
X102587619Y-88780476D02*
X102635238Y-88756666D01*
X102659047Y-88732857D01*
X102682857Y-88685238D01*
X102682857Y-88661428D01*
X102659047Y-88613809D01*
X102635238Y-88590000D01*
X102587619Y-88566190D01*
X102492380Y-88566190D01*
X102444761Y-88590000D01*
X102420952Y-88613809D01*
X102397142Y-88661428D01*
X102397142Y-88685238D01*
X102420952Y-88732857D01*
X102444761Y-88756666D01*
X102492380Y-88780476D01*
X102587619Y-88780476D01*
X102635238Y-88804285D01*
X102659047Y-88828095D01*
X102682857Y-88875714D01*
X102682857Y-88970952D01*
X102659047Y-89018571D01*
X102635238Y-89042380D01*
X102587619Y-89066190D01*
X102492380Y-89066190D01*
X102444761Y-89042380D01*
X102420952Y-89018571D01*
X102397142Y-88970952D01*
X102397142Y-88875714D01*
X102420952Y-88828095D01*
X102444761Y-88804285D01*
X102492380Y-88780476D01*
X113531428Y-89066190D02*
X113698095Y-88828095D01*
X113817142Y-89066190D02*
X113817142Y-88566190D01*
X113626666Y-88566190D01*
X113579047Y-88590000D01*
X113555238Y-88613809D01*
X113531428Y-88661428D01*
X113531428Y-88732857D01*
X113555238Y-88780476D01*
X113579047Y-88804285D01*
X113626666Y-88828095D01*
X113817142Y-88828095D01*
X113055238Y-89066190D02*
X113340952Y-89066190D01*
X113198095Y-89066190D02*
X113198095Y-88566190D01*
X113245714Y-88637619D01*
X113293333Y-88685238D01*
X113340952Y-88709047D01*
X112579047Y-89066190D02*
X112864761Y-89066190D01*
X112721904Y-89066190D02*
X112721904Y-88566190D01*
X112769523Y-88637619D01*
X112817142Y-88685238D01*
X112864761Y-88709047D01*
X90251190Y-95778571D02*
X90013095Y-95611904D01*
X90251190Y-95492857D02*
X89751190Y-95492857D01*
X89751190Y-95683333D01*
X89775000Y-95730952D01*
X89798809Y-95754761D01*
X89846428Y-95778571D01*
X89917857Y-95778571D01*
X89965476Y-95754761D01*
X89989285Y-95730952D01*
X90013095Y-95683333D01*
X90013095Y-95492857D01*
X89798809Y-95969047D02*
X89775000Y-95992857D01*
X89751190Y-96040476D01*
X89751190Y-96159523D01*
X89775000Y-96207142D01*
X89798809Y-96230952D01*
X89846428Y-96254761D01*
X89894047Y-96254761D01*
X89965476Y-96230952D01*
X90251190Y-95945238D01*
X90251190Y-96254761D01*
X89751190Y-96421428D02*
X89751190Y-96730952D01*
X89941666Y-96564285D01*
X89941666Y-96635714D01*
X89965476Y-96683333D01*
X89989285Y-96707142D01*
X90036904Y-96730952D01*
X90155952Y-96730952D01*
X90203571Y-96707142D01*
X90227380Y-96683333D01*
X90251190Y-96635714D01*
X90251190Y-96492857D01*
X90227380Y-96445238D01*
X90203571Y-96421428D01*
X92176190Y-95828571D02*
X91938095Y-95661904D01*
X92176190Y-95542857D02*
X91676190Y-95542857D01*
X91676190Y-95733333D01*
X91700000Y-95780952D01*
X91723809Y-95804761D01*
X91771428Y-95828571D01*
X91842857Y-95828571D01*
X91890476Y-95804761D01*
X91914285Y-95780952D01*
X91938095Y-95733333D01*
X91938095Y-95542857D01*
X91723809Y-96019047D02*
X91700000Y-96042857D01*
X91676190Y-96090476D01*
X91676190Y-96209523D01*
X91700000Y-96257142D01*
X91723809Y-96280952D01*
X91771428Y-96304761D01*
X91819047Y-96304761D01*
X91890476Y-96280952D01*
X92176190Y-95995238D01*
X92176190Y-96304761D01*
X91842857Y-96733333D02*
X92176190Y-96733333D01*
X91652380Y-96614285D02*
X92009523Y-96495238D01*
X92009523Y-96804761D01*
X94176190Y-95828571D02*
X93938095Y-95661904D01*
X94176190Y-95542857D02*
X93676190Y-95542857D01*
X93676190Y-95733333D01*
X93700000Y-95780952D01*
X93723809Y-95804761D01*
X93771428Y-95828571D01*
X93842857Y-95828571D01*
X93890476Y-95804761D01*
X93914285Y-95780952D01*
X93938095Y-95733333D01*
X93938095Y-95542857D01*
X93676190Y-95995238D02*
X93676190Y-96304761D01*
X93866666Y-96138095D01*
X93866666Y-96209523D01*
X93890476Y-96257142D01*
X93914285Y-96280952D01*
X93961904Y-96304761D01*
X94080952Y-96304761D01*
X94128571Y-96280952D01*
X94152380Y-96257142D01*
X94176190Y-96209523D01*
X94176190Y-96066666D01*
X94152380Y-96019047D01*
X94128571Y-95995238D01*
X93723809Y-96495238D02*
X93700000Y-96519047D01*
X93676190Y-96566666D01*
X93676190Y-96685714D01*
X93700000Y-96733333D01*
X93723809Y-96757142D01*
X93771428Y-96780952D01*
X93819047Y-96780952D01*
X93890476Y-96757142D01*
X94176190Y-96471428D01*
X94176190Y-96780952D01*
X94121428Y-100376190D02*
X94288095Y-100138095D01*
X94407142Y-100376190D02*
X94407142Y-99876190D01*
X94216666Y-99876190D01*
X94169047Y-99900000D01*
X94145238Y-99923809D01*
X94121428Y-99971428D01*
X94121428Y-100042857D01*
X94145238Y-100090476D01*
X94169047Y-100114285D01*
X94216666Y-100138095D01*
X94407142Y-100138095D01*
X93954761Y-99876190D02*
X93645238Y-99876190D01*
X93811904Y-100066666D01*
X93740476Y-100066666D01*
X93692857Y-100090476D01*
X93669047Y-100114285D01*
X93645238Y-100161904D01*
X93645238Y-100280952D01*
X93669047Y-100328571D01*
X93692857Y-100352380D01*
X93740476Y-100376190D01*
X93883333Y-100376190D01*
X93930952Y-100352380D01*
X93954761Y-100328571D01*
X93478571Y-99876190D02*
X93169047Y-99876190D01*
X93335714Y-100066666D01*
X93264285Y-100066666D01*
X93216666Y-100090476D01*
X93192857Y-100114285D01*
X93169047Y-100161904D01*
X93169047Y-100280952D01*
X93192857Y-100328571D01*
X93216666Y-100352380D01*
X93264285Y-100376190D01*
X93407142Y-100376190D01*
X93454761Y-100352380D01*
X93478571Y-100328571D01*
X109130952Y-97036190D02*
X109130952Y-97440952D01*
X109107142Y-97488571D01*
X109083333Y-97512380D01*
X109035714Y-97536190D01*
X108940476Y-97536190D01*
X108892857Y-97512380D01*
X108869047Y-97488571D01*
X108845238Y-97440952D01*
X108845238Y-97036190D01*
X108345238Y-97536190D02*
X108630952Y-97536190D01*
X108488095Y-97536190D02*
X108488095Y-97036190D01*
X108535714Y-97107619D01*
X108583333Y-97155238D01*
X108630952Y-97179047D01*
X104505952Y-106251190D02*
X104505952Y-106655952D01*
X104482142Y-106703571D01*
X104458333Y-106727380D01*
X104410714Y-106751190D01*
X104315476Y-106751190D01*
X104267857Y-106727380D01*
X104244047Y-106703571D01*
X104220238Y-106655952D01*
X104220238Y-106251190D01*
X104005952Y-106298809D02*
X103982142Y-106275000D01*
X103934523Y-106251190D01*
X103815476Y-106251190D01*
X103767857Y-106275000D01*
X103744047Y-106298809D01*
X103720238Y-106346428D01*
X103720238Y-106394047D01*
X103744047Y-106465476D01*
X104029761Y-106751190D01*
X103720238Y-106751190D01*
X96830952Y-102051190D02*
X96830952Y-102455952D01*
X96807142Y-102503571D01*
X96783333Y-102527380D01*
X96735714Y-102551190D01*
X96640476Y-102551190D01*
X96592857Y-102527380D01*
X96569047Y-102503571D01*
X96545238Y-102455952D01*
X96545238Y-102051190D01*
X96354761Y-102051190D02*
X96045238Y-102051190D01*
X96211904Y-102241666D01*
X96140476Y-102241666D01*
X96092857Y-102265476D01*
X96069047Y-102289285D01*
X96045238Y-102336904D01*
X96045238Y-102455952D01*
X96069047Y-102503571D01*
X96092857Y-102527380D01*
X96140476Y-102551190D01*
X96283333Y-102551190D01*
X96330952Y-102527380D01*
X96354761Y-102503571D01*
X93868095Y-106658095D02*
X93868095Y-106896190D01*
X94034761Y-106396190D02*
X93868095Y-106658095D01*
X93701428Y-106396190D01*
X93272857Y-106896190D02*
X93558571Y-106896190D01*
X93415714Y-106896190D02*
X93415714Y-106396190D01*
X93463333Y-106467619D01*
X93510952Y-106515238D01*
X93558571Y-106539047D01*
X84470952Y-105526190D02*
X84470952Y-105930952D01*
X84447142Y-105978571D01*
X84423333Y-106002380D01*
X84375714Y-106026190D01*
X84280476Y-106026190D01*
X84232857Y-106002380D01*
X84209047Y-105978571D01*
X84185238Y-105930952D01*
X84185238Y-105526190D01*
X83732857Y-105692857D02*
X83732857Y-106026190D01*
X83851904Y-105502380D02*
X83970952Y-105859523D01*
X83661428Y-105859523D01*
M02*
