G04 #@! TF.GenerationSoftware,KiCad,Pcbnew,(5.1.8)-1*
G04 #@! TF.CreationDate,2020-11-22T23:20:16-08:00*
G04 #@! TF.ProjectId,Thruster_Controller_V2,54687275-7374-4657-925f-436f6e74726f,rev?*
G04 #@! TF.SameCoordinates,Original*
G04 #@! TF.FileFunction,Legend,Bot*
G04 #@! TF.FilePolarity,Positive*
%FSLAX46Y46*%
G04 Gerber Fmt 4.6, Leading zero omitted, Abs format (unit mm)*
G04 Created by KiCad (PCBNEW (5.1.8)-1) date 2020-11-22 23:20:16*
%MOMM*%
%LPD*%
G01*
G04 APERTURE LIST*
%ADD10C,0.125000*%
%ADD11C,0.120000*%
%ADD12C,0.150000*%
G04 APERTURE END LIST*
D10*
X110156190Y-101247619D02*
X110513333Y-101247619D01*
X110584761Y-101223809D01*
X110632380Y-101176190D01*
X110656190Y-101104761D01*
X110656190Y-101057142D01*
X110156190Y-101414285D02*
X110156190Y-101700000D01*
X110656190Y-101557142D02*
X110156190Y-101557142D01*
X110513333Y-101842857D02*
X110513333Y-102080952D01*
X110656190Y-101795238D02*
X110156190Y-101961904D01*
X110656190Y-102128571D01*
X110180000Y-102557142D02*
X110156190Y-102509523D01*
X110156190Y-102438095D01*
X110180000Y-102366666D01*
X110227619Y-102319047D01*
X110275238Y-102295238D01*
X110370476Y-102271428D01*
X110441904Y-102271428D01*
X110537142Y-102295238D01*
X110584761Y-102319047D01*
X110632380Y-102366666D01*
X110656190Y-102438095D01*
X110656190Y-102485714D01*
X110632380Y-102557142D01*
X110608571Y-102580952D01*
X110441904Y-102580952D01*
X110441904Y-102485714D01*
X110656190Y-103176190D02*
X110156190Y-103176190D01*
X110156190Y-103366666D01*
X110180000Y-103414285D01*
X110203809Y-103438095D01*
X110251428Y-103461904D01*
X110322857Y-103461904D01*
X110370476Y-103438095D01*
X110394285Y-103414285D01*
X110418095Y-103366666D01*
X110418095Y-103176190D01*
X110656190Y-103961904D02*
X110418095Y-103795238D01*
X110656190Y-103676190D02*
X110156190Y-103676190D01*
X110156190Y-103866666D01*
X110180000Y-103914285D01*
X110203809Y-103938095D01*
X110251428Y-103961904D01*
X110322857Y-103961904D01*
X110370476Y-103938095D01*
X110394285Y-103914285D01*
X110418095Y-103866666D01*
X110418095Y-103676190D01*
X110156190Y-104271428D02*
X110156190Y-104366666D01*
X110180000Y-104414285D01*
X110227619Y-104461904D01*
X110322857Y-104485714D01*
X110489523Y-104485714D01*
X110584761Y-104461904D01*
X110632380Y-104414285D01*
X110656190Y-104366666D01*
X110656190Y-104271428D01*
X110632380Y-104223809D01*
X110584761Y-104176190D01*
X110489523Y-104152380D01*
X110322857Y-104152380D01*
X110227619Y-104176190D01*
X110180000Y-104223809D01*
X110156190Y-104271428D01*
X110180000Y-104961904D02*
X110156190Y-104914285D01*
X110156190Y-104842857D01*
X110180000Y-104771428D01*
X110227619Y-104723809D01*
X110275238Y-104700000D01*
X110370476Y-104676190D01*
X110441904Y-104676190D01*
X110537142Y-104700000D01*
X110584761Y-104723809D01*
X110632380Y-104771428D01*
X110656190Y-104842857D01*
X110656190Y-104890476D01*
X110632380Y-104961904D01*
X110608571Y-104985714D01*
X110441904Y-104985714D01*
X110441904Y-104890476D01*
X110656190Y-105485714D02*
X110418095Y-105319047D01*
X110656190Y-105200000D02*
X110156190Y-105200000D01*
X110156190Y-105390476D01*
X110180000Y-105438095D01*
X110203809Y-105461904D01*
X110251428Y-105485714D01*
X110322857Y-105485714D01*
X110370476Y-105461904D01*
X110394285Y-105438095D01*
X110418095Y-105390476D01*
X110418095Y-105200000D01*
X110513333Y-105676190D02*
X110513333Y-105914285D01*
X110656190Y-105628571D02*
X110156190Y-105795238D01*
X110656190Y-105961904D01*
X110656190Y-106128571D02*
X110156190Y-106128571D01*
X110513333Y-106295238D01*
X110156190Y-106461904D01*
X110656190Y-106461904D01*
X110656190Y-106700000D02*
X110156190Y-106700000D01*
X110513333Y-106866666D01*
X110156190Y-107033333D01*
X110656190Y-107033333D01*
X110656190Y-107271428D02*
X110156190Y-107271428D01*
X110656190Y-107509523D02*
X110156190Y-107509523D01*
X110656190Y-107795238D01*
X110156190Y-107795238D01*
X110180000Y-108295238D02*
X110156190Y-108247619D01*
X110156190Y-108176190D01*
X110180000Y-108104761D01*
X110227619Y-108057142D01*
X110275238Y-108033333D01*
X110370476Y-108009523D01*
X110441904Y-108009523D01*
X110537142Y-108033333D01*
X110584761Y-108057142D01*
X110632380Y-108104761D01*
X110656190Y-108176190D01*
X110656190Y-108223809D01*
X110632380Y-108295238D01*
X110608571Y-108319047D01*
X110441904Y-108319047D01*
X110441904Y-108223809D01*
D11*
X95250000Y-102175000D02*
X95250000Y-106175000D01*
X92050000Y-102175000D02*
X95250000Y-102175000D01*
X109270000Y-101825000D02*
X108635000Y-101825000D01*
X109270000Y-102460000D02*
X109270000Y-101825000D01*
X90580000Y-99492164D02*
X90580000Y-99707836D01*
X91300000Y-99492164D02*
X91300000Y-99707836D01*
X94600000Y-99492164D02*
X94600000Y-99707836D01*
X95320000Y-99492164D02*
X95320000Y-99707836D01*
X114695000Y-91521359D02*
X114695000Y-91828641D01*
X115455000Y-91521359D02*
X115455000Y-91828641D01*
X101790000Y-88622936D02*
X101790000Y-92977064D01*
X105210000Y-88622936D02*
X105210000Y-92977064D01*
X96300000Y-88622936D02*
X96300000Y-92977064D01*
X92880000Y-88622936D02*
X92880000Y-92977064D01*
X114190000Y-88622936D02*
X114190000Y-92977064D01*
X110770000Y-88622936D02*
X110770000Y-92977064D01*
X90550000Y-97546359D02*
X90550000Y-97853641D01*
X91310000Y-97546359D02*
X91310000Y-97853641D01*
X93310000Y-97546359D02*
X93310000Y-97853641D01*
X92550000Y-97546359D02*
X92550000Y-97853641D01*
X94540000Y-97546359D02*
X94540000Y-97853641D01*
X95300000Y-97546359D02*
X95300000Y-97853641D01*
X89550000Y-97546359D02*
X89550000Y-97853641D01*
X90310000Y-97546359D02*
X90310000Y-97853641D01*
X91550000Y-97546359D02*
X91550000Y-97853641D01*
X92310000Y-97546359D02*
X92310000Y-97853641D01*
X93545000Y-97546359D02*
X93545000Y-97853641D01*
X94305000Y-97546359D02*
X94305000Y-97853641D01*
X93453641Y-99540000D02*
X93146359Y-99540000D01*
X93453641Y-98780000D02*
X93146359Y-98780000D01*
D12*
X109950000Y-98850000D02*
X109950000Y-96850000D01*
X112150000Y-97850000D02*
X112150000Y-96850000D01*
D11*
X102960000Y-106090000D02*
X103610000Y-106090000D01*
X96390000Y-113310000D02*
X96390000Y-112660000D01*
X97040000Y-113310000D02*
X96390000Y-113310000D01*
X103610000Y-113310000D02*
X103610000Y-112660000D01*
X102960000Y-113310000D02*
X103610000Y-113310000D01*
X96390000Y-106090000D02*
X96390000Y-106740000D01*
X97040000Y-106090000D02*
X96390000Y-106090000D01*
X102667000Y-103167000D02*
X102667000Y-102659000D01*
X102159000Y-103167000D02*
X102667000Y-103167000D01*
X102667000Y-97833000D02*
X102159000Y-97833000D01*
X102667000Y-98341000D02*
X102667000Y-97833000D01*
X97333000Y-97833000D02*
X97333000Y-98341000D01*
X97841000Y-97833000D02*
X97333000Y-97833000D01*
X97841000Y-103167000D02*
X97333000Y-103167000D01*
D12*
X85550000Y-103700000D02*
X85550000Y-102700000D01*
X83350000Y-104700000D02*
X83350000Y-102700000D01*
D11*
X86040000Y-105750000D02*
X86040000Y-102750000D01*
X89260000Y-104250000D02*
X89260000Y-102750000D01*
D10*
X93868095Y-106658095D02*
X93868095Y-106896190D01*
X94034761Y-106396190D02*
X93868095Y-106658095D01*
X93701428Y-106396190D01*
X93272857Y-106896190D02*
X93558571Y-106896190D01*
X93415714Y-106896190D02*
X93415714Y-106396190D01*
X93463333Y-106467619D01*
X93510952Y-106515238D01*
X93558571Y-106539047D01*
X90207619Y-91803809D02*
X90255238Y-91780000D01*
X90302857Y-91732380D01*
X90374285Y-91660952D01*
X90421904Y-91637142D01*
X90469523Y-91637142D01*
X90445714Y-91756190D02*
X90493333Y-91732380D01*
X90540952Y-91684761D01*
X90564761Y-91589523D01*
X90564761Y-91422857D01*
X90540952Y-91327619D01*
X90493333Y-91280000D01*
X90445714Y-91256190D01*
X90350476Y-91256190D01*
X90302857Y-91280000D01*
X90255238Y-91327619D01*
X90231428Y-91422857D01*
X90231428Y-91589523D01*
X90255238Y-91684761D01*
X90302857Y-91732380D01*
X90350476Y-91756190D01*
X90445714Y-91756190D01*
X90040952Y-91303809D02*
X90017142Y-91280000D01*
X89969523Y-91256190D01*
X89850476Y-91256190D01*
X89802857Y-91280000D01*
X89779047Y-91303809D01*
X89755238Y-91351428D01*
X89755238Y-91399047D01*
X89779047Y-91470476D01*
X90064761Y-91756190D01*
X89755238Y-91756190D01*
X97797619Y-91773809D02*
X97845238Y-91750000D01*
X97892857Y-91702380D01*
X97964285Y-91630952D01*
X98011904Y-91607142D01*
X98059523Y-91607142D01*
X98035714Y-91726190D02*
X98083333Y-91702380D01*
X98130952Y-91654761D01*
X98154761Y-91559523D01*
X98154761Y-91392857D01*
X98130952Y-91297619D01*
X98083333Y-91250000D01*
X98035714Y-91226190D01*
X97940476Y-91226190D01*
X97892857Y-91250000D01*
X97845238Y-91297619D01*
X97821428Y-91392857D01*
X97821428Y-91559523D01*
X97845238Y-91654761D01*
X97892857Y-91702380D01*
X97940476Y-91726190D01*
X98035714Y-91726190D01*
X97345238Y-91726190D02*
X97630952Y-91726190D01*
X97488095Y-91726190D02*
X97488095Y-91226190D01*
X97535714Y-91297619D01*
X97583333Y-91345238D01*
X97630952Y-91369047D01*
X106767619Y-91813809D02*
X106815238Y-91790000D01*
X106862857Y-91742380D01*
X106934285Y-91670952D01*
X106981904Y-91647142D01*
X107029523Y-91647142D01*
X107005714Y-91766190D02*
X107053333Y-91742380D01*
X107100952Y-91694761D01*
X107124761Y-91599523D01*
X107124761Y-91432857D01*
X107100952Y-91337619D01*
X107053333Y-91290000D01*
X107005714Y-91266190D01*
X106910476Y-91266190D01*
X106862857Y-91290000D01*
X106815238Y-91337619D01*
X106791428Y-91432857D01*
X106791428Y-91599523D01*
X106815238Y-91694761D01*
X106862857Y-91742380D01*
X106910476Y-91766190D01*
X107005714Y-91766190D01*
X106624761Y-91266190D02*
X106315238Y-91266190D01*
X106481904Y-91456666D01*
X106410476Y-91456666D01*
X106362857Y-91480476D01*
X106339047Y-91504285D01*
X106315238Y-91551904D01*
X106315238Y-91670952D01*
X106339047Y-91718571D01*
X106362857Y-91742380D01*
X106410476Y-91766190D01*
X106553333Y-91766190D01*
X106600952Y-91742380D01*
X106624761Y-91718571D01*
X91118571Y-100958571D02*
X91142380Y-100934761D01*
X91166190Y-100863333D01*
X91166190Y-100815714D01*
X91142380Y-100744285D01*
X91094761Y-100696666D01*
X91047142Y-100672857D01*
X90951904Y-100649047D01*
X90880476Y-100649047D01*
X90785238Y-100672857D01*
X90737619Y-100696666D01*
X90690000Y-100744285D01*
X90666190Y-100815714D01*
X90666190Y-100863333D01*
X90690000Y-100934761D01*
X90713809Y-100958571D01*
X90713809Y-101149047D02*
X90690000Y-101172857D01*
X90666190Y-101220476D01*
X90666190Y-101339523D01*
X90690000Y-101387142D01*
X90713809Y-101410952D01*
X90761428Y-101434761D01*
X90809047Y-101434761D01*
X90880476Y-101410952D01*
X91166190Y-101125238D01*
X91166190Y-101434761D01*
X90832857Y-101863333D02*
X91166190Y-101863333D01*
X90642380Y-101744285D02*
X90999523Y-101625238D01*
X90999523Y-101934761D01*
X96008571Y-99228571D02*
X96032380Y-99204761D01*
X96056190Y-99133333D01*
X96056190Y-99085714D01*
X96032380Y-99014285D01*
X95984761Y-98966666D01*
X95937142Y-98942857D01*
X95841904Y-98919047D01*
X95770476Y-98919047D01*
X95675238Y-98942857D01*
X95627619Y-98966666D01*
X95580000Y-99014285D01*
X95556190Y-99085714D01*
X95556190Y-99133333D01*
X95580000Y-99204761D01*
X95603809Y-99228571D01*
X95603809Y-99419047D02*
X95580000Y-99442857D01*
X95556190Y-99490476D01*
X95556190Y-99609523D01*
X95580000Y-99657142D01*
X95603809Y-99680952D01*
X95651428Y-99704761D01*
X95699047Y-99704761D01*
X95770476Y-99680952D01*
X96056190Y-99395238D01*
X96056190Y-99704761D01*
X95556190Y-100133333D02*
X95556190Y-100038095D01*
X95580000Y-99990476D01*
X95603809Y-99966666D01*
X95675238Y-99919047D01*
X95770476Y-99895238D01*
X95960952Y-99895238D01*
X96008571Y-99919047D01*
X96032380Y-99942857D01*
X96056190Y-99990476D01*
X96056190Y-100085714D01*
X96032380Y-100133333D01*
X96008571Y-100157142D01*
X95960952Y-100180952D01*
X95841904Y-100180952D01*
X95794285Y-100157142D01*
X95770476Y-100133333D01*
X95746666Y-100085714D01*
X95746666Y-99990476D01*
X95770476Y-99942857D01*
X95794285Y-99919047D01*
X95841904Y-99895238D01*
X115386190Y-90006666D02*
X115148095Y-89840000D01*
X115386190Y-89720952D02*
X114886190Y-89720952D01*
X114886190Y-89911428D01*
X114910000Y-89959047D01*
X114933809Y-89982857D01*
X114981428Y-90006666D01*
X115052857Y-90006666D01*
X115100476Y-89982857D01*
X115124285Y-89959047D01*
X115148095Y-89911428D01*
X115148095Y-89720952D01*
X114886190Y-90173333D02*
X114886190Y-90506666D01*
X115386190Y-90292380D01*
X101276190Y-92506666D02*
X101038095Y-92340000D01*
X101276190Y-92220952D02*
X100776190Y-92220952D01*
X100776190Y-92411428D01*
X100800000Y-92459047D01*
X100823809Y-92482857D01*
X100871428Y-92506666D01*
X100942857Y-92506666D01*
X100990476Y-92482857D01*
X101014285Y-92459047D01*
X101038095Y-92411428D01*
X101038095Y-92220952D01*
X100990476Y-92792380D02*
X100966666Y-92744761D01*
X100942857Y-92720952D01*
X100895238Y-92697142D01*
X100871428Y-92697142D01*
X100823809Y-92720952D01*
X100800000Y-92744761D01*
X100776190Y-92792380D01*
X100776190Y-92887619D01*
X100800000Y-92935238D01*
X100823809Y-92959047D01*
X100871428Y-92982857D01*
X100895238Y-92982857D01*
X100942857Y-92959047D01*
X100966666Y-92935238D01*
X100990476Y-92887619D01*
X100990476Y-92792380D01*
X101014285Y-92744761D01*
X101038095Y-92720952D01*
X101085714Y-92697142D01*
X101180952Y-92697142D01*
X101228571Y-92720952D01*
X101252380Y-92744761D01*
X101276190Y-92792380D01*
X101276190Y-92887619D01*
X101252380Y-92935238D01*
X101228571Y-92959047D01*
X101180952Y-92982857D01*
X101085714Y-92982857D01*
X101038095Y-92959047D01*
X101014285Y-92935238D01*
X100990476Y-92887619D01*
X92356190Y-92756666D02*
X92118095Y-92590000D01*
X92356190Y-92470952D02*
X91856190Y-92470952D01*
X91856190Y-92661428D01*
X91880000Y-92709047D01*
X91903809Y-92732857D01*
X91951428Y-92756666D01*
X92022857Y-92756666D01*
X92070476Y-92732857D01*
X92094285Y-92709047D01*
X92118095Y-92661428D01*
X92118095Y-92470952D01*
X92356190Y-92994761D02*
X92356190Y-93090000D01*
X92332380Y-93137619D01*
X92308571Y-93161428D01*
X92237142Y-93209047D01*
X92141904Y-93232857D01*
X91951428Y-93232857D01*
X91903809Y-93209047D01*
X91880000Y-93185238D01*
X91856190Y-93137619D01*
X91856190Y-93042380D01*
X91880000Y-92994761D01*
X91903809Y-92970952D01*
X91951428Y-92947142D01*
X92070476Y-92947142D01*
X92118095Y-92970952D01*
X92141904Y-92994761D01*
X92165714Y-93042380D01*
X92165714Y-93137619D01*
X92141904Y-93185238D01*
X92118095Y-93209047D01*
X92070476Y-93232857D01*
X110286190Y-92228571D02*
X110048095Y-92061904D01*
X110286190Y-91942857D02*
X109786190Y-91942857D01*
X109786190Y-92133333D01*
X109810000Y-92180952D01*
X109833809Y-92204761D01*
X109881428Y-92228571D01*
X109952857Y-92228571D01*
X110000476Y-92204761D01*
X110024285Y-92180952D01*
X110048095Y-92133333D01*
X110048095Y-91942857D01*
X110286190Y-92704761D02*
X110286190Y-92419047D01*
X110286190Y-92561904D02*
X109786190Y-92561904D01*
X109857619Y-92514285D01*
X109905238Y-92466666D01*
X109929047Y-92419047D01*
X110286190Y-93180952D02*
X110286190Y-92895238D01*
X110286190Y-93038095D02*
X109786190Y-93038095D01*
X109857619Y-92990476D01*
X109905238Y-92942857D01*
X109929047Y-92895238D01*
X91116190Y-95648571D02*
X90878095Y-95481904D01*
X91116190Y-95362857D02*
X90616190Y-95362857D01*
X90616190Y-95553333D01*
X90640000Y-95600952D01*
X90663809Y-95624761D01*
X90711428Y-95648571D01*
X90782857Y-95648571D01*
X90830476Y-95624761D01*
X90854285Y-95600952D01*
X90878095Y-95553333D01*
X90878095Y-95362857D01*
X90663809Y-95839047D02*
X90640000Y-95862857D01*
X90616190Y-95910476D01*
X90616190Y-96029523D01*
X90640000Y-96077142D01*
X90663809Y-96100952D01*
X90711428Y-96124761D01*
X90759047Y-96124761D01*
X90830476Y-96100952D01*
X91116190Y-95815238D01*
X91116190Y-96124761D01*
X90616190Y-96434285D02*
X90616190Y-96481904D01*
X90640000Y-96529523D01*
X90663809Y-96553333D01*
X90711428Y-96577142D01*
X90806666Y-96600952D01*
X90925714Y-96600952D01*
X91020952Y-96577142D01*
X91068571Y-96553333D01*
X91092380Y-96529523D01*
X91116190Y-96481904D01*
X91116190Y-96434285D01*
X91092380Y-96386666D01*
X91068571Y-96362857D01*
X91020952Y-96339047D01*
X90925714Y-96315238D01*
X90806666Y-96315238D01*
X90711428Y-96339047D01*
X90663809Y-96362857D01*
X90640000Y-96386666D01*
X90616190Y-96434285D01*
X93226190Y-95688571D02*
X92988095Y-95521904D01*
X93226190Y-95402857D02*
X92726190Y-95402857D01*
X92726190Y-95593333D01*
X92750000Y-95640952D01*
X92773809Y-95664761D01*
X92821428Y-95688571D01*
X92892857Y-95688571D01*
X92940476Y-95664761D01*
X92964285Y-95640952D01*
X92988095Y-95593333D01*
X92988095Y-95402857D01*
X92773809Y-95879047D02*
X92750000Y-95902857D01*
X92726190Y-95950476D01*
X92726190Y-96069523D01*
X92750000Y-96117142D01*
X92773809Y-96140952D01*
X92821428Y-96164761D01*
X92869047Y-96164761D01*
X92940476Y-96140952D01*
X93226190Y-95855238D01*
X93226190Y-96164761D01*
X93226190Y-96640952D02*
X93226190Y-96355238D01*
X93226190Y-96498095D02*
X92726190Y-96498095D01*
X92797619Y-96450476D01*
X92845238Y-96402857D01*
X92869047Y-96355238D01*
X95176190Y-95688571D02*
X94938095Y-95521904D01*
X95176190Y-95402857D02*
X94676190Y-95402857D01*
X94676190Y-95593333D01*
X94700000Y-95640952D01*
X94723809Y-95664761D01*
X94771428Y-95688571D01*
X94842857Y-95688571D01*
X94890476Y-95664761D01*
X94914285Y-95640952D01*
X94938095Y-95593333D01*
X94938095Y-95402857D01*
X94723809Y-95879047D02*
X94700000Y-95902857D01*
X94676190Y-95950476D01*
X94676190Y-96069523D01*
X94700000Y-96117142D01*
X94723809Y-96140952D01*
X94771428Y-96164761D01*
X94819047Y-96164761D01*
X94890476Y-96140952D01*
X95176190Y-95855238D01*
X95176190Y-96164761D01*
X94723809Y-96355238D02*
X94700000Y-96379047D01*
X94676190Y-96426666D01*
X94676190Y-96545714D01*
X94700000Y-96593333D01*
X94723809Y-96617142D01*
X94771428Y-96640952D01*
X94819047Y-96640952D01*
X94890476Y-96617142D01*
X95176190Y-96331428D01*
X95176190Y-96640952D01*
X90216190Y-95618571D02*
X89978095Y-95451904D01*
X90216190Y-95332857D02*
X89716190Y-95332857D01*
X89716190Y-95523333D01*
X89740000Y-95570952D01*
X89763809Y-95594761D01*
X89811428Y-95618571D01*
X89882857Y-95618571D01*
X89930476Y-95594761D01*
X89954285Y-95570952D01*
X89978095Y-95523333D01*
X89978095Y-95332857D01*
X89763809Y-95809047D02*
X89740000Y-95832857D01*
X89716190Y-95880476D01*
X89716190Y-95999523D01*
X89740000Y-96047142D01*
X89763809Y-96070952D01*
X89811428Y-96094761D01*
X89859047Y-96094761D01*
X89930476Y-96070952D01*
X90216190Y-95785238D01*
X90216190Y-96094761D01*
X89716190Y-96261428D02*
X89716190Y-96570952D01*
X89906666Y-96404285D01*
X89906666Y-96475714D01*
X89930476Y-96523333D01*
X89954285Y-96547142D01*
X90001904Y-96570952D01*
X90120952Y-96570952D01*
X90168571Y-96547142D01*
X90192380Y-96523333D01*
X90216190Y-96475714D01*
X90216190Y-96332857D01*
X90192380Y-96285238D01*
X90168571Y-96261428D01*
X92166190Y-99068571D02*
X91928095Y-98901904D01*
X92166190Y-98782857D02*
X91666190Y-98782857D01*
X91666190Y-98973333D01*
X91690000Y-99020952D01*
X91713809Y-99044761D01*
X91761428Y-99068571D01*
X91832857Y-99068571D01*
X91880476Y-99044761D01*
X91904285Y-99020952D01*
X91928095Y-98973333D01*
X91928095Y-98782857D01*
X91713809Y-99259047D02*
X91690000Y-99282857D01*
X91666190Y-99330476D01*
X91666190Y-99449523D01*
X91690000Y-99497142D01*
X91713809Y-99520952D01*
X91761428Y-99544761D01*
X91809047Y-99544761D01*
X91880476Y-99520952D01*
X92166190Y-99235238D01*
X92166190Y-99544761D01*
X91832857Y-99973333D02*
X92166190Y-99973333D01*
X91642380Y-99854285D02*
X91999523Y-99735238D01*
X91999523Y-100044761D01*
X94166190Y-95688571D02*
X93928095Y-95521904D01*
X94166190Y-95402857D02*
X93666190Y-95402857D01*
X93666190Y-95593333D01*
X93690000Y-95640952D01*
X93713809Y-95664761D01*
X93761428Y-95688571D01*
X93832857Y-95688571D01*
X93880476Y-95664761D01*
X93904285Y-95640952D01*
X93928095Y-95593333D01*
X93928095Y-95402857D01*
X93666190Y-95855238D02*
X93666190Y-96164761D01*
X93856666Y-95998095D01*
X93856666Y-96069523D01*
X93880476Y-96117142D01*
X93904285Y-96140952D01*
X93951904Y-96164761D01*
X94070952Y-96164761D01*
X94118571Y-96140952D01*
X94142380Y-96117142D01*
X94166190Y-96069523D01*
X94166190Y-95926666D01*
X94142380Y-95879047D01*
X94118571Y-95855238D01*
X93713809Y-96355238D02*
X93690000Y-96379047D01*
X93666190Y-96426666D01*
X93666190Y-96545714D01*
X93690000Y-96593333D01*
X93713809Y-96617142D01*
X93761428Y-96640952D01*
X93809047Y-96640952D01*
X93880476Y-96617142D01*
X94166190Y-96331428D01*
X94166190Y-96640952D01*
X93801428Y-100346190D02*
X93968095Y-100108095D01*
X94087142Y-100346190D02*
X94087142Y-99846190D01*
X93896666Y-99846190D01*
X93849047Y-99870000D01*
X93825238Y-99893809D01*
X93801428Y-99941428D01*
X93801428Y-100012857D01*
X93825238Y-100060476D01*
X93849047Y-100084285D01*
X93896666Y-100108095D01*
X94087142Y-100108095D01*
X93634761Y-99846190D02*
X93325238Y-99846190D01*
X93491904Y-100036666D01*
X93420476Y-100036666D01*
X93372857Y-100060476D01*
X93349047Y-100084285D01*
X93325238Y-100131904D01*
X93325238Y-100250952D01*
X93349047Y-100298571D01*
X93372857Y-100322380D01*
X93420476Y-100346190D01*
X93563333Y-100346190D01*
X93610952Y-100322380D01*
X93634761Y-100298571D01*
X93158571Y-99846190D02*
X92849047Y-99846190D01*
X93015714Y-100036666D01*
X92944285Y-100036666D01*
X92896666Y-100060476D01*
X92872857Y-100084285D01*
X92849047Y-100131904D01*
X92849047Y-100250952D01*
X92872857Y-100298571D01*
X92896666Y-100322380D01*
X92944285Y-100346190D01*
X93087142Y-100346190D01*
X93134761Y-100322380D01*
X93158571Y-100298571D01*
X109206190Y-97309047D02*
X109610952Y-97309047D01*
X109658571Y-97332857D01*
X109682380Y-97356666D01*
X109706190Y-97404285D01*
X109706190Y-97499523D01*
X109682380Y-97547142D01*
X109658571Y-97570952D01*
X109610952Y-97594761D01*
X109206190Y-97594761D01*
X109706190Y-98094761D02*
X109706190Y-97809047D01*
X109706190Y-97951904D02*
X109206190Y-97951904D01*
X109277619Y-97904285D01*
X109325238Y-97856666D01*
X109349047Y-97809047D01*
X97880952Y-104826190D02*
X97880952Y-105230952D01*
X97857142Y-105278571D01*
X97833333Y-105302380D01*
X97785714Y-105326190D01*
X97690476Y-105326190D01*
X97642857Y-105302380D01*
X97619047Y-105278571D01*
X97595238Y-105230952D01*
X97595238Y-104826190D01*
X97380952Y-104873809D02*
X97357142Y-104850000D01*
X97309523Y-104826190D01*
X97190476Y-104826190D01*
X97142857Y-104850000D01*
X97119047Y-104873809D01*
X97095238Y-104921428D01*
X97095238Y-104969047D01*
X97119047Y-105040476D01*
X97404761Y-105326190D01*
X97095238Y-105326190D01*
X102710952Y-96786190D02*
X102710952Y-97190952D01*
X102687142Y-97238571D01*
X102663333Y-97262380D01*
X102615714Y-97286190D01*
X102520476Y-97286190D01*
X102472857Y-97262380D01*
X102449047Y-97238571D01*
X102425238Y-97190952D01*
X102425238Y-96786190D01*
X102234761Y-96786190D02*
X101925238Y-96786190D01*
X102091904Y-96976666D01*
X102020476Y-96976666D01*
X101972857Y-97000476D01*
X101949047Y-97024285D01*
X101925238Y-97071904D01*
X101925238Y-97190952D01*
X101949047Y-97238571D01*
X101972857Y-97262380D01*
X102020476Y-97286190D01*
X102163333Y-97286190D01*
X102210952Y-97262380D01*
X102234761Y-97238571D01*
X84440952Y-105746190D02*
X84440952Y-106150952D01*
X84417142Y-106198571D01*
X84393333Y-106222380D01*
X84345714Y-106246190D01*
X84250476Y-106246190D01*
X84202857Y-106222380D01*
X84179047Y-106198571D01*
X84155238Y-106150952D01*
X84155238Y-105746190D01*
X83702857Y-105912857D02*
X83702857Y-106246190D01*
X83821904Y-105722380D02*
X83940952Y-106079523D01*
X83631428Y-106079523D01*
X89310952Y-106636190D02*
X89310952Y-107040952D01*
X89287142Y-107088571D01*
X89263333Y-107112380D01*
X89215714Y-107136190D01*
X89120476Y-107136190D01*
X89072857Y-107112380D01*
X89049047Y-107088571D01*
X89025238Y-107040952D01*
X89025238Y-106636190D01*
X88715714Y-106850476D02*
X88763333Y-106826666D01*
X88787142Y-106802857D01*
X88810952Y-106755238D01*
X88810952Y-106731428D01*
X88787142Y-106683809D01*
X88763333Y-106660000D01*
X88715714Y-106636190D01*
X88620476Y-106636190D01*
X88572857Y-106660000D01*
X88549047Y-106683809D01*
X88525238Y-106731428D01*
X88525238Y-106755238D01*
X88549047Y-106802857D01*
X88572857Y-106826666D01*
X88620476Y-106850476D01*
X88715714Y-106850476D01*
X88763333Y-106874285D01*
X88787142Y-106898095D01*
X88810952Y-106945714D01*
X88810952Y-107040952D01*
X88787142Y-107088571D01*
X88763333Y-107112380D01*
X88715714Y-107136190D01*
X88620476Y-107136190D01*
X88572857Y-107112380D01*
X88549047Y-107088571D01*
X88525238Y-107040952D01*
X88525238Y-106945714D01*
X88549047Y-106898095D01*
X88572857Y-106874285D01*
X88620476Y-106850476D01*
M02*
