G04 #@! TF.GenerationSoftware,KiCad,Pcbnew,(5.1.5)-3*
G04 #@! TF.CreationDate,2020-08-22T17:19:44-02:30*
G04 #@! TF.ProjectId,Thruster_Controller_V2,54687275-7374-4657-925f-436f6e74726f,rev?*
G04 #@! TF.SameCoordinates,Original*
G04 #@! TF.FileFunction,Soldermask,Bot*
G04 #@! TF.FilePolarity,Negative*
%FSLAX46Y46*%
G04 Gerber Fmt 4.6, Leading zero omitted, Abs format (unit mm)*
G04 Created by KiCad (PCBNEW (5.1.5)-3) date 2020-08-22 17:19:44*
%MOMM*%
%LPD*%
G04 APERTURE LIST*
%ADD10C,0.100000*%
G04 APERTURE END LIST*
D10*
G36*
X102751000Y-113651000D02*
G01*
X97249000Y-113651000D01*
X97249000Y-112749000D01*
X102751000Y-112749000D01*
X102751000Y-113651000D01*
G37*
G36*
X102851000Y-112551000D02*
G01*
X97149000Y-112551000D01*
X97149000Y-106849000D01*
X102851000Y-106849000D01*
X102851000Y-112551000D01*
G37*
G36*
X103951000Y-112451000D02*
G01*
X103049000Y-112451000D01*
X103049000Y-106949000D01*
X103951000Y-106949000D01*
X103951000Y-112451000D01*
G37*
G36*
X96951000Y-112451000D02*
G01*
X96049000Y-112451000D01*
X96049000Y-106949000D01*
X96951000Y-106949000D01*
X96951000Y-112451000D01*
G37*
G36*
X107143350Y-108284694D02*
G01*
X107242770Y-108325875D01*
X107332246Y-108385661D01*
X107408339Y-108461754D01*
X107468125Y-108551230D01*
X107509306Y-108650650D01*
X107530300Y-108756194D01*
X107530300Y-108863806D01*
X107509306Y-108969350D01*
X107468125Y-109068770D01*
X107408339Y-109158246D01*
X107332246Y-109234339D01*
X107242770Y-109294125D01*
X107143350Y-109335306D01*
X107037806Y-109356300D01*
X106930194Y-109356300D01*
X106824650Y-109335306D01*
X106725230Y-109294125D01*
X106635754Y-109234339D01*
X106559661Y-109158246D01*
X106499875Y-109068770D01*
X106458694Y-108969350D01*
X106437700Y-108863806D01*
X106437700Y-108756194D01*
X106458694Y-108650650D01*
X106499875Y-108551230D01*
X106559661Y-108461754D01*
X106635754Y-108385661D01*
X106725230Y-108325875D01*
X106824650Y-108284694D01*
X106930194Y-108263700D01*
X107037806Y-108263700D01*
X107143350Y-108284694D01*
G37*
G36*
X109175350Y-108284694D02*
G01*
X109274770Y-108325875D01*
X109364246Y-108385661D01*
X109440339Y-108461754D01*
X109500125Y-108551230D01*
X109541306Y-108650650D01*
X109562300Y-108756194D01*
X109562300Y-108863806D01*
X109541306Y-108969350D01*
X109500125Y-109068770D01*
X109440339Y-109158246D01*
X109364246Y-109234339D01*
X109274770Y-109294125D01*
X109175350Y-109335306D01*
X109069806Y-109356300D01*
X108962194Y-109356300D01*
X108856650Y-109335306D01*
X108757230Y-109294125D01*
X108667754Y-109234339D01*
X108591661Y-109158246D01*
X108531875Y-109068770D01*
X108490694Y-108969350D01*
X108469700Y-108863806D01*
X108469700Y-108756194D01*
X108490694Y-108650650D01*
X108531875Y-108551230D01*
X108591661Y-108461754D01*
X108667754Y-108385661D01*
X108757230Y-108325875D01*
X108856650Y-108284694D01*
X108962194Y-108263700D01*
X109069806Y-108263700D01*
X109175350Y-108284694D01*
G37*
G36*
X88301000Y-109176000D02*
G01*
X87599000Y-109176000D01*
X87599000Y-108674000D01*
X88301000Y-108674000D01*
X88301000Y-109176000D01*
G37*
G36*
X88301000Y-108276000D02*
G01*
X87599000Y-108276000D01*
X87599000Y-107774000D01*
X88301000Y-107774000D01*
X88301000Y-108276000D01*
G37*
G36*
X107451756Y-107103844D02*
G01*
X107494714Y-107112389D01*
X107575645Y-107145912D01*
X107648480Y-107194579D01*
X107710421Y-107256520D01*
X107759088Y-107329355D01*
X107792611Y-107410286D01*
X107809700Y-107496201D01*
X107809700Y-107583799D01*
X107792611Y-107669714D01*
X107764840Y-107736758D01*
X107759770Y-107749000D01*
X107759088Y-107750645D01*
X107710421Y-107823480D01*
X107648480Y-107885421D01*
X107575645Y-107934088D01*
X107494714Y-107967611D01*
X107451757Y-107976155D01*
X107408801Y-107984700D01*
X107321199Y-107984700D01*
X107278243Y-107976155D01*
X107235286Y-107967611D01*
X107154355Y-107934088D01*
X107081520Y-107885421D01*
X107019579Y-107823480D01*
X106970912Y-107750645D01*
X106970231Y-107749000D01*
X106965160Y-107736758D01*
X106937389Y-107669714D01*
X106920300Y-107583799D01*
X106920300Y-107496201D01*
X106937389Y-107410286D01*
X106970912Y-107329355D01*
X107019579Y-107256520D01*
X107081520Y-107194579D01*
X107154355Y-107145912D01*
X107235286Y-107112389D01*
X107278244Y-107103844D01*
X107321199Y-107095300D01*
X107408801Y-107095300D01*
X107451756Y-107103844D01*
G37*
G36*
X108721756Y-107103844D02*
G01*
X108764714Y-107112389D01*
X108845645Y-107145912D01*
X108918480Y-107194579D01*
X108980421Y-107256520D01*
X109029088Y-107329355D01*
X109062611Y-107410286D01*
X109079700Y-107496201D01*
X109079700Y-107583799D01*
X109062611Y-107669714D01*
X109034840Y-107736758D01*
X109029770Y-107749000D01*
X109029088Y-107750645D01*
X108980421Y-107823480D01*
X108918480Y-107885421D01*
X108845645Y-107934088D01*
X108764714Y-107967611D01*
X108721757Y-107976155D01*
X108678801Y-107984700D01*
X108591199Y-107984700D01*
X108548243Y-107976155D01*
X108505286Y-107967611D01*
X108424355Y-107934088D01*
X108351520Y-107885421D01*
X108289579Y-107823480D01*
X108240912Y-107750645D01*
X108240231Y-107749000D01*
X108235160Y-107736758D01*
X108207389Y-107669714D01*
X108190300Y-107583799D01*
X108190300Y-107496201D01*
X108207389Y-107410286D01*
X108240912Y-107329355D01*
X108289579Y-107256520D01*
X108351520Y-107194579D01*
X108424355Y-107145912D01*
X108505286Y-107112389D01*
X108548244Y-107103844D01*
X108591199Y-107095300D01*
X108678801Y-107095300D01*
X108721756Y-107103844D01*
G37*
G36*
X88201000Y-106726000D02*
G01*
X87749000Y-106726000D01*
X87749000Y-105974000D01*
X88201000Y-105974000D01*
X88201000Y-106726000D01*
G37*
G36*
X87551000Y-106726000D02*
G01*
X87099000Y-106726000D01*
X87099000Y-105974000D01*
X87551000Y-105974000D01*
X87551000Y-106726000D01*
G37*
G36*
X86901000Y-106726000D02*
G01*
X86449000Y-106726000D01*
X86449000Y-105974000D01*
X86901000Y-105974000D01*
X86901000Y-106726000D01*
G37*
G36*
X86251000Y-106726000D02*
G01*
X85799000Y-106726000D01*
X85799000Y-105974000D01*
X86251000Y-105974000D01*
X86251000Y-106726000D01*
G37*
G36*
X108721756Y-105833844D02*
G01*
X108764714Y-105842389D01*
X108845645Y-105875912D01*
X108918480Y-105924579D01*
X108980421Y-105986520D01*
X109029088Y-106059355D01*
X109062611Y-106140286D01*
X109079700Y-106226201D01*
X109079700Y-106313799D01*
X109062611Y-106399714D01*
X109029088Y-106480645D01*
X108980421Y-106553480D01*
X108918480Y-106615421D01*
X108845645Y-106664088D01*
X108764714Y-106697611D01*
X108721757Y-106706155D01*
X108678801Y-106714700D01*
X108591199Y-106714700D01*
X108548244Y-106706156D01*
X108505286Y-106697611D01*
X108424355Y-106664088D01*
X108351520Y-106615421D01*
X108289579Y-106553480D01*
X108240912Y-106480645D01*
X108207389Y-106399714D01*
X108190300Y-106313799D01*
X108190300Y-106226201D01*
X108207389Y-106140286D01*
X108240912Y-106059355D01*
X108289579Y-105986520D01*
X108351520Y-105924579D01*
X108424355Y-105875912D01*
X108505286Y-105842389D01*
X108548244Y-105833844D01*
X108591199Y-105825300D01*
X108678801Y-105825300D01*
X108721756Y-105833844D01*
G37*
G36*
X107451756Y-105833844D02*
G01*
X107494714Y-105842389D01*
X107575645Y-105875912D01*
X107648480Y-105924579D01*
X107710421Y-105986520D01*
X107759088Y-106059355D01*
X107792611Y-106140286D01*
X107809700Y-106226201D01*
X107809700Y-106313799D01*
X107792611Y-106399714D01*
X107759088Y-106480645D01*
X107710421Y-106553480D01*
X107648480Y-106615421D01*
X107575645Y-106664088D01*
X107494714Y-106697611D01*
X107451757Y-106706155D01*
X107408801Y-106714700D01*
X107321199Y-106714700D01*
X107278244Y-106706156D01*
X107235286Y-106697611D01*
X107154355Y-106664088D01*
X107081520Y-106615421D01*
X107019579Y-106553480D01*
X106970912Y-106480645D01*
X106937389Y-106399714D01*
X106920300Y-106313799D01*
X106920300Y-106226201D01*
X106937389Y-106140286D01*
X106970912Y-106059355D01*
X107019579Y-105986520D01*
X107081520Y-105924579D01*
X107154355Y-105875912D01*
X107235286Y-105842389D01*
X107278244Y-105833844D01*
X107321199Y-105825300D01*
X107408801Y-105825300D01*
X107451756Y-105833844D01*
G37*
G36*
X102751000Y-106651000D02*
G01*
X97249000Y-106651000D01*
X97249000Y-105749000D01*
X102751000Y-105749000D01*
X102751000Y-106651000D01*
G37*
G36*
X93201000Y-106026000D02*
G01*
X91899000Y-106026000D01*
X91899000Y-104524000D01*
X93201000Y-104524000D01*
X93201000Y-106026000D01*
G37*
G36*
X94801000Y-106026000D02*
G01*
X93499000Y-106026000D01*
X93499000Y-104524000D01*
X94801000Y-104524000D01*
X94801000Y-106026000D01*
G37*
G36*
X88251000Y-105626000D02*
G01*
X85749000Y-105626000D01*
X85749000Y-103974000D01*
X88251000Y-103974000D01*
X88251000Y-105626000D01*
G37*
G36*
X108721757Y-104563845D02*
G01*
X108764714Y-104572389D01*
X108845645Y-104605912D01*
X108918480Y-104654579D01*
X108980421Y-104716520D01*
X109029088Y-104789355D01*
X109062611Y-104870286D01*
X109079700Y-104956201D01*
X109079700Y-105043799D01*
X109062611Y-105129714D01*
X109029088Y-105210645D01*
X108980421Y-105283480D01*
X108918480Y-105345421D01*
X108845645Y-105394088D01*
X108764714Y-105427611D01*
X108721757Y-105436155D01*
X108678801Y-105444700D01*
X108591199Y-105444700D01*
X108548243Y-105436155D01*
X108505286Y-105427611D01*
X108424355Y-105394088D01*
X108351520Y-105345421D01*
X108289579Y-105283480D01*
X108240912Y-105210645D01*
X108207389Y-105129714D01*
X108190300Y-105043799D01*
X108190300Y-104956201D01*
X108207389Y-104870286D01*
X108240912Y-104789355D01*
X108289579Y-104716520D01*
X108351520Y-104654579D01*
X108424355Y-104605912D01*
X108505286Y-104572389D01*
X108548243Y-104563845D01*
X108591199Y-104555300D01*
X108678801Y-104555300D01*
X108721757Y-104563845D01*
G37*
G36*
X107451757Y-104563845D02*
G01*
X107494714Y-104572389D01*
X107575645Y-104605912D01*
X107648480Y-104654579D01*
X107710421Y-104716520D01*
X107759088Y-104789355D01*
X107792611Y-104870286D01*
X107809700Y-104956201D01*
X107809700Y-105043799D01*
X107792611Y-105129714D01*
X107759088Y-105210645D01*
X107710421Y-105283480D01*
X107648480Y-105345421D01*
X107575645Y-105394088D01*
X107494714Y-105427611D01*
X107451757Y-105436155D01*
X107408801Y-105444700D01*
X107321199Y-105444700D01*
X107278243Y-105436155D01*
X107235286Y-105427611D01*
X107154355Y-105394088D01*
X107081520Y-105345421D01*
X107019579Y-105283480D01*
X106970912Y-105210645D01*
X106937389Y-105129714D01*
X106920300Y-105043799D01*
X106920300Y-104956201D01*
X106937389Y-104870286D01*
X106970912Y-104789355D01*
X107019579Y-104716520D01*
X107081520Y-104654579D01*
X107154355Y-104605912D01*
X107235286Y-104572389D01*
X107278243Y-104563845D01*
X107321199Y-104555300D01*
X107408801Y-104555300D01*
X107451757Y-104563845D01*
G37*
G36*
X107451757Y-103293845D02*
G01*
X107494714Y-103302389D01*
X107575645Y-103335912D01*
X107648480Y-103384579D01*
X107710421Y-103446520D01*
X107759088Y-103519355D01*
X107792611Y-103600286D01*
X107809700Y-103686201D01*
X107809700Y-103773799D01*
X107792611Y-103859714D01*
X107759088Y-103940645D01*
X107710421Y-104013480D01*
X107648480Y-104075421D01*
X107575645Y-104124088D01*
X107494714Y-104157611D01*
X107451756Y-104166156D01*
X107408801Y-104174700D01*
X107321199Y-104174700D01*
X107278244Y-104166156D01*
X107235286Y-104157611D01*
X107154355Y-104124088D01*
X107081520Y-104075421D01*
X107019579Y-104013480D01*
X106970912Y-103940645D01*
X106937389Y-103859714D01*
X106920300Y-103773799D01*
X106920300Y-103686201D01*
X106937389Y-103600286D01*
X106970912Y-103519355D01*
X107019579Y-103446520D01*
X107081520Y-103384579D01*
X107154355Y-103335912D01*
X107235286Y-103302389D01*
X107278243Y-103293845D01*
X107321199Y-103285300D01*
X107408801Y-103285300D01*
X107451757Y-103293845D01*
G37*
G36*
X108721757Y-103293845D02*
G01*
X108764714Y-103302389D01*
X108845645Y-103335912D01*
X108918480Y-103384579D01*
X108980421Y-103446520D01*
X109029088Y-103519355D01*
X109062611Y-103600286D01*
X109079700Y-103686201D01*
X109079700Y-103773799D01*
X109062611Y-103859714D01*
X109029088Y-103940645D01*
X108980421Y-104013480D01*
X108918480Y-104075421D01*
X108845645Y-104124088D01*
X108764714Y-104157611D01*
X108721756Y-104166156D01*
X108678801Y-104174700D01*
X108591199Y-104174700D01*
X108548244Y-104166156D01*
X108505286Y-104157611D01*
X108424355Y-104124088D01*
X108351520Y-104075421D01*
X108289579Y-104013480D01*
X108240912Y-103940645D01*
X108207389Y-103859714D01*
X108190300Y-103773799D01*
X108190300Y-103686201D01*
X108207389Y-103600286D01*
X108240912Y-103519355D01*
X108289579Y-103446520D01*
X108351520Y-103384579D01*
X108424355Y-103335912D01*
X108505286Y-103302389D01*
X108548243Y-103293845D01*
X108591199Y-103285300D01*
X108678801Y-103285300D01*
X108721757Y-103293845D01*
G37*
G36*
X93201000Y-103826000D02*
G01*
X91899000Y-103826000D01*
X91899000Y-102324000D01*
X93201000Y-102324000D01*
X93201000Y-103826000D01*
G37*
G36*
X94801000Y-103826000D02*
G01*
X93499000Y-103826000D01*
X93499000Y-102324000D01*
X94801000Y-102324000D01*
X94801000Y-103826000D01*
G37*
G36*
X86901000Y-103626000D02*
G01*
X86449000Y-103626000D01*
X86449000Y-102874000D01*
X86901000Y-102874000D01*
X86901000Y-103626000D01*
G37*
G36*
X86251000Y-103626000D02*
G01*
X85799000Y-103626000D01*
X85799000Y-102874000D01*
X86251000Y-102874000D01*
X86251000Y-103626000D01*
G37*
G36*
X88201000Y-103626000D02*
G01*
X87749000Y-103626000D01*
X87749000Y-102874000D01*
X88201000Y-102874000D01*
X88201000Y-103626000D01*
G37*
G36*
X87551000Y-103626000D02*
G01*
X87099000Y-103626000D01*
X87099000Y-102874000D01*
X87551000Y-102874000D01*
X87551000Y-103626000D01*
G37*
G36*
X101926000Y-103251000D02*
G01*
X101574000Y-103251000D01*
X101574000Y-102549000D01*
X101926000Y-102549000D01*
X101926000Y-103251000D01*
G37*
G36*
X98426000Y-103251000D02*
G01*
X98074000Y-103251000D01*
X98074000Y-102549000D01*
X98426000Y-102549000D01*
X98426000Y-103251000D01*
G37*
G36*
X98926000Y-103251000D02*
G01*
X98574000Y-103251000D01*
X98574000Y-102549000D01*
X98926000Y-102549000D01*
X98926000Y-103251000D01*
G37*
G36*
X99426000Y-103251000D02*
G01*
X99074000Y-103251000D01*
X99074000Y-102549000D01*
X99426000Y-102549000D01*
X99426000Y-103251000D01*
G37*
G36*
X100426000Y-103251000D02*
G01*
X100074000Y-103251000D01*
X100074000Y-102549000D01*
X100426000Y-102549000D01*
X100426000Y-103251000D01*
G37*
G36*
X100926000Y-103251000D02*
G01*
X100574000Y-103251000D01*
X100574000Y-102549000D01*
X100926000Y-102549000D01*
X100926000Y-103251000D01*
G37*
G36*
X101426000Y-103251000D02*
G01*
X101074000Y-103251000D01*
X101074000Y-102549000D01*
X101426000Y-102549000D01*
X101426000Y-103251000D01*
G37*
G36*
X99926000Y-103251000D02*
G01*
X99574000Y-103251000D01*
X99574000Y-102549000D01*
X99926000Y-102549000D01*
X99926000Y-103251000D01*
G37*
G36*
X108721756Y-102023844D02*
G01*
X108764714Y-102032389D01*
X108845645Y-102065912D01*
X108918480Y-102114579D01*
X108980421Y-102176520D01*
X109029088Y-102249355D01*
X109062611Y-102330286D01*
X109079700Y-102416201D01*
X109079700Y-102503799D01*
X109062611Y-102589714D01*
X109029088Y-102670645D01*
X108980421Y-102743480D01*
X108918480Y-102805421D01*
X108845645Y-102854088D01*
X108764714Y-102887611D01*
X108721756Y-102896156D01*
X108678801Y-102904700D01*
X108591199Y-102904700D01*
X108548244Y-102896156D01*
X108505286Y-102887611D01*
X108424355Y-102854088D01*
X108351520Y-102805421D01*
X108289579Y-102743480D01*
X108240912Y-102670645D01*
X108207389Y-102589714D01*
X108190300Y-102503799D01*
X108190300Y-102416201D01*
X108207389Y-102330286D01*
X108240912Y-102249355D01*
X108289579Y-102176520D01*
X108351520Y-102114579D01*
X108424355Y-102065912D01*
X108505286Y-102032389D01*
X108548244Y-102023844D01*
X108591199Y-102015300D01*
X108678801Y-102015300D01*
X108721756Y-102023844D01*
G37*
G36*
X107451756Y-102023844D02*
G01*
X107494714Y-102032389D01*
X107575645Y-102065912D01*
X107648480Y-102114579D01*
X107710421Y-102176520D01*
X107759088Y-102249355D01*
X107792611Y-102330286D01*
X107809700Y-102416201D01*
X107809700Y-102503799D01*
X107792611Y-102589714D01*
X107759088Y-102670645D01*
X107710421Y-102743480D01*
X107648480Y-102805421D01*
X107575645Y-102854088D01*
X107494714Y-102887611D01*
X107451756Y-102896156D01*
X107408801Y-102904700D01*
X107321199Y-102904700D01*
X107278244Y-102896156D01*
X107235286Y-102887611D01*
X107154355Y-102854088D01*
X107081520Y-102805421D01*
X107019579Y-102743480D01*
X106970912Y-102670645D01*
X106937389Y-102589714D01*
X106920300Y-102503799D01*
X106920300Y-102416201D01*
X106937389Y-102330286D01*
X106970912Y-102249355D01*
X107019579Y-102176520D01*
X107081520Y-102114579D01*
X107154355Y-102065912D01*
X107235286Y-102032389D01*
X107278244Y-102023844D01*
X107321199Y-102015300D01*
X107408801Y-102015300D01*
X107451756Y-102023844D01*
G37*
G36*
X97951000Y-102426000D02*
G01*
X97249000Y-102426000D01*
X97249000Y-102074000D01*
X97951000Y-102074000D01*
X97951000Y-102426000D01*
G37*
G36*
X102751000Y-102426000D02*
G01*
X102049000Y-102426000D01*
X102049000Y-102074000D01*
X102751000Y-102074000D01*
X102751000Y-102426000D01*
G37*
G36*
X101601000Y-102101000D02*
G01*
X98399000Y-102101000D01*
X98399000Y-98899000D01*
X101601000Y-98899000D01*
X101601000Y-102101000D01*
G37*
G36*
X97951000Y-101926000D02*
G01*
X97249000Y-101926000D01*
X97249000Y-101574000D01*
X97951000Y-101574000D01*
X97951000Y-101926000D01*
G37*
G36*
X102751000Y-101926000D02*
G01*
X102049000Y-101926000D01*
X102049000Y-101574000D01*
X102751000Y-101574000D01*
X102751000Y-101926000D01*
G37*
G36*
X108159350Y-100664694D02*
G01*
X108258770Y-100705875D01*
X108348246Y-100765661D01*
X108424339Y-100841754D01*
X108484125Y-100931230D01*
X108525306Y-101030650D01*
X108546300Y-101136194D01*
X108546300Y-101243806D01*
X108525306Y-101349350D01*
X108484125Y-101448770D01*
X108424339Y-101538246D01*
X108348246Y-101614339D01*
X108258770Y-101674125D01*
X108159350Y-101715306D01*
X108053806Y-101736300D01*
X107946194Y-101736300D01*
X107840650Y-101715306D01*
X107741230Y-101674125D01*
X107651754Y-101614339D01*
X107575661Y-101538246D01*
X107515875Y-101448770D01*
X107474694Y-101349350D01*
X107453700Y-101243806D01*
X107453700Y-101136194D01*
X107474694Y-101030650D01*
X107515875Y-100931230D01*
X107575661Y-100841754D01*
X107651754Y-100765661D01*
X107741230Y-100705875D01*
X107840650Y-100664694D01*
X107946194Y-100643700D01*
X108053806Y-100643700D01*
X108159350Y-100664694D01*
G37*
G36*
X97951000Y-101426000D02*
G01*
X97249000Y-101426000D01*
X97249000Y-101074000D01*
X97951000Y-101074000D01*
X97951000Y-101426000D01*
G37*
G36*
X102751000Y-101426000D02*
G01*
X102049000Y-101426000D01*
X102049000Y-101074000D01*
X102751000Y-101074000D01*
X102751000Y-101426000D01*
G37*
G36*
X102751000Y-100926000D02*
G01*
X102049000Y-100926000D01*
X102049000Y-100574000D01*
X102751000Y-100574000D01*
X102751000Y-100926000D01*
G37*
G36*
X97951000Y-100926000D02*
G01*
X97249000Y-100926000D01*
X97249000Y-100574000D01*
X97951000Y-100574000D01*
X97951000Y-100926000D01*
G37*
G36*
X91301000Y-100476000D02*
G01*
X90699000Y-100476000D01*
X90699000Y-99774000D01*
X91301000Y-99774000D01*
X91301000Y-100476000D01*
G37*
G36*
X95251000Y-100476000D02*
G01*
X94649000Y-100476000D01*
X94649000Y-99774000D01*
X95251000Y-99774000D01*
X95251000Y-100476000D01*
G37*
G36*
X97951000Y-100426000D02*
G01*
X97249000Y-100426000D01*
X97249000Y-100074000D01*
X97951000Y-100074000D01*
X97951000Y-100426000D01*
G37*
G36*
X102751000Y-100426000D02*
G01*
X102049000Y-100426000D01*
X102049000Y-100074000D01*
X102751000Y-100074000D01*
X102751000Y-100426000D01*
G37*
G36*
X97951000Y-99926000D02*
G01*
X97249000Y-99926000D01*
X97249000Y-99574000D01*
X97951000Y-99574000D01*
X97951000Y-99926000D01*
G37*
G36*
X102751000Y-99926000D02*
G01*
X102049000Y-99926000D01*
X102049000Y-99574000D01*
X102751000Y-99574000D01*
X102751000Y-99926000D01*
G37*
G36*
X102751000Y-99426000D02*
G01*
X102049000Y-99426000D01*
X102049000Y-99074000D01*
X102751000Y-99074000D01*
X102751000Y-99426000D01*
G37*
G36*
X97951000Y-99426000D02*
G01*
X97249000Y-99426000D01*
X97249000Y-99074000D01*
X97951000Y-99074000D01*
X97951000Y-99426000D01*
G37*
G36*
X94101000Y-99376000D02*
G01*
X93599000Y-99376000D01*
X93599000Y-98674000D01*
X94101000Y-98674000D01*
X94101000Y-99376000D01*
G37*
G36*
X95251000Y-99376000D02*
G01*
X94649000Y-99376000D01*
X94649000Y-98674000D01*
X95251000Y-98674000D01*
X95251000Y-99376000D01*
G37*
G36*
X93201000Y-99376000D02*
G01*
X92699000Y-99376000D01*
X92699000Y-98674000D01*
X93201000Y-98674000D01*
X93201000Y-99376000D01*
G37*
G36*
X91301000Y-99376000D02*
G01*
X90699000Y-99376000D01*
X90699000Y-98674000D01*
X91301000Y-98674000D01*
X91301000Y-99376000D01*
G37*
G36*
X102751000Y-98926000D02*
G01*
X102049000Y-98926000D01*
X102049000Y-98574000D01*
X102751000Y-98574000D01*
X102751000Y-98926000D01*
G37*
G36*
X97951000Y-98926000D02*
G01*
X97249000Y-98926000D01*
X97249000Y-98574000D01*
X97951000Y-98574000D01*
X97951000Y-98926000D01*
G37*
G36*
X99426000Y-98451000D02*
G01*
X99074000Y-98451000D01*
X99074000Y-97749000D01*
X99426000Y-97749000D01*
X99426000Y-98451000D01*
G37*
G36*
X98426000Y-98451000D02*
G01*
X98074000Y-98451000D01*
X98074000Y-97749000D01*
X98426000Y-97749000D01*
X98426000Y-98451000D01*
G37*
G36*
X98926000Y-98451000D02*
G01*
X98574000Y-98451000D01*
X98574000Y-97749000D01*
X98926000Y-97749000D01*
X98926000Y-98451000D01*
G37*
G36*
X99926000Y-98451000D02*
G01*
X99574000Y-98451000D01*
X99574000Y-97749000D01*
X99926000Y-97749000D01*
X99926000Y-98451000D01*
G37*
G36*
X100426000Y-98451000D02*
G01*
X100074000Y-98451000D01*
X100074000Y-97749000D01*
X100426000Y-97749000D01*
X100426000Y-98451000D01*
G37*
G36*
X100926000Y-98451000D02*
G01*
X100574000Y-98451000D01*
X100574000Y-97749000D01*
X100926000Y-97749000D01*
X100926000Y-98451000D01*
G37*
G36*
X101426000Y-98451000D02*
G01*
X101074000Y-98451000D01*
X101074000Y-97749000D01*
X101426000Y-97749000D01*
X101426000Y-98451000D01*
G37*
G36*
X101926000Y-98451000D02*
G01*
X101574000Y-98451000D01*
X101574000Y-97749000D01*
X101926000Y-97749000D01*
X101926000Y-98451000D01*
G37*
G36*
X92326000Y-98401000D02*
G01*
X91624000Y-98401000D01*
X91624000Y-97899000D01*
X92326000Y-97899000D01*
X92326000Y-98401000D01*
G37*
G36*
X90376000Y-98401000D02*
G01*
X89674000Y-98401000D01*
X89674000Y-97899000D01*
X90376000Y-97899000D01*
X90376000Y-98401000D01*
G37*
G36*
X91351000Y-98401000D02*
G01*
X90649000Y-98401000D01*
X90649000Y-97899000D01*
X91351000Y-97899000D01*
X91351000Y-98401000D01*
G37*
G36*
X93301000Y-98401000D02*
G01*
X92599000Y-98401000D01*
X92599000Y-97899000D01*
X93301000Y-97899000D01*
X93301000Y-98401000D01*
G37*
G36*
X95251000Y-98401000D02*
G01*
X94549000Y-98401000D01*
X94549000Y-97899000D01*
X95251000Y-97899000D01*
X95251000Y-98401000D01*
G37*
G36*
X94276000Y-98401000D02*
G01*
X93574000Y-98401000D01*
X93574000Y-97899000D01*
X94276000Y-97899000D01*
X94276000Y-98401000D01*
G37*
G36*
X93301000Y-97501000D02*
G01*
X92599000Y-97501000D01*
X92599000Y-96999000D01*
X93301000Y-96999000D01*
X93301000Y-97501000D01*
G37*
G36*
X94276000Y-97501000D02*
G01*
X93574000Y-97501000D01*
X93574000Y-96999000D01*
X94276000Y-96999000D01*
X94276000Y-97501000D01*
G37*
G36*
X92326000Y-97501000D02*
G01*
X91624000Y-97501000D01*
X91624000Y-96999000D01*
X92326000Y-96999000D01*
X92326000Y-97501000D01*
G37*
G36*
X91351000Y-97501000D02*
G01*
X90649000Y-97501000D01*
X90649000Y-96999000D01*
X91351000Y-96999000D01*
X91351000Y-97501000D01*
G37*
G36*
X90376000Y-97501000D02*
G01*
X89674000Y-97501000D01*
X89674000Y-96999000D01*
X90376000Y-96999000D01*
X90376000Y-97501000D01*
G37*
G36*
X95251000Y-97501000D02*
G01*
X94549000Y-97501000D01*
X94549000Y-96999000D01*
X95251000Y-96999000D01*
X95251000Y-97501000D01*
G37*
G36*
X114051000Y-94451000D02*
G01*
X110749000Y-94451000D01*
X110749000Y-93349000D01*
X114051000Y-93349000D01*
X114051000Y-94451000D01*
G37*
G36*
X96251000Y-94451000D02*
G01*
X92949000Y-94451000D01*
X92949000Y-93349000D01*
X96251000Y-93349000D01*
X96251000Y-94451000D01*
G37*
G36*
X105151000Y-94451000D02*
G01*
X101849000Y-94451000D01*
X101849000Y-93349000D01*
X105151000Y-93349000D01*
X105151000Y-94451000D01*
G37*
G36*
X115576000Y-92726000D02*
G01*
X114574000Y-92726000D01*
X114574000Y-92124000D01*
X115576000Y-92124000D01*
X115576000Y-92726000D01*
G37*
G36*
X115576000Y-91226000D02*
G01*
X114574000Y-91226000D01*
X114574000Y-90624000D01*
X115576000Y-90624000D01*
X115576000Y-91226000D01*
G37*
G36*
X101239690Y-90245625D02*
G01*
X101243437Y-90246762D01*
X101246891Y-90248607D01*
X101249913Y-90251087D01*
X101252393Y-90254109D01*
X101254238Y-90257563D01*
X101255375Y-90261310D01*
X101256000Y-90267654D01*
X101256000Y-91024346D01*
X101255375Y-91030690D01*
X101254238Y-91034437D01*
X101252393Y-91037891D01*
X101249913Y-91040913D01*
X101246891Y-91043393D01*
X101243437Y-91045238D01*
X101239690Y-91046375D01*
X101233346Y-91047000D01*
X100676654Y-91047000D01*
X100670310Y-91046375D01*
X100666563Y-91045238D01*
X100663109Y-91043393D01*
X100660087Y-91040913D01*
X100657607Y-91037891D01*
X100655762Y-91034437D01*
X100654625Y-91030690D01*
X100654000Y-91024346D01*
X100654000Y-90267654D01*
X100654625Y-90261310D01*
X100655762Y-90257563D01*
X100657607Y-90254109D01*
X100660087Y-90251087D01*
X100663109Y-90248607D01*
X100666563Y-90246762D01*
X100670310Y-90245625D01*
X100676654Y-90245000D01*
X101233346Y-90245000D01*
X101239690Y-90245625D01*
G37*
G36*
X106329690Y-90245625D02*
G01*
X106333437Y-90246762D01*
X106336891Y-90248607D01*
X106339913Y-90251087D01*
X106342393Y-90254109D01*
X106344238Y-90257563D01*
X106345375Y-90261310D01*
X106346000Y-90267654D01*
X106346000Y-91024346D01*
X106345375Y-91030690D01*
X106344238Y-91034437D01*
X106342393Y-91037891D01*
X106339913Y-91040913D01*
X106336891Y-91043393D01*
X106333437Y-91045238D01*
X106329690Y-91046375D01*
X106323346Y-91047000D01*
X105766654Y-91047000D01*
X105760310Y-91046375D01*
X105756563Y-91045238D01*
X105753109Y-91043393D01*
X105750087Y-91040913D01*
X105747607Y-91037891D01*
X105745762Y-91034437D01*
X105744625Y-91030690D01*
X105744000Y-91024346D01*
X105744000Y-90267654D01*
X105744625Y-90261310D01*
X105745762Y-90257563D01*
X105747607Y-90254109D01*
X105750087Y-90251087D01*
X105753109Y-90248607D01*
X105756563Y-90246762D01*
X105760310Y-90245625D01*
X105766654Y-90245000D01*
X106323346Y-90245000D01*
X106329690Y-90245625D01*
G37*
G36*
X110139690Y-90245625D02*
G01*
X110143437Y-90246762D01*
X110146891Y-90248607D01*
X110149913Y-90251087D01*
X110152393Y-90254109D01*
X110154238Y-90257563D01*
X110155375Y-90261310D01*
X110156000Y-90267654D01*
X110156000Y-91024346D01*
X110155375Y-91030690D01*
X110154238Y-91034437D01*
X110152393Y-91037891D01*
X110149913Y-91040913D01*
X110146891Y-91043393D01*
X110143437Y-91045238D01*
X110139690Y-91046375D01*
X110133346Y-91047000D01*
X109576654Y-91047000D01*
X109570310Y-91046375D01*
X109566563Y-91045238D01*
X109563109Y-91043393D01*
X109560087Y-91040913D01*
X109557607Y-91037891D01*
X109555762Y-91034437D01*
X109554625Y-91030690D01*
X109554000Y-91024346D01*
X109554000Y-90267654D01*
X109554625Y-90261310D01*
X109555762Y-90257563D01*
X109557607Y-90254109D01*
X109560087Y-90251087D01*
X109563109Y-90248607D01*
X109566563Y-90246762D01*
X109570310Y-90245625D01*
X109576654Y-90245000D01*
X110133346Y-90245000D01*
X110139690Y-90245625D01*
G37*
G36*
X88529690Y-90245625D02*
G01*
X88533437Y-90246762D01*
X88536891Y-90248607D01*
X88539913Y-90251087D01*
X88542393Y-90254109D01*
X88544238Y-90257563D01*
X88545375Y-90261310D01*
X88546000Y-90267654D01*
X88546000Y-91024346D01*
X88545375Y-91030690D01*
X88544238Y-91034437D01*
X88542393Y-91037891D01*
X88539913Y-91040913D01*
X88536891Y-91043393D01*
X88533437Y-91045238D01*
X88529690Y-91046375D01*
X88523346Y-91047000D01*
X87966654Y-91047000D01*
X87960310Y-91046375D01*
X87956563Y-91045238D01*
X87953109Y-91043393D01*
X87950087Y-91040913D01*
X87947607Y-91037891D01*
X87945762Y-91034437D01*
X87944625Y-91030690D01*
X87944000Y-91024346D01*
X87944000Y-90267654D01*
X87944625Y-90261310D01*
X87945762Y-90257563D01*
X87947607Y-90254109D01*
X87950087Y-90251087D01*
X87953109Y-90248607D01*
X87956563Y-90246762D01*
X87960310Y-90245625D01*
X87966654Y-90245000D01*
X88523346Y-90245000D01*
X88529690Y-90245625D01*
G37*
G36*
X91069690Y-90245625D02*
G01*
X91073437Y-90246762D01*
X91076891Y-90248607D01*
X91079913Y-90251087D01*
X91082393Y-90254109D01*
X91084238Y-90257563D01*
X91085375Y-90261310D01*
X91086000Y-90267654D01*
X91086000Y-91024346D01*
X91085375Y-91030690D01*
X91084238Y-91034437D01*
X91082393Y-91037891D01*
X91079913Y-91040913D01*
X91076891Y-91043393D01*
X91073437Y-91045238D01*
X91069690Y-91046375D01*
X91063346Y-91047000D01*
X90506654Y-91047000D01*
X90500310Y-91046375D01*
X90496563Y-91045238D01*
X90493109Y-91043393D01*
X90490087Y-91040913D01*
X90487607Y-91037891D01*
X90485762Y-91034437D01*
X90484625Y-91030690D01*
X90484000Y-91024346D01*
X90484000Y-90267654D01*
X90484625Y-90261310D01*
X90485762Y-90257563D01*
X90487607Y-90254109D01*
X90490087Y-90251087D01*
X90493109Y-90248607D01*
X90496563Y-90246762D01*
X90500310Y-90245625D01*
X90506654Y-90245000D01*
X91063346Y-90245000D01*
X91069690Y-90245625D01*
G37*
G36*
X89799690Y-90245625D02*
G01*
X89803437Y-90246762D01*
X89806891Y-90248607D01*
X89809913Y-90251087D01*
X89812393Y-90254109D01*
X89814238Y-90257563D01*
X89815375Y-90261310D01*
X89816000Y-90267654D01*
X89816000Y-91024346D01*
X89815375Y-91030690D01*
X89814238Y-91034437D01*
X89812393Y-91037891D01*
X89809913Y-91040913D01*
X89806891Y-91043393D01*
X89803437Y-91045238D01*
X89799690Y-91046375D01*
X89793346Y-91047000D01*
X89236654Y-91047000D01*
X89230310Y-91046375D01*
X89226563Y-91045238D01*
X89223109Y-91043393D01*
X89220087Y-91040913D01*
X89217607Y-91037891D01*
X89215762Y-91034437D01*
X89214625Y-91030690D01*
X89214000Y-91024346D01*
X89214000Y-90267654D01*
X89214625Y-90261310D01*
X89215762Y-90257563D01*
X89217607Y-90254109D01*
X89220087Y-90251087D01*
X89223109Y-90248607D01*
X89226563Y-90246762D01*
X89230310Y-90245625D01*
X89236654Y-90245000D01*
X89793346Y-90245000D01*
X89799690Y-90245625D01*
G37*
G36*
X98699690Y-90245625D02*
G01*
X98703437Y-90246762D01*
X98706891Y-90248607D01*
X98709913Y-90251087D01*
X98712393Y-90254109D01*
X98714238Y-90257563D01*
X98715375Y-90261310D01*
X98716000Y-90267654D01*
X98716000Y-91024346D01*
X98715375Y-91030690D01*
X98714238Y-91034437D01*
X98712393Y-91037891D01*
X98709913Y-91040913D01*
X98706891Y-91043393D01*
X98703437Y-91045238D01*
X98699690Y-91046375D01*
X98693346Y-91047000D01*
X98136654Y-91047000D01*
X98130310Y-91046375D01*
X98126563Y-91045238D01*
X98123109Y-91043393D01*
X98120087Y-91040913D01*
X98117607Y-91037891D01*
X98115762Y-91034437D01*
X98114625Y-91030690D01*
X98114000Y-91024346D01*
X98114000Y-90267654D01*
X98114625Y-90261310D01*
X98115762Y-90257563D01*
X98117607Y-90254109D01*
X98120087Y-90251087D01*
X98123109Y-90248607D01*
X98126563Y-90246762D01*
X98130310Y-90245625D01*
X98136654Y-90245000D01*
X98693346Y-90245000D01*
X98699690Y-90245625D01*
G37*
G36*
X99969690Y-90245625D02*
G01*
X99973437Y-90246762D01*
X99976891Y-90248607D01*
X99979913Y-90251087D01*
X99982393Y-90254109D01*
X99984238Y-90257563D01*
X99985375Y-90261310D01*
X99986000Y-90267654D01*
X99986000Y-91024346D01*
X99985375Y-91030690D01*
X99984238Y-91034437D01*
X99982393Y-91037891D01*
X99979913Y-91040913D01*
X99976891Y-91043393D01*
X99973437Y-91045238D01*
X99969690Y-91046375D01*
X99963346Y-91047000D01*
X99406654Y-91047000D01*
X99400310Y-91046375D01*
X99396563Y-91045238D01*
X99393109Y-91043393D01*
X99390087Y-91040913D01*
X99387607Y-91037891D01*
X99385762Y-91034437D01*
X99384625Y-91030690D01*
X99384000Y-91024346D01*
X99384000Y-90267654D01*
X99384625Y-90261310D01*
X99385762Y-90257563D01*
X99387607Y-90254109D01*
X99390087Y-90251087D01*
X99393109Y-90248607D01*
X99396563Y-90246762D01*
X99400310Y-90245625D01*
X99406654Y-90245000D01*
X99963346Y-90245000D01*
X99969690Y-90245625D01*
G37*
G36*
X97429690Y-90245625D02*
G01*
X97433437Y-90246762D01*
X97436891Y-90248607D01*
X97439913Y-90251087D01*
X97442393Y-90254109D01*
X97444238Y-90257563D01*
X97445375Y-90261310D01*
X97446000Y-90267654D01*
X97446000Y-91024346D01*
X97445375Y-91030690D01*
X97444238Y-91034437D01*
X97442393Y-91037891D01*
X97439913Y-91040913D01*
X97436891Y-91043393D01*
X97433437Y-91045238D01*
X97429690Y-91046375D01*
X97423346Y-91047000D01*
X96866654Y-91047000D01*
X96860310Y-91046375D01*
X96856563Y-91045238D01*
X96853109Y-91043393D01*
X96850087Y-91040913D01*
X96847607Y-91037891D01*
X96845762Y-91034437D01*
X96844625Y-91030690D01*
X96844000Y-91024346D01*
X96844000Y-90267654D01*
X96844625Y-90261310D01*
X96845762Y-90257563D01*
X96847607Y-90254109D01*
X96850087Y-90251087D01*
X96853109Y-90248607D01*
X96856563Y-90246762D01*
X96860310Y-90245625D01*
X96866654Y-90245000D01*
X97423346Y-90245000D01*
X97429690Y-90245625D01*
G37*
G36*
X92339690Y-90245625D02*
G01*
X92343437Y-90246762D01*
X92346891Y-90248607D01*
X92349913Y-90251087D01*
X92352393Y-90254109D01*
X92354238Y-90257563D01*
X92355375Y-90261310D01*
X92356000Y-90267654D01*
X92356000Y-91024346D01*
X92355375Y-91030690D01*
X92354238Y-91034437D01*
X92352393Y-91037891D01*
X92349913Y-91040913D01*
X92346891Y-91043393D01*
X92343437Y-91045238D01*
X92339690Y-91046375D01*
X92333346Y-91047000D01*
X91776654Y-91047000D01*
X91770310Y-91046375D01*
X91766563Y-91045238D01*
X91763109Y-91043393D01*
X91760087Y-91040913D01*
X91757607Y-91037891D01*
X91755762Y-91034437D01*
X91754625Y-91030690D01*
X91754000Y-91024346D01*
X91754000Y-90267654D01*
X91754625Y-90261310D01*
X91755762Y-90257563D01*
X91757607Y-90254109D01*
X91760087Y-90251087D01*
X91763109Y-90248607D01*
X91766563Y-90246762D01*
X91770310Y-90245625D01*
X91776654Y-90245000D01*
X92333346Y-90245000D01*
X92339690Y-90245625D01*
G37*
G36*
X107599690Y-90245625D02*
G01*
X107603437Y-90246762D01*
X107606891Y-90248607D01*
X107609913Y-90251087D01*
X107612393Y-90254109D01*
X107614238Y-90257563D01*
X107615375Y-90261310D01*
X107616000Y-90267654D01*
X107616000Y-91024346D01*
X107615375Y-91030690D01*
X107614238Y-91034437D01*
X107612393Y-91037891D01*
X107609913Y-91040913D01*
X107606891Y-91043393D01*
X107603437Y-91045238D01*
X107599690Y-91046375D01*
X107593346Y-91047000D01*
X107036654Y-91047000D01*
X107030310Y-91046375D01*
X107026563Y-91045238D01*
X107023109Y-91043393D01*
X107020087Y-91040913D01*
X107017607Y-91037891D01*
X107015762Y-91034437D01*
X107014625Y-91030690D01*
X107014000Y-91024346D01*
X107014000Y-90267654D01*
X107014625Y-90261310D01*
X107015762Y-90257563D01*
X107017607Y-90254109D01*
X107020087Y-90251087D01*
X107023109Y-90248607D01*
X107026563Y-90246762D01*
X107030310Y-90245625D01*
X107036654Y-90245000D01*
X107593346Y-90245000D01*
X107599690Y-90245625D01*
G37*
G36*
X108869690Y-90245625D02*
G01*
X108873437Y-90246762D01*
X108876891Y-90248607D01*
X108879913Y-90251087D01*
X108882393Y-90254109D01*
X108884238Y-90257563D01*
X108885375Y-90261310D01*
X108886000Y-90267654D01*
X108886000Y-91024346D01*
X108885375Y-91030690D01*
X108884238Y-91034437D01*
X108882393Y-91037891D01*
X108879913Y-91040913D01*
X108876891Y-91043393D01*
X108873437Y-91045238D01*
X108869690Y-91046375D01*
X108863346Y-91047000D01*
X108306654Y-91047000D01*
X108300310Y-91046375D01*
X108296563Y-91045238D01*
X108293109Y-91043393D01*
X108290087Y-91040913D01*
X108287607Y-91037891D01*
X108285762Y-91034437D01*
X108284625Y-91030690D01*
X108284000Y-91024346D01*
X108284000Y-90267654D01*
X108284625Y-90261310D01*
X108285762Y-90257563D01*
X108287607Y-90254109D01*
X108290087Y-90251087D01*
X108293109Y-90248607D01*
X108296563Y-90246762D01*
X108300310Y-90245625D01*
X108306654Y-90245000D01*
X108863346Y-90245000D01*
X108869690Y-90245625D01*
G37*
G36*
X92450771Y-88969229D02*
G01*
X92451000Y-88971556D01*
X92451000Y-89868444D01*
X92450771Y-89870771D01*
X92448444Y-89871000D01*
X87851556Y-89871000D01*
X87849229Y-89870771D01*
X87849000Y-89868444D01*
X87849000Y-88971556D01*
X87849229Y-88969229D01*
X87851556Y-88969000D01*
X92448444Y-88969000D01*
X92450771Y-88969229D01*
G37*
G36*
X110250771Y-88969229D02*
G01*
X110251000Y-88971556D01*
X110251000Y-89868444D01*
X110250771Y-89870771D01*
X110248444Y-89871000D01*
X105651556Y-89871000D01*
X105649229Y-89870771D01*
X105649000Y-89868444D01*
X105649000Y-88971556D01*
X105649229Y-88969229D01*
X105651556Y-88969000D01*
X110248444Y-88969000D01*
X110250771Y-88969229D01*
G37*
G36*
X101350771Y-88969229D02*
G01*
X101351000Y-88971556D01*
X101351000Y-89868444D01*
X101350771Y-89870771D01*
X101348444Y-89871000D01*
X96751556Y-89871000D01*
X96749229Y-89870771D01*
X96749000Y-89868444D01*
X96749000Y-88971556D01*
X96749229Y-88969229D01*
X96751556Y-88969000D01*
X101348444Y-88969000D01*
X101350771Y-88969229D01*
G37*
G36*
X109156277Y-85698880D02*
G01*
X109162359Y-85699479D01*
X109177051Y-85702402D01*
X109181729Y-85703821D01*
X109195572Y-85709555D01*
X109199883Y-85711859D01*
X109212348Y-85720188D01*
X109216119Y-85723283D01*
X109226717Y-85733881D01*
X109229812Y-85737652D01*
X109238141Y-85750117D01*
X109240445Y-85754428D01*
X109246179Y-85768271D01*
X109247598Y-85772949D01*
X109250521Y-85787641D01*
X109251120Y-85793723D01*
X109251489Y-85801233D01*
X109251489Y-86648512D01*
X109252450Y-86658266D01*
X109255295Y-86667646D01*
X109259915Y-86676290D01*
X109266133Y-86683867D01*
X109273710Y-86690085D01*
X109282354Y-86694705D01*
X109291734Y-86697550D01*
X109301488Y-86698511D01*
X110148767Y-86698511D01*
X110156277Y-86698880D01*
X110162359Y-86699479D01*
X110177051Y-86702402D01*
X110181729Y-86703821D01*
X110195572Y-86709555D01*
X110199883Y-86711859D01*
X110212348Y-86720188D01*
X110216119Y-86723283D01*
X110226717Y-86733881D01*
X110229812Y-86737652D01*
X110238141Y-86750117D01*
X110240445Y-86754428D01*
X110246179Y-86768271D01*
X110247598Y-86772949D01*
X110250521Y-86787641D01*
X110251120Y-86793723D01*
X110251489Y-86801233D01*
X110251489Y-88398767D01*
X110251120Y-88406277D01*
X110250521Y-88412359D01*
X110247598Y-88427051D01*
X110246179Y-88431729D01*
X110240445Y-88445572D01*
X110238141Y-88449883D01*
X110229812Y-88462348D01*
X110226717Y-88466119D01*
X110216119Y-88476717D01*
X110212348Y-88479812D01*
X110199883Y-88488141D01*
X110195572Y-88490445D01*
X110181729Y-88496179D01*
X110177051Y-88497598D01*
X110162359Y-88500521D01*
X110156277Y-88501120D01*
X110148767Y-88501489D01*
X105751233Y-88501489D01*
X105743723Y-88501120D01*
X105737641Y-88500521D01*
X105722949Y-88497598D01*
X105718271Y-88496179D01*
X105704428Y-88490445D01*
X105700117Y-88488141D01*
X105687652Y-88479812D01*
X105683881Y-88476717D01*
X105673283Y-88466119D01*
X105670188Y-88462348D01*
X105661859Y-88449883D01*
X105659555Y-88445572D01*
X105653821Y-88431729D01*
X105652402Y-88427051D01*
X105649479Y-88412359D01*
X105648880Y-88406277D01*
X105648511Y-88398767D01*
X105648511Y-85801233D01*
X105648880Y-85793723D01*
X105649479Y-85787641D01*
X105652402Y-85772949D01*
X105653821Y-85768271D01*
X105659555Y-85754428D01*
X105661859Y-85750117D01*
X105670188Y-85737652D01*
X105673283Y-85733881D01*
X105683881Y-85723283D01*
X105687652Y-85720188D01*
X105700117Y-85711859D01*
X105704428Y-85709555D01*
X105718271Y-85703821D01*
X105722949Y-85702402D01*
X105737641Y-85699479D01*
X105743723Y-85698880D01*
X105751233Y-85698511D01*
X109148767Y-85698511D01*
X109156277Y-85698880D01*
G37*
G36*
X100256277Y-85698880D02*
G01*
X100262359Y-85699479D01*
X100277051Y-85702402D01*
X100281729Y-85703821D01*
X100295572Y-85709555D01*
X100299883Y-85711859D01*
X100312348Y-85720188D01*
X100316119Y-85723283D01*
X100326717Y-85733881D01*
X100329812Y-85737652D01*
X100338141Y-85750117D01*
X100340445Y-85754428D01*
X100346179Y-85768271D01*
X100347598Y-85772949D01*
X100350521Y-85787641D01*
X100351120Y-85793723D01*
X100351489Y-85801233D01*
X100351489Y-86648512D01*
X100352450Y-86658266D01*
X100355295Y-86667646D01*
X100359915Y-86676290D01*
X100366133Y-86683867D01*
X100373710Y-86690085D01*
X100382354Y-86694705D01*
X100391734Y-86697550D01*
X100401488Y-86698511D01*
X101248767Y-86698511D01*
X101256277Y-86698880D01*
X101262359Y-86699479D01*
X101277051Y-86702402D01*
X101281729Y-86703821D01*
X101295572Y-86709555D01*
X101299883Y-86711859D01*
X101312348Y-86720188D01*
X101316119Y-86723283D01*
X101326717Y-86733881D01*
X101329812Y-86737652D01*
X101338141Y-86750117D01*
X101340445Y-86754428D01*
X101346179Y-86768271D01*
X101347598Y-86772949D01*
X101350521Y-86787641D01*
X101351120Y-86793723D01*
X101351489Y-86801233D01*
X101351489Y-88398767D01*
X101351120Y-88406277D01*
X101350521Y-88412359D01*
X101347598Y-88427051D01*
X101346179Y-88431729D01*
X101340445Y-88445572D01*
X101338141Y-88449883D01*
X101329812Y-88462348D01*
X101326717Y-88466119D01*
X101316119Y-88476717D01*
X101312348Y-88479812D01*
X101299883Y-88488141D01*
X101295572Y-88490445D01*
X101281729Y-88496179D01*
X101277051Y-88497598D01*
X101262359Y-88500521D01*
X101256277Y-88501120D01*
X101248767Y-88501489D01*
X96851233Y-88501489D01*
X96843723Y-88501120D01*
X96837641Y-88500521D01*
X96822949Y-88497598D01*
X96818271Y-88496179D01*
X96804428Y-88490445D01*
X96800117Y-88488141D01*
X96787652Y-88479812D01*
X96783881Y-88476717D01*
X96773283Y-88466119D01*
X96770188Y-88462348D01*
X96761859Y-88449883D01*
X96759555Y-88445572D01*
X96753821Y-88431729D01*
X96752402Y-88427051D01*
X96749479Y-88412359D01*
X96748880Y-88406277D01*
X96748511Y-88398767D01*
X96748511Y-85801233D01*
X96748880Y-85793723D01*
X96749479Y-85787641D01*
X96752402Y-85772949D01*
X96753821Y-85768271D01*
X96759555Y-85754428D01*
X96761859Y-85750117D01*
X96770188Y-85737652D01*
X96773283Y-85733881D01*
X96783881Y-85723283D01*
X96787652Y-85720188D01*
X96800117Y-85711859D01*
X96804428Y-85709555D01*
X96818271Y-85703821D01*
X96822949Y-85702402D01*
X96837641Y-85699479D01*
X96843723Y-85698880D01*
X96851233Y-85698511D01*
X100248767Y-85698511D01*
X100256277Y-85698880D01*
G37*
G36*
X91356277Y-85698880D02*
G01*
X91362359Y-85699479D01*
X91377051Y-85702402D01*
X91381729Y-85703821D01*
X91395572Y-85709555D01*
X91399883Y-85711859D01*
X91412348Y-85720188D01*
X91416119Y-85723283D01*
X91426717Y-85733881D01*
X91429812Y-85737652D01*
X91438141Y-85750117D01*
X91440445Y-85754428D01*
X91446179Y-85768271D01*
X91447598Y-85772949D01*
X91450521Y-85787641D01*
X91451120Y-85793723D01*
X91451489Y-85801233D01*
X91451489Y-86648512D01*
X91452450Y-86658266D01*
X91455295Y-86667646D01*
X91459915Y-86676290D01*
X91466133Y-86683867D01*
X91473710Y-86690085D01*
X91482354Y-86694705D01*
X91491734Y-86697550D01*
X91501488Y-86698511D01*
X92348767Y-86698511D01*
X92356277Y-86698880D01*
X92362359Y-86699479D01*
X92377051Y-86702402D01*
X92381729Y-86703821D01*
X92395572Y-86709555D01*
X92399883Y-86711859D01*
X92412348Y-86720188D01*
X92416119Y-86723283D01*
X92426717Y-86733881D01*
X92429812Y-86737652D01*
X92438141Y-86750117D01*
X92440445Y-86754428D01*
X92446179Y-86768271D01*
X92447598Y-86772949D01*
X92450521Y-86787641D01*
X92451120Y-86793723D01*
X92451489Y-86801233D01*
X92451489Y-88398767D01*
X92451120Y-88406277D01*
X92450521Y-88412359D01*
X92447598Y-88427051D01*
X92446179Y-88431729D01*
X92440445Y-88445572D01*
X92438141Y-88449883D01*
X92429812Y-88462348D01*
X92426717Y-88466119D01*
X92416119Y-88476717D01*
X92412348Y-88479812D01*
X92399883Y-88488141D01*
X92395572Y-88490445D01*
X92381729Y-88496179D01*
X92377051Y-88497598D01*
X92362359Y-88500521D01*
X92356277Y-88501120D01*
X92348767Y-88501489D01*
X87951233Y-88501489D01*
X87943723Y-88501120D01*
X87937641Y-88500521D01*
X87922949Y-88497598D01*
X87918271Y-88496179D01*
X87904428Y-88490445D01*
X87900117Y-88488141D01*
X87887652Y-88479812D01*
X87883881Y-88476717D01*
X87873283Y-88466119D01*
X87870188Y-88462348D01*
X87861859Y-88449883D01*
X87859555Y-88445572D01*
X87853821Y-88431729D01*
X87852402Y-88427051D01*
X87849479Y-88412359D01*
X87848880Y-88406277D01*
X87848511Y-88398767D01*
X87848511Y-85801233D01*
X87848880Y-85793723D01*
X87849479Y-85787641D01*
X87852402Y-85772949D01*
X87853821Y-85768271D01*
X87859555Y-85754428D01*
X87861859Y-85750117D01*
X87870188Y-85737652D01*
X87873283Y-85733881D01*
X87883881Y-85723283D01*
X87887652Y-85720188D01*
X87900117Y-85711859D01*
X87904428Y-85709555D01*
X87918271Y-85703821D01*
X87922949Y-85702402D01*
X87937641Y-85699479D01*
X87943723Y-85698880D01*
X87951233Y-85698511D01*
X91348767Y-85698511D01*
X91356277Y-85698880D01*
G37*
G36*
X114051000Y-88251000D02*
G01*
X110749000Y-88251000D01*
X110749000Y-87149000D01*
X114051000Y-87149000D01*
X114051000Y-88251000D01*
G37*
G36*
X96251000Y-88251000D02*
G01*
X92949000Y-88251000D01*
X92949000Y-87149000D01*
X96251000Y-87149000D01*
X96251000Y-88251000D01*
G37*
G36*
X105151000Y-88251000D02*
G01*
X101849000Y-88251000D01*
X101849000Y-87149000D01*
X105151000Y-87149000D01*
X105151000Y-88251000D01*
G37*
G36*
X101239690Y-84649625D02*
G01*
X101243437Y-84650762D01*
X101246891Y-84652607D01*
X101249913Y-84655087D01*
X101252393Y-84658109D01*
X101254238Y-84661563D01*
X101255375Y-84665310D01*
X101256000Y-84671654D01*
X101256000Y-86228346D01*
X101255375Y-86234690D01*
X101254238Y-86238437D01*
X101252393Y-86241891D01*
X101249913Y-86244913D01*
X101246891Y-86247393D01*
X101243437Y-86249238D01*
X101239690Y-86250375D01*
X101233346Y-86251000D01*
X100676654Y-86251000D01*
X100670310Y-86250375D01*
X100666563Y-86249238D01*
X100663109Y-86247393D01*
X100660087Y-86244913D01*
X100657607Y-86241891D01*
X100655762Y-86238437D01*
X100654625Y-86234690D01*
X100654000Y-86228346D01*
X100654000Y-84671654D01*
X100654625Y-84665310D01*
X100655762Y-84661563D01*
X100657607Y-84658109D01*
X100660087Y-84655087D01*
X100663109Y-84652607D01*
X100666563Y-84650762D01*
X100670310Y-84649625D01*
X100676654Y-84649000D01*
X101233346Y-84649000D01*
X101239690Y-84649625D01*
G37*
G36*
X110139690Y-84649625D02*
G01*
X110143437Y-84650762D01*
X110146891Y-84652607D01*
X110149913Y-84655087D01*
X110152393Y-84658109D01*
X110154238Y-84661563D01*
X110155375Y-84665310D01*
X110156000Y-84671654D01*
X110156000Y-86228346D01*
X110155375Y-86234690D01*
X110154238Y-86238437D01*
X110152393Y-86241891D01*
X110149913Y-86244913D01*
X110146891Y-86247393D01*
X110143437Y-86249238D01*
X110139690Y-86250375D01*
X110133346Y-86251000D01*
X109576654Y-86251000D01*
X109570310Y-86250375D01*
X109566563Y-86249238D01*
X109563109Y-86247393D01*
X109560087Y-86244913D01*
X109557607Y-86241891D01*
X109555762Y-86238437D01*
X109554625Y-86234690D01*
X109554000Y-86228346D01*
X109554000Y-84671654D01*
X109554625Y-84665310D01*
X109555762Y-84661563D01*
X109557607Y-84658109D01*
X109560087Y-84655087D01*
X109563109Y-84652607D01*
X109566563Y-84650762D01*
X109570310Y-84649625D01*
X109576654Y-84649000D01*
X110133346Y-84649000D01*
X110139690Y-84649625D01*
G37*
G36*
X92339690Y-84649625D02*
G01*
X92343437Y-84650762D01*
X92346891Y-84652607D01*
X92349913Y-84655087D01*
X92352393Y-84658109D01*
X92354238Y-84661563D01*
X92355375Y-84665310D01*
X92356000Y-84671654D01*
X92356000Y-86228346D01*
X92355375Y-86234690D01*
X92354238Y-86238437D01*
X92352393Y-86241891D01*
X92349913Y-86244913D01*
X92346891Y-86247393D01*
X92343437Y-86249238D01*
X92339690Y-86250375D01*
X92333346Y-86251000D01*
X91776654Y-86251000D01*
X91770310Y-86250375D01*
X91766563Y-86249238D01*
X91763109Y-86247393D01*
X91760087Y-86244913D01*
X91757607Y-86241891D01*
X91755762Y-86238437D01*
X91754625Y-86234690D01*
X91754000Y-86228346D01*
X91754000Y-84671654D01*
X91754625Y-84665310D01*
X91755762Y-84661563D01*
X91757607Y-84658109D01*
X91760087Y-84655087D01*
X91763109Y-84652607D01*
X91766563Y-84650762D01*
X91770310Y-84649625D01*
X91776654Y-84649000D01*
X92333346Y-84649000D01*
X92339690Y-84649625D01*
G37*
G36*
X109176643Y-84649817D02*
G01*
X109182266Y-84651523D01*
X109187442Y-84654289D01*
X109191983Y-84658017D01*
X109195711Y-84662558D01*
X109198477Y-84667734D01*
X109200183Y-84673357D01*
X109201000Y-84681654D01*
X109201000Y-85318346D01*
X109200183Y-85326643D01*
X109198477Y-85332266D01*
X109195711Y-85337442D01*
X109191983Y-85341983D01*
X109187442Y-85345711D01*
X109182266Y-85348477D01*
X109176643Y-85350183D01*
X109168346Y-85351000D01*
X105731654Y-85351000D01*
X105723357Y-85350183D01*
X105717734Y-85348477D01*
X105712558Y-85345711D01*
X105708017Y-85341983D01*
X105704289Y-85337442D01*
X105701523Y-85332266D01*
X105699817Y-85326643D01*
X105699000Y-85318346D01*
X105699000Y-84681654D01*
X105699817Y-84673357D01*
X105701523Y-84667734D01*
X105704289Y-84662558D01*
X105708017Y-84658017D01*
X105712558Y-84654289D01*
X105717734Y-84651523D01*
X105723357Y-84649817D01*
X105731654Y-84649000D01*
X109168346Y-84649000D01*
X109176643Y-84649817D01*
G37*
G36*
X91376643Y-84649817D02*
G01*
X91382266Y-84651523D01*
X91387442Y-84654289D01*
X91391983Y-84658017D01*
X91395711Y-84662558D01*
X91398477Y-84667734D01*
X91400183Y-84673357D01*
X91401000Y-84681654D01*
X91401000Y-85318346D01*
X91400183Y-85326643D01*
X91398477Y-85332266D01*
X91395711Y-85337442D01*
X91391983Y-85341983D01*
X91387442Y-85345711D01*
X91382266Y-85348477D01*
X91376643Y-85350183D01*
X91368346Y-85351000D01*
X87931654Y-85351000D01*
X87923357Y-85350183D01*
X87917734Y-85348477D01*
X87912558Y-85345711D01*
X87908017Y-85341983D01*
X87904289Y-85337442D01*
X87901523Y-85332266D01*
X87899817Y-85326643D01*
X87899000Y-85318346D01*
X87899000Y-84681654D01*
X87899817Y-84673357D01*
X87901523Y-84667734D01*
X87904289Y-84662558D01*
X87908017Y-84658017D01*
X87912558Y-84654289D01*
X87917734Y-84651523D01*
X87923357Y-84649817D01*
X87931654Y-84649000D01*
X91368346Y-84649000D01*
X91376643Y-84649817D01*
G37*
G36*
X100276643Y-84649817D02*
G01*
X100282266Y-84651523D01*
X100287442Y-84654289D01*
X100291983Y-84658017D01*
X100295711Y-84662558D01*
X100298477Y-84667734D01*
X100300183Y-84673357D01*
X100301000Y-84681654D01*
X100301000Y-85318346D01*
X100300183Y-85326643D01*
X100298477Y-85332266D01*
X100295711Y-85337442D01*
X100291983Y-85341983D01*
X100287442Y-85345711D01*
X100282266Y-85348477D01*
X100276643Y-85350183D01*
X100268346Y-85351000D01*
X96831654Y-85351000D01*
X96823357Y-85350183D01*
X96817734Y-85348477D01*
X96812558Y-85345711D01*
X96808017Y-85341983D01*
X96804289Y-85337442D01*
X96801523Y-85332266D01*
X96799817Y-85326643D01*
X96799000Y-85318346D01*
X96799000Y-84681654D01*
X96799817Y-84673357D01*
X96801523Y-84667734D01*
X96804289Y-84662558D01*
X96808017Y-84658017D01*
X96812558Y-84654289D01*
X96817734Y-84651523D01*
X96823357Y-84649817D01*
X96831654Y-84649000D01*
X100268346Y-84649000D01*
X100276643Y-84649817D01*
G37*
M02*
