G04 #@! TF.GenerationSoftware,KiCad,Pcbnew,(5.1.8)-1*
G04 #@! TF.CreationDate,2020-11-22T23:20:16-08:00*
G04 #@! TF.ProjectId,Thruster_Controller_V2,54687275-7374-4657-925f-436f6e74726f,rev?*
G04 #@! TF.SameCoordinates,Original*
G04 #@! TF.FileFunction,Profile,NP*
%FSLAX46Y46*%
G04 Gerber Fmt 4.6, Leading zero omitted, Abs format (unit mm)*
G04 Created by KiCad (PCBNEW (5.1.8)-1) date 2020-11-22 23:20:16*
%MOMM*%
%LPD*%
G01*
G04 APERTURE LIST*
G04 #@! TA.AperFunction,Profile*
%ADD10C,0.100000*%
G04 #@! TD*
G04 APERTURE END LIST*
D10*
X112939482Y-99035960D02*
X112913803Y-98917709D01*
X112913803Y-98917709D02*
X112892426Y-98796598D01*
X112892426Y-98796598D02*
X112875372Y-98673427D01*
X112875372Y-98673427D02*
X112864855Y-98573944D01*
X112864855Y-98573944D02*
X112857129Y-98474063D01*
X112857129Y-98474063D02*
X112851410Y-98349277D01*
X112851410Y-98349277D02*
X112850000Y-98250000D01*
X113201097Y-99711569D02*
X113149665Y-99614765D01*
X113149665Y-99614765D02*
X113102004Y-99514871D01*
X113102004Y-99514871D02*
X113058207Y-99411783D01*
X113058207Y-99411783D02*
X113018370Y-99305393D01*
X113018370Y-99305393D02*
X112982586Y-99195597D01*
X112982586Y-99195597D02*
X112950952Y-99082290D01*
X112950952Y-99082290D02*
X112939482Y-99035960D01*
X114126886Y-100701770D02*
X114023798Y-100627294D01*
X114023798Y-100627294D02*
X113923263Y-100549233D01*
X113923263Y-100549233D02*
X113825564Y-100467514D01*
X113825564Y-100467514D02*
X113730985Y-100382063D01*
X113730985Y-100382063D02*
X113639808Y-100292806D01*
X113639808Y-100292806D02*
X113552317Y-100199669D01*
X113552317Y-100199669D02*
X113468797Y-100102579D01*
X113468797Y-100102579D02*
X113389529Y-100001462D01*
X113389529Y-100001462D02*
X113314798Y-99896244D01*
X113314798Y-99896244D02*
X113244886Y-99786852D01*
X113244886Y-99786852D02*
X113201097Y-99711569D01*
X115350400Y-101321239D02*
X115227607Y-101273064D01*
X115227607Y-101273064D02*
X115106234Y-101223464D01*
X115106234Y-101223464D02*
X114986369Y-101172223D01*
X114986369Y-101172223D02*
X114868098Y-101119126D01*
X114868098Y-101119126D02*
X114751511Y-101063957D01*
X114751511Y-101063957D02*
X114636695Y-101006499D01*
X114636695Y-101006499D02*
X114523738Y-100946538D01*
X114523738Y-100946538D02*
X114412727Y-100883857D01*
X114412727Y-100883857D02*
X114303751Y-100818240D01*
X114303751Y-100818240D02*
X114196898Y-100749472D01*
X114196898Y-100749472D02*
X114126886Y-100701770D01*
X116709919Y-101779744D02*
X116581416Y-101739321D01*
X116581416Y-101739321D02*
X116452656Y-101698658D01*
X116452656Y-101698658D02*
X116323801Y-101657654D01*
X116323801Y-101657654D02*
X116195017Y-101616209D01*
X116195017Y-101616209D02*
X116066467Y-101574223D01*
X116066467Y-101574223D02*
X115938317Y-101531595D01*
X115938317Y-101531595D02*
X115810731Y-101488225D01*
X115810731Y-101488225D02*
X115683874Y-101444013D01*
X115683874Y-101444013D02*
X115557909Y-101398860D01*
X115557909Y-101398860D02*
X115433002Y-101352664D01*
X115433002Y-101352664D02*
X115350400Y-101321239D01*
X116709919Y-101779744D02*
G75*
G02*
X117694830Y-103648424I-449805J-1430970D01*
G01*
X117694831Y-103648425D02*
G75*
G02*
X82305169Y-103648424I-17694831J5398425D01*
G01*
X82305169Y-103648424D02*
G75*
G02*
X83290080Y-101779744I1434716J437710D01*
G01*
X84649599Y-101321239D02*
X84525488Y-101368185D01*
X84525488Y-101368185D02*
X84400210Y-101414022D01*
X84400210Y-101414022D02*
X84273929Y-101458850D01*
X84273929Y-101458850D02*
X84146811Y-101502770D01*
X84146811Y-101502770D02*
X84019019Y-101545881D01*
X84019019Y-101545881D02*
X83890717Y-101588284D01*
X83890717Y-101588284D02*
X83762071Y-101630079D01*
X83762071Y-101630079D02*
X83633245Y-101671366D01*
X83633245Y-101671366D02*
X83504404Y-101712246D01*
X83504404Y-101712246D02*
X83375711Y-101752817D01*
X83375711Y-101752817D02*
X83290080Y-101779744D01*
X85873113Y-100701770D02*
X85767723Y-100772758D01*
X85767723Y-100772758D02*
X85660153Y-100840452D01*
X85660153Y-100840452D02*
X85550489Y-100905066D01*
X85550489Y-100905066D02*
X85438820Y-100966816D01*
X85438820Y-100966816D02*
X85325233Y-101025919D01*
X85325233Y-101025919D02*
X85209817Y-101082590D01*
X85209817Y-101082590D02*
X85092659Y-101137045D01*
X85092659Y-101137045D02*
X84973847Y-101189499D01*
X84973847Y-101189499D02*
X84853469Y-101240169D01*
X84853469Y-101240169D02*
X84731613Y-101289270D01*
X84731613Y-101289270D02*
X84649599Y-101321239D01*
X86798902Y-99711569D02*
X86732361Y-99823785D01*
X86732361Y-99823785D02*
X86660812Y-99931777D01*
X86660812Y-99931777D02*
X86584537Y-100035620D01*
X86584537Y-100035620D02*
X86503820Y-100135386D01*
X86503820Y-100135386D02*
X86418944Y-100231150D01*
X86418944Y-100231150D02*
X86330193Y-100322985D01*
X86330193Y-100322985D02*
X86237851Y-100410966D01*
X86237851Y-100410966D02*
X86142200Y-100495165D01*
X86142200Y-100495165D02*
X86043524Y-100575656D01*
X86043524Y-100575656D02*
X85942107Y-100652514D01*
X85942107Y-100652514D02*
X85873113Y-100701770D01*
X87060517Y-99035960D02*
X87030568Y-99150701D01*
X87030568Y-99150701D02*
X86996433Y-99261889D01*
X86996433Y-99261889D02*
X86958206Y-99369629D01*
X86958206Y-99369629D02*
X86915982Y-99474025D01*
X86915982Y-99474025D02*
X86869855Y-99575184D01*
X86869855Y-99575184D02*
X86819920Y-99673211D01*
X86819920Y-99673211D02*
X86798902Y-99711569D01*
X87150000Y-98250000D02*
X87147796Y-98374195D01*
X87147796Y-98374195D02*
X87141201Y-98499048D01*
X87141201Y-98499048D02*
X87132775Y-98598868D01*
X87132775Y-98598868D02*
X87118325Y-98722891D01*
X87118325Y-98722891D02*
X87099539Y-98845334D01*
X87099539Y-98845334D02*
X87076439Y-98965397D01*
X87076439Y-98965397D02*
X87060517Y-99035960D01*
X87060517Y-97464039D02*
X87086195Y-97582289D01*
X87086195Y-97582289D02*
X87107572Y-97703400D01*
X87107572Y-97703400D02*
X87124626Y-97826571D01*
X87124626Y-97826571D02*
X87135143Y-97926054D01*
X87135143Y-97926054D02*
X87142870Y-98025935D01*
X87142870Y-98025935D02*
X87148589Y-98150721D01*
X87148589Y-98150721D02*
X87150000Y-98250000D01*
X86798902Y-96788430D02*
X86850333Y-96885233D01*
X86850333Y-96885233D02*
X86897994Y-96985127D01*
X86897994Y-96985127D02*
X86941791Y-97088215D01*
X86941791Y-97088215D02*
X86981628Y-97194605D01*
X86981628Y-97194605D02*
X87017412Y-97304401D01*
X87017412Y-97304401D02*
X87049046Y-97417708D01*
X87049046Y-97417708D02*
X87060517Y-97464039D01*
X85873113Y-95798229D02*
X85976200Y-95872704D01*
X85976200Y-95872704D02*
X86076735Y-95950765D01*
X86076735Y-95950765D02*
X86174434Y-96032484D01*
X86174434Y-96032484D02*
X86269013Y-96117935D01*
X86269013Y-96117935D02*
X86360190Y-96207192D01*
X86360190Y-96207192D02*
X86447681Y-96300329D01*
X86447681Y-96300329D02*
X86531201Y-96397419D01*
X86531201Y-96397419D02*
X86610469Y-96498536D01*
X86610469Y-96498536D02*
X86685200Y-96603754D01*
X86685200Y-96603754D02*
X86755112Y-96713146D01*
X86755112Y-96713146D02*
X86798902Y-96788430D01*
X84649599Y-95178760D02*
X84772391Y-95226934D01*
X84772391Y-95226934D02*
X84893764Y-95276534D01*
X84893764Y-95276534D02*
X85013629Y-95327775D01*
X85013629Y-95327775D02*
X85131900Y-95380872D01*
X85131900Y-95380872D02*
X85248487Y-95436041D01*
X85248487Y-95436041D02*
X85363303Y-95493499D01*
X85363303Y-95493499D02*
X85476260Y-95553460D01*
X85476260Y-95553460D02*
X85587271Y-95616141D01*
X85587271Y-95616141D02*
X85696247Y-95681758D01*
X85696247Y-95681758D02*
X85803100Y-95750526D01*
X85803100Y-95750526D02*
X85873113Y-95798229D01*
X83290080Y-94720255D02*
X83418582Y-94760677D01*
X83418582Y-94760677D02*
X83547342Y-94801340D01*
X83547342Y-94801340D02*
X83676197Y-94842344D01*
X83676197Y-94842344D02*
X83804981Y-94883789D01*
X83804981Y-94883789D02*
X83933531Y-94925775D01*
X83933531Y-94925775D02*
X84061681Y-94968403D01*
X84061681Y-94968403D02*
X84189267Y-95011773D01*
X84189267Y-95011773D02*
X84316124Y-95055985D01*
X84316124Y-95055985D02*
X84442089Y-95101138D01*
X84442089Y-95101138D02*
X84566996Y-95147334D01*
X84566996Y-95147334D02*
X84649599Y-95178760D01*
X83290080Y-94720255D02*
G75*
G02*
X82305169Y-92851575I449805J1430970D01*
G01*
X82305170Y-92851577D02*
G75*
G02*
X117694830Y-92851575I17694830J-5398423D01*
G01*
X117694830Y-92851575D02*
G75*
G02*
X116709919Y-94720255I-1434716J-437710D01*
G01*
X115350400Y-95178760D02*
X115474510Y-95131813D01*
X115474510Y-95131813D02*
X115599788Y-95085976D01*
X115599788Y-95085976D02*
X115726069Y-95041148D01*
X115726069Y-95041148D02*
X115853187Y-94997228D01*
X115853187Y-94997228D02*
X115980979Y-94954117D01*
X115980979Y-94954117D02*
X116109281Y-94911714D01*
X116109281Y-94911714D02*
X116237927Y-94869919D01*
X116237927Y-94869919D02*
X116366753Y-94828632D01*
X116366753Y-94828632D02*
X116495594Y-94787752D01*
X116495594Y-94787752D02*
X116624287Y-94747181D01*
X116624287Y-94747181D02*
X116709919Y-94720255D01*
X114126886Y-95798229D02*
X114232275Y-95727240D01*
X114232275Y-95727240D02*
X114339845Y-95659546D01*
X114339845Y-95659546D02*
X114449509Y-95594932D01*
X114449509Y-95594932D02*
X114561178Y-95533182D01*
X114561178Y-95533182D02*
X114674765Y-95474079D01*
X114674765Y-95474079D02*
X114790181Y-95417408D01*
X114790181Y-95417408D02*
X114907339Y-95362953D01*
X114907339Y-95362953D02*
X115026151Y-95310499D01*
X115026151Y-95310499D02*
X115146529Y-95259829D01*
X115146529Y-95259829D02*
X115268385Y-95210728D01*
X115268385Y-95210728D02*
X115350400Y-95178760D01*
X113201097Y-96788430D02*
X113267637Y-96676213D01*
X113267637Y-96676213D02*
X113339186Y-96568221D01*
X113339186Y-96568221D02*
X113415461Y-96464378D01*
X113415461Y-96464378D02*
X113496178Y-96364612D01*
X113496178Y-96364612D02*
X113581054Y-96268848D01*
X113581054Y-96268848D02*
X113669805Y-96177013D01*
X113669805Y-96177013D02*
X113762147Y-96089032D01*
X113762147Y-96089032D02*
X113857798Y-96004833D01*
X113857798Y-96004833D02*
X113956474Y-95924342D01*
X113956474Y-95924342D02*
X114057891Y-95847484D01*
X114057891Y-95847484D02*
X114126886Y-95798229D01*
X112939482Y-97464039D02*
X112969430Y-97349297D01*
X112969430Y-97349297D02*
X113003565Y-97238109D01*
X113003565Y-97238109D02*
X113041792Y-97130369D01*
X113041792Y-97130369D02*
X113084016Y-97025973D01*
X113084016Y-97025973D02*
X113130143Y-96924814D01*
X113130143Y-96924814D02*
X113180078Y-96826787D01*
X113180078Y-96826787D02*
X113201097Y-96788430D01*
X112850000Y-98250000D02*
X112852203Y-98125804D01*
X112852203Y-98125804D02*
X112858798Y-98000950D01*
X112858798Y-98000950D02*
X112867223Y-97901130D01*
X112867223Y-97901130D02*
X112881674Y-97777107D01*
X112881674Y-97777107D02*
X112900459Y-97654664D01*
X112900459Y-97654664D02*
X112923559Y-97534601D01*
X112923559Y-97534601D02*
X112939482Y-97464039D01*
M02*
