G04 #@! TF.GenerationSoftware,KiCad,Pcbnew,(5.1.5)-3*
G04 #@! TF.CreationDate,2020-04-05T23:19:53-02:30*
G04 #@! TF.ProjectId,Thruster_Controller,54687275-7374-4657-925f-436f6e74726f,rev?*
G04 #@! TF.SameCoordinates,Original*
G04 #@! TF.FileFunction,Legend,Top*
G04 #@! TF.FilePolarity,Positive*
%FSLAX46Y46*%
G04 Gerber Fmt 4.6, Leading zero omitted, Abs format (unit mm)*
G04 Created by KiCad (PCBNEW (5.1.5)-3) date 2020-04-05 23:19:53*
%MOMM*%
%LPD*%
G04 APERTURE LIST*
%ADD10C,0.125000*%
%ADD11C,0.150000*%
%ADD12C,0.120000*%
G04 APERTURE END LIST*
D10*
X105526666Y-98566785D02*
X105360000Y-98566785D01*
X105360000Y-98828690D02*
X105360000Y-98328690D01*
X105598095Y-98328690D01*
X105860000Y-98828690D02*
X105812380Y-98804880D01*
X105788571Y-98781071D01*
X105764761Y-98733452D01*
X105764761Y-98590595D01*
X105788571Y-98542976D01*
X105812380Y-98519166D01*
X105860000Y-98495357D01*
X105931428Y-98495357D01*
X105979047Y-98519166D01*
X106002857Y-98542976D01*
X106026666Y-98590595D01*
X106026666Y-98733452D01*
X106002857Y-98781071D01*
X105979047Y-98804880D01*
X105931428Y-98828690D01*
X105860000Y-98828690D01*
X106240952Y-98828690D02*
X106240952Y-98495357D01*
X106240952Y-98590595D02*
X106264761Y-98542976D01*
X106288571Y-98519166D01*
X106336190Y-98495357D01*
X106383809Y-98495357D01*
X106860000Y-98495357D02*
X107050476Y-98495357D01*
X106931428Y-98328690D02*
X106931428Y-98757261D01*
X106955238Y-98804880D01*
X107002857Y-98828690D01*
X107050476Y-98828690D01*
X107217142Y-98828690D02*
X107217142Y-98328690D01*
X107431428Y-98828690D02*
X107431428Y-98566785D01*
X107407619Y-98519166D01*
X107360000Y-98495357D01*
X107288571Y-98495357D01*
X107240952Y-98519166D01*
X107217142Y-98542976D01*
X107860000Y-98804880D02*
X107812380Y-98828690D01*
X107717142Y-98828690D01*
X107669523Y-98804880D01*
X107645714Y-98757261D01*
X107645714Y-98566785D01*
X107669523Y-98519166D01*
X107717142Y-98495357D01*
X107812380Y-98495357D01*
X107860000Y-98519166D01*
X107883809Y-98566785D01*
X107883809Y-98614404D01*
X107645714Y-98662023D01*
X105490952Y-99441785D02*
X105562380Y-99465595D01*
X105586190Y-99489404D01*
X105610000Y-99537023D01*
X105610000Y-99608452D01*
X105586190Y-99656071D01*
X105562380Y-99679880D01*
X105514761Y-99703690D01*
X105324285Y-99703690D01*
X105324285Y-99203690D01*
X105490952Y-99203690D01*
X105538571Y-99227500D01*
X105562380Y-99251309D01*
X105586190Y-99298928D01*
X105586190Y-99346547D01*
X105562380Y-99394166D01*
X105538571Y-99417976D01*
X105490952Y-99441785D01*
X105324285Y-99441785D01*
X106110000Y-99703690D02*
X105943333Y-99465595D01*
X105824285Y-99703690D02*
X105824285Y-99203690D01*
X106014761Y-99203690D01*
X106062380Y-99227500D01*
X106086190Y-99251309D01*
X106110000Y-99298928D01*
X106110000Y-99370357D01*
X106086190Y-99417976D01*
X106062380Y-99441785D01*
X106014761Y-99465595D01*
X105824285Y-99465595D01*
X106633809Y-99203690D02*
X106919523Y-99203690D01*
X106776666Y-99703690D02*
X106776666Y-99203690D01*
X107062380Y-99251309D02*
X107086190Y-99227500D01*
X107133809Y-99203690D01*
X107252857Y-99203690D01*
X107300476Y-99227500D01*
X107324285Y-99251309D01*
X107348095Y-99298928D01*
X107348095Y-99346547D01*
X107324285Y-99417976D01*
X107038571Y-99703690D01*
X107348095Y-99703690D01*
X107657619Y-99203690D02*
X107705238Y-99203690D01*
X107752857Y-99227500D01*
X107776666Y-99251309D01*
X107800476Y-99298928D01*
X107824285Y-99394166D01*
X107824285Y-99513214D01*
X107800476Y-99608452D01*
X107776666Y-99656071D01*
X107752857Y-99679880D01*
X107705238Y-99703690D01*
X107657619Y-99703690D01*
X107610000Y-99679880D01*
X107586190Y-99656071D01*
X107562380Y-99608452D01*
X107538571Y-99513214D01*
X107538571Y-99394166D01*
X107562380Y-99298928D01*
X107586190Y-99251309D01*
X107610000Y-99227500D01*
X107657619Y-99203690D01*
X108133809Y-99203690D02*
X108181428Y-99203690D01*
X108229047Y-99227500D01*
X108252857Y-99251309D01*
X108276666Y-99298928D01*
X108300476Y-99394166D01*
X108300476Y-99513214D01*
X108276666Y-99608452D01*
X108252857Y-99656071D01*
X108229047Y-99679880D01*
X108181428Y-99703690D01*
X108133809Y-99703690D01*
X108086190Y-99679880D01*
X108062380Y-99656071D01*
X108038571Y-99608452D01*
X108014761Y-99513214D01*
X108014761Y-99394166D01*
X108038571Y-99298928D01*
X108062380Y-99251309D01*
X108086190Y-99227500D01*
X108133809Y-99203690D01*
D11*
X96802380Y-97643571D02*
X96585714Y-97643571D01*
X96585714Y-97984047D02*
X96585714Y-97334047D01*
X96895238Y-97334047D01*
X97266666Y-97334047D02*
X97390476Y-97334047D01*
X97452380Y-97365000D01*
X97514285Y-97426904D01*
X97545238Y-97550714D01*
X97545238Y-97767380D01*
X97514285Y-97891190D01*
X97452380Y-97953095D01*
X97390476Y-97984047D01*
X97266666Y-97984047D01*
X97204761Y-97953095D01*
X97142857Y-97891190D01*
X97111904Y-97767380D01*
X97111904Y-97550714D01*
X97142857Y-97426904D01*
X97204761Y-97365000D01*
X97266666Y-97334047D01*
X98195238Y-97922142D02*
X98164285Y-97953095D01*
X98071428Y-97984047D01*
X98009523Y-97984047D01*
X97916666Y-97953095D01*
X97854761Y-97891190D01*
X97823809Y-97829285D01*
X97792857Y-97705476D01*
X97792857Y-97612619D01*
X97823809Y-97488809D01*
X97854761Y-97426904D01*
X97916666Y-97365000D01*
X98009523Y-97334047D01*
X98071428Y-97334047D01*
X98164285Y-97365000D01*
X98195238Y-97395952D01*
X98876190Y-97334047D02*
X99247619Y-97334047D01*
X99061904Y-97984047D02*
X99061904Y-97334047D01*
X99464285Y-97984047D02*
X99464285Y-97334047D01*
X99742857Y-97984047D02*
X99742857Y-97643571D01*
X99711904Y-97581666D01*
X99649999Y-97550714D01*
X99557142Y-97550714D01*
X99495238Y-97581666D01*
X99464285Y-97612619D01*
X100052380Y-97984047D02*
X100052380Y-97550714D01*
X100052380Y-97674523D02*
X100083333Y-97612619D01*
X100114285Y-97581666D01*
X100176190Y-97550714D01*
X100238095Y-97550714D01*
X100733333Y-97550714D02*
X100733333Y-97984047D01*
X100454761Y-97550714D02*
X100454761Y-97891190D01*
X100485714Y-97953095D01*
X100547619Y-97984047D01*
X100640476Y-97984047D01*
X100702380Y-97953095D01*
X100733333Y-97922142D01*
X101011904Y-97953095D02*
X101073809Y-97984047D01*
X101197619Y-97984047D01*
X101259523Y-97953095D01*
X101290476Y-97891190D01*
X101290476Y-97860238D01*
X101259523Y-97798333D01*
X101197619Y-97767380D01*
X101104761Y-97767380D01*
X101042857Y-97736428D01*
X101011904Y-97674523D01*
X101011904Y-97643571D01*
X101042857Y-97581666D01*
X101104761Y-97550714D01*
X101197619Y-97550714D01*
X101259523Y-97581666D01*
X101476190Y-97550714D02*
X101723809Y-97550714D01*
X101569047Y-97334047D02*
X101569047Y-97891190D01*
X101599999Y-97953095D01*
X101661904Y-97984047D01*
X101723809Y-97984047D01*
X102188095Y-97953095D02*
X102126190Y-97984047D01*
X102002380Y-97984047D01*
X101940476Y-97953095D01*
X101909523Y-97891190D01*
X101909523Y-97643571D01*
X101940476Y-97581666D01*
X102002380Y-97550714D01*
X102126190Y-97550714D01*
X102188095Y-97581666D01*
X102219047Y-97643571D01*
X102219047Y-97705476D01*
X101909523Y-97767380D01*
X102497619Y-97984047D02*
X102497619Y-97550714D01*
X102497619Y-97674523D02*
X102528571Y-97612619D01*
X102559523Y-97581666D01*
X102621428Y-97550714D01*
X102683333Y-97550714D01*
X103766666Y-97922142D02*
X103735714Y-97953095D01*
X103642857Y-97984047D01*
X103580952Y-97984047D01*
X103488095Y-97953095D01*
X103426190Y-97891190D01*
X103395238Y-97829285D01*
X103364285Y-97705476D01*
X103364285Y-97612619D01*
X103395238Y-97488809D01*
X103426190Y-97426904D01*
X103488095Y-97365000D01*
X103580952Y-97334047D01*
X103642857Y-97334047D01*
X103735714Y-97365000D01*
X103766666Y-97395952D01*
X104138095Y-97984047D02*
X104076190Y-97953095D01*
X104045238Y-97922142D01*
X104014285Y-97860238D01*
X104014285Y-97674523D01*
X104045238Y-97612619D01*
X104076190Y-97581666D01*
X104138095Y-97550714D01*
X104230952Y-97550714D01*
X104292857Y-97581666D01*
X104323809Y-97612619D01*
X104354761Y-97674523D01*
X104354761Y-97860238D01*
X104323809Y-97922142D01*
X104292857Y-97953095D01*
X104230952Y-97984047D01*
X104138095Y-97984047D01*
X104633333Y-97550714D02*
X104633333Y-97984047D01*
X104633333Y-97612619D02*
X104664285Y-97581666D01*
X104726190Y-97550714D01*
X104819047Y-97550714D01*
X104880952Y-97581666D01*
X104911904Y-97643571D01*
X104911904Y-97984047D01*
X105128571Y-97550714D02*
X105376190Y-97550714D01*
X105221428Y-97334047D02*
X105221428Y-97891190D01*
X105252380Y-97953095D01*
X105314285Y-97984047D01*
X105376190Y-97984047D01*
X105592857Y-97984047D02*
X105592857Y-97550714D01*
X105592857Y-97674523D02*
X105623809Y-97612619D01*
X105654761Y-97581666D01*
X105716666Y-97550714D01*
X105778571Y-97550714D01*
X106088095Y-97984047D02*
X106026190Y-97953095D01*
X105995238Y-97922142D01*
X105964285Y-97860238D01*
X105964285Y-97674523D01*
X105995238Y-97612619D01*
X106026190Y-97581666D01*
X106088095Y-97550714D01*
X106180952Y-97550714D01*
X106242857Y-97581666D01*
X106273809Y-97612619D01*
X106304761Y-97674523D01*
X106304761Y-97860238D01*
X106273809Y-97922142D01*
X106242857Y-97953095D01*
X106180952Y-97984047D01*
X106088095Y-97984047D01*
X106676190Y-97984047D02*
X106614285Y-97953095D01*
X106583333Y-97891190D01*
X106583333Y-97334047D01*
X107016666Y-97984047D02*
X106954761Y-97953095D01*
X106923809Y-97891190D01*
X106923809Y-97334047D01*
X107511904Y-97953095D02*
X107449999Y-97984047D01*
X107326190Y-97984047D01*
X107264285Y-97953095D01*
X107233333Y-97891190D01*
X107233333Y-97643571D01*
X107264285Y-97581666D01*
X107326190Y-97550714D01*
X107449999Y-97550714D01*
X107511904Y-97581666D01*
X107542857Y-97643571D01*
X107542857Y-97705476D01*
X107233333Y-97767380D01*
X107821428Y-97984047D02*
X107821428Y-97550714D01*
X107821428Y-97674523D02*
X107852380Y-97612619D01*
X107883333Y-97581666D01*
X107945238Y-97550714D01*
X108007142Y-97550714D01*
D10*
X85172380Y-95936190D02*
X85339047Y-96436190D01*
X85505714Y-95936190D01*
X85672380Y-96436190D02*
X85672380Y-95936190D01*
X85910476Y-96436190D02*
X85910476Y-95936190D01*
X86196190Y-96436190D01*
X86196190Y-95936190D01*
X86804761Y-101516190D02*
X86566666Y-101516190D01*
X86542857Y-101754285D01*
X86566666Y-101730476D01*
X86614285Y-101706666D01*
X86733333Y-101706666D01*
X86780952Y-101730476D01*
X86804761Y-101754285D01*
X86828571Y-101801904D01*
X86828571Y-101920952D01*
X86804761Y-101968571D01*
X86780952Y-101992380D01*
X86733333Y-102016190D01*
X86614285Y-102016190D01*
X86566666Y-101992380D01*
X86542857Y-101968571D01*
X86971428Y-101516190D02*
X87138095Y-102016190D01*
X87304761Y-101516190D01*
X84525238Y-102976190D02*
X84525238Y-102476190D01*
X84691904Y-102833333D01*
X84858571Y-102476190D01*
X84858571Y-102976190D01*
X85072857Y-102523809D02*
X85096666Y-102500000D01*
X85144285Y-102476190D01*
X85263333Y-102476190D01*
X85310952Y-102500000D01*
X85334761Y-102523809D01*
X85358571Y-102571428D01*
X85358571Y-102619047D01*
X85334761Y-102690476D01*
X85049047Y-102976190D01*
X85358571Y-102976190D01*
X91556666Y-109636190D02*
X91270952Y-109636190D01*
X91413809Y-109636190D02*
X91413809Y-109136190D01*
X91366190Y-109207619D01*
X91318571Y-109255238D01*
X91270952Y-109279047D01*
X91747142Y-109183809D02*
X91770952Y-109160000D01*
X91818571Y-109136190D01*
X91937619Y-109136190D01*
X91985238Y-109160000D01*
X92009047Y-109183809D01*
X92032857Y-109231428D01*
X92032857Y-109279047D01*
X92009047Y-109350476D01*
X91723333Y-109636190D01*
X92032857Y-109636190D01*
X92342380Y-109136190D02*
X92390000Y-109136190D01*
X92437619Y-109160000D01*
X92461428Y-109183809D01*
X92485238Y-109231428D01*
X92509047Y-109326666D01*
X92509047Y-109445714D01*
X92485238Y-109540952D01*
X92461428Y-109588571D01*
X92437619Y-109612380D01*
X92390000Y-109636190D01*
X92342380Y-109636190D01*
X92294761Y-109612380D01*
X92270952Y-109588571D01*
X92247142Y-109540952D01*
X92223333Y-109445714D01*
X92223333Y-109326666D01*
X92247142Y-109231428D01*
X92270952Y-109183809D01*
X92294761Y-109160000D01*
X92342380Y-109136190D01*
X92256666Y-103958571D02*
X92232857Y-103982380D01*
X92161428Y-104006190D01*
X92113809Y-104006190D01*
X92042380Y-103982380D01*
X91994761Y-103934761D01*
X91970952Y-103887142D01*
X91947142Y-103791904D01*
X91947142Y-103720476D01*
X91970952Y-103625238D01*
X91994761Y-103577619D01*
X92042380Y-103530000D01*
X92113809Y-103506190D01*
X92161428Y-103506190D01*
X92232857Y-103530000D01*
X92256666Y-103553809D01*
X92447142Y-103863333D02*
X92685238Y-103863333D01*
X92399523Y-104006190D02*
X92566190Y-103506190D01*
X92732857Y-104006190D01*
X92899523Y-104006190D02*
X92899523Y-103506190D01*
X93185238Y-104006190D01*
X93185238Y-103506190D01*
X93423333Y-104006190D02*
X93423333Y-103506190D01*
X93423333Y-103744285D02*
X93709047Y-103744285D01*
X93709047Y-104006190D02*
X93709047Y-103506190D01*
X94426190Y-105958571D02*
X94402380Y-105982380D01*
X94330952Y-106006190D01*
X94283333Y-106006190D01*
X94211904Y-105982380D01*
X94164285Y-105934761D01*
X94140476Y-105887142D01*
X94116666Y-105791904D01*
X94116666Y-105720476D01*
X94140476Y-105625238D01*
X94164285Y-105577619D01*
X94211904Y-105530000D01*
X94283333Y-105506190D01*
X94330952Y-105506190D01*
X94402380Y-105530000D01*
X94426190Y-105553809D01*
X94616666Y-105863333D02*
X94854761Y-105863333D01*
X94569047Y-106006190D02*
X94735714Y-105506190D01*
X94902380Y-106006190D01*
X95069047Y-106006190D02*
X95069047Y-105506190D01*
X95354761Y-106006190D01*
X95354761Y-105506190D01*
X95830952Y-106006190D02*
X95592857Y-106006190D01*
X95592857Y-105506190D01*
X95892857Y-117046190D02*
X95607142Y-117046190D01*
X95750000Y-117046190D02*
X95750000Y-116546190D01*
X95702380Y-116617619D01*
X95654761Y-116665238D01*
X95607142Y-116689047D01*
X107350952Y-104566190D02*
X107660476Y-104566190D01*
X107493809Y-104756666D01*
X107565238Y-104756666D01*
X107612857Y-104780476D01*
X107636666Y-104804285D01*
X107660476Y-104851904D01*
X107660476Y-104970952D01*
X107636666Y-105018571D01*
X107612857Y-105042380D01*
X107565238Y-105066190D01*
X107422380Y-105066190D01*
X107374761Y-105042380D01*
X107350952Y-105018571D01*
X107803333Y-104566190D02*
X107970000Y-105066190D01*
X108136666Y-104566190D01*
X108255714Y-104566190D02*
X108565238Y-104566190D01*
X108398571Y-104756666D01*
X108470000Y-104756666D01*
X108517619Y-104780476D01*
X108541428Y-104804285D01*
X108565238Y-104851904D01*
X108565238Y-104970952D01*
X108541428Y-105018571D01*
X108517619Y-105042380D01*
X108470000Y-105066190D01*
X108327142Y-105066190D01*
X108279523Y-105042380D01*
X108255714Y-105018571D01*
X113715238Y-102966190D02*
X113715238Y-102466190D01*
X113881904Y-102823333D01*
X114048571Y-102466190D01*
X114048571Y-102966190D01*
X114262857Y-102513809D02*
X114286666Y-102490000D01*
X114334285Y-102466190D01*
X114453333Y-102466190D01*
X114500952Y-102490000D01*
X114524761Y-102513809D01*
X114548571Y-102561428D01*
X114548571Y-102609047D01*
X114524761Y-102680476D01*
X114239047Y-102966190D01*
X114548571Y-102966190D01*
D11*
X109871904Y-85776666D02*
X110348095Y-85776666D01*
X109776666Y-86062380D02*
X110110000Y-85062380D01*
X110443333Y-86062380D01*
X102851428Y-82818571D02*
X102994285Y-82866190D01*
X103041904Y-82913809D01*
X103089523Y-83009047D01*
X103089523Y-83151904D01*
X103041904Y-83247142D01*
X102994285Y-83294761D01*
X102899047Y-83342380D01*
X102518095Y-83342380D01*
X102518095Y-82342380D01*
X102851428Y-82342380D01*
X102946666Y-82390000D01*
X102994285Y-82437619D01*
X103041904Y-82532857D01*
X103041904Y-82628095D01*
X102994285Y-82723333D01*
X102946666Y-82770952D01*
X102851428Y-82818571D01*
X102518095Y-82818571D01*
X94509523Y-83947142D02*
X94461904Y-83994761D01*
X94319047Y-84042380D01*
X94223809Y-84042380D01*
X94080952Y-83994761D01*
X93985714Y-83899523D01*
X93938095Y-83804285D01*
X93890476Y-83613809D01*
X93890476Y-83470952D01*
X93938095Y-83280476D01*
X93985714Y-83185238D01*
X94080952Y-83090000D01*
X94223809Y-83042380D01*
X94319047Y-83042380D01*
X94461904Y-83090000D01*
X94509523Y-83137619D01*
D10*
X83652380Y-90006190D02*
X83819047Y-90506190D01*
X83985714Y-90006190D01*
X84152380Y-90506190D02*
X84152380Y-90006190D01*
X84390476Y-90506190D02*
X84390476Y-90006190D01*
X84676190Y-90506190D01*
X84676190Y-90006190D01*
X83209047Y-92770000D02*
X83161428Y-92746190D01*
X83090000Y-92746190D01*
X83018571Y-92770000D01*
X82970952Y-92817619D01*
X82947142Y-92865238D01*
X82923333Y-92960476D01*
X82923333Y-93031904D01*
X82947142Y-93127142D01*
X82970952Y-93174761D01*
X83018571Y-93222380D01*
X83090000Y-93246190D01*
X83137619Y-93246190D01*
X83209047Y-93222380D01*
X83232857Y-93198571D01*
X83232857Y-93031904D01*
X83137619Y-93031904D01*
X83447142Y-93246190D02*
X83447142Y-92746190D01*
X83732857Y-93246190D01*
X83732857Y-92746190D01*
X83970952Y-93246190D02*
X83970952Y-92746190D01*
X84090000Y-92746190D01*
X84161428Y-92770000D01*
X84209047Y-92817619D01*
X84232857Y-92865238D01*
X84256666Y-92960476D01*
X84256666Y-93031904D01*
X84232857Y-93127142D01*
X84209047Y-93174761D01*
X84161428Y-93222380D01*
X84090000Y-93246190D01*
X83970952Y-93246190D01*
D11*
X96053333Y-96866666D02*
X96053333Y-96166666D01*
X96286666Y-96666666D01*
X96520000Y-96166666D01*
X96520000Y-96866666D01*
X97153333Y-96866666D02*
X97153333Y-96500000D01*
X97120000Y-96433333D01*
X97053333Y-96400000D01*
X96920000Y-96400000D01*
X96853333Y-96433333D01*
X97153333Y-96833333D02*
X97086666Y-96866666D01*
X96920000Y-96866666D01*
X96853333Y-96833333D01*
X96820000Y-96766666D01*
X96820000Y-96700000D01*
X96853333Y-96633333D01*
X96920000Y-96600000D01*
X97086666Y-96600000D01*
X97153333Y-96566666D01*
X97486666Y-96866666D02*
X97486666Y-96400000D01*
X97486666Y-96533333D02*
X97520000Y-96466666D01*
X97553333Y-96433333D01*
X97620000Y-96400000D01*
X97686666Y-96400000D01*
X97920000Y-96866666D02*
X97920000Y-96166666D01*
X97986666Y-96600000D02*
X98186666Y-96866666D01*
X98186666Y-96400000D02*
X97920000Y-96666666D01*
X99253333Y-96500000D02*
X99353333Y-96533333D01*
X99386666Y-96566666D01*
X99420000Y-96633333D01*
X99420000Y-96733333D01*
X99386666Y-96800000D01*
X99353333Y-96833333D01*
X99286666Y-96866666D01*
X99020000Y-96866666D01*
X99020000Y-96166666D01*
X99253333Y-96166666D01*
X99320000Y-96200000D01*
X99353333Y-96233333D01*
X99386666Y-96300000D01*
X99386666Y-96366666D01*
X99353333Y-96433333D01*
X99320000Y-96466666D01*
X99253333Y-96500000D01*
X99020000Y-96500000D01*
X99986666Y-96833333D02*
X99920000Y-96866666D01*
X99786666Y-96866666D01*
X99720000Y-96833333D01*
X99686666Y-96766666D01*
X99686666Y-96500000D01*
X99720000Y-96433333D01*
X99786666Y-96400000D01*
X99920000Y-96400000D01*
X99986666Y-96433333D01*
X100020000Y-96500000D01*
X100020000Y-96566666D01*
X99686666Y-96633333D01*
X100420000Y-96866666D02*
X100353333Y-96833333D01*
X100320000Y-96766666D01*
X100320000Y-96166666D01*
X100686666Y-96866666D02*
X100686666Y-96166666D01*
X100686666Y-96433333D02*
X100753333Y-96400000D01*
X100886666Y-96400000D01*
X100953333Y-96433333D01*
X100986666Y-96466666D01*
X101020000Y-96533333D01*
X101020000Y-96733333D01*
X100986666Y-96800000D01*
X100953333Y-96833333D01*
X100886666Y-96866666D01*
X100753333Y-96866666D01*
X100686666Y-96833333D01*
X101320000Y-96866666D02*
X101320000Y-96400000D01*
X101320000Y-96166666D02*
X101286666Y-96200000D01*
X101320000Y-96233333D01*
X101353333Y-96200000D01*
X101320000Y-96166666D01*
X101320000Y-96233333D01*
X101653333Y-96400000D02*
X101653333Y-96866666D01*
X101653333Y-96466666D02*
X101686666Y-96433333D01*
X101753333Y-96400000D01*
X101853333Y-96400000D01*
X101920000Y-96433333D01*
X101953333Y-96500000D01*
X101953333Y-96866666D01*
X102286666Y-96600000D02*
X102820000Y-96600000D01*
X103120000Y-96233333D02*
X103153333Y-96200000D01*
X103220000Y-96166666D01*
X103386666Y-96166666D01*
X103453333Y-96200000D01*
X103486666Y-96233333D01*
X103520000Y-96300000D01*
X103520000Y-96366666D01*
X103486666Y-96466666D01*
X103086666Y-96866666D01*
X103520000Y-96866666D01*
X103953333Y-96166666D02*
X104020000Y-96166666D01*
X104086666Y-96200000D01*
X104120000Y-96233333D01*
X104153333Y-96300000D01*
X104186666Y-96433333D01*
X104186666Y-96600000D01*
X104153333Y-96733333D01*
X104120000Y-96800000D01*
X104086666Y-96833333D01*
X104020000Y-96866666D01*
X103953333Y-96866666D01*
X103886666Y-96833333D01*
X103853333Y-96800000D01*
X103820000Y-96733333D01*
X103786666Y-96600000D01*
X103786666Y-96433333D01*
X103820000Y-96300000D01*
X103853333Y-96233333D01*
X103886666Y-96200000D01*
X103953333Y-96166666D01*
X104453333Y-96233333D02*
X104486666Y-96200000D01*
X104553333Y-96166666D01*
X104720000Y-96166666D01*
X104786666Y-96200000D01*
X104820000Y-96233333D01*
X104853333Y-96300000D01*
X104853333Y-96366666D01*
X104820000Y-96466666D01*
X104420000Y-96866666D01*
X104853333Y-96866666D01*
X105286666Y-96166666D02*
X105353333Y-96166666D01*
X105420000Y-96200000D01*
X105453333Y-96233333D01*
X105486666Y-96300000D01*
X105520000Y-96433333D01*
X105520000Y-96600000D01*
X105486666Y-96733333D01*
X105453333Y-96800000D01*
X105420000Y-96833333D01*
X105353333Y-96866666D01*
X105286666Y-96866666D01*
X105220000Y-96833333D01*
X105186666Y-96800000D01*
X105153333Y-96733333D01*
X105120000Y-96600000D01*
X105120000Y-96433333D01*
X105153333Y-96300000D01*
X105186666Y-96233333D01*
X105220000Y-96200000D01*
X105286666Y-96166666D01*
X96825000Y-116100000D02*
X96825000Y-117475000D01*
X96375000Y-108850000D02*
X96375000Y-109375000D01*
X103625000Y-108850000D02*
X103625000Y-109375000D01*
X103625000Y-116100000D02*
X103625000Y-115575000D01*
X96375000Y-116100000D02*
X96375000Y-115575000D01*
X103625000Y-116100000D02*
X103100000Y-116100000D01*
X103625000Y-108850000D02*
X103100000Y-108850000D01*
X96375000Y-108850000D02*
X96900000Y-108850000D01*
X96375000Y-116100000D02*
X96825000Y-116100000D01*
D12*
X100160000Y-104140000D02*
X100160000Y-103440000D01*
X101360000Y-103440000D02*
X101360000Y-104140000D01*
X102000000Y-101225000D02*
X102000000Y-100525000D01*
X103200000Y-100525000D02*
X103200000Y-101225000D01*
X98370000Y-103430000D02*
X98370000Y-104130000D01*
X97170000Y-104130000D02*
X97170000Y-103430000D01*
X101550000Y-104125000D02*
X101550000Y-103425000D01*
X102750000Y-103425000D02*
X102750000Y-104125000D01*
X102950000Y-104125000D02*
X102950000Y-103425000D01*
X104150000Y-103425000D02*
X104150000Y-104125000D01*
X95775000Y-104125000D02*
X95775000Y-103425000D01*
X96975000Y-103425000D02*
X96975000Y-104125000D01*
X100235000Y-102115000D02*
X98135000Y-102115000D01*
X100235000Y-101115000D02*
X98135000Y-101115000D01*
X100235000Y-102115000D02*
X100235000Y-101115000D01*
X112400000Y-104550000D02*
X112400000Y-102450000D01*
X113400000Y-104550000D02*
X113400000Y-102450000D01*
X112400000Y-104550000D02*
X113400000Y-104550000D01*
X101855000Y-100525000D02*
X101855000Y-101525000D01*
X100495000Y-101525000D02*
X100495000Y-100525000D01*
X99930000Y-103440000D02*
X99930000Y-104440000D01*
X98570000Y-104440000D02*
X98570000Y-103440000D01*
X97170000Y-100515000D02*
X97170000Y-101515000D01*
X95810000Y-101515000D02*
X95810000Y-100515000D01*
D11*
X90625000Y-106625000D02*
X89850000Y-106625000D01*
X90625000Y-110925000D02*
X89850000Y-110925000D01*
X86325000Y-110925000D02*
X87100000Y-110925000D01*
X86325000Y-106625000D02*
X87100000Y-106625000D01*
X90625000Y-110925000D02*
X90625000Y-110150000D01*
X86325000Y-110925000D02*
X86325000Y-110150000D01*
X90625000Y-106625000D02*
X90625000Y-107400000D01*
X91125000Y-96975000D02*
X91125000Y-100150000D01*
X87875000Y-97700000D02*
X87875000Y-100150000D01*
X87950000Y-105925000D02*
X90400000Y-105925000D01*
X87225000Y-102675000D02*
X90400000Y-102675000D01*
D12*
X114930000Y-93850000D02*
X114930000Y-91750000D01*
X115930000Y-93850000D02*
X115930000Y-91750000D01*
X114930000Y-93850000D02*
X115930000Y-93850000D01*
X111000000Y-96125000D02*
X110000000Y-96125000D01*
X110000000Y-97825000D02*
X111000000Y-97825000D01*
X111150000Y-102255000D02*
X109950000Y-102255000D01*
X109950000Y-100495000D02*
X111150000Y-100495000D01*
X111569999Y-97785001D02*
X112069999Y-97785001D01*
X112069999Y-97785001D02*
X112069999Y-98385001D01*
X94000000Y-98320000D02*
X93500000Y-98320000D01*
X93500000Y-99380000D02*
X94000000Y-99380000D01*
X93975000Y-97345000D02*
X93475000Y-97345000D01*
X93475000Y-98405000D02*
X93975000Y-98405000D01*
X93475000Y-97430000D02*
X93975000Y-97430000D01*
X93975000Y-96370000D02*
X93475000Y-96370000D01*
X107970000Y-115300000D02*
X107970000Y-114800000D01*
X106910000Y-114800000D02*
X106910000Y-115300000D01*
X111197990Y-105871543D02*
X111551543Y-105517990D01*
X110802010Y-104768457D02*
X110448457Y-105122010D01*
X105920000Y-114300000D02*
X105920000Y-114800000D01*
X106980000Y-114800000D02*
X106980000Y-114300000D01*
X108390000Y-105940000D02*
X108390000Y-106440000D01*
X109450000Y-106440000D02*
X109450000Y-105940000D01*
X89550000Y-101175000D02*
X90250000Y-101175000D01*
X90250000Y-102375000D02*
X89550000Y-102375000D01*
X92355000Y-113625000D02*
X92355000Y-113125000D01*
X91295000Y-113125000D02*
X91295000Y-113625000D01*
X92951543Y-106802010D02*
X92597990Y-106448457D01*
X91848457Y-107197990D02*
X92202010Y-107551543D01*
X92675000Y-96600000D02*
X91675000Y-96600000D01*
X91675000Y-96600000D02*
X91675000Y-98700000D01*
X92675000Y-96600000D02*
X92675000Y-98700000D01*
X105625000Y-106575000D02*
X107725000Y-106575000D01*
X105625000Y-107575000D02*
X107725000Y-107575000D01*
X105625000Y-106575000D02*
X105625000Y-107575000D01*
X109900000Y-104180000D02*
X110900000Y-104180000D01*
X110900000Y-102480000D02*
X109900000Y-102480000D01*
X98220000Y-99100000D02*
X99420000Y-99100000D01*
X99420000Y-100860000D02*
X98220000Y-100860000D01*
X100850000Y-88745000D02*
X100850000Y-94585000D01*
X100090000Y-87985000D02*
X100850000Y-88745000D01*
X94250000Y-88745000D02*
X95010000Y-87985000D01*
X94250000Y-94585000D02*
X94250000Y-88745000D01*
X100090000Y-87985000D02*
X98670000Y-87985000D01*
X95010000Y-87985000D02*
X96430000Y-87985000D01*
X100850000Y-94585000D02*
X98670000Y-94585000D01*
X94250000Y-94585000D02*
X96430000Y-94585000D01*
X91870000Y-92750000D02*
X91870000Y-90750000D01*
X89830000Y-90750000D02*
X89830000Y-92750000D01*
X101125000Y-94575000D02*
X103305000Y-94575000D01*
X107725000Y-94575000D02*
X105545000Y-94575000D01*
X101885000Y-87975000D02*
X103305000Y-87975000D01*
X106965000Y-87975000D02*
X105545000Y-87975000D01*
X101125000Y-94575000D02*
X101125000Y-88735000D01*
X101125000Y-88735000D02*
X101885000Y-87975000D01*
X106965000Y-87975000D02*
X107725000Y-88735000D01*
X107725000Y-88735000D02*
X107725000Y-94575000D01*
X92005000Y-90750000D02*
X92005000Y-92750000D01*
X94045000Y-92750000D02*
X94045000Y-90750000D01*
X114600000Y-88735000D02*
X114600000Y-94575000D01*
X113840000Y-87975000D02*
X114600000Y-88735000D01*
X108000000Y-88735000D02*
X108760000Y-87975000D01*
X108000000Y-94575000D02*
X108000000Y-88735000D01*
X113840000Y-87975000D02*
X112420000Y-87975000D01*
X108760000Y-87975000D02*
X110180000Y-87975000D01*
X114600000Y-94575000D02*
X112420000Y-94575000D01*
X108000000Y-94575000D02*
X110180000Y-94575000D01*
X89695000Y-92750000D02*
X89695000Y-90750000D01*
X87655000Y-90750000D02*
X87655000Y-92750000D01*
D10*
X103539047Y-116616190D02*
X103539047Y-117020952D01*
X103562857Y-117068571D01*
X103586666Y-117092380D01*
X103634285Y-117116190D01*
X103729523Y-117116190D01*
X103777142Y-117092380D01*
X103800952Y-117068571D01*
X103824761Y-117020952D01*
X103824761Y-116616190D01*
X104300952Y-116616190D02*
X104062857Y-116616190D01*
X104039047Y-116854285D01*
X104062857Y-116830476D01*
X104110476Y-116806666D01*
X104229523Y-116806666D01*
X104277142Y-116830476D01*
X104300952Y-116854285D01*
X104324761Y-116901904D01*
X104324761Y-117020952D01*
X104300952Y-117068571D01*
X104277142Y-117092380D01*
X104229523Y-117116190D01*
X104110476Y-117116190D01*
X104062857Y-117092380D01*
X104039047Y-117068571D01*
X100656666Y-106448571D02*
X100632857Y-106472380D01*
X100561428Y-106496190D01*
X100513809Y-106496190D01*
X100442380Y-106472380D01*
X100394761Y-106424761D01*
X100370952Y-106377142D01*
X100347142Y-106281904D01*
X100347142Y-106210476D01*
X100370952Y-106115238D01*
X100394761Y-106067619D01*
X100442380Y-106020000D01*
X100513809Y-105996190D01*
X100561428Y-105996190D01*
X100632857Y-106020000D01*
X100656666Y-106043809D01*
X101132857Y-106496190D02*
X100847142Y-106496190D01*
X100990000Y-106496190D02*
X100990000Y-105996190D01*
X100942380Y-106067619D01*
X100894761Y-106115238D01*
X100847142Y-106139047D01*
X103756666Y-100238571D02*
X103732857Y-100262380D01*
X103661428Y-100286190D01*
X103613809Y-100286190D01*
X103542380Y-100262380D01*
X103494761Y-100214761D01*
X103470952Y-100167142D01*
X103447142Y-100071904D01*
X103447142Y-100000476D01*
X103470952Y-99905238D01*
X103494761Y-99857619D01*
X103542380Y-99810000D01*
X103613809Y-99786190D01*
X103661428Y-99786190D01*
X103732857Y-99810000D01*
X103756666Y-99833809D01*
X103923333Y-99786190D02*
X104232857Y-99786190D01*
X104066190Y-99976666D01*
X104137619Y-99976666D01*
X104185238Y-100000476D01*
X104209047Y-100024285D01*
X104232857Y-100071904D01*
X104232857Y-100190952D01*
X104209047Y-100238571D01*
X104185238Y-100262380D01*
X104137619Y-100286190D01*
X103994761Y-100286190D01*
X103947142Y-100262380D01*
X103923333Y-100238571D01*
X97756666Y-106408571D02*
X97732857Y-106432380D01*
X97661428Y-106456190D01*
X97613809Y-106456190D01*
X97542380Y-106432380D01*
X97494761Y-106384761D01*
X97470952Y-106337142D01*
X97447142Y-106241904D01*
X97447142Y-106170476D01*
X97470952Y-106075238D01*
X97494761Y-106027619D01*
X97542380Y-105980000D01*
X97613809Y-105956190D01*
X97661428Y-105956190D01*
X97732857Y-105980000D01*
X97756666Y-106003809D01*
X98209047Y-105956190D02*
X97970952Y-105956190D01*
X97947142Y-106194285D01*
X97970952Y-106170476D01*
X98018571Y-106146666D01*
X98137619Y-106146666D01*
X98185238Y-106170476D01*
X98209047Y-106194285D01*
X98232857Y-106241904D01*
X98232857Y-106360952D01*
X98209047Y-106408571D01*
X98185238Y-106432380D01*
X98137619Y-106456190D01*
X98018571Y-106456190D01*
X97970952Y-106432380D01*
X97947142Y-106408571D01*
X101808571Y-106388571D02*
X101784761Y-106412380D01*
X101713333Y-106436190D01*
X101665714Y-106436190D01*
X101594285Y-106412380D01*
X101546666Y-106364761D01*
X101522857Y-106317142D01*
X101499047Y-106221904D01*
X101499047Y-106150476D01*
X101522857Y-106055238D01*
X101546666Y-106007619D01*
X101594285Y-105960000D01*
X101665714Y-105936190D01*
X101713333Y-105936190D01*
X101784761Y-105960000D01*
X101808571Y-105983809D01*
X102284761Y-106436190D02*
X101999047Y-106436190D01*
X102141904Y-106436190D02*
X102141904Y-105936190D01*
X102094285Y-106007619D01*
X102046666Y-106055238D01*
X101999047Y-106079047D01*
X102522857Y-106436190D02*
X102618095Y-106436190D01*
X102665714Y-106412380D01*
X102689523Y-106388571D01*
X102737142Y-106317142D01*
X102760952Y-106221904D01*
X102760952Y-106031428D01*
X102737142Y-105983809D01*
X102713333Y-105960000D01*
X102665714Y-105936190D01*
X102570476Y-105936190D01*
X102522857Y-105960000D01*
X102499047Y-105983809D01*
X102475238Y-106031428D01*
X102475238Y-106150476D01*
X102499047Y-106198095D01*
X102522857Y-106221904D01*
X102570476Y-106245714D01*
X102665714Y-106245714D01*
X102713333Y-106221904D01*
X102737142Y-106198095D01*
X102760952Y-106150476D01*
X103708571Y-102058571D02*
X103684761Y-102082380D01*
X103613333Y-102106190D01*
X103565714Y-102106190D01*
X103494285Y-102082380D01*
X103446666Y-102034761D01*
X103422857Y-101987142D01*
X103399047Y-101891904D01*
X103399047Y-101820476D01*
X103422857Y-101725238D01*
X103446666Y-101677619D01*
X103494285Y-101630000D01*
X103565714Y-101606190D01*
X103613333Y-101606190D01*
X103684761Y-101630000D01*
X103708571Y-101653809D01*
X103899047Y-101653809D02*
X103922857Y-101630000D01*
X103970476Y-101606190D01*
X104089523Y-101606190D01*
X104137142Y-101630000D01*
X104160952Y-101653809D01*
X104184761Y-101701428D01*
X104184761Y-101749047D01*
X104160952Y-101820476D01*
X103875238Y-102106190D01*
X104184761Y-102106190D01*
X104494285Y-101606190D02*
X104541904Y-101606190D01*
X104589523Y-101630000D01*
X104613333Y-101653809D01*
X104637142Y-101701428D01*
X104660952Y-101796666D01*
X104660952Y-101915714D01*
X104637142Y-102010952D01*
X104613333Y-102058571D01*
X104589523Y-102082380D01*
X104541904Y-102106190D01*
X104494285Y-102106190D01*
X104446666Y-102082380D01*
X104422857Y-102058571D01*
X104399047Y-102010952D01*
X104375238Y-101915714D01*
X104375238Y-101796666D01*
X104399047Y-101701428D01*
X104422857Y-101653809D01*
X104446666Y-101630000D01*
X104494285Y-101606190D01*
X94558571Y-102848571D02*
X94534761Y-102872380D01*
X94463333Y-102896190D01*
X94415714Y-102896190D01*
X94344285Y-102872380D01*
X94296666Y-102824761D01*
X94272857Y-102777142D01*
X94249047Y-102681904D01*
X94249047Y-102610476D01*
X94272857Y-102515238D01*
X94296666Y-102467619D01*
X94344285Y-102420000D01*
X94415714Y-102396190D01*
X94463333Y-102396190D01*
X94534761Y-102420000D01*
X94558571Y-102443809D01*
X94749047Y-102443809D02*
X94772857Y-102420000D01*
X94820476Y-102396190D01*
X94939523Y-102396190D01*
X94987142Y-102420000D01*
X95010952Y-102443809D01*
X95034761Y-102491428D01*
X95034761Y-102539047D01*
X95010952Y-102610476D01*
X94725238Y-102896190D01*
X95034761Y-102896190D01*
X95201428Y-102396190D02*
X95534761Y-102396190D01*
X95320476Y-102896190D01*
X98780952Y-102766190D02*
X98780952Y-102266190D01*
X98900000Y-102266190D01*
X98971428Y-102290000D01*
X99019047Y-102337619D01*
X99042857Y-102385238D01*
X99066666Y-102480476D01*
X99066666Y-102551904D01*
X99042857Y-102647142D01*
X99019047Y-102694761D01*
X98971428Y-102742380D01*
X98900000Y-102766190D01*
X98780952Y-102766190D01*
X99257142Y-102313809D02*
X99280952Y-102290000D01*
X99328571Y-102266190D01*
X99447619Y-102266190D01*
X99495238Y-102290000D01*
X99519047Y-102313809D01*
X99542857Y-102361428D01*
X99542857Y-102409047D01*
X99519047Y-102480476D01*
X99233333Y-102766190D01*
X99542857Y-102766190D01*
X112070952Y-101746190D02*
X112070952Y-101246190D01*
X112190000Y-101246190D01*
X112261428Y-101270000D01*
X112309047Y-101317619D01*
X112332857Y-101365238D01*
X112356666Y-101460476D01*
X112356666Y-101531904D01*
X112332857Y-101627142D01*
X112309047Y-101674761D01*
X112261428Y-101722380D01*
X112190000Y-101746190D01*
X112070952Y-101746190D01*
X112523333Y-101246190D02*
X112832857Y-101246190D01*
X112666190Y-101436666D01*
X112737619Y-101436666D01*
X112785238Y-101460476D01*
X112809047Y-101484285D01*
X112832857Y-101531904D01*
X112832857Y-101650952D01*
X112809047Y-101698571D01*
X112785238Y-101722380D01*
X112737619Y-101746190D01*
X112594761Y-101746190D01*
X112547142Y-101722380D01*
X112523333Y-101698571D01*
X101056666Y-99646190D02*
X100890000Y-99408095D01*
X100770952Y-99646190D02*
X100770952Y-99146190D01*
X100961428Y-99146190D01*
X101009047Y-99170000D01*
X101032857Y-99193809D01*
X101056666Y-99241428D01*
X101056666Y-99312857D01*
X101032857Y-99360476D01*
X101009047Y-99384285D01*
X100961428Y-99408095D01*
X100770952Y-99408095D01*
X101532857Y-99646190D02*
X101247142Y-99646190D01*
X101390000Y-99646190D02*
X101390000Y-99146190D01*
X101342380Y-99217619D01*
X101294761Y-99265238D01*
X101247142Y-99289047D01*
X99201666Y-106471190D02*
X99035000Y-106233095D01*
X98915952Y-106471190D02*
X98915952Y-105971190D01*
X99106428Y-105971190D01*
X99154047Y-105995000D01*
X99177857Y-106018809D01*
X99201666Y-106066428D01*
X99201666Y-106137857D01*
X99177857Y-106185476D01*
X99154047Y-106209285D01*
X99106428Y-106233095D01*
X98915952Y-106233095D01*
X99392142Y-106018809D02*
X99415952Y-105995000D01*
X99463571Y-105971190D01*
X99582619Y-105971190D01*
X99630238Y-105995000D01*
X99654047Y-106018809D01*
X99677857Y-106066428D01*
X99677857Y-106114047D01*
X99654047Y-106185476D01*
X99368333Y-106471190D01*
X99677857Y-106471190D01*
X95016666Y-101046190D02*
X94850000Y-100808095D01*
X94730952Y-101046190D02*
X94730952Y-100546190D01*
X94921428Y-100546190D01*
X94969047Y-100570000D01*
X94992857Y-100593809D01*
X95016666Y-100641428D01*
X95016666Y-100712857D01*
X94992857Y-100760476D01*
X94969047Y-100784285D01*
X94921428Y-100808095D01*
X94730952Y-100808095D01*
X95445238Y-100546190D02*
X95350000Y-100546190D01*
X95302380Y-100570000D01*
X95278571Y-100593809D01*
X95230952Y-100665238D01*
X95207142Y-100760476D01*
X95207142Y-100950952D01*
X95230952Y-100998571D01*
X95254761Y-101022380D01*
X95302380Y-101046190D01*
X95397619Y-101046190D01*
X95445238Y-101022380D01*
X95469047Y-100998571D01*
X95492857Y-100950952D01*
X95492857Y-100831904D01*
X95469047Y-100784285D01*
X95445238Y-100760476D01*
X95397619Y-100736666D01*
X95302380Y-100736666D01*
X95254761Y-100760476D01*
X95230952Y-100784285D01*
X95207142Y-100831904D01*
X86279047Y-111546190D02*
X86279047Y-111950952D01*
X86302857Y-111998571D01*
X86326666Y-112022380D01*
X86374285Y-112046190D01*
X86469523Y-112046190D01*
X86517142Y-112022380D01*
X86540952Y-111998571D01*
X86564761Y-111950952D01*
X86564761Y-111546190D01*
X86755238Y-111546190D02*
X87064761Y-111546190D01*
X86898095Y-111736666D01*
X86969523Y-111736666D01*
X87017142Y-111760476D01*
X87040952Y-111784285D01*
X87064761Y-111831904D01*
X87064761Y-111950952D01*
X87040952Y-111998571D01*
X87017142Y-112022380D01*
X86969523Y-112046190D01*
X86826666Y-112046190D01*
X86779047Y-112022380D01*
X86755238Y-111998571D01*
X86779047Y-97496190D02*
X86779047Y-97900952D01*
X86802857Y-97948571D01*
X86826666Y-97972380D01*
X86874285Y-97996190D01*
X86969523Y-97996190D01*
X87017142Y-97972380D01*
X87040952Y-97948571D01*
X87064761Y-97900952D01*
X87064761Y-97496190D01*
X87279047Y-97543809D02*
X87302857Y-97520000D01*
X87350476Y-97496190D01*
X87469523Y-97496190D01*
X87517142Y-97520000D01*
X87540952Y-97543809D01*
X87564761Y-97591428D01*
X87564761Y-97639047D01*
X87540952Y-97710476D01*
X87255238Y-97996190D01*
X87564761Y-97996190D01*
X86019047Y-104856190D02*
X86019047Y-105260952D01*
X86042857Y-105308571D01*
X86066666Y-105332380D01*
X86114285Y-105356190D01*
X86209523Y-105356190D01*
X86257142Y-105332380D01*
X86280952Y-105308571D01*
X86304761Y-105260952D01*
X86304761Y-104856190D01*
X86614285Y-105070476D02*
X86566666Y-105046666D01*
X86542857Y-105022857D01*
X86519047Y-104975238D01*
X86519047Y-104951428D01*
X86542857Y-104903809D01*
X86566666Y-104880000D01*
X86614285Y-104856190D01*
X86709523Y-104856190D01*
X86757142Y-104880000D01*
X86780952Y-104903809D01*
X86804761Y-104951428D01*
X86804761Y-104975238D01*
X86780952Y-105022857D01*
X86757142Y-105046666D01*
X86709523Y-105070476D01*
X86614285Y-105070476D01*
X86566666Y-105094285D01*
X86542857Y-105118095D01*
X86519047Y-105165714D01*
X86519047Y-105260952D01*
X86542857Y-105308571D01*
X86566666Y-105332380D01*
X86614285Y-105356190D01*
X86709523Y-105356190D01*
X86757142Y-105332380D01*
X86780952Y-105308571D01*
X86804761Y-105260952D01*
X86804761Y-105165714D01*
X86780952Y-105118095D01*
X86757142Y-105094285D01*
X86709523Y-105070476D01*
X116000952Y-94486190D02*
X116000952Y-93986190D01*
X116120000Y-93986190D01*
X116191428Y-94010000D01*
X116239047Y-94057619D01*
X116262857Y-94105238D01*
X116286666Y-94200476D01*
X116286666Y-94271904D01*
X116262857Y-94367142D01*
X116239047Y-94414761D01*
X116191428Y-94462380D01*
X116120000Y-94486190D01*
X116000952Y-94486190D01*
X116762857Y-94486190D02*
X116477142Y-94486190D01*
X116620000Y-94486190D02*
X116620000Y-93986190D01*
X116572380Y-94057619D01*
X116524761Y-94105238D01*
X116477142Y-94129047D01*
X108788571Y-89518571D02*
X108764761Y-89542380D01*
X108693333Y-89566190D01*
X108645714Y-89566190D01*
X108574285Y-89542380D01*
X108526666Y-89494761D01*
X108502857Y-89447142D01*
X108479047Y-89351904D01*
X108479047Y-89280476D01*
X108502857Y-89185238D01*
X108526666Y-89137619D01*
X108574285Y-89090000D01*
X108645714Y-89066190D01*
X108693333Y-89066190D01*
X108764761Y-89090000D01*
X108788571Y-89113809D01*
X109217142Y-89232857D02*
X109217142Y-89566190D01*
X109098095Y-89042380D02*
X108979047Y-89399523D01*
X109288571Y-89399523D01*
X109502857Y-89566190D02*
X109598095Y-89566190D01*
X109645714Y-89542380D01*
X109669523Y-89518571D01*
X109717142Y-89447142D01*
X109740952Y-89351904D01*
X109740952Y-89161428D01*
X109717142Y-89113809D01*
X109693333Y-89090000D01*
X109645714Y-89066190D01*
X109550476Y-89066190D01*
X109502857Y-89090000D01*
X109479047Y-89113809D01*
X109455238Y-89161428D01*
X109455238Y-89280476D01*
X109479047Y-89328095D01*
X109502857Y-89351904D01*
X109550476Y-89375714D01*
X109645714Y-89375714D01*
X109693333Y-89351904D01*
X109717142Y-89328095D01*
X109740952Y-89280476D01*
X108346666Y-102226190D02*
X108108571Y-102226190D01*
X108108571Y-101726190D01*
X108775238Y-102226190D02*
X108489523Y-102226190D01*
X108632380Y-102226190D02*
X108632380Y-101726190D01*
X108584761Y-101797619D01*
X108537142Y-101845238D01*
X108489523Y-101869047D01*
X108928571Y-98516190D02*
X108761904Y-98278095D01*
X108642857Y-98516190D02*
X108642857Y-98016190D01*
X108833333Y-98016190D01*
X108880952Y-98040000D01*
X108904761Y-98063809D01*
X108928571Y-98111428D01*
X108928571Y-98182857D01*
X108904761Y-98230476D01*
X108880952Y-98254285D01*
X108833333Y-98278095D01*
X108642857Y-98278095D01*
X109119047Y-98063809D02*
X109142857Y-98040000D01*
X109190476Y-98016190D01*
X109309523Y-98016190D01*
X109357142Y-98040000D01*
X109380952Y-98063809D01*
X109404761Y-98111428D01*
X109404761Y-98159047D01*
X109380952Y-98230476D01*
X109095238Y-98516190D01*
X109404761Y-98516190D01*
X109571428Y-98016190D02*
X109880952Y-98016190D01*
X109714285Y-98206666D01*
X109785714Y-98206666D01*
X109833333Y-98230476D01*
X109857142Y-98254285D01*
X109880952Y-98301904D01*
X109880952Y-98420952D01*
X109857142Y-98468571D01*
X109833333Y-98492380D01*
X109785714Y-98516190D01*
X109642857Y-98516190D01*
X109595238Y-98492380D01*
X109571428Y-98468571D01*
X112259047Y-96936190D02*
X112259047Y-97340952D01*
X112282857Y-97388571D01*
X112306666Y-97412380D01*
X112354285Y-97436190D01*
X112449523Y-97436190D01*
X112497142Y-97412380D01*
X112520952Y-97388571D01*
X112544761Y-97340952D01*
X112544761Y-96936190D01*
X112997142Y-97102857D02*
X112997142Y-97436190D01*
X112878095Y-96912380D02*
X112759047Y-97269523D01*
X113068571Y-97269523D01*
X93388571Y-99986190D02*
X93221904Y-99748095D01*
X93102857Y-99986190D02*
X93102857Y-99486190D01*
X93293333Y-99486190D01*
X93340952Y-99510000D01*
X93364761Y-99533809D01*
X93388571Y-99581428D01*
X93388571Y-99652857D01*
X93364761Y-99700476D01*
X93340952Y-99724285D01*
X93293333Y-99748095D01*
X93102857Y-99748095D01*
X93579047Y-99533809D02*
X93602857Y-99510000D01*
X93650476Y-99486190D01*
X93769523Y-99486190D01*
X93817142Y-99510000D01*
X93840952Y-99533809D01*
X93864761Y-99581428D01*
X93864761Y-99629047D01*
X93840952Y-99700476D01*
X93555238Y-99986190D01*
X93864761Y-99986190D01*
X94174285Y-99486190D02*
X94221904Y-99486190D01*
X94269523Y-99510000D01*
X94293333Y-99533809D01*
X94317142Y-99581428D01*
X94340952Y-99676666D01*
X94340952Y-99795714D01*
X94317142Y-99890952D01*
X94293333Y-99938571D01*
X94269523Y-99962380D01*
X94221904Y-99986190D01*
X94174285Y-99986190D01*
X94126666Y-99962380D01*
X94102857Y-99938571D01*
X94079047Y-99890952D01*
X94055238Y-99795714D01*
X94055238Y-99676666D01*
X94079047Y-99581428D01*
X94102857Y-99533809D01*
X94126666Y-99510000D01*
X94174285Y-99486190D01*
X94878571Y-98466190D02*
X94711904Y-98228095D01*
X94592857Y-98466190D02*
X94592857Y-97966190D01*
X94783333Y-97966190D01*
X94830952Y-97990000D01*
X94854761Y-98013809D01*
X94878571Y-98061428D01*
X94878571Y-98132857D01*
X94854761Y-98180476D01*
X94830952Y-98204285D01*
X94783333Y-98228095D01*
X94592857Y-98228095D01*
X95069047Y-98013809D02*
X95092857Y-97990000D01*
X95140476Y-97966190D01*
X95259523Y-97966190D01*
X95307142Y-97990000D01*
X95330952Y-98013809D01*
X95354761Y-98061428D01*
X95354761Y-98109047D01*
X95330952Y-98180476D01*
X95045238Y-98466190D01*
X95354761Y-98466190D01*
X95830952Y-98466190D02*
X95545238Y-98466190D01*
X95688095Y-98466190D02*
X95688095Y-97966190D01*
X95640476Y-98037619D01*
X95592857Y-98085238D01*
X95545238Y-98109047D01*
X93388571Y-96146190D02*
X93221904Y-95908095D01*
X93102857Y-96146190D02*
X93102857Y-95646190D01*
X93293333Y-95646190D01*
X93340952Y-95670000D01*
X93364761Y-95693809D01*
X93388571Y-95741428D01*
X93388571Y-95812857D01*
X93364761Y-95860476D01*
X93340952Y-95884285D01*
X93293333Y-95908095D01*
X93102857Y-95908095D01*
X93579047Y-95693809D02*
X93602857Y-95670000D01*
X93650476Y-95646190D01*
X93769523Y-95646190D01*
X93817142Y-95670000D01*
X93840952Y-95693809D01*
X93864761Y-95741428D01*
X93864761Y-95789047D01*
X93840952Y-95860476D01*
X93555238Y-96146190D01*
X93864761Y-96146190D01*
X94055238Y-95693809D02*
X94079047Y-95670000D01*
X94126666Y-95646190D01*
X94245714Y-95646190D01*
X94293333Y-95670000D01*
X94317142Y-95693809D01*
X94340952Y-95741428D01*
X94340952Y-95789047D01*
X94317142Y-95860476D01*
X94031428Y-96146190D01*
X94340952Y-96146190D01*
X108548571Y-114826190D02*
X108381904Y-114588095D01*
X108262857Y-114826190D02*
X108262857Y-114326190D01*
X108453333Y-114326190D01*
X108500952Y-114350000D01*
X108524761Y-114373809D01*
X108548571Y-114421428D01*
X108548571Y-114492857D01*
X108524761Y-114540476D01*
X108500952Y-114564285D01*
X108453333Y-114588095D01*
X108262857Y-114588095D01*
X108739047Y-114373809D02*
X108762857Y-114350000D01*
X108810476Y-114326190D01*
X108929523Y-114326190D01*
X108977142Y-114350000D01*
X109000952Y-114373809D01*
X109024761Y-114421428D01*
X109024761Y-114469047D01*
X109000952Y-114540476D01*
X108715238Y-114826190D01*
X109024761Y-114826190D01*
X109453333Y-114326190D02*
X109358095Y-114326190D01*
X109310476Y-114350000D01*
X109286666Y-114373809D01*
X109239047Y-114445238D01*
X109215238Y-114540476D01*
X109215238Y-114730952D01*
X109239047Y-114778571D01*
X109262857Y-114802380D01*
X109310476Y-114826190D01*
X109405714Y-114826190D01*
X109453333Y-114802380D01*
X109477142Y-114778571D01*
X109500952Y-114730952D01*
X109500952Y-114611904D01*
X109477142Y-114564285D01*
X109453333Y-114540476D01*
X109405714Y-114516666D01*
X109310476Y-114516666D01*
X109262857Y-114540476D01*
X109239047Y-114564285D01*
X109215238Y-114611904D01*
X111852656Y-106327225D02*
X111566446Y-106276717D01*
X111650625Y-106529255D02*
X111297072Y-106175702D01*
X111431759Y-106041015D01*
X111482267Y-106024179D01*
X111515938Y-106024179D01*
X111566446Y-106041015D01*
X111616954Y-106091522D01*
X111633790Y-106142030D01*
X111633790Y-106175702D01*
X111616954Y-106226209D01*
X111482267Y-106360896D01*
X111667461Y-105872656D02*
X111667461Y-105838984D01*
X111684297Y-105788477D01*
X111768477Y-105704297D01*
X111818984Y-105687461D01*
X111852656Y-105687461D01*
X111903164Y-105704297D01*
X111936835Y-105737969D01*
X111970507Y-105805312D01*
X111970507Y-106209374D01*
X112189374Y-105990507D01*
X111953671Y-105519103D02*
X112189374Y-105283400D01*
X112391404Y-105788477D01*
X105693571Y-116016190D02*
X105526904Y-115778095D01*
X105407857Y-116016190D02*
X105407857Y-115516190D01*
X105598333Y-115516190D01*
X105645952Y-115540000D01*
X105669761Y-115563809D01*
X105693571Y-115611428D01*
X105693571Y-115682857D01*
X105669761Y-115730476D01*
X105645952Y-115754285D01*
X105598333Y-115778095D01*
X105407857Y-115778095D01*
X105884047Y-115563809D02*
X105907857Y-115540000D01*
X105955476Y-115516190D01*
X106074523Y-115516190D01*
X106122142Y-115540000D01*
X106145952Y-115563809D01*
X106169761Y-115611428D01*
X106169761Y-115659047D01*
X106145952Y-115730476D01*
X105860238Y-116016190D01*
X106169761Y-116016190D01*
X106407857Y-116016190D02*
X106503095Y-116016190D01*
X106550714Y-115992380D01*
X106574523Y-115968571D01*
X106622142Y-115897142D01*
X106645952Y-115801904D01*
X106645952Y-115611428D01*
X106622142Y-115563809D01*
X106598333Y-115540000D01*
X106550714Y-115516190D01*
X106455476Y-115516190D01*
X106407857Y-115540000D01*
X106384047Y-115563809D01*
X106360238Y-115611428D01*
X106360238Y-115730476D01*
X106384047Y-115778095D01*
X106407857Y-115801904D01*
X106455476Y-115825714D01*
X106550714Y-115825714D01*
X106598333Y-115801904D01*
X106622142Y-115778095D01*
X106645952Y-115730476D01*
X108778571Y-107696190D02*
X108611904Y-107458095D01*
X108492857Y-107696190D02*
X108492857Y-107196190D01*
X108683333Y-107196190D01*
X108730952Y-107220000D01*
X108754761Y-107243809D01*
X108778571Y-107291428D01*
X108778571Y-107362857D01*
X108754761Y-107410476D01*
X108730952Y-107434285D01*
X108683333Y-107458095D01*
X108492857Y-107458095D01*
X108945238Y-107196190D02*
X109254761Y-107196190D01*
X109088095Y-107386666D01*
X109159523Y-107386666D01*
X109207142Y-107410476D01*
X109230952Y-107434285D01*
X109254761Y-107481904D01*
X109254761Y-107600952D01*
X109230952Y-107648571D01*
X109207142Y-107672380D01*
X109159523Y-107696190D01*
X109016666Y-107696190D01*
X108969047Y-107672380D01*
X108945238Y-107648571D01*
X109564285Y-107196190D02*
X109611904Y-107196190D01*
X109659523Y-107220000D01*
X109683333Y-107243809D01*
X109707142Y-107291428D01*
X109730952Y-107386666D01*
X109730952Y-107505714D01*
X109707142Y-107600952D01*
X109683333Y-107648571D01*
X109659523Y-107672380D01*
X109611904Y-107696190D01*
X109564285Y-107696190D01*
X109516666Y-107672380D01*
X109492857Y-107648571D01*
X109469047Y-107600952D01*
X109445238Y-107505714D01*
X109445238Y-107386666D01*
X109469047Y-107291428D01*
X109492857Y-107243809D01*
X109516666Y-107220000D01*
X109564285Y-107196190D01*
X91738571Y-101978571D02*
X91714761Y-102002380D01*
X91643333Y-102026190D01*
X91595714Y-102026190D01*
X91524285Y-102002380D01*
X91476666Y-101954761D01*
X91452857Y-101907142D01*
X91429047Y-101811904D01*
X91429047Y-101740476D01*
X91452857Y-101645238D01*
X91476666Y-101597619D01*
X91524285Y-101550000D01*
X91595714Y-101526190D01*
X91643333Y-101526190D01*
X91714761Y-101550000D01*
X91738571Y-101573809D01*
X92167142Y-101692857D02*
X92167142Y-102026190D01*
X92048095Y-101502380D02*
X91929047Y-101859523D01*
X92238571Y-101859523D01*
X92524285Y-101526190D02*
X92571904Y-101526190D01*
X92619523Y-101550000D01*
X92643333Y-101573809D01*
X92667142Y-101621428D01*
X92690952Y-101716666D01*
X92690952Y-101835714D01*
X92667142Y-101930952D01*
X92643333Y-101978571D01*
X92619523Y-102002380D01*
X92571904Y-102026190D01*
X92524285Y-102026190D01*
X92476666Y-102002380D01*
X92452857Y-101978571D01*
X92429047Y-101930952D01*
X92405238Y-101835714D01*
X92405238Y-101716666D01*
X92429047Y-101621428D01*
X92452857Y-101573809D01*
X92476666Y-101550000D01*
X92524285Y-101526190D01*
X92798571Y-113446190D02*
X92631904Y-113208095D01*
X92512857Y-113446190D02*
X92512857Y-112946190D01*
X92703333Y-112946190D01*
X92750952Y-112970000D01*
X92774761Y-112993809D01*
X92798571Y-113041428D01*
X92798571Y-113112857D01*
X92774761Y-113160476D01*
X92750952Y-113184285D01*
X92703333Y-113208095D01*
X92512857Y-113208095D01*
X93274761Y-113446190D02*
X92989047Y-113446190D01*
X93131904Y-113446190D02*
X93131904Y-112946190D01*
X93084285Y-113017619D01*
X93036666Y-113065238D01*
X92989047Y-113089047D01*
X93441428Y-112946190D02*
X93774761Y-112946190D01*
X93560476Y-113446190D01*
X91292775Y-107602656D02*
X91343283Y-107316446D01*
X91090745Y-107400625D02*
X91444298Y-107047072D01*
X91578985Y-107181759D01*
X91595821Y-107232267D01*
X91595821Y-107265938D01*
X91578985Y-107316446D01*
X91528478Y-107366954D01*
X91477970Y-107383790D01*
X91444298Y-107383790D01*
X91393791Y-107366954D01*
X91259104Y-107232267D01*
X91764180Y-107366954D02*
X91983046Y-107585820D01*
X91730508Y-107602656D01*
X91781016Y-107653164D01*
X91797852Y-107703671D01*
X91797852Y-107737343D01*
X91781016Y-107787851D01*
X91696836Y-107872030D01*
X91646329Y-107888866D01*
X91612657Y-107888866D01*
X91562149Y-107872030D01*
X91461134Y-107771015D01*
X91444298Y-107720507D01*
X91444298Y-107686835D01*
X92302928Y-107905702D02*
X92134569Y-107737343D01*
X91949375Y-107888866D01*
X91983046Y-107888866D01*
X92033554Y-107905702D01*
X92117733Y-107989881D01*
X92134569Y-108040389D01*
X92134569Y-108074061D01*
X92117733Y-108124568D01*
X92033554Y-108208748D01*
X91983046Y-108225583D01*
X91949375Y-108225583D01*
X91898867Y-108208748D01*
X91814688Y-108124568D01*
X91797852Y-108074061D01*
X91797852Y-108040389D01*
X91750952Y-96366190D02*
X91750952Y-95866190D01*
X91870000Y-95866190D01*
X91941428Y-95890000D01*
X91989047Y-95937619D01*
X92012857Y-95985238D01*
X92036666Y-96080476D01*
X92036666Y-96151904D01*
X92012857Y-96247142D01*
X91989047Y-96294761D01*
X91941428Y-96342380D01*
X91870000Y-96366190D01*
X91750952Y-96366190D01*
X92465238Y-96032857D02*
X92465238Y-96366190D01*
X92346190Y-95842380D02*
X92227142Y-96199523D01*
X92536666Y-96199523D01*
X104590952Y-106896190D02*
X104590952Y-106396190D01*
X104710000Y-106396190D01*
X104781428Y-106420000D01*
X104829047Y-106467619D01*
X104852857Y-106515238D01*
X104876666Y-106610476D01*
X104876666Y-106681904D01*
X104852857Y-106777142D01*
X104829047Y-106824761D01*
X104781428Y-106872380D01*
X104710000Y-106896190D01*
X104590952Y-106896190D01*
X105329047Y-106396190D02*
X105090952Y-106396190D01*
X105067142Y-106634285D01*
X105090952Y-106610476D01*
X105138571Y-106586666D01*
X105257619Y-106586666D01*
X105305238Y-106610476D01*
X105329047Y-106634285D01*
X105352857Y-106681904D01*
X105352857Y-106800952D01*
X105329047Y-106848571D01*
X105305238Y-106872380D01*
X105257619Y-106896190D01*
X105138571Y-106896190D01*
X105090952Y-106872380D01*
X105067142Y-106848571D01*
X107508571Y-103798571D02*
X107484761Y-103822380D01*
X107413333Y-103846190D01*
X107365714Y-103846190D01*
X107294285Y-103822380D01*
X107246666Y-103774761D01*
X107222857Y-103727142D01*
X107199047Y-103631904D01*
X107199047Y-103560476D01*
X107222857Y-103465238D01*
X107246666Y-103417619D01*
X107294285Y-103370000D01*
X107365714Y-103346190D01*
X107413333Y-103346190D01*
X107484761Y-103370000D01*
X107508571Y-103393809D01*
X107960952Y-103346190D02*
X107722857Y-103346190D01*
X107699047Y-103584285D01*
X107722857Y-103560476D01*
X107770476Y-103536666D01*
X107889523Y-103536666D01*
X107937142Y-103560476D01*
X107960952Y-103584285D01*
X107984761Y-103631904D01*
X107984761Y-103750952D01*
X107960952Y-103798571D01*
X107937142Y-103822380D01*
X107889523Y-103846190D01*
X107770476Y-103846190D01*
X107722857Y-103822380D01*
X107699047Y-103798571D01*
X108294285Y-103346190D02*
X108341904Y-103346190D01*
X108389523Y-103370000D01*
X108413333Y-103393809D01*
X108437142Y-103441428D01*
X108460952Y-103536666D01*
X108460952Y-103655714D01*
X108437142Y-103750952D01*
X108413333Y-103798571D01*
X108389523Y-103822380D01*
X108341904Y-103846190D01*
X108294285Y-103846190D01*
X108246666Y-103822380D01*
X108222857Y-103798571D01*
X108199047Y-103750952D01*
X108175238Y-103655714D01*
X108175238Y-103536666D01*
X108199047Y-103441428D01*
X108222857Y-103393809D01*
X108246666Y-103370000D01*
X108294285Y-103346190D01*
X96118571Y-99596190D02*
X95951904Y-99358095D01*
X95832857Y-99596190D02*
X95832857Y-99096190D01*
X96023333Y-99096190D01*
X96070952Y-99120000D01*
X96094761Y-99143809D01*
X96118571Y-99191428D01*
X96118571Y-99262857D01*
X96094761Y-99310476D01*
X96070952Y-99334285D01*
X96023333Y-99358095D01*
X95832857Y-99358095D01*
X96594761Y-99596190D02*
X96309047Y-99596190D01*
X96451904Y-99596190D02*
X96451904Y-99096190D01*
X96404285Y-99167619D01*
X96356666Y-99215238D01*
X96309047Y-99239047D01*
X96904285Y-99096190D02*
X96951904Y-99096190D01*
X96999523Y-99120000D01*
X97023333Y-99143809D01*
X97047142Y-99191428D01*
X97070952Y-99286666D01*
X97070952Y-99405714D01*
X97047142Y-99500952D01*
X97023333Y-99548571D01*
X96999523Y-99572380D01*
X96951904Y-99596190D01*
X96904285Y-99596190D01*
X96856666Y-99572380D01*
X96832857Y-99548571D01*
X96809047Y-99500952D01*
X96785238Y-99405714D01*
X96785238Y-99286666D01*
X96809047Y-99191428D01*
X96832857Y-99143809D01*
X96856666Y-99120000D01*
X96904285Y-99096190D01*
X94948571Y-89488571D02*
X94924761Y-89512380D01*
X94853333Y-89536190D01*
X94805714Y-89536190D01*
X94734285Y-89512380D01*
X94686666Y-89464761D01*
X94662857Y-89417142D01*
X94639047Y-89321904D01*
X94639047Y-89250476D01*
X94662857Y-89155238D01*
X94686666Y-89107619D01*
X94734285Y-89060000D01*
X94805714Y-89036190D01*
X94853333Y-89036190D01*
X94924761Y-89060000D01*
X94948571Y-89083809D01*
X95424761Y-89536190D02*
X95139047Y-89536190D01*
X95281904Y-89536190D02*
X95281904Y-89036190D01*
X95234285Y-89107619D01*
X95186666Y-89155238D01*
X95139047Y-89179047D01*
X95734285Y-89036190D02*
X95781904Y-89036190D01*
X95829523Y-89060000D01*
X95853333Y-89083809D01*
X95877142Y-89131428D01*
X95900952Y-89226666D01*
X95900952Y-89345714D01*
X95877142Y-89440952D01*
X95853333Y-89488571D01*
X95829523Y-89512380D01*
X95781904Y-89536190D01*
X95734285Y-89536190D01*
X95686666Y-89512380D01*
X95662857Y-89488571D01*
X95639047Y-89440952D01*
X95615238Y-89345714D01*
X95615238Y-89226666D01*
X95639047Y-89131428D01*
X95662857Y-89083809D01*
X95686666Y-89060000D01*
X95734285Y-89036190D01*
D11*
X94611428Y-87385952D02*
X94611428Y-86624047D01*
X94992380Y-87005000D02*
X94230476Y-87005000D01*
D10*
X90608571Y-89418571D02*
X90584761Y-89442380D01*
X90513333Y-89466190D01*
X90465714Y-89466190D01*
X90394285Y-89442380D01*
X90346666Y-89394761D01*
X90322857Y-89347142D01*
X90299047Y-89251904D01*
X90299047Y-89180476D01*
X90322857Y-89085238D01*
X90346666Y-89037619D01*
X90394285Y-88990000D01*
X90465714Y-88966190D01*
X90513333Y-88966190D01*
X90584761Y-88990000D01*
X90608571Y-89013809D01*
X91084761Y-89466190D02*
X90799047Y-89466190D01*
X90941904Y-89466190D02*
X90941904Y-88966190D01*
X90894285Y-89037619D01*
X90846666Y-89085238D01*
X90799047Y-89109047D01*
X91275238Y-89013809D02*
X91299047Y-88990000D01*
X91346666Y-88966190D01*
X91465714Y-88966190D01*
X91513333Y-88990000D01*
X91537142Y-89013809D01*
X91560952Y-89061428D01*
X91560952Y-89109047D01*
X91537142Y-89180476D01*
X91251428Y-89466190D01*
X91560952Y-89466190D01*
X101998571Y-89488571D02*
X101974761Y-89512380D01*
X101903333Y-89536190D01*
X101855714Y-89536190D01*
X101784285Y-89512380D01*
X101736666Y-89464761D01*
X101712857Y-89417142D01*
X101689047Y-89321904D01*
X101689047Y-89250476D01*
X101712857Y-89155238D01*
X101736666Y-89107619D01*
X101784285Y-89060000D01*
X101855714Y-89036190D01*
X101903333Y-89036190D01*
X101974761Y-89060000D01*
X101998571Y-89083809D01*
X102474761Y-89536190D02*
X102189047Y-89536190D01*
X102331904Y-89536190D02*
X102331904Y-89036190D01*
X102284285Y-89107619D01*
X102236666Y-89155238D01*
X102189047Y-89179047D01*
X102641428Y-89036190D02*
X102950952Y-89036190D01*
X102784285Y-89226666D01*
X102855714Y-89226666D01*
X102903333Y-89250476D01*
X102927142Y-89274285D01*
X102950952Y-89321904D01*
X102950952Y-89440952D01*
X102927142Y-89488571D01*
X102903333Y-89512380D01*
X102855714Y-89536190D01*
X102712857Y-89536190D01*
X102665238Y-89512380D01*
X102641428Y-89488571D01*
D11*
X101486428Y-87375952D02*
X101486428Y-86614047D01*
X101867380Y-86995000D02*
X101105476Y-86995000D01*
D10*
X92658571Y-89378571D02*
X92634761Y-89402380D01*
X92563333Y-89426190D01*
X92515714Y-89426190D01*
X92444285Y-89402380D01*
X92396666Y-89354761D01*
X92372857Y-89307142D01*
X92349047Y-89211904D01*
X92349047Y-89140476D01*
X92372857Y-89045238D01*
X92396666Y-88997619D01*
X92444285Y-88950000D01*
X92515714Y-88926190D01*
X92563333Y-88926190D01*
X92634761Y-88950000D01*
X92658571Y-88973809D01*
X93134761Y-89426190D02*
X92849047Y-89426190D01*
X92991904Y-89426190D02*
X92991904Y-88926190D01*
X92944285Y-88997619D01*
X92896666Y-89045238D01*
X92849047Y-89069047D01*
X93563333Y-89092857D02*
X93563333Y-89426190D01*
X93444285Y-88902380D02*
X93325238Y-89259523D01*
X93634761Y-89259523D01*
X113728571Y-95508571D02*
X113704761Y-95532380D01*
X113633333Y-95556190D01*
X113585714Y-95556190D01*
X113514285Y-95532380D01*
X113466666Y-95484761D01*
X113442857Y-95437142D01*
X113419047Y-95341904D01*
X113419047Y-95270476D01*
X113442857Y-95175238D01*
X113466666Y-95127619D01*
X113514285Y-95080000D01*
X113585714Y-95056190D01*
X113633333Y-95056190D01*
X113704761Y-95080000D01*
X113728571Y-95103809D01*
X114204761Y-95556190D02*
X113919047Y-95556190D01*
X114061904Y-95556190D02*
X114061904Y-95056190D01*
X114014285Y-95127619D01*
X113966666Y-95175238D01*
X113919047Y-95199047D01*
X114657142Y-95056190D02*
X114419047Y-95056190D01*
X114395238Y-95294285D01*
X114419047Y-95270476D01*
X114466666Y-95246666D01*
X114585714Y-95246666D01*
X114633333Y-95270476D01*
X114657142Y-95294285D01*
X114680952Y-95341904D01*
X114680952Y-95460952D01*
X114657142Y-95508571D01*
X114633333Y-95532380D01*
X114585714Y-95556190D01*
X114466666Y-95556190D01*
X114419047Y-95532380D01*
X114395238Y-95508571D01*
D11*
X108361428Y-87375952D02*
X108361428Y-86614047D01*
X108742380Y-86995000D02*
X107980476Y-86995000D01*
D10*
X88408571Y-89408571D02*
X88384761Y-89432380D01*
X88313333Y-89456190D01*
X88265714Y-89456190D01*
X88194285Y-89432380D01*
X88146666Y-89384761D01*
X88122857Y-89337142D01*
X88099047Y-89241904D01*
X88099047Y-89170476D01*
X88122857Y-89075238D01*
X88146666Y-89027619D01*
X88194285Y-88980000D01*
X88265714Y-88956190D01*
X88313333Y-88956190D01*
X88384761Y-88980000D01*
X88408571Y-89003809D01*
X88575238Y-88956190D02*
X88884761Y-88956190D01*
X88718095Y-89146666D01*
X88789523Y-89146666D01*
X88837142Y-89170476D01*
X88860952Y-89194285D01*
X88884761Y-89241904D01*
X88884761Y-89360952D01*
X88860952Y-89408571D01*
X88837142Y-89432380D01*
X88789523Y-89456190D01*
X88646666Y-89456190D01*
X88599047Y-89432380D01*
X88575238Y-89408571D01*
X89360952Y-89456190D02*
X89075238Y-89456190D01*
X89218095Y-89456190D02*
X89218095Y-88956190D01*
X89170476Y-89027619D01*
X89122857Y-89075238D01*
X89075238Y-89099047D01*
M02*
