M48
INCH,TZ
T1C0.0118
%
G90
G05
T1
X33071Y-37087
X33219Y-36299
X33219Y-36791
X33356Y-36555
X33386Y-37087
X33445Y-35945
X33504Y-36299
X33504Y-36791
X33632Y-35669
X33661Y-36555
X33661Y-37087
X33750Y-35945
X33770Y-35384
X33809Y-36299
X33809Y-36781
X33927Y-42136
X33937Y-37087
X33957Y-37411
X33967Y-35118
X33967Y-35669
X33967Y-36555
X34016Y-34213
X34045Y-35384
X34045Y-35945
X34104Y-36299
X34104Y-36811
X34242Y-40719
X34252Y-37087
X34331Y-36575
X34400Y-43598
X34409Y-36850
X34449Y-33858
X34498Y-35541
X34498Y-36004
X34498Y-42480
X34508Y-40413
X34508Y-41201
X34537Y-43120
X34555Y-41740
X34646Y-37421
X34724Y-33622
X34724Y-33858
X34744Y-37894
X34754Y-35778
X34764Y-42815
X34872Y-41742
X34941Y-42490
X34961Y-33346
X34961Y-33622
X34961Y-33858
X34961Y-37421
X34970Y-40787
X34970Y-41270
X35000Y-35541
X35000Y-36004
X35000Y-39104
X35030Y-43130
X35098Y-40069
X35098Y-38278
X35118Y-39557
X35197Y-33622
X35197Y-33858
X35260Y-37421
X35266Y-41730
X35285Y-40785
X35295Y-41280
X35394Y-35541
X35423Y-44380
X35433Y-33346
X35433Y-33622
X35433Y-33858
X35492Y-39094
X35610Y-38278
X35620Y-37274
X35620Y-43839
X35669Y-32992
X35669Y-33622
X35669Y-33858
X35689Y-40069
X35709Y-35551
X35725Y-42280
X35792Y-41457
X35906Y-33346
X35927Y-42490
X36063Y-35541
X36083Y-40335
X36117Y-42736
X36142Y-32992
X36152Y-44400
X36152Y-44872
X36211Y-45246
X36329Y-39232
X36378Y-32598
X36378Y-33228
X36378Y-43937
X36535Y-34311
X36535Y-37126
X36535Y-37441
X36555Y-36831
X36565Y-36467
X36606Y-43783
X36614Y-32992
X36632Y-39696
X36713Y-38120
X36713Y-38888
X36722Y-38504
X36764Y-37287
X36780Y-43569
X36791Y-33907
X36850Y-32598
X36890Y-33228
X36893Y-40020
X36973Y-43371
X37008Y-37126
X37008Y-37441
X37047Y-33524
X37057Y-45374
X37067Y-44902
X37139Y-43152
X37175Y-39474
X37206Y-40054
X37280Y-36807
X37280Y-37280
X37283Y-34291
X37283Y-36467
X37304Y-44577
X37323Y-32598
X37402Y-38878
X37470Y-38174
X37520Y-37126
X37520Y-37441
X37559Y-32205
X37559Y-32992
X37657Y-33524
X37684Y-38388
X37756Y-42677
X37795Y-32598
X37795Y-33228
X37864Y-37421
X37897Y-38595
X37992Y-35551
X37992Y-36024
X38031Y-32205
X38031Y-32992
X38031Y-33622
X38051Y-42510
X38179Y-36496
X38179Y-44380
X38209Y-41535
X38238Y-38878
X38268Y-32598
X38268Y-33346
X38268Y-33622
X38268Y-35748
X38327Y-36890
X38465Y-40394
X38504Y-32205
X38504Y-32992
X38504Y-33622
X38504Y-36024
X38504Y-40787
X38524Y-36516
X38533Y-43327
X38533Y-43730
X38543Y-35551
X38612Y-37175
X38622Y-44370
X38632Y-41549
X38671Y-45167
X38730Y-42677
X38740Y-32598
X38740Y-33346
X38740Y-33622
X38858Y-40945
X38894Y-39461
X38898Y-43760
X38902Y-37484
X38937Y-35551
X38961Y-39736
X38976Y-32205
X38976Y-32992
X38976Y-33622
X39114Y-41549
X39124Y-45561
X39146Y-37276
X39173Y-45089
X39213Y-32598
X39213Y-33346
X39213Y-33622
X39242Y-43317
X39242Y-43760
X39291Y-35551
X39409Y-37539
X39449Y-32205
X39449Y-32992
X39478Y-45098
X39487Y-45526
X39508Y-40482
X39567Y-43376
X39606Y-35551
X39660Y-42956
X39665Y-41549
X39685Y-32598
X39685Y-33228
X39715Y-39764
X39823Y-40492
X39830Y-43173
X39921Y-32205
X39921Y-32992
X40000Y-37126
X40000Y-37441
X40010Y-39764
X40039Y-34291
X40069Y-44606
X40100Y-43027
X40157Y-32598
X40157Y-33228
X40157Y-44075
X40167Y-36476
X40167Y-36811
X40207Y-41549
X40244Y-37291
X40256Y-40138
X40261Y-45413
X40295Y-33898
X40305Y-39823
X40394Y-32205
X40394Y-32992
X40423Y-43661
X40423Y-44606
X40512Y-37126
X40512Y-37441
X40512Y-41516
X40541Y-39183
X40551Y-45746
X40551Y-40226
X40561Y-33524
X40600Y-45020
X40650Y-43976
X40653Y-44296
X40764Y-37287
X40787Y-36476
X40787Y-36811
X40906Y-32598
X40906Y-33228
X40984Y-37126
X40984Y-37441
X41102Y-32224
X41102Y-32992
X41181Y-33524
X41272Y-38721
X41339Y-32598
X41339Y-33228
X41339Y-45394
X41437Y-43199
X41457Y-44970
X41496Y-39353
X41502Y-40447
X41535Y-35551
X41535Y-35984
X41535Y-44385
X41575Y-32992
X41575Y-33622
X41575Y-33858
X41693Y-37441
X41703Y-42195
X41722Y-39512
X41742Y-40632
X41752Y-40907
X41766Y-40357
X41772Y-35748
X41807Y-38067
X41811Y-32598
X41811Y-33307
X41811Y-33622
X41811Y-33858
X41811Y-41636
X41913Y-45331
X41960Y-39650
X41972Y-37445
X42008Y-35551
X42008Y-35984
X42021Y-40252
X42047Y-32992
X42047Y-33622
X42047Y-33858
X42081Y-38088
X42087Y-41636
X42169Y-42571
X42244Y-32717
X42264Y-37445
X42283Y-33307
X42283Y-33622
X42283Y-33858
X42299Y-45543
X42362Y-35551
X42363Y-38092
X42372Y-41636
X42480Y-42087
X42520Y-32992
X42520Y-33622
X42520Y-33858
X42539Y-37449
X42610Y-43094
X42682Y-38641
X42717Y-35551
X42756Y-33386
X42882Y-42012
X42957Y-43291
X42982Y-38356
X43031Y-35551
X43091Y-38986
X43169Y-39419
X43169Y-39862
X43169Y-40335
X43169Y-40827
X43228Y-33386
X43287Y-38356
X43299Y-42713
X43307Y-34016
X43468Y-43370
X43474Y-39026
X43543Y-42480
X43576Y-41590
X43583Y-37126
X43583Y-37402
X43602Y-33701
X43602Y-34331
X43622Y-35758
X43622Y-36467
X43626Y-35299
X43632Y-36811
X43770Y-38002
X43770Y-40591
X43780Y-38337
X43795Y-37268
X43858Y-40945
X43927Y-39026
X44016Y-37126
X44016Y-37402
X44055Y-38002
X44065Y-38337
X44094Y-39400
X44252Y-37268
X44360Y-36831
X44370Y-35787
X44370Y-36457
X44378Y-35303
X44394Y-43161
X44441Y-40260
X44449Y-37126
X44449Y-37402
X44449Y-40955
X44720Y-42614
X45118Y-35335
X45187Y-35640
X45364Y-35876
X45445Y-36752
X45492Y-37319
T0
M30
