G04 #@! TF.GenerationSoftware,KiCad,Pcbnew,(5.1.4)-1*
G04 #@! TF.CreationDate,2019-08-28T01:11:50-07:00*
G04 #@! TF.ProjectId,ESC Drivetrain V1,45534320-4472-4697-9665-747261696e20,rev?*
G04 #@! TF.SameCoordinates,Original*
G04 #@! TF.FileFunction,Soldermask,Bot*
G04 #@! TF.FilePolarity,Negative*
%FSLAX46Y46*%
G04 Gerber Fmt 4.6, Leading zero omitted, Abs format (unit mm)*
G04 Created by KiCad (PCBNEW (5.1.4)-1) date 2019-08-28 01:11:50*
%MOMM*%
%LPD*%
G04 APERTURE LIST*
%ADD10C,0.100000*%
G04 APERTURE END LIST*
D10*
G36*
X136751000Y-146801000D02*
G01*
X134949000Y-146801000D01*
X134949000Y-144999000D01*
X136751000Y-144999000D01*
X136751000Y-146801000D01*
X136751000Y-146801000D01*
G37*
G36*
X141040442Y-145005518D02*
G01*
X141106627Y-145012037D01*
X141276466Y-145063557D01*
X141432991Y-145147222D01*
X141468729Y-145176552D01*
X141570186Y-145259814D01*
X141649951Y-145357009D01*
X141682778Y-145397009D01*
X141766443Y-145553534D01*
X141817963Y-145723373D01*
X141835359Y-145900000D01*
X141817963Y-146076627D01*
X141766443Y-146246466D01*
X141682778Y-146402991D01*
X141653448Y-146438729D01*
X141570186Y-146540186D01*
X141481731Y-146612778D01*
X141432991Y-146652778D01*
X141276466Y-146736443D01*
X141106627Y-146787963D01*
X141040442Y-146794482D01*
X140974260Y-146801000D01*
X140885740Y-146801000D01*
X140819558Y-146794482D01*
X140753373Y-146787963D01*
X140583534Y-146736443D01*
X140427009Y-146652778D01*
X140378269Y-146612778D01*
X140289814Y-146540186D01*
X140206552Y-146438729D01*
X140177222Y-146402991D01*
X140093557Y-146246466D01*
X140042037Y-146076627D01*
X140024641Y-145900000D01*
X140042037Y-145723373D01*
X140093557Y-145553534D01*
X140177222Y-145397009D01*
X140210049Y-145357009D01*
X140289814Y-145259814D01*
X140391271Y-145176552D01*
X140427009Y-145147222D01*
X140583534Y-145063557D01*
X140753373Y-145012037D01*
X140819558Y-145005518D01*
X140885740Y-144999000D01*
X140974260Y-144999000D01*
X141040442Y-145005518D01*
X141040442Y-145005518D01*
G37*
G36*
X138500442Y-145005518D02*
G01*
X138566627Y-145012037D01*
X138736466Y-145063557D01*
X138892991Y-145147222D01*
X138928729Y-145176552D01*
X139030186Y-145259814D01*
X139109951Y-145357009D01*
X139142778Y-145397009D01*
X139226443Y-145553534D01*
X139277963Y-145723373D01*
X139295359Y-145900000D01*
X139277963Y-146076627D01*
X139226443Y-146246466D01*
X139142778Y-146402991D01*
X139113448Y-146438729D01*
X139030186Y-146540186D01*
X138941731Y-146612778D01*
X138892991Y-146652778D01*
X138736466Y-146736443D01*
X138566627Y-146787963D01*
X138500442Y-146794482D01*
X138434260Y-146801000D01*
X138345740Y-146801000D01*
X138279558Y-146794482D01*
X138213373Y-146787963D01*
X138043534Y-146736443D01*
X137887009Y-146652778D01*
X137838269Y-146612778D01*
X137749814Y-146540186D01*
X137666552Y-146438729D01*
X137637222Y-146402991D01*
X137553557Y-146246466D01*
X137502037Y-146076627D01*
X137484641Y-145900000D01*
X137502037Y-145723373D01*
X137553557Y-145553534D01*
X137637222Y-145397009D01*
X137670049Y-145357009D01*
X137749814Y-145259814D01*
X137851271Y-145176552D01*
X137887009Y-145147222D01*
X138043534Y-145063557D01*
X138213373Y-145012037D01*
X138279558Y-145005518D01*
X138345740Y-144999000D01*
X138434260Y-144999000D01*
X138500442Y-145005518D01*
X138500442Y-145005518D01*
G37*
G36*
X105270443Y-144965519D02*
G01*
X105336627Y-144972037D01*
X105506466Y-145023557D01*
X105662991Y-145107222D01*
X105698729Y-145136552D01*
X105800186Y-145219814D01*
X105883448Y-145321271D01*
X105912778Y-145357009D01*
X105996443Y-145513534D01*
X106047963Y-145683373D01*
X106065359Y-145860000D01*
X106047963Y-146036627D01*
X105996443Y-146206466D01*
X105912778Y-146362991D01*
X105883448Y-146398729D01*
X105800186Y-146500186D01*
X105698729Y-146583448D01*
X105662991Y-146612778D01*
X105506466Y-146696443D01*
X105336627Y-146747963D01*
X105270443Y-146754481D01*
X105204260Y-146761000D01*
X105115740Y-146761000D01*
X105049557Y-146754481D01*
X104983373Y-146747963D01*
X104813534Y-146696443D01*
X104657009Y-146612778D01*
X104621271Y-146583448D01*
X104519814Y-146500186D01*
X104436552Y-146398729D01*
X104407222Y-146362991D01*
X104323557Y-146206466D01*
X104272037Y-146036627D01*
X104254641Y-145860000D01*
X104272037Y-145683373D01*
X104323557Y-145513534D01*
X104407222Y-145357009D01*
X104436552Y-145321271D01*
X104519814Y-145219814D01*
X104621271Y-145136552D01*
X104657009Y-145107222D01*
X104813534Y-145023557D01*
X104983373Y-144972037D01*
X105049557Y-144965519D01*
X105115740Y-144959000D01*
X105204260Y-144959000D01*
X105270443Y-144965519D01*
X105270443Y-144965519D01*
G37*
G36*
X148450443Y-144965519D02*
G01*
X148516627Y-144972037D01*
X148686466Y-145023557D01*
X148842991Y-145107222D01*
X148878729Y-145136552D01*
X148980186Y-145219814D01*
X149063448Y-145321271D01*
X149092778Y-145357009D01*
X149176443Y-145513534D01*
X149227963Y-145683373D01*
X149245359Y-145860000D01*
X149227963Y-146036627D01*
X149176443Y-146206466D01*
X149092778Y-146362991D01*
X149063448Y-146398729D01*
X148980186Y-146500186D01*
X148878729Y-146583448D01*
X148842991Y-146612778D01*
X148686466Y-146696443D01*
X148516627Y-146747963D01*
X148450443Y-146754481D01*
X148384260Y-146761000D01*
X148295740Y-146761000D01*
X148229557Y-146754481D01*
X148163373Y-146747963D01*
X147993534Y-146696443D01*
X147837009Y-146612778D01*
X147801271Y-146583448D01*
X147699814Y-146500186D01*
X147616552Y-146398729D01*
X147587222Y-146362991D01*
X147503557Y-146206466D01*
X147452037Y-146036627D01*
X147434641Y-145860000D01*
X147452037Y-145683373D01*
X147503557Y-145513534D01*
X147587222Y-145357009D01*
X147616552Y-145321271D01*
X147699814Y-145219814D01*
X147801271Y-145136552D01*
X147837009Y-145107222D01*
X147993534Y-145023557D01*
X148163373Y-144972037D01*
X148229557Y-144965519D01*
X148295740Y-144959000D01*
X148384260Y-144959000D01*
X148450443Y-144965519D01*
X148450443Y-144965519D01*
G37*
G36*
X145910443Y-144965519D02*
G01*
X145976627Y-144972037D01*
X146146466Y-145023557D01*
X146302991Y-145107222D01*
X146338729Y-145136552D01*
X146440186Y-145219814D01*
X146523448Y-145321271D01*
X146552778Y-145357009D01*
X146636443Y-145513534D01*
X146687963Y-145683373D01*
X146705359Y-145860000D01*
X146687963Y-146036627D01*
X146636443Y-146206466D01*
X146552778Y-146362991D01*
X146523448Y-146398729D01*
X146440186Y-146500186D01*
X146338729Y-146583448D01*
X146302991Y-146612778D01*
X146146466Y-146696443D01*
X145976627Y-146747963D01*
X145910443Y-146754481D01*
X145844260Y-146761000D01*
X145755740Y-146761000D01*
X145689557Y-146754481D01*
X145623373Y-146747963D01*
X145453534Y-146696443D01*
X145297009Y-146612778D01*
X145261271Y-146583448D01*
X145159814Y-146500186D01*
X145076552Y-146398729D01*
X145047222Y-146362991D01*
X144963557Y-146206466D01*
X144912037Y-146036627D01*
X144894641Y-145860000D01*
X144912037Y-145683373D01*
X144963557Y-145513534D01*
X145047222Y-145357009D01*
X145076552Y-145321271D01*
X145159814Y-145219814D01*
X145261271Y-145136552D01*
X145297009Y-145107222D01*
X145453534Y-145023557D01*
X145623373Y-144972037D01*
X145689557Y-144965519D01*
X145755740Y-144959000D01*
X145844260Y-144959000D01*
X145910443Y-144965519D01*
X145910443Y-144965519D01*
G37*
G36*
X102730443Y-144965519D02*
G01*
X102796627Y-144972037D01*
X102966466Y-145023557D01*
X103122991Y-145107222D01*
X103158729Y-145136552D01*
X103260186Y-145219814D01*
X103343448Y-145321271D01*
X103372778Y-145357009D01*
X103456443Y-145513534D01*
X103507963Y-145683373D01*
X103525359Y-145860000D01*
X103507963Y-146036627D01*
X103456443Y-146206466D01*
X103372778Y-146362991D01*
X103343448Y-146398729D01*
X103260186Y-146500186D01*
X103158729Y-146583448D01*
X103122991Y-146612778D01*
X102966466Y-146696443D01*
X102796627Y-146747963D01*
X102730443Y-146754481D01*
X102664260Y-146761000D01*
X102575740Y-146761000D01*
X102509557Y-146754481D01*
X102443373Y-146747963D01*
X102273534Y-146696443D01*
X102117009Y-146612778D01*
X102081271Y-146583448D01*
X101979814Y-146500186D01*
X101896552Y-146398729D01*
X101867222Y-146362991D01*
X101783557Y-146206466D01*
X101732037Y-146036627D01*
X101714641Y-145860000D01*
X101732037Y-145683373D01*
X101783557Y-145513534D01*
X101867222Y-145357009D01*
X101896552Y-145321271D01*
X101979814Y-145219814D01*
X102081271Y-145136552D01*
X102117009Y-145107222D01*
X102273534Y-145023557D01*
X102443373Y-144972037D01*
X102509557Y-144965519D01*
X102575740Y-144959000D01*
X102664260Y-144959000D01*
X102730443Y-144965519D01*
X102730443Y-144965519D01*
G37*
G36*
X105270442Y-142425518D02*
G01*
X105336627Y-142432037D01*
X105506466Y-142483557D01*
X105662991Y-142567222D01*
X105698729Y-142596552D01*
X105800186Y-142679814D01*
X105883448Y-142781271D01*
X105912778Y-142817009D01*
X105996443Y-142973534D01*
X106047963Y-143143373D01*
X106065359Y-143320000D01*
X106047963Y-143496627D01*
X105996443Y-143666466D01*
X105912778Y-143822991D01*
X105883448Y-143858729D01*
X105800186Y-143960186D01*
X105698729Y-144043448D01*
X105662991Y-144072778D01*
X105506466Y-144156443D01*
X105336627Y-144207963D01*
X105270442Y-144214482D01*
X105204260Y-144221000D01*
X105115740Y-144221000D01*
X105049558Y-144214482D01*
X104983373Y-144207963D01*
X104813534Y-144156443D01*
X104657009Y-144072778D01*
X104621271Y-144043448D01*
X104519814Y-143960186D01*
X104436552Y-143858729D01*
X104407222Y-143822991D01*
X104323557Y-143666466D01*
X104272037Y-143496627D01*
X104254641Y-143320000D01*
X104272037Y-143143373D01*
X104323557Y-142973534D01*
X104407222Y-142817009D01*
X104436552Y-142781271D01*
X104519814Y-142679814D01*
X104621271Y-142596552D01*
X104657009Y-142567222D01*
X104813534Y-142483557D01*
X104983373Y-142432037D01*
X105049558Y-142425518D01*
X105115740Y-142419000D01*
X105204260Y-142419000D01*
X105270442Y-142425518D01*
X105270442Y-142425518D01*
G37*
G36*
X102730442Y-142425518D02*
G01*
X102796627Y-142432037D01*
X102966466Y-142483557D01*
X103122991Y-142567222D01*
X103158729Y-142596552D01*
X103260186Y-142679814D01*
X103343448Y-142781271D01*
X103372778Y-142817009D01*
X103456443Y-142973534D01*
X103507963Y-143143373D01*
X103525359Y-143320000D01*
X103507963Y-143496627D01*
X103456443Y-143666466D01*
X103372778Y-143822991D01*
X103343448Y-143858729D01*
X103260186Y-143960186D01*
X103158729Y-144043448D01*
X103122991Y-144072778D01*
X102966466Y-144156443D01*
X102796627Y-144207963D01*
X102730442Y-144214482D01*
X102664260Y-144221000D01*
X102575740Y-144221000D01*
X102509558Y-144214482D01*
X102443373Y-144207963D01*
X102273534Y-144156443D01*
X102117009Y-144072778D01*
X102081271Y-144043448D01*
X101979814Y-143960186D01*
X101896552Y-143858729D01*
X101867222Y-143822991D01*
X101783557Y-143666466D01*
X101732037Y-143496627D01*
X101714641Y-143320000D01*
X101732037Y-143143373D01*
X101783557Y-142973534D01*
X101867222Y-142817009D01*
X101896552Y-142781271D01*
X101979814Y-142679814D01*
X102081271Y-142596552D01*
X102117009Y-142567222D01*
X102273534Y-142483557D01*
X102443373Y-142432037D01*
X102509558Y-142425518D01*
X102575740Y-142419000D01*
X102664260Y-142419000D01*
X102730442Y-142425518D01*
X102730442Y-142425518D01*
G37*
G36*
X145910442Y-142425518D02*
G01*
X145976627Y-142432037D01*
X146146466Y-142483557D01*
X146302991Y-142567222D01*
X146338729Y-142596552D01*
X146440186Y-142679814D01*
X146523448Y-142781271D01*
X146552778Y-142817009D01*
X146636443Y-142973534D01*
X146687963Y-143143373D01*
X146705359Y-143320000D01*
X146687963Y-143496627D01*
X146636443Y-143666466D01*
X146552778Y-143822991D01*
X146523448Y-143858729D01*
X146440186Y-143960186D01*
X146338729Y-144043448D01*
X146302991Y-144072778D01*
X146146466Y-144156443D01*
X145976627Y-144207963D01*
X145910442Y-144214482D01*
X145844260Y-144221000D01*
X145755740Y-144221000D01*
X145689558Y-144214482D01*
X145623373Y-144207963D01*
X145453534Y-144156443D01*
X145297009Y-144072778D01*
X145261271Y-144043448D01*
X145159814Y-143960186D01*
X145076552Y-143858729D01*
X145047222Y-143822991D01*
X144963557Y-143666466D01*
X144912037Y-143496627D01*
X144894641Y-143320000D01*
X144912037Y-143143373D01*
X144963557Y-142973534D01*
X145047222Y-142817009D01*
X145076552Y-142781271D01*
X145159814Y-142679814D01*
X145261271Y-142596552D01*
X145297009Y-142567222D01*
X145453534Y-142483557D01*
X145623373Y-142432037D01*
X145689558Y-142425518D01*
X145755740Y-142419000D01*
X145844260Y-142419000D01*
X145910442Y-142425518D01*
X145910442Y-142425518D01*
G37*
G36*
X148450442Y-142425518D02*
G01*
X148516627Y-142432037D01*
X148686466Y-142483557D01*
X148842991Y-142567222D01*
X148878729Y-142596552D01*
X148980186Y-142679814D01*
X149063448Y-142781271D01*
X149092778Y-142817009D01*
X149176443Y-142973534D01*
X149227963Y-143143373D01*
X149245359Y-143320000D01*
X149227963Y-143496627D01*
X149176443Y-143666466D01*
X149092778Y-143822991D01*
X149063448Y-143858729D01*
X148980186Y-143960186D01*
X148878729Y-144043448D01*
X148842991Y-144072778D01*
X148686466Y-144156443D01*
X148516627Y-144207963D01*
X148450442Y-144214482D01*
X148384260Y-144221000D01*
X148295740Y-144221000D01*
X148229558Y-144214482D01*
X148163373Y-144207963D01*
X147993534Y-144156443D01*
X147837009Y-144072778D01*
X147801271Y-144043448D01*
X147699814Y-143960186D01*
X147616552Y-143858729D01*
X147587222Y-143822991D01*
X147503557Y-143666466D01*
X147452037Y-143496627D01*
X147434641Y-143320000D01*
X147452037Y-143143373D01*
X147503557Y-142973534D01*
X147587222Y-142817009D01*
X147616552Y-142781271D01*
X147699814Y-142679814D01*
X147801271Y-142596552D01*
X147837009Y-142567222D01*
X147993534Y-142483557D01*
X148163373Y-142432037D01*
X148229558Y-142425518D01*
X148295740Y-142419000D01*
X148384260Y-142419000D01*
X148450442Y-142425518D01*
X148450442Y-142425518D01*
G37*
G36*
X105270442Y-139885518D02*
G01*
X105336627Y-139892037D01*
X105506466Y-139943557D01*
X105662991Y-140027222D01*
X105698729Y-140056552D01*
X105800186Y-140139814D01*
X105883448Y-140241271D01*
X105912778Y-140277009D01*
X105996443Y-140433534D01*
X106047963Y-140603373D01*
X106065359Y-140780000D01*
X106047963Y-140956627D01*
X105996443Y-141126466D01*
X105912778Y-141282991D01*
X105883448Y-141318729D01*
X105800186Y-141420186D01*
X105698729Y-141503448D01*
X105662991Y-141532778D01*
X105506466Y-141616443D01*
X105336627Y-141667963D01*
X105270442Y-141674482D01*
X105204260Y-141681000D01*
X105115740Y-141681000D01*
X105049558Y-141674482D01*
X104983373Y-141667963D01*
X104813534Y-141616443D01*
X104657009Y-141532778D01*
X104621271Y-141503448D01*
X104519814Y-141420186D01*
X104436552Y-141318729D01*
X104407222Y-141282991D01*
X104323557Y-141126466D01*
X104272037Y-140956627D01*
X104254641Y-140780000D01*
X104272037Y-140603373D01*
X104323557Y-140433534D01*
X104407222Y-140277009D01*
X104436552Y-140241271D01*
X104519814Y-140139814D01*
X104621271Y-140056552D01*
X104657009Y-140027222D01*
X104813534Y-139943557D01*
X104983373Y-139892037D01*
X105049558Y-139885518D01*
X105115740Y-139879000D01*
X105204260Y-139879000D01*
X105270442Y-139885518D01*
X105270442Y-139885518D01*
G37*
G36*
X102730442Y-139885518D02*
G01*
X102796627Y-139892037D01*
X102966466Y-139943557D01*
X103122991Y-140027222D01*
X103158729Y-140056552D01*
X103260186Y-140139814D01*
X103343448Y-140241271D01*
X103372778Y-140277009D01*
X103456443Y-140433534D01*
X103507963Y-140603373D01*
X103525359Y-140780000D01*
X103507963Y-140956627D01*
X103456443Y-141126466D01*
X103372778Y-141282991D01*
X103343448Y-141318729D01*
X103260186Y-141420186D01*
X103158729Y-141503448D01*
X103122991Y-141532778D01*
X102966466Y-141616443D01*
X102796627Y-141667963D01*
X102730442Y-141674482D01*
X102664260Y-141681000D01*
X102575740Y-141681000D01*
X102509558Y-141674482D01*
X102443373Y-141667963D01*
X102273534Y-141616443D01*
X102117009Y-141532778D01*
X102081271Y-141503448D01*
X101979814Y-141420186D01*
X101896552Y-141318729D01*
X101867222Y-141282991D01*
X101783557Y-141126466D01*
X101732037Y-140956627D01*
X101714641Y-140780000D01*
X101732037Y-140603373D01*
X101783557Y-140433534D01*
X101867222Y-140277009D01*
X101896552Y-140241271D01*
X101979814Y-140139814D01*
X102081271Y-140056552D01*
X102117009Y-140027222D01*
X102273534Y-139943557D01*
X102443373Y-139892037D01*
X102509558Y-139885518D01*
X102575740Y-139879000D01*
X102664260Y-139879000D01*
X102730442Y-139885518D01*
X102730442Y-139885518D01*
G37*
G36*
X148450442Y-139885518D02*
G01*
X148516627Y-139892037D01*
X148686466Y-139943557D01*
X148842991Y-140027222D01*
X148878729Y-140056552D01*
X148980186Y-140139814D01*
X149063448Y-140241271D01*
X149092778Y-140277009D01*
X149176443Y-140433534D01*
X149227963Y-140603373D01*
X149245359Y-140780000D01*
X149227963Y-140956627D01*
X149176443Y-141126466D01*
X149092778Y-141282991D01*
X149063448Y-141318729D01*
X148980186Y-141420186D01*
X148878729Y-141503448D01*
X148842991Y-141532778D01*
X148686466Y-141616443D01*
X148516627Y-141667963D01*
X148450442Y-141674482D01*
X148384260Y-141681000D01*
X148295740Y-141681000D01*
X148229558Y-141674482D01*
X148163373Y-141667963D01*
X147993534Y-141616443D01*
X147837009Y-141532778D01*
X147801271Y-141503448D01*
X147699814Y-141420186D01*
X147616552Y-141318729D01*
X147587222Y-141282991D01*
X147503557Y-141126466D01*
X147452037Y-140956627D01*
X147434641Y-140780000D01*
X147452037Y-140603373D01*
X147503557Y-140433534D01*
X147587222Y-140277009D01*
X147616552Y-140241271D01*
X147699814Y-140139814D01*
X147801271Y-140056552D01*
X147837009Y-140027222D01*
X147993534Y-139943557D01*
X148163373Y-139892037D01*
X148229558Y-139885518D01*
X148295740Y-139879000D01*
X148384260Y-139879000D01*
X148450442Y-139885518D01*
X148450442Y-139885518D01*
G37*
G36*
X145910442Y-139885518D02*
G01*
X145976627Y-139892037D01*
X146146466Y-139943557D01*
X146302991Y-140027222D01*
X146338729Y-140056552D01*
X146440186Y-140139814D01*
X146523448Y-140241271D01*
X146552778Y-140277009D01*
X146636443Y-140433534D01*
X146687963Y-140603373D01*
X146705359Y-140780000D01*
X146687963Y-140956627D01*
X146636443Y-141126466D01*
X146552778Y-141282991D01*
X146523448Y-141318729D01*
X146440186Y-141420186D01*
X146338729Y-141503448D01*
X146302991Y-141532778D01*
X146146466Y-141616443D01*
X145976627Y-141667963D01*
X145910442Y-141674482D01*
X145844260Y-141681000D01*
X145755740Y-141681000D01*
X145689558Y-141674482D01*
X145623373Y-141667963D01*
X145453534Y-141616443D01*
X145297009Y-141532778D01*
X145261271Y-141503448D01*
X145159814Y-141420186D01*
X145076552Y-141318729D01*
X145047222Y-141282991D01*
X144963557Y-141126466D01*
X144912037Y-140956627D01*
X144894641Y-140780000D01*
X144912037Y-140603373D01*
X144963557Y-140433534D01*
X145047222Y-140277009D01*
X145076552Y-140241271D01*
X145159814Y-140139814D01*
X145261271Y-140056552D01*
X145297009Y-140027222D01*
X145453534Y-139943557D01*
X145623373Y-139892037D01*
X145689558Y-139885518D01*
X145755740Y-139879000D01*
X145844260Y-139879000D01*
X145910442Y-139885518D01*
X145910442Y-139885518D01*
G37*
G36*
X145910443Y-137345519D02*
G01*
X145976627Y-137352037D01*
X146146466Y-137403557D01*
X146302991Y-137487222D01*
X146338729Y-137516552D01*
X146440186Y-137599814D01*
X146523448Y-137701271D01*
X146552778Y-137737009D01*
X146636443Y-137893534D01*
X146687963Y-138063373D01*
X146705359Y-138240000D01*
X146687963Y-138416627D01*
X146636443Y-138586466D01*
X146552778Y-138742991D01*
X146523448Y-138778729D01*
X146440186Y-138880186D01*
X146338729Y-138963448D01*
X146302991Y-138992778D01*
X146146466Y-139076443D01*
X145976627Y-139127963D01*
X145910443Y-139134481D01*
X145844260Y-139141000D01*
X145755740Y-139141000D01*
X145689557Y-139134481D01*
X145623373Y-139127963D01*
X145453534Y-139076443D01*
X145297009Y-138992778D01*
X145261271Y-138963448D01*
X145159814Y-138880186D01*
X145076552Y-138778729D01*
X145047222Y-138742991D01*
X144963557Y-138586466D01*
X144912037Y-138416627D01*
X144894641Y-138240000D01*
X144912037Y-138063373D01*
X144963557Y-137893534D01*
X145047222Y-137737009D01*
X145076552Y-137701271D01*
X145159814Y-137599814D01*
X145261271Y-137516552D01*
X145297009Y-137487222D01*
X145453534Y-137403557D01*
X145623373Y-137352037D01*
X145689557Y-137345519D01*
X145755740Y-137339000D01*
X145844260Y-137339000D01*
X145910443Y-137345519D01*
X145910443Y-137345519D01*
G37*
G36*
X148450443Y-137345519D02*
G01*
X148516627Y-137352037D01*
X148686466Y-137403557D01*
X148842991Y-137487222D01*
X148878729Y-137516552D01*
X148980186Y-137599814D01*
X149063448Y-137701271D01*
X149092778Y-137737009D01*
X149176443Y-137893534D01*
X149227963Y-138063373D01*
X149245359Y-138240000D01*
X149227963Y-138416627D01*
X149176443Y-138586466D01*
X149092778Y-138742991D01*
X149063448Y-138778729D01*
X148980186Y-138880186D01*
X148878729Y-138963448D01*
X148842991Y-138992778D01*
X148686466Y-139076443D01*
X148516627Y-139127963D01*
X148450443Y-139134481D01*
X148384260Y-139141000D01*
X148295740Y-139141000D01*
X148229557Y-139134481D01*
X148163373Y-139127963D01*
X147993534Y-139076443D01*
X147837009Y-138992778D01*
X147801271Y-138963448D01*
X147699814Y-138880186D01*
X147616552Y-138778729D01*
X147587222Y-138742991D01*
X147503557Y-138586466D01*
X147452037Y-138416627D01*
X147434641Y-138240000D01*
X147452037Y-138063373D01*
X147503557Y-137893534D01*
X147587222Y-137737009D01*
X147616552Y-137701271D01*
X147699814Y-137599814D01*
X147801271Y-137516552D01*
X147837009Y-137487222D01*
X147993534Y-137403557D01*
X148163373Y-137352037D01*
X148229557Y-137345519D01*
X148295740Y-137339000D01*
X148384260Y-137339000D01*
X148450443Y-137345519D01*
X148450443Y-137345519D01*
G37*
G36*
X105270443Y-137345519D02*
G01*
X105336627Y-137352037D01*
X105506466Y-137403557D01*
X105662991Y-137487222D01*
X105698729Y-137516552D01*
X105800186Y-137599814D01*
X105883448Y-137701271D01*
X105912778Y-137737009D01*
X105996443Y-137893534D01*
X106047963Y-138063373D01*
X106065359Y-138240000D01*
X106047963Y-138416627D01*
X105996443Y-138586466D01*
X105912778Y-138742991D01*
X105883448Y-138778729D01*
X105800186Y-138880186D01*
X105698729Y-138963448D01*
X105662991Y-138992778D01*
X105506466Y-139076443D01*
X105336627Y-139127963D01*
X105270443Y-139134481D01*
X105204260Y-139141000D01*
X105115740Y-139141000D01*
X105049557Y-139134481D01*
X104983373Y-139127963D01*
X104813534Y-139076443D01*
X104657009Y-138992778D01*
X104621271Y-138963448D01*
X104519814Y-138880186D01*
X104436552Y-138778729D01*
X104407222Y-138742991D01*
X104323557Y-138586466D01*
X104272037Y-138416627D01*
X104254641Y-138240000D01*
X104272037Y-138063373D01*
X104323557Y-137893534D01*
X104407222Y-137737009D01*
X104436552Y-137701271D01*
X104519814Y-137599814D01*
X104621271Y-137516552D01*
X104657009Y-137487222D01*
X104813534Y-137403557D01*
X104983373Y-137352037D01*
X105049557Y-137345519D01*
X105115740Y-137339000D01*
X105204260Y-137339000D01*
X105270443Y-137345519D01*
X105270443Y-137345519D01*
G37*
G36*
X102730443Y-137345519D02*
G01*
X102796627Y-137352037D01*
X102966466Y-137403557D01*
X103122991Y-137487222D01*
X103158729Y-137516552D01*
X103260186Y-137599814D01*
X103343448Y-137701271D01*
X103372778Y-137737009D01*
X103456443Y-137893534D01*
X103507963Y-138063373D01*
X103525359Y-138240000D01*
X103507963Y-138416627D01*
X103456443Y-138586466D01*
X103372778Y-138742991D01*
X103343448Y-138778729D01*
X103260186Y-138880186D01*
X103158729Y-138963448D01*
X103122991Y-138992778D01*
X102966466Y-139076443D01*
X102796627Y-139127963D01*
X102730443Y-139134481D01*
X102664260Y-139141000D01*
X102575740Y-139141000D01*
X102509557Y-139134481D01*
X102443373Y-139127963D01*
X102273534Y-139076443D01*
X102117009Y-138992778D01*
X102081271Y-138963448D01*
X101979814Y-138880186D01*
X101896552Y-138778729D01*
X101867222Y-138742991D01*
X101783557Y-138586466D01*
X101732037Y-138416627D01*
X101714641Y-138240000D01*
X101732037Y-138063373D01*
X101783557Y-137893534D01*
X101867222Y-137737009D01*
X101896552Y-137701271D01*
X101979814Y-137599814D01*
X102081271Y-137516552D01*
X102117009Y-137487222D01*
X102273534Y-137403557D01*
X102443373Y-137352037D01*
X102509557Y-137345519D01*
X102575740Y-137339000D01*
X102664260Y-137339000D01*
X102730443Y-137345519D01*
X102730443Y-137345519D01*
G37*
G36*
X102730442Y-134805518D02*
G01*
X102796627Y-134812037D01*
X102966466Y-134863557D01*
X103122991Y-134947222D01*
X103158729Y-134976552D01*
X103260186Y-135059814D01*
X103343448Y-135161271D01*
X103372778Y-135197009D01*
X103456443Y-135353534D01*
X103507963Y-135523373D01*
X103525359Y-135700000D01*
X103507963Y-135876627D01*
X103456443Y-136046466D01*
X103372778Y-136202991D01*
X103343448Y-136238729D01*
X103260186Y-136340186D01*
X103158729Y-136423448D01*
X103122991Y-136452778D01*
X102966466Y-136536443D01*
X102796627Y-136587963D01*
X102730442Y-136594482D01*
X102664260Y-136601000D01*
X102575740Y-136601000D01*
X102509558Y-136594482D01*
X102443373Y-136587963D01*
X102273534Y-136536443D01*
X102117009Y-136452778D01*
X102081271Y-136423448D01*
X101979814Y-136340186D01*
X101896552Y-136238729D01*
X101867222Y-136202991D01*
X101783557Y-136046466D01*
X101732037Y-135876627D01*
X101714641Y-135700000D01*
X101732037Y-135523373D01*
X101783557Y-135353534D01*
X101867222Y-135197009D01*
X101896552Y-135161271D01*
X101979814Y-135059814D01*
X102081271Y-134976552D01*
X102117009Y-134947222D01*
X102273534Y-134863557D01*
X102443373Y-134812037D01*
X102509558Y-134805518D01*
X102575740Y-134799000D01*
X102664260Y-134799000D01*
X102730442Y-134805518D01*
X102730442Y-134805518D01*
G37*
G36*
X105270442Y-134805518D02*
G01*
X105336627Y-134812037D01*
X105506466Y-134863557D01*
X105662991Y-134947222D01*
X105698729Y-134976552D01*
X105800186Y-135059814D01*
X105883448Y-135161271D01*
X105912778Y-135197009D01*
X105996443Y-135353534D01*
X106047963Y-135523373D01*
X106065359Y-135700000D01*
X106047963Y-135876627D01*
X105996443Y-136046466D01*
X105912778Y-136202991D01*
X105883448Y-136238729D01*
X105800186Y-136340186D01*
X105698729Y-136423448D01*
X105662991Y-136452778D01*
X105506466Y-136536443D01*
X105336627Y-136587963D01*
X105270442Y-136594482D01*
X105204260Y-136601000D01*
X105115740Y-136601000D01*
X105049558Y-136594482D01*
X104983373Y-136587963D01*
X104813534Y-136536443D01*
X104657009Y-136452778D01*
X104621271Y-136423448D01*
X104519814Y-136340186D01*
X104436552Y-136238729D01*
X104407222Y-136202991D01*
X104323557Y-136046466D01*
X104272037Y-135876627D01*
X104254641Y-135700000D01*
X104272037Y-135523373D01*
X104323557Y-135353534D01*
X104407222Y-135197009D01*
X104436552Y-135161271D01*
X104519814Y-135059814D01*
X104621271Y-134976552D01*
X104657009Y-134947222D01*
X104813534Y-134863557D01*
X104983373Y-134812037D01*
X105049558Y-134805518D01*
X105115740Y-134799000D01*
X105204260Y-134799000D01*
X105270442Y-134805518D01*
X105270442Y-134805518D01*
G37*
G36*
X145910442Y-134805518D02*
G01*
X145976627Y-134812037D01*
X146146466Y-134863557D01*
X146302991Y-134947222D01*
X146338729Y-134976552D01*
X146440186Y-135059814D01*
X146523448Y-135161271D01*
X146552778Y-135197009D01*
X146636443Y-135353534D01*
X146687963Y-135523373D01*
X146705359Y-135700000D01*
X146687963Y-135876627D01*
X146636443Y-136046466D01*
X146552778Y-136202991D01*
X146523448Y-136238729D01*
X146440186Y-136340186D01*
X146338729Y-136423448D01*
X146302991Y-136452778D01*
X146146466Y-136536443D01*
X145976627Y-136587963D01*
X145910442Y-136594482D01*
X145844260Y-136601000D01*
X145755740Y-136601000D01*
X145689558Y-136594482D01*
X145623373Y-136587963D01*
X145453534Y-136536443D01*
X145297009Y-136452778D01*
X145261271Y-136423448D01*
X145159814Y-136340186D01*
X145076552Y-136238729D01*
X145047222Y-136202991D01*
X144963557Y-136046466D01*
X144912037Y-135876627D01*
X144894641Y-135700000D01*
X144912037Y-135523373D01*
X144963557Y-135353534D01*
X145047222Y-135197009D01*
X145076552Y-135161271D01*
X145159814Y-135059814D01*
X145261271Y-134976552D01*
X145297009Y-134947222D01*
X145453534Y-134863557D01*
X145623373Y-134812037D01*
X145689558Y-134805518D01*
X145755740Y-134799000D01*
X145844260Y-134799000D01*
X145910442Y-134805518D01*
X145910442Y-134805518D01*
G37*
G36*
X148450442Y-134805518D02*
G01*
X148516627Y-134812037D01*
X148686466Y-134863557D01*
X148842991Y-134947222D01*
X148878729Y-134976552D01*
X148980186Y-135059814D01*
X149063448Y-135161271D01*
X149092778Y-135197009D01*
X149176443Y-135353534D01*
X149227963Y-135523373D01*
X149245359Y-135700000D01*
X149227963Y-135876627D01*
X149176443Y-136046466D01*
X149092778Y-136202991D01*
X149063448Y-136238729D01*
X148980186Y-136340186D01*
X148878729Y-136423448D01*
X148842991Y-136452778D01*
X148686466Y-136536443D01*
X148516627Y-136587963D01*
X148450442Y-136594482D01*
X148384260Y-136601000D01*
X148295740Y-136601000D01*
X148229558Y-136594482D01*
X148163373Y-136587963D01*
X147993534Y-136536443D01*
X147837009Y-136452778D01*
X147801271Y-136423448D01*
X147699814Y-136340186D01*
X147616552Y-136238729D01*
X147587222Y-136202991D01*
X147503557Y-136046466D01*
X147452037Y-135876627D01*
X147434641Y-135700000D01*
X147452037Y-135523373D01*
X147503557Y-135353534D01*
X147587222Y-135197009D01*
X147616552Y-135161271D01*
X147699814Y-135059814D01*
X147801271Y-134976552D01*
X147837009Y-134947222D01*
X147993534Y-134863557D01*
X148163373Y-134812037D01*
X148229558Y-134805518D01*
X148295740Y-134799000D01*
X148384260Y-134799000D01*
X148450442Y-134805518D01*
X148450442Y-134805518D01*
G37*
G36*
X105270442Y-132265518D02*
G01*
X105336627Y-132272037D01*
X105506466Y-132323557D01*
X105662991Y-132407222D01*
X105698729Y-132436552D01*
X105800186Y-132519814D01*
X105883448Y-132621271D01*
X105912778Y-132657009D01*
X105996443Y-132813534D01*
X106047963Y-132983373D01*
X106065359Y-133160000D01*
X106047963Y-133336627D01*
X105996443Y-133506466D01*
X105912778Y-133662991D01*
X105883448Y-133698729D01*
X105800186Y-133800186D01*
X105698729Y-133883448D01*
X105662991Y-133912778D01*
X105506466Y-133996443D01*
X105336627Y-134047963D01*
X105270442Y-134054482D01*
X105204260Y-134061000D01*
X105115740Y-134061000D01*
X105049558Y-134054482D01*
X104983373Y-134047963D01*
X104813534Y-133996443D01*
X104657009Y-133912778D01*
X104621271Y-133883448D01*
X104519814Y-133800186D01*
X104436552Y-133698729D01*
X104407222Y-133662991D01*
X104323557Y-133506466D01*
X104272037Y-133336627D01*
X104254641Y-133160000D01*
X104272037Y-132983373D01*
X104323557Y-132813534D01*
X104407222Y-132657009D01*
X104436552Y-132621271D01*
X104519814Y-132519814D01*
X104621271Y-132436552D01*
X104657009Y-132407222D01*
X104813534Y-132323557D01*
X104983373Y-132272037D01*
X105049558Y-132265518D01*
X105115740Y-132259000D01*
X105204260Y-132259000D01*
X105270442Y-132265518D01*
X105270442Y-132265518D01*
G37*
G36*
X102730442Y-132265518D02*
G01*
X102796627Y-132272037D01*
X102966466Y-132323557D01*
X103122991Y-132407222D01*
X103158729Y-132436552D01*
X103260186Y-132519814D01*
X103343448Y-132621271D01*
X103372778Y-132657009D01*
X103456443Y-132813534D01*
X103507963Y-132983373D01*
X103525359Y-133160000D01*
X103507963Y-133336627D01*
X103456443Y-133506466D01*
X103372778Y-133662991D01*
X103343448Y-133698729D01*
X103260186Y-133800186D01*
X103158729Y-133883448D01*
X103122991Y-133912778D01*
X102966466Y-133996443D01*
X102796627Y-134047963D01*
X102730442Y-134054482D01*
X102664260Y-134061000D01*
X102575740Y-134061000D01*
X102509558Y-134054482D01*
X102443373Y-134047963D01*
X102273534Y-133996443D01*
X102117009Y-133912778D01*
X102081271Y-133883448D01*
X101979814Y-133800186D01*
X101896552Y-133698729D01*
X101867222Y-133662991D01*
X101783557Y-133506466D01*
X101732037Y-133336627D01*
X101714641Y-133160000D01*
X101732037Y-132983373D01*
X101783557Y-132813534D01*
X101867222Y-132657009D01*
X101896552Y-132621271D01*
X101979814Y-132519814D01*
X102081271Y-132436552D01*
X102117009Y-132407222D01*
X102273534Y-132323557D01*
X102443373Y-132272037D01*
X102509558Y-132265518D01*
X102575740Y-132259000D01*
X102664260Y-132259000D01*
X102730442Y-132265518D01*
X102730442Y-132265518D01*
G37*
G36*
X148450442Y-132265518D02*
G01*
X148516627Y-132272037D01*
X148686466Y-132323557D01*
X148842991Y-132407222D01*
X148878729Y-132436552D01*
X148980186Y-132519814D01*
X149063448Y-132621271D01*
X149092778Y-132657009D01*
X149176443Y-132813534D01*
X149227963Y-132983373D01*
X149245359Y-133160000D01*
X149227963Y-133336627D01*
X149176443Y-133506466D01*
X149092778Y-133662991D01*
X149063448Y-133698729D01*
X148980186Y-133800186D01*
X148878729Y-133883448D01*
X148842991Y-133912778D01*
X148686466Y-133996443D01*
X148516627Y-134047963D01*
X148450442Y-134054482D01*
X148384260Y-134061000D01*
X148295740Y-134061000D01*
X148229558Y-134054482D01*
X148163373Y-134047963D01*
X147993534Y-133996443D01*
X147837009Y-133912778D01*
X147801271Y-133883448D01*
X147699814Y-133800186D01*
X147616552Y-133698729D01*
X147587222Y-133662991D01*
X147503557Y-133506466D01*
X147452037Y-133336627D01*
X147434641Y-133160000D01*
X147452037Y-132983373D01*
X147503557Y-132813534D01*
X147587222Y-132657009D01*
X147616552Y-132621271D01*
X147699814Y-132519814D01*
X147801271Y-132436552D01*
X147837009Y-132407222D01*
X147993534Y-132323557D01*
X148163373Y-132272037D01*
X148229558Y-132265518D01*
X148295740Y-132259000D01*
X148384260Y-132259000D01*
X148450442Y-132265518D01*
X148450442Y-132265518D01*
G37*
G36*
X145910442Y-132265518D02*
G01*
X145976627Y-132272037D01*
X146146466Y-132323557D01*
X146302991Y-132407222D01*
X146338729Y-132436552D01*
X146440186Y-132519814D01*
X146523448Y-132621271D01*
X146552778Y-132657009D01*
X146636443Y-132813534D01*
X146687963Y-132983373D01*
X146705359Y-133160000D01*
X146687963Y-133336627D01*
X146636443Y-133506466D01*
X146552778Y-133662991D01*
X146523448Y-133698729D01*
X146440186Y-133800186D01*
X146338729Y-133883448D01*
X146302991Y-133912778D01*
X146146466Y-133996443D01*
X145976627Y-134047963D01*
X145910442Y-134054482D01*
X145844260Y-134061000D01*
X145755740Y-134061000D01*
X145689558Y-134054482D01*
X145623373Y-134047963D01*
X145453534Y-133996443D01*
X145297009Y-133912778D01*
X145261271Y-133883448D01*
X145159814Y-133800186D01*
X145076552Y-133698729D01*
X145047222Y-133662991D01*
X144963557Y-133506466D01*
X144912037Y-133336627D01*
X144894641Y-133160000D01*
X144912037Y-132983373D01*
X144963557Y-132813534D01*
X145047222Y-132657009D01*
X145076552Y-132621271D01*
X145159814Y-132519814D01*
X145261271Y-132436552D01*
X145297009Y-132407222D01*
X145453534Y-132323557D01*
X145623373Y-132272037D01*
X145689558Y-132265518D01*
X145755740Y-132259000D01*
X145844260Y-132259000D01*
X145910442Y-132265518D01*
X145910442Y-132265518D01*
G37*
G36*
X145910443Y-129725519D02*
G01*
X145976627Y-129732037D01*
X146146466Y-129783557D01*
X146302991Y-129867222D01*
X146338729Y-129896552D01*
X146440186Y-129979814D01*
X146523448Y-130081271D01*
X146552778Y-130117009D01*
X146636443Y-130273534D01*
X146687963Y-130443373D01*
X146705359Y-130620000D01*
X146687963Y-130796627D01*
X146636443Y-130966466D01*
X146552778Y-131122991D01*
X146523448Y-131158729D01*
X146440186Y-131260186D01*
X146338729Y-131343448D01*
X146302991Y-131372778D01*
X146146466Y-131456443D01*
X145976627Y-131507963D01*
X145910442Y-131514482D01*
X145844260Y-131521000D01*
X145755740Y-131521000D01*
X145689558Y-131514482D01*
X145623373Y-131507963D01*
X145453534Y-131456443D01*
X145297009Y-131372778D01*
X145261271Y-131343448D01*
X145159814Y-131260186D01*
X145076552Y-131158729D01*
X145047222Y-131122991D01*
X144963557Y-130966466D01*
X144912037Y-130796627D01*
X144894641Y-130620000D01*
X144912037Y-130443373D01*
X144963557Y-130273534D01*
X145047222Y-130117009D01*
X145076552Y-130081271D01*
X145159814Y-129979814D01*
X145261271Y-129896552D01*
X145297009Y-129867222D01*
X145453534Y-129783557D01*
X145623373Y-129732037D01*
X145689557Y-129725519D01*
X145755740Y-129719000D01*
X145844260Y-129719000D01*
X145910443Y-129725519D01*
X145910443Y-129725519D01*
G37*
G36*
X102730443Y-129725519D02*
G01*
X102796627Y-129732037D01*
X102966466Y-129783557D01*
X103122991Y-129867222D01*
X103158729Y-129896552D01*
X103260186Y-129979814D01*
X103343448Y-130081271D01*
X103372778Y-130117009D01*
X103456443Y-130273534D01*
X103507963Y-130443373D01*
X103525359Y-130620000D01*
X103507963Y-130796627D01*
X103456443Y-130966466D01*
X103372778Y-131122991D01*
X103343448Y-131158729D01*
X103260186Y-131260186D01*
X103158729Y-131343448D01*
X103122991Y-131372778D01*
X102966466Y-131456443D01*
X102796627Y-131507963D01*
X102730442Y-131514482D01*
X102664260Y-131521000D01*
X102575740Y-131521000D01*
X102509558Y-131514482D01*
X102443373Y-131507963D01*
X102273534Y-131456443D01*
X102117009Y-131372778D01*
X102081271Y-131343448D01*
X101979814Y-131260186D01*
X101896552Y-131158729D01*
X101867222Y-131122991D01*
X101783557Y-130966466D01*
X101732037Y-130796627D01*
X101714641Y-130620000D01*
X101732037Y-130443373D01*
X101783557Y-130273534D01*
X101867222Y-130117009D01*
X101896552Y-130081271D01*
X101979814Y-129979814D01*
X102081271Y-129896552D01*
X102117009Y-129867222D01*
X102273534Y-129783557D01*
X102443373Y-129732037D01*
X102509557Y-129725519D01*
X102575740Y-129719000D01*
X102664260Y-129719000D01*
X102730443Y-129725519D01*
X102730443Y-129725519D01*
G37*
G36*
X105270443Y-129725519D02*
G01*
X105336627Y-129732037D01*
X105506466Y-129783557D01*
X105662991Y-129867222D01*
X105698729Y-129896552D01*
X105800186Y-129979814D01*
X105883448Y-130081271D01*
X105912778Y-130117009D01*
X105996443Y-130273534D01*
X106047963Y-130443373D01*
X106065359Y-130620000D01*
X106047963Y-130796627D01*
X105996443Y-130966466D01*
X105912778Y-131122991D01*
X105883448Y-131158729D01*
X105800186Y-131260186D01*
X105698729Y-131343448D01*
X105662991Y-131372778D01*
X105506466Y-131456443D01*
X105336627Y-131507963D01*
X105270442Y-131514482D01*
X105204260Y-131521000D01*
X105115740Y-131521000D01*
X105049558Y-131514482D01*
X104983373Y-131507963D01*
X104813534Y-131456443D01*
X104657009Y-131372778D01*
X104621271Y-131343448D01*
X104519814Y-131260186D01*
X104436552Y-131158729D01*
X104407222Y-131122991D01*
X104323557Y-130966466D01*
X104272037Y-130796627D01*
X104254641Y-130620000D01*
X104272037Y-130443373D01*
X104323557Y-130273534D01*
X104407222Y-130117009D01*
X104436552Y-130081271D01*
X104519814Y-129979814D01*
X104621271Y-129896552D01*
X104657009Y-129867222D01*
X104813534Y-129783557D01*
X104983373Y-129732037D01*
X105049557Y-129725519D01*
X105115740Y-129719000D01*
X105204260Y-129719000D01*
X105270443Y-129725519D01*
X105270443Y-129725519D01*
G37*
G36*
X148450443Y-129725519D02*
G01*
X148516627Y-129732037D01*
X148686466Y-129783557D01*
X148842991Y-129867222D01*
X148878729Y-129896552D01*
X148980186Y-129979814D01*
X149063448Y-130081271D01*
X149092778Y-130117009D01*
X149176443Y-130273534D01*
X149227963Y-130443373D01*
X149245359Y-130620000D01*
X149227963Y-130796627D01*
X149176443Y-130966466D01*
X149092778Y-131122991D01*
X149063448Y-131158729D01*
X148980186Y-131260186D01*
X148878729Y-131343448D01*
X148842991Y-131372778D01*
X148686466Y-131456443D01*
X148516627Y-131507963D01*
X148450442Y-131514482D01*
X148384260Y-131521000D01*
X148295740Y-131521000D01*
X148229558Y-131514482D01*
X148163373Y-131507963D01*
X147993534Y-131456443D01*
X147837009Y-131372778D01*
X147801271Y-131343448D01*
X147699814Y-131260186D01*
X147616552Y-131158729D01*
X147587222Y-131122991D01*
X147503557Y-130966466D01*
X147452037Y-130796627D01*
X147434641Y-130620000D01*
X147452037Y-130443373D01*
X147503557Y-130273534D01*
X147587222Y-130117009D01*
X147616552Y-130081271D01*
X147699814Y-129979814D01*
X147801271Y-129896552D01*
X147837009Y-129867222D01*
X147993534Y-129783557D01*
X148163373Y-129732037D01*
X148229557Y-129725519D01*
X148295740Y-129719000D01*
X148384260Y-129719000D01*
X148450443Y-129725519D01*
X148450443Y-129725519D01*
G37*
G36*
X123512797Y-129110567D02*
G01*
X123567575Y-129133257D01*
X123567577Y-129133258D01*
X123616876Y-129166198D01*
X123658802Y-129208124D01*
X123691742Y-129257423D01*
X123691743Y-129257425D01*
X123714433Y-129312203D01*
X123726000Y-129370353D01*
X123726000Y-129429647D01*
X123714433Y-129487797D01*
X123691743Y-129542575D01*
X123691742Y-129542577D01*
X123658802Y-129591876D01*
X123616876Y-129633802D01*
X123567577Y-129666742D01*
X123567576Y-129666743D01*
X123567575Y-129666743D01*
X123512797Y-129689433D01*
X123454647Y-129701000D01*
X123395353Y-129701000D01*
X123337203Y-129689433D01*
X123282425Y-129666743D01*
X123282424Y-129666743D01*
X123282423Y-129666742D01*
X123233124Y-129633802D01*
X123191198Y-129591876D01*
X123158258Y-129542577D01*
X123158257Y-129542575D01*
X123135567Y-129487797D01*
X123124000Y-129429647D01*
X123124000Y-129370353D01*
X123135567Y-129312203D01*
X123158257Y-129257425D01*
X123158258Y-129257423D01*
X123191198Y-129208124D01*
X123233124Y-129166198D01*
X123282423Y-129133258D01*
X123282425Y-129133257D01*
X123337203Y-129110567D01*
X123395353Y-129099000D01*
X123454647Y-129099000D01*
X123512797Y-129110567D01*
X123512797Y-129110567D01*
G37*
G36*
X125512797Y-129110567D02*
G01*
X125567575Y-129133257D01*
X125567577Y-129133258D01*
X125616876Y-129166198D01*
X125658802Y-129208124D01*
X125691742Y-129257423D01*
X125691743Y-129257425D01*
X125714433Y-129312203D01*
X125726000Y-129370353D01*
X125726000Y-129429647D01*
X125714433Y-129487797D01*
X125691743Y-129542575D01*
X125691742Y-129542577D01*
X125658802Y-129591876D01*
X125616876Y-129633802D01*
X125567577Y-129666742D01*
X125567576Y-129666743D01*
X125567575Y-129666743D01*
X125512797Y-129689433D01*
X125454647Y-129701000D01*
X125395353Y-129701000D01*
X125337203Y-129689433D01*
X125282425Y-129666743D01*
X125282424Y-129666743D01*
X125282423Y-129666742D01*
X125233124Y-129633802D01*
X125191198Y-129591876D01*
X125158258Y-129542577D01*
X125158257Y-129542575D01*
X125135567Y-129487797D01*
X125124000Y-129429647D01*
X125124000Y-129370353D01*
X125135567Y-129312203D01*
X125158257Y-129257425D01*
X125158258Y-129257423D01*
X125191198Y-129208124D01*
X125233124Y-129166198D01*
X125282423Y-129133258D01*
X125282425Y-129133257D01*
X125337203Y-129110567D01*
X125395353Y-129099000D01*
X125454647Y-129099000D01*
X125512797Y-129110567D01*
X125512797Y-129110567D01*
G37*
G36*
X126512797Y-129110567D02*
G01*
X126567575Y-129133257D01*
X126567577Y-129133258D01*
X126616876Y-129166198D01*
X126658802Y-129208124D01*
X126691742Y-129257423D01*
X126691743Y-129257425D01*
X126714433Y-129312203D01*
X126726000Y-129370353D01*
X126726000Y-129429647D01*
X126714433Y-129487797D01*
X126691743Y-129542575D01*
X126691742Y-129542577D01*
X126658802Y-129591876D01*
X126616876Y-129633802D01*
X126567577Y-129666742D01*
X126567576Y-129666743D01*
X126567575Y-129666743D01*
X126512797Y-129689433D01*
X126454647Y-129701000D01*
X126395353Y-129701000D01*
X126337203Y-129689433D01*
X126282425Y-129666743D01*
X126282424Y-129666743D01*
X126282423Y-129666742D01*
X126233124Y-129633802D01*
X126191198Y-129591876D01*
X126158258Y-129542577D01*
X126158257Y-129542575D01*
X126135567Y-129487797D01*
X126124000Y-129429647D01*
X126124000Y-129370353D01*
X126135567Y-129312203D01*
X126158257Y-129257425D01*
X126158258Y-129257423D01*
X126191198Y-129208124D01*
X126233124Y-129166198D01*
X126282423Y-129133258D01*
X126282425Y-129133257D01*
X126337203Y-129110567D01*
X126395353Y-129099000D01*
X126454647Y-129099000D01*
X126512797Y-129110567D01*
X126512797Y-129110567D01*
G37*
G36*
X127512797Y-129110567D02*
G01*
X127567575Y-129133257D01*
X127567577Y-129133258D01*
X127616876Y-129166198D01*
X127658802Y-129208124D01*
X127691742Y-129257423D01*
X127691743Y-129257425D01*
X127714433Y-129312203D01*
X127726000Y-129370353D01*
X127726000Y-129429647D01*
X127714433Y-129487797D01*
X127691743Y-129542575D01*
X127691742Y-129542577D01*
X127658802Y-129591876D01*
X127616876Y-129633802D01*
X127567577Y-129666742D01*
X127567576Y-129666743D01*
X127567575Y-129666743D01*
X127512797Y-129689433D01*
X127454647Y-129701000D01*
X127395353Y-129701000D01*
X127337203Y-129689433D01*
X127282425Y-129666743D01*
X127282424Y-129666743D01*
X127282423Y-129666742D01*
X127233124Y-129633802D01*
X127191198Y-129591876D01*
X127158258Y-129542577D01*
X127158257Y-129542575D01*
X127135567Y-129487797D01*
X127124000Y-129429647D01*
X127124000Y-129370353D01*
X127135567Y-129312203D01*
X127158257Y-129257425D01*
X127158258Y-129257423D01*
X127191198Y-129208124D01*
X127233124Y-129166198D01*
X127282423Y-129133258D01*
X127282425Y-129133257D01*
X127337203Y-129110567D01*
X127395353Y-129099000D01*
X127454647Y-129099000D01*
X127512797Y-129110567D01*
X127512797Y-129110567D01*
G37*
G36*
X124512797Y-129110567D02*
G01*
X124567575Y-129133257D01*
X124567577Y-129133258D01*
X124616876Y-129166198D01*
X124658802Y-129208124D01*
X124691742Y-129257423D01*
X124691743Y-129257425D01*
X124714433Y-129312203D01*
X124726000Y-129370353D01*
X124726000Y-129429647D01*
X124714433Y-129487797D01*
X124691743Y-129542575D01*
X124691742Y-129542577D01*
X124658802Y-129591876D01*
X124616876Y-129633802D01*
X124567577Y-129666742D01*
X124567576Y-129666743D01*
X124567575Y-129666743D01*
X124512797Y-129689433D01*
X124454647Y-129701000D01*
X124395353Y-129701000D01*
X124337203Y-129689433D01*
X124282425Y-129666743D01*
X124282424Y-129666743D01*
X124282423Y-129666742D01*
X124233124Y-129633802D01*
X124191198Y-129591876D01*
X124158258Y-129542577D01*
X124158257Y-129542575D01*
X124135567Y-129487797D01*
X124124000Y-129429647D01*
X124124000Y-129370353D01*
X124135567Y-129312203D01*
X124158257Y-129257425D01*
X124158258Y-129257423D01*
X124191198Y-129208124D01*
X124233124Y-129166198D01*
X124282423Y-129133258D01*
X124282425Y-129133257D01*
X124337203Y-129110567D01*
X124395353Y-129099000D01*
X124454647Y-129099000D01*
X124512797Y-129110567D01*
X124512797Y-129110567D01*
G37*
G36*
X119276000Y-129626000D02*
G01*
X118374000Y-129626000D01*
X118374000Y-128774000D01*
X119276000Y-128774000D01*
X119276000Y-129626000D01*
X119276000Y-129626000D01*
G37*
G36*
X117776000Y-129626000D02*
G01*
X116874000Y-129626000D01*
X116874000Y-128774000D01*
X117776000Y-128774000D01*
X117776000Y-129626000D01*
X117776000Y-129626000D01*
G37*
G36*
X105270443Y-127185519D02*
G01*
X105336627Y-127192037D01*
X105506466Y-127243557D01*
X105662991Y-127327222D01*
X105698729Y-127356552D01*
X105800186Y-127439814D01*
X105883448Y-127541271D01*
X105912778Y-127577009D01*
X105996443Y-127733534D01*
X106047963Y-127903373D01*
X106065359Y-128080000D01*
X106047963Y-128256627D01*
X105996443Y-128426466D01*
X105912778Y-128582991D01*
X105905487Y-128591875D01*
X105800186Y-128720186D01*
X105734612Y-128774000D01*
X105662991Y-128832778D01*
X105506466Y-128916443D01*
X105336627Y-128967963D01*
X105270443Y-128974481D01*
X105204260Y-128981000D01*
X105115740Y-128981000D01*
X105049557Y-128974481D01*
X104983373Y-128967963D01*
X104813534Y-128916443D01*
X104657009Y-128832778D01*
X104585388Y-128774000D01*
X104519814Y-128720186D01*
X104414513Y-128591875D01*
X104407222Y-128582991D01*
X104323557Y-128426466D01*
X104272037Y-128256627D01*
X104254641Y-128080000D01*
X104272037Y-127903373D01*
X104323557Y-127733534D01*
X104407222Y-127577009D01*
X104436552Y-127541271D01*
X104519814Y-127439814D01*
X104621271Y-127356552D01*
X104657009Y-127327222D01*
X104813534Y-127243557D01*
X104983373Y-127192037D01*
X105049557Y-127185519D01*
X105115740Y-127179000D01*
X105204260Y-127179000D01*
X105270443Y-127185519D01*
X105270443Y-127185519D01*
G37*
G36*
X102730443Y-127185519D02*
G01*
X102796627Y-127192037D01*
X102966466Y-127243557D01*
X103122991Y-127327222D01*
X103158729Y-127356552D01*
X103260186Y-127439814D01*
X103343448Y-127541271D01*
X103372778Y-127577009D01*
X103456443Y-127733534D01*
X103507963Y-127903373D01*
X103525359Y-128080000D01*
X103507963Y-128256627D01*
X103456443Y-128426466D01*
X103372778Y-128582991D01*
X103365487Y-128591875D01*
X103260186Y-128720186D01*
X103194612Y-128774000D01*
X103122991Y-128832778D01*
X102966466Y-128916443D01*
X102796627Y-128967963D01*
X102730443Y-128974481D01*
X102664260Y-128981000D01*
X102575740Y-128981000D01*
X102509557Y-128974481D01*
X102443373Y-128967963D01*
X102273534Y-128916443D01*
X102117009Y-128832778D01*
X102045388Y-128774000D01*
X101979814Y-128720186D01*
X101874513Y-128591875D01*
X101867222Y-128582991D01*
X101783557Y-128426466D01*
X101732037Y-128256627D01*
X101714641Y-128080000D01*
X101732037Y-127903373D01*
X101783557Y-127733534D01*
X101867222Y-127577009D01*
X101896552Y-127541271D01*
X101979814Y-127439814D01*
X102081271Y-127356552D01*
X102117009Y-127327222D01*
X102273534Y-127243557D01*
X102443373Y-127192037D01*
X102509557Y-127185519D01*
X102575740Y-127179000D01*
X102664260Y-127179000D01*
X102730443Y-127185519D01*
X102730443Y-127185519D01*
G37*
G36*
X148450443Y-127185519D02*
G01*
X148516627Y-127192037D01*
X148686466Y-127243557D01*
X148842991Y-127327222D01*
X148878729Y-127356552D01*
X148980186Y-127439814D01*
X149063448Y-127541271D01*
X149092778Y-127577009D01*
X149176443Y-127733534D01*
X149227963Y-127903373D01*
X149245359Y-128080000D01*
X149227963Y-128256627D01*
X149176443Y-128426466D01*
X149092778Y-128582991D01*
X149085487Y-128591875D01*
X148980186Y-128720186D01*
X148914612Y-128774000D01*
X148842991Y-128832778D01*
X148686466Y-128916443D01*
X148516627Y-128967963D01*
X148450443Y-128974481D01*
X148384260Y-128981000D01*
X148295740Y-128981000D01*
X148229557Y-128974481D01*
X148163373Y-128967963D01*
X147993534Y-128916443D01*
X147837009Y-128832778D01*
X147765388Y-128774000D01*
X147699814Y-128720186D01*
X147594513Y-128591875D01*
X147587222Y-128582991D01*
X147503557Y-128426466D01*
X147452037Y-128256627D01*
X147434641Y-128080000D01*
X147452037Y-127903373D01*
X147503557Y-127733534D01*
X147587222Y-127577009D01*
X147616552Y-127541271D01*
X147699814Y-127439814D01*
X147801271Y-127356552D01*
X147837009Y-127327222D01*
X147993534Y-127243557D01*
X148163373Y-127192037D01*
X148229557Y-127185519D01*
X148295740Y-127179000D01*
X148384260Y-127179000D01*
X148450443Y-127185519D01*
X148450443Y-127185519D01*
G37*
G36*
X145910443Y-127185519D02*
G01*
X145976627Y-127192037D01*
X146146466Y-127243557D01*
X146302991Y-127327222D01*
X146338729Y-127356552D01*
X146440186Y-127439814D01*
X146523448Y-127541271D01*
X146552778Y-127577009D01*
X146636443Y-127733534D01*
X146687963Y-127903373D01*
X146705359Y-128080000D01*
X146687963Y-128256627D01*
X146636443Y-128426466D01*
X146552778Y-128582991D01*
X146545487Y-128591875D01*
X146440186Y-128720186D01*
X146374612Y-128774000D01*
X146302991Y-128832778D01*
X146146466Y-128916443D01*
X145976627Y-128967963D01*
X145910443Y-128974481D01*
X145844260Y-128981000D01*
X145755740Y-128981000D01*
X145689557Y-128974481D01*
X145623373Y-128967963D01*
X145453534Y-128916443D01*
X145297009Y-128832778D01*
X145225388Y-128774000D01*
X145159814Y-128720186D01*
X145054513Y-128591875D01*
X145047222Y-128582991D01*
X144963557Y-128426466D01*
X144912037Y-128256627D01*
X144894641Y-128080000D01*
X144912037Y-127903373D01*
X144963557Y-127733534D01*
X145047222Y-127577009D01*
X145076552Y-127541271D01*
X145159814Y-127439814D01*
X145261271Y-127356552D01*
X145297009Y-127327222D01*
X145453534Y-127243557D01*
X145623373Y-127192037D01*
X145689557Y-127185519D01*
X145755740Y-127179000D01*
X145844260Y-127179000D01*
X145910443Y-127185519D01*
X145910443Y-127185519D01*
G37*
G36*
X127512797Y-128110567D02*
G01*
X127567575Y-128133257D01*
X127567577Y-128133258D01*
X127616876Y-128166198D01*
X127658802Y-128208124D01*
X127691210Y-128256627D01*
X127691743Y-128257425D01*
X127714433Y-128312203D01*
X127726000Y-128370353D01*
X127726000Y-128429647D01*
X127714433Y-128487797D01*
X127691743Y-128542575D01*
X127691742Y-128542577D01*
X127658802Y-128591876D01*
X127616876Y-128633802D01*
X127567577Y-128666742D01*
X127567576Y-128666743D01*
X127567575Y-128666743D01*
X127512797Y-128689433D01*
X127454647Y-128701000D01*
X127395353Y-128701000D01*
X127337203Y-128689433D01*
X127282425Y-128666743D01*
X127282424Y-128666743D01*
X127282423Y-128666742D01*
X127233124Y-128633802D01*
X127191198Y-128591876D01*
X127158258Y-128542577D01*
X127158257Y-128542575D01*
X127135567Y-128487797D01*
X127124000Y-128429647D01*
X127124000Y-128370353D01*
X127135567Y-128312203D01*
X127158257Y-128257425D01*
X127158790Y-128256627D01*
X127191198Y-128208124D01*
X127233124Y-128166198D01*
X127282423Y-128133258D01*
X127282425Y-128133257D01*
X127337203Y-128110567D01*
X127395353Y-128099000D01*
X127454647Y-128099000D01*
X127512797Y-128110567D01*
X127512797Y-128110567D01*
G37*
G36*
X125512797Y-128110567D02*
G01*
X125567575Y-128133257D01*
X125567577Y-128133258D01*
X125616876Y-128166198D01*
X125658802Y-128208124D01*
X125691210Y-128256627D01*
X125691743Y-128257425D01*
X125714433Y-128312203D01*
X125726000Y-128370353D01*
X125726000Y-128429647D01*
X125714433Y-128487797D01*
X125691743Y-128542575D01*
X125691742Y-128542577D01*
X125658802Y-128591876D01*
X125616876Y-128633802D01*
X125567577Y-128666742D01*
X125567576Y-128666743D01*
X125567575Y-128666743D01*
X125512797Y-128689433D01*
X125454647Y-128701000D01*
X125395353Y-128701000D01*
X125337203Y-128689433D01*
X125282425Y-128666743D01*
X125282424Y-128666743D01*
X125282423Y-128666742D01*
X125233124Y-128633802D01*
X125191198Y-128591876D01*
X125158258Y-128542577D01*
X125158257Y-128542575D01*
X125135567Y-128487797D01*
X125124000Y-128429647D01*
X125124000Y-128370353D01*
X125135567Y-128312203D01*
X125158257Y-128257425D01*
X125158790Y-128256627D01*
X125191198Y-128208124D01*
X125233124Y-128166198D01*
X125282423Y-128133258D01*
X125282425Y-128133257D01*
X125337203Y-128110567D01*
X125395353Y-128099000D01*
X125454647Y-128099000D01*
X125512797Y-128110567D01*
X125512797Y-128110567D01*
G37*
G36*
X123512797Y-128110567D02*
G01*
X123567575Y-128133257D01*
X123567577Y-128133258D01*
X123616876Y-128166198D01*
X123658802Y-128208124D01*
X123691210Y-128256627D01*
X123691743Y-128257425D01*
X123714433Y-128312203D01*
X123726000Y-128370353D01*
X123726000Y-128429647D01*
X123714433Y-128487797D01*
X123691743Y-128542575D01*
X123691742Y-128542577D01*
X123658802Y-128591876D01*
X123616876Y-128633802D01*
X123567577Y-128666742D01*
X123567576Y-128666743D01*
X123567575Y-128666743D01*
X123512797Y-128689433D01*
X123454647Y-128701000D01*
X123395353Y-128701000D01*
X123337203Y-128689433D01*
X123282425Y-128666743D01*
X123282424Y-128666743D01*
X123282423Y-128666742D01*
X123233124Y-128633802D01*
X123191198Y-128591876D01*
X123158258Y-128542577D01*
X123158257Y-128542575D01*
X123135567Y-128487797D01*
X123124000Y-128429647D01*
X123124000Y-128370353D01*
X123135567Y-128312203D01*
X123158257Y-128257425D01*
X123158790Y-128256627D01*
X123191198Y-128208124D01*
X123233124Y-128166198D01*
X123282423Y-128133258D01*
X123282425Y-128133257D01*
X123337203Y-128110567D01*
X123395353Y-128099000D01*
X123454647Y-128099000D01*
X123512797Y-128110567D01*
X123512797Y-128110567D01*
G37*
G36*
X126512797Y-128110567D02*
G01*
X126567575Y-128133257D01*
X126567577Y-128133258D01*
X126616876Y-128166198D01*
X126658802Y-128208124D01*
X126691210Y-128256627D01*
X126691743Y-128257425D01*
X126714433Y-128312203D01*
X126726000Y-128370353D01*
X126726000Y-128429647D01*
X126714433Y-128487797D01*
X126691743Y-128542575D01*
X126691742Y-128542577D01*
X126658802Y-128591876D01*
X126616876Y-128633802D01*
X126567577Y-128666742D01*
X126567576Y-128666743D01*
X126567575Y-128666743D01*
X126512797Y-128689433D01*
X126454647Y-128701000D01*
X126395353Y-128701000D01*
X126337203Y-128689433D01*
X126282425Y-128666743D01*
X126282424Y-128666743D01*
X126282423Y-128666742D01*
X126233124Y-128633802D01*
X126191198Y-128591876D01*
X126158258Y-128542577D01*
X126158257Y-128542575D01*
X126135567Y-128487797D01*
X126124000Y-128429647D01*
X126124000Y-128370353D01*
X126135567Y-128312203D01*
X126158257Y-128257425D01*
X126158790Y-128256627D01*
X126191198Y-128208124D01*
X126233124Y-128166198D01*
X126282423Y-128133258D01*
X126282425Y-128133257D01*
X126337203Y-128110567D01*
X126395353Y-128099000D01*
X126454647Y-128099000D01*
X126512797Y-128110567D01*
X126512797Y-128110567D01*
G37*
G36*
X124512797Y-128110567D02*
G01*
X124567575Y-128133257D01*
X124567577Y-128133258D01*
X124616876Y-128166198D01*
X124658802Y-128208124D01*
X124691210Y-128256627D01*
X124691743Y-128257425D01*
X124714433Y-128312203D01*
X124726000Y-128370353D01*
X124726000Y-128429647D01*
X124714433Y-128487797D01*
X124691743Y-128542575D01*
X124691742Y-128542577D01*
X124658802Y-128591876D01*
X124616876Y-128633802D01*
X124567577Y-128666742D01*
X124567576Y-128666743D01*
X124567575Y-128666743D01*
X124512797Y-128689433D01*
X124454647Y-128701000D01*
X124395353Y-128701000D01*
X124337203Y-128689433D01*
X124282425Y-128666743D01*
X124282424Y-128666743D01*
X124282423Y-128666742D01*
X124233124Y-128633802D01*
X124191198Y-128591876D01*
X124158258Y-128542577D01*
X124158257Y-128542575D01*
X124135567Y-128487797D01*
X124124000Y-128429647D01*
X124124000Y-128370353D01*
X124135567Y-128312203D01*
X124158257Y-128257425D01*
X124158790Y-128256627D01*
X124191198Y-128208124D01*
X124233124Y-128166198D01*
X124282423Y-128133258D01*
X124282425Y-128133257D01*
X124337203Y-128110567D01*
X124395353Y-128099000D01*
X124454647Y-128099000D01*
X124512797Y-128110567D01*
X124512797Y-128110567D01*
G37*
G36*
X123512797Y-127110567D02*
G01*
X123567575Y-127133257D01*
X123567577Y-127133258D01*
X123616876Y-127166198D01*
X123658802Y-127208124D01*
X123691742Y-127257423D01*
X123691743Y-127257425D01*
X123714433Y-127312203D01*
X123726000Y-127370353D01*
X123726000Y-127429647D01*
X123714433Y-127487797D01*
X123691743Y-127542575D01*
X123691742Y-127542577D01*
X123658802Y-127591876D01*
X123616876Y-127633802D01*
X123567577Y-127666742D01*
X123567576Y-127666743D01*
X123567575Y-127666743D01*
X123512797Y-127689433D01*
X123454647Y-127701000D01*
X123395353Y-127701000D01*
X123337203Y-127689433D01*
X123282425Y-127666743D01*
X123282424Y-127666743D01*
X123282423Y-127666742D01*
X123233124Y-127633802D01*
X123191198Y-127591876D01*
X123158258Y-127542577D01*
X123158257Y-127542575D01*
X123135567Y-127487797D01*
X123124000Y-127429647D01*
X123124000Y-127370353D01*
X123135567Y-127312203D01*
X123158257Y-127257425D01*
X123158258Y-127257423D01*
X123191198Y-127208124D01*
X123233124Y-127166198D01*
X123282423Y-127133258D01*
X123282425Y-127133257D01*
X123337203Y-127110567D01*
X123395353Y-127099000D01*
X123454647Y-127099000D01*
X123512797Y-127110567D01*
X123512797Y-127110567D01*
G37*
G36*
X126512797Y-127110567D02*
G01*
X126567575Y-127133257D01*
X126567577Y-127133258D01*
X126616876Y-127166198D01*
X126658802Y-127208124D01*
X126691742Y-127257423D01*
X126691743Y-127257425D01*
X126714433Y-127312203D01*
X126726000Y-127370353D01*
X126726000Y-127429647D01*
X126714433Y-127487797D01*
X126691743Y-127542575D01*
X126691742Y-127542577D01*
X126658802Y-127591876D01*
X126616876Y-127633802D01*
X126567577Y-127666742D01*
X126567576Y-127666743D01*
X126567575Y-127666743D01*
X126512797Y-127689433D01*
X126454647Y-127701000D01*
X126395353Y-127701000D01*
X126337203Y-127689433D01*
X126282425Y-127666743D01*
X126282424Y-127666743D01*
X126282423Y-127666742D01*
X126233124Y-127633802D01*
X126191198Y-127591876D01*
X126158258Y-127542577D01*
X126158257Y-127542575D01*
X126135567Y-127487797D01*
X126124000Y-127429647D01*
X126124000Y-127370353D01*
X126135567Y-127312203D01*
X126158257Y-127257425D01*
X126158258Y-127257423D01*
X126191198Y-127208124D01*
X126233124Y-127166198D01*
X126282423Y-127133258D01*
X126282425Y-127133257D01*
X126337203Y-127110567D01*
X126395353Y-127099000D01*
X126454647Y-127099000D01*
X126512797Y-127110567D01*
X126512797Y-127110567D01*
G37*
G36*
X125512797Y-127110567D02*
G01*
X125567575Y-127133257D01*
X125567577Y-127133258D01*
X125616876Y-127166198D01*
X125658802Y-127208124D01*
X125691742Y-127257423D01*
X125691743Y-127257425D01*
X125714433Y-127312203D01*
X125726000Y-127370353D01*
X125726000Y-127429647D01*
X125714433Y-127487797D01*
X125691743Y-127542575D01*
X125691742Y-127542577D01*
X125658802Y-127591876D01*
X125616876Y-127633802D01*
X125567577Y-127666742D01*
X125567576Y-127666743D01*
X125567575Y-127666743D01*
X125512797Y-127689433D01*
X125454647Y-127701000D01*
X125395353Y-127701000D01*
X125337203Y-127689433D01*
X125282425Y-127666743D01*
X125282424Y-127666743D01*
X125282423Y-127666742D01*
X125233124Y-127633802D01*
X125191198Y-127591876D01*
X125158258Y-127542577D01*
X125158257Y-127542575D01*
X125135567Y-127487797D01*
X125124000Y-127429647D01*
X125124000Y-127370353D01*
X125135567Y-127312203D01*
X125158257Y-127257425D01*
X125158258Y-127257423D01*
X125191198Y-127208124D01*
X125233124Y-127166198D01*
X125282423Y-127133258D01*
X125282425Y-127133257D01*
X125337203Y-127110567D01*
X125395353Y-127099000D01*
X125454647Y-127099000D01*
X125512797Y-127110567D01*
X125512797Y-127110567D01*
G37*
G36*
X124512797Y-127110567D02*
G01*
X124567575Y-127133257D01*
X124567577Y-127133258D01*
X124616876Y-127166198D01*
X124658802Y-127208124D01*
X124691742Y-127257423D01*
X124691743Y-127257425D01*
X124714433Y-127312203D01*
X124726000Y-127370353D01*
X124726000Y-127429647D01*
X124714433Y-127487797D01*
X124691743Y-127542575D01*
X124691742Y-127542577D01*
X124658802Y-127591876D01*
X124616876Y-127633802D01*
X124567577Y-127666742D01*
X124567576Y-127666743D01*
X124567575Y-127666743D01*
X124512797Y-127689433D01*
X124454647Y-127701000D01*
X124395353Y-127701000D01*
X124337203Y-127689433D01*
X124282425Y-127666743D01*
X124282424Y-127666743D01*
X124282423Y-127666742D01*
X124233124Y-127633802D01*
X124191198Y-127591876D01*
X124158258Y-127542577D01*
X124158257Y-127542575D01*
X124135567Y-127487797D01*
X124124000Y-127429647D01*
X124124000Y-127370353D01*
X124135567Y-127312203D01*
X124158257Y-127257425D01*
X124158258Y-127257423D01*
X124191198Y-127208124D01*
X124233124Y-127166198D01*
X124282423Y-127133258D01*
X124282425Y-127133257D01*
X124337203Y-127110567D01*
X124395353Y-127099000D01*
X124454647Y-127099000D01*
X124512797Y-127110567D01*
X124512797Y-127110567D01*
G37*
G36*
X127512797Y-127110567D02*
G01*
X127567575Y-127133257D01*
X127567577Y-127133258D01*
X127616876Y-127166198D01*
X127658802Y-127208124D01*
X127691742Y-127257423D01*
X127691743Y-127257425D01*
X127714433Y-127312203D01*
X127726000Y-127370353D01*
X127726000Y-127429647D01*
X127714433Y-127487797D01*
X127691743Y-127542575D01*
X127691742Y-127542577D01*
X127658802Y-127591876D01*
X127616876Y-127633802D01*
X127567577Y-127666742D01*
X127567576Y-127666743D01*
X127567575Y-127666743D01*
X127512797Y-127689433D01*
X127454647Y-127701000D01*
X127395353Y-127701000D01*
X127337203Y-127689433D01*
X127282425Y-127666743D01*
X127282424Y-127666743D01*
X127282423Y-127666742D01*
X127233124Y-127633802D01*
X127191198Y-127591876D01*
X127158258Y-127542577D01*
X127158257Y-127542575D01*
X127135567Y-127487797D01*
X127124000Y-127429647D01*
X127124000Y-127370353D01*
X127135567Y-127312203D01*
X127158257Y-127257425D01*
X127158258Y-127257423D01*
X127191198Y-127208124D01*
X127233124Y-127166198D01*
X127282423Y-127133258D01*
X127282425Y-127133257D01*
X127337203Y-127110567D01*
X127395353Y-127099000D01*
X127454647Y-127099000D01*
X127512797Y-127110567D01*
X127512797Y-127110567D01*
G37*
G36*
X119326000Y-127126000D02*
G01*
X118424000Y-127126000D01*
X118424000Y-126274000D01*
X119326000Y-126274000D01*
X119326000Y-127126000D01*
X119326000Y-127126000D01*
G37*
G36*
X117826000Y-127126000D02*
G01*
X116924000Y-127126000D01*
X116924000Y-126274000D01*
X117826000Y-126274000D01*
X117826000Y-127126000D01*
X117826000Y-127126000D01*
G37*
G36*
X124512797Y-126110567D02*
G01*
X124567575Y-126133257D01*
X124567577Y-126133258D01*
X124616876Y-126166198D01*
X124658802Y-126208124D01*
X124691742Y-126257423D01*
X124691743Y-126257425D01*
X124714433Y-126312203D01*
X124726000Y-126370353D01*
X124726000Y-126429647D01*
X124714433Y-126487797D01*
X124691743Y-126542575D01*
X124691742Y-126542577D01*
X124658802Y-126591876D01*
X124616876Y-126633802D01*
X124567577Y-126666742D01*
X124567576Y-126666743D01*
X124567575Y-126666743D01*
X124512797Y-126689433D01*
X124454647Y-126701000D01*
X124395353Y-126701000D01*
X124337203Y-126689433D01*
X124282425Y-126666743D01*
X124282424Y-126666743D01*
X124282423Y-126666742D01*
X124233124Y-126633802D01*
X124191198Y-126591876D01*
X124158258Y-126542577D01*
X124158257Y-126542575D01*
X124135567Y-126487797D01*
X124124000Y-126429647D01*
X124124000Y-126370353D01*
X124135567Y-126312203D01*
X124158257Y-126257425D01*
X124158258Y-126257423D01*
X124191198Y-126208124D01*
X124233124Y-126166198D01*
X124282423Y-126133258D01*
X124282425Y-126133257D01*
X124337203Y-126110567D01*
X124395353Y-126099000D01*
X124454647Y-126099000D01*
X124512797Y-126110567D01*
X124512797Y-126110567D01*
G37*
G36*
X123512797Y-126110567D02*
G01*
X123567575Y-126133257D01*
X123567577Y-126133258D01*
X123616876Y-126166198D01*
X123658802Y-126208124D01*
X123691742Y-126257423D01*
X123691743Y-126257425D01*
X123714433Y-126312203D01*
X123726000Y-126370353D01*
X123726000Y-126429647D01*
X123714433Y-126487797D01*
X123691743Y-126542575D01*
X123691742Y-126542577D01*
X123658802Y-126591876D01*
X123616876Y-126633802D01*
X123567577Y-126666742D01*
X123567576Y-126666743D01*
X123567575Y-126666743D01*
X123512797Y-126689433D01*
X123454647Y-126701000D01*
X123395353Y-126701000D01*
X123337203Y-126689433D01*
X123282425Y-126666743D01*
X123282424Y-126666743D01*
X123282423Y-126666742D01*
X123233124Y-126633802D01*
X123191198Y-126591876D01*
X123158258Y-126542577D01*
X123158257Y-126542575D01*
X123135567Y-126487797D01*
X123124000Y-126429647D01*
X123124000Y-126370353D01*
X123135567Y-126312203D01*
X123158257Y-126257425D01*
X123158258Y-126257423D01*
X123191198Y-126208124D01*
X123233124Y-126166198D01*
X123282423Y-126133258D01*
X123282425Y-126133257D01*
X123337203Y-126110567D01*
X123395353Y-126099000D01*
X123454647Y-126099000D01*
X123512797Y-126110567D01*
X123512797Y-126110567D01*
G37*
G36*
X126512797Y-126110567D02*
G01*
X126567575Y-126133257D01*
X126567577Y-126133258D01*
X126616876Y-126166198D01*
X126658802Y-126208124D01*
X126691742Y-126257423D01*
X126691743Y-126257425D01*
X126714433Y-126312203D01*
X126726000Y-126370353D01*
X126726000Y-126429647D01*
X126714433Y-126487797D01*
X126691743Y-126542575D01*
X126691742Y-126542577D01*
X126658802Y-126591876D01*
X126616876Y-126633802D01*
X126567577Y-126666742D01*
X126567576Y-126666743D01*
X126567575Y-126666743D01*
X126512797Y-126689433D01*
X126454647Y-126701000D01*
X126395353Y-126701000D01*
X126337203Y-126689433D01*
X126282425Y-126666743D01*
X126282424Y-126666743D01*
X126282423Y-126666742D01*
X126233124Y-126633802D01*
X126191198Y-126591876D01*
X126158258Y-126542577D01*
X126158257Y-126542575D01*
X126135567Y-126487797D01*
X126124000Y-126429647D01*
X126124000Y-126370353D01*
X126135567Y-126312203D01*
X126158257Y-126257425D01*
X126158258Y-126257423D01*
X126191198Y-126208124D01*
X126233124Y-126166198D01*
X126282423Y-126133258D01*
X126282425Y-126133257D01*
X126337203Y-126110567D01*
X126395353Y-126099000D01*
X126454647Y-126099000D01*
X126512797Y-126110567D01*
X126512797Y-126110567D01*
G37*
G36*
X127512797Y-126110567D02*
G01*
X127567575Y-126133257D01*
X127567577Y-126133258D01*
X127616876Y-126166198D01*
X127658802Y-126208124D01*
X127691742Y-126257423D01*
X127691743Y-126257425D01*
X127714433Y-126312203D01*
X127726000Y-126370353D01*
X127726000Y-126429647D01*
X127714433Y-126487797D01*
X127691743Y-126542575D01*
X127691742Y-126542577D01*
X127658802Y-126591876D01*
X127616876Y-126633802D01*
X127567577Y-126666742D01*
X127567576Y-126666743D01*
X127567575Y-126666743D01*
X127512797Y-126689433D01*
X127454647Y-126701000D01*
X127395353Y-126701000D01*
X127337203Y-126689433D01*
X127282425Y-126666743D01*
X127282424Y-126666743D01*
X127282423Y-126666742D01*
X127233124Y-126633802D01*
X127191198Y-126591876D01*
X127158258Y-126542577D01*
X127158257Y-126542575D01*
X127135567Y-126487797D01*
X127124000Y-126429647D01*
X127124000Y-126370353D01*
X127135567Y-126312203D01*
X127158257Y-126257425D01*
X127158258Y-126257423D01*
X127191198Y-126208124D01*
X127233124Y-126166198D01*
X127282423Y-126133258D01*
X127282425Y-126133257D01*
X127337203Y-126110567D01*
X127395353Y-126099000D01*
X127454647Y-126099000D01*
X127512797Y-126110567D01*
X127512797Y-126110567D01*
G37*
G36*
X125512797Y-126110567D02*
G01*
X125567575Y-126133257D01*
X125567577Y-126133258D01*
X125616876Y-126166198D01*
X125658802Y-126208124D01*
X125691742Y-126257423D01*
X125691743Y-126257425D01*
X125714433Y-126312203D01*
X125726000Y-126370353D01*
X125726000Y-126429647D01*
X125714433Y-126487797D01*
X125691743Y-126542575D01*
X125691742Y-126542577D01*
X125658802Y-126591876D01*
X125616876Y-126633802D01*
X125567577Y-126666742D01*
X125567576Y-126666743D01*
X125567575Y-126666743D01*
X125512797Y-126689433D01*
X125454647Y-126701000D01*
X125395353Y-126701000D01*
X125337203Y-126689433D01*
X125282425Y-126666743D01*
X125282424Y-126666743D01*
X125282423Y-126666742D01*
X125233124Y-126633802D01*
X125191198Y-126591876D01*
X125158258Y-126542577D01*
X125158257Y-126542575D01*
X125135567Y-126487797D01*
X125124000Y-126429647D01*
X125124000Y-126370353D01*
X125135567Y-126312203D01*
X125158257Y-126257425D01*
X125158258Y-126257423D01*
X125191198Y-126208124D01*
X125233124Y-126166198D01*
X125282423Y-126133258D01*
X125282425Y-126133257D01*
X125337203Y-126110567D01*
X125395353Y-126099000D01*
X125454647Y-126099000D01*
X125512797Y-126110567D01*
X125512797Y-126110567D01*
G37*
G36*
X145910443Y-124645519D02*
G01*
X145976627Y-124652037D01*
X146146466Y-124703557D01*
X146302991Y-124787222D01*
X146338729Y-124816552D01*
X146440186Y-124899814D01*
X146523448Y-125001271D01*
X146552778Y-125037009D01*
X146552779Y-125037011D01*
X146621832Y-125166198D01*
X146636443Y-125193534D01*
X146687963Y-125363373D01*
X146705359Y-125540000D01*
X146687963Y-125716627D01*
X146636443Y-125886466D01*
X146552778Y-126042991D01*
X146523448Y-126078729D01*
X146440186Y-126180186D01*
X146338729Y-126263448D01*
X146302991Y-126292778D01*
X146146466Y-126376443D01*
X145976627Y-126427963D01*
X145910443Y-126434481D01*
X145844260Y-126441000D01*
X145755740Y-126441000D01*
X145689557Y-126434481D01*
X145623373Y-126427963D01*
X145453534Y-126376443D01*
X145297009Y-126292778D01*
X145261271Y-126263448D01*
X145159814Y-126180186D01*
X145076552Y-126078729D01*
X145047222Y-126042991D01*
X144963557Y-125886466D01*
X144912037Y-125716627D01*
X144894641Y-125540000D01*
X144912037Y-125363373D01*
X144963557Y-125193534D01*
X144978169Y-125166198D01*
X145047221Y-125037011D01*
X145047222Y-125037009D01*
X145076552Y-125001271D01*
X145159814Y-124899814D01*
X145261271Y-124816552D01*
X145297009Y-124787222D01*
X145453534Y-124703557D01*
X145623373Y-124652037D01*
X145689557Y-124645519D01*
X145755740Y-124639000D01*
X145844260Y-124639000D01*
X145910443Y-124645519D01*
X145910443Y-124645519D01*
G37*
G36*
X105270443Y-124645519D02*
G01*
X105336627Y-124652037D01*
X105506466Y-124703557D01*
X105662991Y-124787222D01*
X105698729Y-124816552D01*
X105800186Y-124899814D01*
X105883448Y-125001271D01*
X105912778Y-125037009D01*
X105912779Y-125037011D01*
X105981832Y-125166198D01*
X105996443Y-125193534D01*
X106047963Y-125363373D01*
X106065359Y-125540000D01*
X106047963Y-125716627D01*
X105996443Y-125886466D01*
X105912778Y-126042991D01*
X105883448Y-126078729D01*
X105800186Y-126180186D01*
X105698729Y-126263448D01*
X105662991Y-126292778D01*
X105506466Y-126376443D01*
X105336627Y-126427963D01*
X105270443Y-126434481D01*
X105204260Y-126441000D01*
X105115740Y-126441000D01*
X105049557Y-126434481D01*
X104983373Y-126427963D01*
X104813534Y-126376443D01*
X104657009Y-126292778D01*
X104621271Y-126263448D01*
X104519814Y-126180186D01*
X104436552Y-126078729D01*
X104407222Y-126042991D01*
X104323557Y-125886466D01*
X104272037Y-125716627D01*
X104254641Y-125540000D01*
X104272037Y-125363373D01*
X104323557Y-125193534D01*
X104338169Y-125166198D01*
X104407221Y-125037011D01*
X104407222Y-125037009D01*
X104436552Y-125001271D01*
X104519814Y-124899814D01*
X104621271Y-124816552D01*
X104657009Y-124787222D01*
X104813534Y-124703557D01*
X104983373Y-124652037D01*
X105049557Y-124645519D01*
X105115740Y-124639000D01*
X105204260Y-124639000D01*
X105270443Y-124645519D01*
X105270443Y-124645519D01*
G37*
G36*
X102730443Y-124645519D02*
G01*
X102796627Y-124652037D01*
X102966466Y-124703557D01*
X103122991Y-124787222D01*
X103158729Y-124816552D01*
X103260186Y-124899814D01*
X103343448Y-125001271D01*
X103372778Y-125037009D01*
X103372779Y-125037011D01*
X103441832Y-125166198D01*
X103456443Y-125193534D01*
X103507963Y-125363373D01*
X103525359Y-125540000D01*
X103507963Y-125716627D01*
X103456443Y-125886466D01*
X103372778Y-126042991D01*
X103343448Y-126078729D01*
X103260186Y-126180186D01*
X103158729Y-126263448D01*
X103122991Y-126292778D01*
X102966466Y-126376443D01*
X102796627Y-126427963D01*
X102730443Y-126434481D01*
X102664260Y-126441000D01*
X102575740Y-126441000D01*
X102509557Y-126434481D01*
X102443373Y-126427963D01*
X102273534Y-126376443D01*
X102117009Y-126292778D01*
X102081271Y-126263448D01*
X101979814Y-126180186D01*
X101896552Y-126078729D01*
X101867222Y-126042991D01*
X101783557Y-125886466D01*
X101732037Y-125716627D01*
X101714641Y-125540000D01*
X101732037Y-125363373D01*
X101783557Y-125193534D01*
X101798169Y-125166198D01*
X101867221Y-125037011D01*
X101867222Y-125037009D01*
X101896552Y-125001271D01*
X101979814Y-124899814D01*
X102081271Y-124816552D01*
X102117009Y-124787222D01*
X102273534Y-124703557D01*
X102443373Y-124652037D01*
X102509557Y-124645519D01*
X102575740Y-124639000D01*
X102664260Y-124639000D01*
X102730443Y-124645519D01*
X102730443Y-124645519D01*
G37*
G36*
X148450443Y-124645519D02*
G01*
X148516627Y-124652037D01*
X148686466Y-124703557D01*
X148842991Y-124787222D01*
X148878729Y-124816552D01*
X148980186Y-124899814D01*
X149063448Y-125001271D01*
X149092778Y-125037009D01*
X149092779Y-125037011D01*
X149161832Y-125166198D01*
X149176443Y-125193534D01*
X149227963Y-125363373D01*
X149245359Y-125540000D01*
X149227963Y-125716627D01*
X149176443Y-125886466D01*
X149092778Y-126042991D01*
X149063448Y-126078729D01*
X148980186Y-126180186D01*
X148878729Y-126263448D01*
X148842991Y-126292778D01*
X148686466Y-126376443D01*
X148516627Y-126427963D01*
X148450443Y-126434481D01*
X148384260Y-126441000D01*
X148295740Y-126441000D01*
X148229557Y-126434481D01*
X148163373Y-126427963D01*
X147993534Y-126376443D01*
X147837009Y-126292778D01*
X147801271Y-126263448D01*
X147699814Y-126180186D01*
X147616552Y-126078729D01*
X147587222Y-126042991D01*
X147503557Y-125886466D01*
X147452037Y-125716627D01*
X147434641Y-125540000D01*
X147452037Y-125363373D01*
X147503557Y-125193534D01*
X147518169Y-125166198D01*
X147587221Y-125037011D01*
X147587222Y-125037009D01*
X147616552Y-125001271D01*
X147699814Y-124899814D01*
X147801271Y-124816552D01*
X147837009Y-124787222D01*
X147993534Y-124703557D01*
X148163373Y-124652037D01*
X148229557Y-124645519D01*
X148295740Y-124639000D01*
X148384260Y-124639000D01*
X148450443Y-124645519D01*
X148450443Y-124645519D01*
G37*
G36*
X119176000Y-125726000D02*
G01*
X118274000Y-125726000D01*
X118274000Y-124874000D01*
X119176000Y-124874000D01*
X119176000Y-125726000D01*
X119176000Y-125726000D01*
G37*
G36*
X117676000Y-125726000D02*
G01*
X116774000Y-125726000D01*
X116774000Y-124874000D01*
X117676000Y-124874000D01*
X117676000Y-125726000D01*
X117676000Y-125726000D01*
G37*
G36*
X125512797Y-125110567D02*
G01*
X125567575Y-125133257D01*
X125567577Y-125133258D01*
X125616876Y-125166198D01*
X125658802Y-125208124D01*
X125691742Y-125257423D01*
X125691743Y-125257425D01*
X125714433Y-125312203D01*
X125726000Y-125370353D01*
X125726000Y-125429647D01*
X125714433Y-125487797D01*
X125691743Y-125542575D01*
X125691742Y-125542577D01*
X125658802Y-125591876D01*
X125616876Y-125633802D01*
X125567577Y-125666742D01*
X125567576Y-125666743D01*
X125567575Y-125666743D01*
X125512797Y-125689433D01*
X125454647Y-125701000D01*
X125395353Y-125701000D01*
X125337203Y-125689433D01*
X125282425Y-125666743D01*
X125282424Y-125666743D01*
X125282423Y-125666742D01*
X125233124Y-125633802D01*
X125191198Y-125591876D01*
X125158258Y-125542577D01*
X125158257Y-125542575D01*
X125135567Y-125487797D01*
X125124000Y-125429647D01*
X125124000Y-125370353D01*
X125135567Y-125312203D01*
X125158257Y-125257425D01*
X125158258Y-125257423D01*
X125191198Y-125208124D01*
X125233124Y-125166198D01*
X125282423Y-125133258D01*
X125282425Y-125133257D01*
X125337203Y-125110567D01*
X125395353Y-125099000D01*
X125454647Y-125099000D01*
X125512797Y-125110567D01*
X125512797Y-125110567D01*
G37*
G36*
X126512797Y-125110567D02*
G01*
X126567575Y-125133257D01*
X126567577Y-125133258D01*
X126616876Y-125166198D01*
X126658802Y-125208124D01*
X126691742Y-125257423D01*
X126691743Y-125257425D01*
X126714433Y-125312203D01*
X126726000Y-125370353D01*
X126726000Y-125429647D01*
X126714433Y-125487797D01*
X126691743Y-125542575D01*
X126691742Y-125542577D01*
X126658802Y-125591876D01*
X126616876Y-125633802D01*
X126567577Y-125666742D01*
X126567576Y-125666743D01*
X126567575Y-125666743D01*
X126512797Y-125689433D01*
X126454647Y-125701000D01*
X126395353Y-125701000D01*
X126337203Y-125689433D01*
X126282425Y-125666743D01*
X126282424Y-125666743D01*
X126282423Y-125666742D01*
X126233124Y-125633802D01*
X126191198Y-125591876D01*
X126158258Y-125542577D01*
X126158257Y-125542575D01*
X126135567Y-125487797D01*
X126124000Y-125429647D01*
X126124000Y-125370353D01*
X126135567Y-125312203D01*
X126158257Y-125257425D01*
X126158258Y-125257423D01*
X126191198Y-125208124D01*
X126233124Y-125166198D01*
X126282423Y-125133258D01*
X126282425Y-125133257D01*
X126337203Y-125110567D01*
X126395353Y-125099000D01*
X126454647Y-125099000D01*
X126512797Y-125110567D01*
X126512797Y-125110567D01*
G37*
G36*
X124512797Y-125110567D02*
G01*
X124567575Y-125133257D01*
X124567577Y-125133258D01*
X124616876Y-125166198D01*
X124658802Y-125208124D01*
X124691742Y-125257423D01*
X124691743Y-125257425D01*
X124714433Y-125312203D01*
X124726000Y-125370353D01*
X124726000Y-125429647D01*
X124714433Y-125487797D01*
X124691743Y-125542575D01*
X124691742Y-125542577D01*
X124658802Y-125591876D01*
X124616876Y-125633802D01*
X124567577Y-125666742D01*
X124567576Y-125666743D01*
X124567575Y-125666743D01*
X124512797Y-125689433D01*
X124454647Y-125701000D01*
X124395353Y-125701000D01*
X124337203Y-125689433D01*
X124282425Y-125666743D01*
X124282424Y-125666743D01*
X124282423Y-125666742D01*
X124233124Y-125633802D01*
X124191198Y-125591876D01*
X124158258Y-125542577D01*
X124158257Y-125542575D01*
X124135567Y-125487797D01*
X124124000Y-125429647D01*
X124124000Y-125370353D01*
X124135567Y-125312203D01*
X124158257Y-125257425D01*
X124158258Y-125257423D01*
X124191198Y-125208124D01*
X124233124Y-125166198D01*
X124282423Y-125133258D01*
X124282425Y-125133257D01*
X124337203Y-125110567D01*
X124395353Y-125099000D01*
X124454647Y-125099000D01*
X124512797Y-125110567D01*
X124512797Y-125110567D01*
G37*
G36*
X127512797Y-125110567D02*
G01*
X127567575Y-125133257D01*
X127567577Y-125133258D01*
X127616876Y-125166198D01*
X127658802Y-125208124D01*
X127691742Y-125257423D01*
X127691743Y-125257425D01*
X127714433Y-125312203D01*
X127726000Y-125370353D01*
X127726000Y-125429647D01*
X127714433Y-125487797D01*
X127691743Y-125542575D01*
X127691742Y-125542577D01*
X127658802Y-125591876D01*
X127616876Y-125633802D01*
X127567577Y-125666742D01*
X127567576Y-125666743D01*
X127567575Y-125666743D01*
X127512797Y-125689433D01*
X127454647Y-125701000D01*
X127395353Y-125701000D01*
X127337203Y-125689433D01*
X127282425Y-125666743D01*
X127282424Y-125666743D01*
X127282423Y-125666742D01*
X127233124Y-125633802D01*
X127191198Y-125591876D01*
X127158258Y-125542577D01*
X127158257Y-125542575D01*
X127135567Y-125487797D01*
X127124000Y-125429647D01*
X127124000Y-125370353D01*
X127135567Y-125312203D01*
X127158257Y-125257425D01*
X127158258Y-125257423D01*
X127191198Y-125208124D01*
X127233124Y-125166198D01*
X127282423Y-125133258D01*
X127282425Y-125133257D01*
X127337203Y-125110567D01*
X127395353Y-125099000D01*
X127454647Y-125099000D01*
X127512797Y-125110567D01*
X127512797Y-125110567D01*
G37*
G36*
X123512797Y-125110567D02*
G01*
X123567575Y-125133257D01*
X123567577Y-125133258D01*
X123616876Y-125166198D01*
X123658802Y-125208124D01*
X123691742Y-125257423D01*
X123691743Y-125257425D01*
X123714433Y-125312203D01*
X123726000Y-125370353D01*
X123726000Y-125429647D01*
X123714433Y-125487797D01*
X123691743Y-125542575D01*
X123691742Y-125542577D01*
X123658802Y-125591876D01*
X123616876Y-125633802D01*
X123567577Y-125666742D01*
X123567576Y-125666743D01*
X123567575Y-125666743D01*
X123512797Y-125689433D01*
X123454647Y-125701000D01*
X123395353Y-125701000D01*
X123337203Y-125689433D01*
X123282425Y-125666743D01*
X123282424Y-125666743D01*
X123282423Y-125666742D01*
X123233124Y-125633802D01*
X123191198Y-125591876D01*
X123158258Y-125542577D01*
X123158257Y-125542575D01*
X123135567Y-125487797D01*
X123124000Y-125429647D01*
X123124000Y-125370353D01*
X123135567Y-125312203D01*
X123158257Y-125257425D01*
X123158258Y-125257423D01*
X123191198Y-125208124D01*
X123233124Y-125166198D01*
X123282423Y-125133258D01*
X123282425Y-125133257D01*
X123337203Y-125110567D01*
X123395353Y-125099000D01*
X123454647Y-125099000D01*
X123512797Y-125110567D01*
X123512797Y-125110567D01*
G37*
G36*
X119176000Y-124326000D02*
G01*
X118274000Y-124326000D01*
X118274000Y-123474000D01*
X119176000Y-123474000D01*
X119176000Y-124326000D01*
X119176000Y-124326000D01*
G37*
G36*
X117676000Y-124326000D02*
G01*
X116774000Y-124326000D01*
X116774000Y-123474000D01*
X117676000Y-123474000D01*
X117676000Y-124326000D01*
X117676000Y-124326000D01*
G37*
G36*
X149241000Y-123901000D02*
G01*
X147439000Y-123901000D01*
X147439000Y-122099000D01*
X149241000Y-122099000D01*
X149241000Y-123901000D01*
X149241000Y-123901000D01*
G37*
G36*
X145910442Y-122105518D02*
G01*
X145976627Y-122112037D01*
X146146466Y-122163557D01*
X146302991Y-122247222D01*
X146338729Y-122276552D01*
X146440186Y-122359814D01*
X146523448Y-122461271D01*
X146552778Y-122497009D01*
X146636443Y-122653534D01*
X146687963Y-122823373D01*
X146705359Y-123000000D01*
X146687963Y-123176627D01*
X146636443Y-123346466D01*
X146552778Y-123502991D01*
X146523448Y-123538729D01*
X146440186Y-123640186D01*
X146338729Y-123723448D01*
X146302991Y-123752778D01*
X146146466Y-123836443D01*
X145976627Y-123887963D01*
X145910443Y-123894481D01*
X145844260Y-123901000D01*
X145755740Y-123901000D01*
X145689557Y-123894481D01*
X145623373Y-123887963D01*
X145453534Y-123836443D01*
X145297009Y-123752778D01*
X145261271Y-123723448D01*
X145159814Y-123640186D01*
X145076552Y-123538729D01*
X145047222Y-123502991D01*
X144963557Y-123346466D01*
X144912037Y-123176627D01*
X144894641Y-123000000D01*
X144912037Y-122823373D01*
X144963557Y-122653534D01*
X145047222Y-122497009D01*
X145076552Y-122461271D01*
X145159814Y-122359814D01*
X145261271Y-122276552D01*
X145297009Y-122247222D01*
X145453534Y-122163557D01*
X145623373Y-122112037D01*
X145689558Y-122105518D01*
X145755740Y-122099000D01*
X145844260Y-122099000D01*
X145910442Y-122105518D01*
X145910442Y-122105518D01*
G37*
G36*
X106061000Y-123901000D02*
G01*
X104259000Y-123901000D01*
X104259000Y-122099000D01*
X106061000Y-122099000D01*
X106061000Y-123901000D01*
X106061000Y-123901000D01*
G37*
G36*
X102730442Y-122105518D02*
G01*
X102796627Y-122112037D01*
X102966466Y-122163557D01*
X103122991Y-122247222D01*
X103158729Y-122276552D01*
X103260186Y-122359814D01*
X103343448Y-122461271D01*
X103372778Y-122497009D01*
X103456443Y-122653534D01*
X103507963Y-122823373D01*
X103525359Y-123000000D01*
X103507963Y-123176627D01*
X103456443Y-123346466D01*
X103372778Y-123502991D01*
X103343448Y-123538729D01*
X103260186Y-123640186D01*
X103158729Y-123723448D01*
X103122991Y-123752778D01*
X102966466Y-123836443D01*
X102796627Y-123887963D01*
X102730443Y-123894481D01*
X102664260Y-123901000D01*
X102575740Y-123901000D01*
X102509557Y-123894481D01*
X102443373Y-123887963D01*
X102273534Y-123836443D01*
X102117009Y-123752778D01*
X102081271Y-123723448D01*
X101979814Y-123640186D01*
X101896552Y-123538729D01*
X101867222Y-123502991D01*
X101783557Y-123346466D01*
X101732037Y-123176627D01*
X101714641Y-123000000D01*
X101732037Y-122823373D01*
X101783557Y-122653534D01*
X101867222Y-122497009D01*
X101896552Y-122461271D01*
X101979814Y-122359814D01*
X102081271Y-122276552D01*
X102117009Y-122247222D01*
X102273534Y-122163557D01*
X102443373Y-122112037D01*
X102509558Y-122105518D01*
X102575740Y-122099000D01*
X102664260Y-122099000D01*
X102730442Y-122105518D01*
X102730442Y-122105518D01*
G37*
G36*
X115601000Y-119801000D02*
G01*
X114249000Y-119801000D01*
X114249000Y-118699000D01*
X115601000Y-118699000D01*
X115601000Y-119801000D01*
X115601000Y-119801000D01*
G37*
G36*
X124376000Y-119751000D02*
G01*
X123024000Y-119751000D01*
X123024000Y-118649000D01*
X124376000Y-118649000D01*
X124376000Y-119751000D01*
X124376000Y-119751000D01*
G37*
G36*
X133051000Y-119726000D02*
G01*
X131699000Y-119726000D01*
X131699000Y-118624000D01*
X133051000Y-118624000D01*
X133051000Y-119726000D01*
X133051000Y-119726000D01*
G37*
G36*
X116846000Y-118847000D02*
G01*
X116244000Y-118847000D01*
X116244000Y-118045000D01*
X116846000Y-118045000D01*
X116846000Y-118847000D01*
X116846000Y-118847000D01*
G37*
G36*
X138006000Y-118847000D02*
G01*
X137404000Y-118847000D01*
X137404000Y-118045000D01*
X138006000Y-118045000D01*
X138006000Y-118847000D01*
X138006000Y-118847000D01*
G37*
G36*
X135466000Y-118847000D02*
G01*
X134864000Y-118847000D01*
X134864000Y-118045000D01*
X135466000Y-118045000D01*
X135466000Y-118847000D01*
X135466000Y-118847000D01*
G37*
G36*
X134196000Y-118847000D02*
G01*
X133594000Y-118847000D01*
X133594000Y-118045000D01*
X134196000Y-118045000D01*
X134196000Y-118847000D01*
X134196000Y-118847000D01*
G37*
G36*
X129306000Y-118847000D02*
G01*
X128704000Y-118847000D01*
X128704000Y-118045000D01*
X129306000Y-118045000D01*
X129306000Y-118847000D01*
X129306000Y-118847000D01*
G37*
G36*
X128036000Y-118847000D02*
G01*
X127434000Y-118847000D01*
X127434000Y-118045000D01*
X128036000Y-118045000D01*
X128036000Y-118847000D01*
X128036000Y-118847000D01*
G37*
G36*
X136736000Y-118847000D02*
G01*
X136134000Y-118847000D01*
X136134000Y-118045000D01*
X136736000Y-118045000D01*
X136736000Y-118847000D01*
X136736000Y-118847000D01*
G37*
G36*
X126766000Y-118847000D02*
G01*
X126164000Y-118847000D01*
X126164000Y-118045000D01*
X126766000Y-118045000D01*
X126766000Y-118847000D01*
X126766000Y-118847000D01*
G37*
G36*
X119386000Y-118847000D02*
G01*
X118784000Y-118847000D01*
X118784000Y-118045000D01*
X119386000Y-118045000D01*
X119386000Y-118847000D01*
X119386000Y-118847000D01*
G37*
G36*
X120656000Y-118847000D02*
G01*
X120054000Y-118847000D01*
X120054000Y-118045000D01*
X120656000Y-118045000D01*
X120656000Y-118847000D01*
X120656000Y-118847000D01*
G37*
G36*
X118116000Y-118847000D02*
G01*
X117514000Y-118847000D01*
X117514000Y-118045000D01*
X118116000Y-118045000D01*
X118116000Y-118847000D01*
X118116000Y-118847000D01*
G37*
G36*
X125496000Y-118847000D02*
G01*
X124894000Y-118847000D01*
X124894000Y-118045000D01*
X125496000Y-118045000D01*
X125496000Y-118847000D01*
X125496000Y-118847000D01*
G37*
G36*
X106638457Y-112787965D02*
G01*
X106819355Y-112823948D01*
X107330561Y-113035696D01*
X107790633Y-113343107D01*
X108181893Y-113734367D01*
X108489304Y-114194439D01*
X108701052Y-114705645D01*
X108701052Y-114705646D01*
X108769350Y-115049000D01*
X108809000Y-115248338D01*
X108809000Y-115801662D01*
X108701052Y-116344355D01*
X108489304Y-116855561D01*
X108181893Y-117315633D01*
X107790633Y-117706893D01*
X107330561Y-118014304D01*
X106819355Y-118226052D01*
X106638457Y-118262035D01*
X106276664Y-118334000D01*
X105723336Y-118334000D01*
X105361543Y-118262035D01*
X105180645Y-118226052D01*
X104669439Y-118014304D01*
X104209367Y-117706893D01*
X103818107Y-117315633D01*
X103510696Y-116855561D01*
X103298948Y-116344355D01*
X103191000Y-115801662D01*
X103191000Y-115248338D01*
X103230651Y-115049000D01*
X103298948Y-114705646D01*
X103298948Y-114705645D01*
X103510696Y-114194439D01*
X103818107Y-113734367D01*
X104209367Y-113343107D01*
X104669439Y-113035696D01*
X105180645Y-112823948D01*
X105361543Y-112787965D01*
X105723336Y-112716000D01*
X106276664Y-112716000D01*
X106638457Y-112787965D01*
X106638457Y-112787965D01*
G37*
G36*
X115601000Y-117801000D02*
G01*
X114249000Y-117801000D01*
X114249000Y-116699000D01*
X115601000Y-116699000D01*
X115601000Y-117801000D01*
X115601000Y-117801000D01*
G37*
G36*
X124376000Y-117751000D02*
G01*
X123024000Y-117751000D01*
X123024000Y-116649000D01*
X124376000Y-116649000D01*
X124376000Y-117751000D01*
X124376000Y-117751000D01*
G37*
G36*
X133051000Y-117726000D02*
G01*
X131699000Y-117726000D01*
X131699000Y-116624000D01*
X133051000Y-116624000D01*
X133051000Y-117726000D01*
X133051000Y-117726000D01*
G37*
G36*
X120751000Y-117671000D02*
G01*
X116149000Y-117671000D01*
X116149000Y-116769000D01*
X120751000Y-116769000D01*
X120751000Y-117671000D01*
X120751000Y-117671000D01*
G37*
G36*
X129401000Y-117671000D02*
G01*
X124799000Y-117671000D01*
X124799000Y-116769000D01*
X129401000Y-116769000D01*
X129401000Y-117671000D01*
X129401000Y-117671000D01*
G37*
G36*
X138101000Y-117671000D02*
G01*
X133499000Y-117671000D01*
X133499000Y-116769000D01*
X138101000Y-116769000D01*
X138101000Y-117671000D01*
X138101000Y-117671000D01*
G37*
G36*
X119658126Y-113498698D02*
G01*
X119658730Y-113498757D01*
X119679460Y-113502881D01*
X119697842Y-113510495D01*
X119714386Y-113521550D01*
X119728450Y-113535614D01*
X119739505Y-113552158D01*
X119747119Y-113570540D01*
X119751243Y-113591270D01*
X119751302Y-113591874D01*
X119751852Y-113603062D01*
X119751852Y-114373149D01*
X119754254Y-114397535D01*
X119761367Y-114420984D01*
X119772918Y-114442595D01*
X119788463Y-114461537D01*
X119807405Y-114477082D01*
X119829016Y-114488633D01*
X119852465Y-114495746D01*
X119876851Y-114498148D01*
X120646938Y-114498148D01*
X120658126Y-114498698D01*
X120658730Y-114498757D01*
X120679460Y-114502881D01*
X120697842Y-114510495D01*
X120714386Y-114521550D01*
X120728450Y-114535614D01*
X120739505Y-114552158D01*
X120747119Y-114570540D01*
X120751243Y-114591270D01*
X120751302Y-114591874D01*
X120751852Y-114603062D01*
X120751852Y-116196938D01*
X120751302Y-116208126D01*
X120751243Y-116208730D01*
X120747119Y-116229460D01*
X120739505Y-116247842D01*
X120728450Y-116264386D01*
X120714386Y-116278450D01*
X120697842Y-116289505D01*
X120679460Y-116297119D01*
X120658730Y-116301243D01*
X120658126Y-116301302D01*
X120646938Y-116301852D01*
X116253062Y-116301852D01*
X116241874Y-116301302D01*
X116241270Y-116301243D01*
X116220540Y-116297119D01*
X116202158Y-116289505D01*
X116185614Y-116278450D01*
X116171550Y-116264386D01*
X116160495Y-116247842D01*
X116152881Y-116229460D01*
X116148757Y-116208730D01*
X116148698Y-116208126D01*
X116148148Y-116196938D01*
X116148148Y-113603062D01*
X116148698Y-113591874D01*
X116148757Y-113591270D01*
X116152881Y-113570540D01*
X116160495Y-113552158D01*
X116171550Y-113535614D01*
X116185614Y-113521550D01*
X116202158Y-113510495D01*
X116220540Y-113502881D01*
X116241270Y-113498757D01*
X116241874Y-113498698D01*
X116253062Y-113498148D01*
X119646938Y-113498148D01*
X119658126Y-113498698D01*
X119658126Y-113498698D01*
G37*
G36*
X128308126Y-113498698D02*
G01*
X128308730Y-113498757D01*
X128329460Y-113502881D01*
X128347842Y-113510495D01*
X128364386Y-113521550D01*
X128378450Y-113535614D01*
X128389505Y-113552158D01*
X128397119Y-113570540D01*
X128401243Y-113591270D01*
X128401302Y-113591874D01*
X128401852Y-113603062D01*
X128401852Y-114373149D01*
X128404254Y-114397535D01*
X128411367Y-114420984D01*
X128422918Y-114442595D01*
X128438463Y-114461537D01*
X128457405Y-114477082D01*
X128479016Y-114488633D01*
X128502465Y-114495746D01*
X128526851Y-114498148D01*
X129296938Y-114498148D01*
X129308126Y-114498698D01*
X129308730Y-114498757D01*
X129329460Y-114502881D01*
X129347842Y-114510495D01*
X129364386Y-114521550D01*
X129378450Y-114535614D01*
X129389505Y-114552158D01*
X129397119Y-114570540D01*
X129401243Y-114591270D01*
X129401302Y-114591874D01*
X129401852Y-114603062D01*
X129401852Y-116196938D01*
X129401302Y-116208126D01*
X129401243Y-116208730D01*
X129397119Y-116229460D01*
X129389505Y-116247842D01*
X129378450Y-116264386D01*
X129364386Y-116278450D01*
X129347842Y-116289505D01*
X129329460Y-116297119D01*
X129308730Y-116301243D01*
X129308126Y-116301302D01*
X129296938Y-116301852D01*
X124903062Y-116301852D01*
X124891874Y-116301302D01*
X124891270Y-116301243D01*
X124870540Y-116297119D01*
X124852158Y-116289505D01*
X124835614Y-116278450D01*
X124821550Y-116264386D01*
X124810495Y-116247842D01*
X124802881Y-116229460D01*
X124798757Y-116208730D01*
X124798698Y-116208126D01*
X124798148Y-116196938D01*
X124798148Y-113603062D01*
X124798698Y-113591874D01*
X124798757Y-113591270D01*
X124802881Y-113570540D01*
X124810495Y-113552158D01*
X124821550Y-113535614D01*
X124835614Y-113521550D01*
X124852158Y-113510495D01*
X124870540Y-113502881D01*
X124891270Y-113498757D01*
X124891874Y-113498698D01*
X124903062Y-113498148D01*
X128296938Y-113498148D01*
X128308126Y-113498698D01*
X128308126Y-113498698D01*
G37*
G36*
X137008126Y-113498698D02*
G01*
X137008730Y-113498757D01*
X137029460Y-113502881D01*
X137047842Y-113510495D01*
X137064386Y-113521550D01*
X137078450Y-113535614D01*
X137089505Y-113552158D01*
X137097119Y-113570540D01*
X137101243Y-113591270D01*
X137101302Y-113591874D01*
X137101852Y-113603062D01*
X137101852Y-114373149D01*
X137104254Y-114397535D01*
X137111367Y-114420984D01*
X137122918Y-114442595D01*
X137138463Y-114461537D01*
X137157405Y-114477082D01*
X137179016Y-114488633D01*
X137202465Y-114495746D01*
X137226851Y-114498148D01*
X137996938Y-114498148D01*
X138008126Y-114498698D01*
X138008730Y-114498757D01*
X138029460Y-114502881D01*
X138047842Y-114510495D01*
X138064386Y-114521550D01*
X138078450Y-114535614D01*
X138089505Y-114552158D01*
X138097119Y-114570540D01*
X138101243Y-114591270D01*
X138101302Y-114591874D01*
X138101852Y-114603062D01*
X138101852Y-116196938D01*
X138101302Y-116208126D01*
X138101243Y-116208730D01*
X138097119Y-116229460D01*
X138089505Y-116247842D01*
X138078450Y-116264386D01*
X138064386Y-116278450D01*
X138047842Y-116289505D01*
X138029460Y-116297119D01*
X138008730Y-116301243D01*
X138008126Y-116301302D01*
X137996938Y-116301852D01*
X133603062Y-116301852D01*
X133591874Y-116301302D01*
X133591270Y-116301243D01*
X133570540Y-116297119D01*
X133552158Y-116289505D01*
X133535614Y-116278450D01*
X133521550Y-116264386D01*
X133510495Y-116247842D01*
X133502881Y-116229460D01*
X133498757Y-116208730D01*
X133498698Y-116208126D01*
X133498148Y-116196938D01*
X133498148Y-113603062D01*
X133498698Y-113591874D01*
X133498757Y-113591270D01*
X133502881Y-113570540D01*
X133510495Y-113552158D01*
X133521550Y-113535614D01*
X133535614Y-113521550D01*
X133552158Y-113510495D01*
X133570540Y-113502881D01*
X133591270Y-113498757D01*
X133591874Y-113498698D01*
X133603062Y-113498148D01*
X136996938Y-113498148D01*
X137008126Y-113498698D01*
X137008126Y-113498698D01*
G37*
G36*
X115751000Y-116201000D02*
G01*
X112449000Y-116201000D01*
X112449000Y-115099000D01*
X115751000Y-115099000D01*
X115751000Y-116201000D01*
X115751000Y-116201000D01*
G37*
G36*
X133051000Y-116151000D02*
G01*
X129749000Y-116151000D01*
X129749000Y-115049000D01*
X133051000Y-115049000D01*
X133051000Y-116151000D01*
X133051000Y-116151000D01*
G37*
G36*
X124401000Y-116151000D02*
G01*
X121099000Y-116151000D01*
X121099000Y-115049000D01*
X124401000Y-115049000D01*
X124401000Y-116151000D01*
X124401000Y-116151000D01*
G37*
G36*
X138006000Y-114051000D02*
G01*
X137404000Y-114051000D01*
X137404000Y-112449000D01*
X138006000Y-112449000D01*
X138006000Y-114051000D01*
X138006000Y-114051000D01*
G37*
G36*
X120656000Y-114051000D02*
G01*
X120054000Y-114051000D01*
X120054000Y-112449000D01*
X120656000Y-112449000D01*
X120656000Y-114051000D01*
X120656000Y-114051000D01*
G37*
G36*
X129306000Y-114051000D02*
G01*
X128704000Y-114051000D01*
X128704000Y-112449000D01*
X129306000Y-112449000D01*
X129306000Y-114051000D01*
X129306000Y-114051000D01*
G37*
G36*
X119701000Y-113151000D02*
G01*
X116199000Y-113151000D01*
X116199000Y-112449000D01*
X119701000Y-112449000D01*
X119701000Y-113151000D01*
X119701000Y-113151000D01*
G37*
G36*
X128351000Y-113151000D02*
G01*
X124849000Y-113151000D01*
X124849000Y-112449000D01*
X128351000Y-112449000D01*
X128351000Y-113151000D01*
X128351000Y-113151000D01*
G37*
G36*
X137051000Y-113151000D02*
G01*
X133549000Y-113151000D01*
X133549000Y-112449000D01*
X137051000Y-112449000D01*
X137051000Y-113151000D01*
X137051000Y-113151000D01*
G37*
G36*
X108809000Y-111134000D02*
G01*
X103191000Y-111134000D01*
X103191000Y-105516000D01*
X108809000Y-105516000D01*
X108809000Y-111134000D01*
X108809000Y-111134000D01*
G37*
G36*
X115751000Y-110001000D02*
G01*
X112449000Y-110001000D01*
X112449000Y-108899000D01*
X115751000Y-108899000D01*
X115751000Y-110001000D01*
X115751000Y-110001000D01*
G37*
G36*
X133051000Y-109951000D02*
G01*
X129749000Y-109951000D01*
X129749000Y-108849000D01*
X133051000Y-108849000D01*
X133051000Y-109951000D01*
X133051000Y-109951000D01*
G37*
G36*
X124401000Y-109951000D02*
G01*
X121099000Y-109951000D01*
X121099000Y-108849000D01*
X124401000Y-108849000D01*
X124401000Y-109951000D01*
X124401000Y-109951000D01*
G37*
G36*
X135185787Y-100585462D02*
G01*
X135185790Y-100585463D01*
X135185789Y-100585463D01*
X135832029Y-100853144D01*
X136413631Y-101241758D01*
X136908242Y-101736369D01*
X137296856Y-102317971D01*
X137296856Y-102317972D01*
X137564538Y-102964213D01*
X137701000Y-103650256D01*
X137701000Y-104349744D01*
X137564538Y-105035787D01*
X137564537Y-105035789D01*
X137296856Y-105682029D01*
X136908242Y-106263631D01*
X136413631Y-106758242D01*
X135832029Y-107146856D01*
X135375068Y-107336135D01*
X135185787Y-107414538D01*
X134499744Y-107551000D01*
X133800256Y-107551000D01*
X133114213Y-107414538D01*
X132924932Y-107336135D01*
X132467971Y-107146856D01*
X131886369Y-106758242D01*
X131391758Y-106263631D01*
X131003144Y-105682029D01*
X130735463Y-105035789D01*
X130735462Y-105035787D01*
X130599000Y-104349744D01*
X130599000Y-103650256D01*
X130735462Y-102964213D01*
X131003144Y-102317972D01*
X131003144Y-102317971D01*
X131391758Y-101736369D01*
X131886369Y-101241758D01*
X132467971Y-100853144D01*
X133114211Y-100585463D01*
X133114210Y-100585463D01*
X133114213Y-100585462D01*
X133800256Y-100449000D01*
X134499744Y-100449000D01*
X135185787Y-100585462D01*
X135185787Y-100585462D01*
G37*
G36*
X126535787Y-100585462D02*
G01*
X126535790Y-100585463D01*
X126535789Y-100585463D01*
X127182029Y-100853144D01*
X127763631Y-101241758D01*
X128258242Y-101736369D01*
X128646856Y-102317971D01*
X128646856Y-102317972D01*
X128914538Y-102964213D01*
X129051000Y-103650256D01*
X129051000Y-104349744D01*
X128914538Y-105035787D01*
X128914537Y-105035789D01*
X128646856Y-105682029D01*
X128258242Y-106263631D01*
X127763631Y-106758242D01*
X127182029Y-107146856D01*
X126725068Y-107336135D01*
X126535787Y-107414538D01*
X125849744Y-107551000D01*
X125150256Y-107551000D01*
X124464213Y-107414538D01*
X124274932Y-107336135D01*
X123817971Y-107146856D01*
X123236369Y-106758242D01*
X122741758Y-106263631D01*
X122353144Y-105682029D01*
X122085463Y-105035789D01*
X122085462Y-105035787D01*
X121949000Y-104349744D01*
X121949000Y-103650256D01*
X122085462Y-102964213D01*
X122353144Y-102317972D01*
X122353144Y-102317971D01*
X122741758Y-101736369D01*
X123236369Y-101241758D01*
X123817971Y-100853144D01*
X124464211Y-100585463D01*
X124464210Y-100585463D01*
X124464213Y-100585462D01*
X125150256Y-100449000D01*
X125849744Y-100449000D01*
X126535787Y-100585462D01*
X126535787Y-100585462D01*
G37*
G36*
X117885787Y-100585462D02*
G01*
X117885790Y-100585463D01*
X117885789Y-100585463D01*
X118532029Y-100853144D01*
X119113631Y-101241758D01*
X119608242Y-101736369D01*
X119996856Y-102317971D01*
X119996856Y-102317972D01*
X120264538Y-102964213D01*
X120401000Y-103650256D01*
X120401000Y-104349744D01*
X120264538Y-105035787D01*
X120264537Y-105035789D01*
X119996856Y-105682029D01*
X119608242Y-106263631D01*
X119113631Y-106758242D01*
X118532029Y-107146856D01*
X118075068Y-107336135D01*
X117885787Y-107414538D01*
X117199744Y-107551000D01*
X116500256Y-107551000D01*
X115814213Y-107414538D01*
X115624932Y-107336135D01*
X115167971Y-107146856D01*
X114586369Y-106758242D01*
X114091758Y-106263631D01*
X113703144Y-105682029D01*
X113435463Y-105035789D01*
X113435462Y-105035787D01*
X113299000Y-104349744D01*
X113299000Y-103650256D01*
X113435462Y-102964213D01*
X113703144Y-102317972D01*
X113703144Y-102317971D01*
X114091758Y-101736369D01*
X114586369Y-101241758D01*
X115167971Y-100853144D01*
X115814211Y-100585463D01*
X115814210Y-100585463D01*
X115814213Y-100585462D01*
X116500256Y-100449000D01*
X117199744Y-100449000D01*
X117885787Y-100585462D01*
X117885787Y-100585462D01*
G37*
M02*
