G04 #@! TF.GenerationSoftware,KiCad,Pcbnew,(5.1.4)-1*
G04 #@! TF.CreationDate,2019-08-28T01:11:50-07:00*
G04 #@! TF.ProjectId,ESC Drivetrain V1,45534320-4472-4697-9665-747261696e20,rev?*
G04 #@! TF.SameCoordinates,Original*
G04 #@! TF.FileFunction,Copper,L1,Top*
G04 #@! TF.FilePolarity,Positive*
%FSLAX46Y46*%
G04 Gerber Fmt 4.6, Leading zero omitted, Abs format (unit mm)*
G04 Created by KiCad (PCBNEW (5.1.4)-1) date 2019-08-28 01:11:50*
%MOMM*%
%LPD*%
G04 APERTURE LIST*
%ADD10R,5.516000X5.516000*%
%ADD11C,5.516000*%
%ADD12R,0.750000X0.800000*%
%ADD13R,0.800000X0.750000*%
%ADD14R,2.500000X4.000000*%
%ADD15R,1.000000X1.250000*%
%ADD16R,0.800000X0.800000*%
%ADD17R,1.100000X1.100000*%
%ADD18R,1.700000X1.700000*%
%ADD19O,1.700000X1.700000*%
%ADD20R,0.900000X0.500000*%
%ADD21R,0.500000X0.900000*%
%ADD22C,0.500000*%
%ADD23R,0.300000X1.500000*%
%ADD24R,1.500000X0.300000*%
%ADD25R,5.170000X5.170000*%
%ADD26R,1.060000X0.650000*%
%ADD27C,0.100000*%
%ADD28C,1.000000*%
%ADD29C,7.000000*%
%ADD30C,0.250000*%
%ADD31C,0.203200*%
%ADD32C,0.344678*%
%ADD33C,0.500000*%
%ADD34C,0.254000*%
G04 APERTURE END LIST*
D10*
X106000000Y-108325000D03*
D11*
X106000000Y-115525000D03*
D12*
X122925000Y-142525000D03*
X122925000Y-144025000D03*
X118875000Y-129100000D03*
X118875000Y-127600000D03*
D13*
X132925000Y-130000000D03*
X131425000Y-130000000D03*
D12*
X118875000Y-124350000D03*
X118875000Y-125850000D03*
X110900000Y-131150000D03*
X110900000Y-129650000D03*
X110900000Y-134400000D03*
X110900000Y-132900000D03*
X110900000Y-126350000D03*
X110900000Y-127850000D03*
D13*
X134850000Y-123300000D03*
X136350000Y-123300000D03*
D14*
X116850000Y-116350000D03*
X116850000Y-110250000D03*
X125500000Y-116350000D03*
X125500000Y-110250000D03*
X134150000Y-116350000D03*
X134150000Y-110250000D03*
D13*
X137800000Y-123300000D03*
X139300000Y-123300000D03*
D12*
X110900000Y-137600000D03*
X110900000Y-136100000D03*
D13*
X140750000Y-123300000D03*
X142250000Y-123300000D03*
D15*
X121175000Y-138575000D03*
X119175000Y-138575000D03*
D13*
X126325000Y-146725000D03*
X124825000Y-146725000D03*
X109400000Y-138750000D03*
X107900000Y-138750000D03*
X109400000Y-141650000D03*
X107900000Y-141650000D03*
X109400000Y-144550000D03*
X107900000Y-144550000D03*
D16*
X109150000Y-101250000D03*
X109150000Y-102850000D03*
X113975000Y-123350000D03*
X113975000Y-124950000D03*
X115650000Y-140150000D03*
X115650000Y-141750000D03*
D17*
X119275000Y-147025000D03*
X122075000Y-147025000D03*
D18*
X135850000Y-145900000D03*
D19*
X138390000Y-145900000D03*
X140930000Y-145900000D03*
D20*
X131450000Y-132725000D03*
X131450000Y-131225000D03*
D21*
X116175000Y-128050000D03*
X117675000Y-128050000D03*
D20*
X107950000Y-131150000D03*
X107950000Y-129650000D03*
X107950000Y-134400000D03*
X107950000Y-132900000D03*
X107950000Y-126450000D03*
X107950000Y-127950000D03*
D21*
X113975000Y-121900000D03*
X115475000Y-121900000D03*
D20*
X107650000Y-102900000D03*
X107650000Y-101400000D03*
X115475000Y-124750000D03*
X115475000Y-123250000D03*
X109450000Y-129650000D03*
X109450000Y-131150000D03*
X109450000Y-132900000D03*
X109450000Y-134400000D03*
X109450000Y-127950000D03*
X109450000Y-126450000D03*
X107950000Y-137400000D03*
X107950000Y-135900000D03*
X109450000Y-135900000D03*
X109450000Y-137400000D03*
X115675000Y-143025000D03*
X115675000Y-144525000D03*
D21*
X124475000Y-141425000D03*
X125975000Y-141425000D03*
X127075000Y-141425000D03*
X128575000Y-141425000D03*
X109250000Y-140200000D03*
X107750000Y-140200000D03*
X109250000Y-143100000D03*
X107750000Y-143100000D03*
X109250000Y-146000000D03*
X107750000Y-146000000D03*
D20*
X140950000Y-141350000D03*
X140950000Y-142850000D03*
X138400000Y-141350000D03*
X138400000Y-142850000D03*
D22*
X127425000Y-125400000D03*
X127425000Y-128400000D03*
X127425000Y-126400000D03*
X127425000Y-127400000D03*
X127425000Y-129400000D03*
X126425000Y-125400000D03*
X126425000Y-128400000D03*
X126425000Y-126400000D03*
X126425000Y-127400000D03*
X126425000Y-129400000D03*
X125425000Y-125400000D03*
X125425000Y-128400000D03*
X125425000Y-126400000D03*
X125425000Y-127400000D03*
X125425000Y-129400000D03*
X124425000Y-125400000D03*
X124425000Y-128400000D03*
X124425000Y-126400000D03*
X124425000Y-127400000D03*
X124425000Y-129400000D03*
X123425000Y-125400000D03*
X123425000Y-127400000D03*
X123425000Y-126400000D03*
X123425000Y-128400000D03*
X123425000Y-129400000D03*
D23*
X122675000Y-131600000D03*
X123175000Y-131600000D03*
X123675000Y-131600000D03*
X124175000Y-131600000D03*
X124675000Y-131600000D03*
X125175000Y-131600000D03*
X125675000Y-131600000D03*
X126175000Y-131600000D03*
X126675000Y-131600000D03*
X127175000Y-131600000D03*
X127675000Y-131600000D03*
X128175000Y-131600000D03*
D24*
X129625000Y-130150000D03*
X129625000Y-129650000D03*
X129625000Y-129150000D03*
X129625000Y-128650000D03*
X129625000Y-128150000D03*
X129625000Y-127650000D03*
X129625000Y-127150000D03*
X129625000Y-126650000D03*
X129625000Y-126150000D03*
X129625000Y-125650000D03*
X129625000Y-125150000D03*
X129625000Y-124650000D03*
D23*
X128175000Y-123200000D03*
X127675000Y-123200000D03*
X127175000Y-123200000D03*
X126675000Y-123200000D03*
X126175000Y-123200000D03*
X125675000Y-123200000D03*
X125175000Y-123200000D03*
X124675000Y-123200000D03*
X124175000Y-123200000D03*
X123675000Y-123200000D03*
X123175000Y-123200000D03*
X122675000Y-123200000D03*
D24*
X121225000Y-124650000D03*
X121225000Y-125150000D03*
X121225000Y-125650000D03*
X121225000Y-126150000D03*
X121225000Y-126650000D03*
X121225000Y-127150000D03*
X121225000Y-127650000D03*
X121225000Y-128150000D03*
X121225000Y-128650000D03*
X121225000Y-129150000D03*
X121225000Y-129650000D03*
X121225000Y-130150000D03*
D25*
X125425000Y-127400000D03*
D26*
X126675000Y-145125000D03*
X126675000Y-144175000D03*
X126675000Y-143225000D03*
X124475000Y-143225000D03*
X124475000Y-145125000D03*
X124475000Y-144175000D03*
X109100000Y-121400000D03*
X109100000Y-122350000D03*
X109100000Y-123300000D03*
X111300000Y-123300000D03*
X111300000Y-121400000D03*
X111300000Y-122350000D03*
D18*
X105160000Y-123000000D03*
D19*
X102620000Y-123000000D03*
X105160000Y-125540000D03*
X102620000Y-125540000D03*
X105160000Y-128080000D03*
X102620000Y-128080000D03*
X105160000Y-130620000D03*
X102620000Y-130620000D03*
X105160000Y-133160000D03*
X102620000Y-133160000D03*
X105160000Y-135700000D03*
X102620000Y-135700000D03*
X105160000Y-138240000D03*
X102620000Y-138240000D03*
X105160000Y-140780000D03*
X102620000Y-140780000D03*
X105160000Y-143320000D03*
X102620000Y-143320000D03*
X105160000Y-145860000D03*
X102620000Y-145860000D03*
D18*
X148340000Y-123000000D03*
D19*
X145800000Y-123000000D03*
X148340000Y-125540000D03*
X145800000Y-125540000D03*
X148340000Y-128080000D03*
X145800000Y-128080000D03*
X148340000Y-130620000D03*
X145800000Y-130620000D03*
X148340000Y-133160000D03*
X145800000Y-133160000D03*
X148340000Y-135700000D03*
X145800000Y-135700000D03*
X148340000Y-138240000D03*
X145800000Y-138240000D03*
X148340000Y-140780000D03*
X145800000Y-140780000D03*
X148340000Y-143320000D03*
X145800000Y-143320000D03*
X148340000Y-145860000D03*
X145800000Y-145860000D03*
D27*
G36*
X120099504Y-144626204D02*
G01*
X120123773Y-144629804D01*
X120147571Y-144635765D01*
X120170671Y-144644030D01*
X120192849Y-144654520D01*
X120213893Y-144667133D01*
X120233598Y-144681747D01*
X120251777Y-144698223D01*
X120268253Y-144716402D01*
X120282867Y-144736107D01*
X120295480Y-144757151D01*
X120305970Y-144779329D01*
X120314235Y-144802429D01*
X120320196Y-144826227D01*
X120323796Y-144850496D01*
X120325000Y-144875000D01*
X120325000Y-145375000D01*
X120323796Y-145399504D01*
X120320196Y-145423773D01*
X120314235Y-145447571D01*
X120305970Y-145470671D01*
X120295480Y-145492849D01*
X120282867Y-145513893D01*
X120268253Y-145533598D01*
X120251777Y-145551777D01*
X120233598Y-145568253D01*
X120213893Y-145582867D01*
X120192849Y-145595480D01*
X120170671Y-145605970D01*
X120147571Y-145614235D01*
X120123773Y-145620196D01*
X120099504Y-145623796D01*
X120075000Y-145625000D01*
X118575000Y-145625000D01*
X118550496Y-145623796D01*
X118526227Y-145620196D01*
X118502429Y-145614235D01*
X118479329Y-145605970D01*
X118457151Y-145595480D01*
X118436107Y-145582867D01*
X118416402Y-145568253D01*
X118398223Y-145551777D01*
X118381747Y-145533598D01*
X118367133Y-145513893D01*
X118354520Y-145492849D01*
X118344030Y-145470671D01*
X118335765Y-145447571D01*
X118329804Y-145423773D01*
X118326204Y-145399504D01*
X118325000Y-145375000D01*
X118325000Y-144875000D01*
X118326204Y-144850496D01*
X118329804Y-144826227D01*
X118335765Y-144802429D01*
X118344030Y-144779329D01*
X118354520Y-144757151D01*
X118367133Y-144736107D01*
X118381747Y-144716402D01*
X118398223Y-144698223D01*
X118416402Y-144681747D01*
X118436107Y-144667133D01*
X118457151Y-144654520D01*
X118479329Y-144644030D01*
X118502429Y-144635765D01*
X118526227Y-144629804D01*
X118550496Y-144626204D01*
X118575000Y-144625000D01*
X120075000Y-144625000D01*
X120099504Y-144626204D01*
X120099504Y-144626204D01*
G37*
D28*
X119325000Y-145125000D03*
D27*
G36*
X120099504Y-139626204D02*
G01*
X120123773Y-139629804D01*
X120147571Y-139635765D01*
X120170671Y-139644030D01*
X120192849Y-139654520D01*
X120213893Y-139667133D01*
X120233598Y-139681747D01*
X120251777Y-139698223D01*
X120268253Y-139716402D01*
X120282867Y-139736107D01*
X120295480Y-139757151D01*
X120305970Y-139779329D01*
X120314235Y-139802429D01*
X120320196Y-139826227D01*
X120323796Y-139850496D01*
X120325000Y-139875000D01*
X120325000Y-140375000D01*
X120323796Y-140399504D01*
X120320196Y-140423773D01*
X120314235Y-140447571D01*
X120305970Y-140470671D01*
X120295480Y-140492849D01*
X120282867Y-140513893D01*
X120268253Y-140533598D01*
X120251777Y-140551777D01*
X120233598Y-140568253D01*
X120213893Y-140582867D01*
X120192849Y-140595480D01*
X120170671Y-140605970D01*
X120147571Y-140614235D01*
X120123773Y-140620196D01*
X120099504Y-140623796D01*
X120075000Y-140625000D01*
X118575000Y-140625000D01*
X118550496Y-140623796D01*
X118526227Y-140620196D01*
X118502429Y-140614235D01*
X118479329Y-140605970D01*
X118457151Y-140595480D01*
X118436107Y-140582867D01*
X118416402Y-140568253D01*
X118398223Y-140551777D01*
X118381747Y-140533598D01*
X118367133Y-140513893D01*
X118354520Y-140492849D01*
X118344030Y-140470671D01*
X118335765Y-140447571D01*
X118329804Y-140423773D01*
X118326204Y-140399504D01*
X118325000Y-140375000D01*
X118325000Y-139875000D01*
X118326204Y-139850496D01*
X118329804Y-139826227D01*
X118335765Y-139802429D01*
X118344030Y-139779329D01*
X118354520Y-139757151D01*
X118367133Y-139736107D01*
X118381747Y-139716402D01*
X118398223Y-139698223D01*
X118416402Y-139681747D01*
X118436107Y-139667133D01*
X118457151Y-139654520D01*
X118479329Y-139644030D01*
X118502429Y-139635765D01*
X118526227Y-139629804D01*
X118550496Y-139626204D01*
X118575000Y-139625000D01*
X120075000Y-139625000D01*
X120099504Y-139626204D01*
X120099504Y-139626204D01*
G37*
D28*
X119325000Y-140125000D03*
D29*
X116850000Y-104000000D03*
X125500000Y-104000000D03*
X134150000Y-104000000D03*
D13*
X118875000Y-130925000D03*
X117375000Y-130925000D03*
D22*
X117000000Y-130875000D03*
X124900000Y-144300000D03*
X115925000Y-128050000D03*
X137600000Y-117200000D03*
X136425000Y-117200000D03*
X135175000Y-117200000D03*
X135150000Y-118175000D03*
X133900000Y-117200000D03*
X133900000Y-118175000D03*
X128900000Y-117200000D03*
X127750000Y-117200000D03*
X126525000Y-117200000D03*
X126475000Y-118150000D03*
X125225000Y-117200000D03*
X125175000Y-118150000D03*
X123750000Y-117200000D03*
X117825000Y-118250000D03*
X116550000Y-118250000D03*
X120500000Y-117200000D03*
X119200000Y-117200000D03*
X117800000Y-117200000D03*
X116400000Y-117225000D03*
X114900000Y-117175000D03*
X132300000Y-117200000D03*
X107000000Y-137550000D03*
X116725000Y-125300000D03*
X119475000Y-126699996D03*
X109925000Y-101275000D03*
X123075000Y-144175000D03*
X122600000Y-143700000D03*
X131825000Y-119300000D03*
X132975000Y-119300000D03*
X123200000Y-119375000D03*
X124175000Y-119375000D03*
X114425000Y-119250000D03*
X115475000Y-119275000D03*
X130900000Y-109400000D03*
X132000000Y-109400000D03*
X122200000Y-109400000D03*
X123300000Y-109400000D03*
X114700000Y-109400000D03*
X113500000Y-109400000D03*
X113000000Y-108700000D03*
X114100000Y-108700000D03*
X115200000Y-108700000D03*
X121600000Y-108700000D03*
X122700000Y-108700000D03*
X123800000Y-108700000D03*
X130300000Y-108700000D03*
X131400000Y-108700000D03*
X132500000Y-108700000D03*
X109450000Y-126000000D03*
X110900000Y-125750000D03*
X110900000Y-131650000D03*
X109450000Y-131550000D03*
X109450000Y-134850000D03*
X109450000Y-137750000D03*
X110900000Y-138100000D03*
X109950000Y-138750000D03*
X109950000Y-141650000D03*
X109950000Y-144550000D03*
X108450000Y-122350000D03*
X116775000Y-123900000D03*
X116875000Y-126700000D03*
X116875000Y-129200000D03*
X106975000Y-101350000D03*
X139350000Y-110800000D03*
X140150000Y-110299997D03*
X133525000Y-130050000D03*
X122675000Y-147500000D03*
X122675000Y-146575000D03*
X127475000Y-144175000D03*
X129050000Y-141450000D03*
X122925000Y-142050000D03*
X121925000Y-138775000D03*
X121075000Y-137650000D03*
X115700000Y-145000000D03*
X138824994Y-111350000D03*
X110547452Y-134647452D03*
X118975000Y-129950002D03*
X107950000Y-129250000D03*
X110600000Y-121450000D03*
X107950000Y-132300000D03*
X111300000Y-123700000D03*
X107950000Y-128250000D03*
X108500000Y-123400000D03*
X114100000Y-114150000D03*
X138779687Y-112331714D03*
X136623226Y-122423226D03*
X119800000Y-120425000D03*
X122750000Y-113750000D03*
X122700000Y-120500000D03*
X139400000Y-112948390D03*
X139300000Y-122400000D03*
X108541523Y-121522974D03*
X128000000Y-121750000D03*
X131450000Y-113950000D03*
X140100000Y-113500000D03*
X142300000Y-122400000D03*
X119825000Y-124700000D03*
X119975000Y-124000000D03*
X117150000Y-138800000D03*
X118450000Y-138250000D03*
X117400000Y-140050000D03*
X120200000Y-140600000D03*
X121400000Y-139850000D03*
X123000000Y-140550000D03*
X121800000Y-140950000D03*
X118550000Y-139850000D03*
X112150000Y-122350000D03*
X113475000Y-121975000D03*
X120950000Y-130498400D03*
X115950000Y-139550000D03*
X131500000Y-132124012D03*
X135800000Y-131900000D03*
X138000000Y-131900000D03*
X138400000Y-140900000D03*
X141000000Y-140900000D03*
X118875000Y-130775000D03*
X115325000Y-113700000D03*
X107664090Y-121221363D03*
X113100000Y-113900004D03*
X107400000Y-120400000D03*
X113215081Y-113190487D03*
X124050000Y-113750000D03*
X113100000Y-112500000D03*
X130399994Y-113850000D03*
X107900000Y-119651610D03*
X129150000Y-131500000D03*
X115850000Y-132225000D03*
X124943201Y-135974537D03*
X119675000Y-132776600D03*
X126825000Y-138125000D03*
X142675000Y-142900000D03*
X143200000Y-141550000D03*
X126297819Y-137570367D03*
X124477887Y-135451566D03*
X143454358Y-136929358D03*
X125789150Y-137089460D03*
X124121404Y-134849124D03*
X132700000Y-131200000D03*
X137350000Y-130350000D03*
X123661845Y-134321087D03*
X123143767Y-133850330D03*
X122729544Y-133286029D03*
X125351365Y-136543236D03*
X122244555Y-132701945D03*
X128975000Y-113700000D03*
X124655986Y-121846640D03*
X129900000Y-119250000D03*
X129000000Y-118900000D03*
X127750000Y-118900000D03*
X136450000Y-119050000D03*
X135450000Y-119950000D03*
X135900000Y-121550000D03*
X119100000Y-118850000D03*
X122100000Y-123200000D03*
X120350000Y-113700000D03*
X122300000Y-121193570D03*
X119817634Y-128737447D03*
X117675000Y-128050000D03*
D30*
X107950000Y-137400000D02*
X107150000Y-137400000D01*
X107150000Y-137400000D02*
X107000000Y-137550000D01*
D31*
X121225000Y-126650000D02*
X119524996Y-126650000D01*
X119524996Y-126650000D02*
X119475000Y-126699996D01*
X109150000Y-101250000D02*
X109900000Y-101250000D01*
X109900000Y-101250000D02*
X109925000Y-101275000D01*
D32*
X123075000Y-144175000D02*
X123075000Y-144175000D01*
X124475000Y-144175000D02*
X123075000Y-144175000D01*
X116974999Y-125050001D02*
X116725000Y-125300000D01*
X117397340Y-124627660D02*
X116974999Y-125050001D01*
X117397340Y-119097340D02*
X117397340Y-124627660D01*
X116550000Y-118250000D02*
X117397340Y-119097340D01*
X116725000Y-125300000D02*
X116000000Y-126025000D01*
X116000000Y-126025000D02*
X116000000Y-128000000D01*
X123075000Y-144175000D02*
X122925000Y-144025000D01*
D30*
X109450000Y-126450000D02*
X109450000Y-126000000D01*
X110900000Y-126350000D02*
X110900000Y-125750000D01*
X110900000Y-131150000D02*
X110900000Y-131650000D01*
X109450000Y-131150000D02*
X109450000Y-131550000D01*
X109450000Y-134400000D02*
X109450000Y-134850000D01*
X109450000Y-137400000D02*
X109450000Y-137750000D01*
X110900000Y-137600000D02*
X110900000Y-138100000D01*
X109400000Y-138750000D02*
X109950000Y-138750000D01*
X109400000Y-141650000D02*
X109950000Y-141650000D01*
X109400000Y-144550000D02*
X109950000Y-144550000D01*
X109100000Y-122350000D02*
X108450000Y-122350000D01*
D31*
X123674999Y-128649999D02*
X123425000Y-128400000D01*
X121225000Y-128650000D02*
X123674999Y-128649999D01*
X107650000Y-101400000D02*
X107025000Y-101400000D01*
X107025000Y-101400000D02*
X106975000Y-101350000D01*
X127675000Y-129650000D02*
X125425000Y-127400000D01*
X129625000Y-129650000D02*
X127675000Y-129650000D01*
X132925000Y-130000000D02*
X133475000Y-130000000D01*
X133475000Y-130000000D02*
X133525000Y-130050000D01*
X122075000Y-147025000D02*
X122200000Y-147025000D01*
X122200000Y-147025000D02*
X122675000Y-147500000D01*
X122075000Y-147025000D02*
X122225000Y-147025000D01*
X122225000Y-147025000D02*
X122675000Y-146575000D01*
D32*
X129025000Y-141425000D02*
X129050000Y-141450000D01*
X128575000Y-141425000D02*
X129025000Y-141425000D01*
X126675000Y-144175000D02*
X127475000Y-144175000D01*
X122925000Y-142525000D02*
X122925000Y-142050000D01*
X121175000Y-138575000D02*
X121725000Y-138575000D01*
X121725000Y-138575000D02*
X121925000Y-138775000D01*
X121175000Y-138575000D02*
X121175000Y-137750000D01*
X121175000Y-137750000D02*
X121075000Y-137650000D01*
X115675000Y-144525000D02*
X115675000Y-144975000D01*
X115675000Y-144975000D02*
X115700000Y-145000000D01*
D31*
X134850000Y-123878200D02*
X134850000Y-123300000D01*
X134078200Y-124650000D02*
X134850000Y-123878200D01*
X129625000Y-124650000D02*
X134078200Y-124650000D01*
X137800000Y-123878200D02*
X137800000Y-123300000D01*
X136028200Y-125650000D02*
X137800000Y-123878200D01*
X129625000Y-125650000D02*
X136028200Y-125650000D01*
X140725000Y-123300000D02*
X140750000Y-123300000D01*
X137375000Y-126650000D02*
X140725000Y-123300000D01*
X129625000Y-126650000D02*
X137375000Y-126650000D01*
X137800000Y-122721800D02*
X137800000Y-123300000D01*
X141400000Y-119121800D02*
X137800000Y-122721800D01*
X141400000Y-112500000D02*
X141400000Y-119121800D01*
X139350000Y-110800000D02*
X139700000Y-110800000D01*
X139700000Y-110800000D02*
X141400000Y-112500000D01*
X140750000Y-123300000D02*
X140750000Y-121550000D01*
X140750000Y-121550000D02*
X142100000Y-120200000D01*
X142100000Y-112249997D02*
X140150000Y-110299997D01*
X142100000Y-120200000D02*
X142100000Y-112249997D01*
X134875000Y-123300000D02*
X135453200Y-122721800D01*
X140700000Y-117566370D02*
X140700000Y-113225006D01*
X139074993Y-111599999D02*
X138824994Y-111350000D01*
X140700000Y-113225006D02*
X139074993Y-111599999D01*
X135544570Y-122721800D02*
X140700000Y-117566370D01*
X135453200Y-122721800D02*
X135544570Y-122721800D01*
X134850000Y-123300000D02*
X134875000Y-123300000D01*
D30*
X110797451Y-134397453D02*
X110547452Y-134647452D01*
X110897453Y-134397453D02*
X110797451Y-134397453D01*
X110900000Y-134400000D02*
X110897453Y-134397453D01*
D31*
X120625000Y-127150000D02*
X120576601Y-127198399D01*
X121225000Y-127150000D02*
X120625000Y-127150000D01*
X119391366Y-127600000D02*
X118875000Y-127600000D01*
X121225000Y-127150000D02*
X119841366Y-127150000D01*
X119841366Y-127150000D02*
X119391366Y-127600000D01*
X118875000Y-128900000D02*
X118875000Y-129100000D01*
X121225000Y-127650000D02*
X120125000Y-127650000D01*
X120125000Y-127650000D02*
X118875000Y-128900000D01*
X131425000Y-129996800D02*
X131425000Y-130000000D01*
X130578200Y-129150000D02*
X131425000Y-129996800D01*
X129625000Y-129150000D02*
X130578200Y-129150000D01*
X118875000Y-124566370D02*
X118875000Y-124350000D01*
X119958630Y-125650000D02*
X118875000Y-124566370D01*
X121225000Y-125650000D02*
X119958630Y-125650000D01*
X120271800Y-126150000D02*
X121225000Y-126150000D01*
X119753200Y-126150000D02*
X120271800Y-126150000D01*
X118875000Y-125850000D02*
X119453200Y-125850000D01*
X119453200Y-125850000D02*
X119753200Y-126150000D01*
X119421449Y-129950002D02*
X118975000Y-129950002D01*
X121225000Y-129150000D02*
X120221451Y-129150000D01*
X120221451Y-129150000D02*
X119421449Y-129950002D01*
D30*
X107950000Y-129650000D02*
X107950000Y-129250000D01*
X109450000Y-129650000D02*
X107950000Y-129650000D01*
X110900000Y-129650000D02*
X109450000Y-129650000D01*
X111250000Y-121450000D02*
X110953553Y-121450000D01*
X110953553Y-121450000D02*
X110600000Y-121450000D01*
X111300000Y-121400000D02*
X111250000Y-121450000D01*
X107950000Y-132900000D02*
X107950000Y-132300000D01*
X107950000Y-132900000D02*
X109450000Y-132900000D01*
X109450000Y-132900000D02*
X110900000Y-132900000D01*
X111300000Y-123300000D02*
X111300000Y-123700000D01*
X107950000Y-127950000D02*
X107950000Y-128250000D01*
X107950000Y-127950000D02*
X109450000Y-127950000D01*
X110800000Y-127950000D02*
X110900000Y-127850000D01*
X109450000Y-127950000D02*
X110800000Y-127950000D01*
X109000000Y-123400000D02*
X109100000Y-123300000D01*
X108500000Y-123400000D02*
X109000000Y-123400000D01*
D31*
X123154736Y-121745188D02*
X121995188Y-121745188D01*
X121995188Y-121745188D02*
X121150000Y-120900000D01*
X123675000Y-122265452D02*
X123154736Y-121745188D01*
X123675000Y-123200000D02*
X123675000Y-122265452D01*
X136350000Y-123878200D02*
X136350000Y-123300000D01*
X135078200Y-125150000D02*
X136350000Y-123878200D01*
X129625000Y-125150000D02*
X135078200Y-125150000D01*
X136623226Y-122423226D02*
X136300000Y-122746452D01*
X136300000Y-123250000D02*
X136350000Y-123300000D01*
X136300000Y-122746452D02*
X136300000Y-123250000D01*
X121150000Y-120900000D02*
X120275000Y-120900000D01*
X120275000Y-120900000D02*
X119800000Y-120425000D01*
X125207587Y-122214213D02*
X125207587Y-121581871D01*
X124125716Y-120500000D02*
X123053553Y-120500000D01*
X125175000Y-122246800D02*
X125207587Y-122214213D01*
X123053553Y-120500000D02*
X122700000Y-120500000D01*
X125207587Y-121581871D02*
X124125716Y-120500000D01*
X125175000Y-123200000D02*
X125175000Y-122246800D01*
X139300000Y-123878200D02*
X139300000Y-123300000D01*
X137028200Y-126150000D02*
X139300000Y-123878200D01*
X129625000Y-126150000D02*
X137028200Y-126150000D01*
X139300000Y-122400000D02*
X139300000Y-123300000D01*
D30*
X105360000Y-135900000D02*
X105160000Y-135700000D01*
X107950000Y-135900000D02*
X105360000Y-135900000D01*
X109450000Y-135900000D02*
X107950000Y-135900000D01*
X110700000Y-135900000D02*
X110900000Y-136100000D01*
X109450000Y-135900000D02*
X110700000Y-135900000D01*
X108977026Y-121522974D02*
X108895076Y-121522974D01*
X109100000Y-121400000D02*
X108977026Y-121522974D01*
X108895076Y-121522974D02*
X108541523Y-121522974D01*
D31*
X127675000Y-123200000D02*
X127675000Y-122075000D01*
X127675000Y-122075000D02*
X128000000Y-121750000D01*
X142250000Y-123878200D02*
X142250000Y-123300000D01*
X138978200Y-127150000D02*
X142250000Y-123878200D01*
X129625000Y-127150000D02*
X138978200Y-127150000D01*
X142300000Y-123250000D02*
X142250000Y-123300000D01*
X142300000Y-122400000D02*
X142300000Y-123250000D01*
X120271800Y-125150000D02*
X119825000Y-124703200D01*
X121225000Y-125150000D02*
X120271800Y-125150000D01*
X119825000Y-124703200D02*
X119825000Y-124700000D01*
X121225000Y-124650000D02*
X120625000Y-124650000D01*
X120224999Y-124249999D02*
X119975000Y-124000000D01*
X120625000Y-124650000D02*
X120224999Y-124249999D01*
D30*
X111300000Y-122350000D02*
X112150000Y-122350000D01*
D31*
X113975000Y-121900000D02*
X113550000Y-121900000D01*
X113550000Y-121900000D02*
X113475000Y-121975000D01*
X113975000Y-123350000D02*
X113975000Y-121900000D01*
D32*
X124475000Y-141225000D02*
X124475000Y-141425000D01*
D31*
X121225000Y-130150000D02*
X121225000Y-130223400D01*
X121225000Y-130223400D02*
X120950000Y-130498400D01*
D30*
X131450000Y-132725000D02*
X131450000Y-132174012D01*
X131450000Y-132174012D02*
X131500000Y-132124012D01*
X135800000Y-131900000D02*
X136153553Y-131900000D01*
X136153553Y-131900000D02*
X138000000Y-131900000D01*
X138400000Y-141350000D02*
X138400000Y-140900000D01*
X140950000Y-141350000D02*
X140950000Y-140950000D01*
X140950000Y-140950000D02*
X141000000Y-140900000D01*
D32*
X124475000Y-146375000D02*
X124825000Y-146725000D01*
X124475000Y-145125000D02*
X124475000Y-146375000D01*
X126675000Y-146375000D02*
X126325000Y-146725000D01*
X126675000Y-145125000D02*
X126675000Y-146375000D01*
D30*
X106740000Y-138240000D02*
X105160000Y-138240000D01*
X107900000Y-138750000D02*
X107250000Y-138750000D01*
X107250000Y-138750000D02*
X106740000Y-138240000D01*
X107750000Y-138900000D02*
X107900000Y-138750000D01*
X107750000Y-140200000D02*
X107750000Y-138900000D01*
X106380000Y-140780000D02*
X105160000Y-140780000D01*
X107900000Y-141650000D02*
X107250000Y-141650000D01*
X107250000Y-141650000D02*
X106380000Y-140780000D01*
X107750000Y-141800000D02*
X107900000Y-141650000D01*
X107750000Y-143100000D02*
X107750000Y-141800000D01*
X106020000Y-143320000D02*
X105160000Y-143320000D01*
X107900000Y-144550000D02*
X107250000Y-144550000D01*
X107250000Y-144550000D02*
X106020000Y-143320000D01*
X107750000Y-144700000D02*
X107900000Y-144550000D01*
X107750000Y-146000000D02*
X107750000Y-144700000D01*
D31*
X109100000Y-102900000D02*
X109150000Y-102850000D01*
X107650000Y-102900000D02*
X109100000Y-102900000D01*
X114175000Y-124750000D02*
X113975000Y-124950000D01*
X115475000Y-124750000D02*
X114175000Y-124750000D01*
D32*
X115650000Y-143000000D02*
X115675000Y-143025000D01*
X115650000Y-141750000D02*
X115650000Y-143000000D01*
D30*
X108000000Y-126400000D02*
X107950000Y-126450000D01*
D31*
X107664090Y-121574916D02*
X107664090Y-121221363D01*
X107664090Y-125710890D02*
X107664090Y-121574916D01*
X107950000Y-125996800D02*
X107664090Y-125710890D01*
X107950000Y-126450000D02*
X107950000Y-125996800D01*
X113453553Y-113900004D02*
X113100000Y-113900004D01*
X113803557Y-113550000D02*
X113453553Y-113900004D01*
X115325000Y-113700000D02*
X115175000Y-113550000D01*
X115175000Y-113550000D02*
X113803557Y-113550000D01*
X107750000Y-131150000D02*
X107950000Y-131150000D01*
X107112489Y-130512489D02*
X107750000Y-131150000D01*
X107112489Y-120687511D02*
X107112489Y-130512489D01*
X107400000Y-120400000D02*
X107112489Y-120687511D01*
X113215081Y-113190487D02*
X113568634Y-113190487D01*
X113568634Y-113190487D02*
X113659121Y-113100000D01*
X113659121Y-113100000D02*
X123400000Y-113100000D01*
X123800001Y-113500001D02*
X124050000Y-113750000D01*
X123400000Y-113100000D02*
X123800001Y-113500001D01*
X113578553Y-112625000D02*
X129174994Y-112625000D01*
X113453553Y-112500000D02*
X113578553Y-112625000D01*
X130149995Y-113600001D02*
X130399994Y-113850000D01*
X129174994Y-112625000D02*
X130149995Y-113600001D01*
X113100000Y-112500000D02*
X113453553Y-112500000D01*
X107546447Y-119651610D02*
X107900000Y-119651610D01*
X107332020Y-119651610D02*
X107546447Y-119651610D01*
X106600000Y-120383630D02*
X107332020Y-119651610D01*
X106600000Y-133250000D02*
X106600000Y-120383630D01*
X107950000Y-134400000D02*
X107750000Y-134400000D01*
X107750000Y-134400000D02*
X106600000Y-133250000D01*
X128275000Y-131500000D02*
X128175000Y-131600000D01*
X129150000Y-131500000D02*
X128275000Y-131500000D01*
X115850000Y-132225000D02*
X115625000Y-132225000D01*
X112775000Y-129375000D02*
X114750000Y-131350000D01*
X114750000Y-131350000D02*
X114650000Y-131250000D01*
X115625000Y-132225000D02*
X114750000Y-131350000D01*
X115128200Y-120900000D02*
X112775000Y-120900000D01*
X115475000Y-121246800D02*
X115128200Y-120900000D01*
X115475000Y-121900000D02*
X115475000Y-121246800D01*
X112775000Y-120900000D02*
X112775000Y-129375000D01*
X115475000Y-123250000D02*
X115475000Y-121900000D01*
X112775000Y-120800000D02*
X112775000Y-120900000D01*
X111075000Y-119100000D02*
X112775000Y-120800000D01*
X103625000Y-119100000D02*
X111075000Y-119100000D01*
X101300000Y-121425000D02*
X103625000Y-119100000D01*
X102620000Y-128080000D02*
X101300000Y-126760000D01*
X101300000Y-126760000D02*
X101300000Y-121425000D01*
X126175000Y-131600000D02*
X126175000Y-134742738D01*
X125193200Y-135724538D02*
X124943201Y-135974537D01*
X126175000Y-134742738D02*
X125193200Y-135724538D01*
X120291676Y-129650000D02*
X121225000Y-129650000D01*
X119675000Y-132776600D02*
X119675000Y-130266676D01*
X119675000Y-130266676D02*
X120291676Y-129650000D01*
X138400000Y-145890000D02*
X138390000Y-145900000D01*
X138400000Y-142850000D02*
X138400000Y-145890000D01*
X145800000Y-140780000D02*
X144380000Y-142200000D01*
X139053200Y-142850000D02*
X138400000Y-142850000D01*
X139703200Y-142200000D02*
X139053200Y-142850000D01*
X144380000Y-142200000D02*
X139703200Y-142200000D01*
X126471447Y-138125000D02*
X126825000Y-138125000D01*
X126033630Y-138125000D02*
X126471447Y-138125000D01*
X121550000Y-133641370D02*
X126033630Y-138125000D01*
X121550000Y-132075000D02*
X121550000Y-133641370D01*
X122025000Y-131600000D02*
X121550000Y-132075000D01*
X122675000Y-131600000D02*
X122025000Y-131600000D01*
X141190000Y-142850000D02*
X140950000Y-142850000D01*
X140950000Y-145880000D02*
X140930000Y-145900000D01*
X140950000Y-142850000D02*
X140950000Y-145880000D01*
X140950000Y-142850000D02*
X142625000Y-142850000D01*
X142625000Y-142850000D02*
X142675000Y-142900000D01*
X143200000Y-141550000D02*
X143475000Y-141275000D01*
X143475000Y-140565000D02*
X145800000Y-138240000D01*
X143475000Y-141275000D02*
X143475000Y-140565000D01*
X127675000Y-131600000D02*
X127675000Y-136193186D01*
X127675000Y-136193186D02*
X126547818Y-137320368D01*
X126547818Y-137320368D02*
X126297819Y-137570367D01*
X125675000Y-134254453D02*
X124727886Y-135201567D01*
X125675000Y-131600000D02*
X125675000Y-134254453D01*
X124727886Y-135201567D02*
X124477887Y-135451566D01*
X143807911Y-136929358D02*
X143454358Y-136929358D01*
X147110642Y-136929358D02*
X143807911Y-136929358D01*
X148340000Y-135700000D02*
X147110642Y-136929358D01*
X127175000Y-135703610D02*
X126039149Y-136839461D01*
X127175000Y-131600000D02*
X127175000Y-135703610D01*
X126039149Y-136839461D02*
X125789150Y-137089460D01*
X124371403Y-134599125D02*
X124121404Y-134849124D01*
X125175000Y-131600000D02*
X125175000Y-133795528D01*
X125175000Y-133795528D02*
X124371403Y-134599125D01*
X129625000Y-130503200D02*
X129625000Y-130150000D01*
X130346800Y-131225000D02*
X129625000Y-130503200D01*
X131450000Y-131225000D02*
X130346800Y-131225000D01*
X131475000Y-131200000D02*
X131450000Y-131225000D01*
X132700000Y-131200000D02*
X131475000Y-131200000D01*
X143375000Y-130350000D02*
X137350000Y-130350000D01*
X144875000Y-131850000D02*
X143375000Y-130350000D01*
X148340000Y-133160000D02*
X147030000Y-131850000D01*
X147030000Y-131850000D02*
X144875000Y-131850000D01*
X124675000Y-131600000D02*
X124675000Y-133307932D01*
X123911844Y-134071088D02*
X123661845Y-134321087D01*
X124675000Y-133307932D02*
X123911844Y-134071088D01*
X123393766Y-133600331D02*
X123143767Y-133850330D01*
X124175000Y-132819097D02*
X123393766Y-133600331D01*
X124175000Y-131600000D02*
X124175000Y-132819097D01*
X123083097Y-133286029D02*
X122729544Y-133286029D01*
X123675000Y-132694126D02*
X123083097Y-133286029D01*
X123675000Y-131600000D02*
X123675000Y-132694126D01*
X126675000Y-131600000D02*
X126675000Y-135219601D01*
X125601364Y-136293237D02*
X125351365Y-136543236D01*
X126675000Y-135219601D02*
X125601364Y-136293237D01*
X122598108Y-132701945D02*
X122244555Y-132701945D01*
X123026255Y-132701945D02*
X122598108Y-132701945D01*
X123175000Y-132553200D02*
X123026255Y-132701945D01*
X123175000Y-131600000D02*
X123175000Y-132553200D01*
X124675000Y-123200000D02*
X124675000Y-121865654D01*
X124675000Y-121865654D02*
X124655986Y-121846640D01*
X128400000Y-119500000D02*
X129000000Y-118900000D01*
X128100000Y-119500000D02*
X128400000Y-119500000D01*
X126175000Y-123200000D02*
X126175000Y-121425000D01*
X126175000Y-121425000D02*
X128100000Y-119500000D01*
X127650000Y-118900000D02*
X127750000Y-118900000D01*
X125675000Y-123200000D02*
X125675000Y-120875000D01*
X125675000Y-120875000D02*
X127650000Y-118900000D01*
X136450000Y-119900000D02*
X136450000Y-119050000D01*
X135300000Y-121050000D02*
X136450000Y-119900000D01*
X127883630Y-121050000D02*
X135300000Y-121050000D01*
X127175000Y-123200000D02*
X127175000Y-121758630D01*
X127175000Y-121758630D02*
X127883630Y-121050000D01*
X135350000Y-119950000D02*
X135450000Y-119950000D01*
X134750000Y-120550000D02*
X135350000Y-119950000D01*
X127813404Y-120550000D02*
X134750000Y-120550000D01*
X126675000Y-123200000D02*
X126675000Y-121688404D01*
X126675000Y-121688404D02*
X127813404Y-120550000D01*
X128528200Y-123200000D02*
X128175000Y-123200000D01*
X135900000Y-121550000D02*
X130178200Y-121550000D01*
X130178200Y-121550000D02*
X128528200Y-123200000D01*
X119100000Y-119153575D02*
X119100000Y-118800022D01*
X119100000Y-121000000D02*
X119100000Y-119153575D01*
X120248399Y-122148399D02*
X119100000Y-121000000D01*
X122987721Y-122148399D02*
X120248399Y-122148399D01*
X123175000Y-123200000D02*
X123175000Y-122335678D01*
X123175000Y-122335678D02*
X122987721Y-122148399D01*
X122675000Y-123200000D02*
X122675000Y-122600000D01*
X122675000Y-123200000D02*
X122100000Y-123200000D01*
X123173344Y-121193570D02*
X122653553Y-121193570D01*
X122653553Y-121193570D02*
X122300000Y-121193570D01*
X124175000Y-123200000D02*
X124175000Y-122195226D01*
X124175000Y-122195226D02*
X123173344Y-121193570D01*
X119817634Y-128604166D02*
X119817634Y-128737447D01*
X121225000Y-128150000D02*
X120271800Y-128150000D01*
X120271800Y-128150000D02*
X119817634Y-128604166D01*
X126900000Y-141600000D02*
X127075000Y-141425000D01*
X126675000Y-143225000D02*
X126900000Y-143000000D01*
D32*
X127075000Y-141425000D02*
X125975000Y-141425000D01*
X126675000Y-141825000D02*
X127075000Y-141425000D01*
X126675000Y-143225000D02*
X126675000Y-141825000D01*
X126569678Y-141425000D02*
X125975000Y-141425000D01*
X126675000Y-141530322D02*
X126569678Y-141425000D01*
X126675000Y-141825000D02*
X126675000Y-141530322D01*
D31*
X110650000Y-140200000D02*
X109075000Y-140200000D01*
X115250000Y-135600000D02*
X110650000Y-140200000D01*
X122225000Y-135600000D02*
X115250000Y-135600000D01*
X132941370Y-128650000D02*
X134076601Y-129785231D01*
X129625000Y-128650000D02*
X132941370Y-128650000D01*
X134076601Y-129785231D02*
X134076601Y-133948399D01*
X134076601Y-133948399D02*
X129200000Y-138825000D01*
X129200000Y-138825000D02*
X125450000Y-138825000D01*
X125450000Y-138825000D02*
X122225000Y-135600000D01*
X109703200Y-143100000D02*
X109250000Y-143100000D01*
X110817015Y-141986185D02*
X109703200Y-143100000D01*
X110817015Y-141007985D02*
X110817015Y-141986185D01*
X115625000Y-136200000D02*
X110817015Y-141007985D01*
X121950000Y-136200000D02*
X115625000Y-136200000D01*
X133275000Y-128150000D02*
X134575000Y-129450000D01*
X129625000Y-128150000D02*
X133275000Y-128150000D01*
X134575000Y-129450000D02*
X134575000Y-134250000D01*
X134575000Y-134250000D02*
X129500000Y-139325000D01*
X129500000Y-139325000D02*
X125075000Y-139325000D01*
X125075000Y-139325000D02*
X121950000Y-136200000D01*
X111220225Y-141479775D02*
X111220225Y-144482975D01*
X121575000Y-136800000D02*
X115900000Y-136800000D01*
X115900000Y-136800000D02*
X111220225Y-141479775D01*
X133525000Y-127650000D02*
X135100000Y-129225000D01*
X129625000Y-127650000D02*
X133525000Y-127650000D01*
X111220225Y-144482975D02*
X109703200Y-146000000D01*
X135100000Y-129225000D02*
X135100000Y-134575000D01*
X109703200Y-146000000D02*
X109250000Y-146000000D01*
X135100000Y-134575000D02*
X129825000Y-139850000D01*
X129825000Y-139850000D02*
X124625000Y-139850000D01*
X124625000Y-139850000D02*
X121575000Y-136800000D01*
D33*
G36*
X134964145Y-108460602D02*
G01*
X135023921Y-108485362D01*
X135075251Y-108524749D01*
X135114638Y-108576079D01*
X135139398Y-108635855D01*
X135150000Y-108716384D01*
X135150000Y-111783616D01*
X135139398Y-111864145D01*
X135114638Y-111923921D01*
X135075251Y-111975251D01*
X135023921Y-112014638D01*
X134964145Y-112039398D01*
X134883616Y-112050000D01*
X133101408Y-112050000D01*
X133027992Y-112041221D01*
X132972761Y-112020618D01*
X132911529Y-111979168D01*
X130249779Y-109672318D01*
X130191839Y-109605441D01*
X130162591Y-109541389D01*
X130150000Y-109453807D01*
X130150000Y-108716384D01*
X130160602Y-108635855D01*
X130185362Y-108576079D01*
X130224749Y-108524749D01*
X130276079Y-108485362D01*
X130335855Y-108460602D01*
X130416384Y-108450000D01*
X134883616Y-108450000D01*
X134964145Y-108460602D01*
X134964145Y-108460602D01*
G37*
X134964145Y-108460602D02*
X135023921Y-108485362D01*
X135075251Y-108524749D01*
X135114638Y-108576079D01*
X135139398Y-108635855D01*
X135150000Y-108716384D01*
X135150000Y-111783616D01*
X135139398Y-111864145D01*
X135114638Y-111923921D01*
X135075251Y-111975251D01*
X135023921Y-112014638D01*
X134964145Y-112039398D01*
X134883616Y-112050000D01*
X133101408Y-112050000D01*
X133027992Y-112041221D01*
X132972761Y-112020618D01*
X132911529Y-111979168D01*
X130249779Y-109672318D01*
X130191839Y-109605441D01*
X130162591Y-109541389D01*
X130150000Y-109453807D01*
X130150000Y-108716384D01*
X130160602Y-108635855D01*
X130185362Y-108576079D01*
X130224749Y-108524749D01*
X130276079Y-108485362D01*
X130335855Y-108460602D01*
X130416384Y-108450000D01*
X134883616Y-108450000D01*
X134964145Y-108460602D01*
G36*
X126364145Y-108460602D02*
G01*
X126423921Y-108485362D01*
X126475251Y-108524749D01*
X126514638Y-108576079D01*
X126539398Y-108635855D01*
X126550000Y-108716384D01*
X126550000Y-111783616D01*
X126539398Y-111864145D01*
X126514638Y-111923921D01*
X126475251Y-111975251D01*
X126423921Y-112014638D01*
X126402768Y-112023400D01*
X124380219Y-112023400D01*
X124372761Y-112020618D01*
X124311529Y-111979168D01*
X121649779Y-109672318D01*
X121591839Y-109605441D01*
X121562591Y-109541389D01*
X121550000Y-109453807D01*
X121550000Y-108716384D01*
X121560602Y-108635855D01*
X121585362Y-108576079D01*
X121624749Y-108524749D01*
X121676079Y-108485362D01*
X121735855Y-108460602D01*
X121816384Y-108450000D01*
X126283616Y-108450000D01*
X126364145Y-108460602D01*
X126364145Y-108460602D01*
G37*
X126364145Y-108460602D02*
X126423921Y-108485362D01*
X126475251Y-108524749D01*
X126514638Y-108576079D01*
X126539398Y-108635855D01*
X126550000Y-108716384D01*
X126550000Y-111783616D01*
X126539398Y-111864145D01*
X126514638Y-111923921D01*
X126475251Y-111975251D01*
X126423921Y-112014638D01*
X126402768Y-112023400D01*
X124380219Y-112023400D01*
X124372761Y-112020618D01*
X124311529Y-111979168D01*
X121649779Y-109672318D01*
X121591839Y-109605441D01*
X121562591Y-109541389D01*
X121550000Y-109453807D01*
X121550000Y-108716384D01*
X121560602Y-108635855D01*
X121585362Y-108576079D01*
X121624749Y-108524749D01*
X121676079Y-108485362D01*
X121735855Y-108460602D01*
X121816384Y-108450000D01*
X126283616Y-108450000D01*
X126364145Y-108460602D01*
G36*
X117664145Y-108460602D02*
G01*
X117723921Y-108485362D01*
X117775251Y-108524749D01*
X117814638Y-108576079D01*
X117839398Y-108635855D01*
X117850000Y-108716384D01*
X117850000Y-111783616D01*
X117839398Y-111864145D01*
X117814638Y-111923921D01*
X117775251Y-111975251D01*
X117723921Y-112014638D01*
X117702768Y-112023400D01*
X115680219Y-112023400D01*
X115672761Y-112020618D01*
X115611529Y-111979168D01*
X112949779Y-109672318D01*
X112891839Y-109605441D01*
X112862591Y-109541389D01*
X112850000Y-109453807D01*
X112850000Y-108716384D01*
X112860602Y-108635855D01*
X112885362Y-108576079D01*
X112924749Y-108524749D01*
X112976079Y-108485362D01*
X113035855Y-108460602D01*
X113116384Y-108450000D01*
X117583616Y-108450000D01*
X117664145Y-108460602D01*
X117664145Y-108460602D01*
G37*
X117664145Y-108460602D02*
X117723921Y-108485362D01*
X117775251Y-108524749D01*
X117814638Y-108576079D01*
X117839398Y-108635855D01*
X117850000Y-108716384D01*
X117850000Y-111783616D01*
X117839398Y-111864145D01*
X117814638Y-111923921D01*
X117775251Y-111975251D01*
X117723921Y-112014638D01*
X117702768Y-112023400D01*
X115680219Y-112023400D01*
X115672761Y-112020618D01*
X115611529Y-111979168D01*
X112949779Y-109672318D01*
X112891839Y-109605441D01*
X112862591Y-109541389D01*
X112850000Y-109453807D01*
X112850000Y-108716384D01*
X112860602Y-108635855D01*
X112885362Y-108576079D01*
X112924749Y-108524749D01*
X112976079Y-108485362D01*
X113035855Y-108460602D01*
X113116384Y-108450000D01*
X117583616Y-108450000D01*
X117664145Y-108460602D01*
G36*
X117965192Y-114559600D02*
G01*
X118022543Y-114582074D01*
X118085351Y-114627147D01*
X120457238Y-116823338D01*
X120511207Y-116889193D01*
X120538346Y-116951307D01*
X120550000Y-117035648D01*
X120550000Y-117180326D01*
X120539695Y-117245391D01*
X120518833Y-117286334D01*
X120486334Y-117318833D01*
X120445391Y-117339695D01*
X120380326Y-117350000D01*
X118400000Y-117350000D01*
X118367369Y-117352139D01*
X118237959Y-117369176D01*
X118174919Y-117386067D01*
X118054329Y-117436017D01*
X117997808Y-117468650D01*
X117894255Y-117548110D01*
X117848110Y-117594255D01*
X117768650Y-117697808D01*
X117736017Y-117754329D01*
X117686067Y-117874919D01*
X117669176Y-117937959D01*
X117652139Y-118067369D01*
X117650000Y-118100000D01*
X117650000Y-118283616D01*
X117639398Y-118364145D01*
X117614638Y-118423921D01*
X117575251Y-118475251D01*
X117523921Y-118514638D01*
X117464145Y-118539398D01*
X117383616Y-118550000D01*
X115674553Y-118550000D01*
X115548869Y-118525000D01*
X115401131Y-118525000D01*
X115275447Y-118550000D01*
X115016384Y-118550000D01*
X114935855Y-118539398D01*
X114876079Y-118514638D01*
X114824749Y-118475251D01*
X114785362Y-118423921D01*
X114760602Y-118364145D01*
X114750000Y-118283616D01*
X114750000Y-116931136D01*
X114781642Y-116780655D01*
X115690144Y-114715878D01*
X115737635Y-114639966D01*
X115791081Y-114592836D01*
X115855744Y-114562898D01*
X115944358Y-114550000D01*
X117888483Y-114550000D01*
X117965192Y-114559600D01*
X117965192Y-114559600D01*
G37*
X117965192Y-114559600D02*
X118022543Y-114582074D01*
X118085351Y-114627147D01*
X120457238Y-116823338D01*
X120511207Y-116889193D01*
X120538346Y-116951307D01*
X120550000Y-117035648D01*
X120550000Y-117180326D01*
X120539695Y-117245391D01*
X120518833Y-117286334D01*
X120486334Y-117318833D01*
X120445391Y-117339695D01*
X120380326Y-117350000D01*
X118400000Y-117350000D01*
X118367369Y-117352139D01*
X118237959Y-117369176D01*
X118174919Y-117386067D01*
X118054329Y-117436017D01*
X117997808Y-117468650D01*
X117894255Y-117548110D01*
X117848110Y-117594255D01*
X117768650Y-117697808D01*
X117736017Y-117754329D01*
X117686067Y-117874919D01*
X117669176Y-117937959D01*
X117652139Y-118067369D01*
X117650000Y-118100000D01*
X117650000Y-118283616D01*
X117639398Y-118364145D01*
X117614638Y-118423921D01*
X117575251Y-118475251D01*
X117523921Y-118514638D01*
X117464145Y-118539398D01*
X117383616Y-118550000D01*
X115674553Y-118550000D01*
X115548869Y-118525000D01*
X115401131Y-118525000D01*
X115275447Y-118550000D01*
X115016384Y-118550000D01*
X114935855Y-118539398D01*
X114876079Y-118514638D01*
X114824749Y-118475251D01*
X114785362Y-118423921D01*
X114760602Y-118364145D01*
X114750000Y-118283616D01*
X114750000Y-116931136D01*
X114781642Y-116780655D01*
X115690144Y-114715878D01*
X115737635Y-114639966D01*
X115791081Y-114592836D01*
X115855744Y-114562898D01*
X115944358Y-114550000D01*
X117888483Y-114550000D01*
X117965192Y-114559600D01*
G36*
X126565192Y-114559600D02*
G01*
X126622543Y-114582074D01*
X126685351Y-114627147D01*
X129057238Y-116823338D01*
X129111207Y-116889193D01*
X129138346Y-116951307D01*
X129150000Y-117035648D01*
X129150000Y-117180326D01*
X129139695Y-117245391D01*
X129118833Y-117286334D01*
X129086334Y-117318833D01*
X129045391Y-117339695D01*
X128980326Y-117350000D01*
X127000000Y-117350000D01*
X126967369Y-117352139D01*
X126837959Y-117369176D01*
X126774919Y-117386067D01*
X126654329Y-117436017D01*
X126597808Y-117468650D01*
X126494255Y-117548110D01*
X126448110Y-117594255D01*
X126368650Y-117697808D01*
X126336017Y-117754329D01*
X126286067Y-117874919D01*
X126269176Y-117937959D01*
X126252139Y-118067369D01*
X126250000Y-118100000D01*
X126250000Y-118283616D01*
X126239398Y-118364145D01*
X126214638Y-118423921D01*
X126175251Y-118475251D01*
X126123921Y-118514638D01*
X126064145Y-118539398D01*
X125983616Y-118550000D01*
X123616384Y-118550000D01*
X123535855Y-118539398D01*
X123476079Y-118514638D01*
X123424749Y-118475251D01*
X123385362Y-118423921D01*
X123360602Y-118364145D01*
X123350000Y-118283616D01*
X123350000Y-116931136D01*
X123381642Y-116780655D01*
X124290144Y-114715878D01*
X124337635Y-114639966D01*
X124391081Y-114592836D01*
X124455744Y-114562898D01*
X124544358Y-114550000D01*
X126488483Y-114550000D01*
X126565192Y-114559600D01*
X126565192Y-114559600D01*
G37*
X126565192Y-114559600D02*
X126622543Y-114582074D01*
X126685351Y-114627147D01*
X129057238Y-116823338D01*
X129111207Y-116889193D01*
X129138346Y-116951307D01*
X129150000Y-117035648D01*
X129150000Y-117180326D01*
X129139695Y-117245391D01*
X129118833Y-117286334D01*
X129086334Y-117318833D01*
X129045391Y-117339695D01*
X128980326Y-117350000D01*
X127000000Y-117350000D01*
X126967369Y-117352139D01*
X126837959Y-117369176D01*
X126774919Y-117386067D01*
X126654329Y-117436017D01*
X126597808Y-117468650D01*
X126494255Y-117548110D01*
X126448110Y-117594255D01*
X126368650Y-117697808D01*
X126336017Y-117754329D01*
X126286067Y-117874919D01*
X126269176Y-117937959D01*
X126252139Y-118067369D01*
X126250000Y-118100000D01*
X126250000Y-118283616D01*
X126239398Y-118364145D01*
X126214638Y-118423921D01*
X126175251Y-118475251D01*
X126123921Y-118514638D01*
X126064145Y-118539398D01*
X125983616Y-118550000D01*
X123616384Y-118550000D01*
X123535855Y-118539398D01*
X123476079Y-118514638D01*
X123424749Y-118475251D01*
X123385362Y-118423921D01*
X123360602Y-118364145D01*
X123350000Y-118283616D01*
X123350000Y-116931136D01*
X123381642Y-116780655D01*
X124290144Y-114715878D01*
X124337635Y-114639966D01*
X124391081Y-114592836D01*
X124455744Y-114562898D01*
X124544358Y-114550000D01*
X126488483Y-114550000D01*
X126565192Y-114559600D01*
G36*
X135265192Y-114559600D02*
G01*
X135322543Y-114582074D01*
X135385351Y-114627147D01*
X137757238Y-116823338D01*
X137811207Y-116889193D01*
X137838346Y-116951307D01*
X137850000Y-117035648D01*
X137850000Y-117180326D01*
X137839695Y-117245391D01*
X137818833Y-117286334D01*
X137786334Y-117318833D01*
X137745391Y-117339695D01*
X137680326Y-117350000D01*
X135700000Y-117350000D01*
X135667369Y-117352139D01*
X135537959Y-117369176D01*
X135474919Y-117386067D01*
X135354329Y-117436017D01*
X135297808Y-117468650D01*
X135194255Y-117548110D01*
X135148110Y-117594255D01*
X135068650Y-117697808D01*
X135036017Y-117754329D01*
X134986067Y-117874919D01*
X134969176Y-117937959D01*
X134952139Y-118067369D01*
X134950000Y-118100000D01*
X134950000Y-118283616D01*
X134939398Y-118364145D01*
X134914638Y-118423921D01*
X134875251Y-118475251D01*
X134823921Y-118514638D01*
X134764145Y-118539398D01*
X134683616Y-118550000D01*
X132416384Y-118550000D01*
X132335855Y-118539398D01*
X132276079Y-118514638D01*
X132224749Y-118475251D01*
X132185362Y-118423921D01*
X132160602Y-118364145D01*
X132150000Y-118283616D01*
X132150000Y-116920145D01*
X132176740Y-116781297D01*
X132999477Y-114724453D01*
X133045998Y-114644926D01*
X133099925Y-114595295D01*
X133166034Y-114563657D01*
X133257148Y-114550000D01*
X135188483Y-114550000D01*
X135265192Y-114559600D01*
X135265192Y-114559600D01*
G37*
X135265192Y-114559600D02*
X135322543Y-114582074D01*
X135385351Y-114627147D01*
X137757238Y-116823338D01*
X137811207Y-116889193D01*
X137838346Y-116951307D01*
X137850000Y-117035648D01*
X137850000Y-117180326D01*
X137839695Y-117245391D01*
X137818833Y-117286334D01*
X137786334Y-117318833D01*
X137745391Y-117339695D01*
X137680326Y-117350000D01*
X135700000Y-117350000D01*
X135667369Y-117352139D01*
X135537959Y-117369176D01*
X135474919Y-117386067D01*
X135354329Y-117436017D01*
X135297808Y-117468650D01*
X135194255Y-117548110D01*
X135148110Y-117594255D01*
X135068650Y-117697808D01*
X135036017Y-117754329D01*
X134986067Y-117874919D01*
X134969176Y-117937959D01*
X134952139Y-118067369D01*
X134950000Y-118100000D01*
X134950000Y-118283616D01*
X134939398Y-118364145D01*
X134914638Y-118423921D01*
X134875251Y-118475251D01*
X134823921Y-118514638D01*
X134764145Y-118539398D01*
X134683616Y-118550000D01*
X132416384Y-118550000D01*
X132335855Y-118539398D01*
X132276079Y-118514638D01*
X132224749Y-118475251D01*
X132185362Y-118423921D01*
X132160602Y-118364145D01*
X132150000Y-118283616D01*
X132150000Y-116920145D01*
X132176740Y-116781297D01*
X132999477Y-114724453D01*
X133045998Y-114644926D01*
X133099925Y-114595295D01*
X133166034Y-114563657D01*
X133257148Y-114550000D01*
X135188483Y-114550000D01*
X135265192Y-114559600D01*
D34*
G36*
X108624528Y-105042214D02*
G01*
X108778518Y-105085749D01*
X108921969Y-105156678D01*
X109054740Y-105256126D01*
X112105141Y-108012007D01*
X112114118Y-108019399D01*
X112260509Y-108129105D01*
X112280297Y-108141279D01*
X112444224Y-108222481D01*
X112465898Y-108230846D01*
X112641874Y-108280828D01*
X112664711Y-108285105D01*
X112846847Y-108302192D01*
X112858462Y-108302747D01*
X137151604Y-108350056D01*
X137327101Y-108367596D01*
X137489893Y-108417056D01*
X137639993Y-108497174D01*
X137771683Y-108604901D01*
X137879964Y-108736144D01*
X137960709Y-108885904D01*
X138010851Y-109048491D01*
X138029125Y-109223909D01*
X138041785Y-111287275D01*
X138025336Y-111464608D01*
X137976251Y-111629248D01*
X137895851Y-111781076D01*
X137787258Y-111914201D01*
X137654672Y-112023470D01*
X137503258Y-112104629D01*
X137338863Y-112154544D01*
X137161617Y-112171885D01*
X115491777Y-112148046D01*
X115418558Y-112145098D01*
X113354604Y-111980920D01*
X113268305Y-111945174D01*
X113156830Y-111923000D01*
X113043170Y-111923000D01*
X112931695Y-111945174D01*
X112927431Y-111946940D01*
X108899655Y-111626549D01*
X108894625Y-111626249D01*
X108815330Y-111623100D01*
X108810290Y-111623000D01*
X100734914Y-111623000D01*
X100558070Y-111605541D01*
X100394073Y-111555671D01*
X100352000Y-111533121D01*
X100352000Y-105126360D01*
X100413240Y-105093716D01*
X100576556Y-105044296D01*
X100752578Y-105027000D01*
X108459335Y-105027000D01*
X108624528Y-105042214D01*
X108624528Y-105042214D01*
G37*
X108624528Y-105042214D02*
X108778518Y-105085749D01*
X108921969Y-105156678D01*
X109054740Y-105256126D01*
X112105141Y-108012007D01*
X112114118Y-108019399D01*
X112260509Y-108129105D01*
X112280297Y-108141279D01*
X112444224Y-108222481D01*
X112465898Y-108230846D01*
X112641874Y-108280828D01*
X112664711Y-108285105D01*
X112846847Y-108302192D01*
X112858462Y-108302747D01*
X137151604Y-108350056D01*
X137327101Y-108367596D01*
X137489893Y-108417056D01*
X137639993Y-108497174D01*
X137771683Y-108604901D01*
X137879964Y-108736144D01*
X137960709Y-108885904D01*
X138010851Y-109048491D01*
X138029125Y-109223909D01*
X138041785Y-111287275D01*
X138025336Y-111464608D01*
X137976251Y-111629248D01*
X137895851Y-111781076D01*
X137787258Y-111914201D01*
X137654672Y-112023470D01*
X137503258Y-112104629D01*
X137338863Y-112154544D01*
X137161617Y-112171885D01*
X115491777Y-112148046D01*
X115418558Y-112145098D01*
X113354604Y-111980920D01*
X113268305Y-111945174D01*
X113156830Y-111923000D01*
X113043170Y-111923000D01*
X112931695Y-111945174D01*
X112927431Y-111946940D01*
X108899655Y-111626549D01*
X108894625Y-111626249D01*
X108815330Y-111623100D01*
X108810290Y-111623000D01*
X100734914Y-111623000D01*
X100558070Y-111605541D01*
X100394073Y-111555671D01*
X100352000Y-111533121D01*
X100352000Y-105126360D01*
X100413240Y-105093716D01*
X100576556Y-105044296D01*
X100752578Y-105027000D01*
X108459335Y-105027000D01*
X108624528Y-105042214D01*
D33*
G36*
X108860137Y-112687657D02*
G01*
X108987770Y-112722322D01*
X109117358Y-112783648D01*
X111963127Y-114452595D01*
X111982750Y-114462962D01*
X112143108Y-114538770D01*
X112184721Y-114554092D01*
X112355950Y-114600376D01*
X112399615Y-114608105D01*
X112576327Y-114623409D01*
X112598500Y-114624340D01*
X113582017Y-114621967D01*
X113653776Y-114693726D01*
X113768426Y-114770332D01*
X113895818Y-114823099D01*
X114031056Y-114850000D01*
X114168944Y-114850000D01*
X114304182Y-114823099D01*
X114431574Y-114770332D01*
X114546224Y-114693726D01*
X114620489Y-114619461D01*
X131140791Y-114579596D01*
X131245818Y-114623099D01*
X131381056Y-114650000D01*
X131518944Y-114650000D01*
X131654182Y-114623099D01*
X131762833Y-114578095D01*
X137199668Y-114564975D01*
X137359401Y-114580453D01*
X137501062Y-114623443D01*
X137631497Y-114693463D01*
X137745604Y-114787774D01*
X137838926Y-114902690D01*
X137907817Y-115033726D01*
X137949581Y-115175752D01*
X137963679Y-115335609D01*
X137936088Y-117832630D01*
X137918952Y-117989804D01*
X137875336Y-118128986D01*
X137805569Y-118257066D01*
X137712293Y-118369197D01*
X137599053Y-118461115D01*
X137470137Y-118529341D01*
X137330443Y-118571280D01*
X137173071Y-118586525D01*
X136976284Y-118586334D01*
X136896224Y-118506274D01*
X136781574Y-118429668D01*
X136654182Y-118376901D01*
X136518944Y-118350000D01*
X136381056Y-118350000D01*
X136245818Y-118376901D01*
X136118426Y-118429668D01*
X136003776Y-118506274D01*
X135924739Y-118585311D01*
X130110831Y-118579655D01*
X130104182Y-118576901D01*
X129968944Y-118550000D01*
X129831056Y-118550000D01*
X129695818Y-118576901D01*
X129690157Y-118579246D01*
X129624787Y-118579182D01*
X129620332Y-118568426D01*
X129543726Y-118453776D01*
X129446224Y-118356274D01*
X129331574Y-118279668D01*
X129204182Y-118226901D01*
X129068944Y-118200000D01*
X128931056Y-118200000D01*
X128795818Y-118226901D01*
X128668426Y-118279668D01*
X128553776Y-118356274D01*
X128456274Y-118453776D01*
X128379668Y-118568426D01*
X128375716Y-118577967D01*
X128374283Y-118577966D01*
X128370332Y-118568426D01*
X128293726Y-118453776D01*
X128196224Y-118356274D01*
X128081574Y-118279668D01*
X127954182Y-118226901D01*
X127818944Y-118200000D01*
X127681056Y-118200000D01*
X127545818Y-118226901D01*
X127418426Y-118279668D01*
X127303776Y-118356274D01*
X127206274Y-118453776D01*
X127129668Y-118568426D01*
X127126219Y-118576752D01*
X119741516Y-118569568D01*
X119720332Y-118518426D01*
X119643726Y-118403776D01*
X119546224Y-118306274D01*
X119431574Y-118229668D01*
X119304182Y-118176901D01*
X119168944Y-118150000D01*
X119031056Y-118150000D01*
X118895818Y-118176901D01*
X118768426Y-118229668D01*
X118653776Y-118306274D01*
X118556274Y-118403776D01*
X118479668Y-118518426D01*
X118459001Y-118568321D01*
X114567013Y-118564535D01*
X114493944Y-118550000D01*
X114356056Y-118550000D01*
X114284369Y-118564260D01*
X111199208Y-118561259D01*
X111183132Y-118556382D01*
X111102089Y-118548400D01*
X111075000Y-118545732D01*
X111047911Y-118548400D01*
X103652089Y-118548400D01*
X103625000Y-118545732D01*
X103542974Y-118553811D01*
X100652455Y-118550999D01*
X100492654Y-118534955D01*
X100475000Y-118529528D01*
X100475000Y-112717238D01*
X100564789Y-112690289D01*
X100721595Y-112675000D01*
X108717338Y-112675000D01*
X108860137Y-112687657D01*
X108860137Y-112687657D01*
G37*
X108860137Y-112687657D02*
X108987770Y-112722322D01*
X109117358Y-112783648D01*
X111963127Y-114452595D01*
X111982750Y-114462962D01*
X112143108Y-114538770D01*
X112184721Y-114554092D01*
X112355950Y-114600376D01*
X112399615Y-114608105D01*
X112576327Y-114623409D01*
X112598500Y-114624340D01*
X113582017Y-114621967D01*
X113653776Y-114693726D01*
X113768426Y-114770332D01*
X113895818Y-114823099D01*
X114031056Y-114850000D01*
X114168944Y-114850000D01*
X114304182Y-114823099D01*
X114431574Y-114770332D01*
X114546224Y-114693726D01*
X114620489Y-114619461D01*
X131140791Y-114579596D01*
X131245818Y-114623099D01*
X131381056Y-114650000D01*
X131518944Y-114650000D01*
X131654182Y-114623099D01*
X131762833Y-114578095D01*
X137199668Y-114564975D01*
X137359401Y-114580453D01*
X137501062Y-114623443D01*
X137631497Y-114693463D01*
X137745604Y-114787774D01*
X137838926Y-114902690D01*
X137907817Y-115033726D01*
X137949581Y-115175752D01*
X137963679Y-115335609D01*
X137936088Y-117832630D01*
X137918952Y-117989804D01*
X137875336Y-118128986D01*
X137805569Y-118257066D01*
X137712293Y-118369197D01*
X137599053Y-118461115D01*
X137470137Y-118529341D01*
X137330443Y-118571280D01*
X137173071Y-118586525D01*
X136976284Y-118586334D01*
X136896224Y-118506274D01*
X136781574Y-118429668D01*
X136654182Y-118376901D01*
X136518944Y-118350000D01*
X136381056Y-118350000D01*
X136245818Y-118376901D01*
X136118426Y-118429668D01*
X136003776Y-118506274D01*
X135924739Y-118585311D01*
X130110831Y-118579655D01*
X130104182Y-118576901D01*
X129968944Y-118550000D01*
X129831056Y-118550000D01*
X129695818Y-118576901D01*
X129690157Y-118579246D01*
X129624787Y-118579182D01*
X129620332Y-118568426D01*
X129543726Y-118453776D01*
X129446224Y-118356274D01*
X129331574Y-118279668D01*
X129204182Y-118226901D01*
X129068944Y-118200000D01*
X128931056Y-118200000D01*
X128795818Y-118226901D01*
X128668426Y-118279668D01*
X128553776Y-118356274D01*
X128456274Y-118453776D01*
X128379668Y-118568426D01*
X128375716Y-118577967D01*
X128374283Y-118577966D01*
X128370332Y-118568426D01*
X128293726Y-118453776D01*
X128196224Y-118356274D01*
X128081574Y-118279668D01*
X127954182Y-118226901D01*
X127818944Y-118200000D01*
X127681056Y-118200000D01*
X127545818Y-118226901D01*
X127418426Y-118279668D01*
X127303776Y-118356274D01*
X127206274Y-118453776D01*
X127129668Y-118568426D01*
X127126219Y-118576752D01*
X119741516Y-118569568D01*
X119720332Y-118518426D01*
X119643726Y-118403776D01*
X119546224Y-118306274D01*
X119431574Y-118229668D01*
X119304182Y-118176901D01*
X119168944Y-118150000D01*
X119031056Y-118150000D01*
X118895818Y-118176901D01*
X118768426Y-118229668D01*
X118653776Y-118306274D01*
X118556274Y-118403776D01*
X118479668Y-118518426D01*
X118459001Y-118568321D01*
X114567013Y-118564535D01*
X114493944Y-118550000D01*
X114356056Y-118550000D01*
X114284369Y-118564260D01*
X111199208Y-118561259D01*
X111183132Y-118556382D01*
X111102089Y-118548400D01*
X111075000Y-118545732D01*
X111047911Y-118548400D01*
X103652089Y-118548400D01*
X103625000Y-118545732D01*
X103542974Y-118553811D01*
X100652455Y-118550999D01*
X100492654Y-118534955D01*
X100475000Y-118529528D01*
X100475000Y-112717238D01*
X100564789Y-112690289D01*
X100721595Y-112675000D01*
X108717338Y-112675000D01*
X108860137Y-112687657D01*
G36*
X124726361Y-145034109D02*
G01*
X124746163Y-145039134D01*
X124750000Y-145059204D01*
X124750000Y-145169114D01*
X124744461Y-145193111D01*
X124722141Y-145203524D01*
X120445946Y-146113352D01*
X120392281Y-146131318D01*
X120290366Y-146178862D01*
X120248198Y-146203835D01*
X120201755Y-146248112D01*
X120130991Y-146335517D01*
X120104035Y-146376447D01*
X120081699Y-146436598D01*
X120056405Y-146546176D01*
X120050000Y-146602405D01*
X120050000Y-147438354D01*
X120046123Y-147458500D01*
X120026194Y-147463378D01*
X118575379Y-147535919D01*
X118554293Y-147532675D01*
X118550000Y-147511776D01*
X118550000Y-144690935D01*
X118554333Y-144669969D01*
X118575514Y-144666894D01*
X124726361Y-145034109D01*
X124726361Y-145034109D01*
G37*
X124726361Y-145034109D02*
X124746163Y-145039134D01*
X124750000Y-145059204D01*
X124750000Y-145169114D01*
X124744461Y-145193111D01*
X124722141Y-145203524D01*
X120445946Y-146113352D01*
X120392281Y-146131318D01*
X120290366Y-146178862D01*
X120248198Y-146203835D01*
X120201755Y-146248112D01*
X120130991Y-146335517D01*
X120104035Y-146376447D01*
X120081699Y-146436598D01*
X120056405Y-146546176D01*
X120050000Y-146602405D01*
X120050000Y-147438354D01*
X120046123Y-147458500D01*
X120026194Y-147463378D01*
X118575379Y-147535919D01*
X118554293Y-147532675D01*
X118550000Y-147511776D01*
X118550000Y-144690935D01*
X118554333Y-144669969D01*
X118575514Y-144666894D01*
X124726361Y-145034109D01*
G36*
X119783442Y-137853434D02*
G01*
X119789831Y-137871883D01*
X120019742Y-139327982D01*
X120030447Y-139370800D01*
X120059220Y-139453886D01*
X120079720Y-139498402D01*
X120102155Y-139530616D01*
X120157915Y-139598602D01*
X120192559Y-139633267D01*
X120224765Y-139655725D01*
X120300615Y-139700199D01*
X120345118Y-139720724D01*
X120383101Y-139730641D01*
X120469658Y-139746104D01*
X120513623Y-139750000D01*
X122395508Y-139750000D01*
X122459270Y-139767880D01*
X124531734Y-141029379D01*
X124546639Y-141042386D01*
X124550000Y-141061885D01*
X124550000Y-141574638D01*
X124545198Y-141596296D01*
X124523038Y-141597261D01*
X118065003Y-140457608D01*
X118043362Y-140454757D01*
X117999915Y-140450953D01*
X117978110Y-140450000D01*
X115174620Y-140450000D01*
X115154085Y-140445915D01*
X115150000Y-140425380D01*
X115150000Y-139762241D01*
X115153372Y-139742714D01*
X115168328Y-139729706D01*
X118240537Y-137867762D01*
X118304112Y-137850000D01*
X119764221Y-137850000D01*
X119783442Y-137853434D01*
X119783442Y-137853434D01*
G37*
X119783442Y-137853434D02*
X119789831Y-137871883D01*
X120019742Y-139327982D01*
X120030447Y-139370800D01*
X120059220Y-139453886D01*
X120079720Y-139498402D01*
X120102155Y-139530616D01*
X120157915Y-139598602D01*
X120192559Y-139633267D01*
X120224765Y-139655725D01*
X120300615Y-139700199D01*
X120345118Y-139720724D01*
X120383101Y-139730641D01*
X120469658Y-139746104D01*
X120513623Y-139750000D01*
X122395508Y-139750000D01*
X122459270Y-139767880D01*
X124531734Y-141029379D01*
X124546639Y-141042386D01*
X124550000Y-141061885D01*
X124550000Y-141574638D01*
X124545198Y-141596296D01*
X124523038Y-141597261D01*
X118065003Y-140457608D01*
X118043362Y-140454757D01*
X117999915Y-140450953D01*
X117978110Y-140450000D01*
X115174620Y-140450000D01*
X115154085Y-140445915D01*
X115150000Y-140425380D01*
X115150000Y-139762241D01*
X115153372Y-139742714D01*
X115168328Y-139729706D01*
X118240537Y-137867762D01*
X118304112Y-137850000D01*
X119764221Y-137850000D01*
X119783442Y-137853434D01*
M02*
