G04 #@! TF.GenerationSoftware,KiCad,Pcbnew,(5.1.8)-1*
G04 #@! TF.CreationDate,2020-11-22T23:20:16-08:00*
G04 #@! TF.ProjectId,Thruster_Controller_V2,54687275-7374-4657-925f-436f6e74726f,rev?*
G04 #@! TF.SameCoordinates,Original*
G04 #@! TF.FileFunction,Soldermask,Bot*
G04 #@! TF.FilePolarity,Negative*
%FSLAX46Y46*%
G04 Gerber Fmt 4.6, Leading zero omitted, Abs format (unit mm)*
G04 Created by KiCad (PCBNEW (5.1.8)-1) date 2020-11-22 23:20:16*
%MOMM*%
%LPD*%
G01*
G04 APERTURE LIST*
%ADD10R,1.200000X1.400000*%
%ADD11C,0.100000*%
%ADD12C,0.990600*%
%ADD13C,0.787400*%
%ADD14R,1.600000X1.000000*%
%ADD15R,0.350000X0.650000*%
%ADD16R,5.600000X5.600000*%
%ADD17R,3.100000X3.100000*%
%ADD18R,0.600000X0.250000*%
%ADD19R,0.250000X0.600000*%
%ADD20R,2.050000X1.700000*%
G04 APERTURE END LIST*
D10*
X94450000Y-103075000D03*
X94450000Y-105275000D03*
X92850000Y-105275000D03*
X92850000Y-103075000D03*
G36*
G01*
X92275000Y-84750000D02*
X92275000Y-86150000D01*
G75*
G02*
X92225000Y-86200000I-50000J0D01*
G01*
X91825000Y-86200000D01*
G75*
G02*
X91775000Y-86150000I0J50000D01*
G01*
X91775000Y-84750000D01*
G75*
G02*
X91825000Y-84700000I50000J0D01*
G01*
X92225000Y-84700000D01*
G75*
G02*
X92275000Y-84750000I0J-50000D01*
G01*
G37*
G36*
G01*
X91320000Y-84760000D02*
X91320000Y-85240000D01*
G75*
G02*
X91260000Y-85300000I-60000J0D01*
G01*
X87980000Y-85300000D01*
G75*
G02*
X87920000Y-85240000I0J60000D01*
G01*
X87920000Y-84760000D01*
G75*
G02*
X87980000Y-84700000I60000J0D01*
G01*
X91260000Y-84700000D01*
G75*
G02*
X91320000Y-84760000I0J-60000D01*
G01*
G37*
D11*
G36*
X87910245Y-88449039D02*
G01*
X87900866Y-88446194D01*
X87892221Y-88441573D01*
X87884645Y-88435355D01*
X87878427Y-88427779D01*
X87873806Y-88419134D01*
X87870961Y-88409755D01*
X87870000Y-88400000D01*
X87870000Y-85800000D01*
X87870961Y-85790245D01*
X87873806Y-85780866D01*
X87878427Y-85772221D01*
X87884645Y-85764645D01*
X87892221Y-85758427D01*
X87900866Y-85753806D01*
X87910245Y-85750961D01*
X87920000Y-85750000D01*
X91320000Y-85750000D01*
X91329755Y-85750961D01*
X91339134Y-85753806D01*
X91347779Y-85758427D01*
X91355355Y-85764645D01*
X91361573Y-85772221D01*
X91366194Y-85780866D01*
X91369039Y-85790245D01*
X91370000Y-85800000D01*
X91370000Y-86750000D01*
X92320000Y-86750000D01*
X92329755Y-86750961D01*
X92339134Y-86753806D01*
X92347779Y-86758427D01*
X92355355Y-86764645D01*
X92361573Y-86772221D01*
X92366194Y-86780866D01*
X92369039Y-86790245D01*
X92370000Y-86800000D01*
X92370000Y-88400000D01*
X92369039Y-88409755D01*
X92366194Y-88419134D01*
X92361573Y-88427779D01*
X92355355Y-88435355D01*
X92347779Y-88441573D01*
X92339134Y-88446194D01*
X92329755Y-88449039D01*
X92320000Y-88450000D01*
X87920000Y-88450000D01*
X87910245Y-88449039D01*
G37*
G36*
G01*
X92370000Y-89060000D02*
X92370000Y-89780000D01*
G75*
G02*
X92330000Y-89820000I-40000J0D01*
G01*
X87910000Y-89820000D01*
G75*
G02*
X87870000Y-89780000I0J40000D01*
G01*
X87870000Y-89060000D01*
G75*
G02*
X87910000Y-89020000I40000J0D01*
G01*
X92330000Y-89020000D01*
G75*
G02*
X92370000Y-89060000I0J-40000D01*
G01*
G37*
G36*
G01*
X92275000Y-90346000D02*
X92275000Y-90946000D01*
G75*
G02*
X92225000Y-90996000I-50000J0D01*
G01*
X91825000Y-90996000D01*
G75*
G02*
X91775000Y-90946000I0J50000D01*
G01*
X91775000Y-90346000D01*
G75*
G02*
X91825000Y-90296000I50000J0D01*
G01*
X92225000Y-90296000D01*
G75*
G02*
X92275000Y-90346000I0J-50000D01*
G01*
G37*
G36*
G01*
X88465000Y-90346000D02*
X88465000Y-90946000D01*
G75*
G02*
X88415000Y-90996000I-50000J0D01*
G01*
X88015000Y-90996000D01*
G75*
G02*
X87965000Y-90946000I0J50000D01*
G01*
X87965000Y-90346000D01*
G75*
G02*
X88015000Y-90296000I50000J0D01*
G01*
X88415000Y-90296000D01*
G75*
G02*
X88465000Y-90346000I0J-50000D01*
G01*
G37*
G36*
G01*
X91005000Y-90346000D02*
X91005000Y-90946000D01*
G75*
G02*
X90955000Y-90996000I-50000J0D01*
G01*
X90555000Y-90996000D01*
G75*
G02*
X90505000Y-90946000I0J50000D01*
G01*
X90505000Y-90346000D01*
G75*
G02*
X90555000Y-90296000I50000J0D01*
G01*
X90955000Y-90296000D01*
G75*
G02*
X91005000Y-90346000I0J-50000D01*
G01*
G37*
G36*
G01*
X89735000Y-90346000D02*
X89735000Y-90946000D01*
G75*
G02*
X89685000Y-90996000I-50000J0D01*
G01*
X89285000Y-90996000D01*
G75*
G02*
X89235000Y-90946000I0J50000D01*
G01*
X89235000Y-90346000D01*
G75*
G02*
X89285000Y-90296000I50000J0D01*
G01*
X89685000Y-90296000D01*
G75*
G02*
X89735000Y-90346000I0J-50000D01*
G01*
G37*
D12*
X106984000Y-108810000D03*
X109016000Y-108810000D03*
X108000000Y-101190000D03*
D13*
X108635000Y-102460000D03*
X108635000Y-103730000D03*
X108635000Y-105000000D03*
X108635000Y-106270000D03*
X108635000Y-107540000D03*
X107365000Y-107540000D03*
X107365000Y-106270000D03*
X107365000Y-105000000D03*
X107365000Y-103730000D03*
X107365000Y-102460000D03*
G36*
G01*
X101205000Y-84750000D02*
X101205000Y-86150000D01*
G75*
G02*
X101155000Y-86200000I-50000J0D01*
G01*
X100755000Y-86200000D01*
G75*
G02*
X100705000Y-86150000I0J50000D01*
G01*
X100705000Y-84750000D01*
G75*
G02*
X100755000Y-84700000I50000J0D01*
G01*
X101155000Y-84700000D01*
G75*
G02*
X101205000Y-84750000I0J-50000D01*
G01*
G37*
G36*
G01*
X100250000Y-84760000D02*
X100250000Y-85240000D01*
G75*
G02*
X100190000Y-85300000I-60000J0D01*
G01*
X96910000Y-85300000D01*
G75*
G02*
X96850000Y-85240000I0J60000D01*
G01*
X96850000Y-84760000D01*
G75*
G02*
X96910000Y-84700000I60000J0D01*
G01*
X100190000Y-84700000D01*
G75*
G02*
X100250000Y-84760000I0J-60000D01*
G01*
G37*
D11*
G36*
X96840245Y-88449039D02*
G01*
X96830866Y-88446194D01*
X96822221Y-88441573D01*
X96814645Y-88435355D01*
X96808427Y-88427779D01*
X96803806Y-88419134D01*
X96800961Y-88409755D01*
X96800000Y-88400000D01*
X96800000Y-85800000D01*
X96800961Y-85790245D01*
X96803806Y-85780866D01*
X96808427Y-85772221D01*
X96814645Y-85764645D01*
X96822221Y-85758427D01*
X96830866Y-85753806D01*
X96840245Y-85750961D01*
X96850000Y-85750000D01*
X100250000Y-85750000D01*
X100259755Y-85750961D01*
X100269134Y-85753806D01*
X100277779Y-85758427D01*
X100285355Y-85764645D01*
X100291573Y-85772221D01*
X100296194Y-85780866D01*
X100299039Y-85790245D01*
X100300000Y-85800000D01*
X100300000Y-86750000D01*
X101250000Y-86750000D01*
X101259755Y-86750961D01*
X101269134Y-86753806D01*
X101277779Y-86758427D01*
X101285355Y-86764645D01*
X101291573Y-86772221D01*
X101296194Y-86780866D01*
X101299039Y-86790245D01*
X101300000Y-86800000D01*
X101300000Y-88400000D01*
X101299039Y-88409755D01*
X101296194Y-88419134D01*
X101291573Y-88427779D01*
X101285355Y-88435355D01*
X101277779Y-88441573D01*
X101269134Y-88446194D01*
X101259755Y-88449039D01*
X101250000Y-88450000D01*
X96850000Y-88450000D01*
X96840245Y-88449039D01*
G37*
G36*
G01*
X101300000Y-89060000D02*
X101300000Y-89780000D01*
G75*
G02*
X101260000Y-89820000I-40000J0D01*
G01*
X96840000Y-89820000D01*
G75*
G02*
X96800000Y-89780000I0J40000D01*
G01*
X96800000Y-89060000D01*
G75*
G02*
X96840000Y-89020000I40000J0D01*
G01*
X101260000Y-89020000D01*
G75*
G02*
X101300000Y-89060000I0J-40000D01*
G01*
G37*
G36*
G01*
X101205000Y-90346000D02*
X101205000Y-90946000D01*
G75*
G02*
X101155000Y-90996000I-50000J0D01*
G01*
X100755000Y-90996000D01*
G75*
G02*
X100705000Y-90946000I0J50000D01*
G01*
X100705000Y-90346000D01*
G75*
G02*
X100755000Y-90296000I50000J0D01*
G01*
X101155000Y-90296000D01*
G75*
G02*
X101205000Y-90346000I0J-50000D01*
G01*
G37*
G36*
G01*
X97395000Y-90346000D02*
X97395000Y-90946000D01*
G75*
G02*
X97345000Y-90996000I-50000J0D01*
G01*
X96945000Y-90996000D01*
G75*
G02*
X96895000Y-90946000I0J50000D01*
G01*
X96895000Y-90346000D01*
G75*
G02*
X96945000Y-90296000I50000J0D01*
G01*
X97345000Y-90296000D01*
G75*
G02*
X97395000Y-90346000I0J-50000D01*
G01*
G37*
G36*
G01*
X99935000Y-90346000D02*
X99935000Y-90946000D01*
G75*
G02*
X99885000Y-90996000I-50000J0D01*
G01*
X99485000Y-90996000D01*
G75*
G02*
X99435000Y-90946000I0J50000D01*
G01*
X99435000Y-90346000D01*
G75*
G02*
X99485000Y-90296000I50000J0D01*
G01*
X99885000Y-90296000D01*
G75*
G02*
X99935000Y-90346000I0J-50000D01*
G01*
G37*
G36*
G01*
X98665000Y-90346000D02*
X98665000Y-90946000D01*
G75*
G02*
X98615000Y-90996000I-50000J0D01*
G01*
X98215000Y-90996000D01*
G75*
G02*
X98165000Y-90946000I0J50000D01*
G01*
X98165000Y-90346000D01*
G75*
G02*
X98215000Y-90296000I50000J0D01*
G01*
X98615000Y-90296000D01*
G75*
G02*
X98665000Y-90346000I0J-50000D01*
G01*
G37*
G36*
G01*
X110155000Y-84750000D02*
X110155000Y-86150000D01*
G75*
G02*
X110105000Y-86200000I-50000J0D01*
G01*
X109705000Y-86200000D01*
G75*
G02*
X109655000Y-86150000I0J50000D01*
G01*
X109655000Y-84750000D01*
G75*
G02*
X109705000Y-84700000I50000J0D01*
G01*
X110105000Y-84700000D01*
G75*
G02*
X110155000Y-84750000I0J-50000D01*
G01*
G37*
G36*
G01*
X109200000Y-84760000D02*
X109200000Y-85240000D01*
G75*
G02*
X109140000Y-85300000I-60000J0D01*
G01*
X105860000Y-85300000D01*
G75*
G02*
X105800000Y-85240000I0J60000D01*
G01*
X105800000Y-84760000D01*
G75*
G02*
X105860000Y-84700000I60000J0D01*
G01*
X109140000Y-84700000D01*
G75*
G02*
X109200000Y-84760000I0J-60000D01*
G01*
G37*
G36*
X105790245Y-88449039D02*
G01*
X105780866Y-88446194D01*
X105772221Y-88441573D01*
X105764645Y-88435355D01*
X105758427Y-88427779D01*
X105753806Y-88419134D01*
X105750961Y-88409755D01*
X105750000Y-88400000D01*
X105750000Y-85800000D01*
X105750961Y-85790245D01*
X105753806Y-85780866D01*
X105758427Y-85772221D01*
X105764645Y-85764645D01*
X105772221Y-85758427D01*
X105780866Y-85753806D01*
X105790245Y-85750961D01*
X105800000Y-85750000D01*
X109200000Y-85750000D01*
X109209755Y-85750961D01*
X109219134Y-85753806D01*
X109227779Y-85758427D01*
X109235355Y-85764645D01*
X109241573Y-85772221D01*
X109246194Y-85780866D01*
X109249039Y-85790245D01*
X109250000Y-85800000D01*
X109250000Y-86750000D01*
X110200000Y-86750000D01*
X110209755Y-86750961D01*
X110219134Y-86753806D01*
X110227779Y-86758427D01*
X110235355Y-86764645D01*
X110241573Y-86772221D01*
X110246194Y-86780866D01*
X110249039Y-86790245D01*
X110250000Y-86800000D01*
X110250000Y-88400000D01*
X110249039Y-88409755D01*
X110246194Y-88419134D01*
X110241573Y-88427779D01*
X110235355Y-88435355D01*
X110227779Y-88441573D01*
X110219134Y-88446194D01*
X110209755Y-88449039D01*
X110200000Y-88450000D01*
X105800000Y-88450000D01*
X105790245Y-88449039D01*
G37*
G36*
G01*
X110250000Y-89060000D02*
X110250000Y-89780000D01*
G75*
G02*
X110210000Y-89820000I-40000J0D01*
G01*
X105790000Y-89820000D01*
G75*
G02*
X105750000Y-89780000I0J40000D01*
G01*
X105750000Y-89060000D01*
G75*
G02*
X105790000Y-89020000I40000J0D01*
G01*
X110210000Y-89020000D01*
G75*
G02*
X110250000Y-89060000I0J-40000D01*
G01*
G37*
G36*
G01*
X110155000Y-90346000D02*
X110155000Y-90946000D01*
G75*
G02*
X110105000Y-90996000I-50000J0D01*
G01*
X109705000Y-90996000D01*
G75*
G02*
X109655000Y-90946000I0J50000D01*
G01*
X109655000Y-90346000D01*
G75*
G02*
X109705000Y-90296000I50000J0D01*
G01*
X110105000Y-90296000D01*
G75*
G02*
X110155000Y-90346000I0J-50000D01*
G01*
G37*
G36*
G01*
X106345000Y-90346000D02*
X106345000Y-90946000D01*
G75*
G02*
X106295000Y-90996000I-50000J0D01*
G01*
X105895000Y-90996000D01*
G75*
G02*
X105845000Y-90946000I0J50000D01*
G01*
X105845000Y-90346000D01*
G75*
G02*
X105895000Y-90296000I50000J0D01*
G01*
X106295000Y-90296000D01*
G75*
G02*
X106345000Y-90346000I0J-50000D01*
G01*
G37*
G36*
G01*
X108885000Y-90346000D02*
X108885000Y-90946000D01*
G75*
G02*
X108835000Y-90996000I-50000J0D01*
G01*
X108435000Y-90996000D01*
G75*
G02*
X108385000Y-90946000I0J50000D01*
G01*
X108385000Y-90346000D01*
G75*
G02*
X108435000Y-90296000I50000J0D01*
G01*
X108835000Y-90296000D01*
G75*
G02*
X108885000Y-90346000I0J-50000D01*
G01*
G37*
G36*
G01*
X107615000Y-90346000D02*
X107615000Y-90946000D01*
G75*
G02*
X107565000Y-90996000I-50000J0D01*
G01*
X107165000Y-90996000D01*
G75*
G02*
X107115000Y-90946000I0J50000D01*
G01*
X107115000Y-90346000D01*
G75*
G02*
X107165000Y-90296000I50000J0D01*
G01*
X107565000Y-90296000D01*
G75*
G02*
X107615000Y-90346000I0J-50000D01*
G01*
G37*
G36*
G01*
X90770000Y-99800000D02*
X91110000Y-99800000D01*
G75*
G02*
X91250000Y-99940000I0J-140000D01*
G01*
X91250000Y-100220000D01*
G75*
G02*
X91110000Y-100360000I-140000J0D01*
G01*
X90770000Y-100360000D01*
G75*
G02*
X90630000Y-100220000I0J140000D01*
G01*
X90630000Y-99940000D01*
G75*
G02*
X90770000Y-99800000I140000J0D01*
G01*
G37*
G36*
G01*
X90770000Y-98840000D02*
X91110000Y-98840000D01*
G75*
G02*
X91250000Y-98980000I0J-140000D01*
G01*
X91250000Y-99260000D01*
G75*
G02*
X91110000Y-99400000I-140000J0D01*
G01*
X90770000Y-99400000D01*
G75*
G02*
X90630000Y-99260000I0J140000D01*
G01*
X90630000Y-98980000D01*
G75*
G02*
X90770000Y-98840000I140000J0D01*
G01*
G37*
G36*
G01*
X94790000Y-99800000D02*
X95130000Y-99800000D01*
G75*
G02*
X95270000Y-99940000I0J-140000D01*
G01*
X95270000Y-100220000D01*
G75*
G02*
X95130000Y-100360000I-140000J0D01*
G01*
X94790000Y-100360000D01*
G75*
G02*
X94650000Y-100220000I0J140000D01*
G01*
X94650000Y-99940000D01*
G75*
G02*
X94790000Y-99800000I140000J0D01*
G01*
G37*
G36*
G01*
X94790000Y-98840000D02*
X95130000Y-98840000D01*
G75*
G02*
X95270000Y-98980000I0J-140000D01*
G01*
X95270000Y-99260000D01*
G75*
G02*
X95130000Y-99400000I-140000J0D01*
G01*
X94790000Y-99400000D01*
G75*
G02*
X94650000Y-99260000I0J140000D01*
G01*
X94650000Y-98980000D01*
G75*
G02*
X94790000Y-98840000I140000J0D01*
G01*
G37*
G36*
G01*
X114890000Y-91915000D02*
X115260000Y-91915000D01*
G75*
G02*
X115395000Y-92050000I0J-135000D01*
G01*
X115395000Y-92320000D01*
G75*
G02*
X115260000Y-92455000I-135000J0D01*
G01*
X114890000Y-92455000D01*
G75*
G02*
X114755000Y-92320000I0J135000D01*
G01*
X114755000Y-92050000D01*
G75*
G02*
X114890000Y-91915000I135000J0D01*
G01*
G37*
G36*
G01*
X114890000Y-90895000D02*
X115260000Y-90895000D01*
G75*
G02*
X115395000Y-91030000I0J-135000D01*
G01*
X115395000Y-91300000D01*
G75*
G02*
X115260000Y-91435000I-135000J0D01*
G01*
X114890000Y-91435000D01*
G75*
G02*
X114755000Y-91300000I0J135000D01*
G01*
X114755000Y-91030000D01*
G75*
G02*
X114890000Y-90895000I135000J0D01*
G01*
G37*
G36*
G01*
X102075000Y-93150000D02*
X104925000Y-93150000D01*
G75*
G02*
X105175000Y-93400000I0J-250000D01*
G01*
X105175000Y-94125000D01*
G75*
G02*
X104925000Y-94375000I-250000J0D01*
G01*
X102075000Y-94375000D01*
G75*
G02*
X101825000Y-94125000I0J250000D01*
G01*
X101825000Y-93400000D01*
G75*
G02*
X102075000Y-93150000I250000J0D01*
G01*
G37*
G36*
G01*
X102075000Y-87225000D02*
X104925000Y-87225000D01*
G75*
G02*
X105175000Y-87475000I0J-250000D01*
G01*
X105175000Y-88200000D01*
G75*
G02*
X104925000Y-88450000I-250000J0D01*
G01*
X102075000Y-88450000D01*
G75*
G02*
X101825000Y-88200000I0J250000D01*
G01*
X101825000Y-87475000D01*
G75*
G02*
X102075000Y-87225000I250000J0D01*
G01*
G37*
G36*
G01*
X93165000Y-87225000D02*
X96015000Y-87225000D01*
G75*
G02*
X96265000Y-87475000I0J-250000D01*
G01*
X96265000Y-88200000D01*
G75*
G02*
X96015000Y-88450000I-250000J0D01*
G01*
X93165000Y-88450000D01*
G75*
G02*
X92915000Y-88200000I0J250000D01*
G01*
X92915000Y-87475000D01*
G75*
G02*
X93165000Y-87225000I250000J0D01*
G01*
G37*
G36*
G01*
X93165000Y-93150000D02*
X96015000Y-93150000D01*
G75*
G02*
X96265000Y-93400000I0J-250000D01*
G01*
X96265000Y-94125000D01*
G75*
G02*
X96015000Y-94375000I-250000J0D01*
G01*
X93165000Y-94375000D01*
G75*
G02*
X92915000Y-94125000I0J250000D01*
G01*
X92915000Y-93400000D01*
G75*
G02*
X93165000Y-93150000I250000J0D01*
G01*
G37*
G36*
G01*
X111055000Y-87225000D02*
X113905000Y-87225000D01*
G75*
G02*
X114155000Y-87475000I0J-250000D01*
G01*
X114155000Y-88200000D01*
G75*
G02*
X113905000Y-88450000I-250000J0D01*
G01*
X111055000Y-88450000D01*
G75*
G02*
X110805000Y-88200000I0J250000D01*
G01*
X110805000Y-87475000D01*
G75*
G02*
X111055000Y-87225000I250000J0D01*
G01*
G37*
G36*
G01*
X111055000Y-93150000D02*
X113905000Y-93150000D01*
G75*
G02*
X114155000Y-93400000I0J-250000D01*
G01*
X114155000Y-94125000D01*
G75*
G02*
X113905000Y-94375000I-250000J0D01*
G01*
X111055000Y-94375000D01*
G75*
G02*
X110805000Y-94125000I0J250000D01*
G01*
X110805000Y-93400000D01*
G75*
G02*
X111055000Y-93150000I250000J0D01*
G01*
G37*
G36*
G01*
X90745000Y-97940000D02*
X91115000Y-97940000D01*
G75*
G02*
X91250000Y-98075000I0J-135000D01*
G01*
X91250000Y-98345000D01*
G75*
G02*
X91115000Y-98480000I-135000J0D01*
G01*
X90745000Y-98480000D01*
G75*
G02*
X90610000Y-98345000I0J135000D01*
G01*
X90610000Y-98075000D01*
G75*
G02*
X90745000Y-97940000I135000J0D01*
G01*
G37*
G36*
G01*
X90745000Y-96920000D02*
X91115000Y-96920000D01*
G75*
G02*
X91250000Y-97055000I0J-135000D01*
G01*
X91250000Y-97325000D01*
G75*
G02*
X91115000Y-97460000I-135000J0D01*
G01*
X90745000Y-97460000D01*
G75*
G02*
X90610000Y-97325000I0J135000D01*
G01*
X90610000Y-97055000D01*
G75*
G02*
X90745000Y-96920000I135000J0D01*
G01*
G37*
G36*
G01*
X92745000Y-96920000D02*
X93115000Y-96920000D01*
G75*
G02*
X93250000Y-97055000I0J-135000D01*
G01*
X93250000Y-97325000D01*
G75*
G02*
X93115000Y-97460000I-135000J0D01*
G01*
X92745000Y-97460000D01*
G75*
G02*
X92610000Y-97325000I0J135000D01*
G01*
X92610000Y-97055000D01*
G75*
G02*
X92745000Y-96920000I135000J0D01*
G01*
G37*
G36*
G01*
X92745000Y-97940000D02*
X93115000Y-97940000D01*
G75*
G02*
X93250000Y-98075000I0J-135000D01*
G01*
X93250000Y-98345000D01*
G75*
G02*
X93115000Y-98480000I-135000J0D01*
G01*
X92745000Y-98480000D01*
G75*
G02*
X92610000Y-98345000I0J135000D01*
G01*
X92610000Y-98075000D01*
G75*
G02*
X92745000Y-97940000I135000J0D01*
G01*
G37*
G36*
G01*
X94735000Y-97940000D02*
X95105000Y-97940000D01*
G75*
G02*
X95240000Y-98075000I0J-135000D01*
G01*
X95240000Y-98345000D01*
G75*
G02*
X95105000Y-98480000I-135000J0D01*
G01*
X94735000Y-98480000D01*
G75*
G02*
X94600000Y-98345000I0J135000D01*
G01*
X94600000Y-98075000D01*
G75*
G02*
X94735000Y-97940000I135000J0D01*
G01*
G37*
G36*
G01*
X94735000Y-96920000D02*
X95105000Y-96920000D01*
G75*
G02*
X95240000Y-97055000I0J-135000D01*
G01*
X95240000Y-97325000D01*
G75*
G02*
X95105000Y-97460000I-135000J0D01*
G01*
X94735000Y-97460000D01*
G75*
G02*
X94600000Y-97325000I0J135000D01*
G01*
X94600000Y-97055000D01*
G75*
G02*
X94735000Y-96920000I135000J0D01*
G01*
G37*
G36*
G01*
X89745000Y-97940000D02*
X90115000Y-97940000D01*
G75*
G02*
X90250000Y-98075000I0J-135000D01*
G01*
X90250000Y-98345000D01*
G75*
G02*
X90115000Y-98480000I-135000J0D01*
G01*
X89745000Y-98480000D01*
G75*
G02*
X89610000Y-98345000I0J135000D01*
G01*
X89610000Y-98075000D01*
G75*
G02*
X89745000Y-97940000I135000J0D01*
G01*
G37*
G36*
G01*
X89745000Y-96920000D02*
X90115000Y-96920000D01*
G75*
G02*
X90250000Y-97055000I0J-135000D01*
G01*
X90250000Y-97325000D01*
G75*
G02*
X90115000Y-97460000I-135000J0D01*
G01*
X89745000Y-97460000D01*
G75*
G02*
X89610000Y-97325000I0J135000D01*
G01*
X89610000Y-97055000D01*
G75*
G02*
X89745000Y-96920000I135000J0D01*
G01*
G37*
G36*
G01*
X91745000Y-97940000D02*
X92115000Y-97940000D01*
G75*
G02*
X92250000Y-98075000I0J-135000D01*
G01*
X92250000Y-98345000D01*
G75*
G02*
X92115000Y-98480000I-135000J0D01*
G01*
X91745000Y-98480000D01*
G75*
G02*
X91610000Y-98345000I0J135000D01*
G01*
X91610000Y-98075000D01*
G75*
G02*
X91745000Y-97940000I135000J0D01*
G01*
G37*
G36*
G01*
X91745000Y-96920000D02*
X92115000Y-96920000D01*
G75*
G02*
X92250000Y-97055000I0J-135000D01*
G01*
X92250000Y-97325000D01*
G75*
G02*
X92115000Y-97460000I-135000J0D01*
G01*
X91745000Y-97460000D01*
G75*
G02*
X91610000Y-97325000I0J135000D01*
G01*
X91610000Y-97055000D01*
G75*
G02*
X91745000Y-96920000I135000J0D01*
G01*
G37*
G36*
G01*
X93740000Y-97940000D02*
X94110000Y-97940000D01*
G75*
G02*
X94245000Y-98075000I0J-135000D01*
G01*
X94245000Y-98345000D01*
G75*
G02*
X94110000Y-98480000I-135000J0D01*
G01*
X93740000Y-98480000D01*
G75*
G02*
X93605000Y-98345000I0J135000D01*
G01*
X93605000Y-98075000D01*
G75*
G02*
X93740000Y-97940000I135000J0D01*
G01*
G37*
G36*
G01*
X93740000Y-96920000D02*
X94110000Y-96920000D01*
G75*
G02*
X94245000Y-97055000I0J-135000D01*
G01*
X94245000Y-97325000D01*
G75*
G02*
X94110000Y-97460000I-135000J0D01*
G01*
X93740000Y-97460000D01*
G75*
G02*
X93605000Y-97325000I0J135000D01*
G01*
X93605000Y-97055000D01*
G75*
G02*
X93740000Y-96920000I135000J0D01*
G01*
G37*
G36*
G01*
X94080000Y-98975000D02*
X94080000Y-99345000D01*
G75*
G02*
X93945000Y-99480000I-135000J0D01*
G01*
X93675000Y-99480000D01*
G75*
G02*
X93540000Y-99345000I0J135000D01*
G01*
X93540000Y-98975000D01*
G75*
G02*
X93675000Y-98840000I135000J0D01*
G01*
X93945000Y-98840000D01*
G75*
G02*
X94080000Y-98975000I0J-135000D01*
G01*
G37*
G36*
G01*
X93060000Y-98975000D02*
X93060000Y-99345000D01*
G75*
G02*
X92925000Y-99480000I-135000J0D01*
G01*
X92655000Y-99480000D01*
G75*
G02*
X92520000Y-99345000I0J135000D01*
G01*
X92520000Y-98975000D01*
G75*
G02*
X92655000Y-98840000I135000J0D01*
G01*
X92925000Y-98840000D01*
G75*
G02*
X93060000Y-98975000I0J-135000D01*
G01*
G37*
D14*
X111050000Y-97850000D03*
D15*
X111700000Y-96800000D03*
X111050000Y-96800000D03*
X110400000Y-96800000D03*
X110400000Y-98900000D03*
X111050000Y-98900000D03*
X111700000Y-98900000D03*
G36*
G01*
X103875000Y-107050000D02*
X103875000Y-107150000D01*
G75*
G02*
X103825000Y-107200000I-50000J0D01*
G01*
X103050000Y-107200000D01*
G75*
G02*
X103000000Y-107150000I0J50000D01*
G01*
X103000000Y-107050000D01*
G75*
G02*
X103050000Y-107000000I50000J0D01*
G01*
X103825000Y-107000000D01*
G75*
G02*
X103875000Y-107050000I0J-50000D01*
G01*
G37*
G36*
G01*
X103875000Y-107450000D02*
X103875000Y-107550000D01*
G75*
G02*
X103825000Y-107600000I-50000J0D01*
G01*
X103050000Y-107600000D01*
G75*
G02*
X103000000Y-107550000I0J50000D01*
G01*
X103000000Y-107450000D01*
G75*
G02*
X103050000Y-107400000I50000J0D01*
G01*
X103825000Y-107400000D01*
G75*
G02*
X103875000Y-107450000I0J-50000D01*
G01*
G37*
G36*
G01*
X103875000Y-107850000D02*
X103875000Y-107950000D01*
G75*
G02*
X103825000Y-108000000I-50000J0D01*
G01*
X103050000Y-108000000D01*
G75*
G02*
X103000000Y-107950000I0J50000D01*
G01*
X103000000Y-107850000D01*
G75*
G02*
X103050000Y-107800000I50000J0D01*
G01*
X103825000Y-107800000D01*
G75*
G02*
X103875000Y-107850000I0J-50000D01*
G01*
G37*
G36*
G01*
X103875000Y-108250000D02*
X103875000Y-108350000D01*
G75*
G02*
X103825000Y-108400000I-50000J0D01*
G01*
X103050000Y-108400000D01*
G75*
G02*
X103000000Y-108350000I0J50000D01*
G01*
X103000000Y-108250000D01*
G75*
G02*
X103050000Y-108200000I50000J0D01*
G01*
X103825000Y-108200000D01*
G75*
G02*
X103875000Y-108250000I0J-50000D01*
G01*
G37*
G36*
G01*
X103875000Y-108650000D02*
X103875000Y-108750000D01*
G75*
G02*
X103825000Y-108800000I-50000J0D01*
G01*
X103050000Y-108800000D01*
G75*
G02*
X103000000Y-108750000I0J50000D01*
G01*
X103000000Y-108650000D01*
G75*
G02*
X103050000Y-108600000I50000J0D01*
G01*
X103825000Y-108600000D01*
G75*
G02*
X103875000Y-108650000I0J-50000D01*
G01*
G37*
G36*
G01*
X103875000Y-109050000D02*
X103875000Y-109150000D01*
G75*
G02*
X103825000Y-109200000I-50000J0D01*
G01*
X103050000Y-109200000D01*
G75*
G02*
X103000000Y-109150000I0J50000D01*
G01*
X103000000Y-109050000D01*
G75*
G02*
X103050000Y-109000000I50000J0D01*
G01*
X103825000Y-109000000D01*
G75*
G02*
X103875000Y-109050000I0J-50000D01*
G01*
G37*
G36*
G01*
X103875000Y-109450000D02*
X103875000Y-109550000D01*
G75*
G02*
X103825000Y-109600000I-50000J0D01*
G01*
X103050000Y-109600000D01*
G75*
G02*
X103000000Y-109550000I0J50000D01*
G01*
X103000000Y-109450000D01*
G75*
G02*
X103050000Y-109400000I50000J0D01*
G01*
X103825000Y-109400000D01*
G75*
G02*
X103875000Y-109450000I0J-50000D01*
G01*
G37*
G36*
G01*
X103875000Y-109850000D02*
X103875000Y-109950000D01*
G75*
G02*
X103825000Y-110000000I-50000J0D01*
G01*
X103050000Y-110000000D01*
G75*
G02*
X103000000Y-109950000I0J50000D01*
G01*
X103000000Y-109850000D01*
G75*
G02*
X103050000Y-109800000I50000J0D01*
G01*
X103825000Y-109800000D01*
G75*
G02*
X103875000Y-109850000I0J-50000D01*
G01*
G37*
G36*
G01*
X103875000Y-110250000D02*
X103875000Y-110350000D01*
G75*
G02*
X103825000Y-110400000I-50000J0D01*
G01*
X103050000Y-110400000D01*
G75*
G02*
X103000000Y-110350000I0J50000D01*
G01*
X103000000Y-110250000D01*
G75*
G02*
X103050000Y-110200000I50000J0D01*
G01*
X103825000Y-110200000D01*
G75*
G02*
X103875000Y-110250000I0J-50000D01*
G01*
G37*
G36*
G01*
X103875000Y-110650000D02*
X103875000Y-110750000D01*
G75*
G02*
X103825000Y-110800000I-50000J0D01*
G01*
X103050000Y-110800000D01*
G75*
G02*
X103000000Y-110750000I0J50000D01*
G01*
X103000000Y-110650000D01*
G75*
G02*
X103050000Y-110600000I50000J0D01*
G01*
X103825000Y-110600000D01*
G75*
G02*
X103875000Y-110650000I0J-50000D01*
G01*
G37*
G36*
G01*
X103875000Y-111050000D02*
X103875000Y-111150000D01*
G75*
G02*
X103825000Y-111200000I-50000J0D01*
G01*
X103050000Y-111200000D01*
G75*
G02*
X103000000Y-111150000I0J50000D01*
G01*
X103000000Y-111050000D01*
G75*
G02*
X103050000Y-111000000I50000J0D01*
G01*
X103825000Y-111000000D01*
G75*
G02*
X103875000Y-111050000I0J-50000D01*
G01*
G37*
G36*
G01*
X103875000Y-111450000D02*
X103875000Y-111550000D01*
G75*
G02*
X103825000Y-111600000I-50000J0D01*
G01*
X103050000Y-111600000D01*
G75*
G02*
X103000000Y-111550000I0J50000D01*
G01*
X103000000Y-111450000D01*
G75*
G02*
X103050000Y-111400000I50000J0D01*
G01*
X103825000Y-111400000D01*
G75*
G02*
X103875000Y-111450000I0J-50000D01*
G01*
G37*
G36*
G01*
X103875000Y-111850000D02*
X103875000Y-111950000D01*
G75*
G02*
X103825000Y-112000000I-50000J0D01*
G01*
X103050000Y-112000000D01*
G75*
G02*
X103000000Y-111950000I0J50000D01*
G01*
X103000000Y-111850000D01*
G75*
G02*
X103050000Y-111800000I50000J0D01*
G01*
X103825000Y-111800000D01*
G75*
G02*
X103875000Y-111850000I0J-50000D01*
G01*
G37*
G36*
G01*
X103875000Y-112250000D02*
X103875000Y-112350000D01*
G75*
G02*
X103825000Y-112400000I-50000J0D01*
G01*
X103050000Y-112400000D01*
G75*
G02*
X103000000Y-112350000I0J50000D01*
G01*
X103000000Y-112250000D01*
G75*
G02*
X103050000Y-112200000I50000J0D01*
G01*
X103825000Y-112200000D01*
G75*
G02*
X103875000Y-112250000I0J-50000D01*
G01*
G37*
G36*
G01*
X102700000Y-112750000D02*
X102700000Y-113525000D01*
G75*
G02*
X102650000Y-113575000I-50000J0D01*
G01*
X102550000Y-113575000D01*
G75*
G02*
X102500000Y-113525000I0J50000D01*
G01*
X102500000Y-112750000D01*
G75*
G02*
X102550000Y-112700000I50000J0D01*
G01*
X102650000Y-112700000D01*
G75*
G02*
X102700000Y-112750000I0J-50000D01*
G01*
G37*
G36*
G01*
X102300000Y-112750000D02*
X102300000Y-113525000D01*
G75*
G02*
X102250000Y-113575000I-50000J0D01*
G01*
X102150000Y-113575000D01*
G75*
G02*
X102100000Y-113525000I0J50000D01*
G01*
X102100000Y-112750000D01*
G75*
G02*
X102150000Y-112700000I50000J0D01*
G01*
X102250000Y-112700000D01*
G75*
G02*
X102300000Y-112750000I0J-50000D01*
G01*
G37*
G36*
G01*
X101900000Y-112750000D02*
X101900000Y-113525000D01*
G75*
G02*
X101850000Y-113575000I-50000J0D01*
G01*
X101750000Y-113575000D01*
G75*
G02*
X101700000Y-113525000I0J50000D01*
G01*
X101700000Y-112750000D01*
G75*
G02*
X101750000Y-112700000I50000J0D01*
G01*
X101850000Y-112700000D01*
G75*
G02*
X101900000Y-112750000I0J-50000D01*
G01*
G37*
G36*
G01*
X101500000Y-112750000D02*
X101500000Y-113525000D01*
G75*
G02*
X101450000Y-113575000I-50000J0D01*
G01*
X101350000Y-113575000D01*
G75*
G02*
X101300000Y-113525000I0J50000D01*
G01*
X101300000Y-112750000D01*
G75*
G02*
X101350000Y-112700000I50000J0D01*
G01*
X101450000Y-112700000D01*
G75*
G02*
X101500000Y-112750000I0J-50000D01*
G01*
G37*
G36*
G01*
X101100000Y-112750000D02*
X101100000Y-113525000D01*
G75*
G02*
X101050000Y-113575000I-50000J0D01*
G01*
X100950000Y-113575000D01*
G75*
G02*
X100900000Y-113525000I0J50000D01*
G01*
X100900000Y-112750000D01*
G75*
G02*
X100950000Y-112700000I50000J0D01*
G01*
X101050000Y-112700000D01*
G75*
G02*
X101100000Y-112750000I0J-50000D01*
G01*
G37*
G36*
G01*
X100700000Y-112750000D02*
X100700000Y-113525000D01*
G75*
G02*
X100650000Y-113575000I-50000J0D01*
G01*
X100550000Y-113575000D01*
G75*
G02*
X100500000Y-113525000I0J50000D01*
G01*
X100500000Y-112750000D01*
G75*
G02*
X100550000Y-112700000I50000J0D01*
G01*
X100650000Y-112700000D01*
G75*
G02*
X100700000Y-112750000I0J-50000D01*
G01*
G37*
G36*
G01*
X100300000Y-112750000D02*
X100300000Y-113525000D01*
G75*
G02*
X100250000Y-113575000I-50000J0D01*
G01*
X100150000Y-113575000D01*
G75*
G02*
X100100000Y-113525000I0J50000D01*
G01*
X100100000Y-112750000D01*
G75*
G02*
X100150000Y-112700000I50000J0D01*
G01*
X100250000Y-112700000D01*
G75*
G02*
X100300000Y-112750000I0J-50000D01*
G01*
G37*
G36*
G01*
X99900000Y-112750000D02*
X99900000Y-113525000D01*
G75*
G02*
X99850000Y-113575000I-50000J0D01*
G01*
X99750000Y-113575000D01*
G75*
G02*
X99700000Y-113525000I0J50000D01*
G01*
X99700000Y-112750000D01*
G75*
G02*
X99750000Y-112700000I50000J0D01*
G01*
X99850000Y-112700000D01*
G75*
G02*
X99900000Y-112750000I0J-50000D01*
G01*
G37*
G36*
G01*
X99500000Y-112750000D02*
X99500000Y-113525000D01*
G75*
G02*
X99450000Y-113575000I-50000J0D01*
G01*
X99350000Y-113575000D01*
G75*
G02*
X99300000Y-113525000I0J50000D01*
G01*
X99300000Y-112750000D01*
G75*
G02*
X99350000Y-112700000I50000J0D01*
G01*
X99450000Y-112700000D01*
G75*
G02*
X99500000Y-112750000I0J-50000D01*
G01*
G37*
G36*
G01*
X99100000Y-112750000D02*
X99100000Y-113525000D01*
G75*
G02*
X99050000Y-113575000I-50000J0D01*
G01*
X98950000Y-113575000D01*
G75*
G02*
X98900000Y-113525000I0J50000D01*
G01*
X98900000Y-112750000D01*
G75*
G02*
X98950000Y-112700000I50000J0D01*
G01*
X99050000Y-112700000D01*
G75*
G02*
X99100000Y-112750000I0J-50000D01*
G01*
G37*
G36*
G01*
X98700000Y-112750000D02*
X98700000Y-113525000D01*
G75*
G02*
X98650000Y-113575000I-50000J0D01*
G01*
X98550000Y-113575000D01*
G75*
G02*
X98500000Y-113525000I0J50000D01*
G01*
X98500000Y-112750000D01*
G75*
G02*
X98550000Y-112700000I50000J0D01*
G01*
X98650000Y-112700000D01*
G75*
G02*
X98700000Y-112750000I0J-50000D01*
G01*
G37*
G36*
G01*
X98300000Y-112750000D02*
X98300000Y-113525000D01*
G75*
G02*
X98250000Y-113575000I-50000J0D01*
G01*
X98150000Y-113575000D01*
G75*
G02*
X98100000Y-113525000I0J50000D01*
G01*
X98100000Y-112750000D01*
G75*
G02*
X98150000Y-112700000I50000J0D01*
G01*
X98250000Y-112700000D01*
G75*
G02*
X98300000Y-112750000I0J-50000D01*
G01*
G37*
G36*
G01*
X97900000Y-112750000D02*
X97900000Y-113525000D01*
G75*
G02*
X97850000Y-113575000I-50000J0D01*
G01*
X97750000Y-113575000D01*
G75*
G02*
X97700000Y-113525000I0J50000D01*
G01*
X97700000Y-112750000D01*
G75*
G02*
X97750000Y-112700000I50000J0D01*
G01*
X97850000Y-112700000D01*
G75*
G02*
X97900000Y-112750000I0J-50000D01*
G01*
G37*
G36*
G01*
X97500000Y-112750000D02*
X97500000Y-113525000D01*
G75*
G02*
X97450000Y-113575000I-50000J0D01*
G01*
X97350000Y-113575000D01*
G75*
G02*
X97300000Y-113525000I0J50000D01*
G01*
X97300000Y-112750000D01*
G75*
G02*
X97350000Y-112700000I50000J0D01*
G01*
X97450000Y-112700000D01*
G75*
G02*
X97500000Y-112750000I0J-50000D01*
G01*
G37*
G36*
G01*
X97000000Y-112250000D02*
X97000000Y-112350000D01*
G75*
G02*
X96950000Y-112400000I-50000J0D01*
G01*
X96175000Y-112400000D01*
G75*
G02*
X96125000Y-112350000I0J50000D01*
G01*
X96125000Y-112250000D01*
G75*
G02*
X96175000Y-112200000I50000J0D01*
G01*
X96950000Y-112200000D01*
G75*
G02*
X97000000Y-112250000I0J-50000D01*
G01*
G37*
G36*
G01*
X97000000Y-111850000D02*
X97000000Y-111950000D01*
G75*
G02*
X96950000Y-112000000I-50000J0D01*
G01*
X96175000Y-112000000D01*
G75*
G02*
X96125000Y-111950000I0J50000D01*
G01*
X96125000Y-111850000D01*
G75*
G02*
X96175000Y-111800000I50000J0D01*
G01*
X96950000Y-111800000D01*
G75*
G02*
X97000000Y-111850000I0J-50000D01*
G01*
G37*
G36*
G01*
X97000000Y-111450000D02*
X97000000Y-111550000D01*
G75*
G02*
X96950000Y-111600000I-50000J0D01*
G01*
X96175000Y-111600000D01*
G75*
G02*
X96125000Y-111550000I0J50000D01*
G01*
X96125000Y-111450000D01*
G75*
G02*
X96175000Y-111400000I50000J0D01*
G01*
X96950000Y-111400000D01*
G75*
G02*
X97000000Y-111450000I0J-50000D01*
G01*
G37*
G36*
G01*
X97000000Y-111050000D02*
X97000000Y-111150000D01*
G75*
G02*
X96950000Y-111200000I-50000J0D01*
G01*
X96175000Y-111200000D01*
G75*
G02*
X96125000Y-111150000I0J50000D01*
G01*
X96125000Y-111050000D01*
G75*
G02*
X96175000Y-111000000I50000J0D01*
G01*
X96950000Y-111000000D01*
G75*
G02*
X97000000Y-111050000I0J-50000D01*
G01*
G37*
G36*
G01*
X97000000Y-110650000D02*
X97000000Y-110750000D01*
G75*
G02*
X96950000Y-110800000I-50000J0D01*
G01*
X96175000Y-110800000D01*
G75*
G02*
X96125000Y-110750000I0J50000D01*
G01*
X96125000Y-110650000D01*
G75*
G02*
X96175000Y-110600000I50000J0D01*
G01*
X96950000Y-110600000D01*
G75*
G02*
X97000000Y-110650000I0J-50000D01*
G01*
G37*
G36*
G01*
X97000000Y-110250000D02*
X97000000Y-110350000D01*
G75*
G02*
X96950000Y-110400000I-50000J0D01*
G01*
X96175000Y-110400000D01*
G75*
G02*
X96125000Y-110350000I0J50000D01*
G01*
X96125000Y-110250000D01*
G75*
G02*
X96175000Y-110200000I50000J0D01*
G01*
X96950000Y-110200000D01*
G75*
G02*
X97000000Y-110250000I0J-50000D01*
G01*
G37*
G36*
G01*
X97000000Y-109850000D02*
X97000000Y-109950000D01*
G75*
G02*
X96950000Y-110000000I-50000J0D01*
G01*
X96175000Y-110000000D01*
G75*
G02*
X96125000Y-109950000I0J50000D01*
G01*
X96125000Y-109850000D01*
G75*
G02*
X96175000Y-109800000I50000J0D01*
G01*
X96950000Y-109800000D01*
G75*
G02*
X97000000Y-109850000I0J-50000D01*
G01*
G37*
G36*
G01*
X97000000Y-109450000D02*
X97000000Y-109550000D01*
G75*
G02*
X96950000Y-109600000I-50000J0D01*
G01*
X96175000Y-109600000D01*
G75*
G02*
X96125000Y-109550000I0J50000D01*
G01*
X96125000Y-109450000D01*
G75*
G02*
X96175000Y-109400000I50000J0D01*
G01*
X96950000Y-109400000D01*
G75*
G02*
X97000000Y-109450000I0J-50000D01*
G01*
G37*
G36*
G01*
X97000000Y-109050000D02*
X97000000Y-109150000D01*
G75*
G02*
X96950000Y-109200000I-50000J0D01*
G01*
X96175000Y-109200000D01*
G75*
G02*
X96125000Y-109150000I0J50000D01*
G01*
X96125000Y-109050000D01*
G75*
G02*
X96175000Y-109000000I50000J0D01*
G01*
X96950000Y-109000000D01*
G75*
G02*
X97000000Y-109050000I0J-50000D01*
G01*
G37*
G36*
G01*
X97000000Y-108650000D02*
X97000000Y-108750000D01*
G75*
G02*
X96950000Y-108800000I-50000J0D01*
G01*
X96175000Y-108800000D01*
G75*
G02*
X96125000Y-108750000I0J50000D01*
G01*
X96125000Y-108650000D01*
G75*
G02*
X96175000Y-108600000I50000J0D01*
G01*
X96950000Y-108600000D01*
G75*
G02*
X97000000Y-108650000I0J-50000D01*
G01*
G37*
G36*
G01*
X97000000Y-108250000D02*
X97000000Y-108350000D01*
G75*
G02*
X96950000Y-108400000I-50000J0D01*
G01*
X96175000Y-108400000D01*
G75*
G02*
X96125000Y-108350000I0J50000D01*
G01*
X96125000Y-108250000D01*
G75*
G02*
X96175000Y-108200000I50000J0D01*
G01*
X96950000Y-108200000D01*
G75*
G02*
X97000000Y-108250000I0J-50000D01*
G01*
G37*
G36*
G01*
X97000000Y-107850000D02*
X97000000Y-107950000D01*
G75*
G02*
X96950000Y-108000000I-50000J0D01*
G01*
X96175000Y-108000000D01*
G75*
G02*
X96125000Y-107950000I0J50000D01*
G01*
X96125000Y-107850000D01*
G75*
G02*
X96175000Y-107800000I50000J0D01*
G01*
X96950000Y-107800000D01*
G75*
G02*
X97000000Y-107850000I0J-50000D01*
G01*
G37*
G36*
G01*
X97000000Y-107450000D02*
X97000000Y-107550000D01*
G75*
G02*
X96950000Y-107600000I-50000J0D01*
G01*
X96175000Y-107600000D01*
G75*
G02*
X96125000Y-107550000I0J50000D01*
G01*
X96125000Y-107450000D01*
G75*
G02*
X96175000Y-107400000I50000J0D01*
G01*
X96950000Y-107400000D01*
G75*
G02*
X97000000Y-107450000I0J-50000D01*
G01*
G37*
G36*
G01*
X97000000Y-107050000D02*
X97000000Y-107150000D01*
G75*
G02*
X96950000Y-107200000I-50000J0D01*
G01*
X96175000Y-107200000D01*
G75*
G02*
X96125000Y-107150000I0J50000D01*
G01*
X96125000Y-107050000D01*
G75*
G02*
X96175000Y-107000000I50000J0D01*
G01*
X96950000Y-107000000D01*
G75*
G02*
X97000000Y-107050000I0J-50000D01*
G01*
G37*
G36*
G01*
X97500000Y-105875000D02*
X97500000Y-106650000D01*
G75*
G02*
X97450000Y-106700000I-50000J0D01*
G01*
X97350000Y-106700000D01*
G75*
G02*
X97300000Y-106650000I0J50000D01*
G01*
X97300000Y-105875000D01*
G75*
G02*
X97350000Y-105825000I50000J0D01*
G01*
X97450000Y-105825000D01*
G75*
G02*
X97500000Y-105875000I0J-50000D01*
G01*
G37*
G36*
G01*
X97900000Y-105875000D02*
X97900000Y-106650000D01*
G75*
G02*
X97850000Y-106700000I-50000J0D01*
G01*
X97750000Y-106700000D01*
G75*
G02*
X97700000Y-106650000I0J50000D01*
G01*
X97700000Y-105875000D01*
G75*
G02*
X97750000Y-105825000I50000J0D01*
G01*
X97850000Y-105825000D01*
G75*
G02*
X97900000Y-105875000I0J-50000D01*
G01*
G37*
G36*
G01*
X98300000Y-105875000D02*
X98300000Y-106650000D01*
G75*
G02*
X98250000Y-106700000I-50000J0D01*
G01*
X98150000Y-106700000D01*
G75*
G02*
X98100000Y-106650000I0J50000D01*
G01*
X98100000Y-105875000D01*
G75*
G02*
X98150000Y-105825000I50000J0D01*
G01*
X98250000Y-105825000D01*
G75*
G02*
X98300000Y-105875000I0J-50000D01*
G01*
G37*
G36*
G01*
X98700000Y-105875000D02*
X98700000Y-106650000D01*
G75*
G02*
X98650000Y-106700000I-50000J0D01*
G01*
X98550000Y-106700000D01*
G75*
G02*
X98500000Y-106650000I0J50000D01*
G01*
X98500000Y-105875000D01*
G75*
G02*
X98550000Y-105825000I50000J0D01*
G01*
X98650000Y-105825000D01*
G75*
G02*
X98700000Y-105875000I0J-50000D01*
G01*
G37*
G36*
G01*
X99100000Y-105875000D02*
X99100000Y-106650000D01*
G75*
G02*
X99050000Y-106700000I-50000J0D01*
G01*
X98950000Y-106700000D01*
G75*
G02*
X98900000Y-106650000I0J50000D01*
G01*
X98900000Y-105875000D01*
G75*
G02*
X98950000Y-105825000I50000J0D01*
G01*
X99050000Y-105825000D01*
G75*
G02*
X99100000Y-105875000I0J-50000D01*
G01*
G37*
G36*
G01*
X99500000Y-105875000D02*
X99500000Y-106650000D01*
G75*
G02*
X99450000Y-106700000I-50000J0D01*
G01*
X99350000Y-106700000D01*
G75*
G02*
X99300000Y-106650000I0J50000D01*
G01*
X99300000Y-105875000D01*
G75*
G02*
X99350000Y-105825000I50000J0D01*
G01*
X99450000Y-105825000D01*
G75*
G02*
X99500000Y-105875000I0J-50000D01*
G01*
G37*
G36*
G01*
X99900000Y-105875000D02*
X99900000Y-106650000D01*
G75*
G02*
X99850000Y-106700000I-50000J0D01*
G01*
X99750000Y-106700000D01*
G75*
G02*
X99700000Y-106650000I0J50000D01*
G01*
X99700000Y-105875000D01*
G75*
G02*
X99750000Y-105825000I50000J0D01*
G01*
X99850000Y-105825000D01*
G75*
G02*
X99900000Y-105875000I0J-50000D01*
G01*
G37*
G36*
G01*
X100300000Y-105875000D02*
X100300000Y-106650000D01*
G75*
G02*
X100250000Y-106700000I-50000J0D01*
G01*
X100150000Y-106700000D01*
G75*
G02*
X100100000Y-106650000I0J50000D01*
G01*
X100100000Y-105875000D01*
G75*
G02*
X100150000Y-105825000I50000J0D01*
G01*
X100250000Y-105825000D01*
G75*
G02*
X100300000Y-105875000I0J-50000D01*
G01*
G37*
G36*
G01*
X100700000Y-105875000D02*
X100700000Y-106650000D01*
G75*
G02*
X100650000Y-106700000I-50000J0D01*
G01*
X100550000Y-106700000D01*
G75*
G02*
X100500000Y-106650000I0J50000D01*
G01*
X100500000Y-105875000D01*
G75*
G02*
X100550000Y-105825000I50000J0D01*
G01*
X100650000Y-105825000D01*
G75*
G02*
X100700000Y-105875000I0J-50000D01*
G01*
G37*
G36*
G01*
X101100000Y-105875000D02*
X101100000Y-106650000D01*
G75*
G02*
X101050000Y-106700000I-50000J0D01*
G01*
X100950000Y-106700000D01*
G75*
G02*
X100900000Y-106650000I0J50000D01*
G01*
X100900000Y-105875000D01*
G75*
G02*
X100950000Y-105825000I50000J0D01*
G01*
X101050000Y-105825000D01*
G75*
G02*
X101100000Y-105875000I0J-50000D01*
G01*
G37*
G36*
G01*
X101500000Y-105875000D02*
X101500000Y-106650000D01*
G75*
G02*
X101450000Y-106700000I-50000J0D01*
G01*
X101350000Y-106700000D01*
G75*
G02*
X101300000Y-106650000I0J50000D01*
G01*
X101300000Y-105875000D01*
G75*
G02*
X101350000Y-105825000I50000J0D01*
G01*
X101450000Y-105825000D01*
G75*
G02*
X101500000Y-105875000I0J-50000D01*
G01*
G37*
G36*
G01*
X101900000Y-105875000D02*
X101900000Y-106650000D01*
G75*
G02*
X101850000Y-106700000I-50000J0D01*
G01*
X101750000Y-106700000D01*
G75*
G02*
X101700000Y-106650000I0J50000D01*
G01*
X101700000Y-105875000D01*
G75*
G02*
X101750000Y-105825000I50000J0D01*
G01*
X101850000Y-105825000D01*
G75*
G02*
X101900000Y-105875000I0J-50000D01*
G01*
G37*
G36*
G01*
X102300000Y-105875000D02*
X102300000Y-106650000D01*
G75*
G02*
X102250000Y-106700000I-50000J0D01*
G01*
X102150000Y-106700000D01*
G75*
G02*
X102100000Y-106650000I0J50000D01*
G01*
X102100000Y-105875000D01*
G75*
G02*
X102150000Y-105825000I50000J0D01*
G01*
X102250000Y-105825000D01*
G75*
G02*
X102300000Y-105875000I0J-50000D01*
G01*
G37*
G36*
G01*
X102700000Y-105875000D02*
X102700000Y-106650000D01*
G75*
G02*
X102650000Y-106700000I-50000J0D01*
G01*
X102550000Y-106700000D01*
G75*
G02*
X102500000Y-106650000I0J50000D01*
G01*
X102500000Y-105875000D01*
G75*
G02*
X102550000Y-105825000I50000J0D01*
G01*
X102650000Y-105825000D01*
G75*
G02*
X102700000Y-105875000I0J-50000D01*
G01*
G37*
D16*
X100000000Y-109700000D03*
D17*
X100000000Y-100500000D03*
D18*
X97600000Y-102250000D03*
X97600000Y-101750000D03*
X97600000Y-101250000D03*
X97600000Y-100750000D03*
X97600000Y-100250000D03*
X97600000Y-99750000D03*
X97600000Y-99250000D03*
X97600000Y-98750000D03*
D19*
X98250000Y-98100000D03*
X98750000Y-98100000D03*
X99250000Y-98100000D03*
X99750000Y-98100000D03*
X100250000Y-98100000D03*
X100750000Y-98100000D03*
X101250000Y-98100000D03*
X101750000Y-98100000D03*
D18*
X102400000Y-98750000D03*
X102400000Y-99250000D03*
X102400000Y-99750000D03*
X102400000Y-100250000D03*
X102400000Y-100750000D03*
X102400000Y-101250000D03*
X102400000Y-101750000D03*
X102400000Y-102250000D03*
D19*
X101750000Y-102900000D03*
X101250000Y-102900000D03*
X100750000Y-102900000D03*
X100250000Y-102900000D03*
X99750000Y-102900000D03*
X99250000Y-102900000D03*
X98750000Y-102900000D03*
X98250000Y-102900000D03*
D15*
X85100000Y-104750000D03*
X84450000Y-104750000D03*
X83800000Y-104750000D03*
X83800000Y-102650000D03*
X84450000Y-102650000D03*
X85100000Y-102650000D03*
D14*
X84450000Y-103700000D03*
G36*
G01*
X88700000Y-106100000D02*
X88550000Y-106100000D01*
G75*
G02*
X88475000Y-106025000I0J75000D01*
G01*
X88475000Y-105375000D01*
G75*
G02*
X88550000Y-105300000I75000J0D01*
G01*
X88700000Y-105300000D01*
G75*
G02*
X88775000Y-105375000I0J-75000D01*
G01*
X88775000Y-106025000D01*
G75*
G02*
X88700000Y-106100000I-75000J0D01*
G01*
G37*
G36*
G01*
X88050000Y-106100000D02*
X87900000Y-106100000D01*
G75*
G02*
X87825000Y-106025000I0J75000D01*
G01*
X87825000Y-105375000D01*
G75*
G02*
X87900000Y-105300000I75000J0D01*
G01*
X88050000Y-105300000D01*
G75*
G02*
X88125000Y-105375000I0J-75000D01*
G01*
X88125000Y-106025000D01*
G75*
G02*
X88050000Y-106100000I-75000J0D01*
G01*
G37*
G36*
G01*
X87400000Y-106100000D02*
X87250000Y-106100000D01*
G75*
G02*
X87175000Y-106025000I0J75000D01*
G01*
X87175000Y-105375000D01*
G75*
G02*
X87250000Y-105300000I75000J0D01*
G01*
X87400000Y-105300000D01*
G75*
G02*
X87475000Y-105375000I0J-75000D01*
G01*
X87475000Y-106025000D01*
G75*
G02*
X87400000Y-106100000I-75000J0D01*
G01*
G37*
G36*
G01*
X86750000Y-106100000D02*
X86600000Y-106100000D01*
G75*
G02*
X86525000Y-106025000I0J75000D01*
G01*
X86525000Y-105375000D01*
G75*
G02*
X86600000Y-105300000I75000J0D01*
G01*
X86750000Y-105300000D01*
G75*
G02*
X86825000Y-105375000I0J-75000D01*
G01*
X86825000Y-106025000D01*
G75*
G02*
X86750000Y-106100000I-75000J0D01*
G01*
G37*
G36*
G01*
X86750000Y-103200000D02*
X86600000Y-103200000D01*
G75*
G02*
X86525000Y-103125000I0J75000D01*
G01*
X86525000Y-102475000D01*
G75*
G02*
X86600000Y-102400000I75000J0D01*
G01*
X86750000Y-102400000D01*
G75*
G02*
X86825000Y-102475000I0J-75000D01*
G01*
X86825000Y-103125000D01*
G75*
G02*
X86750000Y-103200000I-75000J0D01*
G01*
G37*
G36*
G01*
X87400000Y-103200000D02*
X87250000Y-103200000D01*
G75*
G02*
X87175000Y-103125000I0J75000D01*
G01*
X87175000Y-102475000D01*
G75*
G02*
X87250000Y-102400000I75000J0D01*
G01*
X87400000Y-102400000D01*
G75*
G02*
X87475000Y-102475000I0J-75000D01*
G01*
X87475000Y-103125000D01*
G75*
G02*
X87400000Y-103200000I-75000J0D01*
G01*
G37*
G36*
G01*
X88050000Y-103200000D02*
X87900000Y-103200000D01*
G75*
G02*
X87825000Y-103125000I0J75000D01*
G01*
X87825000Y-102475000D01*
G75*
G02*
X87900000Y-102400000I75000J0D01*
G01*
X88050000Y-102400000D01*
G75*
G02*
X88125000Y-102475000I0J-75000D01*
G01*
X88125000Y-103125000D01*
G75*
G02*
X88050000Y-103200000I-75000J0D01*
G01*
G37*
G36*
G01*
X88700000Y-103200000D02*
X88550000Y-103200000D01*
G75*
G02*
X88475000Y-103125000I0J75000D01*
G01*
X88475000Y-102475000D01*
G75*
G02*
X88550000Y-102400000I75000J0D01*
G01*
X88700000Y-102400000D01*
G75*
G02*
X88775000Y-102475000I0J-75000D01*
G01*
X88775000Y-103125000D01*
G75*
G02*
X88700000Y-103200000I-75000J0D01*
G01*
G37*
D20*
X87650000Y-104250000D03*
M02*
