G04 #@! TF.GenerationSoftware,KiCad,Pcbnew,(5.1.8)-1*
G04 #@! TF.CreationDate,2020-11-22T23:20:16-08:00*
G04 #@! TF.ProjectId,Thruster_Controller_V2,54687275-7374-4657-925f-436f6e74726f,rev?*
G04 #@! TF.SameCoordinates,Original*
G04 #@! TF.FileFunction,Legend,Top*
G04 #@! TF.FilePolarity,Positive*
%FSLAX46Y46*%
G04 Gerber Fmt 4.6, Leading zero omitted, Abs format (unit mm)*
G04 Created by KiCad (PCBNEW (5.1.8)-1) date 2020-11-22 23:20:16*
%MOMM*%
%LPD*%
G01*
G04 APERTURE LIST*
%ADD10C,0.125000*%
%ADD11C,0.150000*%
%ADD12C,0.120000*%
%ADD13C,0.100000*%
G04 APERTURE END LIST*
D10*
X115334040Y-93935714D02*
X115714992Y-93935714D01*
X115500706Y-94126190D02*
X115548325Y-93745238D01*
X116128683Y-93864285D02*
X116197135Y-93888095D01*
X116217968Y-93911904D01*
X116235825Y-93959523D01*
X116226897Y-94030952D01*
X116197135Y-94078571D01*
X116170349Y-94102380D01*
X116119754Y-94126190D01*
X115929278Y-94126190D01*
X115991778Y-93626190D01*
X116158444Y-93626190D01*
X116203087Y-93650000D01*
X116223921Y-93673809D01*
X116241778Y-93721428D01*
X116235825Y-93769047D01*
X116206063Y-93816666D01*
X116179278Y-93840476D01*
X116128683Y-93864285D01*
X115962016Y-93864285D01*
X116423325Y-93983333D02*
X116661421Y-93983333D01*
X116357849Y-94126190D02*
X116587016Y-93626190D01*
X116691183Y-94126190D01*
X116848921Y-93626190D02*
X117134635Y-93626190D01*
X116929278Y-94126190D02*
X116991778Y-93626190D01*
X117229873Y-93626190D02*
X117515587Y-93626190D01*
X117310230Y-94126190D02*
X117372730Y-93626190D01*
X92146666Y-107536190D02*
X91908571Y-107536190D01*
X91884761Y-107774285D01*
X91908571Y-107750476D01*
X91956190Y-107726666D01*
X92075238Y-107726666D01*
X92122857Y-107750476D01*
X92146666Y-107774285D01*
X92170476Y-107821904D01*
X92170476Y-107940952D01*
X92146666Y-107988571D01*
X92122857Y-108012380D01*
X92075238Y-108036190D01*
X91956190Y-108036190D01*
X91908571Y-108012380D01*
X91884761Y-107988571D01*
X92313333Y-107536190D02*
X92480000Y-108036190D01*
X92646666Y-107536190D01*
X92908571Y-107536190D02*
X92956190Y-107536190D01*
X93003809Y-107560000D01*
X93027619Y-107583809D01*
X93051428Y-107631428D01*
X93075238Y-107726666D01*
X93075238Y-107845714D01*
X93051428Y-107940952D01*
X93027619Y-107988571D01*
X93003809Y-108012380D01*
X92956190Y-108036190D01*
X92908571Y-108036190D01*
X92860952Y-108012380D01*
X92837142Y-107988571D01*
X92813333Y-107940952D01*
X92789523Y-107845714D01*
X92789523Y-107726666D01*
X92813333Y-107631428D01*
X92837142Y-107583809D01*
X92860952Y-107560000D01*
X92908571Y-107536190D01*
X113662380Y-106658690D02*
X113948095Y-106658690D01*
X113805238Y-107158690D02*
X113805238Y-106658690D01*
X114114761Y-106896785D02*
X114281428Y-106896785D01*
X114352857Y-107158690D02*
X114114761Y-107158690D01*
X114114761Y-106658690D01*
X114352857Y-106658690D01*
X114543333Y-107134880D02*
X114614761Y-107158690D01*
X114733809Y-107158690D01*
X114781428Y-107134880D01*
X114805238Y-107111071D01*
X114829047Y-107063452D01*
X114829047Y-107015833D01*
X114805238Y-106968214D01*
X114781428Y-106944404D01*
X114733809Y-106920595D01*
X114638571Y-106896785D01*
X114590952Y-106872976D01*
X114567142Y-106849166D01*
X114543333Y-106801547D01*
X114543333Y-106753928D01*
X114567142Y-106706309D01*
X114590952Y-106682500D01*
X114638571Y-106658690D01*
X114757619Y-106658690D01*
X114829047Y-106682500D01*
X114971904Y-106658690D02*
X115257619Y-106658690D01*
X115114761Y-107158690D02*
X115114761Y-106658690D01*
X114138571Y-108033690D02*
X113900476Y-108033690D01*
X113900476Y-107533690D01*
X114305238Y-107771785D02*
X114471904Y-107771785D01*
X114543333Y-108033690D02*
X114305238Y-108033690D01*
X114305238Y-107533690D01*
X114543333Y-107533690D01*
X114757619Y-108033690D02*
X114757619Y-107533690D01*
X114876666Y-107533690D01*
X114948095Y-107557500D01*
X114995714Y-107605119D01*
X115019523Y-107652738D01*
X115043333Y-107747976D01*
X115043333Y-107819404D01*
X115019523Y-107914642D01*
X114995714Y-107962261D01*
X114948095Y-108009880D01*
X114876666Y-108033690D01*
X114757619Y-108033690D01*
X104502380Y-101354285D02*
X104335714Y-101354285D01*
X104335714Y-101616190D02*
X104335714Y-101116190D01*
X104573809Y-101116190D01*
X104740476Y-101473333D02*
X104978571Y-101473333D01*
X104692857Y-101616190D02*
X104859523Y-101116190D01*
X105026190Y-101616190D01*
X105192857Y-101116190D02*
X105192857Y-101520952D01*
X105216666Y-101568571D01*
X105240476Y-101592380D01*
X105288095Y-101616190D01*
X105383333Y-101616190D01*
X105430952Y-101592380D01*
X105454761Y-101568571D01*
X105478571Y-101520952D01*
X105478571Y-101116190D01*
X105954761Y-101616190D02*
X105716666Y-101616190D01*
X105716666Y-101116190D01*
X106050000Y-101116190D02*
X106335714Y-101116190D01*
X106192857Y-101616190D02*
X106192857Y-101116190D01*
X96380952Y-96964285D02*
X96214285Y-96964285D01*
X96214285Y-97226190D02*
X96214285Y-96726190D01*
X96452380Y-96726190D01*
X96714285Y-97226190D02*
X96666666Y-97202380D01*
X96642857Y-97178571D01*
X96619047Y-97130952D01*
X96619047Y-96988095D01*
X96642857Y-96940476D01*
X96666666Y-96916666D01*
X96714285Y-96892857D01*
X96785714Y-96892857D01*
X96833333Y-96916666D01*
X96857142Y-96940476D01*
X96880952Y-96988095D01*
X96880952Y-97130952D01*
X96857142Y-97178571D01*
X96833333Y-97202380D01*
X96785714Y-97226190D01*
X96714285Y-97226190D01*
X97095238Y-97226190D02*
X97095238Y-96892857D01*
X97095238Y-96988095D02*
X97119047Y-96940476D01*
X97142857Y-96916666D01*
X97190476Y-96892857D01*
X97238095Y-96892857D01*
X97714285Y-96892857D02*
X97904761Y-96892857D01*
X97785714Y-96726190D02*
X97785714Y-97154761D01*
X97809523Y-97202380D01*
X97857142Y-97226190D01*
X97904761Y-97226190D01*
X98071428Y-97226190D02*
X98071428Y-96726190D01*
X98285714Y-97226190D02*
X98285714Y-96964285D01*
X98261904Y-96916666D01*
X98214285Y-96892857D01*
X98142857Y-96892857D01*
X98095238Y-96916666D01*
X98071428Y-96940476D01*
X98714285Y-97202380D02*
X98666666Y-97226190D01*
X98571428Y-97226190D01*
X98523809Y-97202380D01*
X98500000Y-97154761D01*
X98500000Y-96964285D01*
X98523809Y-96916666D01*
X98571428Y-96892857D01*
X98666666Y-96892857D01*
X98714285Y-96916666D01*
X98738095Y-96964285D01*
X98738095Y-97011904D01*
X98500000Y-97059523D01*
X99500000Y-96964285D02*
X99571428Y-96988095D01*
X99595238Y-97011904D01*
X99619047Y-97059523D01*
X99619047Y-97130952D01*
X99595238Y-97178571D01*
X99571428Y-97202380D01*
X99523809Y-97226190D01*
X99333333Y-97226190D01*
X99333333Y-96726190D01*
X99500000Y-96726190D01*
X99547619Y-96750000D01*
X99571428Y-96773809D01*
X99595238Y-96821428D01*
X99595238Y-96869047D01*
X99571428Y-96916666D01*
X99547619Y-96940476D01*
X99500000Y-96964285D01*
X99333333Y-96964285D01*
X100119047Y-97226190D02*
X99952380Y-96988095D01*
X99833333Y-97226190D02*
X99833333Y-96726190D01*
X100023809Y-96726190D01*
X100071428Y-96750000D01*
X100095238Y-96773809D01*
X100119047Y-96821428D01*
X100119047Y-96892857D01*
X100095238Y-96940476D01*
X100071428Y-96964285D01*
X100023809Y-96988095D01*
X99833333Y-96988095D01*
X100642857Y-96726190D02*
X100928571Y-96726190D01*
X100785714Y-97226190D02*
X100785714Y-96726190D01*
X101071428Y-96773809D02*
X101095238Y-96750000D01*
X101142857Y-96726190D01*
X101261904Y-96726190D01*
X101309523Y-96750000D01*
X101333333Y-96773809D01*
X101357142Y-96821428D01*
X101357142Y-96869047D01*
X101333333Y-96940476D01*
X101047619Y-97226190D01*
X101357142Y-97226190D01*
X101666666Y-96726190D02*
X101714285Y-96726190D01*
X101761904Y-96750000D01*
X101785714Y-96773809D01*
X101809523Y-96821428D01*
X101833333Y-96916666D01*
X101833333Y-97035714D01*
X101809523Y-97130952D01*
X101785714Y-97178571D01*
X101761904Y-97202380D01*
X101714285Y-97226190D01*
X101666666Y-97226190D01*
X101619047Y-97202380D01*
X101595238Y-97178571D01*
X101571428Y-97130952D01*
X101547619Y-97035714D01*
X101547619Y-96916666D01*
X101571428Y-96821428D01*
X101595238Y-96773809D01*
X101619047Y-96750000D01*
X101666666Y-96726190D01*
X102142857Y-96726190D02*
X102190476Y-96726190D01*
X102238095Y-96750000D01*
X102261904Y-96773809D01*
X102285714Y-96821428D01*
X102309523Y-96916666D01*
X102309523Y-97035714D01*
X102285714Y-97130952D01*
X102261904Y-97178571D01*
X102238095Y-97202380D01*
X102190476Y-97226190D01*
X102142857Y-97226190D01*
X102095238Y-97202380D01*
X102071428Y-97178571D01*
X102047619Y-97130952D01*
X102023809Y-97035714D01*
X102023809Y-96916666D01*
X102047619Y-96821428D01*
X102071428Y-96773809D01*
X102095238Y-96750000D01*
X102142857Y-96726190D01*
D11*
X93252380Y-96103571D02*
X93035714Y-96103571D01*
X93035714Y-96444047D02*
X93035714Y-95794047D01*
X93345238Y-95794047D01*
X93716666Y-95794047D02*
X93840476Y-95794047D01*
X93902380Y-95825000D01*
X93964285Y-95886904D01*
X93995238Y-96010714D01*
X93995238Y-96227380D01*
X93964285Y-96351190D01*
X93902380Y-96413095D01*
X93840476Y-96444047D01*
X93716666Y-96444047D01*
X93654761Y-96413095D01*
X93592857Y-96351190D01*
X93561904Y-96227380D01*
X93561904Y-96010714D01*
X93592857Y-95886904D01*
X93654761Y-95825000D01*
X93716666Y-95794047D01*
X94645238Y-96382142D02*
X94614285Y-96413095D01*
X94521428Y-96444047D01*
X94459523Y-96444047D01*
X94366666Y-96413095D01*
X94304761Y-96351190D01*
X94273809Y-96289285D01*
X94242857Y-96165476D01*
X94242857Y-96072619D01*
X94273809Y-95948809D01*
X94304761Y-95886904D01*
X94366666Y-95825000D01*
X94459523Y-95794047D01*
X94521428Y-95794047D01*
X94614285Y-95825000D01*
X94645238Y-95855952D01*
X95326190Y-95794047D02*
X95697619Y-95794047D01*
X95511904Y-96444047D02*
X95511904Y-95794047D01*
X95914285Y-96444047D02*
X95914285Y-95794047D01*
X96192857Y-96444047D02*
X96192857Y-96103571D01*
X96161904Y-96041666D01*
X96099999Y-96010714D01*
X96007142Y-96010714D01*
X95945238Y-96041666D01*
X95914285Y-96072619D01*
X96502380Y-96444047D02*
X96502380Y-96010714D01*
X96502380Y-96134523D02*
X96533333Y-96072619D01*
X96564285Y-96041666D01*
X96626190Y-96010714D01*
X96688095Y-96010714D01*
X97183333Y-96010714D02*
X97183333Y-96444047D01*
X96904761Y-96010714D02*
X96904761Y-96351190D01*
X96935714Y-96413095D01*
X96997619Y-96444047D01*
X97090476Y-96444047D01*
X97152380Y-96413095D01*
X97183333Y-96382142D01*
X97461904Y-96413095D02*
X97523809Y-96444047D01*
X97647619Y-96444047D01*
X97709523Y-96413095D01*
X97740476Y-96351190D01*
X97740476Y-96320238D01*
X97709523Y-96258333D01*
X97647619Y-96227380D01*
X97554761Y-96227380D01*
X97492857Y-96196428D01*
X97461904Y-96134523D01*
X97461904Y-96103571D01*
X97492857Y-96041666D01*
X97554761Y-96010714D01*
X97647619Y-96010714D01*
X97709523Y-96041666D01*
X97926190Y-96010714D02*
X98173809Y-96010714D01*
X98019047Y-95794047D02*
X98019047Y-96351190D01*
X98049999Y-96413095D01*
X98111904Y-96444047D01*
X98173809Y-96444047D01*
X98638095Y-96413095D02*
X98576190Y-96444047D01*
X98452380Y-96444047D01*
X98390476Y-96413095D01*
X98359523Y-96351190D01*
X98359523Y-96103571D01*
X98390476Y-96041666D01*
X98452380Y-96010714D01*
X98576190Y-96010714D01*
X98638095Y-96041666D01*
X98669047Y-96103571D01*
X98669047Y-96165476D01*
X98359523Y-96227380D01*
X98947619Y-96444047D02*
X98947619Y-96010714D01*
X98947619Y-96134523D02*
X98978571Y-96072619D01*
X99009523Y-96041666D01*
X99071428Y-96010714D01*
X99133333Y-96010714D01*
X100216666Y-96382142D02*
X100185714Y-96413095D01*
X100092857Y-96444047D01*
X100030952Y-96444047D01*
X99938095Y-96413095D01*
X99876190Y-96351190D01*
X99845238Y-96289285D01*
X99814285Y-96165476D01*
X99814285Y-96072619D01*
X99845238Y-95948809D01*
X99876190Y-95886904D01*
X99938095Y-95825000D01*
X100030952Y-95794047D01*
X100092857Y-95794047D01*
X100185714Y-95825000D01*
X100216666Y-95855952D01*
X100588095Y-96444047D02*
X100526190Y-96413095D01*
X100495238Y-96382142D01*
X100464285Y-96320238D01*
X100464285Y-96134523D01*
X100495238Y-96072619D01*
X100526190Y-96041666D01*
X100588095Y-96010714D01*
X100680952Y-96010714D01*
X100742857Y-96041666D01*
X100773809Y-96072619D01*
X100804761Y-96134523D01*
X100804761Y-96320238D01*
X100773809Y-96382142D01*
X100742857Y-96413095D01*
X100680952Y-96444047D01*
X100588095Y-96444047D01*
X101083333Y-96010714D02*
X101083333Y-96444047D01*
X101083333Y-96072619D02*
X101114285Y-96041666D01*
X101176190Y-96010714D01*
X101269047Y-96010714D01*
X101330952Y-96041666D01*
X101361904Y-96103571D01*
X101361904Y-96444047D01*
X101578571Y-96010714D02*
X101826190Y-96010714D01*
X101671428Y-95794047D02*
X101671428Y-96351190D01*
X101702380Y-96413095D01*
X101764285Y-96444047D01*
X101826190Y-96444047D01*
X102042857Y-96444047D02*
X102042857Y-96010714D01*
X102042857Y-96134523D02*
X102073809Y-96072619D01*
X102104761Y-96041666D01*
X102166666Y-96010714D01*
X102228571Y-96010714D01*
X102538095Y-96444047D02*
X102476190Y-96413095D01*
X102445238Y-96382142D01*
X102414285Y-96320238D01*
X102414285Y-96134523D01*
X102445238Y-96072619D01*
X102476190Y-96041666D01*
X102538095Y-96010714D01*
X102630952Y-96010714D01*
X102692857Y-96041666D01*
X102723809Y-96072619D01*
X102754761Y-96134523D01*
X102754761Y-96320238D01*
X102723809Y-96382142D01*
X102692857Y-96413095D01*
X102630952Y-96444047D01*
X102538095Y-96444047D01*
X103126190Y-96444047D02*
X103064285Y-96413095D01*
X103033333Y-96351190D01*
X103033333Y-95794047D01*
X103466666Y-96444047D02*
X103404761Y-96413095D01*
X103373809Y-96351190D01*
X103373809Y-95794047D01*
X103961904Y-96413095D02*
X103899999Y-96444047D01*
X103776190Y-96444047D01*
X103714285Y-96413095D01*
X103683333Y-96351190D01*
X103683333Y-96103571D01*
X103714285Y-96041666D01*
X103776190Y-96010714D01*
X103899999Y-96010714D01*
X103961904Y-96041666D01*
X103992857Y-96103571D01*
X103992857Y-96165476D01*
X103683333Y-96227380D01*
X104271428Y-96444047D02*
X104271428Y-96010714D01*
X104271428Y-96134523D02*
X104302380Y-96072619D01*
X104333333Y-96041666D01*
X104395238Y-96010714D01*
X104457142Y-96010714D01*
X105076190Y-95794047D02*
X105292857Y-96444047D01*
X105509523Y-95794047D01*
X105695238Y-95855952D02*
X105726190Y-95825000D01*
X105788095Y-95794047D01*
X105942857Y-95794047D01*
X106004761Y-95825000D01*
X106035714Y-95855952D01*
X106066666Y-95917857D01*
X106066666Y-95979761D01*
X106035714Y-96072619D01*
X105664285Y-96444047D01*
X106066666Y-96444047D01*
X106345238Y-96382142D02*
X106376190Y-96413095D01*
X106345238Y-96444047D01*
X106314285Y-96413095D01*
X106345238Y-96382142D01*
X106345238Y-96444047D01*
X106995238Y-96444047D02*
X106623809Y-96444047D01*
X106809523Y-96444047D02*
X106809523Y-95794047D01*
X106747619Y-95886904D01*
X106685714Y-95948809D01*
X106623809Y-95979761D01*
D10*
X91196190Y-103923333D02*
X91196190Y-104209047D01*
X91196190Y-104066190D02*
X90696190Y-104066190D01*
X90767619Y-104113809D01*
X90815238Y-104161428D01*
X90839047Y-104209047D01*
X90743809Y-103732857D02*
X90720000Y-103709047D01*
X90696190Y-103661428D01*
X90696190Y-103542380D01*
X90720000Y-103494761D01*
X90743809Y-103470952D01*
X90791428Y-103447142D01*
X90839047Y-103447142D01*
X90910476Y-103470952D01*
X91196190Y-103756666D01*
X91196190Y-103447142D01*
X90696190Y-103137619D02*
X90696190Y-103090000D01*
X90720000Y-103042380D01*
X90743809Y-103018571D01*
X90791428Y-102994761D01*
X90886666Y-102970952D01*
X91005714Y-102970952D01*
X91100952Y-102994761D01*
X91148571Y-103018571D01*
X91172380Y-103042380D01*
X91196190Y-103090000D01*
X91196190Y-103137619D01*
X91172380Y-103185238D01*
X91148571Y-103209047D01*
X91100952Y-103232857D01*
X91005714Y-103256666D01*
X90886666Y-103256666D01*
X90791428Y-103232857D01*
X90743809Y-103209047D01*
X90720000Y-103185238D01*
X90696190Y-103137619D01*
X92586666Y-101448571D02*
X92562857Y-101472380D01*
X92491428Y-101496190D01*
X92443809Y-101496190D01*
X92372380Y-101472380D01*
X92324761Y-101424761D01*
X92300952Y-101377142D01*
X92277142Y-101281904D01*
X92277142Y-101210476D01*
X92300952Y-101115238D01*
X92324761Y-101067619D01*
X92372380Y-101020000D01*
X92443809Y-100996190D01*
X92491428Y-100996190D01*
X92562857Y-101020000D01*
X92586666Y-101043809D01*
X92777142Y-101353333D02*
X93015238Y-101353333D01*
X92729523Y-101496190D02*
X92896190Y-100996190D01*
X93062857Y-101496190D01*
X93229523Y-101496190D02*
X93229523Y-100996190D01*
X93515238Y-101496190D01*
X93515238Y-100996190D01*
X93753333Y-101496190D02*
X93753333Y-100996190D01*
X93753333Y-101234285D02*
X94039047Y-101234285D01*
X94039047Y-101496190D02*
X94039047Y-100996190D01*
X92506190Y-106638571D02*
X92482380Y-106662380D01*
X92410952Y-106686190D01*
X92363333Y-106686190D01*
X92291904Y-106662380D01*
X92244285Y-106614761D01*
X92220476Y-106567142D01*
X92196666Y-106471904D01*
X92196666Y-106400476D01*
X92220476Y-106305238D01*
X92244285Y-106257619D01*
X92291904Y-106210000D01*
X92363333Y-106186190D01*
X92410952Y-106186190D01*
X92482380Y-106210000D01*
X92506190Y-106233809D01*
X92696666Y-106543333D02*
X92934761Y-106543333D01*
X92649047Y-106686190D02*
X92815714Y-106186190D01*
X92982380Y-106686190D01*
X93149047Y-106686190D02*
X93149047Y-106186190D01*
X93434761Y-106686190D01*
X93434761Y-106186190D01*
X93910952Y-106686190D02*
X93672857Y-106686190D01*
X93672857Y-106186190D01*
X110600952Y-100756190D02*
X110910476Y-100756190D01*
X110743809Y-100946666D01*
X110815238Y-100946666D01*
X110862857Y-100970476D01*
X110886666Y-100994285D01*
X110910476Y-101041904D01*
X110910476Y-101160952D01*
X110886666Y-101208571D01*
X110862857Y-101232380D01*
X110815238Y-101256190D01*
X110672380Y-101256190D01*
X110624761Y-101232380D01*
X110600952Y-101208571D01*
X111053333Y-100756190D02*
X111220000Y-101256190D01*
X111386666Y-100756190D01*
X111505714Y-100756190D02*
X111815238Y-100756190D01*
X111648571Y-100946666D01*
X111720000Y-100946666D01*
X111767619Y-100970476D01*
X111791428Y-100994285D01*
X111815238Y-101041904D01*
X111815238Y-101160952D01*
X111791428Y-101208571D01*
X111767619Y-101232380D01*
X111720000Y-101256190D01*
X111577142Y-101256190D01*
X111529523Y-101232380D01*
X111505714Y-101208571D01*
D11*
X94611904Y-84466666D02*
X95088095Y-84466666D01*
X94516666Y-84752380D02*
X94850000Y-83752380D01*
X95183333Y-84752380D01*
X103421428Y-82578571D02*
X103564285Y-82626190D01*
X103611904Y-82673809D01*
X103659523Y-82769047D01*
X103659523Y-82911904D01*
X103611904Y-83007142D01*
X103564285Y-83054761D01*
X103469047Y-83102380D01*
X103088095Y-83102380D01*
X103088095Y-82102380D01*
X103421428Y-82102380D01*
X103516666Y-82150000D01*
X103564285Y-82197619D01*
X103611904Y-82292857D01*
X103611904Y-82388095D01*
X103564285Y-82483333D01*
X103516666Y-82530952D01*
X103421428Y-82578571D01*
X103088095Y-82578571D01*
X111059523Y-85257142D02*
X111011904Y-85304761D01*
X110869047Y-85352380D01*
X110773809Y-85352380D01*
X110630952Y-85304761D01*
X110535714Y-85209523D01*
X110488095Y-85114285D01*
X110440476Y-84923809D01*
X110440476Y-84780952D01*
X110488095Y-84590476D01*
X110535714Y-84495238D01*
X110630952Y-84400000D01*
X110773809Y-84352380D01*
X110869047Y-84352380D01*
X111011904Y-84400000D01*
X111059523Y-84447619D01*
D10*
X86912380Y-86236190D02*
X87079047Y-86736190D01*
X87245714Y-86236190D01*
X87412380Y-86736190D02*
X87412380Y-86236190D01*
X87650476Y-86736190D02*
X87650476Y-86236190D01*
X87936190Y-86736190D01*
X87936190Y-86236190D01*
X83829047Y-92860000D02*
X83781428Y-92836190D01*
X83710000Y-92836190D01*
X83638571Y-92860000D01*
X83590952Y-92907619D01*
X83567142Y-92955238D01*
X83543333Y-93050476D01*
X83543333Y-93121904D01*
X83567142Y-93217142D01*
X83590952Y-93264761D01*
X83638571Y-93312380D01*
X83710000Y-93336190D01*
X83757619Y-93336190D01*
X83829047Y-93312380D01*
X83852857Y-93288571D01*
X83852857Y-93121904D01*
X83757619Y-93121904D01*
X84067142Y-93336190D02*
X84067142Y-92836190D01*
X84352857Y-93336190D01*
X84352857Y-92836190D01*
X84590952Y-93336190D02*
X84590952Y-92836190D01*
X84710000Y-92836190D01*
X84781428Y-92860000D01*
X84829047Y-92907619D01*
X84852857Y-92955238D01*
X84876666Y-93050476D01*
X84876666Y-93121904D01*
X84852857Y-93217142D01*
X84829047Y-93264761D01*
X84781428Y-93312380D01*
X84710000Y-93336190D01*
X84590952Y-93336190D01*
D11*
X95423333Y-115956666D02*
X95423333Y-115256666D01*
X95656666Y-115756666D01*
X95890000Y-115256666D01*
X95890000Y-115956666D01*
X96523333Y-115956666D02*
X96523333Y-115590000D01*
X96490000Y-115523333D01*
X96423333Y-115490000D01*
X96290000Y-115490000D01*
X96223333Y-115523333D01*
X96523333Y-115923333D02*
X96456666Y-115956666D01*
X96290000Y-115956666D01*
X96223333Y-115923333D01*
X96190000Y-115856666D01*
X96190000Y-115790000D01*
X96223333Y-115723333D01*
X96290000Y-115690000D01*
X96456666Y-115690000D01*
X96523333Y-115656666D01*
X96856666Y-115956666D02*
X96856666Y-115490000D01*
X96856666Y-115623333D02*
X96890000Y-115556666D01*
X96923333Y-115523333D01*
X96990000Y-115490000D01*
X97056666Y-115490000D01*
X97290000Y-115956666D02*
X97290000Y-115256666D01*
X97356666Y-115690000D02*
X97556666Y-115956666D01*
X97556666Y-115490000D02*
X97290000Y-115756666D01*
X98623333Y-115590000D02*
X98723333Y-115623333D01*
X98756666Y-115656666D01*
X98790000Y-115723333D01*
X98790000Y-115823333D01*
X98756666Y-115890000D01*
X98723333Y-115923333D01*
X98656666Y-115956666D01*
X98390000Y-115956666D01*
X98390000Y-115256666D01*
X98623333Y-115256666D01*
X98690000Y-115290000D01*
X98723333Y-115323333D01*
X98756666Y-115390000D01*
X98756666Y-115456666D01*
X98723333Y-115523333D01*
X98690000Y-115556666D01*
X98623333Y-115590000D01*
X98390000Y-115590000D01*
X99356666Y-115923333D02*
X99290000Y-115956666D01*
X99156666Y-115956666D01*
X99090000Y-115923333D01*
X99056666Y-115856666D01*
X99056666Y-115590000D01*
X99090000Y-115523333D01*
X99156666Y-115490000D01*
X99290000Y-115490000D01*
X99356666Y-115523333D01*
X99390000Y-115590000D01*
X99390000Y-115656666D01*
X99056666Y-115723333D01*
X99790000Y-115956666D02*
X99723333Y-115923333D01*
X99690000Y-115856666D01*
X99690000Y-115256666D01*
X100056666Y-115956666D02*
X100056666Y-115256666D01*
X100056666Y-115523333D02*
X100123333Y-115490000D01*
X100256666Y-115490000D01*
X100323333Y-115523333D01*
X100356666Y-115556666D01*
X100390000Y-115623333D01*
X100390000Y-115823333D01*
X100356666Y-115890000D01*
X100323333Y-115923333D01*
X100256666Y-115956666D01*
X100123333Y-115956666D01*
X100056666Y-115923333D01*
X100690000Y-115956666D02*
X100690000Y-115490000D01*
X100690000Y-115256666D02*
X100656666Y-115290000D01*
X100690000Y-115323333D01*
X100723333Y-115290000D01*
X100690000Y-115256666D01*
X100690000Y-115323333D01*
X101023333Y-115490000D02*
X101023333Y-115956666D01*
X101023333Y-115556666D02*
X101056666Y-115523333D01*
X101123333Y-115490000D01*
X101223333Y-115490000D01*
X101290000Y-115523333D01*
X101323333Y-115590000D01*
X101323333Y-115956666D01*
X101656666Y-115690000D02*
X102190000Y-115690000D01*
X102490000Y-115323333D02*
X102523333Y-115290000D01*
X102590000Y-115256666D01*
X102756666Y-115256666D01*
X102823333Y-115290000D01*
X102856666Y-115323333D01*
X102890000Y-115390000D01*
X102890000Y-115456666D01*
X102856666Y-115556666D01*
X102456666Y-115956666D01*
X102890000Y-115956666D01*
X103323333Y-115256666D02*
X103390000Y-115256666D01*
X103456666Y-115290000D01*
X103490000Y-115323333D01*
X103523333Y-115390000D01*
X103556666Y-115523333D01*
X103556666Y-115690000D01*
X103523333Y-115823333D01*
X103490000Y-115890000D01*
X103456666Y-115923333D01*
X103390000Y-115956666D01*
X103323333Y-115956666D01*
X103256666Y-115923333D01*
X103223333Y-115890000D01*
X103190000Y-115823333D01*
X103156666Y-115690000D01*
X103156666Y-115523333D01*
X103190000Y-115390000D01*
X103223333Y-115323333D01*
X103256666Y-115290000D01*
X103323333Y-115256666D01*
X103823333Y-115323333D02*
X103856666Y-115290000D01*
X103923333Y-115256666D01*
X104090000Y-115256666D01*
X104156666Y-115290000D01*
X104190000Y-115323333D01*
X104223333Y-115390000D01*
X104223333Y-115456666D01*
X104190000Y-115556666D01*
X103790000Y-115956666D01*
X104223333Y-115956666D01*
X104656666Y-115256666D02*
X104723333Y-115256666D01*
X104790000Y-115290000D01*
X104823333Y-115323333D01*
X104856666Y-115390000D01*
X104890000Y-115523333D01*
X104890000Y-115690000D01*
X104856666Y-115823333D01*
X104823333Y-115890000D01*
X104790000Y-115923333D01*
X104723333Y-115956666D01*
X104656666Y-115956666D01*
X104590000Y-115923333D01*
X104556666Y-115890000D01*
X104523333Y-115823333D01*
X104490000Y-115690000D01*
X104490000Y-115523333D01*
X104523333Y-115390000D01*
X104556666Y-115323333D01*
X104590000Y-115290000D01*
X104656666Y-115256666D01*
D12*
X94850000Y-94100000D02*
X97030000Y-94100000D01*
X101450000Y-94100000D02*
X99270000Y-94100000D01*
X95610000Y-87500000D02*
X97030000Y-87500000D01*
X100690000Y-87500000D02*
X99270000Y-87500000D01*
X94850000Y-94100000D02*
X94850000Y-88260000D01*
X94850000Y-88260000D02*
X95610000Y-87500000D01*
X100690000Y-87500000D02*
X101450000Y-88260000D01*
X101450000Y-88260000D02*
X101450000Y-94100000D01*
X101700000Y-94100000D02*
X103880000Y-94100000D01*
X108300000Y-94100000D02*
X106120000Y-94100000D01*
X102460000Y-87500000D02*
X103880000Y-87500000D01*
X107540000Y-87500000D02*
X106120000Y-87500000D01*
X101700000Y-94100000D02*
X101700000Y-88260000D01*
X101700000Y-88260000D02*
X102460000Y-87500000D01*
X107540000Y-87500000D02*
X108300000Y-88260000D01*
X108300000Y-88260000D02*
X108300000Y-94100000D01*
X108550000Y-94100000D02*
X110730000Y-94100000D01*
X115150000Y-94100000D02*
X112970000Y-94100000D01*
X109310000Y-87500000D02*
X110730000Y-87500000D01*
X114390000Y-87500000D02*
X112970000Y-87500000D01*
X108550000Y-94100000D02*
X108550000Y-88260000D01*
X108550000Y-88260000D02*
X109310000Y-87500000D01*
X114390000Y-87500000D02*
X115150000Y-88260000D01*
X115150000Y-88260000D02*
X115150000Y-94100000D01*
X95840000Y-101659420D02*
X95840000Y-101940580D01*
X96860000Y-101659420D02*
X96860000Y-101940580D01*
X97960000Y-102847836D02*
X97960000Y-102632164D01*
X97240000Y-102847836D02*
X97240000Y-102632164D01*
X111311252Y-97185000D02*
X110788748Y-97185000D01*
X111311252Y-95715000D02*
X110788748Y-95715000D01*
X111190580Y-98540000D02*
X110909420Y-98540000D01*
X111190580Y-99560000D02*
X110909420Y-99560000D01*
X95340000Y-101659420D02*
X95340000Y-101940580D01*
X94320000Y-101659420D02*
X94320000Y-101940580D01*
X103957836Y-111085000D02*
X103742164Y-111085000D01*
X103957836Y-110365000D02*
X103742164Y-110365000D01*
X108522164Y-112230000D02*
X108737836Y-112230000D01*
X108522164Y-111510000D02*
X108737836Y-111510000D01*
X91330000Y-111437836D02*
X91330000Y-111222164D01*
X90610000Y-111437836D02*
X90610000Y-111222164D01*
X97942164Y-100540000D02*
X98157836Y-100540000D01*
X97942164Y-101260000D02*
X98157836Y-101260000D01*
X108292164Y-88210000D02*
X108507836Y-88210000D01*
X108292164Y-87490000D02*
X108507836Y-87490000D01*
X101492164Y-87490000D02*
X101707836Y-87490000D01*
X101492164Y-88210000D02*
X101707836Y-88210000D01*
X94642164Y-87540000D02*
X94857836Y-87540000D01*
X94642164Y-88260000D02*
X94857836Y-88260000D01*
X96509420Y-107140000D02*
X96790580Y-107140000D01*
X96509420Y-108160000D02*
X96790580Y-108160000D01*
X108522164Y-111170000D02*
X108737836Y-111170000D01*
X108522164Y-110450000D02*
X108737836Y-110450000D01*
X103565580Y-108965000D02*
X103284420Y-108965000D01*
X103565580Y-109985000D02*
X103284420Y-109985000D01*
X99660000Y-112682836D02*
X99660000Y-112467164D01*
X98940000Y-112682836D02*
X98940000Y-112467164D01*
X101590580Y-102235000D02*
X101309420Y-102235000D01*
X101590580Y-101215000D02*
X101309420Y-101215000D01*
X87239420Y-109890000D02*
X87520580Y-109890000D01*
X87239420Y-108870000D02*
X87520580Y-108870000D01*
X100635000Y-112682836D02*
X100635000Y-112467164D01*
X99915000Y-112682836D02*
X99915000Y-112467164D01*
X88490000Y-104907836D02*
X88490000Y-104692164D01*
X89210000Y-104907836D02*
X89210000Y-104692164D01*
X92590000Y-98567164D02*
X92590000Y-98782836D01*
X93310000Y-98567164D02*
X93310000Y-98782836D01*
X90190000Y-110229420D02*
X90190000Y-110510580D01*
X89170000Y-110229420D02*
X89170000Y-110510580D01*
X87070000Y-105100580D02*
X87070000Y-104819420D01*
X88090000Y-105100580D02*
X88090000Y-104819420D01*
X100890000Y-112682836D02*
X100890000Y-112467164D01*
X101610000Y-112682836D02*
X101610000Y-112467164D01*
X102807836Y-111340000D02*
X102592164Y-111340000D01*
X102807836Y-112060000D02*
X102592164Y-112060000D01*
X98685000Y-112682836D02*
X98685000Y-112467164D01*
X97965000Y-112682836D02*
X97965000Y-112467164D01*
X102807836Y-112315000D02*
X102592164Y-112315000D01*
X102807836Y-113035000D02*
X102592164Y-113035000D01*
X103932836Y-108585000D02*
X103717164Y-108585000D01*
X103932836Y-107865000D02*
X103717164Y-107865000D01*
X97685000Y-113332836D02*
X97685000Y-113117164D01*
X96965000Y-113332836D02*
X96965000Y-113117164D01*
X111572164Y-111450000D02*
X111787836Y-111450000D01*
X111572164Y-110730000D02*
X111787836Y-110730000D01*
X94317836Y-104160000D02*
X94102164Y-104160000D01*
X94317836Y-103440000D02*
X94102164Y-103440000D01*
X93060000Y-104407836D02*
X93060000Y-104192164D01*
X92340000Y-104407836D02*
X92340000Y-104192164D01*
X101610000Y-105942164D02*
X101610000Y-106157836D01*
X100890000Y-105942164D02*
X100890000Y-106157836D01*
X96142164Y-108540000D02*
X96357836Y-108540000D01*
X96142164Y-109260000D02*
X96357836Y-109260000D01*
X102610000Y-105942164D02*
X102610000Y-106157836D01*
X101890000Y-105942164D02*
X101890000Y-106157836D01*
X96142164Y-106760000D02*
X96357836Y-106760000D01*
X96142164Y-106040000D02*
X96357836Y-106040000D01*
X100210000Y-106192164D02*
X100210000Y-106407836D01*
X99490000Y-106192164D02*
X99490000Y-106407836D01*
X84761252Y-102315000D02*
X84238748Y-102315000D01*
X84761252Y-103785000D02*
X84238748Y-103785000D01*
X84640580Y-104310000D02*
X84359420Y-104310000D01*
X84640580Y-105330000D02*
X84359420Y-105330000D01*
X115190000Y-91125000D02*
X115190000Y-93410000D01*
X115190000Y-93410000D02*
X116660000Y-93410000D01*
X116660000Y-93410000D02*
X116660000Y-91125000D01*
X105000000Y-99465000D02*
X102715000Y-99465000D01*
X102715000Y-99465000D02*
X102715000Y-100935000D01*
X102715000Y-100935000D02*
X105000000Y-100935000D01*
X113460000Y-104160000D02*
X113460000Y-101875000D01*
X111990000Y-104160000D02*
X113460000Y-104160000D01*
X111990000Y-101875000D02*
X111990000Y-104160000D01*
X83805000Y-107075000D02*
X86090000Y-107075000D01*
X83805000Y-105605000D02*
X83805000Y-107075000D01*
X86090000Y-105605000D02*
X83805000Y-105605000D01*
X112165000Y-106090000D02*
X112165000Y-108375000D01*
X113635000Y-106090000D02*
X112165000Y-106090000D01*
X113635000Y-108375000D02*
X113635000Y-106090000D01*
X106845000Y-98621359D02*
X106845000Y-98928641D01*
X107605000Y-98621359D02*
X107605000Y-98928641D01*
X104605000Y-112021359D02*
X104605000Y-112328641D01*
X103845000Y-112021359D02*
X103845000Y-112328641D01*
X88410000Y-96816359D02*
X88410000Y-97123641D01*
X89170000Y-96816359D02*
X89170000Y-97123641D01*
X88170000Y-96826359D02*
X88170000Y-97133641D01*
X87410000Y-96826359D02*
X87410000Y-97133641D01*
X90170000Y-96826359D02*
X90170000Y-97133641D01*
X89410000Y-96826359D02*
X89410000Y-97133641D01*
X106605000Y-98928641D02*
X106605000Y-98621359D01*
X105845000Y-98928641D02*
X105845000Y-98621359D01*
X103962742Y-99192500D02*
X104437258Y-99192500D01*
X103962742Y-98147500D02*
X104437258Y-98147500D01*
X89180000Y-98746359D02*
X89180000Y-99053641D01*
X88420000Y-98746359D02*
X88420000Y-99053641D01*
X87420000Y-98746359D02*
X87420000Y-99053641D01*
X88180000Y-98746359D02*
X88180000Y-99053641D01*
X89420000Y-98746359D02*
X89420000Y-99053641D01*
X90180000Y-98746359D02*
X90180000Y-99053641D01*
X87566359Y-101890000D02*
X87873641Y-101890000D01*
X87566359Y-101130000D02*
X87873641Y-101130000D01*
X88003641Y-100120000D02*
X87696359Y-100120000D01*
X88003641Y-100880000D02*
X87696359Y-100880000D01*
X103746359Y-114040000D02*
X104053641Y-114040000D01*
X103746359Y-113280000D02*
X104053641Y-113280000D01*
X105630000Y-112021359D02*
X105630000Y-112328641D01*
X104870000Y-112021359D02*
X104870000Y-112328641D01*
X113727500Y-103337258D02*
X113727500Y-102862742D01*
X114772500Y-103337258D02*
X114772500Y-102862742D01*
X108320000Y-98616359D02*
X108320000Y-98923641D01*
X109080000Y-98616359D02*
X109080000Y-98923641D01*
X109770000Y-111423641D02*
X109770000Y-111116359D01*
X110530000Y-111423641D02*
X110530000Y-111116359D01*
X111430000Y-104903641D02*
X111430000Y-104596359D01*
X110670000Y-104903641D02*
X110670000Y-104596359D01*
X94295000Y-109728641D02*
X94295000Y-109421359D01*
X95055000Y-109728641D02*
X95055000Y-109421359D01*
X93245000Y-109946359D02*
X93245000Y-110253641D01*
X94005000Y-109946359D02*
X94005000Y-110253641D01*
X111833641Y-110370000D02*
X111526359Y-110370000D01*
X111833641Y-109610000D02*
X111526359Y-109610000D01*
X110852500Y-107112742D02*
X110852500Y-107587258D01*
X111897500Y-107112742D02*
X111897500Y-107587258D01*
X85862742Y-107337500D02*
X86337258Y-107337500D01*
X85862742Y-108382500D02*
X86337258Y-108382500D01*
X90330000Y-103803641D02*
X90330000Y-103496359D01*
X89570000Y-103803641D02*
X89570000Y-103496359D01*
D10*
X95548571Y-89003571D02*
X95524761Y-89027380D01*
X95453333Y-89051190D01*
X95405714Y-89051190D01*
X95334285Y-89027380D01*
X95286666Y-88979761D01*
X95262857Y-88932142D01*
X95239047Y-88836904D01*
X95239047Y-88765476D01*
X95262857Y-88670238D01*
X95286666Y-88622619D01*
X95334285Y-88575000D01*
X95405714Y-88551190D01*
X95453333Y-88551190D01*
X95524761Y-88575000D01*
X95548571Y-88598809D01*
X96024761Y-89051190D02*
X95739047Y-89051190D01*
X95881904Y-89051190D02*
X95881904Y-88551190D01*
X95834285Y-88622619D01*
X95786666Y-88670238D01*
X95739047Y-88694047D01*
X96334285Y-88551190D02*
X96381904Y-88551190D01*
X96429523Y-88575000D01*
X96453333Y-88598809D01*
X96477142Y-88646428D01*
X96500952Y-88741666D01*
X96500952Y-88860714D01*
X96477142Y-88955952D01*
X96453333Y-89003571D01*
X96429523Y-89027380D01*
X96381904Y-89051190D01*
X96334285Y-89051190D01*
X96286666Y-89027380D01*
X96262857Y-89003571D01*
X96239047Y-88955952D01*
X96215238Y-88860714D01*
X96215238Y-88741666D01*
X96239047Y-88646428D01*
X96262857Y-88598809D01*
X96286666Y-88575000D01*
X96334285Y-88551190D01*
D11*
X96421428Y-86780952D02*
X96421428Y-86019047D01*
X96802380Y-86400000D02*
X96040476Y-86400000D01*
D10*
X102573571Y-89013571D02*
X102549761Y-89037380D01*
X102478333Y-89061190D01*
X102430714Y-89061190D01*
X102359285Y-89037380D01*
X102311666Y-88989761D01*
X102287857Y-88942142D01*
X102264047Y-88846904D01*
X102264047Y-88775476D01*
X102287857Y-88680238D01*
X102311666Y-88632619D01*
X102359285Y-88585000D01*
X102430714Y-88561190D01*
X102478333Y-88561190D01*
X102549761Y-88585000D01*
X102573571Y-88608809D01*
X103049761Y-89061190D02*
X102764047Y-89061190D01*
X102906904Y-89061190D02*
X102906904Y-88561190D01*
X102859285Y-88632619D01*
X102811666Y-88680238D01*
X102764047Y-88704047D01*
X103216428Y-88561190D02*
X103525952Y-88561190D01*
X103359285Y-88751666D01*
X103430714Y-88751666D01*
X103478333Y-88775476D01*
X103502142Y-88799285D01*
X103525952Y-88846904D01*
X103525952Y-88965952D01*
X103502142Y-89013571D01*
X103478333Y-89037380D01*
X103430714Y-89061190D01*
X103287857Y-89061190D01*
X103240238Y-89037380D01*
X103216428Y-89013571D01*
D11*
X103271428Y-86780952D02*
X103271428Y-86019047D01*
X103652380Y-86400000D02*
X102890476Y-86400000D01*
D10*
X109528571Y-88828571D02*
X109504761Y-88852380D01*
X109433333Y-88876190D01*
X109385714Y-88876190D01*
X109314285Y-88852380D01*
X109266666Y-88804761D01*
X109242857Y-88757142D01*
X109219047Y-88661904D01*
X109219047Y-88590476D01*
X109242857Y-88495238D01*
X109266666Y-88447619D01*
X109314285Y-88400000D01*
X109385714Y-88376190D01*
X109433333Y-88376190D01*
X109504761Y-88400000D01*
X109528571Y-88423809D01*
X110004761Y-88876190D02*
X109719047Y-88876190D01*
X109861904Y-88876190D02*
X109861904Y-88376190D01*
X109814285Y-88447619D01*
X109766666Y-88495238D01*
X109719047Y-88519047D01*
X110457142Y-88376190D02*
X110219047Y-88376190D01*
X110195238Y-88614285D01*
X110219047Y-88590476D01*
X110266666Y-88566666D01*
X110385714Y-88566666D01*
X110433333Y-88590476D01*
X110457142Y-88614285D01*
X110480952Y-88661904D01*
X110480952Y-88780952D01*
X110457142Y-88828571D01*
X110433333Y-88852380D01*
X110385714Y-88876190D01*
X110266666Y-88876190D01*
X110219047Y-88852380D01*
X110195238Y-88828571D01*
D11*
X110121428Y-86780952D02*
X110121428Y-86019047D01*
X110502380Y-86400000D02*
X109740476Y-86400000D01*
D10*
X95726666Y-100118571D02*
X95702857Y-100142380D01*
X95631428Y-100166190D01*
X95583809Y-100166190D01*
X95512380Y-100142380D01*
X95464761Y-100094761D01*
X95440952Y-100047142D01*
X95417142Y-99951904D01*
X95417142Y-99880476D01*
X95440952Y-99785238D01*
X95464761Y-99737619D01*
X95512380Y-99690000D01*
X95583809Y-99666190D01*
X95631428Y-99666190D01*
X95702857Y-99690000D01*
X95726666Y-99713809D01*
X96202857Y-100166190D02*
X95917142Y-100166190D01*
X96060000Y-100166190D02*
X96060000Y-99666190D01*
X96012380Y-99737619D01*
X95964761Y-99785238D01*
X95917142Y-99809047D01*
X97536666Y-104298571D02*
X97512857Y-104322380D01*
X97441428Y-104346190D01*
X97393809Y-104346190D01*
X97322380Y-104322380D01*
X97274761Y-104274761D01*
X97250952Y-104227142D01*
X97227142Y-104131904D01*
X97227142Y-104060476D01*
X97250952Y-103965238D01*
X97274761Y-103917619D01*
X97322380Y-103870000D01*
X97393809Y-103846190D01*
X97441428Y-103846190D01*
X97512857Y-103870000D01*
X97536666Y-103893809D01*
X97727142Y-103893809D02*
X97750952Y-103870000D01*
X97798571Y-103846190D01*
X97917619Y-103846190D01*
X97965238Y-103870000D01*
X97989047Y-103893809D01*
X98012857Y-103941428D01*
X98012857Y-103989047D01*
X97989047Y-104060476D01*
X97703333Y-104346190D01*
X98012857Y-104346190D01*
X108516666Y-96078571D02*
X108492857Y-96102380D01*
X108421428Y-96126190D01*
X108373809Y-96126190D01*
X108302380Y-96102380D01*
X108254761Y-96054761D01*
X108230952Y-96007142D01*
X108207142Y-95911904D01*
X108207142Y-95840476D01*
X108230952Y-95745238D01*
X108254761Y-95697619D01*
X108302380Y-95650000D01*
X108373809Y-95626190D01*
X108421428Y-95626190D01*
X108492857Y-95650000D01*
X108516666Y-95673809D01*
X108683333Y-95626190D02*
X108992857Y-95626190D01*
X108826190Y-95816666D01*
X108897619Y-95816666D01*
X108945238Y-95840476D01*
X108969047Y-95864285D01*
X108992857Y-95911904D01*
X108992857Y-96030952D01*
X108969047Y-96078571D01*
X108945238Y-96102380D01*
X108897619Y-96126190D01*
X108754761Y-96126190D01*
X108707142Y-96102380D01*
X108683333Y-96078571D01*
X109196666Y-100168571D02*
X109172857Y-100192380D01*
X109101428Y-100216190D01*
X109053809Y-100216190D01*
X108982380Y-100192380D01*
X108934761Y-100144761D01*
X108910952Y-100097142D01*
X108887142Y-100001904D01*
X108887142Y-99930476D01*
X108910952Y-99835238D01*
X108934761Y-99787619D01*
X108982380Y-99740000D01*
X109053809Y-99716190D01*
X109101428Y-99716190D01*
X109172857Y-99740000D01*
X109196666Y-99763809D01*
X109625238Y-99882857D02*
X109625238Y-100216190D01*
X109506190Y-99692380D02*
X109387142Y-100049523D01*
X109696666Y-100049523D01*
X93536666Y-102428571D02*
X93512857Y-102452380D01*
X93441428Y-102476190D01*
X93393809Y-102476190D01*
X93322380Y-102452380D01*
X93274761Y-102404761D01*
X93250952Y-102357142D01*
X93227142Y-102261904D01*
X93227142Y-102190476D01*
X93250952Y-102095238D01*
X93274761Y-102047619D01*
X93322380Y-102000000D01*
X93393809Y-101976190D01*
X93441428Y-101976190D01*
X93512857Y-102000000D01*
X93536666Y-102023809D01*
X93989047Y-101976190D02*
X93750952Y-101976190D01*
X93727142Y-102214285D01*
X93750952Y-102190476D01*
X93798571Y-102166666D01*
X93917619Y-102166666D01*
X93965238Y-102190476D01*
X93989047Y-102214285D01*
X94012857Y-102261904D01*
X94012857Y-102380952D01*
X93989047Y-102428571D01*
X93965238Y-102452380D01*
X93917619Y-102476190D01*
X93798571Y-102476190D01*
X93750952Y-102452380D01*
X93727142Y-102428571D01*
X105166666Y-110868571D02*
X105142857Y-110892380D01*
X105071428Y-110916190D01*
X105023809Y-110916190D01*
X104952380Y-110892380D01*
X104904761Y-110844761D01*
X104880952Y-110797142D01*
X104857142Y-110701904D01*
X104857142Y-110630476D01*
X104880952Y-110535238D01*
X104904761Y-110487619D01*
X104952380Y-110440000D01*
X105023809Y-110416190D01*
X105071428Y-110416190D01*
X105142857Y-110440000D01*
X105166666Y-110463809D01*
X105595238Y-110416190D02*
X105500000Y-110416190D01*
X105452380Y-110440000D01*
X105428571Y-110463809D01*
X105380952Y-110535238D01*
X105357142Y-110630476D01*
X105357142Y-110820952D01*
X105380952Y-110868571D01*
X105404761Y-110892380D01*
X105452380Y-110916190D01*
X105547619Y-110916190D01*
X105595238Y-110892380D01*
X105619047Y-110868571D01*
X105642857Y-110820952D01*
X105642857Y-110701904D01*
X105619047Y-110654285D01*
X105595238Y-110630476D01*
X105547619Y-110606666D01*
X105452380Y-110606666D01*
X105404761Y-110630476D01*
X105380952Y-110654285D01*
X105357142Y-110701904D01*
X108966666Y-113038571D02*
X108942857Y-113062380D01*
X108871428Y-113086190D01*
X108823809Y-113086190D01*
X108752380Y-113062380D01*
X108704761Y-113014761D01*
X108680952Y-112967142D01*
X108657142Y-112871904D01*
X108657142Y-112800476D01*
X108680952Y-112705238D01*
X108704761Y-112657619D01*
X108752380Y-112610000D01*
X108823809Y-112586190D01*
X108871428Y-112586190D01*
X108942857Y-112610000D01*
X108966666Y-112633809D01*
X109133333Y-112586190D02*
X109466666Y-112586190D01*
X109252380Y-113086190D01*
X92078571Y-111603333D02*
X92102380Y-111627142D01*
X92126190Y-111698571D01*
X92126190Y-111746190D01*
X92102380Y-111817619D01*
X92054761Y-111865238D01*
X92007142Y-111889047D01*
X91911904Y-111912857D01*
X91840476Y-111912857D01*
X91745238Y-111889047D01*
X91697619Y-111865238D01*
X91650000Y-111817619D01*
X91626190Y-111746190D01*
X91626190Y-111698571D01*
X91650000Y-111627142D01*
X91673809Y-111603333D01*
X91840476Y-111317619D02*
X91816666Y-111365238D01*
X91792857Y-111389047D01*
X91745238Y-111412857D01*
X91721428Y-111412857D01*
X91673809Y-111389047D01*
X91650000Y-111365238D01*
X91626190Y-111317619D01*
X91626190Y-111222380D01*
X91650000Y-111174761D01*
X91673809Y-111150952D01*
X91721428Y-111127142D01*
X91745238Y-111127142D01*
X91792857Y-111150952D01*
X91816666Y-111174761D01*
X91840476Y-111222380D01*
X91840476Y-111317619D01*
X91864285Y-111365238D01*
X91888095Y-111389047D01*
X91935714Y-111412857D01*
X92030952Y-111412857D01*
X92078571Y-111389047D01*
X92102380Y-111365238D01*
X92126190Y-111317619D01*
X92126190Y-111222380D01*
X92102380Y-111174761D01*
X92078571Y-111150952D01*
X92030952Y-111127142D01*
X91935714Y-111127142D01*
X91888095Y-111150952D01*
X91864285Y-111174761D01*
X91840476Y-111222380D01*
X97916666Y-100218571D02*
X97892857Y-100242380D01*
X97821428Y-100266190D01*
X97773809Y-100266190D01*
X97702380Y-100242380D01*
X97654761Y-100194761D01*
X97630952Y-100147142D01*
X97607142Y-100051904D01*
X97607142Y-99980476D01*
X97630952Y-99885238D01*
X97654761Y-99837619D01*
X97702380Y-99790000D01*
X97773809Y-99766190D01*
X97821428Y-99766190D01*
X97892857Y-99790000D01*
X97916666Y-99813809D01*
X98154761Y-100266190D02*
X98250000Y-100266190D01*
X98297619Y-100242380D01*
X98321428Y-100218571D01*
X98369047Y-100147142D01*
X98392857Y-100051904D01*
X98392857Y-99861428D01*
X98369047Y-99813809D01*
X98345238Y-99790000D01*
X98297619Y-99766190D01*
X98202380Y-99766190D01*
X98154761Y-99790000D01*
X98130952Y-99813809D01*
X98107142Y-99861428D01*
X98107142Y-99980476D01*
X98130952Y-100028095D01*
X98154761Y-100051904D01*
X98202380Y-100075714D01*
X98297619Y-100075714D01*
X98345238Y-100051904D01*
X98369047Y-100028095D01*
X98392857Y-99980476D01*
X108078571Y-86868571D02*
X108054761Y-86892380D01*
X107983333Y-86916190D01*
X107935714Y-86916190D01*
X107864285Y-86892380D01*
X107816666Y-86844761D01*
X107792857Y-86797142D01*
X107769047Y-86701904D01*
X107769047Y-86630476D01*
X107792857Y-86535238D01*
X107816666Y-86487619D01*
X107864285Y-86440000D01*
X107935714Y-86416190D01*
X107983333Y-86416190D01*
X108054761Y-86440000D01*
X108078571Y-86463809D01*
X108554761Y-86916190D02*
X108269047Y-86916190D01*
X108411904Y-86916190D02*
X108411904Y-86416190D01*
X108364285Y-86487619D01*
X108316666Y-86535238D01*
X108269047Y-86559047D01*
X109030952Y-86916190D02*
X108745238Y-86916190D01*
X108888095Y-86916190D02*
X108888095Y-86416190D01*
X108840476Y-86487619D01*
X108792857Y-86535238D01*
X108745238Y-86559047D01*
X101278571Y-86868571D02*
X101254761Y-86892380D01*
X101183333Y-86916190D01*
X101135714Y-86916190D01*
X101064285Y-86892380D01*
X101016666Y-86844761D01*
X100992857Y-86797142D01*
X100969047Y-86701904D01*
X100969047Y-86630476D01*
X100992857Y-86535238D01*
X101016666Y-86487619D01*
X101064285Y-86440000D01*
X101135714Y-86416190D01*
X101183333Y-86416190D01*
X101254761Y-86440000D01*
X101278571Y-86463809D01*
X101754761Y-86916190D02*
X101469047Y-86916190D01*
X101611904Y-86916190D02*
X101611904Y-86416190D01*
X101564285Y-86487619D01*
X101516666Y-86535238D01*
X101469047Y-86559047D01*
X101945238Y-86463809D02*
X101969047Y-86440000D01*
X102016666Y-86416190D01*
X102135714Y-86416190D01*
X102183333Y-86440000D01*
X102207142Y-86463809D01*
X102230952Y-86511428D01*
X102230952Y-86559047D01*
X102207142Y-86630476D01*
X101921428Y-86916190D01*
X102230952Y-86916190D01*
X94678571Y-86978571D02*
X94654761Y-87002380D01*
X94583333Y-87026190D01*
X94535714Y-87026190D01*
X94464285Y-87002380D01*
X94416666Y-86954761D01*
X94392857Y-86907142D01*
X94369047Y-86811904D01*
X94369047Y-86740476D01*
X94392857Y-86645238D01*
X94416666Y-86597619D01*
X94464285Y-86550000D01*
X94535714Y-86526190D01*
X94583333Y-86526190D01*
X94654761Y-86550000D01*
X94678571Y-86573809D01*
X95154761Y-87026190D02*
X94869047Y-87026190D01*
X95011904Y-87026190D02*
X95011904Y-86526190D01*
X94964285Y-86597619D01*
X94916666Y-86645238D01*
X94869047Y-86669047D01*
X95583333Y-86692857D02*
X95583333Y-87026190D01*
X95464285Y-86502380D02*
X95345238Y-86859523D01*
X95654761Y-86859523D01*
X98548571Y-107928571D02*
X98524761Y-107952380D01*
X98453333Y-107976190D01*
X98405714Y-107976190D01*
X98334285Y-107952380D01*
X98286666Y-107904761D01*
X98262857Y-107857142D01*
X98239047Y-107761904D01*
X98239047Y-107690476D01*
X98262857Y-107595238D01*
X98286666Y-107547619D01*
X98334285Y-107500000D01*
X98405714Y-107476190D01*
X98453333Y-107476190D01*
X98524761Y-107500000D01*
X98548571Y-107523809D01*
X99024761Y-107976190D02*
X98739047Y-107976190D01*
X98881904Y-107976190D02*
X98881904Y-107476190D01*
X98834285Y-107547619D01*
X98786666Y-107595238D01*
X98739047Y-107619047D01*
X99453333Y-107476190D02*
X99358095Y-107476190D01*
X99310476Y-107500000D01*
X99286666Y-107523809D01*
X99239047Y-107595238D01*
X99215238Y-107690476D01*
X99215238Y-107880952D01*
X99239047Y-107928571D01*
X99262857Y-107952380D01*
X99310476Y-107976190D01*
X99405714Y-107976190D01*
X99453333Y-107952380D01*
X99477142Y-107928571D01*
X99500952Y-107880952D01*
X99500952Y-107761904D01*
X99477142Y-107714285D01*
X99453333Y-107690476D01*
X99405714Y-107666666D01*
X99310476Y-107666666D01*
X99262857Y-107690476D01*
X99239047Y-107714285D01*
X99215238Y-107761904D01*
X107918571Y-110038571D02*
X107894761Y-110062380D01*
X107823333Y-110086190D01*
X107775714Y-110086190D01*
X107704285Y-110062380D01*
X107656666Y-110014761D01*
X107632857Y-109967142D01*
X107609047Y-109871904D01*
X107609047Y-109800476D01*
X107632857Y-109705238D01*
X107656666Y-109657619D01*
X107704285Y-109610000D01*
X107775714Y-109586190D01*
X107823333Y-109586190D01*
X107894761Y-109610000D01*
X107918571Y-109633809D01*
X108394761Y-110086190D02*
X108109047Y-110086190D01*
X108251904Y-110086190D02*
X108251904Y-109586190D01*
X108204285Y-109657619D01*
X108156666Y-109705238D01*
X108109047Y-109729047D01*
X108561428Y-109586190D02*
X108894761Y-109586190D01*
X108680476Y-110086190D01*
X105368571Y-109828571D02*
X105344761Y-109852380D01*
X105273333Y-109876190D01*
X105225714Y-109876190D01*
X105154285Y-109852380D01*
X105106666Y-109804761D01*
X105082857Y-109757142D01*
X105059047Y-109661904D01*
X105059047Y-109590476D01*
X105082857Y-109495238D01*
X105106666Y-109447619D01*
X105154285Y-109400000D01*
X105225714Y-109376190D01*
X105273333Y-109376190D01*
X105344761Y-109400000D01*
X105368571Y-109423809D01*
X105844761Y-109876190D02*
X105559047Y-109876190D01*
X105701904Y-109876190D02*
X105701904Y-109376190D01*
X105654285Y-109447619D01*
X105606666Y-109495238D01*
X105559047Y-109519047D01*
X106130476Y-109590476D02*
X106082857Y-109566666D01*
X106059047Y-109542857D01*
X106035238Y-109495238D01*
X106035238Y-109471428D01*
X106059047Y-109423809D01*
X106082857Y-109400000D01*
X106130476Y-109376190D01*
X106225714Y-109376190D01*
X106273333Y-109400000D01*
X106297142Y-109423809D01*
X106320952Y-109471428D01*
X106320952Y-109495238D01*
X106297142Y-109542857D01*
X106273333Y-109566666D01*
X106225714Y-109590476D01*
X106130476Y-109590476D01*
X106082857Y-109614285D01*
X106059047Y-109638095D01*
X106035238Y-109685714D01*
X106035238Y-109780952D01*
X106059047Y-109828571D01*
X106082857Y-109852380D01*
X106130476Y-109876190D01*
X106225714Y-109876190D01*
X106273333Y-109852380D01*
X106297142Y-109828571D01*
X106320952Y-109780952D01*
X106320952Y-109685714D01*
X106297142Y-109638095D01*
X106273333Y-109614285D01*
X106225714Y-109590476D01*
X99418571Y-111111428D02*
X99442380Y-111135238D01*
X99466190Y-111206666D01*
X99466190Y-111254285D01*
X99442380Y-111325714D01*
X99394761Y-111373333D01*
X99347142Y-111397142D01*
X99251904Y-111420952D01*
X99180476Y-111420952D01*
X99085238Y-111397142D01*
X99037619Y-111373333D01*
X98990000Y-111325714D01*
X98966190Y-111254285D01*
X98966190Y-111206666D01*
X98990000Y-111135238D01*
X99013809Y-111111428D01*
X99466190Y-110635238D02*
X99466190Y-110920952D01*
X99466190Y-110778095D02*
X98966190Y-110778095D01*
X99037619Y-110825714D01*
X99085238Y-110873333D01*
X99109047Y-110920952D01*
X99466190Y-110397142D02*
X99466190Y-110301904D01*
X99442380Y-110254285D01*
X99418571Y-110230476D01*
X99347142Y-110182857D01*
X99251904Y-110159047D01*
X99061428Y-110159047D01*
X99013809Y-110182857D01*
X98990000Y-110206666D01*
X98966190Y-110254285D01*
X98966190Y-110349523D01*
X98990000Y-110397142D01*
X99013809Y-110420952D01*
X99061428Y-110444761D01*
X99180476Y-110444761D01*
X99228095Y-110420952D01*
X99251904Y-110397142D01*
X99275714Y-110349523D01*
X99275714Y-110254285D01*
X99251904Y-110206666D01*
X99228095Y-110182857D01*
X99180476Y-110159047D01*
X101128571Y-103333571D02*
X101104761Y-103357380D01*
X101033333Y-103381190D01*
X100985714Y-103381190D01*
X100914285Y-103357380D01*
X100866666Y-103309761D01*
X100842857Y-103262142D01*
X100819047Y-103166904D01*
X100819047Y-103095476D01*
X100842857Y-103000238D01*
X100866666Y-102952619D01*
X100914285Y-102905000D01*
X100985714Y-102881190D01*
X101033333Y-102881190D01*
X101104761Y-102905000D01*
X101128571Y-102928809D01*
X101319047Y-102928809D02*
X101342857Y-102905000D01*
X101390476Y-102881190D01*
X101509523Y-102881190D01*
X101557142Y-102905000D01*
X101580952Y-102928809D01*
X101604761Y-102976428D01*
X101604761Y-103024047D01*
X101580952Y-103095476D01*
X101295238Y-103381190D01*
X101604761Y-103381190D01*
X101914285Y-102881190D02*
X101961904Y-102881190D01*
X102009523Y-102905000D01*
X102033333Y-102928809D01*
X102057142Y-102976428D01*
X102080952Y-103071666D01*
X102080952Y-103190714D01*
X102057142Y-103285952D01*
X102033333Y-103333571D01*
X102009523Y-103357380D01*
X101961904Y-103381190D01*
X101914285Y-103381190D01*
X101866666Y-103357380D01*
X101842857Y-103333571D01*
X101819047Y-103285952D01*
X101795238Y-103190714D01*
X101795238Y-103071666D01*
X101819047Y-102976428D01*
X101842857Y-102928809D01*
X101866666Y-102905000D01*
X101914285Y-102881190D01*
X86858571Y-110698571D02*
X86834761Y-110722380D01*
X86763333Y-110746190D01*
X86715714Y-110746190D01*
X86644285Y-110722380D01*
X86596666Y-110674761D01*
X86572857Y-110627142D01*
X86549047Y-110531904D01*
X86549047Y-110460476D01*
X86572857Y-110365238D01*
X86596666Y-110317619D01*
X86644285Y-110270000D01*
X86715714Y-110246190D01*
X86763333Y-110246190D01*
X86834761Y-110270000D01*
X86858571Y-110293809D01*
X87049047Y-110293809D02*
X87072857Y-110270000D01*
X87120476Y-110246190D01*
X87239523Y-110246190D01*
X87287142Y-110270000D01*
X87310952Y-110293809D01*
X87334761Y-110341428D01*
X87334761Y-110389047D01*
X87310952Y-110460476D01*
X87025238Y-110746190D01*
X87334761Y-110746190D01*
X87810952Y-110746190D02*
X87525238Y-110746190D01*
X87668095Y-110746190D02*
X87668095Y-110246190D01*
X87620476Y-110317619D01*
X87572857Y-110365238D01*
X87525238Y-110389047D01*
X100438571Y-111131428D02*
X100462380Y-111155238D01*
X100486190Y-111226666D01*
X100486190Y-111274285D01*
X100462380Y-111345714D01*
X100414761Y-111393333D01*
X100367142Y-111417142D01*
X100271904Y-111440952D01*
X100200476Y-111440952D01*
X100105238Y-111417142D01*
X100057619Y-111393333D01*
X100010000Y-111345714D01*
X99986190Y-111274285D01*
X99986190Y-111226666D01*
X100010000Y-111155238D01*
X100033809Y-111131428D01*
X100033809Y-110940952D02*
X100010000Y-110917142D01*
X99986190Y-110869523D01*
X99986190Y-110750476D01*
X100010000Y-110702857D01*
X100033809Y-110679047D01*
X100081428Y-110655238D01*
X100129047Y-110655238D01*
X100200476Y-110679047D01*
X100486190Y-110964761D01*
X100486190Y-110655238D01*
X100033809Y-110464761D02*
X100010000Y-110440952D01*
X99986190Y-110393333D01*
X99986190Y-110274285D01*
X100010000Y-110226666D01*
X100033809Y-110202857D01*
X100081428Y-110179047D01*
X100129047Y-110179047D01*
X100200476Y-110202857D01*
X100486190Y-110488571D01*
X100486190Y-110179047D01*
X89888571Y-105791428D02*
X89912380Y-105815238D01*
X89936190Y-105886666D01*
X89936190Y-105934285D01*
X89912380Y-106005714D01*
X89864761Y-106053333D01*
X89817142Y-106077142D01*
X89721904Y-106100952D01*
X89650476Y-106100952D01*
X89555238Y-106077142D01*
X89507619Y-106053333D01*
X89460000Y-106005714D01*
X89436190Y-105934285D01*
X89436190Y-105886666D01*
X89460000Y-105815238D01*
X89483809Y-105791428D01*
X89483809Y-105600952D02*
X89460000Y-105577142D01*
X89436190Y-105529523D01*
X89436190Y-105410476D01*
X89460000Y-105362857D01*
X89483809Y-105339047D01*
X89531428Y-105315238D01*
X89579047Y-105315238D01*
X89650476Y-105339047D01*
X89936190Y-105624761D01*
X89936190Y-105315238D01*
X89436190Y-105148571D02*
X89436190Y-104839047D01*
X89626666Y-105005714D01*
X89626666Y-104934285D01*
X89650476Y-104886666D01*
X89674285Y-104862857D01*
X89721904Y-104839047D01*
X89840952Y-104839047D01*
X89888571Y-104862857D01*
X89912380Y-104886666D01*
X89936190Y-104934285D01*
X89936190Y-105077142D01*
X89912380Y-105124761D01*
X89888571Y-105148571D01*
X94068571Y-98181428D02*
X94092380Y-98205238D01*
X94116190Y-98276666D01*
X94116190Y-98324285D01*
X94092380Y-98395714D01*
X94044761Y-98443333D01*
X93997142Y-98467142D01*
X93901904Y-98490952D01*
X93830476Y-98490952D01*
X93735238Y-98467142D01*
X93687619Y-98443333D01*
X93640000Y-98395714D01*
X93616190Y-98324285D01*
X93616190Y-98276666D01*
X93640000Y-98205238D01*
X93663809Y-98181428D01*
X93663809Y-97990952D02*
X93640000Y-97967142D01*
X93616190Y-97919523D01*
X93616190Y-97800476D01*
X93640000Y-97752857D01*
X93663809Y-97729047D01*
X93711428Y-97705238D01*
X93759047Y-97705238D01*
X93830476Y-97729047D01*
X94116190Y-98014761D01*
X94116190Y-97705238D01*
X93616190Y-97252857D02*
X93616190Y-97490952D01*
X93854285Y-97514761D01*
X93830476Y-97490952D01*
X93806666Y-97443333D01*
X93806666Y-97324285D01*
X93830476Y-97276666D01*
X93854285Y-97252857D01*
X93901904Y-97229047D01*
X94020952Y-97229047D01*
X94068571Y-97252857D01*
X94092380Y-97276666D01*
X94116190Y-97324285D01*
X94116190Y-97443333D01*
X94092380Y-97490952D01*
X94068571Y-97514761D01*
X87848571Y-111378571D02*
X87824761Y-111402380D01*
X87753333Y-111426190D01*
X87705714Y-111426190D01*
X87634285Y-111402380D01*
X87586666Y-111354761D01*
X87562857Y-111307142D01*
X87539047Y-111211904D01*
X87539047Y-111140476D01*
X87562857Y-111045238D01*
X87586666Y-110997619D01*
X87634285Y-110950000D01*
X87705714Y-110926190D01*
X87753333Y-110926190D01*
X87824761Y-110950000D01*
X87848571Y-110973809D01*
X88039047Y-110973809D02*
X88062857Y-110950000D01*
X88110476Y-110926190D01*
X88229523Y-110926190D01*
X88277142Y-110950000D01*
X88300952Y-110973809D01*
X88324761Y-111021428D01*
X88324761Y-111069047D01*
X88300952Y-111140476D01*
X88015238Y-111426190D01*
X88324761Y-111426190D01*
X88491428Y-110926190D02*
X88824761Y-110926190D01*
X88610476Y-111426190D01*
X87218571Y-103248571D02*
X87194761Y-103272380D01*
X87123333Y-103296190D01*
X87075714Y-103296190D01*
X87004285Y-103272380D01*
X86956666Y-103224761D01*
X86932857Y-103177142D01*
X86909047Y-103081904D01*
X86909047Y-103010476D01*
X86932857Y-102915238D01*
X86956666Y-102867619D01*
X87004285Y-102820000D01*
X87075714Y-102796190D01*
X87123333Y-102796190D01*
X87194761Y-102820000D01*
X87218571Y-102843809D01*
X87409047Y-102843809D02*
X87432857Y-102820000D01*
X87480476Y-102796190D01*
X87599523Y-102796190D01*
X87647142Y-102820000D01*
X87670952Y-102843809D01*
X87694761Y-102891428D01*
X87694761Y-102939047D01*
X87670952Y-103010476D01*
X87385238Y-103296190D01*
X87694761Y-103296190D01*
X87980476Y-103010476D02*
X87932857Y-102986666D01*
X87909047Y-102962857D01*
X87885238Y-102915238D01*
X87885238Y-102891428D01*
X87909047Y-102843809D01*
X87932857Y-102820000D01*
X87980476Y-102796190D01*
X88075714Y-102796190D01*
X88123333Y-102820000D01*
X88147142Y-102843809D01*
X88170952Y-102891428D01*
X88170952Y-102915238D01*
X88147142Y-102962857D01*
X88123333Y-102986666D01*
X88075714Y-103010476D01*
X87980476Y-103010476D01*
X87932857Y-103034285D01*
X87909047Y-103058095D01*
X87885238Y-103105714D01*
X87885238Y-103200952D01*
X87909047Y-103248571D01*
X87932857Y-103272380D01*
X87980476Y-103296190D01*
X88075714Y-103296190D01*
X88123333Y-103272380D01*
X88147142Y-103248571D01*
X88170952Y-103200952D01*
X88170952Y-103105714D01*
X88147142Y-103058095D01*
X88123333Y-103034285D01*
X88075714Y-103010476D01*
X101378571Y-111211428D02*
X101402380Y-111235238D01*
X101426190Y-111306666D01*
X101426190Y-111354285D01*
X101402380Y-111425714D01*
X101354761Y-111473333D01*
X101307142Y-111497142D01*
X101211904Y-111520952D01*
X101140476Y-111520952D01*
X101045238Y-111497142D01*
X100997619Y-111473333D01*
X100950000Y-111425714D01*
X100926190Y-111354285D01*
X100926190Y-111306666D01*
X100950000Y-111235238D01*
X100973809Y-111211428D01*
X100973809Y-111020952D02*
X100950000Y-110997142D01*
X100926190Y-110949523D01*
X100926190Y-110830476D01*
X100950000Y-110782857D01*
X100973809Y-110759047D01*
X101021428Y-110735238D01*
X101069047Y-110735238D01*
X101140476Y-110759047D01*
X101426190Y-111044761D01*
X101426190Y-110735238D01*
X101426190Y-110497142D02*
X101426190Y-110401904D01*
X101402380Y-110354285D01*
X101378571Y-110330476D01*
X101307142Y-110282857D01*
X101211904Y-110259047D01*
X101021428Y-110259047D01*
X100973809Y-110282857D01*
X100950000Y-110306666D01*
X100926190Y-110354285D01*
X100926190Y-110449523D01*
X100950000Y-110497142D01*
X100973809Y-110520952D01*
X101021428Y-110544761D01*
X101140476Y-110544761D01*
X101188095Y-110520952D01*
X101211904Y-110497142D01*
X101235714Y-110449523D01*
X101235714Y-110354285D01*
X101211904Y-110306666D01*
X101188095Y-110282857D01*
X101140476Y-110259047D01*
X101938571Y-111048571D02*
X101914761Y-111072380D01*
X101843333Y-111096190D01*
X101795714Y-111096190D01*
X101724285Y-111072380D01*
X101676666Y-111024761D01*
X101652857Y-110977142D01*
X101629047Y-110881904D01*
X101629047Y-110810476D01*
X101652857Y-110715238D01*
X101676666Y-110667619D01*
X101724285Y-110620000D01*
X101795714Y-110596190D01*
X101843333Y-110596190D01*
X101914761Y-110620000D01*
X101938571Y-110643809D01*
X102105238Y-110596190D02*
X102414761Y-110596190D01*
X102248095Y-110786666D01*
X102319523Y-110786666D01*
X102367142Y-110810476D01*
X102390952Y-110834285D01*
X102414761Y-110881904D01*
X102414761Y-111000952D01*
X102390952Y-111048571D01*
X102367142Y-111072380D01*
X102319523Y-111096190D01*
X102176666Y-111096190D01*
X102129047Y-111072380D01*
X102105238Y-111048571D01*
X102724285Y-110596190D02*
X102771904Y-110596190D01*
X102819523Y-110620000D01*
X102843333Y-110643809D01*
X102867142Y-110691428D01*
X102890952Y-110786666D01*
X102890952Y-110905714D01*
X102867142Y-111000952D01*
X102843333Y-111048571D01*
X102819523Y-111072380D01*
X102771904Y-111096190D01*
X102724285Y-111096190D01*
X102676666Y-111072380D01*
X102652857Y-111048571D01*
X102629047Y-111000952D01*
X102605238Y-110905714D01*
X102605238Y-110786666D01*
X102629047Y-110691428D01*
X102652857Y-110643809D01*
X102676666Y-110620000D01*
X102724285Y-110596190D01*
X97958571Y-111181428D02*
X97982380Y-111205238D01*
X98006190Y-111276666D01*
X98006190Y-111324285D01*
X97982380Y-111395714D01*
X97934761Y-111443333D01*
X97887142Y-111467142D01*
X97791904Y-111490952D01*
X97720476Y-111490952D01*
X97625238Y-111467142D01*
X97577619Y-111443333D01*
X97530000Y-111395714D01*
X97506190Y-111324285D01*
X97506190Y-111276666D01*
X97530000Y-111205238D01*
X97553809Y-111181428D01*
X97506190Y-111014761D02*
X97506190Y-110705238D01*
X97696666Y-110871904D01*
X97696666Y-110800476D01*
X97720476Y-110752857D01*
X97744285Y-110729047D01*
X97791904Y-110705238D01*
X97910952Y-110705238D01*
X97958571Y-110729047D01*
X97982380Y-110752857D01*
X98006190Y-110800476D01*
X98006190Y-110943333D01*
X97982380Y-110990952D01*
X97958571Y-111014761D01*
X98006190Y-110229047D02*
X98006190Y-110514761D01*
X98006190Y-110371904D02*
X97506190Y-110371904D01*
X97577619Y-110419523D01*
X97625238Y-110467142D01*
X97649047Y-110514761D01*
X101898571Y-114013571D02*
X101874761Y-114037380D01*
X101803333Y-114061190D01*
X101755714Y-114061190D01*
X101684285Y-114037380D01*
X101636666Y-113989761D01*
X101612857Y-113942142D01*
X101589047Y-113846904D01*
X101589047Y-113775476D01*
X101612857Y-113680238D01*
X101636666Y-113632619D01*
X101684285Y-113585000D01*
X101755714Y-113561190D01*
X101803333Y-113561190D01*
X101874761Y-113585000D01*
X101898571Y-113608809D01*
X102065238Y-113561190D02*
X102374761Y-113561190D01*
X102208095Y-113751666D01*
X102279523Y-113751666D01*
X102327142Y-113775476D01*
X102350952Y-113799285D01*
X102374761Y-113846904D01*
X102374761Y-113965952D01*
X102350952Y-114013571D01*
X102327142Y-114037380D01*
X102279523Y-114061190D01*
X102136666Y-114061190D01*
X102089047Y-114037380D01*
X102065238Y-114013571D01*
X102565238Y-113608809D02*
X102589047Y-113585000D01*
X102636666Y-113561190D01*
X102755714Y-113561190D01*
X102803333Y-113585000D01*
X102827142Y-113608809D01*
X102850952Y-113656428D01*
X102850952Y-113704047D01*
X102827142Y-113775476D01*
X102541428Y-114061190D01*
X102850952Y-114061190D01*
X105268571Y-108198571D02*
X105244761Y-108222380D01*
X105173333Y-108246190D01*
X105125714Y-108246190D01*
X105054285Y-108222380D01*
X105006666Y-108174761D01*
X104982857Y-108127142D01*
X104959047Y-108031904D01*
X104959047Y-107960476D01*
X104982857Y-107865238D01*
X105006666Y-107817619D01*
X105054285Y-107770000D01*
X105125714Y-107746190D01*
X105173333Y-107746190D01*
X105244761Y-107770000D01*
X105268571Y-107793809D01*
X105435238Y-107746190D02*
X105744761Y-107746190D01*
X105578095Y-107936666D01*
X105649523Y-107936666D01*
X105697142Y-107960476D01*
X105720952Y-107984285D01*
X105744761Y-108031904D01*
X105744761Y-108150952D01*
X105720952Y-108198571D01*
X105697142Y-108222380D01*
X105649523Y-108246190D01*
X105506666Y-108246190D01*
X105459047Y-108222380D01*
X105435238Y-108198571D01*
X105911428Y-107746190D02*
X106220952Y-107746190D01*
X106054285Y-107936666D01*
X106125714Y-107936666D01*
X106173333Y-107960476D01*
X106197142Y-107984285D01*
X106220952Y-108031904D01*
X106220952Y-108150952D01*
X106197142Y-108198571D01*
X106173333Y-108222380D01*
X106125714Y-108246190D01*
X105982857Y-108246190D01*
X105935238Y-108222380D01*
X105911428Y-108198571D01*
X97258571Y-111831428D02*
X97282380Y-111855238D01*
X97306190Y-111926666D01*
X97306190Y-111974285D01*
X97282380Y-112045714D01*
X97234761Y-112093333D01*
X97187142Y-112117142D01*
X97091904Y-112140952D01*
X97020476Y-112140952D01*
X96925238Y-112117142D01*
X96877619Y-112093333D01*
X96830000Y-112045714D01*
X96806190Y-111974285D01*
X96806190Y-111926666D01*
X96830000Y-111855238D01*
X96853809Y-111831428D01*
X96806190Y-111664761D02*
X96806190Y-111355238D01*
X96996666Y-111521904D01*
X96996666Y-111450476D01*
X97020476Y-111402857D01*
X97044285Y-111379047D01*
X97091904Y-111355238D01*
X97210952Y-111355238D01*
X97258571Y-111379047D01*
X97282380Y-111402857D01*
X97306190Y-111450476D01*
X97306190Y-111593333D01*
X97282380Y-111640952D01*
X97258571Y-111664761D01*
X96972857Y-110926666D02*
X97306190Y-110926666D01*
X96782380Y-111045714D02*
X97139523Y-111164761D01*
X97139523Y-110855238D01*
X111008571Y-112158571D02*
X110984761Y-112182380D01*
X110913333Y-112206190D01*
X110865714Y-112206190D01*
X110794285Y-112182380D01*
X110746666Y-112134761D01*
X110722857Y-112087142D01*
X110699047Y-111991904D01*
X110699047Y-111920476D01*
X110722857Y-111825238D01*
X110746666Y-111777619D01*
X110794285Y-111730000D01*
X110865714Y-111706190D01*
X110913333Y-111706190D01*
X110984761Y-111730000D01*
X111008571Y-111753809D01*
X111175238Y-111706190D02*
X111484761Y-111706190D01*
X111318095Y-111896666D01*
X111389523Y-111896666D01*
X111437142Y-111920476D01*
X111460952Y-111944285D01*
X111484761Y-111991904D01*
X111484761Y-112110952D01*
X111460952Y-112158571D01*
X111437142Y-112182380D01*
X111389523Y-112206190D01*
X111246666Y-112206190D01*
X111199047Y-112182380D01*
X111175238Y-112158571D01*
X111937142Y-111706190D02*
X111699047Y-111706190D01*
X111675238Y-111944285D01*
X111699047Y-111920476D01*
X111746666Y-111896666D01*
X111865714Y-111896666D01*
X111913333Y-111920476D01*
X111937142Y-111944285D01*
X111960952Y-111991904D01*
X111960952Y-112110952D01*
X111937142Y-112158571D01*
X111913333Y-112182380D01*
X111865714Y-112206190D01*
X111746666Y-112206190D01*
X111699047Y-112182380D01*
X111675238Y-112158571D01*
X95638571Y-104258571D02*
X95614761Y-104282380D01*
X95543333Y-104306190D01*
X95495714Y-104306190D01*
X95424285Y-104282380D01*
X95376666Y-104234761D01*
X95352857Y-104187142D01*
X95329047Y-104091904D01*
X95329047Y-104020476D01*
X95352857Y-103925238D01*
X95376666Y-103877619D01*
X95424285Y-103830000D01*
X95495714Y-103806190D01*
X95543333Y-103806190D01*
X95614761Y-103830000D01*
X95638571Y-103853809D01*
X95805238Y-103806190D02*
X96114761Y-103806190D01*
X95948095Y-103996666D01*
X96019523Y-103996666D01*
X96067142Y-104020476D01*
X96090952Y-104044285D01*
X96114761Y-104091904D01*
X96114761Y-104210952D01*
X96090952Y-104258571D01*
X96067142Y-104282380D01*
X96019523Y-104306190D01*
X95876666Y-104306190D01*
X95829047Y-104282380D01*
X95805238Y-104258571D01*
X96543333Y-103806190D02*
X96448095Y-103806190D01*
X96400476Y-103830000D01*
X96376666Y-103853809D01*
X96329047Y-103925238D01*
X96305238Y-104020476D01*
X96305238Y-104210952D01*
X96329047Y-104258571D01*
X96352857Y-104282380D01*
X96400476Y-104306190D01*
X96495714Y-104306190D01*
X96543333Y-104282380D01*
X96567142Y-104258571D01*
X96590952Y-104210952D01*
X96590952Y-104091904D01*
X96567142Y-104044285D01*
X96543333Y-104020476D01*
X96495714Y-103996666D01*
X96400476Y-103996666D01*
X96352857Y-104020476D01*
X96329047Y-104044285D01*
X96305238Y-104091904D01*
X93678571Y-105478571D02*
X93654761Y-105502380D01*
X93583333Y-105526190D01*
X93535714Y-105526190D01*
X93464285Y-105502380D01*
X93416666Y-105454761D01*
X93392857Y-105407142D01*
X93369047Y-105311904D01*
X93369047Y-105240476D01*
X93392857Y-105145238D01*
X93416666Y-105097619D01*
X93464285Y-105050000D01*
X93535714Y-105026190D01*
X93583333Y-105026190D01*
X93654761Y-105050000D01*
X93678571Y-105073809D01*
X93845238Y-105026190D02*
X94154761Y-105026190D01*
X93988095Y-105216666D01*
X94059523Y-105216666D01*
X94107142Y-105240476D01*
X94130952Y-105264285D01*
X94154761Y-105311904D01*
X94154761Y-105430952D01*
X94130952Y-105478571D01*
X94107142Y-105502380D01*
X94059523Y-105526190D01*
X93916666Y-105526190D01*
X93869047Y-105502380D01*
X93845238Y-105478571D01*
X94321428Y-105026190D02*
X94654761Y-105026190D01*
X94440476Y-105526190D01*
X101158571Y-104681428D02*
X101182380Y-104705238D01*
X101206190Y-104776666D01*
X101206190Y-104824285D01*
X101182380Y-104895714D01*
X101134761Y-104943333D01*
X101087142Y-104967142D01*
X100991904Y-104990952D01*
X100920476Y-104990952D01*
X100825238Y-104967142D01*
X100777619Y-104943333D01*
X100730000Y-104895714D01*
X100706190Y-104824285D01*
X100706190Y-104776666D01*
X100730000Y-104705238D01*
X100753809Y-104681428D01*
X100706190Y-104514761D02*
X100706190Y-104205238D01*
X100896666Y-104371904D01*
X100896666Y-104300476D01*
X100920476Y-104252857D01*
X100944285Y-104229047D01*
X100991904Y-104205238D01*
X101110952Y-104205238D01*
X101158571Y-104229047D01*
X101182380Y-104252857D01*
X101206190Y-104300476D01*
X101206190Y-104443333D01*
X101182380Y-104490952D01*
X101158571Y-104514761D01*
X100920476Y-103919523D02*
X100896666Y-103967142D01*
X100872857Y-103990952D01*
X100825238Y-104014761D01*
X100801428Y-104014761D01*
X100753809Y-103990952D01*
X100730000Y-103967142D01*
X100706190Y-103919523D01*
X100706190Y-103824285D01*
X100730000Y-103776666D01*
X100753809Y-103752857D01*
X100801428Y-103729047D01*
X100825238Y-103729047D01*
X100872857Y-103752857D01*
X100896666Y-103776666D01*
X100920476Y-103824285D01*
X100920476Y-103919523D01*
X100944285Y-103967142D01*
X100968095Y-103990952D01*
X101015714Y-104014761D01*
X101110952Y-104014761D01*
X101158571Y-103990952D01*
X101182380Y-103967142D01*
X101206190Y-103919523D01*
X101206190Y-103824285D01*
X101182380Y-103776666D01*
X101158571Y-103752857D01*
X101110952Y-103729047D01*
X101015714Y-103729047D01*
X100968095Y-103752857D01*
X100944285Y-103776666D01*
X100920476Y-103824285D01*
X95928571Y-109998571D02*
X95904761Y-110022380D01*
X95833333Y-110046190D01*
X95785714Y-110046190D01*
X95714285Y-110022380D01*
X95666666Y-109974761D01*
X95642857Y-109927142D01*
X95619047Y-109831904D01*
X95619047Y-109760476D01*
X95642857Y-109665238D01*
X95666666Y-109617619D01*
X95714285Y-109570000D01*
X95785714Y-109546190D01*
X95833333Y-109546190D01*
X95904761Y-109570000D01*
X95928571Y-109593809D01*
X96095238Y-109546190D02*
X96404761Y-109546190D01*
X96238095Y-109736666D01*
X96309523Y-109736666D01*
X96357142Y-109760476D01*
X96380952Y-109784285D01*
X96404761Y-109831904D01*
X96404761Y-109950952D01*
X96380952Y-109998571D01*
X96357142Y-110022380D01*
X96309523Y-110046190D01*
X96166666Y-110046190D01*
X96119047Y-110022380D01*
X96095238Y-109998571D01*
X96642857Y-110046190D02*
X96738095Y-110046190D01*
X96785714Y-110022380D01*
X96809523Y-109998571D01*
X96857142Y-109927142D01*
X96880952Y-109831904D01*
X96880952Y-109641428D01*
X96857142Y-109593809D01*
X96833333Y-109570000D01*
X96785714Y-109546190D01*
X96690476Y-109546190D01*
X96642857Y-109570000D01*
X96619047Y-109593809D01*
X96595238Y-109641428D01*
X96595238Y-109760476D01*
X96619047Y-109808095D01*
X96642857Y-109831904D01*
X96690476Y-109855714D01*
X96785714Y-109855714D01*
X96833333Y-109831904D01*
X96857142Y-109808095D01*
X96880952Y-109760476D01*
X103338571Y-105451428D02*
X103362380Y-105475238D01*
X103386190Y-105546666D01*
X103386190Y-105594285D01*
X103362380Y-105665714D01*
X103314761Y-105713333D01*
X103267142Y-105737142D01*
X103171904Y-105760952D01*
X103100476Y-105760952D01*
X103005238Y-105737142D01*
X102957619Y-105713333D01*
X102910000Y-105665714D01*
X102886190Y-105594285D01*
X102886190Y-105546666D01*
X102910000Y-105475238D01*
X102933809Y-105451428D01*
X103052857Y-105022857D02*
X103386190Y-105022857D01*
X102862380Y-105141904D02*
X103219523Y-105260952D01*
X103219523Y-104951428D01*
X102886190Y-104665714D02*
X102886190Y-104618095D01*
X102910000Y-104570476D01*
X102933809Y-104546666D01*
X102981428Y-104522857D01*
X103076666Y-104499047D01*
X103195714Y-104499047D01*
X103290952Y-104522857D01*
X103338571Y-104546666D01*
X103362380Y-104570476D01*
X103386190Y-104618095D01*
X103386190Y-104665714D01*
X103362380Y-104713333D01*
X103338571Y-104737142D01*
X103290952Y-104760952D01*
X103195714Y-104784761D01*
X103076666Y-104784761D01*
X102981428Y-104760952D01*
X102933809Y-104737142D01*
X102910000Y-104713333D01*
X102886190Y-104665714D01*
X97718571Y-106578571D02*
X97694761Y-106602380D01*
X97623333Y-106626190D01*
X97575714Y-106626190D01*
X97504285Y-106602380D01*
X97456666Y-106554761D01*
X97432857Y-106507142D01*
X97409047Y-106411904D01*
X97409047Y-106340476D01*
X97432857Y-106245238D01*
X97456666Y-106197619D01*
X97504285Y-106150000D01*
X97575714Y-106126190D01*
X97623333Y-106126190D01*
X97694761Y-106150000D01*
X97718571Y-106173809D01*
X98147142Y-106292857D02*
X98147142Y-106626190D01*
X98028095Y-106102380D02*
X97909047Y-106459523D01*
X98218571Y-106459523D01*
X98670952Y-106626190D02*
X98385238Y-106626190D01*
X98528095Y-106626190D02*
X98528095Y-106126190D01*
X98480476Y-106197619D01*
X98432857Y-106245238D01*
X98385238Y-106269047D01*
X99998571Y-104841428D02*
X100022380Y-104865238D01*
X100046190Y-104936666D01*
X100046190Y-104984285D01*
X100022380Y-105055714D01*
X99974761Y-105103333D01*
X99927142Y-105127142D01*
X99831904Y-105150952D01*
X99760476Y-105150952D01*
X99665238Y-105127142D01*
X99617619Y-105103333D01*
X99570000Y-105055714D01*
X99546190Y-104984285D01*
X99546190Y-104936666D01*
X99570000Y-104865238D01*
X99593809Y-104841428D01*
X99712857Y-104412857D02*
X100046190Y-104412857D01*
X99522380Y-104531904D02*
X99879523Y-104650952D01*
X99879523Y-104341428D01*
X99593809Y-104174761D02*
X99570000Y-104150952D01*
X99546190Y-104103333D01*
X99546190Y-103984285D01*
X99570000Y-103936666D01*
X99593809Y-103912857D01*
X99641428Y-103889047D01*
X99689047Y-103889047D01*
X99760476Y-103912857D01*
X100046190Y-104198571D01*
X100046190Y-103889047D01*
X84178571Y-102108571D02*
X84154761Y-102132380D01*
X84083333Y-102156190D01*
X84035714Y-102156190D01*
X83964285Y-102132380D01*
X83916666Y-102084761D01*
X83892857Y-102037142D01*
X83869047Y-101941904D01*
X83869047Y-101870476D01*
X83892857Y-101775238D01*
X83916666Y-101727619D01*
X83964285Y-101680000D01*
X84035714Y-101656190D01*
X84083333Y-101656190D01*
X84154761Y-101680000D01*
X84178571Y-101703809D01*
X84607142Y-101822857D02*
X84607142Y-102156190D01*
X84488095Y-101632380D02*
X84369047Y-101989523D01*
X84678571Y-101989523D01*
X84821428Y-101656190D02*
X85130952Y-101656190D01*
X84964285Y-101846666D01*
X85035714Y-101846666D01*
X85083333Y-101870476D01*
X85107142Y-101894285D01*
X85130952Y-101941904D01*
X85130952Y-102060952D01*
X85107142Y-102108571D01*
X85083333Y-102132380D01*
X85035714Y-102156190D01*
X84892857Y-102156190D01*
X84845238Y-102132380D01*
X84821428Y-102108571D01*
D13*
X86552857Y-103897142D02*
X86571904Y-103916190D01*
X86590952Y-103973333D01*
X86590952Y-104011428D01*
X86571904Y-104068571D01*
X86533809Y-104106666D01*
X86495714Y-104125714D01*
X86419523Y-104144761D01*
X86362380Y-104144761D01*
X86286190Y-104125714D01*
X86248095Y-104106666D01*
X86210000Y-104068571D01*
X86190952Y-104011428D01*
X86190952Y-103973333D01*
X86210000Y-103916190D01*
X86229047Y-103897142D01*
X86324285Y-103554285D02*
X86590952Y-103554285D01*
X86171904Y-103649523D02*
X86457619Y-103744761D01*
X86457619Y-103497142D01*
X86324285Y-103173333D02*
X86590952Y-103173333D01*
X86171904Y-103268571D02*
X86457619Y-103363809D01*
X86457619Y-103116190D01*
D10*
X115430952Y-90126190D02*
X115430952Y-89626190D01*
X115550000Y-89626190D01*
X115621428Y-89650000D01*
X115669047Y-89697619D01*
X115692857Y-89745238D01*
X115716666Y-89840476D01*
X115716666Y-89911904D01*
X115692857Y-90007142D01*
X115669047Y-90054761D01*
X115621428Y-90102380D01*
X115550000Y-90126190D01*
X115430952Y-90126190D01*
X116192857Y-90126190D02*
X115907142Y-90126190D01*
X116050000Y-90126190D02*
X116050000Y-89626190D01*
X116002380Y-89697619D01*
X115954761Y-89745238D01*
X115907142Y-89769047D01*
X101655952Y-100326190D02*
X101655952Y-99826190D01*
X101775000Y-99826190D01*
X101846428Y-99850000D01*
X101894047Y-99897619D01*
X101917857Y-99945238D01*
X101941666Y-100040476D01*
X101941666Y-100111904D01*
X101917857Y-100207142D01*
X101894047Y-100254761D01*
X101846428Y-100302380D01*
X101775000Y-100326190D01*
X101655952Y-100326190D01*
X102132142Y-99873809D02*
X102155952Y-99850000D01*
X102203571Y-99826190D01*
X102322619Y-99826190D01*
X102370238Y-99850000D01*
X102394047Y-99873809D01*
X102417857Y-99921428D01*
X102417857Y-99969047D01*
X102394047Y-100040476D01*
X102108333Y-100326190D01*
X102417857Y-100326190D01*
X112330952Y-104926190D02*
X112330952Y-104426190D01*
X112450000Y-104426190D01*
X112521428Y-104450000D01*
X112569047Y-104497619D01*
X112592857Y-104545238D01*
X112616666Y-104640476D01*
X112616666Y-104711904D01*
X112592857Y-104807142D01*
X112569047Y-104854761D01*
X112521428Y-104902380D01*
X112450000Y-104926190D01*
X112330952Y-104926190D01*
X112783333Y-104426190D02*
X113092857Y-104426190D01*
X112926190Y-104616666D01*
X112997619Y-104616666D01*
X113045238Y-104640476D01*
X113069047Y-104664285D01*
X113092857Y-104711904D01*
X113092857Y-104830952D01*
X113069047Y-104878571D01*
X113045238Y-104902380D01*
X112997619Y-104926190D01*
X112854761Y-104926190D01*
X112807142Y-104902380D01*
X112783333Y-104878571D01*
X86676190Y-105359047D02*
X86176190Y-105359047D01*
X86176190Y-105240000D01*
X86200000Y-105168571D01*
X86247619Y-105120952D01*
X86295238Y-105097142D01*
X86390476Y-105073333D01*
X86461904Y-105073333D01*
X86557142Y-105097142D01*
X86604761Y-105120952D01*
X86652380Y-105168571D01*
X86676190Y-105240000D01*
X86676190Y-105359047D01*
X86342857Y-104644761D02*
X86676190Y-104644761D01*
X86152380Y-104763809D02*
X86509523Y-104882857D01*
X86509523Y-104573333D01*
X113430952Y-105826190D02*
X113430952Y-105326190D01*
X113550000Y-105326190D01*
X113621428Y-105350000D01*
X113669047Y-105397619D01*
X113692857Y-105445238D01*
X113716666Y-105540476D01*
X113716666Y-105611904D01*
X113692857Y-105707142D01*
X113669047Y-105754761D01*
X113621428Y-105802380D01*
X113550000Y-105826190D01*
X113430952Y-105826190D01*
X114169047Y-105326190D02*
X113930952Y-105326190D01*
X113907142Y-105564285D01*
X113930952Y-105540476D01*
X113978571Y-105516666D01*
X114097619Y-105516666D01*
X114145238Y-105540476D01*
X114169047Y-105564285D01*
X114192857Y-105611904D01*
X114192857Y-105730952D01*
X114169047Y-105778571D01*
X114145238Y-105802380D01*
X114097619Y-105826190D01*
X113978571Y-105826190D01*
X113930952Y-105802380D01*
X113907142Y-105778571D01*
X88756666Y-107176190D02*
X88518571Y-107176190D01*
X88518571Y-106676190D01*
X89185238Y-107176190D02*
X88899523Y-107176190D01*
X89042380Y-107176190D02*
X89042380Y-106676190D01*
X88994761Y-106747619D01*
X88947142Y-106795238D01*
X88899523Y-106819047D01*
X98556666Y-114166190D02*
X98318571Y-114166190D01*
X98318571Y-113666190D01*
X98675714Y-113666190D02*
X98985238Y-113666190D01*
X98818571Y-113856666D01*
X98890000Y-113856666D01*
X98937619Y-113880476D01*
X98961428Y-113904285D01*
X98985238Y-113951904D01*
X98985238Y-114070952D01*
X98961428Y-114118571D01*
X98937619Y-114142380D01*
X98890000Y-114166190D01*
X98747142Y-114166190D01*
X98699523Y-114142380D01*
X98675714Y-114118571D01*
X107066666Y-97626190D02*
X106900000Y-97388095D01*
X106780952Y-97626190D02*
X106780952Y-97126190D01*
X106971428Y-97126190D01*
X107019047Y-97150000D01*
X107042857Y-97173809D01*
X107066666Y-97221428D01*
X107066666Y-97292857D01*
X107042857Y-97340476D01*
X107019047Y-97364285D01*
X106971428Y-97388095D01*
X106780952Y-97388095D01*
X107542857Y-97626190D02*
X107257142Y-97626190D01*
X107400000Y-97626190D02*
X107400000Y-97126190D01*
X107352380Y-97197619D01*
X107304761Y-97245238D01*
X107257142Y-97269047D01*
X106696666Y-111786190D02*
X106530000Y-111548095D01*
X106410952Y-111786190D02*
X106410952Y-111286190D01*
X106601428Y-111286190D01*
X106649047Y-111310000D01*
X106672857Y-111333809D01*
X106696666Y-111381428D01*
X106696666Y-111452857D01*
X106672857Y-111500476D01*
X106649047Y-111524285D01*
X106601428Y-111548095D01*
X106410952Y-111548095D01*
X106887142Y-111333809D02*
X106910952Y-111310000D01*
X106958571Y-111286190D01*
X107077619Y-111286190D01*
X107125238Y-111310000D01*
X107149047Y-111333809D01*
X107172857Y-111381428D01*
X107172857Y-111429047D01*
X107149047Y-111500476D01*
X106863333Y-111786190D01*
X107172857Y-111786190D01*
X91576190Y-96963333D02*
X91338095Y-97130000D01*
X91576190Y-97249047D02*
X91076190Y-97249047D01*
X91076190Y-97058571D01*
X91100000Y-97010952D01*
X91123809Y-96987142D01*
X91171428Y-96963333D01*
X91242857Y-96963333D01*
X91290476Y-96987142D01*
X91314285Y-97010952D01*
X91338095Y-97058571D01*
X91338095Y-97249047D01*
X91076190Y-96796666D02*
X91076190Y-96487142D01*
X91266666Y-96653809D01*
X91266666Y-96582380D01*
X91290476Y-96534761D01*
X91314285Y-96510952D01*
X91361904Y-96487142D01*
X91480952Y-96487142D01*
X91528571Y-96510952D01*
X91552380Y-96534761D01*
X91576190Y-96582380D01*
X91576190Y-96725238D01*
X91552380Y-96772857D01*
X91528571Y-96796666D01*
X90876190Y-96933333D02*
X90638095Y-97100000D01*
X90876190Y-97219047D02*
X90376190Y-97219047D01*
X90376190Y-97028571D01*
X90400000Y-96980952D01*
X90423809Y-96957142D01*
X90471428Y-96933333D01*
X90542857Y-96933333D01*
X90590476Y-96957142D01*
X90614285Y-96980952D01*
X90638095Y-97028571D01*
X90638095Y-97219047D01*
X90542857Y-96504761D02*
X90876190Y-96504761D01*
X90352380Y-96623809D02*
X90709523Y-96742857D01*
X90709523Y-96433333D01*
X92306190Y-96963333D02*
X92068095Y-97130000D01*
X92306190Y-97249047D02*
X91806190Y-97249047D01*
X91806190Y-97058571D01*
X91830000Y-97010952D01*
X91853809Y-96987142D01*
X91901428Y-96963333D01*
X91972857Y-96963333D01*
X92020476Y-96987142D01*
X92044285Y-97010952D01*
X92068095Y-97058571D01*
X92068095Y-97249047D01*
X91806190Y-96510952D02*
X91806190Y-96749047D01*
X92044285Y-96772857D01*
X92020476Y-96749047D01*
X91996666Y-96701428D01*
X91996666Y-96582380D01*
X92020476Y-96534761D01*
X92044285Y-96510952D01*
X92091904Y-96487142D01*
X92210952Y-96487142D01*
X92258571Y-96510952D01*
X92282380Y-96534761D01*
X92306190Y-96582380D01*
X92306190Y-96701428D01*
X92282380Y-96749047D01*
X92258571Y-96772857D01*
X105966666Y-97626190D02*
X105800000Y-97388095D01*
X105680952Y-97626190D02*
X105680952Y-97126190D01*
X105871428Y-97126190D01*
X105919047Y-97150000D01*
X105942857Y-97173809D01*
X105966666Y-97221428D01*
X105966666Y-97292857D01*
X105942857Y-97340476D01*
X105919047Y-97364285D01*
X105871428Y-97388095D01*
X105680952Y-97388095D01*
X106395238Y-97126190D02*
X106300000Y-97126190D01*
X106252380Y-97150000D01*
X106228571Y-97173809D01*
X106180952Y-97245238D01*
X106157142Y-97340476D01*
X106157142Y-97530952D01*
X106180952Y-97578571D01*
X106204761Y-97602380D01*
X106252380Y-97626190D01*
X106347619Y-97626190D01*
X106395238Y-97602380D01*
X106419047Y-97578571D01*
X106442857Y-97530952D01*
X106442857Y-97411904D01*
X106419047Y-97364285D01*
X106395238Y-97340476D01*
X106347619Y-97316666D01*
X106252380Y-97316666D01*
X106204761Y-97340476D01*
X106180952Y-97364285D01*
X106157142Y-97411904D01*
X101603571Y-98921190D02*
X101436904Y-98683095D01*
X101317857Y-98921190D02*
X101317857Y-98421190D01*
X101508333Y-98421190D01*
X101555952Y-98445000D01*
X101579761Y-98468809D01*
X101603571Y-98516428D01*
X101603571Y-98587857D01*
X101579761Y-98635476D01*
X101555952Y-98659285D01*
X101508333Y-98683095D01*
X101317857Y-98683095D01*
X102079761Y-98921190D02*
X101794047Y-98921190D01*
X101936904Y-98921190D02*
X101936904Y-98421190D01*
X101889285Y-98492619D01*
X101841666Y-98540238D01*
X101794047Y-98564047D01*
X102389285Y-98421190D02*
X102436904Y-98421190D01*
X102484523Y-98445000D01*
X102508333Y-98468809D01*
X102532142Y-98516428D01*
X102555952Y-98611666D01*
X102555952Y-98730714D01*
X102532142Y-98825952D01*
X102508333Y-98873571D01*
X102484523Y-98897380D01*
X102436904Y-98921190D01*
X102389285Y-98921190D01*
X102341666Y-98897380D01*
X102317857Y-98873571D01*
X102294047Y-98825952D01*
X102270238Y-98730714D01*
X102270238Y-98611666D01*
X102294047Y-98516428D01*
X102317857Y-98468809D01*
X102341666Y-98445000D01*
X102389285Y-98421190D01*
X91506190Y-99021428D02*
X91268095Y-99188095D01*
X91506190Y-99307142D02*
X91006190Y-99307142D01*
X91006190Y-99116666D01*
X91030000Y-99069047D01*
X91053809Y-99045238D01*
X91101428Y-99021428D01*
X91172857Y-99021428D01*
X91220476Y-99045238D01*
X91244285Y-99069047D01*
X91268095Y-99116666D01*
X91268095Y-99307142D01*
X91506190Y-98545238D02*
X91506190Y-98830952D01*
X91506190Y-98688095D02*
X91006190Y-98688095D01*
X91077619Y-98735714D01*
X91125238Y-98783333D01*
X91149047Y-98830952D01*
X91053809Y-98354761D02*
X91030000Y-98330952D01*
X91006190Y-98283333D01*
X91006190Y-98164285D01*
X91030000Y-98116666D01*
X91053809Y-98092857D01*
X91101428Y-98069047D01*
X91149047Y-98069047D01*
X91220476Y-98092857D01*
X91506190Y-98378571D01*
X91506190Y-98069047D01*
X90836190Y-99011428D02*
X90598095Y-99178095D01*
X90836190Y-99297142D02*
X90336190Y-99297142D01*
X90336190Y-99106666D01*
X90360000Y-99059047D01*
X90383809Y-99035238D01*
X90431428Y-99011428D01*
X90502857Y-99011428D01*
X90550476Y-99035238D01*
X90574285Y-99059047D01*
X90598095Y-99106666D01*
X90598095Y-99297142D01*
X90836190Y-98535238D02*
X90836190Y-98820952D01*
X90836190Y-98678095D02*
X90336190Y-98678095D01*
X90407619Y-98725714D01*
X90455238Y-98773333D01*
X90479047Y-98820952D01*
X90336190Y-98368571D02*
X90336190Y-98059047D01*
X90526666Y-98225714D01*
X90526666Y-98154285D01*
X90550476Y-98106666D01*
X90574285Y-98082857D01*
X90621904Y-98059047D01*
X90740952Y-98059047D01*
X90788571Y-98082857D01*
X90812380Y-98106666D01*
X90836190Y-98154285D01*
X90836190Y-98297142D01*
X90812380Y-98344761D01*
X90788571Y-98368571D01*
X92226190Y-99041428D02*
X91988095Y-99208095D01*
X92226190Y-99327142D02*
X91726190Y-99327142D01*
X91726190Y-99136666D01*
X91750000Y-99089047D01*
X91773809Y-99065238D01*
X91821428Y-99041428D01*
X91892857Y-99041428D01*
X91940476Y-99065238D01*
X91964285Y-99089047D01*
X91988095Y-99136666D01*
X91988095Y-99327142D01*
X92226190Y-98565238D02*
X92226190Y-98850952D01*
X92226190Y-98708095D02*
X91726190Y-98708095D01*
X91797619Y-98755714D01*
X91845238Y-98803333D01*
X91869047Y-98850952D01*
X91892857Y-98136666D02*
X92226190Y-98136666D01*
X91702380Y-98255714D02*
X92059523Y-98374761D01*
X92059523Y-98065238D01*
X88948571Y-101796190D02*
X88781904Y-101558095D01*
X88662857Y-101796190D02*
X88662857Y-101296190D01*
X88853333Y-101296190D01*
X88900952Y-101320000D01*
X88924761Y-101343809D01*
X88948571Y-101391428D01*
X88948571Y-101462857D01*
X88924761Y-101510476D01*
X88900952Y-101534285D01*
X88853333Y-101558095D01*
X88662857Y-101558095D01*
X89424761Y-101796190D02*
X89139047Y-101796190D01*
X89281904Y-101796190D02*
X89281904Y-101296190D01*
X89234285Y-101367619D01*
X89186666Y-101415238D01*
X89139047Y-101439047D01*
X89877142Y-101296190D02*
X89639047Y-101296190D01*
X89615238Y-101534285D01*
X89639047Y-101510476D01*
X89686666Y-101486666D01*
X89805714Y-101486666D01*
X89853333Y-101510476D01*
X89877142Y-101534285D01*
X89900952Y-101581904D01*
X89900952Y-101700952D01*
X89877142Y-101748571D01*
X89853333Y-101772380D01*
X89805714Y-101796190D01*
X89686666Y-101796190D01*
X89639047Y-101772380D01*
X89615238Y-101748571D01*
X89268571Y-100926190D02*
X89101904Y-100688095D01*
X88982857Y-100926190D02*
X88982857Y-100426190D01*
X89173333Y-100426190D01*
X89220952Y-100450000D01*
X89244761Y-100473809D01*
X89268571Y-100521428D01*
X89268571Y-100592857D01*
X89244761Y-100640476D01*
X89220952Y-100664285D01*
X89173333Y-100688095D01*
X88982857Y-100688095D01*
X89744761Y-100926190D02*
X89459047Y-100926190D01*
X89601904Y-100926190D02*
X89601904Y-100426190D01*
X89554285Y-100497619D01*
X89506666Y-100545238D01*
X89459047Y-100569047D01*
X90173333Y-100426190D02*
X90078095Y-100426190D01*
X90030476Y-100450000D01*
X90006666Y-100473809D01*
X89959047Y-100545238D01*
X89935238Y-100640476D01*
X89935238Y-100830952D01*
X89959047Y-100878571D01*
X89982857Y-100902380D01*
X90030476Y-100926190D01*
X90125714Y-100926190D01*
X90173333Y-100902380D01*
X90197142Y-100878571D01*
X90220952Y-100830952D01*
X90220952Y-100711904D01*
X90197142Y-100664285D01*
X90173333Y-100640476D01*
X90125714Y-100616666D01*
X90030476Y-100616666D01*
X89982857Y-100640476D01*
X89959047Y-100664285D01*
X89935238Y-100711904D01*
X105798571Y-113836190D02*
X105631904Y-113598095D01*
X105512857Y-113836190D02*
X105512857Y-113336190D01*
X105703333Y-113336190D01*
X105750952Y-113360000D01*
X105774761Y-113383809D01*
X105798571Y-113431428D01*
X105798571Y-113502857D01*
X105774761Y-113550476D01*
X105750952Y-113574285D01*
X105703333Y-113598095D01*
X105512857Y-113598095D01*
X106274761Y-113836190D02*
X105989047Y-113836190D01*
X106131904Y-113836190D02*
X106131904Y-113336190D01*
X106084285Y-113407619D01*
X106036666Y-113455238D01*
X105989047Y-113479047D01*
X106441428Y-113336190D02*
X106774761Y-113336190D01*
X106560476Y-113836190D01*
X106318571Y-113056190D02*
X106151904Y-112818095D01*
X106032857Y-113056190D02*
X106032857Y-112556190D01*
X106223333Y-112556190D01*
X106270952Y-112580000D01*
X106294761Y-112603809D01*
X106318571Y-112651428D01*
X106318571Y-112722857D01*
X106294761Y-112770476D01*
X106270952Y-112794285D01*
X106223333Y-112818095D01*
X106032857Y-112818095D01*
X106794761Y-113056190D02*
X106509047Y-113056190D01*
X106651904Y-113056190D02*
X106651904Y-112556190D01*
X106604285Y-112627619D01*
X106556666Y-112675238D01*
X106509047Y-112699047D01*
X107080476Y-112770476D02*
X107032857Y-112746666D01*
X107009047Y-112722857D01*
X106985238Y-112675238D01*
X106985238Y-112651428D01*
X107009047Y-112603809D01*
X107032857Y-112580000D01*
X107080476Y-112556190D01*
X107175714Y-112556190D01*
X107223333Y-112580000D01*
X107247142Y-112603809D01*
X107270952Y-112651428D01*
X107270952Y-112675238D01*
X107247142Y-112722857D01*
X107223333Y-112746666D01*
X107175714Y-112770476D01*
X107080476Y-112770476D01*
X107032857Y-112794285D01*
X107009047Y-112818095D01*
X106985238Y-112865714D01*
X106985238Y-112960952D01*
X107009047Y-113008571D01*
X107032857Y-113032380D01*
X107080476Y-113056190D01*
X107175714Y-113056190D01*
X107223333Y-113032380D01*
X107247142Y-113008571D01*
X107270952Y-112960952D01*
X107270952Y-112865714D01*
X107247142Y-112818095D01*
X107223333Y-112794285D01*
X107175714Y-112770476D01*
X115478571Y-102526190D02*
X115311904Y-102288095D01*
X115192857Y-102526190D02*
X115192857Y-102026190D01*
X115383333Y-102026190D01*
X115430952Y-102050000D01*
X115454761Y-102073809D01*
X115478571Y-102121428D01*
X115478571Y-102192857D01*
X115454761Y-102240476D01*
X115430952Y-102264285D01*
X115383333Y-102288095D01*
X115192857Y-102288095D01*
X115954761Y-102526190D02*
X115669047Y-102526190D01*
X115811904Y-102526190D02*
X115811904Y-102026190D01*
X115764285Y-102097619D01*
X115716666Y-102145238D01*
X115669047Y-102169047D01*
X116192857Y-102526190D02*
X116288095Y-102526190D01*
X116335714Y-102502380D01*
X116359523Y-102478571D01*
X116407142Y-102407142D01*
X116430952Y-102311904D01*
X116430952Y-102121428D01*
X116407142Y-102073809D01*
X116383333Y-102050000D01*
X116335714Y-102026190D01*
X116240476Y-102026190D01*
X116192857Y-102050000D01*
X116169047Y-102073809D01*
X116145238Y-102121428D01*
X116145238Y-102240476D01*
X116169047Y-102288095D01*
X116192857Y-102311904D01*
X116240476Y-102335714D01*
X116335714Y-102335714D01*
X116383333Y-102311904D01*
X116407142Y-102288095D01*
X116430952Y-102240476D01*
X108428571Y-97626190D02*
X108261904Y-97388095D01*
X108142857Y-97626190D02*
X108142857Y-97126190D01*
X108333333Y-97126190D01*
X108380952Y-97150000D01*
X108404761Y-97173809D01*
X108428571Y-97221428D01*
X108428571Y-97292857D01*
X108404761Y-97340476D01*
X108380952Y-97364285D01*
X108333333Y-97388095D01*
X108142857Y-97388095D01*
X108619047Y-97173809D02*
X108642857Y-97150000D01*
X108690476Y-97126190D01*
X108809523Y-97126190D01*
X108857142Y-97150000D01*
X108880952Y-97173809D01*
X108904761Y-97221428D01*
X108904761Y-97269047D01*
X108880952Y-97340476D01*
X108595238Y-97626190D01*
X108904761Y-97626190D01*
X109357142Y-97126190D02*
X109119047Y-97126190D01*
X109095238Y-97364285D01*
X109119047Y-97340476D01*
X109166666Y-97316666D01*
X109285714Y-97316666D01*
X109333333Y-97340476D01*
X109357142Y-97364285D01*
X109380952Y-97411904D01*
X109380952Y-97530952D01*
X109357142Y-97578571D01*
X109333333Y-97602380D01*
X109285714Y-97626190D01*
X109166666Y-97626190D01*
X109119047Y-97602380D01*
X109095238Y-97578571D01*
X109568571Y-110056190D02*
X109401904Y-109818095D01*
X109282857Y-110056190D02*
X109282857Y-109556190D01*
X109473333Y-109556190D01*
X109520952Y-109580000D01*
X109544761Y-109603809D01*
X109568571Y-109651428D01*
X109568571Y-109722857D01*
X109544761Y-109770476D01*
X109520952Y-109794285D01*
X109473333Y-109818095D01*
X109282857Y-109818095D01*
X109759047Y-109603809D02*
X109782857Y-109580000D01*
X109830476Y-109556190D01*
X109949523Y-109556190D01*
X109997142Y-109580000D01*
X110020952Y-109603809D01*
X110044761Y-109651428D01*
X110044761Y-109699047D01*
X110020952Y-109770476D01*
X109735238Y-110056190D01*
X110044761Y-110056190D01*
X110473333Y-109556190D02*
X110378095Y-109556190D01*
X110330476Y-109580000D01*
X110306666Y-109603809D01*
X110259047Y-109675238D01*
X110235238Y-109770476D01*
X110235238Y-109960952D01*
X110259047Y-110008571D01*
X110282857Y-110032380D01*
X110330476Y-110056190D01*
X110425714Y-110056190D01*
X110473333Y-110032380D01*
X110497142Y-110008571D01*
X110520952Y-109960952D01*
X110520952Y-109841904D01*
X110497142Y-109794285D01*
X110473333Y-109770476D01*
X110425714Y-109746666D01*
X110330476Y-109746666D01*
X110282857Y-109770476D01*
X110259047Y-109794285D01*
X110235238Y-109841904D01*
X110778571Y-103626190D02*
X110611904Y-103388095D01*
X110492857Y-103626190D02*
X110492857Y-103126190D01*
X110683333Y-103126190D01*
X110730952Y-103150000D01*
X110754761Y-103173809D01*
X110778571Y-103221428D01*
X110778571Y-103292857D01*
X110754761Y-103340476D01*
X110730952Y-103364285D01*
X110683333Y-103388095D01*
X110492857Y-103388095D01*
X110969047Y-103173809D02*
X110992857Y-103150000D01*
X111040476Y-103126190D01*
X111159523Y-103126190D01*
X111207142Y-103150000D01*
X111230952Y-103173809D01*
X111254761Y-103221428D01*
X111254761Y-103269047D01*
X111230952Y-103340476D01*
X110945238Y-103626190D01*
X111254761Y-103626190D01*
X111421428Y-103126190D02*
X111754761Y-103126190D01*
X111540476Y-103626190D01*
X94816190Y-111641428D02*
X94578095Y-111808095D01*
X94816190Y-111927142D02*
X94316190Y-111927142D01*
X94316190Y-111736666D01*
X94340000Y-111689047D01*
X94363809Y-111665238D01*
X94411428Y-111641428D01*
X94482857Y-111641428D01*
X94530476Y-111665238D01*
X94554285Y-111689047D01*
X94578095Y-111736666D01*
X94578095Y-111927142D01*
X94363809Y-111450952D02*
X94340000Y-111427142D01*
X94316190Y-111379523D01*
X94316190Y-111260476D01*
X94340000Y-111212857D01*
X94363809Y-111189047D01*
X94411428Y-111165238D01*
X94459047Y-111165238D01*
X94530476Y-111189047D01*
X94816190Y-111474761D01*
X94816190Y-111165238D01*
X94530476Y-110879523D02*
X94506666Y-110927142D01*
X94482857Y-110950952D01*
X94435238Y-110974761D01*
X94411428Y-110974761D01*
X94363809Y-110950952D01*
X94340000Y-110927142D01*
X94316190Y-110879523D01*
X94316190Y-110784285D01*
X94340000Y-110736666D01*
X94363809Y-110712857D01*
X94411428Y-110689047D01*
X94435238Y-110689047D01*
X94482857Y-110712857D01*
X94506666Y-110736666D01*
X94530476Y-110784285D01*
X94530476Y-110879523D01*
X94554285Y-110927142D01*
X94578095Y-110950952D01*
X94625714Y-110974761D01*
X94720952Y-110974761D01*
X94768571Y-110950952D01*
X94792380Y-110927142D01*
X94816190Y-110879523D01*
X94816190Y-110784285D01*
X94792380Y-110736666D01*
X94768571Y-110712857D01*
X94720952Y-110689047D01*
X94625714Y-110689047D01*
X94578095Y-110712857D01*
X94554285Y-110736666D01*
X94530476Y-110784285D01*
X92916190Y-110511428D02*
X92678095Y-110678095D01*
X92916190Y-110797142D02*
X92416190Y-110797142D01*
X92416190Y-110606666D01*
X92440000Y-110559047D01*
X92463809Y-110535238D01*
X92511428Y-110511428D01*
X92582857Y-110511428D01*
X92630476Y-110535238D01*
X92654285Y-110559047D01*
X92678095Y-110606666D01*
X92678095Y-110797142D01*
X92463809Y-110320952D02*
X92440000Y-110297142D01*
X92416190Y-110249523D01*
X92416190Y-110130476D01*
X92440000Y-110082857D01*
X92463809Y-110059047D01*
X92511428Y-110035238D01*
X92559047Y-110035238D01*
X92630476Y-110059047D01*
X92916190Y-110344761D01*
X92916190Y-110035238D01*
X92916190Y-109797142D02*
X92916190Y-109701904D01*
X92892380Y-109654285D01*
X92868571Y-109630476D01*
X92797142Y-109582857D01*
X92701904Y-109559047D01*
X92511428Y-109559047D01*
X92463809Y-109582857D01*
X92440000Y-109606666D01*
X92416190Y-109654285D01*
X92416190Y-109749523D01*
X92440000Y-109797142D01*
X92463809Y-109820952D01*
X92511428Y-109844761D01*
X92630476Y-109844761D01*
X92678095Y-109820952D01*
X92701904Y-109797142D01*
X92725714Y-109749523D01*
X92725714Y-109654285D01*
X92701904Y-109606666D01*
X92678095Y-109582857D01*
X92630476Y-109559047D01*
X113218571Y-109746190D02*
X113051904Y-109508095D01*
X112932857Y-109746190D02*
X112932857Y-109246190D01*
X113123333Y-109246190D01*
X113170952Y-109270000D01*
X113194761Y-109293809D01*
X113218571Y-109341428D01*
X113218571Y-109412857D01*
X113194761Y-109460476D01*
X113170952Y-109484285D01*
X113123333Y-109508095D01*
X112932857Y-109508095D01*
X113385238Y-109246190D02*
X113694761Y-109246190D01*
X113528095Y-109436666D01*
X113599523Y-109436666D01*
X113647142Y-109460476D01*
X113670952Y-109484285D01*
X113694761Y-109531904D01*
X113694761Y-109650952D01*
X113670952Y-109698571D01*
X113647142Y-109722380D01*
X113599523Y-109746190D01*
X113456666Y-109746190D01*
X113409047Y-109722380D01*
X113385238Y-109698571D01*
X114004285Y-109246190D02*
X114051904Y-109246190D01*
X114099523Y-109270000D01*
X114123333Y-109293809D01*
X114147142Y-109341428D01*
X114170952Y-109436666D01*
X114170952Y-109555714D01*
X114147142Y-109650952D01*
X114123333Y-109698571D01*
X114099523Y-109722380D01*
X114051904Y-109746190D01*
X114004285Y-109746190D01*
X113956666Y-109722380D01*
X113932857Y-109698571D01*
X113909047Y-109650952D01*
X113885238Y-109555714D01*
X113885238Y-109436666D01*
X113909047Y-109341428D01*
X113932857Y-109293809D01*
X113956666Y-109270000D01*
X114004285Y-109246190D01*
X111978571Y-105726190D02*
X111811904Y-105488095D01*
X111692857Y-105726190D02*
X111692857Y-105226190D01*
X111883333Y-105226190D01*
X111930952Y-105250000D01*
X111954761Y-105273809D01*
X111978571Y-105321428D01*
X111978571Y-105392857D01*
X111954761Y-105440476D01*
X111930952Y-105464285D01*
X111883333Y-105488095D01*
X111692857Y-105488095D01*
X112145238Y-105226190D02*
X112454761Y-105226190D01*
X112288095Y-105416666D01*
X112359523Y-105416666D01*
X112407142Y-105440476D01*
X112430952Y-105464285D01*
X112454761Y-105511904D01*
X112454761Y-105630952D01*
X112430952Y-105678571D01*
X112407142Y-105702380D01*
X112359523Y-105726190D01*
X112216666Y-105726190D01*
X112169047Y-105702380D01*
X112145238Y-105678571D01*
X112930952Y-105726190D02*
X112645238Y-105726190D01*
X112788095Y-105726190D02*
X112788095Y-105226190D01*
X112740476Y-105297619D01*
X112692857Y-105345238D01*
X112645238Y-105369047D01*
X87178571Y-106986190D02*
X87011904Y-106748095D01*
X86892857Y-106986190D02*
X86892857Y-106486190D01*
X87083333Y-106486190D01*
X87130952Y-106510000D01*
X87154761Y-106533809D01*
X87178571Y-106581428D01*
X87178571Y-106652857D01*
X87154761Y-106700476D01*
X87130952Y-106724285D01*
X87083333Y-106748095D01*
X86892857Y-106748095D01*
X87345238Y-106486190D02*
X87654761Y-106486190D01*
X87488095Y-106676666D01*
X87559523Y-106676666D01*
X87607142Y-106700476D01*
X87630952Y-106724285D01*
X87654761Y-106771904D01*
X87654761Y-106890952D01*
X87630952Y-106938571D01*
X87607142Y-106962380D01*
X87559523Y-106986190D01*
X87416666Y-106986190D01*
X87369047Y-106962380D01*
X87345238Y-106938571D01*
X88083333Y-106652857D02*
X88083333Y-106986190D01*
X87964285Y-106462380D02*
X87845238Y-106819523D01*
X88154761Y-106819523D01*
X89296190Y-103411428D02*
X89058095Y-103578095D01*
X89296190Y-103697142D02*
X88796190Y-103697142D01*
X88796190Y-103506666D01*
X88820000Y-103459047D01*
X88843809Y-103435238D01*
X88891428Y-103411428D01*
X88962857Y-103411428D01*
X89010476Y-103435238D01*
X89034285Y-103459047D01*
X89058095Y-103506666D01*
X89058095Y-103697142D01*
X88796190Y-103244761D02*
X88796190Y-102935238D01*
X88986666Y-103101904D01*
X88986666Y-103030476D01*
X89010476Y-102982857D01*
X89034285Y-102959047D01*
X89081904Y-102935238D01*
X89200952Y-102935238D01*
X89248571Y-102959047D01*
X89272380Y-102982857D01*
X89296190Y-103030476D01*
X89296190Y-103173333D01*
X89272380Y-103220952D01*
X89248571Y-103244761D01*
X88796190Y-102482857D02*
X88796190Y-102720952D01*
X89034285Y-102744761D01*
X89010476Y-102720952D01*
X88986666Y-102673333D01*
X88986666Y-102554285D01*
X89010476Y-102506666D01*
X89034285Y-102482857D01*
X89081904Y-102459047D01*
X89200952Y-102459047D01*
X89248571Y-102482857D01*
X89272380Y-102506666D01*
X89296190Y-102554285D01*
X89296190Y-102673333D01*
X89272380Y-102720952D01*
X89248571Y-102744761D01*
M02*
