G04 #@! TF.GenerationSoftware,KiCad,Pcbnew,(5.1.5)-3*
G04 #@! TF.CreationDate,2020-02-14T12:09:09-03:30*
G04 #@! TF.ProjectId,RPM Sensor,52504d20-5365-46e7-936f-722e6b696361,rev?*
G04 #@! TF.SameCoordinates,Original*
G04 #@! TF.FileFunction,Legend,Bot*
G04 #@! TF.FilePolarity,Positive*
%FSLAX46Y46*%
G04 Gerber Fmt 4.6, Leading zero omitted, Abs format (unit mm)*
G04 Created by KiCad (PCBNEW (5.1.5)-3) date 2020-02-14 12:09:09*
%MOMM*%
%LPD*%
G04 APERTURE LIST*
%ADD10C,0.150000*%
%ADD11C,0.250000*%
%ADD12C,0.312500*%
G04 APERTURE END LIST*
D10*
X103603571Y-95246428D02*
X103853571Y-95246428D01*
X103853571Y-95639285D02*
X103853571Y-94889285D01*
X103496428Y-94889285D01*
X103103571Y-95639285D02*
X103175000Y-95603571D01*
X103210714Y-95567857D01*
X103246428Y-95496428D01*
X103246428Y-95282142D01*
X103210714Y-95210714D01*
X103175000Y-95175000D01*
X103103571Y-95139285D01*
X102996428Y-95139285D01*
X102925000Y-95175000D01*
X102889285Y-95210714D01*
X102853571Y-95282142D01*
X102853571Y-95496428D01*
X102889285Y-95567857D01*
X102925000Y-95603571D01*
X102996428Y-95639285D01*
X103103571Y-95639285D01*
X102532142Y-95639285D02*
X102532142Y-95139285D01*
X102532142Y-95282142D02*
X102496428Y-95210714D01*
X102460714Y-95175000D01*
X102389285Y-95139285D01*
X102317857Y-95139285D01*
X101603571Y-95139285D02*
X101317857Y-95139285D01*
X101496428Y-94889285D02*
X101496428Y-95532142D01*
X101460714Y-95603571D01*
X101389285Y-95639285D01*
X101317857Y-95639285D01*
X101067857Y-95639285D02*
X101067857Y-94889285D01*
X100746428Y-95639285D02*
X100746428Y-95246428D01*
X100782142Y-95175000D01*
X100853571Y-95139285D01*
X100960714Y-95139285D01*
X101032142Y-95175000D01*
X101067857Y-95210714D01*
X100103571Y-95603571D02*
X100175000Y-95639285D01*
X100317857Y-95639285D01*
X100389285Y-95603571D01*
X100425000Y-95532142D01*
X100425000Y-95246428D01*
X100389285Y-95175000D01*
X100317857Y-95139285D01*
X100175000Y-95139285D01*
X100103571Y-95175000D01*
X100067857Y-95246428D01*
X100067857Y-95317857D01*
X100425000Y-95389285D01*
X98925000Y-95246428D02*
X98817857Y-95282142D01*
X98782142Y-95317857D01*
X98746428Y-95389285D01*
X98746428Y-95496428D01*
X98782142Y-95567857D01*
X98817857Y-95603571D01*
X98889285Y-95639285D01*
X99175000Y-95639285D01*
X99175000Y-94889285D01*
X98925000Y-94889285D01*
X98853571Y-94925000D01*
X98817857Y-94960714D01*
X98782142Y-95032142D01*
X98782142Y-95103571D01*
X98817857Y-95175000D01*
X98853571Y-95210714D01*
X98925000Y-95246428D01*
X99175000Y-95246428D01*
X97996428Y-95639285D02*
X98246428Y-95282142D01*
X98425000Y-95639285D02*
X98425000Y-94889285D01*
X98139285Y-94889285D01*
X98067857Y-94925000D01*
X98032142Y-94960714D01*
X97996428Y-95032142D01*
X97996428Y-95139285D01*
X98032142Y-95210714D01*
X98067857Y-95246428D01*
X98139285Y-95282142D01*
X98425000Y-95282142D01*
X97210714Y-94889285D02*
X96782142Y-94889285D01*
X96996428Y-95639285D02*
X96996428Y-94889285D01*
X96567857Y-94960714D02*
X96532142Y-94925000D01*
X96460714Y-94889285D01*
X96282142Y-94889285D01*
X96210714Y-94925000D01*
X96175000Y-94960714D01*
X96139285Y-95032142D01*
X96139285Y-95103571D01*
X96175000Y-95210714D01*
X96603571Y-95639285D01*
X96139285Y-95639285D01*
X95675000Y-94889285D02*
X95603571Y-94889285D01*
X95532142Y-94925000D01*
X95496428Y-94960714D01*
X95460714Y-95032142D01*
X95425000Y-95175000D01*
X95425000Y-95353571D01*
X95460714Y-95496428D01*
X95496428Y-95567857D01*
X95532142Y-95603571D01*
X95603571Y-95639285D01*
X95675000Y-95639285D01*
X95746428Y-95603571D01*
X95782142Y-95567857D01*
X95817857Y-95496428D01*
X95853571Y-95353571D01*
X95853571Y-95175000D01*
X95817857Y-95032142D01*
X95782142Y-94960714D01*
X95746428Y-94925000D01*
X95675000Y-94889285D01*
X94960714Y-94889285D02*
X94889285Y-94889285D01*
X94817857Y-94925000D01*
X94782142Y-94960714D01*
X94746428Y-95032142D01*
X94710714Y-95175000D01*
X94710714Y-95353571D01*
X94746428Y-95496428D01*
X94782142Y-95567857D01*
X94817857Y-95603571D01*
X94889285Y-95639285D01*
X94960714Y-95639285D01*
X95032142Y-95603571D01*
X95067857Y-95567857D01*
X95103571Y-95496428D01*
X95139285Y-95353571D01*
X95139285Y-95175000D01*
X95103571Y-95032142D01*
X95067857Y-94960714D01*
X95032142Y-94925000D01*
X94960714Y-94889285D01*
D11*
X108219047Y-108052380D02*
X108219047Y-107052380D01*
X107885714Y-107766666D01*
X107552380Y-107052380D01*
X107552380Y-108052380D01*
X106647619Y-108052380D02*
X106647619Y-107528571D01*
X106695238Y-107433333D01*
X106790476Y-107385714D01*
X106980952Y-107385714D01*
X107076190Y-107433333D01*
X106647619Y-108004761D02*
X106742857Y-108052380D01*
X106980952Y-108052380D01*
X107076190Y-108004761D01*
X107123809Y-107909523D01*
X107123809Y-107814285D01*
X107076190Y-107719047D01*
X106980952Y-107671428D01*
X106742857Y-107671428D01*
X106647619Y-107623809D01*
X106171428Y-108052380D02*
X106171428Y-107385714D01*
X106171428Y-107576190D02*
X106123809Y-107480952D01*
X106076190Y-107433333D01*
X105980952Y-107385714D01*
X105885714Y-107385714D01*
X105552380Y-108052380D02*
X105552380Y-107052380D01*
X105457142Y-107671428D02*
X105171428Y-108052380D01*
X105171428Y-107385714D02*
X105552380Y-107766666D01*
X103647619Y-107528571D02*
X103504761Y-107576190D01*
X103457142Y-107623809D01*
X103409523Y-107719047D01*
X103409523Y-107861904D01*
X103457142Y-107957142D01*
X103504761Y-108004761D01*
X103600000Y-108052380D01*
X103980952Y-108052380D01*
X103980952Y-107052380D01*
X103647619Y-107052380D01*
X103552380Y-107100000D01*
X103504761Y-107147619D01*
X103457142Y-107242857D01*
X103457142Y-107338095D01*
X103504761Y-107433333D01*
X103552380Y-107480952D01*
X103647619Y-107528571D01*
X103980952Y-107528571D01*
X102600000Y-108004761D02*
X102695238Y-108052380D01*
X102885714Y-108052380D01*
X102980952Y-108004761D01*
X103028571Y-107909523D01*
X103028571Y-107528571D01*
X102980952Y-107433333D01*
X102885714Y-107385714D01*
X102695238Y-107385714D01*
X102600000Y-107433333D01*
X102552380Y-107528571D01*
X102552380Y-107623809D01*
X103028571Y-107719047D01*
X101980952Y-108052380D02*
X102076190Y-108004761D01*
X102123809Y-107909523D01*
X102123809Y-107052380D01*
X101600000Y-108052380D02*
X101600000Y-107052380D01*
X101600000Y-107433333D02*
X101504761Y-107385714D01*
X101314285Y-107385714D01*
X101219047Y-107433333D01*
X101171428Y-107480952D01*
X101123809Y-107576190D01*
X101123809Y-107861904D01*
X101171428Y-107957142D01*
X101219047Y-108004761D01*
X101314285Y-108052380D01*
X101504761Y-108052380D01*
X101600000Y-108004761D01*
X100695238Y-108052380D02*
X100695238Y-107385714D01*
X100695238Y-107052380D02*
X100742857Y-107100000D01*
X100695238Y-107147619D01*
X100647619Y-107100000D01*
X100695238Y-107052380D01*
X100695238Y-107147619D01*
X100219047Y-107385714D02*
X100219047Y-108052380D01*
X100219047Y-107480952D02*
X100171428Y-107433333D01*
X100076190Y-107385714D01*
X99933333Y-107385714D01*
X99838095Y-107433333D01*
X99790476Y-107528571D01*
X99790476Y-108052380D01*
X98552380Y-107671428D02*
X97790476Y-107671428D01*
X97314285Y-107671428D02*
X96552380Y-107671428D01*
X95361904Y-107147619D02*
X95314285Y-107100000D01*
X95219047Y-107052380D01*
X94980952Y-107052380D01*
X94885714Y-107100000D01*
X94838095Y-107147619D01*
X94790476Y-107242857D01*
X94790476Y-107338095D01*
X94838095Y-107480952D01*
X95409523Y-108052380D01*
X94790476Y-108052380D01*
X94171428Y-107052380D02*
X94076190Y-107052380D01*
X93980952Y-107100000D01*
X93933333Y-107147619D01*
X93885714Y-107242857D01*
X93838095Y-107433333D01*
X93838095Y-107671428D01*
X93885714Y-107861904D01*
X93933333Y-107957142D01*
X93980952Y-108004761D01*
X94076190Y-108052380D01*
X94171428Y-108052380D01*
X94266666Y-108004761D01*
X94314285Y-107957142D01*
X94361904Y-107861904D01*
X94409523Y-107671428D01*
X94409523Y-107433333D01*
X94361904Y-107242857D01*
X94314285Y-107147619D01*
X94266666Y-107100000D01*
X94171428Y-107052380D01*
X93457142Y-107147619D02*
X93409523Y-107100000D01*
X93314285Y-107052380D01*
X93076190Y-107052380D01*
X92980952Y-107100000D01*
X92933333Y-107147619D01*
X92885714Y-107242857D01*
X92885714Y-107338095D01*
X92933333Y-107480952D01*
X93504761Y-108052380D01*
X92885714Y-108052380D01*
X92266666Y-107052380D02*
X92171428Y-107052380D01*
X92076190Y-107100000D01*
X92028571Y-107147619D01*
X91980952Y-107242857D01*
X91933333Y-107433333D01*
X91933333Y-107671428D01*
X91980952Y-107861904D01*
X92028571Y-107957142D01*
X92076190Y-108004761D01*
X92171428Y-108052380D01*
X92266666Y-108052380D01*
X92361904Y-108004761D01*
X92409523Y-107957142D01*
X92457142Y-107861904D01*
X92504761Y-107671428D01*
X92504761Y-107433333D01*
X92457142Y-107242857D01*
X92409523Y-107147619D01*
X92361904Y-107100000D01*
X92266666Y-107052380D01*
D12*
X113030375Y-93065476D02*
X112874125Y-91815476D01*
X112569066Y-92708333D01*
X112040792Y-91815476D01*
X112197042Y-93065476D01*
X111066090Y-93065476D02*
X110984244Y-92410714D01*
X111028887Y-92291666D01*
X111140494Y-92232142D01*
X111378590Y-92232142D01*
X111505078Y-92291666D01*
X111058649Y-93005952D02*
X111185137Y-93065476D01*
X111482756Y-93065476D01*
X111594363Y-93005952D01*
X111639006Y-92886904D01*
X111624125Y-92767857D01*
X111549720Y-92648809D01*
X111423232Y-92589285D01*
X111125613Y-92589285D01*
X110999125Y-92529761D01*
X109830970Y-92232142D02*
X109957459Y-93244047D01*
X110031863Y-93363095D01*
X110098828Y-93422619D01*
X110225316Y-93482142D01*
X110403887Y-93482142D01*
X110515494Y-93422619D01*
X109927697Y-93005952D02*
X110054185Y-93065476D01*
X110292280Y-93065476D01*
X110403887Y-93005952D01*
X110455970Y-92946428D01*
X110500613Y-92827380D01*
X110455970Y-92470238D01*
X110381566Y-92351190D01*
X110314601Y-92291666D01*
X110188113Y-92232142D01*
X109950018Y-92232142D01*
X109838411Y-92291666D01*
X109235732Y-92232142D02*
X109339899Y-93065476D01*
X109250613Y-92351190D02*
X109183649Y-92291666D01*
X109057161Y-92232142D01*
X108878590Y-92232142D01*
X108766982Y-92291666D01*
X108722340Y-92410714D01*
X108804185Y-93065476D01*
X107725316Y-93005952D02*
X107851804Y-93065476D01*
X108089899Y-93065476D01*
X108201506Y-93005952D01*
X108246149Y-92886904D01*
X108186625Y-92410714D01*
X108112220Y-92291666D01*
X107985732Y-92232142D01*
X107747637Y-92232142D01*
X107636030Y-92291666D01*
X107591387Y-92410714D01*
X107606268Y-92529761D01*
X108216387Y-92648809D01*
X107211923Y-92232142D02*
X106735732Y-92232142D01*
X106981268Y-91815476D02*
X107115197Y-92886904D01*
X107070554Y-93005952D01*
X106958947Y-93065476D01*
X106839899Y-93065476D01*
X106423232Y-93065476D02*
X106319066Y-92232142D01*
X106266982Y-91815476D02*
X106333947Y-91875000D01*
X106281863Y-91934523D01*
X106214899Y-91875000D01*
X106266982Y-91815476D01*
X106281863Y-91934523D01*
X105284840Y-93005952D02*
X105411328Y-93065476D01*
X105649423Y-93065476D01*
X105761030Y-93005952D01*
X105813113Y-92946428D01*
X105857756Y-92827380D01*
X105813113Y-92470238D01*
X105738709Y-92351190D01*
X105671744Y-92291666D01*
X105545256Y-92232142D01*
X105307161Y-92232142D01*
X105195554Y-92291666D01*
X103089899Y-93065476D02*
X103432161Y-92470238D01*
X103804185Y-93065476D02*
X103647935Y-91815476D01*
X103171744Y-91815476D01*
X103060137Y-91875000D01*
X103008054Y-91934523D01*
X102963411Y-92053571D01*
X102985732Y-92232142D01*
X103060137Y-92351190D01*
X103127101Y-92410714D01*
X103253590Y-92470238D01*
X103729780Y-92470238D01*
X102554185Y-93065476D02*
X102397935Y-91815476D01*
X101921744Y-91815476D01*
X101810137Y-91875000D01*
X101758054Y-91934523D01*
X101713411Y-92053571D01*
X101735732Y-92232142D01*
X101810137Y-92351190D01*
X101877101Y-92410714D01*
X102003590Y-92470238D01*
X102479780Y-92470238D01*
X101304185Y-93065476D02*
X101147935Y-91815476D01*
X100842875Y-92708333D01*
X100314601Y-91815476D01*
X100470851Y-93065476D01*
X98975316Y-93005952D02*
X98804185Y-93065476D01*
X98506566Y-93065476D01*
X98380078Y-93005952D01*
X98313113Y-92946428D01*
X98238709Y-92827380D01*
X98223828Y-92708333D01*
X98268470Y-92589285D01*
X98320554Y-92529761D01*
X98432161Y-92470238D01*
X98662816Y-92410714D01*
X98774423Y-92351190D01*
X98826506Y-92291666D01*
X98871149Y-92172619D01*
X98856268Y-92053571D01*
X98781863Y-91934523D01*
X98714899Y-91875000D01*
X98588411Y-91815476D01*
X98290792Y-91815476D01*
X98119661Y-91875000D01*
X97249125Y-93005952D02*
X97375613Y-93065476D01*
X97613709Y-93065476D01*
X97725316Y-93005952D01*
X97769959Y-92886904D01*
X97710435Y-92410714D01*
X97636030Y-92291666D01*
X97509542Y-92232142D01*
X97271447Y-92232142D01*
X97159840Y-92291666D01*
X97115197Y-92410714D01*
X97130078Y-92529761D01*
X97740197Y-92648809D01*
X96557161Y-92232142D02*
X96661328Y-93065476D01*
X96572042Y-92351190D02*
X96505078Y-92291666D01*
X96378590Y-92232142D01*
X96200018Y-92232142D01*
X96088411Y-92291666D01*
X96043768Y-92410714D01*
X96125613Y-93065476D01*
X95582459Y-93005952D02*
X95470851Y-93065476D01*
X95232756Y-93065476D01*
X95106268Y-93005952D01*
X95031863Y-92886904D01*
X95024423Y-92827380D01*
X95069066Y-92708333D01*
X95180673Y-92648809D01*
X95359244Y-92648809D01*
X95470851Y-92589285D01*
X95515494Y-92470238D01*
X95508054Y-92410714D01*
X95433649Y-92291666D01*
X95307161Y-92232142D01*
X95128590Y-92232142D01*
X95016982Y-92291666D01*
X94339899Y-93065476D02*
X94451506Y-93005952D01*
X94503590Y-92946428D01*
X94548232Y-92827380D01*
X94503590Y-92470238D01*
X94429185Y-92351190D01*
X94362220Y-92291666D01*
X94235732Y-92232142D01*
X94057161Y-92232142D01*
X93945554Y-92291666D01*
X93893470Y-92351190D01*
X93848828Y-92470238D01*
X93893470Y-92827380D01*
X93967875Y-92946428D01*
X94034840Y-93005952D01*
X94161328Y-93065476D01*
X94339899Y-93065476D01*
X93387518Y-93065476D02*
X93283351Y-92232142D01*
X93313113Y-92470238D02*
X93238709Y-92351190D01*
X93171744Y-92291666D01*
X93045256Y-92232142D01*
X92926209Y-92232142D01*
X91162816Y-92410714D02*
X90991685Y-92470238D01*
X90939601Y-92529761D01*
X90894959Y-92648809D01*
X90917280Y-92827380D01*
X90991685Y-92946428D01*
X91058649Y-93005952D01*
X91185137Y-93065476D01*
X91661328Y-93065476D01*
X91505078Y-91815476D01*
X91088411Y-91815476D01*
X90976804Y-91875000D01*
X90924720Y-91934523D01*
X90880078Y-92053571D01*
X90894959Y-92172619D01*
X90969363Y-92291666D01*
X91036328Y-92351190D01*
X91162816Y-92410714D01*
X91579482Y-92410714D01*
X90232756Y-93065476D02*
X90344363Y-93005952D01*
X90396447Y-92946428D01*
X90441090Y-92827380D01*
X90396447Y-92470238D01*
X90322042Y-92351190D01*
X90255078Y-92291666D01*
X90128590Y-92232142D01*
X89950018Y-92232142D01*
X89838411Y-92291666D01*
X89786328Y-92351190D01*
X89741685Y-92470238D01*
X89786328Y-92827380D01*
X89860732Y-92946428D01*
X89927697Y-93005952D01*
X90054185Y-93065476D01*
X90232756Y-93065476D01*
X88744661Y-93065476D02*
X88662816Y-92410714D01*
X88707459Y-92291666D01*
X88819066Y-92232142D01*
X89057161Y-92232142D01*
X89183649Y-92291666D01*
X88737220Y-93005952D02*
X88863709Y-93065476D01*
X89161328Y-93065476D01*
X89272935Y-93005952D01*
X89317578Y-92886904D01*
X89302697Y-92767857D01*
X89228292Y-92648809D01*
X89101804Y-92589285D01*
X88804185Y-92589285D01*
X88677697Y-92529761D01*
X88149423Y-93065476D02*
X88045256Y-92232142D01*
X88075018Y-92470238D02*
X88000613Y-92351190D01*
X87933649Y-92291666D01*
X87807161Y-92232142D01*
X87688113Y-92232142D01*
X86839899Y-93065476D02*
X86683649Y-91815476D01*
X86832459Y-93005952D02*
X86958947Y-93065476D01*
X87197042Y-93065476D01*
X87308649Y-93005952D01*
X87360732Y-92946428D01*
X87405375Y-92827380D01*
X87360732Y-92470238D01*
X87286328Y-92351190D01*
X87219363Y-92291666D01*
X87092875Y-92232142D01*
X86854780Y-92232142D01*
X86743173Y-92291666D01*
M02*
