M48
; DRILL file {KiCad (5.1.5)-3} date 2020-02-14 12:09:12 PM
; FORMAT={-:-/ absolute / inch / decimal}
; #@! TF.CreationDate,2020-02-14T12:09:12-03:30
; #@! TF.GenerationSoftware,Kicad,Pcbnew,(5.1.5)-3
; #@! TF.FileFunction,Plated,1,2,PTH
FMAT,2
INCH
T1C0.0118
T2C0.0157
%
G90
G05
T1
X3.9646Y-3.8051
T2
X3.3858Y-3.7913
X3.3858Y-4.0748
X3.4409Y-3.7362
X3.4409Y-4.1299
X3.5079Y-3.5787
X3.5157Y-4.311
X3.563Y-4.3622
X3.563Y-3.5236
X3.9055Y-3.9055
X3.9055Y-3.9685
X3.937Y-3.937
X3.9646Y-3.9055
X3.9646Y-3.9685
X3.9843Y-3.7087
X4.0315Y-3.7087
X4.0335Y-4.0197
X4.0689Y-4.0787
X4.1102Y-4.0787
X4.1339Y-3.4843
X4.1339Y-4.3858
X4.1575Y-3.4409
X4.1575Y-3.8346
X4.1614Y-4.4173
X4.1654Y-4.3504
X4.1732Y-3.5236
X4.1969Y-4.4449
X4.2047Y-3.4173
X4.2126Y-3.7913
X4.2126Y-3.8898
X4.2323Y-4.4134
X4.252Y-3.4567
X4.2638Y-3.8346
T0
M30
