G04 #@! TF.GenerationSoftware,KiCad,Pcbnew,(5.1.5)-3*
G04 #@! TF.CreationDate,2020-02-14T12:09:09-03:30*
G04 #@! TF.ProjectId,RPM Sensor,52504d20-5365-46e7-936f-722e6b696361,rev?*
G04 #@! TF.SameCoordinates,Original*
G04 #@! TF.FileFunction,Soldermask,Top*
G04 #@! TF.FilePolarity,Negative*
%FSLAX46Y46*%
G04 Gerber Fmt 4.6, Leading zero omitted, Abs format (unit mm)*
G04 Created by KiCad (PCBNEW (5.1.5)-3) date 2020-02-14 12:09:09*
%MOMM*%
%LPD*%
G04 APERTURE LIST*
%ADD10C,0.100000*%
G04 APERTURE END LIST*
D10*
G36*
X100375256Y-114266298D02*
G01*
X100481579Y-114287447D01*
X100782042Y-114411903D01*
X101052451Y-114592585D01*
X101282415Y-114822549D01*
X101463097Y-115092958D01*
X101587553Y-115393421D01*
X101651000Y-115712391D01*
X101651000Y-116037609D01*
X101587553Y-116356579D01*
X101463097Y-116657042D01*
X101282415Y-116927451D01*
X101052451Y-117157415D01*
X100782042Y-117338097D01*
X100481579Y-117462553D01*
X100375256Y-117483702D01*
X100162611Y-117526000D01*
X99837389Y-117526000D01*
X99624744Y-117483702D01*
X99518421Y-117462553D01*
X99217958Y-117338097D01*
X98947549Y-117157415D01*
X98717585Y-116927451D01*
X98536903Y-116657042D01*
X98412447Y-116356579D01*
X98349000Y-116037609D01*
X98349000Y-115712391D01*
X98412447Y-115393421D01*
X98536903Y-115092958D01*
X98717585Y-114822549D01*
X98947549Y-114592585D01*
X99217958Y-114411903D01*
X99518421Y-114287447D01*
X99624744Y-114266298D01*
X99837389Y-114224000D01*
X100162611Y-114224000D01*
X100375256Y-114266298D01*
G37*
G36*
X108472125Y-111367767D02*
G01*
X106596877Y-113243015D01*
X104756985Y-111403123D01*
X106632233Y-109527875D01*
X108472125Y-111367767D01*
G37*
G36*
X90806564Y-108489389D02*
G01*
X90997833Y-108568615D01*
X90997835Y-108568616D01*
X91169973Y-108683635D01*
X91316365Y-108830027D01*
X91431385Y-109002167D01*
X91510611Y-109193436D01*
X91551000Y-109396484D01*
X91551000Y-109603516D01*
X91510611Y-109806564D01*
X91492205Y-109851000D01*
X91431384Y-109997835D01*
X91316365Y-110169973D01*
X91169973Y-110316365D01*
X90997835Y-110431384D01*
X90997834Y-110431385D01*
X90997833Y-110431385D01*
X90806564Y-110510611D01*
X90603516Y-110551000D01*
X90396484Y-110551000D01*
X90193436Y-110510611D01*
X90002167Y-110431385D01*
X90002166Y-110431385D01*
X90002165Y-110431384D01*
X89830027Y-110316365D01*
X89683635Y-110169973D01*
X89568616Y-109997835D01*
X89507795Y-109851000D01*
X89489389Y-109806564D01*
X89449000Y-109603516D01*
X89449000Y-109396484D01*
X89489389Y-109193436D01*
X89568615Y-109002167D01*
X89683635Y-108830027D01*
X89830027Y-108683635D01*
X90002165Y-108568616D01*
X90002167Y-108568615D01*
X90193436Y-108489389D01*
X90396484Y-108449000D01*
X90603516Y-108449000D01*
X90806564Y-108489389D01*
G37*
G36*
X100306564Y-107789389D02*
G01*
X100497833Y-107868615D01*
X100497835Y-107868616D01*
X100669973Y-107983635D01*
X100816365Y-108130027D01*
X100931385Y-108302167D01*
X101010611Y-108493436D01*
X101051000Y-108696484D01*
X101051000Y-108903516D01*
X101010611Y-109106564D01*
X100931385Y-109297833D01*
X100931384Y-109297835D01*
X100816365Y-109469973D01*
X100669973Y-109616365D01*
X100497835Y-109731384D01*
X100497834Y-109731385D01*
X100497833Y-109731385D01*
X100306564Y-109810611D01*
X100103516Y-109851000D01*
X99896484Y-109851000D01*
X99693436Y-109810611D01*
X99502167Y-109731385D01*
X99502166Y-109731385D01*
X99502165Y-109731384D01*
X99330027Y-109616365D01*
X99183635Y-109469973D01*
X99068616Y-109297835D01*
X99068615Y-109297833D01*
X98989389Y-109106564D01*
X98949000Y-108903516D01*
X98949000Y-108696484D01*
X98989389Y-108493436D01*
X99068615Y-108302167D01*
X99183635Y-108130027D01*
X99330027Y-107983635D01*
X99502165Y-107868616D01*
X99502167Y-107868615D01*
X99693436Y-107789389D01*
X99896484Y-107749000D01*
X100103516Y-107749000D01*
X100306564Y-107789389D01*
G37*
G36*
X112043015Y-107796877D02*
G01*
X110167767Y-109672125D01*
X108327875Y-107832233D01*
X110203123Y-105956985D01*
X112043015Y-107796877D01*
G37*
G36*
X94706564Y-106489389D02*
G01*
X94897833Y-106568615D01*
X94897835Y-106568616D01*
X95069973Y-106683635D01*
X95216365Y-106830027D01*
X95297197Y-106951000D01*
X95331385Y-107002167D01*
X95410611Y-107193436D01*
X95451000Y-107396484D01*
X95451000Y-107603516D01*
X95410611Y-107806564D01*
X95384908Y-107868616D01*
X95331384Y-107997835D01*
X95216365Y-108169973D01*
X95069973Y-108316365D01*
X94897835Y-108431384D01*
X94897834Y-108431385D01*
X94897833Y-108431385D01*
X94706564Y-108510611D01*
X94503516Y-108551000D01*
X94296484Y-108551000D01*
X94093436Y-108510611D01*
X93902167Y-108431385D01*
X93902166Y-108431385D01*
X93902165Y-108431384D01*
X93730027Y-108316365D01*
X93583635Y-108169973D01*
X93468616Y-107997835D01*
X93415092Y-107868616D01*
X93389389Y-107806564D01*
X93349000Y-107603516D01*
X93349000Y-107396484D01*
X93389389Y-107193436D01*
X93468615Y-107002167D01*
X93502804Y-106951000D01*
X93583635Y-106830027D01*
X93730027Y-106683635D01*
X93902165Y-106568616D01*
X93902167Y-106568615D01*
X94093436Y-106489389D01*
X94296484Y-106449000D01*
X94503516Y-106449000D01*
X94706564Y-106489389D01*
G37*
G36*
X105106564Y-104989389D02*
G01*
X105297833Y-105068615D01*
X105297835Y-105068616D01*
X105469973Y-105183635D01*
X105616365Y-105330027D01*
X105731385Y-105502167D01*
X105810611Y-105693436D01*
X105851000Y-105896484D01*
X105851000Y-106103516D01*
X105810611Y-106306564D01*
X105734882Y-106489390D01*
X105731384Y-106497835D01*
X105616365Y-106669973D01*
X105469973Y-106816365D01*
X105297835Y-106931384D01*
X105297834Y-106931385D01*
X105297833Y-106931385D01*
X105106564Y-107010611D01*
X104903516Y-107051000D01*
X104696484Y-107051000D01*
X104493436Y-107010611D01*
X104302167Y-106931385D01*
X104302166Y-106931385D01*
X104302165Y-106931384D01*
X104130027Y-106816365D01*
X103983635Y-106669973D01*
X103868616Y-106497835D01*
X103865118Y-106489390D01*
X103789389Y-106306564D01*
X103749000Y-106103516D01*
X103749000Y-105896484D01*
X103789389Y-105693436D01*
X103868615Y-105502167D01*
X103983635Y-105330027D01*
X104130027Y-105183635D01*
X104302165Y-105068616D01*
X104302167Y-105068615D01*
X104493436Y-104989389D01*
X104696484Y-104949000D01*
X104903516Y-104949000D01*
X105106564Y-104989389D01*
G37*
G36*
X102006564Y-104989389D02*
G01*
X102197833Y-105068615D01*
X102197835Y-105068616D01*
X102369973Y-105183635D01*
X102516365Y-105330027D01*
X102631385Y-105502167D01*
X102710611Y-105693436D01*
X102751000Y-105896484D01*
X102751000Y-106103516D01*
X102710611Y-106306564D01*
X102634882Y-106489390D01*
X102631384Y-106497835D01*
X102516365Y-106669973D01*
X102369973Y-106816365D01*
X102197835Y-106931384D01*
X102197834Y-106931385D01*
X102197833Y-106931385D01*
X102006564Y-107010611D01*
X101803516Y-107051000D01*
X101596484Y-107051000D01*
X101393436Y-107010611D01*
X101202167Y-106931385D01*
X101202166Y-106931385D01*
X101202165Y-106931384D01*
X101030027Y-106816365D01*
X100883635Y-106669973D01*
X100768616Y-106497835D01*
X100765118Y-106489390D01*
X100689389Y-106306564D01*
X100649000Y-106103516D01*
X100649000Y-105896484D01*
X100689389Y-105693436D01*
X100768615Y-105502167D01*
X100883635Y-105330027D01*
X101030027Y-105183635D01*
X101202165Y-105068616D01*
X101202167Y-105068615D01*
X101393436Y-104989389D01*
X101596484Y-104949000D01*
X101803516Y-104949000D01*
X102006564Y-104989389D01*
G37*
G36*
X98806564Y-104889389D02*
G01*
X98997833Y-104968615D01*
X98997835Y-104968616D01*
X99028924Y-104989389D01*
X99169973Y-105083635D01*
X99316365Y-105230027D01*
X99431385Y-105402167D01*
X99510611Y-105593436D01*
X99551000Y-105796484D01*
X99551000Y-106003516D01*
X99510611Y-106206564D01*
X99469189Y-106306565D01*
X99431384Y-106397835D01*
X99316365Y-106569973D01*
X99169973Y-106716365D01*
X98997835Y-106831384D01*
X98997834Y-106831385D01*
X98997833Y-106831385D01*
X98806564Y-106910611D01*
X98603516Y-106951000D01*
X98396484Y-106951000D01*
X98193436Y-106910611D01*
X98002167Y-106831385D01*
X98002166Y-106831385D01*
X98002165Y-106831384D01*
X97830027Y-106716365D01*
X97683635Y-106569973D01*
X97568616Y-106397835D01*
X97530811Y-106306565D01*
X97489389Y-106206564D01*
X97449000Y-106003516D01*
X97449000Y-105796484D01*
X97489389Y-105593436D01*
X97568615Y-105402167D01*
X97683635Y-105230027D01*
X97830027Y-105083635D01*
X97971076Y-104989389D01*
X98002165Y-104968616D01*
X98002167Y-104968615D01*
X98193436Y-104889389D01*
X98396484Y-104849000D01*
X98603516Y-104849000D01*
X98806564Y-104889389D01*
G37*
G36*
X92706564Y-104089389D02*
G01*
X92897833Y-104168615D01*
X92897835Y-104168616D01*
X93069973Y-104283635D01*
X93216365Y-104430027D01*
X93297197Y-104551000D01*
X93331385Y-104602167D01*
X93410611Y-104793436D01*
X93451000Y-104996484D01*
X93451000Y-105203516D01*
X93410611Y-105406564D01*
X93371011Y-105502167D01*
X93331384Y-105597835D01*
X93216365Y-105769973D01*
X93069973Y-105916365D01*
X92897835Y-106031384D01*
X92897834Y-106031385D01*
X92897833Y-106031385D01*
X92706564Y-106110611D01*
X92503516Y-106151000D01*
X92296484Y-106151000D01*
X92093436Y-106110611D01*
X91902167Y-106031385D01*
X91902166Y-106031385D01*
X91902165Y-106031384D01*
X91730027Y-105916365D01*
X91583635Y-105769973D01*
X91468616Y-105597835D01*
X91428989Y-105502167D01*
X91389389Y-105406564D01*
X91349000Y-105203516D01*
X91349000Y-104996484D01*
X91389389Y-104793436D01*
X91468615Y-104602167D01*
X91502804Y-104551000D01*
X91583635Y-104430027D01*
X91730027Y-104283635D01*
X91902165Y-104168616D01*
X91902167Y-104168615D01*
X92093436Y-104089389D01*
X92296484Y-104049000D01*
X92503516Y-104049000D01*
X92706564Y-104089389D01*
G37*
G36*
X87706564Y-102489389D02*
G01*
X87897833Y-102568615D01*
X87897835Y-102568616D01*
X88069973Y-102683635D01*
X88216365Y-102830027D01*
X88297197Y-102951000D01*
X88331385Y-103002167D01*
X88410611Y-103193436D01*
X88451000Y-103396484D01*
X88451000Y-103603516D01*
X88410611Y-103806564D01*
X88331385Y-103997833D01*
X88331384Y-103997835D01*
X88216365Y-104169973D01*
X88069973Y-104316365D01*
X87897835Y-104431384D01*
X87897834Y-104431385D01*
X87897833Y-104431385D01*
X87706564Y-104510611D01*
X87503516Y-104551000D01*
X87296484Y-104551000D01*
X87093436Y-104510611D01*
X86902167Y-104431385D01*
X86902166Y-104431385D01*
X86902165Y-104431384D01*
X86730027Y-104316365D01*
X86583635Y-104169973D01*
X86468616Y-103997835D01*
X86468615Y-103997833D01*
X86389389Y-103806564D01*
X86349000Y-103603516D01*
X86349000Y-103396484D01*
X86389389Y-103193436D01*
X86468615Y-103002167D01*
X86502804Y-102951000D01*
X86583635Y-102830027D01*
X86730027Y-102683635D01*
X86902165Y-102568616D01*
X86902167Y-102568615D01*
X87093436Y-102489389D01*
X87296484Y-102449000D01*
X87503516Y-102449000D01*
X87706564Y-102489389D01*
G37*
G36*
X104576000Y-103651000D02*
G01*
X103224000Y-103651000D01*
X103224000Y-102549000D01*
X104576000Y-102549000D01*
X104576000Y-103651000D01*
G37*
G36*
X107306564Y-101389389D02*
G01*
X107497833Y-101468615D01*
X107497835Y-101468616D01*
X107669973Y-101583635D01*
X107816365Y-101730027D01*
X107860772Y-101796486D01*
X107931385Y-101902167D01*
X108010611Y-102093436D01*
X108051000Y-102296484D01*
X108051000Y-102503516D01*
X108010611Y-102706564D01*
X107931385Y-102897833D01*
X107931384Y-102897835D01*
X107816365Y-103069973D01*
X107669973Y-103216365D01*
X107497835Y-103331384D01*
X107497834Y-103331385D01*
X107497833Y-103331385D01*
X107306564Y-103410611D01*
X107103516Y-103451000D01*
X106896484Y-103451000D01*
X106693436Y-103410611D01*
X106502167Y-103331385D01*
X106502166Y-103331385D01*
X106502165Y-103331384D01*
X106330027Y-103216365D01*
X106183635Y-103069973D01*
X106068616Y-102897835D01*
X106068615Y-102897833D01*
X105989389Y-102706564D01*
X105949000Y-102503516D01*
X105949000Y-102296484D01*
X105989389Y-102093436D01*
X106068615Y-101902167D01*
X106139229Y-101796486D01*
X106183635Y-101730027D01*
X106330027Y-101583635D01*
X106502165Y-101468616D01*
X106502167Y-101468615D01*
X106693436Y-101389389D01*
X106896484Y-101349000D01*
X107103516Y-101349000D01*
X107306564Y-101389389D01*
G37*
G36*
X91706564Y-100889389D02*
G01*
X91897833Y-100968615D01*
X91897835Y-100968616D01*
X92069973Y-101083635D01*
X92216365Y-101230027D01*
X92331385Y-101402167D01*
X92410611Y-101593436D01*
X92451000Y-101796484D01*
X92451000Y-102003516D01*
X92410611Y-102206564D01*
X92373365Y-102296484D01*
X92331384Y-102397835D01*
X92216365Y-102569973D01*
X92069973Y-102716365D01*
X91897835Y-102831384D01*
X91897834Y-102831385D01*
X91897833Y-102831385D01*
X91706564Y-102910611D01*
X91503516Y-102951000D01*
X91296484Y-102951000D01*
X91093436Y-102910611D01*
X90902167Y-102831385D01*
X90902166Y-102831385D01*
X90902165Y-102831384D01*
X90730027Y-102716365D01*
X90583635Y-102569973D01*
X90468616Y-102397835D01*
X90426635Y-102296484D01*
X90389389Y-102206564D01*
X90349000Y-102003516D01*
X90349000Y-101796484D01*
X90389389Y-101593436D01*
X90468615Y-101402167D01*
X90583635Y-101230027D01*
X90730027Y-101083635D01*
X90902165Y-100968616D01*
X90902167Y-100968615D01*
X91093436Y-100889389D01*
X91296484Y-100849000D01*
X91503516Y-100849000D01*
X91706564Y-100889389D01*
G37*
G36*
X101826000Y-98049001D02*
G01*
X101828402Y-98073387D01*
X101835515Y-98096836D01*
X101847066Y-98118447D01*
X101862611Y-98137389D01*
X101881553Y-98152934D01*
X101903164Y-98164485D01*
X101926613Y-98171598D01*
X101950999Y-98174000D01*
X102751000Y-98174000D01*
X102751000Y-101826000D01*
X101950999Y-101826000D01*
X101926613Y-101828402D01*
X101903164Y-101835515D01*
X101881553Y-101847066D01*
X101862611Y-101862611D01*
X101847066Y-101881553D01*
X101835515Y-101903164D01*
X101828402Y-101926613D01*
X101826000Y-101950999D01*
X101826000Y-102751000D01*
X98174000Y-102751000D01*
X98174000Y-101950999D01*
X98171598Y-101926613D01*
X98164485Y-101903164D01*
X98152934Y-101881553D01*
X98137389Y-101862611D01*
X98118447Y-101847066D01*
X98096836Y-101835515D01*
X98073387Y-101828402D01*
X98049001Y-101826000D01*
X97249000Y-101826000D01*
X97249000Y-98174000D01*
X98049001Y-98174000D01*
X98073387Y-98171598D01*
X98096836Y-98164485D01*
X98118447Y-98152934D01*
X98137389Y-98137389D01*
X98152934Y-98118447D01*
X98164485Y-98096836D01*
X98171598Y-98073387D01*
X98174000Y-98049001D01*
X98174000Y-97249000D01*
X101826000Y-97249000D01*
X101826000Y-98049001D01*
G37*
G36*
X104576000Y-101651000D02*
G01*
X103224000Y-101651000D01*
X103224000Y-100549000D01*
X104576000Y-100549000D01*
X104576000Y-101651000D01*
G37*
G36*
X91706564Y-96789389D02*
G01*
X91897833Y-96868615D01*
X91897835Y-96868616D01*
X92069973Y-96983635D01*
X92216365Y-97130027D01*
X92325551Y-97293435D01*
X92331385Y-97302167D01*
X92410611Y-97493436D01*
X92451000Y-97696484D01*
X92451000Y-97903516D01*
X92410611Y-98106564D01*
X92386619Y-98164485D01*
X92331384Y-98297835D01*
X92216365Y-98469973D01*
X92069973Y-98616365D01*
X91897835Y-98731384D01*
X91897834Y-98731385D01*
X91897833Y-98731385D01*
X91706564Y-98810611D01*
X91503516Y-98851000D01*
X91296484Y-98851000D01*
X91093436Y-98810611D01*
X90902167Y-98731385D01*
X90902166Y-98731385D01*
X90902165Y-98731384D01*
X90730027Y-98616365D01*
X90583635Y-98469973D01*
X90468616Y-98297835D01*
X90413381Y-98164485D01*
X90389389Y-98106564D01*
X90349000Y-97903516D01*
X90349000Y-97696484D01*
X90389389Y-97493436D01*
X90468615Y-97302167D01*
X90474450Y-97293435D01*
X90583635Y-97130027D01*
X90730027Y-96983635D01*
X90902165Y-96868616D01*
X90902167Y-96868615D01*
X91093436Y-96789389D01*
X91296484Y-96749000D01*
X91503516Y-96749000D01*
X91706564Y-96789389D01*
G37*
G36*
X107306564Y-96589389D02*
G01*
X107497833Y-96668615D01*
X107497835Y-96668616D01*
X107618138Y-96749000D01*
X107669973Y-96783635D01*
X107816365Y-96930027D01*
X107931385Y-97102167D01*
X108010611Y-97293436D01*
X108051000Y-97496484D01*
X108051000Y-97703516D01*
X108010611Y-97906564D01*
X107951612Y-98049001D01*
X107931384Y-98097835D01*
X107816365Y-98269973D01*
X107669973Y-98416365D01*
X107497835Y-98531384D01*
X107497834Y-98531385D01*
X107497833Y-98531385D01*
X107306564Y-98610611D01*
X107103516Y-98651000D01*
X106896484Y-98651000D01*
X106693436Y-98610611D01*
X106502167Y-98531385D01*
X106502166Y-98531385D01*
X106502165Y-98531384D01*
X106330027Y-98416365D01*
X106183635Y-98269973D01*
X106068616Y-98097835D01*
X106048388Y-98049001D01*
X105989389Y-97906564D01*
X105949000Y-97703516D01*
X105949000Y-97496484D01*
X105989389Y-97293436D01*
X106068615Y-97102167D01*
X106183635Y-96930027D01*
X106330027Y-96783635D01*
X106381862Y-96749000D01*
X106502165Y-96668616D01*
X106502167Y-96668615D01*
X106693436Y-96589389D01*
X106896484Y-96549000D01*
X107103516Y-96549000D01*
X107306564Y-96589389D01*
G37*
G36*
X87706564Y-95289389D02*
G01*
X87897833Y-95368615D01*
X87897835Y-95368616D01*
X88069973Y-95483635D01*
X88216365Y-95630027D01*
X88297197Y-95751000D01*
X88331385Y-95802167D01*
X88410611Y-95993436D01*
X88451000Y-96196484D01*
X88451000Y-96403516D01*
X88410611Y-96606564D01*
X88334882Y-96789390D01*
X88331384Y-96797835D01*
X88216365Y-96969973D01*
X88069973Y-97116365D01*
X87897835Y-97231384D01*
X87897834Y-97231385D01*
X87897833Y-97231385D01*
X87706564Y-97310611D01*
X87503516Y-97351000D01*
X87296484Y-97351000D01*
X87093436Y-97310611D01*
X86902167Y-97231385D01*
X86902166Y-97231385D01*
X86902165Y-97231384D01*
X86730027Y-97116365D01*
X86583635Y-96969973D01*
X86468616Y-96797835D01*
X86465118Y-96789390D01*
X86389389Y-96606564D01*
X86349000Y-96403516D01*
X86349000Y-96196484D01*
X86389389Y-95993436D01*
X86468615Y-95802167D01*
X86502804Y-95751000D01*
X86583635Y-95630027D01*
X86730027Y-95483635D01*
X86902165Y-95368616D01*
X86902167Y-95368615D01*
X87093436Y-95289389D01*
X87296484Y-95249000D01*
X87503516Y-95249000D01*
X87706564Y-95289389D01*
G37*
G36*
X102476000Y-96751000D02*
G01*
X101124000Y-96751000D01*
X101124000Y-95649000D01*
X102476000Y-95649000D01*
X102476000Y-96751000D01*
G37*
G36*
X92706564Y-93689389D02*
G01*
X92897833Y-93768615D01*
X92897835Y-93768616D01*
X93069973Y-93883635D01*
X93216365Y-94030027D01*
X93331385Y-94202167D01*
X93410611Y-94393436D01*
X93451000Y-94596484D01*
X93451000Y-94803516D01*
X93410611Y-95006564D01*
X93331385Y-95197833D01*
X93331384Y-95197835D01*
X93216365Y-95369973D01*
X93069973Y-95516365D01*
X92897835Y-95631384D01*
X92897834Y-95631385D01*
X92897833Y-95631385D01*
X92706564Y-95710611D01*
X92503516Y-95751000D01*
X92296484Y-95751000D01*
X92093436Y-95710611D01*
X91902167Y-95631385D01*
X91902166Y-95631385D01*
X91902165Y-95631384D01*
X91730027Y-95516365D01*
X91583635Y-95369973D01*
X91468616Y-95197835D01*
X91468615Y-95197833D01*
X91389389Y-95006564D01*
X91349000Y-94803516D01*
X91349000Y-94596484D01*
X91389389Y-94393436D01*
X91468615Y-94202167D01*
X91583635Y-94030027D01*
X91730027Y-93883635D01*
X91902165Y-93768616D01*
X91902167Y-93768615D01*
X92093436Y-93689389D01*
X92296484Y-93649000D01*
X92503516Y-93649000D01*
X92706564Y-93689389D01*
G37*
G36*
X102476000Y-94751000D02*
G01*
X101124000Y-94751000D01*
X101124000Y-93649000D01*
X102476000Y-93649000D01*
X102476000Y-94751000D01*
G37*
G36*
X112243015Y-92103123D02*
G01*
X110403123Y-93943015D01*
X108527875Y-92067767D01*
X110367767Y-90227875D01*
X112243015Y-92103123D01*
G37*
G36*
X94506564Y-91089389D02*
G01*
X94697833Y-91168615D01*
X94697835Y-91168616D01*
X94869973Y-91283635D01*
X95016365Y-91430027D01*
X95131385Y-91602167D01*
X95210611Y-91793436D01*
X95251000Y-91996484D01*
X95251000Y-92203516D01*
X95210611Y-92406564D01*
X95131385Y-92597833D01*
X95131384Y-92597835D01*
X95016365Y-92769973D01*
X94869973Y-92916365D01*
X94697835Y-93031384D01*
X94697834Y-93031385D01*
X94697833Y-93031385D01*
X94506564Y-93110611D01*
X94303516Y-93151000D01*
X94096484Y-93151000D01*
X93893436Y-93110611D01*
X93702167Y-93031385D01*
X93702166Y-93031385D01*
X93702165Y-93031384D01*
X93530027Y-92916365D01*
X93383635Y-92769973D01*
X93268616Y-92597835D01*
X93268615Y-92597833D01*
X93189389Y-92406564D01*
X93149000Y-92203516D01*
X93149000Y-91996484D01*
X93189389Y-91793436D01*
X93268615Y-91602167D01*
X93383635Y-91430027D01*
X93530027Y-91283635D01*
X93702165Y-91168616D01*
X93702167Y-91168615D01*
X93893436Y-91089389D01*
X94096484Y-91049000D01*
X94303516Y-91049000D01*
X94506564Y-91089389D01*
G37*
G36*
X90806564Y-89889389D02*
G01*
X90997833Y-89968615D01*
X90997835Y-89968616D01*
X91169973Y-90083635D01*
X91316365Y-90230027D01*
X91431385Y-90402167D01*
X91510611Y-90593436D01*
X91551000Y-90796484D01*
X91551000Y-91003516D01*
X91510611Y-91206564D01*
X91478687Y-91283635D01*
X91431384Y-91397835D01*
X91316365Y-91569973D01*
X91169973Y-91716365D01*
X90997835Y-91831384D01*
X90997834Y-91831385D01*
X90997833Y-91831385D01*
X90806564Y-91910611D01*
X90603516Y-91951000D01*
X90396484Y-91951000D01*
X90193436Y-91910611D01*
X90002167Y-91831385D01*
X90002166Y-91831385D01*
X90002165Y-91831384D01*
X89830027Y-91716365D01*
X89683635Y-91569973D01*
X89568616Y-91397835D01*
X89521313Y-91283635D01*
X89489389Y-91206564D01*
X89449000Y-91003516D01*
X89449000Y-90796484D01*
X89489389Y-90593436D01*
X89568615Y-90402167D01*
X89683635Y-90230027D01*
X89830027Y-90083635D01*
X90002165Y-89968616D01*
X90002167Y-89968615D01*
X90193436Y-89889389D01*
X90396484Y-89849000D01*
X90603516Y-89849000D01*
X90806564Y-89889389D01*
G37*
G36*
X108672125Y-88532233D02*
G01*
X106832233Y-90372125D01*
X104956985Y-88496877D01*
X106796877Y-86656985D01*
X108672125Y-88532233D01*
G37*
G36*
X100375256Y-82516298D02*
G01*
X100481579Y-82537447D01*
X100782042Y-82661903D01*
X101052451Y-82842585D01*
X101282415Y-83072549D01*
X101463097Y-83342958D01*
X101587553Y-83643421D01*
X101651000Y-83962391D01*
X101651000Y-84287609D01*
X101587553Y-84606579D01*
X101463097Y-84907042D01*
X101282415Y-85177451D01*
X101052451Y-85407415D01*
X100782042Y-85588097D01*
X100481579Y-85712553D01*
X100375256Y-85733702D01*
X100162611Y-85776000D01*
X99837389Y-85776000D01*
X99624744Y-85733702D01*
X99518421Y-85712553D01*
X99217958Y-85588097D01*
X98947549Y-85407415D01*
X98717585Y-85177451D01*
X98536903Y-84907042D01*
X98412447Y-84606579D01*
X98349000Y-84287609D01*
X98349000Y-83962391D01*
X98412447Y-83643421D01*
X98536903Y-83342958D01*
X98717585Y-83072549D01*
X98947549Y-82842585D01*
X99217958Y-82661903D01*
X99518421Y-82537447D01*
X99624744Y-82516298D01*
X99837389Y-82474000D01*
X100162611Y-82474000D01*
X100375256Y-82516298D01*
G37*
M02*
