G04 #@! TF.GenerationSoftware,KiCad,Pcbnew,(5.1.5)-3*
G04 #@! TF.CreationDate,2020-01-25T00:11:38-03:30*
G04 #@! TF.ProjectId,Power Sense PCB,506f7765-7220-4536-956e-736520504342,rev?*
G04 #@! TF.SameCoordinates,Original*
G04 #@! TF.FileFunction,Copper,L2,Bot*
G04 #@! TF.FilePolarity,Positive*
%FSLAX46Y46*%
G04 Gerber Fmt 4.6, Leading zero omitted, Abs format (unit mm)*
G04 Created by KiCad (PCBNEW (5.1.5)-3) date 2020-01-25 00:11:38*
%MOMM*%
%LPD*%
G04 APERTURE LIST*
%ADD10C,6.000000*%
%ADD11C,0.800000*%
%ADD12R,3.500000X3.500000*%
%ADD13C,5.516000*%
%ADD14R,5.516000X5.516000*%
%ADD15C,2.000000*%
%ADD16C,1.600000*%
%ADD17R,1.600000X1.600000*%
%ADD18O,1.700000X1.700000*%
%ADD19R,1.700000X1.700000*%
%ADD20C,0.250000*%
%ADD21C,1.000000*%
%ADD22C,0.500000*%
%ADD23C,0.254000*%
G04 APERTURE END LIST*
D10*
X60500000Y-121000000D03*
D11*
X62750000Y-121000000D03*
X62090990Y-122590990D03*
X60500000Y-123250000D03*
X58909010Y-122590990D03*
X58250000Y-121000000D03*
X58909010Y-119409010D03*
X60500000Y-118750000D03*
X62090990Y-119409010D03*
X125090990Y-44409010D03*
X123500000Y-43750000D03*
X121909010Y-44409010D03*
X121250000Y-46000000D03*
X121909010Y-47590990D03*
X123500000Y-48250000D03*
X125090990Y-47590990D03*
X125750000Y-46000000D03*
D10*
X123500000Y-46000000D03*
D11*
X62090990Y-44409010D03*
X60500000Y-43750000D03*
X58909010Y-44409010D03*
X58250000Y-46000000D03*
X58909010Y-47590990D03*
X60500000Y-48250000D03*
X62090990Y-47590990D03*
X62750000Y-46000000D03*
D10*
X60500000Y-46000000D03*
X123500000Y-121000000D03*
D11*
X125750000Y-121000000D03*
X125090990Y-122590990D03*
X123500000Y-123250000D03*
X121909010Y-122590990D03*
X121250000Y-121000000D03*
X121909010Y-119409010D03*
X123500000Y-118750000D03*
X125090990Y-119409010D03*
D12*
X66500000Y-115200000D03*
X63500000Y-110500000D03*
X69500000Y-110500000D03*
D13*
X62000000Y-56150000D03*
D14*
X62000000Y-63350000D03*
X122000000Y-63350000D03*
D13*
X122000000Y-56150000D03*
D15*
X75500000Y-62250000D03*
X83750000Y-62250000D03*
X75250000Y-82000000D03*
X83750000Y-82000000D03*
X101000000Y-62250000D03*
X101000000Y-82000000D03*
X75500000Y-56000000D03*
X106500000Y-62250000D03*
X75250000Y-94000000D03*
X106500000Y-82000000D03*
X112250000Y-82000000D03*
X112250000Y-106250000D03*
X112250000Y-94000000D03*
X101000000Y-94000000D03*
X83750000Y-94000000D03*
X75500000Y-106000000D03*
X106500000Y-94000000D03*
X101000000Y-106250000D03*
X83750000Y-106000000D03*
X112250000Y-76000000D03*
X112250000Y-88000000D03*
X112250000Y-100000000D03*
X106500000Y-106250000D03*
D16*
X77000000Y-116000000D03*
D17*
X77000000Y-112500000D03*
D18*
X106820000Y-117000000D03*
X104280000Y-117000000D03*
X101740000Y-117000000D03*
X99200000Y-117000000D03*
X96660000Y-117000000D03*
X94120000Y-117000000D03*
X91580000Y-117000000D03*
X89040000Y-117000000D03*
D19*
X86500000Y-117000000D03*
D11*
X87472182Y-109222182D03*
X89027818Y-110777818D03*
X85250004Y-85400000D03*
X85250000Y-90600000D03*
X85250006Y-79000000D03*
X85200000Y-73400000D03*
X85250000Y-97200000D03*
X85199996Y-103000000D03*
X97750000Y-82000000D03*
X96000000Y-80500000D03*
X95000000Y-79500000D03*
X86500000Y-81500000D03*
X86500000Y-84000000D03*
X78250000Y-84500000D03*
X80000000Y-85500000D03*
X95250000Y-60000000D03*
X86500000Y-61250000D03*
X86500000Y-63750000D03*
X97750000Y-62250000D03*
X78500000Y-64250000D03*
X80500000Y-65250000D03*
X86500000Y-105250000D03*
X86500000Y-107750000D03*
X95000000Y-103750000D03*
X98000000Y-94000000D03*
X86500000Y-93250000D03*
X86500000Y-95750000D03*
X95000000Y-91750000D03*
X98000000Y-106250000D03*
X78250000Y-108250000D03*
X80000000Y-109250000D03*
X82500000Y-117250000D03*
X78000000Y-96250000D03*
X79750000Y-97250000D03*
X92000000Y-61400000D03*
X91800000Y-81400000D03*
X91600000Y-93400000D03*
X91600000Y-105400000D03*
X86500000Y-110000000D03*
X87777818Y-112027818D03*
X81500000Y-85400000D03*
X81500000Y-90600000D03*
X83600000Y-103000000D03*
X83599994Y-97200000D03*
X91000000Y-119800021D03*
X104800000Y-73000000D03*
X104750000Y-79200000D03*
X105200000Y-85000000D03*
X105200000Y-91000000D03*
X105000000Y-102800000D03*
X105200000Y-97200000D03*
X103750000Y-85400000D03*
X103750000Y-90800000D03*
X103750000Y-102800000D03*
X103600000Y-97200000D03*
X89000000Y-109250000D03*
X93750000Y-106750000D03*
X93750000Y-94635000D03*
X93885000Y-82635000D03*
X94250000Y-62750000D03*
X102000000Y-102600000D03*
X102000000Y-97200000D03*
X86000000Y-113500000D03*
X82000000Y-103600000D03*
X85701761Y-110992603D03*
X82000000Y-97200000D03*
X84500000Y-111250000D03*
X84500000Y-113500000D03*
D20*
X87472182Y-109222182D02*
X89027818Y-110777818D01*
X85250004Y-85400000D02*
X85250004Y-90599996D01*
X85250004Y-90599996D02*
X85250000Y-90600000D01*
X85250006Y-73450006D02*
X85200000Y-73400000D01*
X85250006Y-79000000D02*
X85250006Y-73450006D01*
X85250000Y-102949996D02*
X85199996Y-103000000D01*
X85250000Y-97200000D02*
X85250000Y-102949996D01*
X86500000Y-110000000D02*
X87777818Y-111277818D01*
X87777818Y-111277818D02*
X87777818Y-112027818D01*
X81500000Y-85400000D02*
X81500000Y-90600000D01*
X83600000Y-103000000D02*
X83600000Y-97200006D01*
X83600000Y-97200006D02*
X83599994Y-97200000D01*
X91000000Y-119800021D02*
X90050021Y-119800021D01*
X89040000Y-118790000D02*
X89040000Y-117000000D01*
X90050021Y-119800021D02*
X89040000Y-118790000D01*
X104800000Y-73000000D02*
X104750000Y-79200000D01*
X105200000Y-85000000D02*
X105200000Y-91000000D01*
X105000000Y-97400000D02*
X105200000Y-97200000D01*
X105000000Y-102800000D02*
X105000000Y-97400000D01*
X103750000Y-85400000D02*
X103750000Y-90800000D01*
X103750000Y-102800000D02*
X103750000Y-97350000D01*
X103750000Y-97350000D02*
X103600000Y-97200000D01*
D21*
X91250000Y-109250000D02*
X93750000Y-106750000D01*
X89000000Y-109250000D02*
X91250000Y-109250000D01*
X93750000Y-95435000D02*
X93750000Y-106750000D01*
X93750000Y-94635000D02*
X93750000Y-95435000D01*
X93750000Y-82770000D02*
X93885000Y-82635000D01*
X93750000Y-94635000D02*
X93750000Y-82770000D01*
X93885000Y-63115000D02*
X94250000Y-62750000D01*
X93885000Y-82635000D02*
X93885000Y-63115000D01*
D20*
X102000000Y-102600000D02*
X102000000Y-97200000D01*
X85701761Y-113201761D02*
X86000000Y-113500000D01*
X85701761Y-110992603D02*
X85701761Y-113201761D01*
X82000000Y-103600000D02*
X82000000Y-97200000D01*
X84500000Y-111250000D02*
X84500000Y-113500000D01*
D22*
X113700001Y-95450001D02*
X113249999Y-94999999D01*
X113700001Y-104799999D02*
X113700001Y-95450001D01*
X113249999Y-94999999D02*
X112250000Y-94000000D01*
X112250000Y-106250000D02*
X113700001Y-104799999D01*
X113249999Y-82999999D02*
X112250000Y-82000000D01*
X113700001Y-92549999D02*
X113700001Y-83450001D01*
X113700001Y-83450001D02*
X113249999Y-82999999D01*
X112250000Y-94000000D02*
X113700001Y-92549999D01*
D23*
G36*
X125398126Y-41476714D02*
G01*
X126021572Y-41664943D01*
X126596579Y-41970681D01*
X127101247Y-42382279D01*
X127516362Y-42884067D01*
X127826105Y-43456924D01*
X128018682Y-44079039D01*
X128090000Y-44757584D01*
X128090001Y-121717711D01*
X128023286Y-122398126D01*
X127835057Y-123021570D01*
X127529323Y-123596573D01*
X127117721Y-124101248D01*
X126615933Y-124516362D01*
X126043077Y-124826104D01*
X125420961Y-125018682D01*
X124742417Y-125090000D01*
X59282279Y-125090000D01*
X58601874Y-125023286D01*
X57978430Y-124835057D01*
X57403427Y-124529323D01*
X56898752Y-124117721D01*
X56483638Y-123615933D01*
X56173896Y-123043077D01*
X55981318Y-122420961D01*
X55910000Y-121742417D01*
X55910000Y-120641984D01*
X56865000Y-120641984D01*
X56865000Y-121358016D01*
X57004691Y-122060290D01*
X57278705Y-122721818D01*
X57676511Y-123317177D01*
X58182823Y-123823489D01*
X58778182Y-124221295D01*
X59439710Y-124495309D01*
X60141984Y-124635000D01*
X60858016Y-124635000D01*
X61560290Y-124495309D01*
X62221818Y-124221295D01*
X62817177Y-123823489D01*
X63323489Y-123317177D01*
X63721295Y-122721818D01*
X63995309Y-122060290D01*
X64135000Y-121358016D01*
X64135000Y-120641984D01*
X63995309Y-119939710D01*
X63721295Y-119278182D01*
X63323489Y-118682823D01*
X62817177Y-118176511D01*
X62221818Y-117778705D01*
X61560290Y-117504691D01*
X60858016Y-117365000D01*
X60141984Y-117365000D01*
X59439710Y-117504691D01*
X58778182Y-117778705D01*
X58182823Y-118176511D01*
X57676511Y-118682823D01*
X57278705Y-119278182D01*
X57004691Y-119939710D01*
X56865000Y-120641984D01*
X55910000Y-120641984D01*
X55910000Y-116950000D01*
X64111928Y-116950000D01*
X64124188Y-117074482D01*
X64160498Y-117194180D01*
X64219463Y-117304494D01*
X64298815Y-117401185D01*
X64395506Y-117480537D01*
X64505820Y-117539502D01*
X64625518Y-117575812D01*
X64750000Y-117588072D01*
X66214250Y-117585000D01*
X66373000Y-117426250D01*
X66373000Y-115327000D01*
X66627000Y-115327000D01*
X66627000Y-117426250D01*
X66785750Y-117585000D01*
X68250000Y-117588072D01*
X68374482Y-117575812D01*
X68494180Y-117539502D01*
X68604494Y-117480537D01*
X68701185Y-117401185D01*
X68780537Y-117304494D01*
X68839502Y-117194180D01*
X68875812Y-117074482D01*
X68883866Y-116992702D01*
X76186903Y-116992702D01*
X76258486Y-117236671D01*
X76513996Y-117357571D01*
X76788184Y-117426300D01*
X77070512Y-117440217D01*
X77350130Y-117398787D01*
X77616292Y-117303603D01*
X77741514Y-117236671D01*
X77813097Y-116992702D01*
X77000000Y-116179605D01*
X76186903Y-116992702D01*
X68883866Y-116992702D01*
X68888072Y-116950000D01*
X68886227Y-116070512D01*
X75559783Y-116070512D01*
X75601213Y-116350130D01*
X75696397Y-116616292D01*
X75763329Y-116741514D01*
X76007298Y-116813097D01*
X76820395Y-116000000D01*
X77179605Y-116000000D01*
X77992702Y-116813097D01*
X78236671Y-116741514D01*
X78357571Y-116486004D01*
X78426300Y-116211816D01*
X78429347Y-116150000D01*
X85011928Y-116150000D01*
X85011928Y-117850000D01*
X85024188Y-117974482D01*
X85060498Y-118094180D01*
X85119463Y-118204494D01*
X85198815Y-118301185D01*
X85295506Y-118380537D01*
X85405820Y-118439502D01*
X85525518Y-118475812D01*
X85650000Y-118488072D01*
X87350000Y-118488072D01*
X87474482Y-118475812D01*
X87594180Y-118439502D01*
X87704494Y-118380537D01*
X87801185Y-118301185D01*
X87880537Y-118204494D01*
X87939502Y-118094180D01*
X87961513Y-118021620D01*
X88093368Y-118153475D01*
X88280000Y-118278179D01*
X88280000Y-118752677D01*
X88276324Y-118790000D01*
X88280000Y-118827322D01*
X88280000Y-118827332D01*
X88290997Y-118938985D01*
X88324981Y-119051018D01*
X88334454Y-119082246D01*
X88405026Y-119214276D01*
X88442568Y-119260020D01*
X88499999Y-119330001D01*
X88529002Y-119353803D01*
X89486226Y-120311029D01*
X89510020Y-120340022D01*
X89539013Y-120363816D01*
X89539017Y-120363820D01*
X89588265Y-120404236D01*
X89625745Y-120434995D01*
X89757774Y-120505567D01*
X89901035Y-120549024D01*
X90012688Y-120560021D01*
X90012697Y-120560021D01*
X90050020Y-120563697D01*
X90087343Y-120560021D01*
X90296289Y-120560021D01*
X90340226Y-120603958D01*
X90509744Y-120717226D01*
X90698102Y-120795247D01*
X90898061Y-120835021D01*
X91101939Y-120835021D01*
X91301898Y-120795247D01*
X91490256Y-120717226D01*
X91602863Y-120641984D01*
X119865000Y-120641984D01*
X119865000Y-121358016D01*
X120004691Y-122060290D01*
X120278705Y-122721818D01*
X120676511Y-123317177D01*
X121182823Y-123823489D01*
X121778182Y-124221295D01*
X122439710Y-124495309D01*
X123141984Y-124635000D01*
X123858016Y-124635000D01*
X124560290Y-124495309D01*
X125221818Y-124221295D01*
X125817177Y-123823489D01*
X126323489Y-123317177D01*
X126721295Y-122721818D01*
X126995309Y-122060290D01*
X127135000Y-121358016D01*
X127135000Y-120641984D01*
X126995309Y-119939710D01*
X126721295Y-119278182D01*
X126323489Y-118682823D01*
X125817177Y-118176511D01*
X125221818Y-117778705D01*
X124560290Y-117504691D01*
X123858016Y-117365000D01*
X123141984Y-117365000D01*
X122439710Y-117504691D01*
X121778182Y-117778705D01*
X121182823Y-118176511D01*
X120676511Y-118682823D01*
X120278705Y-119278182D01*
X120004691Y-119939710D01*
X119865000Y-120641984D01*
X91602863Y-120641984D01*
X91659774Y-120603958D01*
X91803937Y-120459795D01*
X91917205Y-120290277D01*
X91995226Y-120101919D01*
X92035000Y-119901960D01*
X92035000Y-119698082D01*
X91995226Y-119498123D01*
X91917205Y-119309765D01*
X91803937Y-119140247D01*
X91659774Y-118996084D01*
X91490256Y-118882816D01*
X91301898Y-118804795D01*
X91101939Y-118765021D01*
X90898061Y-118765021D01*
X90698102Y-118804795D01*
X90509744Y-118882816D01*
X90340226Y-118996084D01*
X90330556Y-119005754D01*
X89800000Y-118475199D01*
X89800000Y-118278178D01*
X89986632Y-118153475D01*
X90193475Y-117946632D01*
X90310000Y-117772240D01*
X90426525Y-117946632D01*
X90633368Y-118153475D01*
X90876589Y-118315990D01*
X91146842Y-118427932D01*
X91433740Y-118485000D01*
X91726260Y-118485000D01*
X92013158Y-118427932D01*
X92283411Y-118315990D01*
X92526632Y-118153475D01*
X92733475Y-117946632D01*
X92850000Y-117772240D01*
X92966525Y-117946632D01*
X93173368Y-118153475D01*
X93416589Y-118315990D01*
X93686842Y-118427932D01*
X93973740Y-118485000D01*
X94266260Y-118485000D01*
X94553158Y-118427932D01*
X94823411Y-118315990D01*
X95066632Y-118153475D01*
X95273475Y-117946632D01*
X95390000Y-117772240D01*
X95506525Y-117946632D01*
X95713368Y-118153475D01*
X95956589Y-118315990D01*
X96226842Y-118427932D01*
X96513740Y-118485000D01*
X96806260Y-118485000D01*
X97093158Y-118427932D01*
X97363411Y-118315990D01*
X97606632Y-118153475D01*
X97813475Y-117946632D01*
X97930000Y-117772240D01*
X98046525Y-117946632D01*
X98253368Y-118153475D01*
X98496589Y-118315990D01*
X98766842Y-118427932D01*
X99053740Y-118485000D01*
X99346260Y-118485000D01*
X99633158Y-118427932D01*
X99903411Y-118315990D01*
X100146632Y-118153475D01*
X100353475Y-117946632D01*
X100470000Y-117772240D01*
X100586525Y-117946632D01*
X100793368Y-118153475D01*
X101036589Y-118315990D01*
X101306842Y-118427932D01*
X101593740Y-118485000D01*
X101886260Y-118485000D01*
X102173158Y-118427932D01*
X102443411Y-118315990D01*
X102686632Y-118153475D01*
X102893475Y-117946632D01*
X103010000Y-117772240D01*
X103126525Y-117946632D01*
X103333368Y-118153475D01*
X103576589Y-118315990D01*
X103846842Y-118427932D01*
X104133740Y-118485000D01*
X104426260Y-118485000D01*
X104713158Y-118427932D01*
X104983411Y-118315990D01*
X105226632Y-118153475D01*
X105433475Y-117946632D01*
X105555195Y-117764466D01*
X105624822Y-117881355D01*
X105819731Y-118097588D01*
X106053080Y-118271641D01*
X106315901Y-118396825D01*
X106463110Y-118441476D01*
X106693000Y-118320155D01*
X106693000Y-117127000D01*
X106947000Y-117127000D01*
X106947000Y-118320155D01*
X107176890Y-118441476D01*
X107324099Y-118396825D01*
X107586920Y-118271641D01*
X107820269Y-118097588D01*
X108015178Y-117881355D01*
X108164157Y-117631252D01*
X108261481Y-117356891D01*
X108140814Y-117127000D01*
X106947000Y-117127000D01*
X106693000Y-117127000D01*
X106673000Y-117127000D01*
X106673000Y-116873000D01*
X106693000Y-116873000D01*
X106693000Y-115679845D01*
X106947000Y-115679845D01*
X106947000Y-116873000D01*
X108140814Y-116873000D01*
X108261481Y-116643109D01*
X108164157Y-116368748D01*
X108015178Y-116118645D01*
X107820269Y-115902412D01*
X107586920Y-115728359D01*
X107324099Y-115603175D01*
X107176890Y-115558524D01*
X106947000Y-115679845D01*
X106693000Y-115679845D01*
X106463110Y-115558524D01*
X106315901Y-115603175D01*
X106053080Y-115728359D01*
X105819731Y-115902412D01*
X105624822Y-116118645D01*
X105555195Y-116235534D01*
X105433475Y-116053368D01*
X105226632Y-115846525D01*
X104983411Y-115684010D01*
X104713158Y-115572068D01*
X104426260Y-115515000D01*
X104133740Y-115515000D01*
X103846842Y-115572068D01*
X103576589Y-115684010D01*
X103333368Y-115846525D01*
X103126525Y-116053368D01*
X103010000Y-116227760D01*
X102893475Y-116053368D01*
X102686632Y-115846525D01*
X102443411Y-115684010D01*
X102173158Y-115572068D01*
X101886260Y-115515000D01*
X101593740Y-115515000D01*
X101306842Y-115572068D01*
X101036589Y-115684010D01*
X100793368Y-115846525D01*
X100586525Y-116053368D01*
X100470000Y-116227760D01*
X100353475Y-116053368D01*
X100146632Y-115846525D01*
X99903411Y-115684010D01*
X99633158Y-115572068D01*
X99346260Y-115515000D01*
X99053740Y-115515000D01*
X98766842Y-115572068D01*
X98496589Y-115684010D01*
X98253368Y-115846525D01*
X98046525Y-116053368D01*
X97930000Y-116227760D01*
X97813475Y-116053368D01*
X97606632Y-115846525D01*
X97363411Y-115684010D01*
X97093158Y-115572068D01*
X96806260Y-115515000D01*
X96513740Y-115515000D01*
X96226842Y-115572068D01*
X95956589Y-115684010D01*
X95713368Y-115846525D01*
X95506525Y-116053368D01*
X95390000Y-116227760D01*
X95273475Y-116053368D01*
X95066632Y-115846525D01*
X94823411Y-115684010D01*
X94553158Y-115572068D01*
X94266260Y-115515000D01*
X93973740Y-115515000D01*
X93686842Y-115572068D01*
X93416589Y-115684010D01*
X93173368Y-115846525D01*
X92966525Y-116053368D01*
X92850000Y-116227760D01*
X92733475Y-116053368D01*
X92526632Y-115846525D01*
X92283411Y-115684010D01*
X92013158Y-115572068D01*
X91726260Y-115515000D01*
X91433740Y-115515000D01*
X91146842Y-115572068D01*
X90876589Y-115684010D01*
X90633368Y-115846525D01*
X90426525Y-116053368D01*
X90310000Y-116227760D01*
X90193475Y-116053368D01*
X89986632Y-115846525D01*
X89743411Y-115684010D01*
X89473158Y-115572068D01*
X89186260Y-115515000D01*
X88893740Y-115515000D01*
X88606842Y-115572068D01*
X88336589Y-115684010D01*
X88093368Y-115846525D01*
X87961513Y-115978380D01*
X87939502Y-115905820D01*
X87880537Y-115795506D01*
X87801185Y-115698815D01*
X87704494Y-115619463D01*
X87594180Y-115560498D01*
X87474482Y-115524188D01*
X87350000Y-115511928D01*
X85650000Y-115511928D01*
X85525518Y-115524188D01*
X85405820Y-115560498D01*
X85295506Y-115619463D01*
X85198815Y-115698815D01*
X85119463Y-115795506D01*
X85060498Y-115905820D01*
X85024188Y-116025518D01*
X85011928Y-116150000D01*
X78429347Y-116150000D01*
X78440217Y-115929488D01*
X78398787Y-115649870D01*
X78303603Y-115383708D01*
X78236671Y-115258486D01*
X77992702Y-115186903D01*
X77179605Y-116000000D01*
X76820395Y-116000000D01*
X76007298Y-115186903D01*
X75763329Y-115258486D01*
X75642429Y-115513996D01*
X75573700Y-115788184D01*
X75559783Y-116070512D01*
X68886227Y-116070512D01*
X68885000Y-115485750D01*
X68726250Y-115327000D01*
X66627000Y-115327000D01*
X66373000Y-115327000D01*
X64273750Y-115327000D01*
X64115000Y-115485750D01*
X64111928Y-116950000D01*
X55910000Y-116950000D01*
X55910000Y-112250000D01*
X61111928Y-112250000D01*
X61124188Y-112374482D01*
X61160498Y-112494180D01*
X61219463Y-112604494D01*
X61298815Y-112701185D01*
X61395506Y-112780537D01*
X61505820Y-112839502D01*
X61625518Y-112875812D01*
X61750000Y-112888072D01*
X63214250Y-112885000D01*
X63373000Y-112726250D01*
X63373000Y-110627000D01*
X63627000Y-110627000D01*
X63627000Y-112726250D01*
X63785750Y-112885000D01*
X64457345Y-112886409D01*
X64395506Y-112919463D01*
X64298815Y-112998815D01*
X64219463Y-113095506D01*
X64160498Y-113205820D01*
X64124188Y-113325518D01*
X64111928Y-113450000D01*
X64115000Y-114914250D01*
X64273750Y-115073000D01*
X66373000Y-115073000D01*
X66373000Y-112973750D01*
X66627000Y-112973750D01*
X66627000Y-115073000D01*
X68726250Y-115073000D01*
X68791952Y-115007298D01*
X76186903Y-115007298D01*
X77000000Y-115820395D01*
X77813097Y-115007298D01*
X77741514Y-114763329D01*
X77486004Y-114642429D01*
X77211816Y-114573700D01*
X76929488Y-114559783D01*
X76649870Y-114601213D01*
X76383708Y-114696397D01*
X76258486Y-114763329D01*
X76186903Y-115007298D01*
X68791952Y-115007298D01*
X68885000Y-114914250D01*
X68888072Y-113450000D01*
X68875812Y-113325518D01*
X68839502Y-113205820D01*
X68780537Y-113095506D01*
X68701185Y-112998815D01*
X68604494Y-112919463D01*
X68545767Y-112888072D01*
X71250000Y-112888072D01*
X71374482Y-112875812D01*
X71494180Y-112839502D01*
X71604494Y-112780537D01*
X71701185Y-112701185D01*
X71780537Y-112604494D01*
X71839502Y-112494180D01*
X71875812Y-112374482D01*
X71888072Y-112250000D01*
X71888072Y-111700000D01*
X75561928Y-111700000D01*
X75561928Y-113300000D01*
X75574188Y-113424482D01*
X75610498Y-113544180D01*
X75669463Y-113654494D01*
X75748815Y-113751185D01*
X75845506Y-113830537D01*
X75955820Y-113889502D01*
X76075518Y-113925812D01*
X76200000Y-113938072D01*
X77800000Y-113938072D01*
X77924482Y-113925812D01*
X78044180Y-113889502D01*
X78154494Y-113830537D01*
X78251185Y-113751185D01*
X78330537Y-113654494D01*
X78389502Y-113544180D01*
X78425812Y-113424482D01*
X78438072Y-113300000D01*
X78438072Y-111700000D01*
X78425812Y-111575518D01*
X78389502Y-111455820D01*
X78330537Y-111345506D01*
X78251185Y-111248815D01*
X78154494Y-111169463D01*
X78114455Y-111148061D01*
X83465000Y-111148061D01*
X83465000Y-111351939D01*
X83504774Y-111551898D01*
X83582795Y-111740256D01*
X83696063Y-111909774D01*
X83740000Y-111953711D01*
X83740001Y-112796288D01*
X83696063Y-112840226D01*
X83582795Y-113009744D01*
X83504774Y-113198102D01*
X83465000Y-113398061D01*
X83465000Y-113601939D01*
X83504774Y-113801898D01*
X83582795Y-113990256D01*
X83696063Y-114159774D01*
X83840226Y-114303937D01*
X84009744Y-114417205D01*
X84198102Y-114495226D01*
X84398061Y-114535000D01*
X84601939Y-114535000D01*
X84801898Y-114495226D01*
X84990256Y-114417205D01*
X85159774Y-114303937D01*
X85250000Y-114213711D01*
X85340226Y-114303937D01*
X85509744Y-114417205D01*
X85698102Y-114495226D01*
X85898061Y-114535000D01*
X86101939Y-114535000D01*
X86301898Y-114495226D01*
X86490256Y-114417205D01*
X86659774Y-114303937D01*
X86803937Y-114159774D01*
X86917205Y-113990256D01*
X86995226Y-113801898D01*
X87035000Y-113601939D01*
X87035000Y-113398061D01*
X86995226Y-113198102D01*
X86917205Y-113009744D01*
X86803937Y-112840226D01*
X86659774Y-112696063D01*
X86490256Y-112582795D01*
X86461761Y-112570992D01*
X86461761Y-111696314D01*
X86505698Y-111652377D01*
X86618966Y-111482859D01*
X86696987Y-111294501D01*
X86700755Y-111275557D01*
X86901527Y-111476329D01*
X86860613Y-111537562D01*
X86782592Y-111725920D01*
X86742818Y-111925879D01*
X86742818Y-112129757D01*
X86782592Y-112329716D01*
X86860613Y-112518074D01*
X86973881Y-112687592D01*
X87118044Y-112831755D01*
X87287562Y-112945023D01*
X87475920Y-113023044D01*
X87675879Y-113062818D01*
X87879757Y-113062818D01*
X88079716Y-113023044D01*
X88268074Y-112945023D01*
X88437592Y-112831755D01*
X88581755Y-112687592D01*
X88695023Y-112518074D01*
X88773044Y-112329716D01*
X88812818Y-112129757D01*
X88812818Y-111925879D01*
X88784745Y-111784745D01*
X88925879Y-111812818D01*
X89129757Y-111812818D01*
X89329716Y-111773044D01*
X89518074Y-111695023D01*
X89687592Y-111581755D01*
X89831755Y-111437592D01*
X89945023Y-111268074D01*
X90023044Y-111079716D01*
X90062818Y-110879757D01*
X90062818Y-110675879D01*
X90023044Y-110475920D01*
X89985383Y-110385000D01*
X91194249Y-110385000D01*
X91250000Y-110390491D01*
X91305751Y-110385000D01*
X91305752Y-110385000D01*
X91472499Y-110368577D01*
X91686447Y-110303676D01*
X91883623Y-110198284D01*
X92056449Y-110056449D01*
X92091996Y-110013135D01*
X94513141Y-107591991D01*
X94556449Y-107556449D01*
X94698284Y-107383623D01*
X94803676Y-107186447D01*
X94868577Y-106972499D01*
X94885000Y-106805752D01*
X94890491Y-106750000D01*
X94885000Y-106694249D01*
X94885000Y-106088967D01*
X99365000Y-106088967D01*
X99365000Y-106411033D01*
X99427832Y-106726912D01*
X99551082Y-107024463D01*
X99730013Y-107292252D01*
X99957748Y-107519987D01*
X100225537Y-107698918D01*
X100523088Y-107822168D01*
X100838967Y-107885000D01*
X101161033Y-107885000D01*
X101476912Y-107822168D01*
X101774463Y-107698918D01*
X102042252Y-107519987D01*
X102176826Y-107385413D01*
X105544192Y-107385413D01*
X105639956Y-107649814D01*
X105929571Y-107790704D01*
X106241108Y-107872384D01*
X106562595Y-107891718D01*
X106881675Y-107847961D01*
X107186088Y-107742795D01*
X107360044Y-107649814D01*
X107455808Y-107385413D01*
X106500000Y-106429605D01*
X105544192Y-107385413D01*
X102176826Y-107385413D01*
X102269987Y-107292252D01*
X102448918Y-107024463D01*
X102572168Y-106726912D01*
X102635000Y-106411033D01*
X102635000Y-106312595D01*
X104858282Y-106312595D01*
X104902039Y-106631675D01*
X105007205Y-106936088D01*
X105100186Y-107110044D01*
X105364587Y-107205808D01*
X106320395Y-106250000D01*
X106679605Y-106250000D01*
X107635413Y-107205808D01*
X107899814Y-107110044D01*
X108040704Y-106820429D01*
X108122384Y-106508892D01*
X108141718Y-106187405D01*
X108097961Y-105868325D01*
X107992795Y-105563912D01*
X107899814Y-105389956D01*
X107635413Y-105294192D01*
X106679605Y-106250000D01*
X106320395Y-106250000D01*
X105364587Y-105294192D01*
X105100186Y-105389956D01*
X104959296Y-105679571D01*
X104877616Y-105991108D01*
X104858282Y-106312595D01*
X102635000Y-106312595D01*
X102635000Y-106088967D01*
X102572168Y-105773088D01*
X102448918Y-105475537D01*
X102269987Y-105207748D01*
X102176826Y-105114587D01*
X105544192Y-105114587D01*
X106500000Y-106070395D01*
X107455808Y-105114587D01*
X107360044Y-104850186D01*
X107070429Y-104709296D01*
X106758892Y-104627616D01*
X106437405Y-104608282D01*
X106118325Y-104652039D01*
X105813912Y-104757205D01*
X105639956Y-104850186D01*
X105544192Y-105114587D01*
X102176826Y-105114587D01*
X102042252Y-104980013D01*
X101774463Y-104801082D01*
X101476912Y-104677832D01*
X101161033Y-104615000D01*
X100838967Y-104615000D01*
X100523088Y-104677832D01*
X100225537Y-104801082D01*
X99957748Y-104980013D01*
X99730013Y-105207748D01*
X99551082Y-105475537D01*
X99427832Y-105773088D01*
X99365000Y-106088967D01*
X94885000Y-106088967D01*
X94885000Y-97098061D01*
X100965000Y-97098061D01*
X100965000Y-97301939D01*
X101004774Y-97501898D01*
X101082795Y-97690256D01*
X101196063Y-97859774D01*
X101240001Y-97903712D01*
X101240000Y-101896289D01*
X101196063Y-101940226D01*
X101082795Y-102109744D01*
X101004774Y-102298102D01*
X100965000Y-102498061D01*
X100965000Y-102701939D01*
X101004774Y-102901898D01*
X101082795Y-103090256D01*
X101196063Y-103259774D01*
X101340226Y-103403937D01*
X101509744Y-103517205D01*
X101698102Y-103595226D01*
X101898061Y-103635000D01*
X102101939Y-103635000D01*
X102301898Y-103595226D01*
X102490256Y-103517205D01*
X102659774Y-103403937D01*
X102803937Y-103259774D01*
X102813957Y-103244778D01*
X102832795Y-103290256D01*
X102946063Y-103459774D01*
X103090226Y-103603937D01*
X103259744Y-103717205D01*
X103448102Y-103795226D01*
X103648061Y-103835000D01*
X103851939Y-103835000D01*
X104051898Y-103795226D01*
X104240256Y-103717205D01*
X104375000Y-103627172D01*
X104509744Y-103717205D01*
X104698102Y-103795226D01*
X104898061Y-103835000D01*
X105101939Y-103835000D01*
X105301898Y-103795226D01*
X105490256Y-103717205D01*
X105659774Y-103603937D01*
X105803937Y-103459774D01*
X105917205Y-103290256D01*
X105995226Y-103101898D01*
X106035000Y-102901939D01*
X106035000Y-102698061D01*
X105995226Y-102498102D01*
X105917205Y-102309744D01*
X105803937Y-102140226D01*
X105760000Y-102096289D01*
X105760000Y-98070604D01*
X105859774Y-98003937D01*
X106003937Y-97859774D01*
X106117205Y-97690256D01*
X106195226Y-97501898D01*
X106235000Y-97301939D01*
X106235000Y-97098061D01*
X106195226Y-96898102D01*
X106117205Y-96709744D01*
X106003937Y-96540226D01*
X105859774Y-96396063D01*
X105690256Y-96282795D01*
X105501898Y-96204774D01*
X105301939Y-96165000D01*
X105098061Y-96165000D01*
X104898102Y-96204774D01*
X104709744Y-96282795D01*
X104540226Y-96396063D01*
X104400000Y-96536289D01*
X104259774Y-96396063D01*
X104090256Y-96282795D01*
X103901898Y-96204774D01*
X103701939Y-96165000D01*
X103498061Y-96165000D01*
X103298102Y-96204774D01*
X103109744Y-96282795D01*
X102940226Y-96396063D01*
X102800000Y-96536289D01*
X102659774Y-96396063D01*
X102490256Y-96282795D01*
X102301898Y-96204774D01*
X102101939Y-96165000D01*
X101898061Y-96165000D01*
X101698102Y-96204774D01*
X101509744Y-96282795D01*
X101340226Y-96396063D01*
X101196063Y-96540226D01*
X101082795Y-96709744D01*
X101004774Y-96898102D01*
X100965000Y-97098061D01*
X94885000Y-97098061D01*
X94885000Y-93838967D01*
X99365000Y-93838967D01*
X99365000Y-94161033D01*
X99427832Y-94476912D01*
X99551082Y-94774463D01*
X99730013Y-95042252D01*
X99957748Y-95269987D01*
X100225537Y-95448918D01*
X100523088Y-95572168D01*
X100838967Y-95635000D01*
X101161033Y-95635000D01*
X101476912Y-95572168D01*
X101774463Y-95448918D01*
X102042252Y-95269987D01*
X102176826Y-95135413D01*
X105544192Y-95135413D01*
X105639956Y-95399814D01*
X105929571Y-95540704D01*
X106241108Y-95622384D01*
X106562595Y-95641718D01*
X106881675Y-95597961D01*
X107186088Y-95492795D01*
X107360044Y-95399814D01*
X107455808Y-95135413D01*
X106500000Y-94179605D01*
X105544192Y-95135413D01*
X102176826Y-95135413D01*
X102269987Y-95042252D01*
X102448918Y-94774463D01*
X102572168Y-94476912D01*
X102635000Y-94161033D01*
X102635000Y-94062595D01*
X104858282Y-94062595D01*
X104902039Y-94381675D01*
X105007205Y-94686088D01*
X105100186Y-94860044D01*
X105364587Y-94955808D01*
X106320395Y-94000000D01*
X106679605Y-94000000D01*
X107635413Y-94955808D01*
X107899814Y-94860044D01*
X108040704Y-94570429D01*
X108122384Y-94258892D01*
X108141718Y-93937405D01*
X108097961Y-93618325D01*
X107992795Y-93313912D01*
X107899814Y-93139956D01*
X107635413Y-93044192D01*
X106679605Y-94000000D01*
X106320395Y-94000000D01*
X105364587Y-93044192D01*
X105100186Y-93139956D01*
X104959296Y-93429571D01*
X104877616Y-93741108D01*
X104858282Y-94062595D01*
X102635000Y-94062595D01*
X102635000Y-93838967D01*
X102572168Y-93523088D01*
X102448918Y-93225537D01*
X102269987Y-92957748D01*
X102176826Y-92864587D01*
X105544192Y-92864587D01*
X106500000Y-93820395D01*
X107455808Y-92864587D01*
X107360044Y-92600186D01*
X107070429Y-92459296D01*
X106758892Y-92377616D01*
X106437405Y-92358282D01*
X106118325Y-92402039D01*
X105813912Y-92507205D01*
X105639956Y-92600186D01*
X105544192Y-92864587D01*
X102176826Y-92864587D01*
X102042252Y-92730013D01*
X101774463Y-92551082D01*
X101476912Y-92427832D01*
X101161033Y-92365000D01*
X100838967Y-92365000D01*
X100523088Y-92427832D01*
X100225537Y-92551082D01*
X99957748Y-92730013D01*
X99730013Y-92957748D01*
X99551082Y-93225537D01*
X99427832Y-93523088D01*
X99365000Y-93838967D01*
X94885000Y-93838967D01*
X94885000Y-85298061D01*
X102715000Y-85298061D01*
X102715000Y-85501939D01*
X102754774Y-85701898D01*
X102832795Y-85890256D01*
X102946063Y-86059774D01*
X102990000Y-86103711D01*
X102990001Y-90096288D01*
X102946063Y-90140226D01*
X102832795Y-90309744D01*
X102754774Y-90498102D01*
X102715000Y-90698061D01*
X102715000Y-90901939D01*
X102754774Y-91101898D01*
X102832795Y-91290256D01*
X102946063Y-91459774D01*
X103090226Y-91603937D01*
X103259744Y-91717205D01*
X103448102Y-91795226D01*
X103648061Y-91835000D01*
X103851939Y-91835000D01*
X104051898Y-91795226D01*
X104240256Y-91717205D01*
X104374502Y-91627505D01*
X104396063Y-91659774D01*
X104540226Y-91803937D01*
X104709744Y-91917205D01*
X104898102Y-91995226D01*
X105098061Y-92035000D01*
X105301939Y-92035000D01*
X105501898Y-91995226D01*
X105690256Y-91917205D01*
X105859774Y-91803937D01*
X106003937Y-91659774D01*
X106117205Y-91490256D01*
X106195226Y-91301898D01*
X106235000Y-91101939D01*
X106235000Y-90898061D01*
X106195226Y-90698102D01*
X106117205Y-90509744D01*
X106003937Y-90340226D01*
X105960000Y-90296289D01*
X105960000Y-85703711D01*
X106003937Y-85659774D01*
X106117205Y-85490256D01*
X106195226Y-85301898D01*
X106235000Y-85101939D01*
X106235000Y-84898061D01*
X106195226Y-84698102D01*
X106117205Y-84509744D01*
X106003937Y-84340226D01*
X105859774Y-84196063D01*
X105690256Y-84082795D01*
X105501898Y-84004774D01*
X105301939Y-83965000D01*
X105098061Y-83965000D01*
X104898102Y-84004774D01*
X104709744Y-84082795D01*
X104540226Y-84196063D01*
X104396063Y-84340226D01*
X104282795Y-84509744D01*
X104282317Y-84510899D01*
X104240256Y-84482795D01*
X104051898Y-84404774D01*
X103851939Y-84365000D01*
X103648061Y-84365000D01*
X103448102Y-84404774D01*
X103259744Y-84482795D01*
X103090226Y-84596063D01*
X102946063Y-84740226D01*
X102832795Y-84909744D01*
X102754774Y-85098102D01*
X102715000Y-85298061D01*
X94885000Y-85298061D01*
X94885000Y-83171868D01*
X94938676Y-83071447D01*
X95003577Y-82857499D01*
X95020000Y-82690752D01*
X95020000Y-82690751D01*
X95025491Y-82635000D01*
X95020000Y-82579248D01*
X95020000Y-81838967D01*
X99365000Y-81838967D01*
X99365000Y-82161033D01*
X99427832Y-82476912D01*
X99551082Y-82774463D01*
X99730013Y-83042252D01*
X99957748Y-83269987D01*
X100225537Y-83448918D01*
X100523088Y-83572168D01*
X100838967Y-83635000D01*
X101161033Y-83635000D01*
X101476912Y-83572168D01*
X101774463Y-83448918D01*
X102042252Y-83269987D01*
X102176826Y-83135413D01*
X105544192Y-83135413D01*
X105639956Y-83399814D01*
X105929571Y-83540704D01*
X106241108Y-83622384D01*
X106562595Y-83641718D01*
X106881675Y-83597961D01*
X107186088Y-83492795D01*
X107360044Y-83399814D01*
X107455808Y-83135413D01*
X106500000Y-82179605D01*
X105544192Y-83135413D01*
X102176826Y-83135413D01*
X102269987Y-83042252D01*
X102448918Y-82774463D01*
X102572168Y-82476912D01*
X102635000Y-82161033D01*
X102635000Y-82062595D01*
X104858282Y-82062595D01*
X104902039Y-82381675D01*
X105007205Y-82686088D01*
X105100186Y-82860044D01*
X105364587Y-82955808D01*
X106320395Y-82000000D01*
X106679605Y-82000000D01*
X107635413Y-82955808D01*
X107899814Y-82860044D01*
X108040704Y-82570429D01*
X108122384Y-82258892D01*
X108141718Y-81937405D01*
X108128219Y-81838967D01*
X110615000Y-81838967D01*
X110615000Y-82161033D01*
X110677832Y-82476912D01*
X110801082Y-82774463D01*
X110980013Y-83042252D01*
X111207748Y-83269987D01*
X111475537Y-83448918D01*
X111773088Y-83572168D01*
X112088967Y-83635000D01*
X112411033Y-83635000D01*
X112596525Y-83598104D01*
X112654952Y-83656531D01*
X112654958Y-83656536D01*
X112815002Y-83816580D01*
X112815002Y-86464320D01*
X112726912Y-86427832D01*
X112411033Y-86365000D01*
X112088967Y-86365000D01*
X111773088Y-86427832D01*
X111475537Y-86551082D01*
X111207748Y-86730013D01*
X110980013Y-86957748D01*
X110801082Y-87225537D01*
X110677832Y-87523088D01*
X110615000Y-87838967D01*
X110615000Y-88161033D01*
X110677832Y-88476912D01*
X110801082Y-88774463D01*
X110980013Y-89042252D01*
X111207748Y-89269987D01*
X111475537Y-89448918D01*
X111773088Y-89572168D01*
X112088967Y-89635000D01*
X112411033Y-89635000D01*
X112726912Y-89572168D01*
X112815001Y-89535680D01*
X112815001Y-92183420D01*
X112596525Y-92401896D01*
X112411033Y-92365000D01*
X112088967Y-92365000D01*
X111773088Y-92427832D01*
X111475537Y-92551082D01*
X111207748Y-92730013D01*
X110980013Y-92957748D01*
X110801082Y-93225537D01*
X110677832Y-93523088D01*
X110615000Y-93838967D01*
X110615000Y-94161033D01*
X110677832Y-94476912D01*
X110801082Y-94774463D01*
X110980013Y-95042252D01*
X111207748Y-95269987D01*
X111475537Y-95448918D01*
X111773088Y-95572168D01*
X112088967Y-95635000D01*
X112411033Y-95635000D01*
X112596525Y-95598104D01*
X112654952Y-95656531D01*
X112654958Y-95656536D01*
X112815002Y-95816580D01*
X112815002Y-98464320D01*
X112726912Y-98427832D01*
X112411033Y-98365000D01*
X112088967Y-98365000D01*
X111773088Y-98427832D01*
X111475537Y-98551082D01*
X111207748Y-98730013D01*
X110980013Y-98957748D01*
X110801082Y-99225537D01*
X110677832Y-99523088D01*
X110615000Y-99838967D01*
X110615000Y-100161033D01*
X110677832Y-100476912D01*
X110801082Y-100774463D01*
X110980013Y-101042252D01*
X111207748Y-101269987D01*
X111475537Y-101448918D01*
X111773088Y-101572168D01*
X112088967Y-101635000D01*
X112411033Y-101635000D01*
X112726912Y-101572168D01*
X112815001Y-101535680D01*
X112815001Y-104433420D01*
X112596525Y-104651896D01*
X112411033Y-104615000D01*
X112088967Y-104615000D01*
X111773088Y-104677832D01*
X111475537Y-104801082D01*
X111207748Y-104980013D01*
X110980013Y-105207748D01*
X110801082Y-105475537D01*
X110677832Y-105773088D01*
X110615000Y-106088967D01*
X110615000Y-106411033D01*
X110677832Y-106726912D01*
X110801082Y-107024463D01*
X110980013Y-107292252D01*
X111207748Y-107519987D01*
X111475537Y-107698918D01*
X111773088Y-107822168D01*
X112088967Y-107885000D01*
X112411033Y-107885000D01*
X112726912Y-107822168D01*
X113024463Y-107698918D01*
X113292252Y-107519987D01*
X113519987Y-107292252D01*
X113698918Y-107024463D01*
X113822168Y-106726912D01*
X113885000Y-106411033D01*
X113885000Y-106088967D01*
X113848104Y-105903475D01*
X114295051Y-105456528D01*
X114328818Y-105428816D01*
X114439412Y-105294058D01*
X114521590Y-105140312D01*
X114572196Y-104973489D01*
X114585001Y-104843476D01*
X114585001Y-104843466D01*
X114589282Y-104800000D01*
X114585001Y-104756533D01*
X114585001Y-95493470D01*
X114589282Y-95450001D01*
X114585001Y-95406532D01*
X114585001Y-95406524D01*
X114572196Y-95276511D01*
X114521590Y-95109688D01*
X114439412Y-94955942D01*
X114328818Y-94821184D01*
X114295045Y-94793467D01*
X113906536Y-94404958D01*
X113906531Y-94404952D01*
X113848104Y-94346525D01*
X113885000Y-94161033D01*
X113885000Y-93838967D01*
X113848104Y-93653475D01*
X114295051Y-93206528D01*
X114328818Y-93178816D01*
X114439412Y-93044058D01*
X114521590Y-92890312D01*
X114572196Y-92723489D01*
X114585001Y-92593476D01*
X114585001Y-92593466D01*
X114589282Y-92550000D01*
X114585001Y-92506533D01*
X114585001Y-83493470D01*
X114589282Y-83450001D01*
X114585001Y-83406532D01*
X114585001Y-83406524D01*
X114572196Y-83276511D01*
X114521590Y-83109688D01*
X114439412Y-82955942D01*
X114328818Y-82821184D01*
X114295045Y-82793467D01*
X113906536Y-82404958D01*
X113906531Y-82404952D01*
X113848104Y-82346525D01*
X113885000Y-82161033D01*
X113885000Y-81838967D01*
X113822168Y-81523088D01*
X113698918Y-81225537D01*
X113519987Y-80957748D01*
X113292252Y-80730013D01*
X113024463Y-80551082D01*
X112726912Y-80427832D01*
X112411033Y-80365000D01*
X112088967Y-80365000D01*
X111773088Y-80427832D01*
X111475537Y-80551082D01*
X111207748Y-80730013D01*
X110980013Y-80957748D01*
X110801082Y-81225537D01*
X110677832Y-81523088D01*
X110615000Y-81838967D01*
X108128219Y-81838967D01*
X108097961Y-81618325D01*
X107992795Y-81313912D01*
X107899814Y-81139956D01*
X107635413Y-81044192D01*
X106679605Y-82000000D01*
X106320395Y-82000000D01*
X105364587Y-81044192D01*
X105100186Y-81139956D01*
X104959296Y-81429571D01*
X104877616Y-81741108D01*
X104858282Y-82062595D01*
X102635000Y-82062595D01*
X102635000Y-81838967D01*
X102572168Y-81523088D01*
X102448918Y-81225537D01*
X102269987Y-80957748D01*
X102176826Y-80864587D01*
X105544192Y-80864587D01*
X106500000Y-81820395D01*
X107455808Y-80864587D01*
X107360044Y-80600186D01*
X107070429Y-80459296D01*
X106758892Y-80377616D01*
X106437405Y-80358282D01*
X106118325Y-80402039D01*
X105813912Y-80507205D01*
X105639956Y-80600186D01*
X105544192Y-80864587D01*
X102176826Y-80864587D01*
X102042252Y-80730013D01*
X101774463Y-80551082D01*
X101476912Y-80427832D01*
X101161033Y-80365000D01*
X100838967Y-80365000D01*
X100523088Y-80427832D01*
X100225537Y-80551082D01*
X99957748Y-80730013D01*
X99730013Y-80957748D01*
X99551082Y-81225537D01*
X99427832Y-81523088D01*
X99365000Y-81838967D01*
X95020000Y-81838967D01*
X95020000Y-79098061D01*
X103715000Y-79098061D01*
X103715000Y-79301939D01*
X103754774Y-79501898D01*
X103832795Y-79690256D01*
X103946063Y-79859774D01*
X104090226Y-80003937D01*
X104259744Y-80117205D01*
X104448102Y-80195226D01*
X104648061Y-80235000D01*
X104851939Y-80235000D01*
X105051898Y-80195226D01*
X105240256Y-80117205D01*
X105409774Y-80003937D01*
X105553937Y-79859774D01*
X105667205Y-79690256D01*
X105745226Y-79501898D01*
X105785000Y-79301939D01*
X105785000Y-79098061D01*
X105745226Y-78898102D01*
X105667205Y-78709744D01*
X105553937Y-78540226D01*
X105515654Y-78501943D01*
X105537129Y-75838967D01*
X110615000Y-75838967D01*
X110615000Y-76161033D01*
X110677832Y-76476912D01*
X110801082Y-76774463D01*
X110980013Y-77042252D01*
X111207748Y-77269987D01*
X111475537Y-77448918D01*
X111773088Y-77572168D01*
X112088967Y-77635000D01*
X112411033Y-77635000D01*
X112726912Y-77572168D01*
X113024463Y-77448918D01*
X113292252Y-77269987D01*
X113519987Y-77042252D01*
X113698918Y-76774463D01*
X113822168Y-76476912D01*
X113885000Y-76161033D01*
X113885000Y-75838967D01*
X113822168Y-75523088D01*
X113698918Y-75225537D01*
X113519987Y-74957748D01*
X113292252Y-74730013D01*
X113024463Y-74551082D01*
X112726912Y-74427832D01*
X112411033Y-74365000D01*
X112088967Y-74365000D01*
X111773088Y-74427832D01*
X111475537Y-74551082D01*
X111207748Y-74730013D01*
X110980013Y-74957748D01*
X110801082Y-75225537D01*
X110677832Y-75523088D01*
X110615000Y-75838967D01*
X105537129Y-75838967D01*
X105554303Y-73709408D01*
X105603937Y-73659774D01*
X105717205Y-73490256D01*
X105795226Y-73301898D01*
X105835000Y-73101939D01*
X105835000Y-72898061D01*
X105795226Y-72698102D01*
X105717205Y-72509744D01*
X105603937Y-72340226D01*
X105459774Y-72196063D01*
X105290256Y-72082795D01*
X105101898Y-72004774D01*
X104901939Y-71965000D01*
X104698061Y-71965000D01*
X104498102Y-72004774D01*
X104309744Y-72082795D01*
X104140226Y-72196063D01*
X103996063Y-72340226D01*
X103882795Y-72509744D01*
X103804774Y-72698102D01*
X103765000Y-72898061D01*
X103765000Y-73101939D01*
X103804774Y-73301898D01*
X103882795Y-73490256D01*
X103996063Y-73659774D01*
X104034346Y-73698057D01*
X103995697Y-78490592D01*
X103946063Y-78540226D01*
X103832795Y-78709744D01*
X103754774Y-78898102D01*
X103715000Y-79098061D01*
X95020000Y-79098061D01*
X95020000Y-66108000D01*
X118603928Y-66108000D01*
X118616188Y-66232482D01*
X118652498Y-66352180D01*
X118711463Y-66462494D01*
X118790815Y-66559185D01*
X118887506Y-66638537D01*
X118997820Y-66697502D01*
X119117518Y-66733812D01*
X119242000Y-66746072D01*
X121714250Y-66743000D01*
X121873000Y-66584250D01*
X121873000Y-63477000D01*
X122127000Y-63477000D01*
X122127000Y-66584250D01*
X122285750Y-66743000D01*
X124758000Y-66746072D01*
X124882482Y-66733812D01*
X125002180Y-66697502D01*
X125112494Y-66638537D01*
X125209185Y-66559185D01*
X125288537Y-66462494D01*
X125347502Y-66352180D01*
X125383812Y-66232482D01*
X125396072Y-66108000D01*
X125393000Y-63635750D01*
X125234250Y-63477000D01*
X122127000Y-63477000D01*
X121873000Y-63477000D01*
X118765750Y-63477000D01*
X118607000Y-63635750D01*
X118603928Y-66108000D01*
X95020000Y-66108000D01*
X95020000Y-63585131D01*
X95091988Y-63513143D01*
X95198283Y-63383622D01*
X95303676Y-63186446D01*
X95368577Y-62972499D01*
X95390491Y-62750000D01*
X95368577Y-62527502D01*
X95303676Y-62313554D01*
X95198283Y-62116378D01*
X95175788Y-62088967D01*
X99365000Y-62088967D01*
X99365000Y-62411033D01*
X99427832Y-62726912D01*
X99551082Y-63024463D01*
X99730013Y-63292252D01*
X99957748Y-63519987D01*
X100225537Y-63698918D01*
X100523088Y-63822168D01*
X100838967Y-63885000D01*
X101161033Y-63885000D01*
X101476912Y-63822168D01*
X101774463Y-63698918D01*
X102042252Y-63519987D01*
X102176826Y-63385413D01*
X105544192Y-63385413D01*
X105639956Y-63649814D01*
X105929571Y-63790704D01*
X106241108Y-63872384D01*
X106562595Y-63891718D01*
X106881675Y-63847961D01*
X107186088Y-63742795D01*
X107360044Y-63649814D01*
X107455808Y-63385413D01*
X106500000Y-62429605D01*
X105544192Y-63385413D01*
X102176826Y-63385413D01*
X102269987Y-63292252D01*
X102448918Y-63024463D01*
X102572168Y-62726912D01*
X102635000Y-62411033D01*
X102635000Y-62312595D01*
X104858282Y-62312595D01*
X104902039Y-62631675D01*
X105007205Y-62936088D01*
X105100186Y-63110044D01*
X105364587Y-63205808D01*
X106320395Y-62250000D01*
X106679605Y-62250000D01*
X107635413Y-63205808D01*
X107899814Y-63110044D01*
X108040704Y-62820429D01*
X108122384Y-62508892D01*
X108141718Y-62187405D01*
X108097961Y-61868325D01*
X107992795Y-61563912D01*
X107899814Y-61389956D01*
X107635413Y-61294192D01*
X106679605Y-62250000D01*
X106320395Y-62250000D01*
X105364587Y-61294192D01*
X105100186Y-61389956D01*
X104959296Y-61679571D01*
X104877616Y-61991108D01*
X104858282Y-62312595D01*
X102635000Y-62312595D01*
X102635000Y-62088967D01*
X102572168Y-61773088D01*
X102448918Y-61475537D01*
X102269987Y-61207748D01*
X102176826Y-61114587D01*
X105544192Y-61114587D01*
X106500000Y-62070395D01*
X107455808Y-61114587D01*
X107360044Y-60850186D01*
X107070429Y-60709296D01*
X106758892Y-60627616D01*
X106437405Y-60608282D01*
X106118325Y-60652039D01*
X105813912Y-60757205D01*
X105639956Y-60850186D01*
X105544192Y-61114587D01*
X102176826Y-61114587D01*
X102042252Y-60980013D01*
X101774463Y-60801082D01*
X101476912Y-60677832D01*
X101161033Y-60615000D01*
X100838967Y-60615000D01*
X100523088Y-60677832D01*
X100225537Y-60801082D01*
X99957748Y-60980013D01*
X99730013Y-61207748D01*
X99551082Y-61475537D01*
X99427832Y-61773088D01*
X99365000Y-62088967D01*
X95175788Y-62088967D01*
X95056448Y-61943552D01*
X94883622Y-61801717D01*
X94686446Y-61696324D01*
X94472498Y-61631423D01*
X94250000Y-61609509D01*
X94027501Y-61631423D01*
X93813554Y-61696324D01*
X93616378Y-61801717D01*
X93486857Y-61908012D01*
X93121860Y-62273009D01*
X93078552Y-62308551D01*
X92936717Y-62481377D01*
X92922010Y-62508892D01*
X92831324Y-62678554D01*
X92766423Y-62892502D01*
X92744509Y-63115000D01*
X92750001Y-63170762D01*
X92750000Y-82233133D01*
X92696324Y-82333554D01*
X92631423Y-82547502D01*
X92609509Y-82770000D01*
X92615001Y-82825761D01*
X92615000Y-94579248D01*
X92615000Y-95379249D01*
X92615001Y-106279867D01*
X90779869Y-108115000D01*
X88944248Y-108115000D01*
X88777501Y-108131423D01*
X88563553Y-108196324D01*
X88366377Y-108301716D01*
X88193551Y-108443551D01*
X88177194Y-108463483D01*
X88131956Y-108418245D01*
X87962438Y-108304977D01*
X87774080Y-108226956D01*
X87574121Y-108187182D01*
X87370243Y-108187182D01*
X87170284Y-108226956D01*
X86981926Y-108304977D01*
X86812408Y-108418245D01*
X86668245Y-108562408D01*
X86554977Y-108731926D01*
X86476956Y-108920284D01*
X86468062Y-108965000D01*
X86398061Y-108965000D01*
X86198102Y-109004774D01*
X86009744Y-109082795D01*
X85840226Y-109196063D01*
X85696063Y-109340226D01*
X85582795Y-109509744D01*
X85504774Y-109698102D01*
X85465000Y-109898061D01*
X85465000Y-109984421D01*
X85399863Y-109997377D01*
X85211505Y-110075398D01*
X85041987Y-110188666D01*
X84924921Y-110305732D01*
X84801898Y-110254774D01*
X84601939Y-110215000D01*
X84398061Y-110215000D01*
X84198102Y-110254774D01*
X84009744Y-110332795D01*
X83840226Y-110446063D01*
X83696063Y-110590226D01*
X83582795Y-110759744D01*
X83504774Y-110948102D01*
X83465000Y-111148061D01*
X78114455Y-111148061D01*
X78044180Y-111110498D01*
X77924482Y-111074188D01*
X77800000Y-111061928D01*
X76200000Y-111061928D01*
X76075518Y-111074188D01*
X75955820Y-111110498D01*
X75845506Y-111169463D01*
X75748815Y-111248815D01*
X75669463Y-111345506D01*
X75610498Y-111455820D01*
X75574188Y-111575518D01*
X75561928Y-111700000D01*
X71888072Y-111700000D01*
X71888072Y-108750000D01*
X71875812Y-108625518D01*
X71839502Y-108505820D01*
X71780537Y-108395506D01*
X71701185Y-108298815D01*
X71604494Y-108219463D01*
X71494180Y-108160498D01*
X71374482Y-108124188D01*
X71250000Y-108111928D01*
X67750000Y-108111928D01*
X67625518Y-108124188D01*
X67505820Y-108160498D01*
X67395506Y-108219463D01*
X67298815Y-108298815D01*
X67219463Y-108395506D01*
X67160498Y-108505820D01*
X67124188Y-108625518D01*
X67111928Y-108750000D01*
X67111928Y-112250000D01*
X67124188Y-112374482D01*
X67160498Y-112494180D01*
X67219463Y-112604494D01*
X67298815Y-112701185D01*
X67395506Y-112780537D01*
X67457345Y-112813591D01*
X66785750Y-112815000D01*
X66627000Y-112973750D01*
X66373000Y-112973750D01*
X66214250Y-112815000D01*
X65542655Y-112813591D01*
X65604494Y-112780537D01*
X65701185Y-112701185D01*
X65780537Y-112604494D01*
X65839502Y-112494180D01*
X65875812Y-112374482D01*
X65888072Y-112250000D01*
X65885000Y-110785750D01*
X65726250Y-110627000D01*
X63627000Y-110627000D01*
X63373000Y-110627000D01*
X61273750Y-110627000D01*
X61115000Y-110785750D01*
X61111928Y-112250000D01*
X55910000Y-112250000D01*
X55910000Y-108750000D01*
X61111928Y-108750000D01*
X61115000Y-110214250D01*
X61273750Y-110373000D01*
X63373000Y-110373000D01*
X63373000Y-108273750D01*
X63627000Y-108273750D01*
X63627000Y-110373000D01*
X65726250Y-110373000D01*
X65885000Y-110214250D01*
X65888072Y-108750000D01*
X65875812Y-108625518D01*
X65839502Y-108505820D01*
X65780537Y-108395506D01*
X65701185Y-108298815D01*
X65604494Y-108219463D01*
X65494180Y-108160498D01*
X65374482Y-108124188D01*
X65250000Y-108111928D01*
X63785750Y-108115000D01*
X63627000Y-108273750D01*
X63373000Y-108273750D01*
X63214250Y-108115000D01*
X61750000Y-108111928D01*
X61625518Y-108124188D01*
X61505820Y-108160498D01*
X61395506Y-108219463D01*
X61298815Y-108298815D01*
X61219463Y-108395506D01*
X61160498Y-108505820D01*
X61124188Y-108625518D01*
X61111928Y-108750000D01*
X55910000Y-108750000D01*
X55910000Y-105838967D01*
X73865000Y-105838967D01*
X73865000Y-106161033D01*
X73927832Y-106476912D01*
X74051082Y-106774463D01*
X74230013Y-107042252D01*
X74457748Y-107269987D01*
X74725537Y-107448918D01*
X75023088Y-107572168D01*
X75338967Y-107635000D01*
X75661033Y-107635000D01*
X75976912Y-107572168D01*
X76274463Y-107448918D01*
X76542252Y-107269987D01*
X76676826Y-107135413D01*
X82794192Y-107135413D01*
X82889956Y-107399814D01*
X83179571Y-107540704D01*
X83491108Y-107622384D01*
X83812595Y-107641718D01*
X84131675Y-107597961D01*
X84436088Y-107492795D01*
X84610044Y-107399814D01*
X84705808Y-107135413D01*
X83750000Y-106179605D01*
X82794192Y-107135413D01*
X76676826Y-107135413D01*
X76769987Y-107042252D01*
X76948918Y-106774463D01*
X77072168Y-106476912D01*
X77135000Y-106161033D01*
X77135000Y-106062595D01*
X82108282Y-106062595D01*
X82152039Y-106381675D01*
X82257205Y-106686088D01*
X82350186Y-106860044D01*
X82614587Y-106955808D01*
X83570395Y-106000000D01*
X83929605Y-106000000D01*
X84885413Y-106955808D01*
X85149814Y-106860044D01*
X85290704Y-106570429D01*
X85372384Y-106258892D01*
X85391718Y-105937405D01*
X85347961Y-105618325D01*
X85242795Y-105313912D01*
X85149814Y-105139956D01*
X84885413Y-105044192D01*
X83929605Y-106000000D01*
X83570395Y-106000000D01*
X82614587Y-105044192D01*
X82350186Y-105139956D01*
X82209296Y-105429571D01*
X82127616Y-105741108D01*
X82108282Y-106062595D01*
X77135000Y-106062595D01*
X77135000Y-105838967D01*
X77072168Y-105523088D01*
X76948918Y-105225537D01*
X76769987Y-104957748D01*
X76676826Y-104864587D01*
X82794192Y-104864587D01*
X83750000Y-105820395D01*
X84705808Y-104864587D01*
X84610044Y-104600186D01*
X84320429Y-104459296D01*
X84008892Y-104377616D01*
X83687405Y-104358282D01*
X83368325Y-104402039D01*
X83063912Y-104507205D01*
X82889956Y-104600186D01*
X82794192Y-104864587D01*
X76676826Y-104864587D01*
X76542252Y-104730013D01*
X76274463Y-104551082D01*
X75976912Y-104427832D01*
X75661033Y-104365000D01*
X75338967Y-104365000D01*
X75023088Y-104427832D01*
X74725537Y-104551082D01*
X74457748Y-104730013D01*
X74230013Y-104957748D01*
X74051082Y-105225537D01*
X73927832Y-105523088D01*
X73865000Y-105838967D01*
X55910000Y-105838967D01*
X55910000Y-97098061D01*
X80965000Y-97098061D01*
X80965000Y-97301939D01*
X81004774Y-97501898D01*
X81082795Y-97690256D01*
X81196063Y-97859774D01*
X81240001Y-97903712D01*
X81240000Y-102896289D01*
X81196063Y-102940226D01*
X81082795Y-103109744D01*
X81004774Y-103298102D01*
X80965000Y-103498061D01*
X80965000Y-103701939D01*
X81004774Y-103901898D01*
X81082795Y-104090256D01*
X81196063Y-104259774D01*
X81340226Y-104403937D01*
X81509744Y-104517205D01*
X81698102Y-104595226D01*
X81898061Y-104635000D01*
X82101939Y-104635000D01*
X82301898Y-104595226D01*
X82490256Y-104517205D01*
X82659774Y-104403937D01*
X82803937Y-104259774D01*
X82917205Y-104090256D01*
X82995226Y-103901898D01*
X83005973Y-103847868D01*
X83109744Y-103917205D01*
X83298102Y-103995226D01*
X83498061Y-104035000D01*
X83701939Y-104035000D01*
X83901898Y-103995226D01*
X84090256Y-103917205D01*
X84259774Y-103803937D01*
X84399998Y-103663713D01*
X84540222Y-103803937D01*
X84709740Y-103917205D01*
X84898098Y-103995226D01*
X85098057Y-104035000D01*
X85301935Y-104035000D01*
X85501894Y-103995226D01*
X85690252Y-103917205D01*
X85859770Y-103803937D01*
X86003933Y-103659774D01*
X86117201Y-103490256D01*
X86195222Y-103301898D01*
X86234996Y-103101939D01*
X86234996Y-102898061D01*
X86195222Y-102698102D01*
X86117201Y-102509744D01*
X86010000Y-102349306D01*
X86010000Y-97903711D01*
X86053937Y-97859774D01*
X86167205Y-97690256D01*
X86245226Y-97501898D01*
X86285000Y-97301939D01*
X86285000Y-97098061D01*
X86245226Y-96898102D01*
X86167205Y-96709744D01*
X86053937Y-96540226D01*
X85909774Y-96396063D01*
X85740256Y-96282795D01*
X85551898Y-96204774D01*
X85351939Y-96165000D01*
X85148061Y-96165000D01*
X84948102Y-96204774D01*
X84759744Y-96282795D01*
X84590226Y-96396063D01*
X84446063Y-96540226D01*
X84424997Y-96571754D01*
X84403931Y-96540226D01*
X84259768Y-96396063D01*
X84090250Y-96282795D01*
X83901892Y-96204774D01*
X83701933Y-96165000D01*
X83498055Y-96165000D01*
X83298096Y-96204774D01*
X83109738Y-96282795D01*
X82940220Y-96396063D01*
X82799997Y-96536286D01*
X82659774Y-96396063D01*
X82490256Y-96282795D01*
X82301898Y-96204774D01*
X82101939Y-96165000D01*
X81898061Y-96165000D01*
X81698102Y-96204774D01*
X81509744Y-96282795D01*
X81340226Y-96396063D01*
X81196063Y-96540226D01*
X81082795Y-96709744D01*
X81004774Y-96898102D01*
X80965000Y-97098061D01*
X55910000Y-97098061D01*
X55910000Y-93838967D01*
X73615000Y-93838967D01*
X73615000Y-94161033D01*
X73677832Y-94476912D01*
X73801082Y-94774463D01*
X73980013Y-95042252D01*
X74207748Y-95269987D01*
X74475537Y-95448918D01*
X74773088Y-95572168D01*
X75088967Y-95635000D01*
X75411033Y-95635000D01*
X75726912Y-95572168D01*
X76024463Y-95448918D01*
X76292252Y-95269987D01*
X76426826Y-95135413D01*
X82794192Y-95135413D01*
X82889956Y-95399814D01*
X83179571Y-95540704D01*
X83491108Y-95622384D01*
X83812595Y-95641718D01*
X84131675Y-95597961D01*
X84436088Y-95492795D01*
X84610044Y-95399814D01*
X84705808Y-95135413D01*
X83750000Y-94179605D01*
X82794192Y-95135413D01*
X76426826Y-95135413D01*
X76519987Y-95042252D01*
X76698918Y-94774463D01*
X76822168Y-94476912D01*
X76885000Y-94161033D01*
X76885000Y-94062595D01*
X82108282Y-94062595D01*
X82152039Y-94381675D01*
X82257205Y-94686088D01*
X82350186Y-94860044D01*
X82614587Y-94955808D01*
X83570395Y-94000000D01*
X83929605Y-94000000D01*
X84885413Y-94955808D01*
X85149814Y-94860044D01*
X85290704Y-94570429D01*
X85372384Y-94258892D01*
X85391718Y-93937405D01*
X85347961Y-93618325D01*
X85242795Y-93313912D01*
X85149814Y-93139956D01*
X84885413Y-93044192D01*
X83929605Y-94000000D01*
X83570395Y-94000000D01*
X82614587Y-93044192D01*
X82350186Y-93139956D01*
X82209296Y-93429571D01*
X82127616Y-93741108D01*
X82108282Y-94062595D01*
X76885000Y-94062595D01*
X76885000Y-93838967D01*
X76822168Y-93523088D01*
X76698918Y-93225537D01*
X76519987Y-92957748D01*
X76426826Y-92864587D01*
X82794192Y-92864587D01*
X83750000Y-93820395D01*
X84705808Y-92864587D01*
X84610044Y-92600186D01*
X84320429Y-92459296D01*
X84008892Y-92377616D01*
X83687405Y-92358282D01*
X83368325Y-92402039D01*
X83063912Y-92507205D01*
X82889956Y-92600186D01*
X82794192Y-92864587D01*
X76426826Y-92864587D01*
X76292252Y-92730013D01*
X76024463Y-92551082D01*
X75726912Y-92427832D01*
X75411033Y-92365000D01*
X75088967Y-92365000D01*
X74773088Y-92427832D01*
X74475537Y-92551082D01*
X74207748Y-92730013D01*
X73980013Y-92957748D01*
X73801082Y-93225537D01*
X73677832Y-93523088D01*
X73615000Y-93838967D01*
X55910000Y-93838967D01*
X55910000Y-85298061D01*
X80465000Y-85298061D01*
X80465000Y-85501939D01*
X80504774Y-85701898D01*
X80582795Y-85890256D01*
X80696063Y-86059774D01*
X80740000Y-86103711D01*
X80740001Y-89896288D01*
X80696063Y-89940226D01*
X80582795Y-90109744D01*
X80504774Y-90298102D01*
X80465000Y-90498061D01*
X80465000Y-90701939D01*
X80504774Y-90901898D01*
X80582795Y-91090256D01*
X80696063Y-91259774D01*
X80840226Y-91403937D01*
X81009744Y-91517205D01*
X81198102Y-91595226D01*
X81398061Y-91635000D01*
X81601939Y-91635000D01*
X81801898Y-91595226D01*
X81990256Y-91517205D01*
X82159774Y-91403937D01*
X82303937Y-91259774D01*
X82417205Y-91090256D01*
X82495226Y-90901898D01*
X82535000Y-90701939D01*
X82535000Y-90498061D01*
X84215000Y-90498061D01*
X84215000Y-90701939D01*
X84254774Y-90901898D01*
X84332795Y-91090256D01*
X84446063Y-91259774D01*
X84590226Y-91403937D01*
X84759744Y-91517205D01*
X84948102Y-91595226D01*
X85148061Y-91635000D01*
X85351939Y-91635000D01*
X85551898Y-91595226D01*
X85740256Y-91517205D01*
X85909774Y-91403937D01*
X86053937Y-91259774D01*
X86167205Y-91090256D01*
X86245226Y-90901898D01*
X86285000Y-90701939D01*
X86285000Y-90498061D01*
X86245226Y-90298102D01*
X86167205Y-90109744D01*
X86053937Y-89940226D01*
X86010004Y-89896293D01*
X86010004Y-86103711D01*
X86053941Y-86059774D01*
X86167209Y-85890256D01*
X86245230Y-85701898D01*
X86285004Y-85501939D01*
X86285004Y-85298061D01*
X86245230Y-85098102D01*
X86167209Y-84909744D01*
X86053941Y-84740226D01*
X85909778Y-84596063D01*
X85740260Y-84482795D01*
X85551902Y-84404774D01*
X85351943Y-84365000D01*
X85148065Y-84365000D01*
X84948106Y-84404774D01*
X84759748Y-84482795D01*
X84590230Y-84596063D01*
X84446067Y-84740226D01*
X84332799Y-84909744D01*
X84254778Y-85098102D01*
X84215004Y-85298061D01*
X84215004Y-85501939D01*
X84254778Y-85701898D01*
X84332799Y-85890256D01*
X84446067Y-86059774D01*
X84490004Y-86103711D01*
X84490005Y-89896284D01*
X84446063Y-89940226D01*
X84332795Y-90109744D01*
X84254774Y-90298102D01*
X84215000Y-90498061D01*
X82535000Y-90498061D01*
X82495226Y-90298102D01*
X82417205Y-90109744D01*
X82303937Y-89940226D01*
X82260000Y-89896289D01*
X82260000Y-86103711D01*
X82303937Y-86059774D01*
X82417205Y-85890256D01*
X82495226Y-85701898D01*
X82535000Y-85501939D01*
X82535000Y-85298061D01*
X82495226Y-85098102D01*
X82417205Y-84909744D01*
X82303937Y-84740226D01*
X82159774Y-84596063D01*
X81990256Y-84482795D01*
X81801898Y-84404774D01*
X81601939Y-84365000D01*
X81398061Y-84365000D01*
X81198102Y-84404774D01*
X81009744Y-84482795D01*
X80840226Y-84596063D01*
X80696063Y-84740226D01*
X80582795Y-84909744D01*
X80504774Y-85098102D01*
X80465000Y-85298061D01*
X55910000Y-85298061D01*
X55910000Y-81838967D01*
X73615000Y-81838967D01*
X73615000Y-82161033D01*
X73677832Y-82476912D01*
X73801082Y-82774463D01*
X73980013Y-83042252D01*
X74207748Y-83269987D01*
X74475537Y-83448918D01*
X74773088Y-83572168D01*
X75088967Y-83635000D01*
X75411033Y-83635000D01*
X75726912Y-83572168D01*
X76024463Y-83448918D01*
X76292252Y-83269987D01*
X76426826Y-83135413D01*
X82794192Y-83135413D01*
X82889956Y-83399814D01*
X83179571Y-83540704D01*
X83491108Y-83622384D01*
X83812595Y-83641718D01*
X84131675Y-83597961D01*
X84436088Y-83492795D01*
X84610044Y-83399814D01*
X84705808Y-83135413D01*
X83750000Y-82179605D01*
X82794192Y-83135413D01*
X76426826Y-83135413D01*
X76519987Y-83042252D01*
X76698918Y-82774463D01*
X76822168Y-82476912D01*
X76885000Y-82161033D01*
X76885000Y-82062595D01*
X82108282Y-82062595D01*
X82152039Y-82381675D01*
X82257205Y-82686088D01*
X82350186Y-82860044D01*
X82614587Y-82955808D01*
X83570395Y-82000000D01*
X83929605Y-82000000D01*
X84885413Y-82955808D01*
X85149814Y-82860044D01*
X85290704Y-82570429D01*
X85372384Y-82258892D01*
X85391718Y-81937405D01*
X85347961Y-81618325D01*
X85242795Y-81313912D01*
X85149814Y-81139956D01*
X84885413Y-81044192D01*
X83929605Y-82000000D01*
X83570395Y-82000000D01*
X82614587Y-81044192D01*
X82350186Y-81139956D01*
X82209296Y-81429571D01*
X82127616Y-81741108D01*
X82108282Y-82062595D01*
X76885000Y-82062595D01*
X76885000Y-81838967D01*
X76822168Y-81523088D01*
X76698918Y-81225537D01*
X76519987Y-80957748D01*
X76426826Y-80864587D01*
X82794192Y-80864587D01*
X83750000Y-81820395D01*
X84705808Y-80864587D01*
X84610044Y-80600186D01*
X84320429Y-80459296D01*
X84008892Y-80377616D01*
X83687405Y-80358282D01*
X83368325Y-80402039D01*
X83063912Y-80507205D01*
X82889956Y-80600186D01*
X82794192Y-80864587D01*
X76426826Y-80864587D01*
X76292252Y-80730013D01*
X76024463Y-80551082D01*
X75726912Y-80427832D01*
X75411033Y-80365000D01*
X75088967Y-80365000D01*
X74773088Y-80427832D01*
X74475537Y-80551082D01*
X74207748Y-80730013D01*
X73980013Y-80957748D01*
X73801082Y-81225537D01*
X73677832Y-81523088D01*
X73615000Y-81838967D01*
X55910000Y-81838967D01*
X55910000Y-73298061D01*
X84165000Y-73298061D01*
X84165000Y-73501939D01*
X84204774Y-73701898D01*
X84282795Y-73890256D01*
X84396063Y-74059774D01*
X84490007Y-74153718D01*
X84490006Y-78296289D01*
X84446069Y-78340226D01*
X84332801Y-78509744D01*
X84254780Y-78698102D01*
X84215006Y-78898061D01*
X84215006Y-79101939D01*
X84254780Y-79301898D01*
X84332801Y-79490256D01*
X84446069Y-79659774D01*
X84590232Y-79803937D01*
X84759750Y-79917205D01*
X84948108Y-79995226D01*
X85148067Y-80035000D01*
X85351945Y-80035000D01*
X85551904Y-79995226D01*
X85740262Y-79917205D01*
X85909780Y-79803937D01*
X86053943Y-79659774D01*
X86167211Y-79490256D01*
X86245232Y-79301898D01*
X86285006Y-79101939D01*
X86285006Y-78898061D01*
X86245232Y-78698102D01*
X86167211Y-78509744D01*
X86053943Y-78340226D01*
X86010006Y-78296289D01*
X86010006Y-74050691D01*
X86117205Y-73890256D01*
X86195226Y-73701898D01*
X86235000Y-73501939D01*
X86235000Y-73298061D01*
X86195226Y-73098102D01*
X86117205Y-72909744D01*
X86003937Y-72740226D01*
X85859774Y-72596063D01*
X85690256Y-72482795D01*
X85501898Y-72404774D01*
X85301939Y-72365000D01*
X85098061Y-72365000D01*
X84898102Y-72404774D01*
X84709744Y-72482795D01*
X84540226Y-72596063D01*
X84396063Y-72740226D01*
X84282795Y-72909744D01*
X84204774Y-73098102D01*
X84165000Y-73298061D01*
X55910000Y-73298061D01*
X55910000Y-66108000D01*
X58603928Y-66108000D01*
X58616188Y-66232482D01*
X58652498Y-66352180D01*
X58711463Y-66462494D01*
X58790815Y-66559185D01*
X58887506Y-66638537D01*
X58997820Y-66697502D01*
X59117518Y-66733812D01*
X59242000Y-66746072D01*
X61714250Y-66743000D01*
X61873000Y-66584250D01*
X61873000Y-63477000D01*
X62127000Y-63477000D01*
X62127000Y-66584250D01*
X62285750Y-66743000D01*
X64758000Y-66746072D01*
X64882482Y-66733812D01*
X65002180Y-66697502D01*
X65112494Y-66638537D01*
X65209185Y-66559185D01*
X65288537Y-66462494D01*
X65347502Y-66352180D01*
X65383812Y-66232482D01*
X65396072Y-66108000D01*
X65393000Y-63635750D01*
X65234250Y-63477000D01*
X62127000Y-63477000D01*
X61873000Y-63477000D01*
X58765750Y-63477000D01*
X58607000Y-63635750D01*
X58603928Y-66108000D01*
X55910000Y-66108000D01*
X55910000Y-60592000D01*
X58603928Y-60592000D01*
X58607000Y-63064250D01*
X58765750Y-63223000D01*
X61873000Y-63223000D01*
X61873000Y-60115750D01*
X62127000Y-60115750D01*
X62127000Y-63223000D01*
X65234250Y-63223000D01*
X65393000Y-63064250D01*
X65394211Y-62088967D01*
X73865000Y-62088967D01*
X73865000Y-62411033D01*
X73927832Y-62726912D01*
X74051082Y-63024463D01*
X74230013Y-63292252D01*
X74457748Y-63519987D01*
X74725537Y-63698918D01*
X75023088Y-63822168D01*
X75338967Y-63885000D01*
X75661033Y-63885000D01*
X75976912Y-63822168D01*
X76274463Y-63698918D01*
X76542252Y-63519987D01*
X76676826Y-63385413D01*
X82794192Y-63385413D01*
X82889956Y-63649814D01*
X83179571Y-63790704D01*
X83491108Y-63872384D01*
X83812595Y-63891718D01*
X84131675Y-63847961D01*
X84436088Y-63742795D01*
X84610044Y-63649814D01*
X84705808Y-63385413D01*
X83750000Y-62429605D01*
X82794192Y-63385413D01*
X76676826Y-63385413D01*
X76769987Y-63292252D01*
X76948918Y-63024463D01*
X77072168Y-62726912D01*
X77135000Y-62411033D01*
X77135000Y-62312595D01*
X82108282Y-62312595D01*
X82152039Y-62631675D01*
X82257205Y-62936088D01*
X82350186Y-63110044D01*
X82614587Y-63205808D01*
X83570395Y-62250000D01*
X83929605Y-62250000D01*
X84885413Y-63205808D01*
X85149814Y-63110044D01*
X85290704Y-62820429D01*
X85372384Y-62508892D01*
X85391718Y-62187405D01*
X85347961Y-61868325D01*
X85242795Y-61563912D01*
X85149814Y-61389956D01*
X84885413Y-61294192D01*
X83929605Y-62250000D01*
X83570395Y-62250000D01*
X82614587Y-61294192D01*
X82350186Y-61389956D01*
X82209296Y-61679571D01*
X82127616Y-61991108D01*
X82108282Y-62312595D01*
X77135000Y-62312595D01*
X77135000Y-62088967D01*
X77072168Y-61773088D01*
X76948918Y-61475537D01*
X76769987Y-61207748D01*
X76676826Y-61114587D01*
X82794192Y-61114587D01*
X83750000Y-62070395D01*
X84705808Y-61114587D01*
X84610044Y-60850186D01*
X84320429Y-60709296D01*
X84008892Y-60627616D01*
X83687405Y-60608282D01*
X83368325Y-60652039D01*
X83063912Y-60757205D01*
X82889956Y-60850186D01*
X82794192Y-61114587D01*
X76676826Y-61114587D01*
X76542252Y-60980013D01*
X76274463Y-60801082D01*
X75976912Y-60677832D01*
X75661033Y-60615000D01*
X75338967Y-60615000D01*
X75023088Y-60677832D01*
X74725537Y-60801082D01*
X74457748Y-60980013D01*
X74230013Y-61207748D01*
X74051082Y-61475537D01*
X73927832Y-61773088D01*
X73865000Y-62088967D01*
X65394211Y-62088967D01*
X65396072Y-60592000D01*
X118603928Y-60592000D01*
X118607000Y-63064250D01*
X118765750Y-63223000D01*
X121873000Y-63223000D01*
X121873000Y-60115750D01*
X122127000Y-60115750D01*
X122127000Y-63223000D01*
X125234250Y-63223000D01*
X125393000Y-63064250D01*
X125396072Y-60592000D01*
X125383812Y-60467518D01*
X125347502Y-60347820D01*
X125288537Y-60237506D01*
X125209185Y-60140815D01*
X125112494Y-60061463D01*
X125002180Y-60002498D01*
X124882482Y-59966188D01*
X124758000Y-59953928D01*
X122285750Y-59957000D01*
X122127000Y-60115750D01*
X121873000Y-60115750D01*
X121714250Y-59957000D01*
X119242000Y-59953928D01*
X119117518Y-59966188D01*
X118997820Y-60002498D01*
X118887506Y-60061463D01*
X118790815Y-60140815D01*
X118711463Y-60237506D01*
X118652498Y-60347820D01*
X118616188Y-60467518D01*
X118603928Y-60592000D01*
X65396072Y-60592000D01*
X65383812Y-60467518D01*
X65347502Y-60347820D01*
X65288537Y-60237506D01*
X65209185Y-60140815D01*
X65112494Y-60061463D01*
X65002180Y-60002498D01*
X64882482Y-59966188D01*
X64758000Y-59953928D01*
X62285750Y-59957000D01*
X62127000Y-60115750D01*
X61873000Y-60115750D01*
X61714250Y-59957000D01*
X59242000Y-59953928D01*
X59117518Y-59966188D01*
X58997820Y-60002498D01*
X58887506Y-60061463D01*
X58790815Y-60140815D01*
X58711463Y-60237506D01*
X58652498Y-60347820D01*
X58616188Y-60467518D01*
X58603928Y-60592000D01*
X55910000Y-60592000D01*
X55910000Y-55815819D01*
X58607000Y-55815819D01*
X58607000Y-56484181D01*
X58737391Y-57139702D01*
X58993163Y-57757188D01*
X59364485Y-58312911D01*
X59837089Y-58785515D01*
X60392812Y-59156837D01*
X61010298Y-59412609D01*
X61665819Y-59543000D01*
X62334181Y-59543000D01*
X62989702Y-59412609D01*
X63607188Y-59156837D01*
X64162911Y-58785515D01*
X64635515Y-58312911D01*
X65006837Y-57757188D01*
X65262609Y-57139702D01*
X65393000Y-56484181D01*
X65393000Y-55838967D01*
X73865000Y-55838967D01*
X73865000Y-56161033D01*
X73927832Y-56476912D01*
X74051082Y-56774463D01*
X74230013Y-57042252D01*
X74457748Y-57269987D01*
X74725537Y-57448918D01*
X75023088Y-57572168D01*
X75338967Y-57635000D01*
X75661033Y-57635000D01*
X75976912Y-57572168D01*
X76274463Y-57448918D01*
X76542252Y-57269987D01*
X76769987Y-57042252D01*
X76948918Y-56774463D01*
X77072168Y-56476912D01*
X77135000Y-56161033D01*
X77135000Y-55838967D01*
X77130396Y-55815819D01*
X118607000Y-55815819D01*
X118607000Y-56484181D01*
X118737391Y-57139702D01*
X118993163Y-57757188D01*
X119364485Y-58312911D01*
X119837089Y-58785515D01*
X120392812Y-59156837D01*
X121010298Y-59412609D01*
X121665819Y-59543000D01*
X122334181Y-59543000D01*
X122989702Y-59412609D01*
X123607188Y-59156837D01*
X124162911Y-58785515D01*
X124635515Y-58312911D01*
X125006837Y-57757188D01*
X125262609Y-57139702D01*
X125393000Y-56484181D01*
X125393000Y-55815819D01*
X125262609Y-55160298D01*
X125006837Y-54542812D01*
X124635515Y-53987089D01*
X124162911Y-53514485D01*
X123607188Y-53143163D01*
X122989702Y-52887391D01*
X122334181Y-52757000D01*
X121665819Y-52757000D01*
X121010298Y-52887391D01*
X120392812Y-53143163D01*
X119837089Y-53514485D01*
X119364485Y-53987089D01*
X118993163Y-54542812D01*
X118737391Y-55160298D01*
X118607000Y-55815819D01*
X77130396Y-55815819D01*
X77072168Y-55523088D01*
X76948918Y-55225537D01*
X76769987Y-54957748D01*
X76542252Y-54730013D01*
X76274463Y-54551082D01*
X75976912Y-54427832D01*
X75661033Y-54365000D01*
X75338967Y-54365000D01*
X75023088Y-54427832D01*
X74725537Y-54551082D01*
X74457748Y-54730013D01*
X74230013Y-54957748D01*
X74051082Y-55225537D01*
X73927832Y-55523088D01*
X73865000Y-55838967D01*
X65393000Y-55838967D01*
X65393000Y-55815819D01*
X65262609Y-55160298D01*
X65006837Y-54542812D01*
X64635515Y-53987089D01*
X64162911Y-53514485D01*
X63607188Y-53143163D01*
X62989702Y-52887391D01*
X62334181Y-52757000D01*
X61665819Y-52757000D01*
X61010298Y-52887391D01*
X60392812Y-53143163D01*
X59837089Y-53514485D01*
X59364485Y-53987089D01*
X58993163Y-54542812D01*
X58737391Y-55160298D01*
X58607000Y-55815819D01*
X55910000Y-55815819D01*
X55910000Y-45641984D01*
X56865000Y-45641984D01*
X56865000Y-46358016D01*
X57004691Y-47060290D01*
X57278705Y-47721818D01*
X57676511Y-48317177D01*
X58182823Y-48823489D01*
X58778182Y-49221295D01*
X59439710Y-49495309D01*
X60141984Y-49635000D01*
X60858016Y-49635000D01*
X61560290Y-49495309D01*
X62221818Y-49221295D01*
X62817177Y-48823489D01*
X63323489Y-48317177D01*
X63721295Y-47721818D01*
X63995309Y-47060290D01*
X64135000Y-46358016D01*
X64135000Y-45641984D01*
X119865000Y-45641984D01*
X119865000Y-46358016D01*
X120004691Y-47060290D01*
X120278705Y-47721818D01*
X120676511Y-48317177D01*
X121182823Y-48823489D01*
X121778182Y-49221295D01*
X122439710Y-49495309D01*
X123141984Y-49635000D01*
X123858016Y-49635000D01*
X124560290Y-49495309D01*
X125221818Y-49221295D01*
X125817177Y-48823489D01*
X126323489Y-48317177D01*
X126721295Y-47721818D01*
X126995309Y-47060290D01*
X127135000Y-46358016D01*
X127135000Y-45641984D01*
X126995309Y-44939710D01*
X126721295Y-44278182D01*
X126323489Y-43682823D01*
X125817177Y-43176511D01*
X125221818Y-42778705D01*
X124560290Y-42504691D01*
X123858016Y-42365000D01*
X123141984Y-42365000D01*
X122439710Y-42504691D01*
X121778182Y-42778705D01*
X121182823Y-43176511D01*
X120676511Y-43682823D01*
X120278705Y-44278182D01*
X120004691Y-44939710D01*
X119865000Y-45641984D01*
X64135000Y-45641984D01*
X63995309Y-44939710D01*
X63721295Y-44278182D01*
X63323489Y-43682823D01*
X62817177Y-43176511D01*
X62221818Y-42778705D01*
X61560290Y-42504691D01*
X60858016Y-42365000D01*
X60141984Y-42365000D01*
X59439710Y-42504691D01*
X58778182Y-42778705D01*
X58182823Y-43176511D01*
X57676511Y-43682823D01*
X57278705Y-44278182D01*
X57004691Y-44939710D01*
X56865000Y-45641984D01*
X55910000Y-45641984D01*
X55910000Y-44782278D01*
X55976714Y-44101874D01*
X56164943Y-43478428D01*
X56470681Y-42903421D01*
X56882279Y-42398753D01*
X57384067Y-41983638D01*
X57956924Y-41673895D01*
X58579039Y-41481318D01*
X59257584Y-41410000D01*
X124717722Y-41410000D01*
X125398126Y-41476714D01*
G37*
X125398126Y-41476714D02*
X126021572Y-41664943D01*
X126596579Y-41970681D01*
X127101247Y-42382279D01*
X127516362Y-42884067D01*
X127826105Y-43456924D01*
X128018682Y-44079039D01*
X128090000Y-44757584D01*
X128090001Y-121717711D01*
X128023286Y-122398126D01*
X127835057Y-123021570D01*
X127529323Y-123596573D01*
X127117721Y-124101248D01*
X126615933Y-124516362D01*
X126043077Y-124826104D01*
X125420961Y-125018682D01*
X124742417Y-125090000D01*
X59282279Y-125090000D01*
X58601874Y-125023286D01*
X57978430Y-124835057D01*
X57403427Y-124529323D01*
X56898752Y-124117721D01*
X56483638Y-123615933D01*
X56173896Y-123043077D01*
X55981318Y-122420961D01*
X55910000Y-121742417D01*
X55910000Y-120641984D01*
X56865000Y-120641984D01*
X56865000Y-121358016D01*
X57004691Y-122060290D01*
X57278705Y-122721818D01*
X57676511Y-123317177D01*
X58182823Y-123823489D01*
X58778182Y-124221295D01*
X59439710Y-124495309D01*
X60141984Y-124635000D01*
X60858016Y-124635000D01*
X61560290Y-124495309D01*
X62221818Y-124221295D01*
X62817177Y-123823489D01*
X63323489Y-123317177D01*
X63721295Y-122721818D01*
X63995309Y-122060290D01*
X64135000Y-121358016D01*
X64135000Y-120641984D01*
X63995309Y-119939710D01*
X63721295Y-119278182D01*
X63323489Y-118682823D01*
X62817177Y-118176511D01*
X62221818Y-117778705D01*
X61560290Y-117504691D01*
X60858016Y-117365000D01*
X60141984Y-117365000D01*
X59439710Y-117504691D01*
X58778182Y-117778705D01*
X58182823Y-118176511D01*
X57676511Y-118682823D01*
X57278705Y-119278182D01*
X57004691Y-119939710D01*
X56865000Y-120641984D01*
X55910000Y-120641984D01*
X55910000Y-116950000D01*
X64111928Y-116950000D01*
X64124188Y-117074482D01*
X64160498Y-117194180D01*
X64219463Y-117304494D01*
X64298815Y-117401185D01*
X64395506Y-117480537D01*
X64505820Y-117539502D01*
X64625518Y-117575812D01*
X64750000Y-117588072D01*
X66214250Y-117585000D01*
X66373000Y-117426250D01*
X66373000Y-115327000D01*
X66627000Y-115327000D01*
X66627000Y-117426250D01*
X66785750Y-117585000D01*
X68250000Y-117588072D01*
X68374482Y-117575812D01*
X68494180Y-117539502D01*
X68604494Y-117480537D01*
X68701185Y-117401185D01*
X68780537Y-117304494D01*
X68839502Y-117194180D01*
X68875812Y-117074482D01*
X68883866Y-116992702D01*
X76186903Y-116992702D01*
X76258486Y-117236671D01*
X76513996Y-117357571D01*
X76788184Y-117426300D01*
X77070512Y-117440217D01*
X77350130Y-117398787D01*
X77616292Y-117303603D01*
X77741514Y-117236671D01*
X77813097Y-116992702D01*
X77000000Y-116179605D01*
X76186903Y-116992702D01*
X68883866Y-116992702D01*
X68888072Y-116950000D01*
X68886227Y-116070512D01*
X75559783Y-116070512D01*
X75601213Y-116350130D01*
X75696397Y-116616292D01*
X75763329Y-116741514D01*
X76007298Y-116813097D01*
X76820395Y-116000000D01*
X77179605Y-116000000D01*
X77992702Y-116813097D01*
X78236671Y-116741514D01*
X78357571Y-116486004D01*
X78426300Y-116211816D01*
X78429347Y-116150000D01*
X85011928Y-116150000D01*
X85011928Y-117850000D01*
X85024188Y-117974482D01*
X85060498Y-118094180D01*
X85119463Y-118204494D01*
X85198815Y-118301185D01*
X85295506Y-118380537D01*
X85405820Y-118439502D01*
X85525518Y-118475812D01*
X85650000Y-118488072D01*
X87350000Y-118488072D01*
X87474482Y-118475812D01*
X87594180Y-118439502D01*
X87704494Y-118380537D01*
X87801185Y-118301185D01*
X87880537Y-118204494D01*
X87939502Y-118094180D01*
X87961513Y-118021620D01*
X88093368Y-118153475D01*
X88280000Y-118278179D01*
X88280000Y-118752677D01*
X88276324Y-118790000D01*
X88280000Y-118827322D01*
X88280000Y-118827332D01*
X88290997Y-118938985D01*
X88324981Y-119051018D01*
X88334454Y-119082246D01*
X88405026Y-119214276D01*
X88442568Y-119260020D01*
X88499999Y-119330001D01*
X88529002Y-119353803D01*
X89486226Y-120311029D01*
X89510020Y-120340022D01*
X89539013Y-120363816D01*
X89539017Y-120363820D01*
X89588265Y-120404236D01*
X89625745Y-120434995D01*
X89757774Y-120505567D01*
X89901035Y-120549024D01*
X90012688Y-120560021D01*
X90012697Y-120560021D01*
X90050020Y-120563697D01*
X90087343Y-120560021D01*
X90296289Y-120560021D01*
X90340226Y-120603958D01*
X90509744Y-120717226D01*
X90698102Y-120795247D01*
X90898061Y-120835021D01*
X91101939Y-120835021D01*
X91301898Y-120795247D01*
X91490256Y-120717226D01*
X91602863Y-120641984D01*
X119865000Y-120641984D01*
X119865000Y-121358016D01*
X120004691Y-122060290D01*
X120278705Y-122721818D01*
X120676511Y-123317177D01*
X121182823Y-123823489D01*
X121778182Y-124221295D01*
X122439710Y-124495309D01*
X123141984Y-124635000D01*
X123858016Y-124635000D01*
X124560290Y-124495309D01*
X125221818Y-124221295D01*
X125817177Y-123823489D01*
X126323489Y-123317177D01*
X126721295Y-122721818D01*
X126995309Y-122060290D01*
X127135000Y-121358016D01*
X127135000Y-120641984D01*
X126995309Y-119939710D01*
X126721295Y-119278182D01*
X126323489Y-118682823D01*
X125817177Y-118176511D01*
X125221818Y-117778705D01*
X124560290Y-117504691D01*
X123858016Y-117365000D01*
X123141984Y-117365000D01*
X122439710Y-117504691D01*
X121778182Y-117778705D01*
X121182823Y-118176511D01*
X120676511Y-118682823D01*
X120278705Y-119278182D01*
X120004691Y-119939710D01*
X119865000Y-120641984D01*
X91602863Y-120641984D01*
X91659774Y-120603958D01*
X91803937Y-120459795D01*
X91917205Y-120290277D01*
X91995226Y-120101919D01*
X92035000Y-119901960D01*
X92035000Y-119698082D01*
X91995226Y-119498123D01*
X91917205Y-119309765D01*
X91803937Y-119140247D01*
X91659774Y-118996084D01*
X91490256Y-118882816D01*
X91301898Y-118804795D01*
X91101939Y-118765021D01*
X90898061Y-118765021D01*
X90698102Y-118804795D01*
X90509744Y-118882816D01*
X90340226Y-118996084D01*
X90330556Y-119005754D01*
X89800000Y-118475199D01*
X89800000Y-118278178D01*
X89986632Y-118153475D01*
X90193475Y-117946632D01*
X90310000Y-117772240D01*
X90426525Y-117946632D01*
X90633368Y-118153475D01*
X90876589Y-118315990D01*
X91146842Y-118427932D01*
X91433740Y-118485000D01*
X91726260Y-118485000D01*
X92013158Y-118427932D01*
X92283411Y-118315990D01*
X92526632Y-118153475D01*
X92733475Y-117946632D01*
X92850000Y-117772240D01*
X92966525Y-117946632D01*
X93173368Y-118153475D01*
X93416589Y-118315990D01*
X93686842Y-118427932D01*
X93973740Y-118485000D01*
X94266260Y-118485000D01*
X94553158Y-118427932D01*
X94823411Y-118315990D01*
X95066632Y-118153475D01*
X95273475Y-117946632D01*
X95390000Y-117772240D01*
X95506525Y-117946632D01*
X95713368Y-118153475D01*
X95956589Y-118315990D01*
X96226842Y-118427932D01*
X96513740Y-118485000D01*
X96806260Y-118485000D01*
X97093158Y-118427932D01*
X97363411Y-118315990D01*
X97606632Y-118153475D01*
X97813475Y-117946632D01*
X97930000Y-117772240D01*
X98046525Y-117946632D01*
X98253368Y-118153475D01*
X98496589Y-118315990D01*
X98766842Y-118427932D01*
X99053740Y-118485000D01*
X99346260Y-118485000D01*
X99633158Y-118427932D01*
X99903411Y-118315990D01*
X100146632Y-118153475D01*
X100353475Y-117946632D01*
X100470000Y-117772240D01*
X100586525Y-117946632D01*
X100793368Y-118153475D01*
X101036589Y-118315990D01*
X101306842Y-118427932D01*
X101593740Y-118485000D01*
X101886260Y-118485000D01*
X102173158Y-118427932D01*
X102443411Y-118315990D01*
X102686632Y-118153475D01*
X102893475Y-117946632D01*
X103010000Y-117772240D01*
X103126525Y-117946632D01*
X103333368Y-118153475D01*
X103576589Y-118315990D01*
X103846842Y-118427932D01*
X104133740Y-118485000D01*
X104426260Y-118485000D01*
X104713158Y-118427932D01*
X104983411Y-118315990D01*
X105226632Y-118153475D01*
X105433475Y-117946632D01*
X105555195Y-117764466D01*
X105624822Y-117881355D01*
X105819731Y-118097588D01*
X106053080Y-118271641D01*
X106315901Y-118396825D01*
X106463110Y-118441476D01*
X106693000Y-118320155D01*
X106693000Y-117127000D01*
X106947000Y-117127000D01*
X106947000Y-118320155D01*
X107176890Y-118441476D01*
X107324099Y-118396825D01*
X107586920Y-118271641D01*
X107820269Y-118097588D01*
X108015178Y-117881355D01*
X108164157Y-117631252D01*
X108261481Y-117356891D01*
X108140814Y-117127000D01*
X106947000Y-117127000D01*
X106693000Y-117127000D01*
X106673000Y-117127000D01*
X106673000Y-116873000D01*
X106693000Y-116873000D01*
X106693000Y-115679845D01*
X106947000Y-115679845D01*
X106947000Y-116873000D01*
X108140814Y-116873000D01*
X108261481Y-116643109D01*
X108164157Y-116368748D01*
X108015178Y-116118645D01*
X107820269Y-115902412D01*
X107586920Y-115728359D01*
X107324099Y-115603175D01*
X107176890Y-115558524D01*
X106947000Y-115679845D01*
X106693000Y-115679845D01*
X106463110Y-115558524D01*
X106315901Y-115603175D01*
X106053080Y-115728359D01*
X105819731Y-115902412D01*
X105624822Y-116118645D01*
X105555195Y-116235534D01*
X105433475Y-116053368D01*
X105226632Y-115846525D01*
X104983411Y-115684010D01*
X104713158Y-115572068D01*
X104426260Y-115515000D01*
X104133740Y-115515000D01*
X103846842Y-115572068D01*
X103576589Y-115684010D01*
X103333368Y-115846525D01*
X103126525Y-116053368D01*
X103010000Y-116227760D01*
X102893475Y-116053368D01*
X102686632Y-115846525D01*
X102443411Y-115684010D01*
X102173158Y-115572068D01*
X101886260Y-115515000D01*
X101593740Y-115515000D01*
X101306842Y-115572068D01*
X101036589Y-115684010D01*
X100793368Y-115846525D01*
X100586525Y-116053368D01*
X100470000Y-116227760D01*
X100353475Y-116053368D01*
X100146632Y-115846525D01*
X99903411Y-115684010D01*
X99633158Y-115572068D01*
X99346260Y-115515000D01*
X99053740Y-115515000D01*
X98766842Y-115572068D01*
X98496589Y-115684010D01*
X98253368Y-115846525D01*
X98046525Y-116053368D01*
X97930000Y-116227760D01*
X97813475Y-116053368D01*
X97606632Y-115846525D01*
X97363411Y-115684010D01*
X97093158Y-115572068D01*
X96806260Y-115515000D01*
X96513740Y-115515000D01*
X96226842Y-115572068D01*
X95956589Y-115684010D01*
X95713368Y-115846525D01*
X95506525Y-116053368D01*
X95390000Y-116227760D01*
X95273475Y-116053368D01*
X95066632Y-115846525D01*
X94823411Y-115684010D01*
X94553158Y-115572068D01*
X94266260Y-115515000D01*
X93973740Y-115515000D01*
X93686842Y-115572068D01*
X93416589Y-115684010D01*
X93173368Y-115846525D01*
X92966525Y-116053368D01*
X92850000Y-116227760D01*
X92733475Y-116053368D01*
X92526632Y-115846525D01*
X92283411Y-115684010D01*
X92013158Y-115572068D01*
X91726260Y-115515000D01*
X91433740Y-115515000D01*
X91146842Y-115572068D01*
X90876589Y-115684010D01*
X90633368Y-115846525D01*
X90426525Y-116053368D01*
X90310000Y-116227760D01*
X90193475Y-116053368D01*
X89986632Y-115846525D01*
X89743411Y-115684010D01*
X89473158Y-115572068D01*
X89186260Y-115515000D01*
X88893740Y-115515000D01*
X88606842Y-115572068D01*
X88336589Y-115684010D01*
X88093368Y-115846525D01*
X87961513Y-115978380D01*
X87939502Y-115905820D01*
X87880537Y-115795506D01*
X87801185Y-115698815D01*
X87704494Y-115619463D01*
X87594180Y-115560498D01*
X87474482Y-115524188D01*
X87350000Y-115511928D01*
X85650000Y-115511928D01*
X85525518Y-115524188D01*
X85405820Y-115560498D01*
X85295506Y-115619463D01*
X85198815Y-115698815D01*
X85119463Y-115795506D01*
X85060498Y-115905820D01*
X85024188Y-116025518D01*
X85011928Y-116150000D01*
X78429347Y-116150000D01*
X78440217Y-115929488D01*
X78398787Y-115649870D01*
X78303603Y-115383708D01*
X78236671Y-115258486D01*
X77992702Y-115186903D01*
X77179605Y-116000000D01*
X76820395Y-116000000D01*
X76007298Y-115186903D01*
X75763329Y-115258486D01*
X75642429Y-115513996D01*
X75573700Y-115788184D01*
X75559783Y-116070512D01*
X68886227Y-116070512D01*
X68885000Y-115485750D01*
X68726250Y-115327000D01*
X66627000Y-115327000D01*
X66373000Y-115327000D01*
X64273750Y-115327000D01*
X64115000Y-115485750D01*
X64111928Y-116950000D01*
X55910000Y-116950000D01*
X55910000Y-112250000D01*
X61111928Y-112250000D01*
X61124188Y-112374482D01*
X61160498Y-112494180D01*
X61219463Y-112604494D01*
X61298815Y-112701185D01*
X61395506Y-112780537D01*
X61505820Y-112839502D01*
X61625518Y-112875812D01*
X61750000Y-112888072D01*
X63214250Y-112885000D01*
X63373000Y-112726250D01*
X63373000Y-110627000D01*
X63627000Y-110627000D01*
X63627000Y-112726250D01*
X63785750Y-112885000D01*
X64457345Y-112886409D01*
X64395506Y-112919463D01*
X64298815Y-112998815D01*
X64219463Y-113095506D01*
X64160498Y-113205820D01*
X64124188Y-113325518D01*
X64111928Y-113450000D01*
X64115000Y-114914250D01*
X64273750Y-115073000D01*
X66373000Y-115073000D01*
X66373000Y-112973750D01*
X66627000Y-112973750D01*
X66627000Y-115073000D01*
X68726250Y-115073000D01*
X68791952Y-115007298D01*
X76186903Y-115007298D01*
X77000000Y-115820395D01*
X77813097Y-115007298D01*
X77741514Y-114763329D01*
X77486004Y-114642429D01*
X77211816Y-114573700D01*
X76929488Y-114559783D01*
X76649870Y-114601213D01*
X76383708Y-114696397D01*
X76258486Y-114763329D01*
X76186903Y-115007298D01*
X68791952Y-115007298D01*
X68885000Y-114914250D01*
X68888072Y-113450000D01*
X68875812Y-113325518D01*
X68839502Y-113205820D01*
X68780537Y-113095506D01*
X68701185Y-112998815D01*
X68604494Y-112919463D01*
X68545767Y-112888072D01*
X71250000Y-112888072D01*
X71374482Y-112875812D01*
X71494180Y-112839502D01*
X71604494Y-112780537D01*
X71701185Y-112701185D01*
X71780537Y-112604494D01*
X71839502Y-112494180D01*
X71875812Y-112374482D01*
X71888072Y-112250000D01*
X71888072Y-111700000D01*
X75561928Y-111700000D01*
X75561928Y-113300000D01*
X75574188Y-113424482D01*
X75610498Y-113544180D01*
X75669463Y-113654494D01*
X75748815Y-113751185D01*
X75845506Y-113830537D01*
X75955820Y-113889502D01*
X76075518Y-113925812D01*
X76200000Y-113938072D01*
X77800000Y-113938072D01*
X77924482Y-113925812D01*
X78044180Y-113889502D01*
X78154494Y-113830537D01*
X78251185Y-113751185D01*
X78330537Y-113654494D01*
X78389502Y-113544180D01*
X78425812Y-113424482D01*
X78438072Y-113300000D01*
X78438072Y-111700000D01*
X78425812Y-111575518D01*
X78389502Y-111455820D01*
X78330537Y-111345506D01*
X78251185Y-111248815D01*
X78154494Y-111169463D01*
X78114455Y-111148061D01*
X83465000Y-111148061D01*
X83465000Y-111351939D01*
X83504774Y-111551898D01*
X83582795Y-111740256D01*
X83696063Y-111909774D01*
X83740000Y-111953711D01*
X83740001Y-112796288D01*
X83696063Y-112840226D01*
X83582795Y-113009744D01*
X83504774Y-113198102D01*
X83465000Y-113398061D01*
X83465000Y-113601939D01*
X83504774Y-113801898D01*
X83582795Y-113990256D01*
X83696063Y-114159774D01*
X83840226Y-114303937D01*
X84009744Y-114417205D01*
X84198102Y-114495226D01*
X84398061Y-114535000D01*
X84601939Y-114535000D01*
X84801898Y-114495226D01*
X84990256Y-114417205D01*
X85159774Y-114303937D01*
X85250000Y-114213711D01*
X85340226Y-114303937D01*
X85509744Y-114417205D01*
X85698102Y-114495226D01*
X85898061Y-114535000D01*
X86101939Y-114535000D01*
X86301898Y-114495226D01*
X86490256Y-114417205D01*
X86659774Y-114303937D01*
X86803937Y-114159774D01*
X86917205Y-113990256D01*
X86995226Y-113801898D01*
X87035000Y-113601939D01*
X87035000Y-113398061D01*
X86995226Y-113198102D01*
X86917205Y-113009744D01*
X86803937Y-112840226D01*
X86659774Y-112696063D01*
X86490256Y-112582795D01*
X86461761Y-112570992D01*
X86461761Y-111696314D01*
X86505698Y-111652377D01*
X86618966Y-111482859D01*
X86696987Y-111294501D01*
X86700755Y-111275557D01*
X86901527Y-111476329D01*
X86860613Y-111537562D01*
X86782592Y-111725920D01*
X86742818Y-111925879D01*
X86742818Y-112129757D01*
X86782592Y-112329716D01*
X86860613Y-112518074D01*
X86973881Y-112687592D01*
X87118044Y-112831755D01*
X87287562Y-112945023D01*
X87475920Y-113023044D01*
X87675879Y-113062818D01*
X87879757Y-113062818D01*
X88079716Y-113023044D01*
X88268074Y-112945023D01*
X88437592Y-112831755D01*
X88581755Y-112687592D01*
X88695023Y-112518074D01*
X88773044Y-112329716D01*
X88812818Y-112129757D01*
X88812818Y-111925879D01*
X88784745Y-111784745D01*
X88925879Y-111812818D01*
X89129757Y-111812818D01*
X89329716Y-111773044D01*
X89518074Y-111695023D01*
X89687592Y-111581755D01*
X89831755Y-111437592D01*
X89945023Y-111268074D01*
X90023044Y-111079716D01*
X90062818Y-110879757D01*
X90062818Y-110675879D01*
X90023044Y-110475920D01*
X89985383Y-110385000D01*
X91194249Y-110385000D01*
X91250000Y-110390491D01*
X91305751Y-110385000D01*
X91305752Y-110385000D01*
X91472499Y-110368577D01*
X91686447Y-110303676D01*
X91883623Y-110198284D01*
X92056449Y-110056449D01*
X92091996Y-110013135D01*
X94513141Y-107591991D01*
X94556449Y-107556449D01*
X94698284Y-107383623D01*
X94803676Y-107186447D01*
X94868577Y-106972499D01*
X94885000Y-106805752D01*
X94890491Y-106750000D01*
X94885000Y-106694249D01*
X94885000Y-106088967D01*
X99365000Y-106088967D01*
X99365000Y-106411033D01*
X99427832Y-106726912D01*
X99551082Y-107024463D01*
X99730013Y-107292252D01*
X99957748Y-107519987D01*
X100225537Y-107698918D01*
X100523088Y-107822168D01*
X100838967Y-107885000D01*
X101161033Y-107885000D01*
X101476912Y-107822168D01*
X101774463Y-107698918D01*
X102042252Y-107519987D01*
X102176826Y-107385413D01*
X105544192Y-107385413D01*
X105639956Y-107649814D01*
X105929571Y-107790704D01*
X106241108Y-107872384D01*
X106562595Y-107891718D01*
X106881675Y-107847961D01*
X107186088Y-107742795D01*
X107360044Y-107649814D01*
X107455808Y-107385413D01*
X106500000Y-106429605D01*
X105544192Y-107385413D01*
X102176826Y-107385413D01*
X102269987Y-107292252D01*
X102448918Y-107024463D01*
X102572168Y-106726912D01*
X102635000Y-106411033D01*
X102635000Y-106312595D01*
X104858282Y-106312595D01*
X104902039Y-106631675D01*
X105007205Y-106936088D01*
X105100186Y-107110044D01*
X105364587Y-107205808D01*
X106320395Y-106250000D01*
X106679605Y-106250000D01*
X107635413Y-107205808D01*
X107899814Y-107110044D01*
X108040704Y-106820429D01*
X108122384Y-106508892D01*
X108141718Y-106187405D01*
X108097961Y-105868325D01*
X107992795Y-105563912D01*
X107899814Y-105389956D01*
X107635413Y-105294192D01*
X106679605Y-106250000D01*
X106320395Y-106250000D01*
X105364587Y-105294192D01*
X105100186Y-105389956D01*
X104959296Y-105679571D01*
X104877616Y-105991108D01*
X104858282Y-106312595D01*
X102635000Y-106312595D01*
X102635000Y-106088967D01*
X102572168Y-105773088D01*
X102448918Y-105475537D01*
X102269987Y-105207748D01*
X102176826Y-105114587D01*
X105544192Y-105114587D01*
X106500000Y-106070395D01*
X107455808Y-105114587D01*
X107360044Y-104850186D01*
X107070429Y-104709296D01*
X106758892Y-104627616D01*
X106437405Y-104608282D01*
X106118325Y-104652039D01*
X105813912Y-104757205D01*
X105639956Y-104850186D01*
X105544192Y-105114587D01*
X102176826Y-105114587D01*
X102042252Y-104980013D01*
X101774463Y-104801082D01*
X101476912Y-104677832D01*
X101161033Y-104615000D01*
X100838967Y-104615000D01*
X100523088Y-104677832D01*
X100225537Y-104801082D01*
X99957748Y-104980013D01*
X99730013Y-105207748D01*
X99551082Y-105475537D01*
X99427832Y-105773088D01*
X99365000Y-106088967D01*
X94885000Y-106088967D01*
X94885000Y-97098061D01*
X100965000Y-97098061D01*
X100965000Y-97301939D01*
X101004774Y-97501898D01*
X101082795Y-97690256D01*
X101196063Y-97859774D01*
X101240001Y-97903712D01*
X101240000Y-101896289D01*
X101196063Y-101940226D01*
X101082795Y-102109744D01*
X101004774Y-102298102D01*
X100965000Y-102498061D01*
X100965000Y-102701939D01*
X101004774Y-102901898D01*
X101082795Y-103090256D01*
X101196063Y-103259774D01*
X101340226Y-103403937D01*
X101509744Y-103517205D01*
X101698102Y-103595226D01*
X101898061Y-103635000D01*
X102101939Y-103635000D01*
X102301898Y-103595226D01*
X102490256Y-103517205D01*
X102659774Y-103403937D01*
X102803937Y-103259774D01*
X102813957Y-103244778D01*
X102832795Y-103290256D01*
X102946063Y-103459774D01*
X103090226Y-103603937D01*
X103259744Y-103717205D01*
X103448102Y-103795226D01*
X103648061Y-103835000D01*
X103851939Y-103835000D01*
X104051898Y-103795226D01*
X104240256Y-103717205D01*
X104375000Y-103627172D01*
X104509744Y-103717205D01*
X104698102Y-103795226D01*
X104898061Y-103835000D01*
X105101939Y-103835000D01*
X105301898Y-103795226D01*
X105490256Y-103717205D01*
X105659774Y-103603937D01*
X105803937Y-103459774D01*
X105917205Y-103290256D01*
X105995226Y-103101898D01*
X106035000Y-102901939D01*
X106035000Y-102698061D01*
X105995226Y-102498102D01*
X105917205Y-102309744D01*
X105803937Y-102140226D01*
X105760000Y-102096289D01*
X105760000Y-98070604D01*
X105859774Y-98003937D01*
X106003937Y-97859774D01*
X106117205Y-97690256D01*
X106195226Y-97501898D01*
X106235000Y-97301939D01*
X106235000Y-97098061D01*
X106195226Y-96898102D01*
X106117205Y-96709744D01*
X106003937Y-96540226D01*
X105859774Y-96396063D01*
X105690256Y-96282795D01*
X105501898Y-96204774D01*
X105301939Y-96165000D01*
X105098061Y-96165000D01*
X104898102Y-96204774D01*
X104709744Y-96282795D01*
X104540226Y-96396063D01*
X104400000Y-96536289D01*
X104259774Y-96396063D01*
X104090256Y-96282795D01*
X103901898Y-96204774D01*
X103701939Y-96165000D01*
X103498061Y-96165000D01*
X103298102Y-96204774D01*
X103109744Y-96282795D01*
X102940226Y-96396063D01*
X102800000Y-96536289D01*
X102659774Y-96396063D01*
X102490256Y-96282795D01*
X102301898Y-96204774D01*
X102101939Y-96165000D01*
X101898061Y-96165000D01*
X101698102Y-96204774D01*
X101509744Y-96282795D01*
X101340226Y-96396063D01*
X101196063Y-96540226D01*
X101082795Y-96709744D01*
X101004774Y-96898102D01*
X100965000Y-97098061D01*
X94885000Y-97098061D01*
X94885000Y-93838967D01*
X99365000Y-93838967D01*
X99365000Y-94161033D01*
X99427832Y-94476912D01*
X99551082Y-94774463D01*
X99730013Y-95042252D01*
X99957748Y-95269987D01*
X100225537Y-95448918D01*
X100523088Y-95572168D01*
X100838967Y-95635000D01*
X101161033Y-95635000D01*
X101476912Y-95572168D01*
X101774463Y-95448918D01*
X102042252Y-95269987D01*
X102176826Y-95135413D01*
X105544192Y-95135413D01*
X105639956Y-95399814D01*
X105929571Y-95540704D01*
X106241108Y-95622384D01*
X106562595Y-95641718D01*
X106881675Y-95597961D01*
X107186088Y-95492795D01*
X107360044Y-95399814D01*
X107455808Y-95135413D01*
X106500000Y-94179605D01*
X105544192Y-95135413D01*
X102176826Y-95135413D01*
X102269987Y-95042252D01*
X102448918Y-94774463D01*
X102572168Y-94476912D01*
X102635000Y-94161033D01*
X102635000Y-94062595D01*
X104858282Y-94062595D01*
X104902039Y-94381675D01*
X105007205Y-94686088D01*
X105100186Y-94860044D01*
X105364587Y-94955808D01*
X106320395Y-94000000D01*
X106679605Y-94000000D01*
X107635413Y-94955808D01*
X107899814Y-94860044D01*
X108040704Y-94570429D01*
X108122384Y-94258892D01*
X108141718Y-93937405D01*
X108097961Y-93618325D01*
X107992795Y-93313912D01*
X107899814Y-93139956D01*
X107635413Y-93044192D01*
X106679605Y-94000000D01*
X106320395Y-94000000D01*
X105364587Y-93044192D01*
X105100186Y-93139956D01*
X104959296Y-93429571D01*
X104877616Y-93741108D01*
X104858282Y-94062595D01*
X102635000Y-94062595D01*
X102635000Y-93838967D01*
X102572168Y-93523088D01*
X102448918Y-93225537D01*
X102269987Y-92957748D01*
X102176826Y-92864587D01*
X105544192Y-92864587D01*
X106500000Y-93820395D01*
X107455808Y-92864587D01*
X107360044Y-92600186D01*
X107070429Y-92459296D01*
X106758892Y-92377616D01*
X106437405Y-92358282D01*
X106118325Y-92402039D01*
X105813912Y-92507205D01*
X105639956Y-92600186D01*
X105544192Y-92864587D01*
X102176826Y-92864587D01*
X102042252Y-92730013D01*
X101774463Y-92551082D01*
X101476912Y-92427832D01*
X101161033Y-92365000D01*
X100838967Y-92365000D01*
X100523088Y-92427832D01*
X100225537Y-92551082D01*
X99957748Y-92730013D01*
X99730013Y-92957748D01*
X99551082Y-93225537D01*
X99427832Y-93523088D01*
X99365000Y-93838967D01*
X94885000Y-93838967D01*
X94885000Y-85298061D01*
X102715000Y-85298061D01*
X102715000Y-85501939D01*
X102754774Y-85701898D01*
X102832795Y-85890256D01*
X102946063Y-86059774D01*
X102990000Y-86103711D01*
X102990001Y-90096288D01*
X102946063Y-90140226D01*
X102832795Y-90309744D01*
X102754774Y-90498102D01*
X102715000Y-90698061D01*
X102715000Y-90901939D01*
X102754774Y-91101898D01*
X102832795Y-91290256D01*
X102946063Y-91459774D01*
X103090226Y-91603937D01*
X103259744Y-91717205D01*
X103448102Y-91795226D01*
X103648061Y-91835000D01*
X103851939Y-91835000D01*
X104051898Y-91795226D01*
X104240256Y-91717205D01*
X104374502Y-91627505D01*
X104396063Y-91659774D01*
X104540226Y-91803937D01*
X104709744Y-91917205D01*
X104898102Y-91995226D01*
X105098061Y-92035000D01*
X105301939Y-92035000D01*
X105501898Y-91995226D01*
X105690256Y-91917205D01*
X105859774Y-91803937D01*
X106003937Y-91659774D01*
X106117205Y-91490256D01*
X106195226Y-91301898D01*
X106235000Y-91101939D01*
X106235000Y-90898061D01*
X106195226Y-90698102D01*
X106117205Y-90509744D01*
X106003937Y-90340226D01*
X105960000Y-90296289D01*
X105960000Y-85703711D01*
X106003937Y-85659774D01*
X106117205Y-85490256D01*
X106195226Y-85301898D01*
X106235000Y-85101939D01*
X106235000Y-84898061D01*
X106195226Y-84698102D01*
X106117205Y-84509744D01*
X106003937Y-84340226D01*
X105859774Y-84196063D01*
X105690256Y-84082795D01*
X105501898Y-84004774D01*
X105301939Y-83965000D01*
X105098061Y-83965000D01*
X104898102Y-84004774D01*
X104709744Y-84082795D01*
X104540226Y-84196063D01*
X104396063Y-84340226D01*
X104282795Y-84509744D01*
X104282317Y-84510899D01*
X104240256Y-84482795D01*
X104051898Y-84404774D01*
X103851939Y-84365000D01*
X103648061Y-84365000D01*
X103448102Y-84404774D01*
X103259744Y-84482795D01*
X103090226Y-84596063D01*
X102946063Y-84740226D01*
X102832795Y-84909744D01*
X102754774Y-85098102D01*
X102715000Y-85298061D01*
X94885000Y-85298061D01*
X94885000Y-83171868D01*
X94938676Y-83071447D01*
X95003577Y-82857499D01*
X95020000Y-82690752D01*
X95020000Y-82690751D01*
X95025491Y-82635000D01*
X95020000Y-82579248D01*
X95020000Y-81838967D01*
X99365000Y-81838967D01*
X99365000Y-82161033D01*
X99427832Y-82476912D01*
X99551082Y-82774463D01*
X99730013Y-83042252D01*
X99957748Y-83269987D01*
X100225537Y-83448918D01*
X100523088Y-83572168D01*
X100838967Y-83635000D01*
X101161033Y-83635000D01*
X101476912Y-83572168D01*
X101774463Y-83448918D01*
X102042252Y-83269987D01*
X102176826Y-83135413D01*
X105544192Y-83135413D01*
X105639956Y-83399814D01*
X105929571Y-83540704D01*
X106241108Y-83622384D01*
X106562595Y-83641718D01*
X106881675Y-83597961D01*
X107186088Y-83492795D01*
X107360044Y-83399814D01*
X107455808Y-83135413D01*
X106500000Y-82179605D01*
X105544192Y-83135413D01*
X102176826Y-83135413D01*
X102269987Y-83042252D01*
X102448918Y-82774463D01*
X102572168Y-82476912D01*
X102635000Y-82161033D01*
X102635000Y-82062595D01*
X104858282Y-82062595D01*
X104902039Y-82381675D01*
X105007205Y-82686088D01*
X105100186Y-82860044D01*
X105364587Y-82955808D01*
X106320395Y-82000000D01*
X106679605Y-82000000D01*
X107635413Y-82955808D01*
X107899814Y-82860044D01*
X108040704Y-82570429D01*
X108122384Y-82258892D01*
X108141718Y-81937405D01*
X108128219Y-81838967D01*
X110615000Y-81838967D01*
X110615000Y-82161033D01*
X110677832Y-82476912D01*
X110801082Y-82774463D01*
X110980013Y-83042252D01*
X111207748Y-83269987D01*
X111475537Y-83448918D01*
X111773088Y-83572168D01*
X112088967Y-83635000D01*
X112411033Y-83635000D01*
X112596525Y-83598104D01*
X112654952Y-83656531D01*
X112654958Y-83656536D01*
X112815002Y-83816580D01*
X112815002Y-86464320D01*
X112726912Y-86427832D01*
X112411033Y-86365000D01*
X112088967Y-86365000D01*
X111773088Y-86427832D01*
X111475537Y-86551082D01*
X111207748Y-86730013D01*
X110980013Y-86957748D01*
X110801082Y-87225537D01*
X110677832Y-87523088D01*
X110615000Y-87838967D01*
X110615000Y-88161033D01*
X110677832Y-88476912D01*
X110801082Y-88774463D01*
X110980013Y-89042252D01*
X111207748Y-89269987D01*
X111475537Y-89448918D01*
X111773088Y-89572168D01*
X112088967Y-89635000D01*
X112411033Y-89635000D01*
X112726912Y-89572168D01*
X112815001Y-89535680D01*
X112815001Y-92183420D01*
X112596525Y-92401896D01*
X112411033Y-92365000D01*
X112088967Y-92365000D01*
X111773088Y-92427832D01*
X111475537Y-92551082D01*
X111207748Y-92730013D01*
X110980013Y-92957748D01*
X110801082Y-93225537D01*
X110677832Y-93523088D01*
X110615000Y-93838967D01*
X110615000Y-94161033D01*
X110677832Y-94476912D01*
X110801082Y-94774463D01*
X110980013Y-95042252D01*
X111207748Y-95269987D01*
X111475537Y-95448918D01*
X111773088Y-95572168D01*
X112088967Y-95635000D01*
X112411033Y-95635000D01*
X112596525Y-95598104D01*
X112654952Y-95656531D01*
X112654958Y-95656536D01*
X112815002Y-95816580D01*
X112815002Y-98464320D01*
X112726912Y-98427832D01*
X112411033Y-98365000D01*
X112088967Y-98365000D01*
X111773088Y-98427832D01*
X111475537Y-98551082D01*
X111207748Y-98730013D01*
X110980013Y-98957748D01*
X110801082Y-99225537D01*
X110677832Y-99523088D01*
X110615000Y-99838967D01*
X110615000Y-100161033D01*
X110677832Y-100476912D01*
X110801082Y-100774463D01*
X110980013Y-101042252D01*
X111207748Y-101269987D01*
X111475537Y-101448918D01*
X111773088Y-101572168D01*
X112088967Y-101635000D01*
X112411033Y-101635000D01*
X112726912Y-101572168D01*
X112815001Y-101535680D01*
X112815001Y-104433420D01*
X112596525Y-104651896D01*
X112411033Y-104615000D01*
X112088967Y-104615000D01*
X111773088Y-104677832D01*
X111475537Y-104801082D01*
X111207748Y-104980013D01*
X110980013Y-105207748D01*
X110801082Y-105475537D01*
X110677832Y-105773088D01*
X110615000Y-106088967D01*
X110615000Y-106411033D01*
X110677832Y-106726912D01*
X110801082Y-107024463D01*
X110980013Y-107292252D01*
X111207748Y-107519987D01*
X111475537Y-107698918D01*
X111773088Y-107822168D01*
X112088967Y-107885000D01*
X112411033Y-107885000D01*
X112726912Y-107822168D01*
X113024463Y-107698918D01*
X113292252Y-107519987D01*
X113519987Y-107292252D01*
X113698918Y-107024463D01*
X113822168Y-106726912D01*
X113885000Y-106411033D01*
X113885000Y-106088967D01*
X113848104Y-105903475D01*
X114295051Y-105456528D01*
X114328818Y-105428816D01*
X114439412Y-105294058D01*
X114521590Y-105140312D01*
X114572196Y-104973489D01*
X114585001Y-104843476D01*
X114585001Y-104843466D01*
X114589282Y-104800000D01*
X114585001Y-104756533D01*
X114585001Y-95493470D01*
X114589282Y-95450001D01*
X114585001Y-95406532D01*
X114585001Y-95406524D01*
X114572196Y-95276511D01*
X114521590Y-95109688D01*
X114439412Y-94955942D01*
X114328818Y-94821184D01*
X114295045Y-94793467D01*
X113906536Y-94404958D01*
X113906531Y-94404952D01*
X113848104Y-94346525D01*
X113885000Y-94161033D01*
X113885000Y-93838967D01*
X113848104Y-93653475D01*
X114295051Y-93206528D01*
X114328818Y-93178816D01*
X114439412Y-93044058D01*
X114521590Y-92890312D01*
X114572196Y-92723489D01*
X114585001Y-92593476D01*
X114585001Y-92593466D01*
X114589282Y-92550000D01*
X114585001Y-92506533D01*
X114585001Y-83493470D01*
X114589282Y-83450001D01*
X114585001Y-83406532D01*
X114585001Y-83406524D01*
X114572196Y-83276511D01*
X114521590Y-83109688D01*
X114439412Y-82955942D01*
X114328818Y-82821184D01*
X114295045Y-82793467D01*
X113906536Y-82404958D01*
X113906531Y-82404952D01*
X113848104Y-82346525D01*
X113885000Y-82161033D01*
X113885000Y-81838967D01*
X113822168Y-81523088D01*
X113698918Y-81225537D01*
X113519987Y-80957748D01*
X113292252Y-80730013D01*
X113024463Y-80551082D01*
X112726912Y-80427832D01*
X112411033Y-80365000D01*
X112088967Y-80365000D01*
X111773088Y-80427832D01*
X111475537Y-80551082D01*
X111207748Y-80730013D01*
X110980013Y-80957748D01*
X110801082Y-81225537D01*
X110677832Y-81523088D01*
X110615000Y-81838967D01*
X108128219Y-81838967D01*
X108097961Y-81618325D01*
X107992795Y-81313912D01*
X107899814Y-81139956D01*
X107635413Y-81044192D01*
X106679605Y-82000000D01*
X106320395Y-82000000D01*
X105364587Y-81044192D01*
X105100186Y-81139956D01*
X104959296Y-81429571D01*
X104877616Y-81741108D01*
X104858282Y-82062595D01*
X102635000Y-82062595D01*
X102635000Y-81838967D01*
X102572168Y-81523088D01*
X102448918Y-81225537D01*
X102269987Y-80957748D01*
X102176826Y-80864587D01*
X105544192Y-80864587D01*
X106500000Y-81820395D01*
X107455808Y-80864587D01*
X107360044Y-80600186D01*
X107070429Y-80459296D01*
X106758892Y-80377616D01*
X106437405Y-80358282D01*
X106118325Y-80402039D01*
X105813912Y-80507205D01*
X105639956Y-80600186D01*
X105544192Y-80864587D01*
X102176826Y-80864587D01*
X102042252Y-80730013D01*
X101774463Y-80551082D01*
X101476912Y-80427832D01*
X101161033Y-80365000D01*
X100838967Y-80365000D01*
X100523088Y-80427832D01*
X100225537Y-80551082D01*
X99957748Y-80730013D01*
X99730013Y-80957748D01*
X99551082Y-81225537D01*
X99427832Y-81523088D01*
X99365000Y-81838967D01*
X95020000Y-81838967D01*
X95020000Y-79098061D01*
X103715000Y-79098061D01*
X103715000Y-79301939D01*
X103754774Y-79501898D01*
X103832795Y-79690256D01*
X103946063Y-79859774D01*
X104090226Y-80003937D01*
X104259744Y-80117205D01*
X104448102Y-80195226D01*
X104648061Y-80235000D01*
X104851939Y-80235000D01*
X105051898Y-80195226D01*
X105240256Y-80117205D01*
X105409774Y-80003937D01*
X105553937Y-79859774D01*
X105667205Y-79690256D01*
X105745226Y-79501898D01*
X105785000Y-79301939D01*
X105785000Y-79098061D01*
X105745226Y-78898102D01*
X105667205Y-78709744D01*
X105553937Y-78540226D01*
X105515654Y-78501943D01*
X105537129Y-75838967D01*
X110615000Y-75838967D01*
X110615000Y-76161033D01*
X110677832Y-76476912D01*
X110801082Y-76774463D01*
X110980013Y-77042252D01*
X111207748Y-77269987D01*
X111475537Y-77448918D01*
X111773088Y-77572168D01*
X112088967Y-77635000D01*
X112411033Y-77635000D01*
X112726912Y-77572168D01*
X113024463Y-77448918D01*
X113292252Y-77269987D01*
X113519987Y-77042252D01*
X113698918Y-76774463D01*
X113822168Y-76476912D01*
X113885000Y-76161033D01*
X113885000Y-75838967D01*
X113822168Y-75523088D01*
X113698918Y-75225537D01*
X113519987Y-74957748D01*
X113292252Y-74730013D01*
X113024463Y-74551082D01*
X112726912Y-74427832D01*
X112411033Y-74365000D01*
X112088967Y-74365000D01*
X111773088Y-74427832D01*
X111475537Y-74551082D01*
X111207748Y-74730013D01*
X110980013Y-74957748D01*
X110801082Y-75225537D01*
X110677832Y-75523088D01*
X110615000Y-75838967D01*
X105537129Y-75838967D01*
X105554303Y-73709408D01*
X105603937Y-73659774D01*
X105717205Y-73490256D01*
X105795226Y-73301898D01*
X105835000Y-73101939D01*
X105835000Y-72898061D01*
X105795226Y-72698102D01*
X105717205Y-72509744D01*
X105603937Y-72340226D01*
X105459774Y-72196063D01*
X105290256Y-72082795D01*
X105101898Y-72004774D01*
X104901939Y-71965000D01*
X104698061Y-71965000D01*
X104498102Y-72004774D01*
X104309744Y-72082795D01*
X104140226Y-72196063D01*
X103996063Y-72340226D01*
X103882795Y-72509744D01*
X103804774Y-72698102D01*
X103765000Y-72898061D01*
X103765000Y-73101939D01*
X103804774Y-73301898D01*
X103882795Y-73490256D01*
X103996063Y-73659774D01*
X104034346Y-73698057D01*
X103995697Y-78490592D01*
X103946063Y-78540226D01*
X103832795Y-78709744D01*
X103754774Y-78898102D01*
X103715000Y-79098061D01*
X95020000Y-79098061D01*
X95020000Y-66108000D01*
X118603928Y-66108000D01*
X118616188Y-66232482D01*
X118652498Y-66352180D01*
X118711463Y-66462494D01*
X118790815Y-66559185D01*
X118887506Y-66638537D01*
X118997820Y-66697502D01*
X119117518Y-66733812D01*
X119242000Y-66746072D01*
X121714250Y-66743000D01*
X121873000Y-66584250D01*
X121873000Y-63477000D01*
X122127000Y-63477000D01*
X122127000Y-66584250D01*
X122285750Y-66743000D01*
X124758000Y-66746072D01*
X124882482Y-66733812D01*
X125002180Y-66697502D01*
X125112494Y-66638537D01*
X125209185Y-66559185D01*
X125288537Y-66462494D01*
X125347502Y-66352180D01*
X125383812Y-66232482D01*
X125396072Y-66108000D01*
X125393000Y-63635750D01*
X125234250Y-63477000D01*
X122127000Y-63477000D01*
X121873000Y-63477000D01*
X118765750Y-63477000D01*
X118607000Y-63635750D01*
X118603928Y-66108000D01*
X95020000Y-66108000D01*
X95020000Y-63585131D01*
X95091988Y-63513143D01*
X95198283Y-63383622D01*
X95303676Y-63186446D01*
X95368577Y-62972499D01*
X95390491Y-62750000D01*
X95368577Y-62527502D01*
X95303676Y-62313554D01*
X95198283Y-62116378D01*
X95175788Y-62088967D01*
X99365000Y-62088967D01*
X99365000Y-62411033D01*
X99427832Y-62726912D01*
X99551082Y-63024463D01*
X99730013Y-63292252D01*
X99957748Y-63519987D01*
X100225537Y-63698918D01*
X100523088Y-63822168D01*
X100838967Y-63885000D01*
X101161033Y-63885000D01*
X101476912Y-63822168D01*
X101774463Y-63698918D01*
X102042252Y-63519987D01*
X102176826Y-63385413D01*
X105544192Y-63385413D01*
X105639956Y-63649814D01*
X105929571Y-63790704D01*
X106241108Y-63872384D01*
X106562595Y-63891718D01*
X106881675Y-63847961D01*
X107186088Y-63742795D01*
X107360044Y-63649814D01*
X107455808Y-63385413D01*
X106500000Y-62429605D01*
X105544192Y-63385413D01*
X102176826Y-63385413D01*
X102269987Y-63292252D01*
X102448918Y-63024463D01*
X102572168Y-62726912D01*
X102635000Y-62411033D01*
X102635000Y-62312595D01*
X104858282Y-62312595D01*
X104902039Y-62631675D01*
X105007205Y-62936088D01*
X105100186Y-63110044D01*
X105364587Y-63205808D01*
X106320395Y-62250000D01*
X106679605Y-62250000D01*
X107635413Y-63205808D01*
X107899814Y-63110044D01*
X108040704Y-62820429D01*
X108122384Y-62508892D01*
X108141718Y-62187405D01*
X108097961Y-61868325D01*
X107992795Y-61563912D01*
X107899814Y-61389956D01*
X107635413Y-61294192D01*
X106679605Y-62250000D01*
X106320395Y-62250000D01*
X105364587Y-61294192D01*
X105100186Y-61389956D01*
X104959296Y-61679571D01*
X104877616Y-61991108D01*
X104858282Y-62312595D01*
X102635000Y-62312595D01*
X102635000Y-62088967D01*
X102572168Y-61773088D01*
X102448918Y-61475537D01*
X102269987Y-61207748D01*
X102176826Y-61114587D01*
X105544192Y-61114587D01*
X106500000Y-62070395D01*
X107455808Y-61114587D01*
X107360044Y-60850186D01*
X107070429Y-60709296D01*
X106758892Y-60627616D01*
X106437405Y-60608282D01*
X106118325Y-60652039D01*
X105813912Y-60757205D01*
X105639956Y-60850186D01*
X105544192Y-61114587D01*
X102176826Y-61114587D01*
X102042252Y-60980013D01*
X101774463Y-60801082D01*
X101476912Y-60677832D01*
X101161033Y-60615000D01*
X100838967Y-60615000D01*
X100523088Y-60677832D01*
X100225537Y-60801082D01*
X99957748Y-60980013D01*
X99730013Y-61207748D01*
X99551082Y-61475537D01*
X99427832Y-61773088D01*
X99365000Y-62088967D01*
X95175788Y-62088967D01*
X95056448Y-61943552D01*
X94883622Y-61801717D01*
X94686446Y-61696324D01*
X94472498Y-61631423D01*
X94250000Y-61609509D01*
X94027501Y-61631423D01*
X93813554Y-61696324D01*
X93616378Y-61801717D01*
X93486857Y-61908012D01*
X93121860Y-62273009D01*
X93078552Y-62308551D01*
X92936717Y-62481377D01*
X92922010Y-62508892D01*
X92831324Y-62678554D01*
X92766423Y-62892502D01*
X92744509Y-63115000D01*
X92750001Y-63170762D01*
X92750000Y-82233133D01*
X92696324Y-82333554D01*
X92631423Y-82547502D01*
X92609509Y-82770000D01*
X92615001Y-82825761D01*
X92615000Y-94579248D01*
X92615000Y-95379249D01*
X92615001Y-106279867D01*
X90779869Y-108115000D01*
X88944248Y-108115000D01*
X88777501Y-108131423D01*
X88563553Y-108196324D01*
X88366377Y-108301716D01*
X88193551Y-108443551D01*
X88177194Y-108463483D01*
X88131956Y-108418245D01*
X87962438Y-108304977D01*
X87774080Y-108226956D01*
X87574121Y-108187182D01*
X87370243Y-108187182D01*
X87170284Y-108226956D01*
X86981926Y-108304977D01*
X86812408Y-108418245D01*
X86668245Y-108562408D01*
X86554977Y-108731926D01*
X86476956Y-108920284D01*
X86468062Y-108965000D01*
X86398061Y-108965000D01*
X86198102Y-109004774D01*
X86009744Y-109082795D01*
X85840226Y-109196063D01*
X85696063Y-109340226D01*
X85582795Y-109509744D01*
X85504774Y-109698102D01*
X85465000Y-109898061D01*
X85465000Y-109984421D01*
X85399863Y-109997377D01*
X85211505Y-110075398D01*
X85041987Y-110188666D01*
X84924921Y-110305732D01*
X84801898Y-110254774D01*
X84601939Y-110215000D01*
X84398061Y-110215000D01*
X84198102Y-110254774D01*
X84009744Y-110332795D01*
X83840226Y-110446063D01*
X83696063Y-110590226D01*
X83582795Y-110759744D01*
X83504774Y-110948102D01*
X83465000Y-111148061D01*
X78114455Y-111148061D01*
X78044180Y-111110498D01*
X77924482Y-111074188D01*
X77800000Y-111061928D01*
X76200000Y-111061928D01*
X76075518Y-111074188D01*
X75955820Y-111110498D01*
X75845506Y-111169463D01*
X75748815Y-111248815D01*
X75669463Y-111345506D01*
X75610498Y-111455820D01*
X75574188Y-111575518D01*
X75561928Y-111700000D01*
X71888072Y-111700000D01*
X71888072Y-108750000D01*
X71875812Y-108625518D01*
X71839502Y-108505820D01*
X71780537Y-108395506D01*
X71701185Y-108298815D01*
X71604494Y-108219463D01*
X71494180Y-108160498D01*
X71374482Y-108124188D01*
X71250000Y-108111928D01*
X67750000Y-108111928D01*
X67625518Y-108124188D01*
X67505820Y-108160498D01*
X67395506Y-108219463D01*
X67298815Y-108298815D01*
X67219463Y-108395506D01*
X67160498Y-108505820D01*
X67124188Y-108625518D01*
X67111928Y-108750000D01*
X67111928Y-112250000D01*
X67124188Y-112374482D01*
X67160498Y-112494180D01*
X67219463Y-112604494D01*
X67298815Y-112701185D01*
X67395506Y-112780537D01*
X67457345Y-112813591D01*
X66785750Y-112815000D01*
X66627000Y-112973750D01*
X66373000Y-112973750D01*
X66214250Y-112815000D01*
X65542655Y-112813591D01*
X65604494Y-112780537D01*
X65701185Y-112701185D01*
X65780537Y-112604494D01*
X65839502Y-112494180D01*
X65875812Y-112374482D01*
X65888072Y-112250000D01*
X65885000Y-110785750D01*
X65726250Y-110627000D01*
X63627000Y-110627000D01*
X63373000Y-110627000D01*
X61273750Y-110627000D01*
X61115000Y-110785750D01*
X61111928Y-112250000D01*
X55910000Y-112250000D01*
X55910000Y-108750000D01*
X61111928Y-108750000D01*
X61115000Y-110214250D01*
X61273750Y-110373000D01*
X63373000Y-110373000D01*
X63373000Y-108273750D01*
X63627000Y-108273750D01*
X63627000Y-110373000D01*
X65726250Y-110373000D01*
X65885000Y-110214250D01*
X65888072Y-108750000D01*
X65875812Y-108625518D01*
X65839502Y-108505820D01*
X65780537Y-108395506D01*
X65701185Y-108298815D01*
X65604494Y-108219463D01*
X65494180Y-108160498D01*
X65374482Y-108124188D01*
X65250000Y-108111928D01*
X63785750Y-108115000D01*
X63627000Y-108273750D01*
X63373000Y-108273750D01*
X63214250Y-108115000D01*
X61750000Y-108111928D01*
X61625518Y-108124188D01*
X61505820Y-108160498D01*
X61395506Y-108219463D01*
X61298815Y-108298815D01*
X61219463Y-108395506D01*
X61160498Y-108505820D01*
X61124188Y-108625518D01*
X61111928Y-108750000D01*
X55910000Y-108750000D01*
X55910000Y-105838967D01*
X73865000Y-105838967D01*
X73865000Y-106161033D01*
X73927832Y-106476912D01*
X74051082Y-106774463D01*
X74230013Y-107042252D01*
X74457748Y-107269987D01*
X74725537Y-107448918D01*
X75023088Y-107572168D01*
X75338967Y-107635000D01*
X75661033Y-107635000D01*
X75976912Y-107572168D01*
X76274463Y-107448918D01*
X76542252Y-107269987D01*
X76676826Y-107135413D01*
X82794192Y-107135413D01*
X82889956Y-107399814D01*
X83179571Y-107540704D01*
X83491108Y-107622384D01*
X83812595Y-107641718D01*
X84131675Y-107597961D01*
X84436088Y-107492795D01*
X84610044Y-107399814D01*
X84705808Y-107135413D01*
X83750000Y-106179605D01*
X82794192Y-107135413D01*
X76676826Y-107135413D01*
X76769987Y-107042252D01*
X76948918Y-106774463D01*
X77072168Y-106476912D01*
X77135000Y-106161033D01*
X77135000Y-106062595D01*
X82108282Y-106062595D01*
X82152039Y-106381675D01*
X82257205Y-106686088D01*
X82350186Y-106860044D01*
X82614587Y-106955808D01*
X83570395Y-106000000D01*
X83929605Y-106000000D01*
X84885413Y-106955808D01*
X85149814Y-106860044D01*
X85290704Y-106570429D01*
X85372384Y-106258892D01*
X85391718Y-105937405D01*
X85347961Y-105618325D01*
X85242795Y-105313912D01*
X85149814Y-105139956D01*
X84885413Y-105044192D01*
X83929605Y-106000000D01*
X83570395Y-106000000D01*
X82614587Y-105044192D01*
X82350186Y-105139956D01*
X82209296Y-105429571D01*
X82127616Y-105741108D01*
X82108282Y-106062595D01*
X77135000Y-106062595D01*
X77135000Y-105838967D01*
X77072168Y-105523088D01*
X76948918Y-105225537D01*
X76769987Y-104957748D01*
X76676826Y-104864587D01*
X82794192Y-104864587D01*
X83750000Y-105820395D01*
X84705808Y-104864587D01*
X84610044Y-104600186D01*
X84320429Y-104459296D01*
X84008892Y-104377616D01*
X83687405Y-104358282D01*
X83368325Y-104402039D01*
X83063912Y-104507205D01*
X82889956Y-104600186D01*
X82794192Y-104864587D01*
X76676826Y-104864587D01*
X76542252Y-104730013D01*
X76274463Y-104551082D01*
X75976912Y-104427832D01*
X75661033Y-104365000D01*
X75338967Y-104365000D01*
X75023088Y-104427832D01*
X74725537Y-104551082D01*
X74457748Y-104730013D01*
X74230013Y-104957748D01*
X74051082Y-105225537D01*
X73927832Y-105523088D01*
X73865000Y-105838967D01*
X55910000Y-105838967D01*
X55910000Y-97098061D01*
X80965000Y-97098061D01*
X80965000Y-97301939D01*
X81004774Y-97501898D01*
X81082795Y-97690256D01*
X81196063Y-97859774D01*
X81240001Y-97903712D01*
X81240000Y-102896289D01*
X81196063Y-102940226D01*
X81082795Y-103109744D01*
X81004774Y-103298102D01*
X80965000Y-103498061D01*
X80965000Y-103701939D01*
X81004774Y-103901898D01*
X81082795Y-104090256D01*
X81196063Y-104259774D01*
X81340226Y-104403937D01*
X81509744Y-104517205D01*
X81698102Y-104595226D01*
X81898061Y-104635000D01*
X82101939Y-104635000D01*
X82301898Y-104595226D01*
X82490256Y-104517205D01*
X82659774Y-104403937D01*
X82803937Y-104259774D01*
X82917205Y-104090256D01*
X82995226Y-103901898D01*
X83005973Y-103847868D01*
X83109744Y-103917205D01*
X83298102Y-103995226D01*
X83498061Y-104035000D01*
X83701939Y-104035000D01*
X83901898Y-103995226D01*
X84090256Y-103917205D01*
X84259774Y-103803937D01*
X84399998Y-103663713D01*
X84540222Y-103803937D01*
X84709740Y-103917205D01*
X84898098Y-103995226D01*
X85098057Y-104035000D01*
X85301935Y-104035000D01*
X85501894Y-103995226D01*
X85690252Y-103917205D01*
X85859770Y-103803937D01*
X86003933Y-103659774D01*
X86117201Y-103490256D01*
X86195222Y-103301898D01*
X86234996Y-103101939D01*
X86234996Y-102898061D01*
X86195222Y-102698102D01*
X86117201Y-102509744D01*
X86010000Y-102349306D01*
X86010000Y-97903711D01*
X86053937Y-97859774D01*
X86167205Y-97690256D01*
X86245226Y-97501898D01*
X86285000Y-97301939D01*
X86285000Y-97098061D01*
X86245226Y-96898102D01*
X86167205Y-96709744D01*
X86053937Y-96540226D01*
X85909774Y-96396063D01*
X85740256Y-96282795D01*
X85551898Y-96204774D01*
X85351939Y-96165000D01*
X85148061Y-96165000D01*
X84948102Y-96204774D01*
X84759744Y-96282795D01*
X84590226Y-96396063D01*
X84446063Y-96540226D01*
X84424997Y-96571754D01*
X84403931Y-96540226D01*
X84259768Y-96396063D01*
X84090250Y-96282795D01*
X83901892Y-96204774D01*
X83701933Y-96165000D01*
X83498055Y-96165000D01*
X83298096Y-96204774D01*
X83109738Y-96282795D01*
X82940220Y-96396063D01*
X82799997Y-96536286D01*
X82659774Y-96396063D01*
X82490256Y-96282795D01*
X82301898Y-96204774D01*
X82101939Y-96165000D01*
X81898061Y-96165000D01*
X81698102Y-96204774D01*
X81509744Y-96282795D01*
X81340226Y-96396063D01*
X81196063Y-96540226D01*
X81082795Y-96709744D01*
X81004774Y-96898102D01*
X80965000Y-97098061D01*
X55910000Y-97098061D01*
X55910000Y-93838967D01*
X73615000Y-93838967D01*
X73615000Y-94161033D01*
X73677832Y-94476912D01*
X73801082Y-94774463D01*
X73980013Y-95042252D01*
X74207748Y-95269987D01*
X74475537Y-95448918D01*
X74773088Y-95572168D01*
X75088967Y-95635000D01*
X75411033Y-95635000D01*
X75726912Y-95572168D01*
X76024463Y-95448918D01*
X76292252Y-95269987D01*
X76426826Y-95135413D01*
X82794192Y-95135413D01*
X82889956Y-95399814D01*
X83179571Y-95540704D01*
X83491108Y-95622384D01*
X83812595Y-95641718D01*
X84131675Y-95597961D01*
X84436088Y-95492795D01*
X84610044Y-95399814D01*
X84705808Y-95135413D01*
X83750000Y-94179605D01*
X82794192Y-95135413D01*
X76426826Y-95135413D01*
X76519987Y-95042252D01*
X76698918Y-94774463D01*
X76822168Y-94476912D01*
X76885000Y-94161033D01*
X76885000Y-94062595D01*
X82108282Y-94062595D01*
X82152039Y-94381675D01*
X82257205Y-94686088D01*
X82350186Y-94860044D01*
X82614587Y-94955808D01*
X83570395Y-94000000D01*
X83929605Y-94000000D01*
X84885413Y-94955808D01*
X85149814Y-94860044D01*
X85290704Y-94570429D01*
X85372384Y-94258892D01*
X85391718Y-93937405D01*
X85347961Y-93618325D01*
X85242795Y-93313912D01*
X85149814Y-93139956D01*
X84885413Y-93044192D01*
X83929605Y-94000000D01*
X83570395Y-94000000D01*
X82614587Y-93044192D01*
X82350186Y-93139956D01*
X82209296Y-93429571D01*
X82127616Y-93741108D01*
X82108282Y-94062595D01*
X76885000Y-94062595D01*
X76885000Y-93838967D01*
X76822168Y-93523088D01*
X76698918Y-93225537D01*
X76519987Y-92957748D01*
X76426826Y-92864587D01*
X82794192Y-92864587D01*
X83750000Y-93820395D01*
X84705808Y-92864587D01*
X84610044Y-92600186D01*
X84320429Y-92459296D01*
X84008892Y-92377616D01*
X83687405Y-92358282D01*
X83368325Y-92402039D01*
X83063912Y-92507205D01*
X82889956Y-92600186D01*
X82794192Y-92864587D01*
X76426826Y-92864587D01*
X76292252Y-92730013D01*
X76024463Y-92551082D01*
X75726912Y-92427832D01*
X75411033Y-92365000D01*
X75088967Y-92365000D01*
X74773088Y-92427832D01*
X74475537Y-92551082D01*
X74207748Y-92730013D01*
X73980013Y-92957748D01*
X73801082Y-93225537D01*
X73677832Y-93523088D01*
X73615000Y-93838967D01*
X55910000Y-93838967D01*
X55910000Y-85298061D01*
X80465000Y-85298061D01*
X80465000Y-85501939D01*
X80504774Y-85701898D01*
X80582795Y-85890256D01*
X80696063Y-86059774D01*
X80740000Y-86103711D01*
X80740001Y-89896288D01*
X80696063Y-89940226D01*
X80582795Y-90109744D01*
X80504774Y-90298102D01*
X80465000Y-90498061D01*
X80465000Y-90701939D01*
X80504774Y-90901898D01*
X80582795Y-91090256D01*
X80696063Y-91259774D01*
X80840226Y-91403937D01*
X81009744Y-91517205D01*
X81198102Y-91595226D01*
X81398061Y-91635000D01*
X81601939Y-91635000D01*
X81801898Y-91595226D01*
X81990256Y-91517205D01*
X82159774Y-91403937D01*
X82303937Y-91259774D01*
X82417205Y-91090256D01*
X82495226Y-90901898D01*
X82535000Y-90701939D01*
X82535000Y-90498061D01*
X84215000Y-90498061D01*
X84215000Y-90701939D01*
X84254774Y-90901898D01*
X84332795Y-91090256D01*
X84446063Y-91259774D01*
X84590226Y-91403937D01*
X84759744Y-91517205D01*
X84948102Y-91595226D01*
X85148061Y-91635000D01*
X85351939Y-91635000D01*
X85551898Y-91595226D01*
X85740256Y-91517205D01*
X85909774Y-91403937D01*
X86053937Y-91259774D01*
X86167205Y-91090256D01*
X86245226Y-90901898D01*
X86285000Y-90701939D01*
X86285000Y-90498061D01*
X86245226Y-90298102D01*
X86167205Y-90109744D01*
X86053937Y-89940226D01*
X86010004Y-89896293D01*
X86010004Y-86103711D01*
X86053941Y-86059774D01*
X86167209Y-85890256D01*
X86245230Y-85701898D01*
X86285004Y-85501939D01*
X86285004Y-85298061D01*
X86245230Y-85098102D01*
X86167209Y-84909744D01*
X86053941Y-84740226D01*
X85909778Y-84596063D01*
X85740260Y-84482795D01*
X85551902Y-84404774D01*
X85351943Y-84365000D01*
X85148065Y-84365000D01*
X84948106Y-84404774D01*
X84759748Y-84482795D01*
X84590230Y-84596063D01*
X84446067Y-84740226D01*
X84332799Y-84909744D01*
X84254778Y-85098102D01*
X84215004Y-85298061D01*
X84215004Y-85501939D01*
X84254778Y-85701898D01*
X84332799Y-85890256D01*
X84446067Y-86059774D01*
X84490004Y-86103711D01*
X84490005Y-89896284D01*
X84446063Y-89940226D01*
X84332795Y-90109744D01*
X84254774Y-90298102D01*
X84215000Y-90498061D01*
X82535000Y-90498061D01*
X82495226Y-90298102D01*
X82417205Y-90109744D01*
X82303937Y-89940226D01*
X82260000Y-89896289D01*
X82260000Y-86103711D01*
X82303937Y-86059774D01*
X82417205Y-85890256D01*
X82495226Y-85701898D01*
X82535000Y-85501939D01*
X82535000Y-85298061D01*
X82495226Y-85098102D01*
X82417205Y-84909744D01*
X82303937Y-84740226D01*
X82159774Y-84596063D01*
X81990256Y-84482795D01*
X81801898Y-84404774D01*
X81601939Y-84365000D01*
X81398061Y-84365000D01*
X81198102Y-84404774D01*
X81009744Y-84482795D01*
X80840226Y-84596063D01*
X80696063Y-84740226D01*
X80582795Y-84909744D01*
X80504774Y-85098102D01*
X80465000Y-85298061D01*
X55910000Y-85298061D01*
X55910000Y-81838967D01*
X73615000Y-81838967D01*
X73615000Y-82161033D01*
X73677832Y-82476912D01*
X73801082Y-82774463D01*
X73980013Y-83042252D01*
X74207748Y-83269987D01*
X74475537Y-83448918D01*
X74773088Y-83572168D01*
X75088967Y-83635000D01*
X75411033Y-83635000D01*
X75726912Y-83572168D01*
X76024463Y-83448918D01*
X76292252Y-83269987D01*
X76426826Y-83135413D01*
X82794192Y-83135413D01*
X82889956Y-83399814D01*
X83179571Y-83540704D01*
X83491108Y-83622384D01*
X83812595Y-83641718D01*
X84131675Y-83597961D01*
X84436088Y-83492795D01*
X84610044Y-83399814D01*
X84705808Y-83135413D01*
X83750000Y-82179605D01*
X82794192Y-83135413D01*
X76426826Y-83135413D01*
X76519987Y-83042252D01*
X76698918Y-82774463D01*
X76822168Y-82476912D01*
X76885000Y-82161033D01*
X76885000Y-82062595D01*
X82108282Y-82062595D01*
X82152039Y-82381675D01*
X82257205Y-82686088D01*
X82350186Y-82860044D01*
X82614587Y-82955808D01*
X83570395Y-82000000D01*
X83929605Y-82000000D01*
X84885413Y-82955808D01*
X85149814Y-82860044D01*
X85290704Y-82570429D01*
X85372384Y-82258892D01*
X85391718Y-81937405D01*
X85347961Y-81618325D01*
X85242795Y-81313912D01*
X85149814Y-81139956D01*
X84885413Y-81044192D01*
X83929605Y-82000000D01*
X83570395Y-82000000D01*
X82614587Y-81044192D01*
X82350186Y-81139956D01*
X82209296Y-81429571D01*
X82127616Y-81741108D01*
X82108282Y-82062595D01*
X76885000Y-82062595D01*
X76885000Y-81838967D01*
X76822168Y-81523088D01*
X76698918Y-81225537D01*
X76519987Y-80957748D01*
X76426826Y-80864587D01*
X82794192Y-80864587D01*
X83750000Y-81820395D01*
X84705808Y-80864587D01*
X84610044Y-80600186D01*
X84320429Y-80459296D01*
X84008892Y-80377616D01*
X83687405Y-80358282D01*
X83368325Y-80402039D01*
X83063912Y-80507205D01*
X82889956Y-80600186D01*
X82794192Y-80864587D01*
X76426826Y-80864587D01*
X76292252Y-80730013D01*
X76024463Y-80551082D01*
X75726912Y-80427832D01*
X75411033Y-80365000D01*
X75088967Y-80365000D01*
X74773088Y-80427832D01*
X74475537Y-80551082D01*
X74207748Y-80730013D01*
X73980013Y-80957748D01*
X73801082Y-81225537D01*
X73677832Y-81523088D01*
X73615000Y-81838967D01*
X55910000Y-81838967D01*
X55910000Y-73298061D01*
X84165000Y-73298061D01*
X84165000Y-73501939D01*
X84204774Y-73701898D01*
X84282795Y-73890256D01*
X84396063Y-74059774D01*
X84490007Y-74153718D01*
X84490006Y-78296289D01*
X84446069Y-78340226D01*
X84332801Y-78509744D01*
X84254780Y-78698102D01*
X84215006Y-78898061D01*
X84215006Y-79101939D01*
X84254780Y-79301898D01*
X84332801Y-79490256D01*
X84446069Y-79659774D01*
X84590232Y-79803937D01*
X84759750Y-79917205D01*
X84948108Y-79995226D01*
X85148067Y-80035000D01*
X85351945Y-80035000D01*
X85551904Y-79995226D01*
X85740262Y-79917205D01*
X85909780Y-79803937D01*
X86053943Y-79659774D01*
X86167211Y-79490256D01*
X86245232Y-79301898D01*
X86285006Y-79101939D01*
X86285006Y-78898061D01*
X86245232Y-78698102D01*
X86167211Y-78509744D01*
X86053943Y-78340226D01*
X86010006Y-78296289D01*
X86010006Y-74050691D01*
X86117205Y-73890256D01*
X86195226Y-73701898D01*
X86235000Y-73501939D01*
X86235000Y-73298061D01*
X86195226Y-73098102D01*
X86117205Y-72909744D01*
X86003937Y-72740226D01*
X85859774Y-72596063D01*
X85690256Y-72482795D01*
X85501898Y-72404774D01*
X85301939Y-72365000D01*
X85098061Y-72365000D01*
X84898102Y-72404774D01*
X84709744Y-72482795D01*
X84540226Y-72596063D01*
X84396063Y-72740226D01*
X84282795Y-72909744D01*
X84204774Y-73098102D01*
X84165000Y-73298061D01*
X55910000Y-73298061D01*
X55910000Y-66108000D01*
X58603928Y-66108000D01*
X58616188Y-66232482D01*
X58652498Y-66352180D01*
X58711463Y-66462494D01*
X58790815Y-66559185D01*
X58887506Y-66638537D01*
X58997820Y-66697502D01*
X59117518Y-66733812D01*
X59242000Y-66746072D01*
X61714250Y-66743000D01*
X61873000Y-66584250D01*
X61873000Y-63477000D01*
X62127000Y-63477000D01*
X62127000Y-66584250D01*
X62285750Y-66743000D01*
X64758000Y-66746072D01*
X64882482Y-66733812D01*
X65002180Y-66697502D01*
X65112494Y-66638537D01*
X65209185Y-66559185D01*
X65288537Y-66462494D01*
X65347502Y-66352180D01*
X65383812Y-66232482D01*
X65396072Y-66108000D01*
X65393000Y-63635750D01*
X65234250Y-63477000D01*
X62127000Y-63477000D01*
X61873000Y-63477000D01*
X58765750Y-63477000D01*
X58607000Y-63635750D01*
X58603928Y-66108000D01*
X55910000Y-66108000D01*
X55910000Y-60592000D01*
X58603928Y-60592000D01*
X58607000Y-63064250D01*
X58765750Y-63223000D01*
X61873000Y-63223000D01*
X61873000Y-60115750D01*
X62127000Y-60115750D01*
X62127000Y-63223000D01*
X65234250Y-63223000D01*
X65393000Y-63064250D01*
X65394211Y-62088967D01*
X73865000Y-62088967D01*
X73865000Y-62411033D01*
X73927832Y-62726912D01*
X74051082Y-63024463D01*
X74230013Y-63292252D01*
X74457748Y-63519987D01*
X74725537Y-63698918D01*
X75023088Y-63822168D01*
X75338967Y-63885000D01*
X75661033Y-63885000D01*
X75976912Y-63822168D01*
X76274463Y-63698918D01*
X76542252Y-63519987D01*
X76676826Y-63385413D01*
X82794192Y-63385413D01*
X82889956Y-63649814D01*
X83179571Y-63790704D01*
X83491108Y-63872384D01*
X83812595Y-63891718D01*
X84131675Y-63847961D01*
X84436088Y-63742795D01*
X84610044Y-63649814D01*
X84705808Y-63385413D01*
X83750000Y-62429605D01*
X82794192Y-63385413D01*
X76676826Y-63385413D01*
X76769987Y-63292252D01*
X76948918Y-63024463D01*
X77072168Y-62726912D01*
X77135000Y-62411033D01*
X77135000Y-62312595D01*
X82108282Y-62312595D01*
X82152039Y-62631675D01*
X82257205Y-62936088D01*
X82350186Y-63110044D01*
X82614587Y-63205808D01*
X83570395Y-62250000D01*
X83929605Y-62250000D01*
X84885413Y-63205808D01*
X85149814Y-63110044D01*
X85290704Y-62820429D01*
X85372384Y-62508892D01*
X85391718Y-62187405D01*
X85347961Y-61868325D01*
X85242795Y-61563912D01*
X85149814Y-61389956D01*
X84885413Y-61294192D01*
X83929605Y-62250000D01*
X83570395Y-62250000D01*
X82614587Y-61294192D01*
X82350186Y-61389956D01*
X82209296Y-61679571D01*
X82127616Y-61991108D01*
X82108282Y-62312595D01*
X77135000Y-62312595D01*
X77135000Y-62088967D01*
X77072168Y-61773088D01*
X76948918Y-61475537D01*
X76769987Y-61207748D01*
X76676826Y-61114587D01*
X82794192Y-61114587D01*
X83750000Y-62070395D01*
X84705808Y-61114587D01*
X84610044Y-60850186D01*
X84320429Y-60709296D01*
X84008892Y-60627616D01*
X83687405Y-60608282D01*
X83368325Y-60652039D01*
X83063912Y-60757205D01*
X82889956Y-60850186D01*
X82794192Y-61114587D01*
X76676826Y-61114587D01*
X76542252Y-60980013D01*
X76274463Y-60801082D01*
X75976912Y-60677832D01*
X75661033Y-60615000D01*
X75338967Y-60615000D01*
X75023088Y-60677832D01*
X74725537Y-60801082D01*
X74457748Y-60980013D01*
X74230013Y-61207748D01*
X74051082Y-61475537D01*
X73927832Y-61773088D01*
X73865000Y-62088967D01*
X65394211Y-62088967D01*
X65396072Y-60592000D01*
X118603928Y-60592000D01*
X118607000Y-63064250D01*
X118765750Y-63223000D01*
X121873000Y-63223000D01*
X121873000Y-60115750D01*
X122127000Y-60115750D01*
X122127000Y-63223000D01*
X125234250Y-63223000D01*
X125393000Y-63064250D01*
X125396072Y-60592000D01*
X125383812Y-60467518D01*
X125347502Y-60347820D01*
X125288537Y-60237506D01*
X125209185Y-60140815D01*
X125112494Y-60061463D01*
X125002180Y-60002498D01*
X124882482Y-59966188D01*
X124758000Y-59953928D01*
X122285750Y-59957000D01*
X122127000Y-60115750D01*
X121873000Y-60115750D01*
X121714250Y-59957000D01*
X119242000Y-59953928D01*
X119117518Y-59966188D01*
X118997820Y-60002498D01*
X118887506Y-60061463D01*
X118790815Y-60140815D01*
X118711463Y-60237506D01*
X118652498Y-60347820D01*
X118616188Y-60467518D01*
X118603928Y-60592000D01*
X65396072Y-60592000D01*
X65383812Y-60467518D01*
X65347502Y-60347820D01*
X65288537Y-60237506D01*
X65209185Y-60140815D01*
X65112494Y-60061463D01*
X65002180Y-60002498D01*
X64882482Y-59966188D01*
X64758000Y-59953928D01*
X62285750Y-59957000D01*
X62127000Y-60115750D01*
X61873000Y-60115750D01*
X61714250Y-59957000D01*
X59242000Y-59953928D01*
X59117518Y-59966188D01*
X58997820Y-60002498D01*
X58887506Y-60061463D01*
X58790815Y-60140815D01*
X58711463Y-60237506D01*
X58652498Y-60347820D01*
X58616188Y-60467518D01*
X58603928Y-60592000D01*
X55910000Y-60592000D01*
X55910000Y-55815819D01*
X58607000Y-55815819D01*
X58607000Y-56484181D01*
X58737391Y-57139702D01*
X58993163Y-57757188D01*
X59364485Y-58312911D01*
X59837089Y-58785515D01*
X60392812Y-59156837D01*
X61010298Y-59412609D01*
X61665819Y-59543000D01*
X62334181Y-59543000D01*
X62989702Y-59412609D01*
X63607188Y-59156837D01*
X64162911Y-58785515D01*
X64635515Y-58312911D01*
X65006837Y-57757188D01*
X65262609Y-57139702D01*
X65393000Y-56484181D01*
X65393000Y-55838967D01*
X73865000Y-55838967D01*
X73865000Y-56161033D01*
X73927832Y-56476912D01*
X74051082Y-56774463D01*
X74230013Y-57042252D01*
X74457748Y-57269987D01*
X74725537Y-57448918D01*
X75023088Y-57572168D01*
X75338967Y-57635000D01*
X75661033Y-57635000D01*
X75976912Y-57572168D01*
X76274463Y-57448918D01*
X76542252Y-57269987D01*
X76769987Y-57042252D01*
X76948918Y-56774463D01*
X77072168Y-56476912D01*
X77135000Y-56161033D01*
X77135000Y-55838967D01*
X77130396Y-55815819D01*
X118607000Y-55815819D01*
X118607000Y-56484181D01*
X118737391Y-57139702D01*
X118993163Y-57757188D01*
X119364485Y-58312911D01*
X119837089Y-58785515D01*
X120392812Y-59156837D01*
X121010298Y-59412609D01*
X121665819Y-59543000D01*
X122334181Y-59543000D01*
X122989702Y-59412609D01*
X123607188Y-59156837D01*
X124162911Y-58785515D01*
X124635515Y-58312911D01*
X125006837Y-57757188D01*
X125262609Y-57139702D01*
X125393000Y-56484181D01*
X125393000Y-55815819D01*
X125262609Y-55160298D01*
X125006837Y-54542812D01*
X124635515Y-53987089D01*
X124162911Y-53514485D01*
X123607188Y-53143163D01*
X122989702Y-52887391D01*
X122334181Y-52757000D01*
X121665819Y-52757000D01*
X121010298Y-52887391D01*
X120392812Y-53143163D01*
X119837089Y-53514485D01*
X119364485Y-53987089D01*
X118993163Y-54542812D01*
X118737391Y-55160298D01*
X118607000Y-55815819D01*
X77130396Y-55815819D01*
X77072168Y-55523088D01*
X76948918Y-55225537D01*
X76769987Y-54957748D01*
X76542252Y-54730013D01*
X76274463Y-54551082D01*
X75976912Y-54427832D01*
X75661033Y-54365000D01*
X75338967Y-54365000D01*
X75023088Y-54427832D01*
X74725537Y-54551082D01*
X74457748Y-54730013D01*
X74230013Y-54957748D01*
X74051082Y-55225537D01*
X73927832Y-55523088D01*
X73865000Y-55838967D01*
X65393000Y-55838967D01*
X65393000Y-55815819D01*
X65262609Y-55160298D01*
X65006837Y-54542812D01*
X64635515Y-53987089D01*
X64162911Y-53514485D01*
X63607188Y-53143163D01*
X62989702Y-52887391D01*
X62334181Y-52757000D01*
X61665819Y-52757000D01*
X61010298Y-52887391D01*
X60392812Y-53143163D01*
X59837089Y-53514485D01*
X59364485Y-53987089D01*
X58993163Y-54542812D01*
X58737391Y-55160298D01*
X58607000Y-55815819D01*
X55910000Y-55815819D01*
X55910000Y-45641984D01*
X56865000Y-45641984D01*
X56865000Y-46358016D01*
X57004691Y-47060290D01*
X57278705Y-47721818D01*
X57676511Y-48317177D01*
X58182823Y-48823489D01*
X58778182Y-49221295D01*
X59439710Y-49495309D01*
X60141984Y-49635000D01*
X60858016Y-49635000D01*
X61560290Y-49495309D01*
X62221818Y-49221295D01*
X62817177Y-48823489D01*
X63323489Y-48317177D01*
X63721295Y-47721818D01*
X63995309Y-47060290D01*
X64135000Y-46358016D01*
X64135000Y-45641984D01*
X119865000Y-45641984D01*
X119865000Y-46358016D01*
X120004691Y-47060290D01*
X120278705Y-47721818D01*
X120676511Y-48317177D01*
X121182823Y-48823489D01*
X121778182Y-49221295D01*
X122439710Y-49495309D01*
X123141984Y-49635000D01*
X123858016Y-49635000D01*
X124560290Y-49495309D01*
X125221818Y-49221295D01*
X125817177Y-48823489D01*
X126323489Y-48317177D01*
X126721295Y-47721818D01*
X126995309Y-47060290D01*
X127135000Y-46358016D01*
X127135000Y-45641984D01*
X126995309Y-44939710D01*
X126721295Y-44278182D01*
X126323489Y-43682823D01*
X125817177Y-43176511D01*
X125221818Y-42778705D01*
X124560290Y-42504691D01*
X123858016Y-42365000D01*
X123141984Y-42365000D01*
X122439710Y-42504691D01*
X121778182Y-42778705D01*
X121182823Y-43176511D01*
X120676511Y-43682823D01*
X120278705Y-44278182D01*
X120004691Y-44939710D01*
X119865000Y-45641984D01*
X64135000Y-45641984D01*
X63995309Y-44939710D01*
X63721295Y-44278182D01*
X63323489Y-43682823D01*
X62817177Y-43176511D01*
X62221818Y-42778705D01*
X61560290Y-42504691D01*
X60858016Y-42365000D01*
X60141984Y-42365000D01*
X59439710Y-42504691D01*
X58778182Y-42778705D01*
X58182823Y-43176511D01*
X57676511Y-43682823D01*
X57278705Y-44278182D01*
X57004691Y-44939710D01*
X56865000Y-45641984D01*
X55910000Y-45641984D01*
X55910000Y-44782278D01*
X55976714Y-44101874D01*
X56164943Y-43478428D01*
X56470681Y-42903421D01*
X56882279Y-42398753D01*
X57384067Y-41983638D01*
X57956924Y-41673895D01*
X58579039Y-41481318D01*
X59257584Y-41410000D01*
X124717722Y-41410000D01*
X125398126Y-41476714D01*
M02*
