M48
INCH,TZ
T1C0.0157
T2C0.0197
T3C0.0315
T4C0.0394
T5C0.1181
T6C0.1772
%
G90
G05
T1
X30709Y-37894
X30807Y-33268
X30807Y-42618
X30906Y-25295
X31398Y-38287
X31496Y-33661
X31496Y-43012
X31693Y-25689
X32087Y-33622
X32087Y-35669
X32283Y-38268
X32283Y-40787
X32480Y-46161
X32913Y-38268
X32913Y-40551
X33268Y-43799
X33268Y-44685
X33543Y-40551
X33543Y-28898
X33563Y-35669
X33563Y-38268
X33563Y-33622
X33563Y-31102
X33741Y-43698
X33858Y-44685
X34055Y-24114
X34055Y-25098
X34055Y-32087
X34055Y-33071
X34055Y-36713
X34055Y-37697
X34055Y-41437
X34055Y-42421
X34055Y-43307
X34438Y-43001
X34558Y-44105
X35039Y-43012
X35050Y-43613
X35827Y-47165
X36063Y-36772
X36063Y-41496
X36142Y-32047
X36220Y-24173
X36909Y-37258
X36909Y-42028
X36963Y-32533
X37106Y-24705
X37402Y-31299
X37402Y-36122
X37402Y-40846
X37500Y-23622
X37795Y-31693
X38484Y-24508
X38484Y-32283
X38583Y-37008
X38583Y-41831
X40157Y-38268
X40157Y-40394
X40787Y-38268
X40846Y-33622
X40846Y-35748
X40846Y-40472
X41240Y-31181
X41260Y-28740
X41339Y-40472
X41417Y-33465
X41417Y-35827
X41417Y-38268
T2
X22933Y-18110
X23193Y-17484
X23193Y-18737
X23819Y-17224
X23819Y-18996
X24445Y-17484
X24445Y-18737
X24705Y-18110
X22933Y-47638
X23193Y-47011
X23193Y-48264
X23819Y-46752
X23819Y-48524
X24445Y-47011
X24445Y-48264
X24705Y-47638
X47736Y-18110
X47996Y-17484
X47996Y-18737
X48622Y-17224
X48622Y-18996
X49248Y-17484
X49248Y-18737
X49508Y-18110
X47736Y-47638
X47996Y-47011
X47996Y-48264
X48622Y-46752
X48622Y-48524
X49248Y-47011
X49248Y-48264
X49508Y-47638
T3
X30315Y-44291
X30315Y-45669
T4
X41929Y-41831
X44193Y-32283
X29626Y-32283
X44193Y-34646
X32972Y-41732
X39764Y-32283
X39764Y-24508
X39764Y-41831
X29724Y-22047
X32972Y-37008
X44193Y-39370
X32972Y-32283
X41929Y-32283
X29724Y-41732
X32972Y-24508
X41929Y-37008
X41929Y-24508
X44193Y-29921
X39764Y-37008
X29626Y-37008
X29724Y-24508
X44193Y-37008
X44193Y-41831
X34055Y-46063
X35055Y-46063
X36055Y-46063
X37055Y-46063
X38055Y-46063
X39055Y-46063
X40055Y-46063
X41055Y-46063
X42055Y-46063
T5
X48622Y-47638
X23819Y-18110
X23819Y-47638
X48622Y-18110
T6
X48031Y-22106
X48031Y-24941
X24409Y-22106
X24409Y-24941
T4
G00X25000Y-43110
M15
G01X25000Y-43898
M16
G05
G00X25787Y-45354
M15
G01X26575Y-45354
M16
G05
G00X27362Y-43110
M15
G01X27362Y-43898
M16
G05
T0
M30
