G04 #@! TF.GenerationSoftware,KiCad,Pcbnew,(5.1.5)-3*
G04 #@! TF.CreationDate,2020-01-25T00:11:38-03:30*
G04 #@! TF.ProjectId,Power Sense PCB,506f7765-7220-4536-956e-736520504342,rev?*
G04 #@! TF.SameCoordinates,Original*
G04 #@! TF.FileFunction,Legend,Top*
G04 #@! TF.FilePolarity,Positive*
%FSLAX46Y46*%
G04 Gerber Fmt 4.6, Leading zero omitted, Abs format (unit mm)*
G04 Created by KiCad (PCBNEW (5.1.5)-3) date 2020-01-25 00:11:38*
%MOMM*%
%LPD*%
G04 APERTURE LIST*
%ADD10C,0.250000*%
%ADD11C,0.120000*%
%ADD12C,0.750000*%
%ADD13C,0.200000*%
%ADD14C,0.125000*%
%ADD15C,0.300000*%
%ADD16C,0.127000*%
%ADD17C,0.150000*%
%ADD18C,0.250173*%
%ADD19C,0.050000*%
G04 APERTURE END LIST*
D10*
X103747619Y-119914285D02*
X104747619Y-119914285D01*
X103652380Y-120152380D02*
X103652380Y-120914285D01*
X103747619Y-121152380D02*
X104747619Y-121152380D01*
X104747619Y-121533333D01*
X104700000Y-121628571D01*
X104652380Y-121676190D01*
X104557142Y-121723809D01*
X104414285Y-121723809D01*
X104319047Y-121676190D01*
X104271428Y-121628571D01*
X104223809Y-121533333D01*
X104223809Y-121152380D01*
X103747619Y-122152380D02*
X104747619Y-122152380D01*
X104271428Y-122152380D02*
X104271428Y-122723809D01*
X103747619Y-122723809D02*
X104747619Y-122723809D01*
X103652380Y-122961904D02*
X103652380Y-123723809D01*
X103842857Y-124533333D02*
X103795238Y-124485714D01*
X103747619Y-124342857D01*
X103747619Y-124247619D01*
X103795238Y-124104761D01*
X103890476Y-124009523D01*
X103985714Y-123961904D01*
X104176190Y-123914285D01*
X104319047Y-123914285D01*
X104509523Y-123961904D01*
X104604761Y-124009523D01*
X104700000Y-124104761D01*
X104747619Y-124247619D01*
X104747619Y-124342857D01*
X104700000Y-124485714D01*
X104652380Y-124533333D01*
X101147619Y-119914285D02*
X102147619Y-119914285D01*
X101052380Y-120152380D02*
X101052380Y-120914285D01*
X101147619Y-121152380D02*
X102147619Y-121152380D01*
X102147619Y-121533333D01*
X102100000Y-121628571D01*
X102052380Y-121676190D01*
X101957142Y-121723809D01*
X101814285Y-121723809D01*
X101719047Y-121676190D01*
X101671428Y-121628571D01*
X101623809Y-121533333D01*
X101623809Y-121152380D01*
X101147619Y-122152380D02*
X102147619Y-122152380D01*
X101671428Y-122152380D02*
X101671428Y-122723809D01*
X101147619Y-122723809D02*
X102147619Y-122723809D01*
X101052380Y-122961904D02*
X101052380Y-123723809D01*
X101671428Y-124295238D02*
X101623809Y-124438095D01*
X101576190Y-124485714D01*
X101480952Y-124533333D01*
X101338095Y-124533333D01*
X101242857Y-124485714D01*
X101195238Y-124438095D01*
X101147619Y-124342857D01*
X101147619Y-123961904D01*
X102147619Y-123961904D01*
X102147619Y-124295238D01*
X102100000Y-124390476D01*
X102052380Y-124438095D01*
X101957142Y-124485714D01*
X101861904Y-124485714D01*
X101766666Y-124438095D01*
X101719047Y-124390476D01*
X101671428Y-124295238D01*
X101671428Y-123961904D01*
D11*
X108200000Y-125400000D02*
X108170000Y-118330000D01*
X105630000Y-125400000D02*
X105600000Y-118400000D01*
X106000000Y-125400000D02*
X108200000Y-125400000D01*
X103400000Y-125400000D02*
X106000000Y-125400000D01*
X100800000Y-125400000D02*
X103400000Y-125400000D01*
X98200000Y-125400000D02*
X100800000Y-125400000D01*
X95600000Y-125400000D02*
X98200000Y-125400000D01*
X93000000Y-125400000D02*
X95600000Y-125400000D01*
X90400000Y-125400000D02*
X93000000Y-125400000D01*
X103030000Y-125400000D02*
X103000000Y-118330000D01*
X100430000Y-125400000D02*
X100400000Y-118400000D01*
X97830000Y-125400000D02*
X97800000Y-118330000D01*
X95430000Y-125400000D02*
X95400000Y-118330000D01*
X92830000Y-125400000D02*
X92800000Y-118330000D01*
X90230000Y-125400000D02*
X90200000Y-118330000D01*
X87800000Y-125400000D02*
X90400000Y-125400000D01*
X87800000Y-125400000D02*
X87770000Y-118330000D01*
X85200000Y-125400000D02*
X87800000Y-125400000D01*
X85170000Y-117930000D02*
X85200000Y-125400000D01*
D10*
X107300000Y-120438095D02*
X107347619Y-120342857D01*
X107347619Y-120200000D01*
X107300000Y-120057142D01*
X107204761Y-119961904D01*
X107109523Y-119914285D01*
X106919047Y-119866666D01*
X106776190Y-119866666D01*
X106585714Y-119914285D01*
X106490476Y-119961904D01*
X106395238Y-120057142D01*
X106347619Y-120200000D01*
X106347619Y-120295238D01*
X106395238Y-120438095D01*
X106442857Y-120485714D01*
X106776190Y-120485714D01*
X106776190Y-120295238D01*
X106347619Y-120914285D02*
X107347619Y-120914285D01*
X106347619Y-121485714D01*
X107347619Y-121485714D01*
X106347619Y-121961904D02*
X107347619Y-121961904D01*
X107347619Y-122200000D01*
X107300000Y-122342857D01*
X107204761Y-122438095D01*
X107109523Y-122485714D01*
X106919047Y-122533333D01*
X106776190Y-122533333D01*
X106585714Y-122485714D01*
X106490476Y-122438095D01*
X106395238Y-122342857D01*
X106347619Y-122200000D01*
X106347619Y-121961904D01*
X98747619Y-119985714D02*
X99747619Y-119985714D01*
X98652380Y-120223809D02*
X98652380Y-120985714D01*
X98747619Y-121223809D02*
X99747619Y-121223809D01*
X99747619Y-121604761D01*
X99700000Y-121700000D01*
X99652380Y-121747619D01*
X99557142Y-121795238D01*
X99414285Y-121795238D01*
X99319047Y-121747619D01*
X99271428Y-121700000D01*
X99223809Y-121604761D01*
X99223809Y-121223809D01*
X98747619Y-122223809D02*
X99747619Y-122223809D01*
X99271428Y-122223809D02*
X99271428Y-122795238D01*
X98747619Y-122795238D02*
X99747619Y-122795238D01*
X98652380Y-123033333D02*
X98652380Y-123795238D01*
X99033333Y-123985714D02*
X99033333Y-124461904D01*
X98747619Y-123890476D02*
X99747619Y-124223809D01*
X98747619Y-124557142D01*
X97147619Y-119580952D02*
X96147619Y-119914285D01*
X97147619Y-120247619D01*
X96052380Y-120342857D02*
X96052380Y-121104761D01*
X96147619Y-121342857D02*
X97147619Y-121342857D01*
X97147619Y-121723809D01*
X97100000Y-121819047D01*
X97052380Y-121866666D01*
X96957142Y-121914285D01*
X96814285Y-121914285D01*
X96719047Y-121866666D01*
X96671428Y-121819047D01*
X96623809Y-121723809D01*
X96623809Y-121342857D01*
X96147619Y-122342857D02*
X97147619Y-122342857D01*
X96671428Y-122342857D02*
X96671428Y-122914285D01*
X96147619Y-122914285D02*
X97147619Y-122914285D01*
X96052380Y-123152380D02*
X96052380Y-123914285D01*
X96242857Y-124723809D02*
X96195238Y-124676190D01*
X96147619Y-124533333D01*
X96147619Y-124438095D01*
X96195238Y-124295238D01*
X96290476Y-124200000D01*
X96385714Y-124152380D01*
X96576190Y-124104761D01*
X96719047Y-124104761D01*
X96909523Y-124152380D01*
X97004761Y-124200000D01*
X97100000Y-124295238D01*
X97147619Y-124438095D01*
X97147619Y-124533333D01*
X97100000Y-124676190D01*
X97052380Y-124723809D01*
X94547619Y-119580952D02*
X93547619Y-119914285D01*
X94547619Y-120247619D01*
X93452380Y-120342857D02*
X93452380Y-121104761D01*
X93547619Y-121342857D02*
X94547619Y-121342857D01*
X94547619Y-121723809D01*
X94500000Y-121819047D01*
X94452380Y-121866666D01*
X94357142Y-121914285D01*
X94214285Y-121914285D01*
X94119047Y-121866666D01*
X94071428Y-121819047D01*
X94023809Y-121723809D01*
X94023809Y-121342857D01*
X93547619Y-122342857D02*
X94547619Y-122342857D01*
X94071428Y-122342857D02*
X94071428Y-122914285D01*
X93547619Y-122914285D02*
X94547619Y-122914285D01*
X93452380Y-123152380D02*
X93452380Y-123914285D01*
X94071428Y-124485714D02*
X94023809Y-124628571D01*
X93976190Y-124676190D01*
X93880952Y-124723809D01*
X93738095Y-124723809D01*
X93642857Y-124676190D01*
X93595238Y-124628571D01*
X93547619Y-124533333D01*
X93547619Y-124152380D01*
X94547619Y-124152380D01*
X94547619Y-124485714D01*
X94500000Y-124580952D01*
X94452380Y-124628571D01*
X94357142Y-124676190D01*
X94261904Y-124676190D01*
X94166666Y-124628571D01*
X94119047Y-124580952D01*
X94071428Y-124485714D01*
X94071428Y-124152380D01*
X92147619Y-119652380D02*
X91147619Y-119985714D01*
X92147619Y-120319047D01*
X91052380Y-120414285D02*
X91052380Y-121176190D01*
X91147619Y-121414285D02*
X92147619Y-121414285D01*
X92147619Y-121795238D01*
X92100000Y-121890476D01*
X92052380Y-121938095D01*
X91957142Y-121985714D01*
X91814285Y-121985714D01*
X91719047Y-121938095D01*
X91671428Y-121890476D01*
X91623809Y-121795238D01*
X91623809Y-121414285D01*
X91147619Y-122414285D02*
X92147619Y-122414285D01*
X91671428Y-122414285D02*
X91671428Y-122985714D01*
X91147619Y-122985714D02*
X92147619Y-122985714D01*
X91052380Y-123223809D02*
X91052380Y-123985714D01*
X91433333Y-124176190D02*
X91433333Y-124652380D01*
X91147619Y-124080952D02*
X92147619Y-124414285D01*
X91147619Y-124747619D01*
X88547619Y-119919047D02*
X89547619Y-119919047D01*
X88452380Y-120157142D02*
X88452380Y-120919047D01*
X89071428Y-121490476D02*
X89023809Y-121633333D01*
X88976190Y-121680952D01*
X88880952Y-121728571D01*
X88738095Y-121728571D01*
X88642857Y-121680952D01*
X88595238Y-121633333D01*
X88547619Y-121538095D01*
X88547619Y-121157142D01*
X89547619Y-121157142D01*
X89547619Y-121490476D01*
X89500000Y-121585714D01*
X89452380Y-121633333D01*
X89357142Y-121680952D01*
X89261904Y-121680952D01*
X89166666Y-121633333D01*
X89119047Y-121585714D01*
X89071428Y-121490476D01*
X89071428Y-121157142D01*
X89547619Y-122157142D02*
X88738095Y-122157142D01*
X88642857Y-122204761D01*
X88595238Y-122252380D01*
X88547619Y-122347619D01*
X88547619Y-122538095D01*
X88595238Y-122633333D01*
X88642857Y-122680952D01*
X88738095Y-122728571D01*
X89547619Y-122728571D01*
X88595238Y-123157142D02*
X88547619Y-123300000D01*
X88547619Y-123538095D01*
X88595238Y-123633333D01*
X88642857Y-123680952D01*
X88738095Y-123728571D01*
X88833333Y-123728571D01*
X88928571Y-123680952D01*
X88976190Y-123633333D01*
X89023809Y-123538095D01*
X89071428Y-123347619D01*
X89119047Y-123252380D01*
X89166666Y-123204761D01*
X89261904Y-123157142D01*
X89357142Y-123157142D01*
X89452380Y-123204761D01*
X89500000Y-123252380D01*
X89547619Y-123347619D01*
X89547619Y-123585714D01*
X89500000Y-123728571D01*
X86947619Y-119585714D02*
X85947619Y-119919047D01*
X86947619Y-120252380D01*
X85852380Y-120347619D02*
X85852380Y-121109523D01*
X86471428Y-121680952D02*
X86423809Y-121823809D01*
X86376190Y-121871428D01*
X86280952Y-121919047D01*
X86138095Y-121919047D01*
X86042857Y-121871428D01*
X85995238Y-121823809D01*
X85947619Y-121728571D01*
X85947619Y-121347619D01*
X86947619Y-121347619D01*
X86947619Y-121680952D01*
X86900000Y-121776190D01*
X86852380Y-121823809D01*
X86757142Y-121871428D01*
X86661904Y-121871428D01*
X86566666Y-121823809D01*
X86519047Y-121776190D01*
X86471428Y-121680952D01*
X86471428Y-121347619D01*
X86947619Y-122347619D02*
X86138095Y-122347619D01*
X86042857Y-122395238D01*
X85995238Y-122442857D01*
X85947619Y-122538095D01*
X85947619Y-122728571D01*
X85995238Y-122823809D01*
X86042857Y-122871428D01*
X86138095Y-122919047D01*
X86947619Y-122919047D01*
X85995238Y-123347619D02*
X85947619Y-123490476D01*
X85947619Y-123728571D01*
X85995238Y-123823809D01*
X86042857Y-123871428D01*
X86138095Y-123919047D01*
X86233333Y-123919047D01*
X86328571Y-123871428D01*
X86376190Y-123823809D01*
X86423809Y-123728571D01*
X86471428Y-123538095D01*
X86519047Y-123442857D01*
X86566666Y-123395238D01*
X86661904Y-123347619D01*
X86757142Y-123347619D01*
X86852380Y-123395238D01*
X86900000Y-123442857D01*
X86947619Y-123538095D01*
X86947619Y-123776190D01*
X86900000Y-123919047D01*
X84480952Y-69852380D02*
X84480952Y-68852380D01*
X84814285Y-69566666D01*
X85147619Y-68852380D01*
X85147619Y-69852380D01*
X86052380Y-69852380D02*
X86052380Y-69328571D01*
X86004761Y-69233333D01*
X85909523Y-69185714D01*
X85719047Y-69185714D01*
X85623809Y-69233333D01*
X86052380Y-69804761D02*
X85957142Y-69852380D01*
X85719047Y-69852380D01*
X85623809Y-69804761D01*
X85576190Y-69709523D01*
X85576190Y-69614285D01*
X85623809Y-69519047D01*
X85719047Y-69471428D01*
X85957142Y-69471428D01*
X86052380Y-69423809D01*
X86528571Y-69852380D02*
X86528571Y-69185714D01*
X86528571Y-69376190D02*
X86576190Y-69280952D01*
X86623809Y-69233333D01*
X86719047Y-69185714D01*
X86814285Y-69185714D01*
X87147619Y-69852380D02*
X87147619Y-68852380D01*
X87242857Y-69471428D02*
X87528571Y-69852380D01*
X87528571Y-69185714D02*
X87147619Y-69566666D01*
X89052380Y-69328571D02*
X89195238Y-69376190D01*
X89242857Y-69423809D01*
X89290476Y-69519047D01*
X89290476Y-69661904D01*
X89242857Y-69757142D01*
X89195238Y-69804761D01*
X89099999Y-69852380D01*
X88719047Y-69852380D01*
X88719047Y-68852380D01*
X89052380Y-68852380D01*
X89147619Y-68900000D01*
X89195238Y-68947619D01*
X89242857Y-69042857D01*
X89242857Y-69138095D01*
X89195238Y-69233333D01*
X89147619Y-69280952D01*
X89052380Y-69328571D01*
X88719047Y-69328571D01*
X90099999Y-69804761D02*
X90004761Y-69852380D01*
X89814285Y-69852380D01*
X89719047Y-69804761D01*
X89671428Y-69709523D01*
X89671428Y-69328571D01*
X89719047Y-69233333D01*
X89814285Y-69185714D01*
X90004761Y-69185714D01*
X90099999Y-69233333D01*
X90147619Y-69328571D01*
X90147619Y-69423809D01*
X89671428Y-69519047D01*
X90719047Y-69852380D02*
X90623809Y-69804761D01*
X90576190Y-69709523D01*
X90576190Y-68852380D01*
X91099999Y-69852380D02*
X91099999Y-68852380D01*
X91099999Y-69233333D02*
X91195238Y-69185714D01*
X91385714Y-69185714D01*
X91480952Y-69233333D01*
X91528571Y-69280952D01*
X91576190Y-69376190D01*
X91576190Y-69661904D01*
X91528571Y-69757142D01*
X91480952Y-69804761D01*
X91385714Y-69852380D01*
X91195238Y-69852380D01*
X91099999Y-69804761D01*
X92004761Y-69852380D02*
X92004761Y-69185714D01*
X92004761Y-68852380D02*
X91957142Y-68900000D01*
X92004761Y-68947619D01*
X92052380Y-68900000D01*
X92004761Y-68852380D01*
X92004761Y-68947619D01*
X92480952Y-69185714D02*
X92480952Y-69852380D01*
X92480952Y-69280952D02*
X92528571Y-69233333D01*
X92623809Y-69185714D01*
X92766666Y-69185714D01*
X92861904Y-69233333D01*
X92909523Y-69328571D01*
X92909523Y-69852380D01*
X94147619Y-69471428D02*
X94909523Y-69471428D01*
X95385714Y-69471428D02*
X96147619Y-69471428D01*
X97338095Y-68947619D02*
X97385714Y-68900000D01*
X97480952Y-68852380D01*
X97719047Y-68852380D01*
X97814285Y-68900000D01*
X97861904Y-68947619D01*
X97909523Y-69042857D01*
X97909523Y-69138095D01*
X97861904Y-69280952D01*
X97290476Y-69852380D01*
X97909523Y-69852380D01*
X98528571Y-68852380D02*
X98623809Y-68852380D01*
X98719047Y-68900000D01*
X98766666Y-68947619D01*
X98814285Y-69042857D01*
X98861904Y-69233333D01*
X98861904Y-69471428D01*
X98814285Y-69661904D01*
X98766666Y-69757142D01*
X98719047Y-69804761D01*
X98623809Y-69852380D01*
X98528571Y-69852380D01*
X98433333Y-69804761D01*
X98385714Y-69757142D01*
X98338095Y-69661904D01*
X98290476Y-69471428D01*
X98290476Y-69233333D01*
X98338095Y-69042857D01*
X98385714Y-68947619D01*
X98433333Y-68900000D01*
X98528571Y-68852380D01*
X99242857Y-68947619D02*
X99290476Y-68900000D01*
X99385714Y-68852380D01*
X99623809Y-68852380D01*
X99719047Y-68900000D01*
X99766666Y-68947619D01*
X99814285Y-69042857D01*
X99814285Y-69138095D01*
X99766666Y-69280952D01*
X99195238Y-69852380D01*
X99814285Y-69852380D01*
X100433333Y-68852380D02*
X100528571Y-68852380D01*
X100623809Y-68900000D01*
X100671428Y-68947619D01*
X100719047Y-69042857D01*
X100766666Y-69233333D01*
X100766666Y-69471428D01*
X100719047Y-69661904D01*
X100671428Y-69757142D01*
X100623809Y-69804761D01*
X100528571Y-69852380D01*
X100433333Y-69852380D01*
X100338095Y-69804761D01*
X100290476Y-69757142D01*
X100242857Y-69661904D01*
X100195238Y-69471428D01*
X100195238Y-69233333D01*
X100242857Y-69042857D01*
X100290476Y-68947619D01*
X100338095Y-68900000D01*
X100433333Y-68852380D01*
X86595461Y-48128571D02*
X86262127Y-48128571D01*
X86196651Y-48652380D02*
X86321651Y-47652380D01*
X86797842Y-47652380D01*
X87196651Y-48652380D02*
X87107366Y-48604761D01*
X87065699Y-48557142D01*
X87029985Y-48461904D01*
X87065699Y-48176190D01*
X87125223Y-48080952D01*
X87178794Y-48033333D01*
X87279985Y-47985714D01*
X87422842Y-47985714D01*
X87512127Y-48033333D01*
X87553794Y-48080952D01*
X87589508Y-48176190D01*
X87553794Y-48461904D01*
X87494270Y-48557142D01*
X87440699Y-48604761D01*
X87339508Y-48652380D01*
X87196651Y-48652380D01*
X87958556Y-48652380D02*
X88041889Y-47985714D01*
X88018080Y-48176190D02*
X88077604Y-48080952D01*
X88131175Y-48033333D01*
X88232366Y-47985714D01*
X88327604Y-47985714D01*
X89738318Y-48128571D02*
X89875223Y-48176190D01*
X89916889Y-48223809D01*
X89952604Y-48319047D01*
X89934747Y-48461904D01*
X89875223Y-48557142D01*
X89821651Y-48604761D01*
X89720461Y-48652380D01*
X89339508Y-48652380D01*
X89464508Y-47652380D01*
X89797842Y-47652380D01*
X89887127Y-47700000D01*
X89928794Y-47747619D01*
X89964508Y-47842857D01*
X89952604Y-47938095D01*
X89893080Y-48033333D01*
X89839508Y-48080952D01*
X89738318Y-48128571D01*
X89404985Y-48128571D01*
X90815699Y-48652380D02*
X90339508Y-48652380D01*
X90464508Y-47652380D01*
X91149032Y-48652380D02*
X91274032Y-47652380D01*
X91512127Y-47652380D01*
X91649032Y-47700000D01*
X91732366Y-47795238D01*
X91768080Y-47890476D01*
X91791889Y-48080952D01*
X91774032Y-48223809D01*
X91702604Y-48414285D01*
X91643080Y-48509523D01*
X91535937Y-48604761D01*
X91387127Y-48652380D01*
X91149032Y-48652380D01*
X92732366Y-48557142D02*
X92678794Y-48604761D01*
X92529985Y-48652380D01*
X92434747Y-48652380D01*
X92297842Y-48604761D01*
X92214508Y-48509523D01*
X92178794Y-48414285D01*
X92154985Y-48223809D01*
X92172842Y-48080952D01*
X92244270Y-47890476D01*
X92303794Y-47795238D01*
X92410937Y-47700000D01*
X92559747Y-47652380D01*
X92654985Y-47652380D01*
X92791889Y-47700000D01*
X92833556Y-47747619D01*
X93910937Y-48652380D02*
X94035937Y-47652380D01*
X94279985Y-48366666D01*
X94702604Y-47652380D01*
X94577604Y-48652380D01*
X95196651Y-48652380D02*
X95107366Y-48604761D01*
X95065699Y-48557142D01*
X95029985Y-48461904D01*
X95065699Y-48176190D01*
X95125223Y-48080952D01*
X95178794Y-48033333D01*
X95279985Y-47985714D01*
X95422842Y-47985714D01*
X95512127Y-48033333D01*
X95553794Y-48080952D01*
X95589508Y-48176190D01*
X95553794Y-48461904D01*
X95494270Y-48557142D01*
X95440699Y-48604761D01*
X95339508Y-48652380D01*
X95196651Y-48652380D01*
X95899032Y-47985714D02*
X96279985Y-47985714D01*
X96083556Y-47652380D02*
X95976413Y-48509523D01*
X96012127Y-48604761D01*
X96101413Y-48652380D01*
X96196651Y-48652380D01*
X96672842Y-48652380D02*
X96583556Y-48604761D01*
X96541889Y-48557142D01*
X96506175Y-48461904D01*
X96541889Y-48176190D01*
X96601413Y-48080952D01*
X96654985Y-48033333D01*
X96756175Y-47985714D01*
X96899032Y-47985714D01*
X96988318Y-48033333D01*
X97029985Y-48080952D01*
X97065699Y-48176190D01*
X97029985Y-48461904D01*
X96970461Y-48557142D01*
X96916889Y-48604761D01*
X96815699Y-48652380D01*
X96672842Y-48652380D01*
X97434747Y-48652380D02*
X97518080Y-47985714D01*
X97494270Y-48176190D02*
X97553794Y-48080952D01*
X97607366Y-48033333D01*
X97708556Y-47985714D01*
X97803794Y-47985714D01*
X98012127Y-48604761D02*
X98101413Y-48652380D01*
X98291889Y-48652380D01*
X98393080Y-48604761D01*
X98452604Y-48509523D01*
X98458556Y-48461904D01*
X98422842Y-48366666D01*
X98333556Y-48319047D01*
X98190699Y-48319047D01*
X98101413Y-48271428D01*
X98065699Y-48176190D01*
X98071651Y-48128571D01*
X98131175Y-48033333D01*
X98232366Y-47985714D01*
X98375223Y-47985714D01*
X98464508Y-48033333D01*
D12*
X70789955Y-46157142D02*
X71164955Y-43157142D01*
X72307812Y-43157142D01*
X72575669Y-43300000D01*
X72700669Y-43442857D01*
X72807812Y-43728571D01*
X72754241Y-44157142D01*
X72575669Y-44442857D01*
X72414955Y-44585714D01*
X72111383Y-44728571D01*
X70968526Y-44728571D01*
X74218526Y-46157142D02*
X73950669Y-46014285D01*
X73825669Y-45871428D01*
X73718526Y-45585714D01*
X73825669Y-44728571D01*
X74004241Y-44442857D01*
X74164955Y-44300000D01*
X74468526Y-44157142D01*
X74897098Y-44157142D01*
X75164955Y-44300000D01*
X75289955Y-44442857D01*
X75397098Y-44728571D01*
X75289955Y-45585714D01*
X75111383Y-45871428D01*
X74950669Y-46014285D01*
X74647098Y-46157142D01*
X74218526Y-46157142D01*
X76468526Y-44157142D02*
X76789955Y-46157142D01*
X77539955Y-44728571D01*
X77932812Y-46157142D01*
X78754241Y-44157142D01*
X80807812Y-46014285D02*
X80504241Y-46157142D01*
X79932812Y-46157142D01*
X79664955Y-46014285D01*
X79557812Y-45728571D01*
X79700669Y-44585714D01*
X79879241Y-44300000D01*
X80182812Y-44157142D01*
X80754241Y-44157142D01*
X81022098Y-44300000D01*
X81129241Y-44585714D01*
X81093526Y-44871428D01*
X79629241Y-45157142D01*
X82218526Y-46157142D02*
X82468526Y-44157142D01*
X82397098Y-44728571D02*
X82575669Y-44442857D01*
X82736383Y-44300000D01*
X83039955Y-44157142D01*
X83325669Y-44157142D01*
X86236383Y-46014285D02*
X86647098Y-46157142D01*
X87361383Y-46157142D01*
X87664955Y-46014285D01*
X87825669Y-45871428D01*
X88004241Y-45585714D01*
X88039955Y-45300000D01*
X87932812Y-45014285D01*
X87807812Y-44871428D01*
X87539955Y-44728571D01*
X86986383Y-44585714D01*
X86718526Y-44442857D01*
X86593526Y-44300000D01*
X86486383Y-44014285D01*
X86522098Y-43728571D01*
X86700669Y-43442857D01*
X86861383Y-43300000D01*
X87164955Y-43157142D01*
X87879241Y-43157142D01*
X88289955Y-43300000D01*
X90379241Y-46014285D02*
X90075669Y-46157142D01*
X89504241Y-46157142D01*
X89236383Y-46014285D01*
X89129241Y-45728571D01*
X89272098Y-44585714D01*
X89450669Y-44300000D01*
X89754241Y-44157142D01*
X90325669Y-44157142D01*
X90593526Y-44300000D01*
X90700669Y-44585714D01*
X90664955Y-44871428D01*
X89200669Y-45157142D01*
X92039955Y-44157142D02*
X91789955Y-46157142D01*
X92004241Y-44442857D02*
X92164955Y-44300000D01*
X92468526Y-44157142D01*
X92897098Y-44157142D01*
X93164955Y-44300000D01*
X93272098Y-44585714D01*
X93075669Y-46157142D01*
X94379241Y-46014285D02*
X94647098Y-46157142D01*
X95218526Y-46157142D01*
X95522098Y-46014285D01*
X95700669Y-45728571D01*
X95718526Y-45585714D01*
X95611383Y-45300000D01*
X95343526Y-45157142D01*
X94914955Y-45157142D01*
X94647098Y-45014285D01*
X94539955Y-44728571D01*
X94557812Y-44585714D01*
X94736383Y-44300000D01*
X95039955Y-44157142D01*
X95468526Y-44157142D01*
X95736383Y-44300000D01*
X98093526Y-46014285D02*
X97789955Y-46157142D01*
X97218526Y-46157142D01*
X96950669Y-46014285D01*
X96843526Y-45728571D01*
X96986383Y-44585714D01*
X97164955Y-44300000D01*
X97468526Y-44157142D01*
X98039955Y-44157142D01*
X98307812Y-44300000D01*
X98414955Y-44585714D01*
X98379241Y-44871428D01*
X96914955Y-45157142D01*
X102986383Y-44585714D02*
X103397098Y-44728571D01*
X103522098Y-44871428D01*
X103629241Y-45157142D01*
X103575669Y-45585714D01*
X103397098Y-45871428D01*
X103236383Y-46014285D01*
X102932812Y-46157142D01*
X101789955Y-46157142D01*
X102164955Y-43157142D01*
X103164955Y-43157142D01*
X103432812Y-43300000D01*
X103557812Y-43442857D01*
X103664955Y-43728571D01*
X103629241Y-44014285D01*
X103450669Y-44300000D01*
X103289955Y-44442857D01*
X102986383Y-44585714D01*
X101986383Y-44585714D01*
X105218526Y-46157142D02*
X104950669Y-46014285D01*
X104825669Y-45871428D01*
X104718526Y-45585714D01*
X104825669Y-44728571D01*
X105004241Y-44442857D01*
X105164955Y-44300000D01*
X105468526Y-44157142D01*
X105897098Y-44157142D01*
X106164955Y-44300000D01*
X106289955Y-44442857D01*
X106397098Y-44728571D01*
X106289955Y-45585714D01*
X106111383Y-45871428D01*
X105950669Y-46014285D01*
X105647098Y-46157142D01*
X105218526Y-46157142D01*
X108789955Y-46157142D02*
X108986383Y-44585714D01*
X108879241Y-44300000D01*
X108611383Y-44157142D01*
X108039955Y-44157142D01*
X107736383Y-44300000D01*
X108807812Y-46014285D02*
X108504241Y-46157142D01*
X107789955Y-46157142D01*
X107522098Y-46014285D01*
X107414955Y-45728571D01*
X107450669Y-45442857D01*
X107629241Y-45157142D01*
X107932812Y-45014285D01*
X108647098Y-45014285D01*
X108950669Y-44871428D01*
X110218526Y-46157142D02*
X110468526Y-44157142D01*
X110397098Y-44728571D02*
X110575669Y-44442857D01*
X110736383Y-44300000D01*
X111039955Y-44157142D01*
X111325669Y-44157142D01*
X113361383Y-46157142D02*
X113736383Y-43157142D01*
X113379241Y-46014285D02*
X113075669Y-46157142D01*
X112504241Y-46157142D01*
X112236383Y-46014285D01*
X112111383Y-45871428D01*
X112004241Y-45585714D01*
X112111383Y-44728571D01*
X112289955Y-44442857D01*
X112450669Y-44300000D01*
X112754241Y-44157142D01*
X113325669Y-44157142D01*
X113593526Y-44300000D01*
D13*
X55966666Y-95852380D02*
X55966666Y-94852380D01*
X56347619Y-94852380D01*
X56442857Y-94900000D01*
X56490476Y-94947619D01*
X56538095Y-95042857D01*
X56538095Y-95185714D01*
X56490476Y-95280952D01*
X56442857Y-95328571D01*
X56347619Y-95376190D01*
X55966666Y-95376190D01*
X56966666Y-95852380D02*
X56966666Y-94852380D01*
X56966666Y-95328571D02*
X57538095Y-95328571D01*
X57538095Y-95852380D02*
X57538095Y-94852380D01*
X57966666Y-95566666D02*
X58442857Y-95566666D01*
X57871428Y-95852380D02*
X58204761Y-94852380D01*
X58538095Y-95852380D01*
X58823809Y-95804761D02*
X58966666Y-95852380D01*
X59204761Y-95852380D01*
X59300000Y-95804761D01*
X59347619Y-95757142D01*
X59395238Y-95661904D01*
X59395238Y-95566666D01*
X59347619Y-95471428D01*
X59300000Y-95423809D01*
X59204761Y-95376190D01*
X59014285Y-95328571D01*
X58919047Y-95280952D01*
X58871428Y-95233333D01*
X58823809Y-95138095D01*
X58823809Y-95042857D01*
X58871428Y-94947619D01*
X58919047Y-94900000D01*
X59014285Y-94852380D01*
X59252380Y-94852380D01*
X59395238Y-94900000D01*
X59823809Y-95328571D02*
X60157142Y-95328571D01*
X60300000Y-95852380D02*
X59823809Y-95852380D01*
X59823809Y-94852380D01*
X60300000Y-94852380D01*
X60490476Y-95947619D02*
X61252380Y-95947619D01*
X62061904Y-95757142D02*
X62014285Y-95804761D01*
X61871428Y-95852380D01*
X61776190Y-95852380D01*
X61633333Y-95804761D01*
X61538095Y-95709523D01*
X61490476Y-95614285D01*
X61442857Y-95423809D01*
X61442857Y-95280952D01*
X61490476Y-95090476D01*
X61538095Y-94995238D01*
X61633333Y-94900000D01*
X61776190Y-94852380D01*
X61871428Y-94852380D01*
X62014285Y-94900000D01*
X62061904Y-94947619D01*
X63252380Y-95852380D02*
X63252380Y-94852380D01*
X63728571Y-95852380D02*
X63728571Y-94852380D01*
X64300000Y-95852380D01*
X64300000Y-94852380D01*
X64633333Y-94852380D02*
X64966666Y-95852380D01*
X65300000Y-94852380D01*
X65633333Y-95471428D02*
X66395238Y-95471428D01*
X66871428Y-95185714D02*
X67633333Y-95471428D01*
X66871428Y-95757142D01*
X55766666Y-83652380D02*
X55766666Y-82652380D01*
X56147619Y-82652380D01*
X56242857Y-82700000D01*
X56290476Y-82747619D01*
X56338095Y-82842857D01*
X56338095Y-82985714D01*
X56290476Y-83080952D01*
X56242857Y-83128571D01*
X56147619Y-83176190D01*
X55766666Y-83176190D01*
X56766666Y-83652380D02*
X56766666Y-82652380D01*
X56766666Y-83128571D02*
X57338095Y-83128571D01*
X57338095Y-83652380D02*
X57338095Y-82652380D01*
X57766666Y-83366666D02*
X58242857Y-83366666D01*
X57671428Y-83652380D02*
X58004761Y-82652380D01*
X58338095Y-83652380D01*
X58623809Y-83604761D02*
X58766666Y-83652380D01*
X59004761Y-83652380D01*
X59100000Y-83604761D01*
X59147619Y-83557142D01*
X59195238Y-83461904D01*
X59195238Y-83366666D01*
X59147619Y-83271428D01*
X59100000Y-83223809D01*
X59004761Y-83176190D01*
X58814285Y-83128571D01*
X58719047Y-83080952D01*
X58671428Y-83033333D01*
X58623809Y-82938095D01*
X58623809Y-82842857D01*
X58671428Y-82747619D01*
X58719047Y-82700000D01*
X58814285Y-82652380D01*
X59052380Y-82652380D01*
X59195238Y-82700000D01*
X59623809Y-83128571D02*
X59957142Y-83128571D01*
X60100000Y-83652380D02*
X59623809Y-83652380D01*
X59623809Y-82652380D01*
X60100000Y-82652380D01*
X60290476Y-83747619D02*
X61052380Y-83747619D01*
X61623809Y-83128571D02*
X61766666Y-83176190D01*
X61814285Y-83223809D01*
X61861904Y-83319047D01*
X61861904Y-83461904D01*
X61814285Y-83557142D01*
X61766666Y-83604761D01*
X61671428Y-83652380D01*
X61290476Y-83652380D01*
X61290476Y-82652380D01*
X61623809Y-82652380D01*
X61719047Y-82700000D01*
X61766666Y-82747619D01*
X61814285Y-82842857D01*
X61814285Y-82938095D01*
X61766666Y-83033333D01*
X61719047Y-83080952D01*
X61623809Y-83128571D01*
X61290476Y-83128571D01*
X63052380Y-83652380D02*
X63052380Y-82652380D01*
X63528571Y-83652380D02*
X63528571Y-82652380D01*
X64100000Y-83652380D01*
X64100000Y-82652380D01*
X64433333Y-82652380D02*
X64766666Y-83652380D01*
X65100000Y-82652380D01*
X65433333Y-83271428D02*
X66195238Y-83271428D01*
X66671428Y-82985714D02*
X67433333Y-83271428D01*
X66671428Y-83557142D01*
X56038095Y-71652380D02*
X56038095Y-70652380D01*
X56419047Y-70652380D01*
X56514285Y-70700000D01*
X56561904Y-70747619D01*
X56609523Y-70842857D01*
X56609523Y-70985714D01*
X56561904Y-71080952D01*
X56514285Y-71128571D01*
X56419047Y-71176190D01*
X56038095Y-71176190D01*
X57038095Y-71652380D02*
X57038095Y-70652380D01*
X57038095Y-71128571D02*
X57609523Y-71128571D01*
X57609523Y-71652380D02*
X57609523Y-70652380D01*
X58038095Y-71366666D02*
X58514285Y-71366666D01*
X57942857Y-71652380D02*
X58276190Y-70652380D01*
X58609523Y-71652380D01*
X58895238Y-71604761D02*
X59038095Y-71652380D01*
X59276190Y-71652380D01*
X59371428Y-71604761D01*
X59419047Y-71557142D01*
X59466666Y-71461904D01*
X59466666Y-71366666D01*
X59419047Y-71271428D01*
X59371428Y-71223809D01*
X59276190Y-71176190D01*
X59085714Y-71128571D01*
X58990476Y-71080952D01*
X58942857Y-71033333D01*
X58895238Y-70938095D01*
X58895238Y-70842857D01*
X58942857Y-70747619D01*
X58990476Y-70700000D01*
X59085714Y-70652380D01*
X59323809Y-70652380D01*
X59466666Y-70700000D01*
X59895238Y-71128571D02*
X60228571Y-71128571D01*
X60371428Y-71652380D02*
X59895238Y-71652380D01*
X59895238Y-70652380D01*
X60371428Y-70652380D01*
X60561904Y-71747619D02*
X61323809Y-71747619D01*
X61514285Y-71366666D02*
X61990476Y-71366666D01*
X61419047Y-71652380D02*
X61752380Y-70652380D01*
X62085714Y-71652380D01*
X63180952Y-71652380D02*
X63180952Y-70652380D01*
X63657142Y-71652380D02*
X63657142Y-70652380D01*
X64228571Y-71652380D01*
X64228571Y-70652380D01*
X64561904Y-70652380D02*
X64895238Y-71652380D01*
X65228571Y-70652380D01*
X65561904Y-71271428D02*
X66323809Y-71271428D01*
X66800000Y-70985714D02*
X67561904Y-71271428D01*
X66800000Y-71557142D01*
X113857142Y-95852380D02*
X113857142Y-94852380D01*
X114238095Y-94852380D01*
X114333333Y-94900000D01*
X114380952Y-94947619D01*
X114428571Y-95042857D01*
X114428571Y-95185714D01*
X114380952Y-95280952D01*
X114333333Y-95328571D01*
X114238095Y-95376190D01*
X113857142Y-95376190D01*
X114857142Y-95852380D02*
X114857142Y-94852380D01*
X114857142Y-95328571D02*
X115428571Y-95328571D01*
X115428571Y-95852380D02*
X115428571Y-94852380D01*
X115857142Y-95566666D02*
X116333333Y-95566666D01*
X115761904Y-95852380D02*
X116095238Y-94852380D01*
X116428571Y-95852380D01*
X116714285Y-95804761D02*
X116857142Y-95852380D01*
X117095238Y-95852380D01*
X117190476Y-95804761D01*
X117238095Y-95757142D01*
X117285714Y-95661904D01*
X117285714Y-95566666D01*
X117238095Y-95471428D01*
X117190476Y-95423809D01*
X117095238Y-95376190D01*
X116904761Y-95328571D01*
X116809523Y-95280952D01*
X116761904Y-95233333D01*
X116714285Y-95138095D01*
X116714285Y-95042857D01*
X116761904Y-94947619D01*
X116809523Y-94900000D01*
X116904761Y-94852380D01*
X117142857Y-94852380D01*
X117285714Y-94900000D01*
X117714285Y-95328571D02*
X118047619Y-95328571D01*
X118190476Y-95852380D02*
X117714285Y-95852380D01*
X117714285Y-94852380D01*
X118190476Y-94852380D01*
X118380952Y-95947619D02*
X119142857Y-95947619D01*
X119952380Y-95757142D02*
X119904761Y-95804761D01*
X119761904Y-95852380D01*
X119666666Y-95852380D01*
X119523809Y-95804761D01*
X119428571Y-95709523D01*
X119380952Y-95614285D01*
X119333333Y-95423809D01*
X119333333Y-95280952D01*
X119380952Y-95090476D01*
X119428571Y-94995238D01*
X119523809Y-94900000D01*
X119666666Y-94852380D01*
X119761904Y-94852380D01*
X119904761Y-94900000D01*
X119952380Y-94947619D01*
X121142857Y-95852380D02*
X121142857Y-94852380D01*
X121476190Y-95566666D01*
X121809523Y-94852380D01*
X121809523Y-95852380D01*
X122476190Y-94852380D02*
X122666666Y-94852380D01*
X122761904Y-94900000D01*
X122857142Y-94995238D01*
X122904761Y-95185714D01*
X122904761Y-95519047D01*
X122857142Y-95709523D01*
X122761904Y-95804761D01*
X122666666Y-95852380D01*
X122476190Y-95852380D01*
X122380952Y-95804761D01*
X122285714Y-95709523D01*
X122238095Y-95519047D01*
X122238095Y-95185714D01*
X122285714Y-94995238D01*
X122380952Y-94900000D01*
X122476190Y-94852380D01*
X123190476Y-94852380D02*
X123761904Y-94852380D01*
X123476190Y-95852380D02*
X123476190Y-94852380D01*
X124285714Y-94852380D02*
X124476190Y-94852380D01*
X124571428Y-94900000D01*
X124666666Y-94995238D01*
X124714285Y-95185714D01*
X124714285Y-95519047D01*
X124666666Y-95709523D01*
X124571428Y-95804761D01*
X124476190Y-95852380D01*
X124285714Y-95852380D01*
X124190476Y-95804761D01*
X124095238Y-95709523D01*
X124047619Y-95519047D01*
X124047619Y-95185714D01*
X124095238Y-94995238D01*
X124190476Y-94900000D01*
X124285714Y-94852380D01*
X125714285Y-95852380D02*
X125380952Y-95376190D01*
X125142857Y-95852380D02*
X125142857Y-94852380D01*
X125523809Y-94852380D01*
X125619047Y-94900000D01*
X125666666Y-94947619D01*
X125714285Y-95042857D01*
X125714285Y-95185714D01*
X125666666Y-95280952D01*
X125619047Y-95328571D01*
X125523809Y-95376190D01*
X125142857Y-95376190D01*
X126142857Y-95471428D02*
X126904761Y-95471428D01*
X127380952Y-95185714D02*
X128142857Y-95471428D01*
X127380952Y-95757142D01*
X113857142Y-83852380D02*
X113857142Y-82852380D01*
X114238095Y-82852380D01*
X114333333Y-82900000D01*
X114380952Y-82947619D01*
X114428571Y-83042857D01*
X114428571Y-83185714D01*
X114380952Y-83280952D01*
X114333333Y-83328571D01*
X114238095Y-83376190D01*
X113857142Y-83376190D01*
X114857142Y-83852380D02*
X114857142Y-82852380D01*
X114857142Y-83328571D02*
X115428571Y-83328571D01*
X115428571Y-83852380D02*
X115428571Y-82852380D01*
X115857142Y-83566666D02*
X116333333Y-83566666D01*
X115761904Y-83852380D02*
X116095238Y-82852380D01*
X116428571Y-83852380D01*
X116714285Y-83804761D02*
X116857142Y-83852380D01*
X117095238Y-83852380D01*
X117190476Y-83804761D01*
X117238095Y-83757142D01*
X117285714Y-83661904D01*
X117285714Y-83566666D01*
X117238095Y-83471428D01*
X117190476Y-83423809D01*
X117095238Y-83376190D01*
X116904761Y-83328571D01*
X116809523Y-83280952D01*
X116761904Y-83233333D01*
X116714285Y-83138095D01*
X116714285Y-83042857D01*
X116761904Y-82947619D01*
X116809523Y-82900000D01*
X116904761Y-82852380D01*
X117142857Y-82852380D01*
X117285714Y-82900000D01*
X117714285Y-83328571D02*
X118047619Y-83328571D01*
X118190476Y-83852380D02*
X117714285Y-83852380D01*
X117714285Y-82852380D01*
X118190476Y-82852380D01*
X118380952Y-83947619D02*
X119142857Y-83947619D01*
X119714285Y-83328571D02*
X119857142Y-83376190D01*
X119904761Y-83423809D01*
X119952380Y-83519047D01*
X119952380Y-83661904D01*
X119904761Y-83757142D01*
X119857142Y-83804761D01*
X119761904Y-83852380D01*
X119380952Y-83852380D01*
X119380952Y-82852380D01*
X119714285Y-82852380D01*
X119809523Y-82900000D01*
X119857142Y-82947619D01*
X119904761Y-83042857D01*
X119904761Y-83138095D01*
X119857142Y-83233333D01*
X119809523Y-83280952D01*
X119714285Y-83328571D01*
X119380952Y-83328571D01*
X121142857Y-83852380D02*
X121142857Y-82852380D01*
X121476190Y-83566666D01*
X121809523Y-82852380D01*
X121809523Y-83852380D01*
X122476190Y-82852380D02*
X122666666Y-82852380D01*
X122761904Y-82900000D01*
X122857142Y-82995238D01*
X122904761Y-83185714D01*
X122904761Y-83519047D01*
X122857142Y-83709523D01*
X122761904Y-83804761D01*
X122666666Y-83852380D01*
X122476190Y-83852380D01*
X122380952Y-83804761D01*
X122285714Y-83709523D01*
X122238095Y-83519047D01*
X122238095Y-83185714D01*
X122285714Y-82995238D01*
X122380952Y-82900000D01*
X122476190Y-82852380D01*
X123190476Y-82852380D02*
X123761904Y-82852380D01*
X123476190Y-83852380D02*
X123476190Y-82852380D01*
X124285714Y-82852380D02*
X124476190Y-82852380D01*
X124571428Y-82900000D01*
X124666666Y-82995238D01*
X124714285Y-83185714D01*
X124714285Y-83519047D01*
X124666666Y-83709523D01*
X124571428Y-83804761D01*
X124476190Y-83852380D01*
X124285714Y-83852380D01*
X124190476Y-83804761D01*
X124095238Y-83709523D01*
X124047619Y-83519047D01*
X124047619Y-83185714D01*
X124095238Y-82995238D01*
X124190476Y-82900000D01*
X124285714Y-82852380D01*
X125714285Y-83852380D02*
X125380952Y-83376190D01*
X125142857Y-83852380D02*
X125142857Y-82852380D01*
X125523809Y-82852380D01*
X125619047Y-82900000D01*
X125666666Y-82947619D01*
X125714285Y-83042857D01*
X125714285Y-83185714D01*
X125666666Y-83280952D01*
X125619047Y-83328571D01*
X125523809Y-83376190D01*
X125142857Y-83376190D01*
X126142857Y-83471428D02*
X126904761Y-83471428D01*
X127380952Y-83185714D02*
X128142857Y-83471428D01*
X127380952Y-83757142D01*
X113928571Y-71652380D02*
X113928571Y-70652380D01*
X114309523Y-70652380D01*
X114404761Y-70700000D01*
X114452380Y-70747619D01*
X114500000Y-70842857D01*
X114500000Y-70985714D01*
X114452380Y-71080952D01*
X114404761Y-71128571D01*
X114309523Y-71176190D01*
X113928571Y-71176190D01*
X114928571Y-71652380D02*
X114928571Y-70652380D01*
X114928571Y-71128571D02*
X115500000Y-71128571D01*
X115500000Y-71652380D02*
X115500000Y-70652380D01*
X115928571Y-71366666D02*
X116404761Y-71366666D01*
X115833333Y-71652380D02*
X116166666Y-70652380D01*
X116500000Y-71652380D01*
X116785714Y-71604761D02*
X116928571Y-71652380D01*
X117166666Y-71652380D01*
X117261904Y-71604761D01*
X117309523Y-71557142D01*
X117357142Y-71461904D01*
X117357142Y-71366666D01*
X117309523Y-71271428D01*
X117261904Y-71223809D01*
X117166666Y-71176190D01*
X116976190Y-71128571D01*
X116880952Y-71080952D01*
X116833333Y-71033333D01*
X116785714Y-70938095D01*
X116785714Y-70842857D01*
X116833333Y-70747619D01*
X116880952Y-70700000D01*
X116976190Y-70652380D01*
X117214285Y-70652380D01*
X117357142Y-70700000D01*
X117785714Y-71128571D02*
X118119047Y-71128571D01*
X118261904Y-71652380D02*
X117785714Y-71652380D01*
X117785714Y-70652380D01*
X118261904Y-70652380D01*
X118452380Y-71747619D02*
X119214285Y-71747619D01*
X119404761Y-71366666D02*
X119880952Y-71366666D01*
X119309523Y-71652380D02*
X119642857Y-70652380D01*
X119976190Y-71652380D01*
X121071428Y-71652380D02*
X121071428Y-70652380D01*
X121404761Y-71366666D01*
X121738095Y-70652380D01*
X121738095Y-71652380D01*
X122404761Y-70652380D02*
X122595238Y-70652380D01*
X122690476Y-70700000D01*
X122785714Y-70795238D01*
X122833333Y-70985714D01*
X122833333Y-71319047D01*
X122785714Y-71509523D01*
X122690476Y-71604761D01*
X122595238Y-71652380D01*
X122404761Y-71652380D01*
X122309523Y-71604761D01*
X122214285Y-71509523D01*
X122166666Y-71319047D01*
X122166666Y-70985714D01*
X122214285Y-70795238D01*
X122309523Y-70700000D01*
X122404761Y-70652380D01*
X123119047Y-70652380D02*
X123690476Y-70652380D01*
X123404761Y-71652380D02*
X123404761Y-70652380D01*
X124214285Y-70652380D02*
X124404761Y-70652380D01*
X124500000Y-70700000D01*
X124595238Y-70795238D01*
X124642857Y-70985714D01*
X124642857Y-71319047D01*
X124595238Y-71509523D01*
X124500000Y-71604761D01*
X124404761Y-71652380D01*
X124214285Y-71652380D01*
X124119047Y-71604761D01*
X124023809Y-71509523D01*
X123976190Y-71319047D01*
X123976190Y-70985714D01*
X124023809Y-70795238D01*
X124119047Y-70700000D01*
X124214285Y-70652380D01*
X125642857Y-71652380D02*
X125309523Y-71176190D01*
X125071428Y-71652380D02*
X125071428Y-70652380D01*
X125452380Y-70652380D01*
X125547619Y-70700000D01*
X125595238Y-70747619D01*
X125642857Y-70842857D01*
X125642857Y-70985714D01*
X125595238Y-71080952D01*
X125547619Y-71128571D01*
X125452380Y-71176190D01*
X125071428Y-71176190D01*
X126071428Y-71271428D02*
X126833333Y-71271428D01*
X127309523Y-70985714D02*
X128071428Y-71271428D01*
X127309523Y-71557142D01*
X110533333Y-98052380D02*
X110533333Y-97052380D01*
X110914285Y-97052380D01*
X111009523Y-97100000D01*
X111057142Y-97147619D01*
X111104761Y-97242857D01*
X111104761Y-97385714D01*
X111057142Y-97480952D01*
X111009523Y-97528571D01*
X110914285Y-97576190D01*
X110533333Y-97576190D01*
X111533333Y-98052380D02*
X111533333Y-97052380D01*
X111533333Y-97528571D02*
X112104761Y-97528571D01*
X112104761Y-98052380D02*
X112104761Y-97052380D01*
X112342857Y-98147619D02*
X113104761Y-98147619D01*
X113914285Y-97957142D02*
X113866666Y-98004761D01*
X113723809Y-98052380D01*
X113628571Y-98052380D01*
X113485714Y-98004761D01*
X113390476Y-97909523D01*
X113342857Y-97814285D01*
X113295238Y-97623809D01*
X113295238Y-97480952D01*
X113342857Y-97290476D01*
X113390476Y-97195238D01*
X113485714Y-97100000D01*
X113628571Y-97052380D01*
X113723809Y-97052380D01*
X113866666Y-97100000D01*
X113914285Y-97147619D01*
X110533333Y-86052380D02*
X110533333Y-85052380D01*
X110914285Y-85052380D01*
X111009523Y-85100000D01*
X111057142Y-85147619D01*
X111104761Y-85242857D01*
X111104761Y-85385714D01*
X111057142Y-85480952D01*
X111009523Y-85528571D01*
X110914285Y-85576190D01*
X110533333Y-85576190D01*
X111533333Y-86052380D02*
X111533333Y-85052380D01*
X111533333Y-85528571D02*
X112104761Y-85528571D01*
X112104761Y-86052380D02*
X112104761Y-85052380D01*
X112342857Y-86147619D02*
X113104761Y-86147619D01*
X113676190Y-85528571D02*
X113819047Y-85576190D01*
X113866666Y-85623809D01*
X113914285Y-85719047D01*
X113914285Y-85861904D01*
X113866666Y-85957142D01*
X113819047Y-86004761D01*
X113723809Y-86052380D01*
X113342857Y-86052380D01*
X113342857Y-85052380D01*
X113676190Y-85052380D01*
X113771428Y-85100000D01*
X113819047Y-85147619D01*
X113866666Y-85242857D01*
X113866666Y-85338095D01*
X113819047Y-85433333D01*
X113771428Y-85480952D01*
X113676190Y-85528571D01*
X113342857Y-85528571D01*
X110604761Y-73852380D02*
X110604761Y-72852380D01*
X110985714Y-72852380D01*
X111080952Y-72900000D01*
X111128571Y-72947619D01*
X111176190Y-73042857D01*
X111176190Y-73185714D01*
X111128571Y-73280952D01*
X111080952Y-73328571D01*
X110985714Y-73376190D01*
X110604761Y-73376190D01*
X111604761Y-73852380D02*
X111604761Y-72852380D01*
X111604761Y-73328571D02*
X112176190Y-73328571D01*
X112176190Y-73852380D02*
X112176190Y-72852380D01*
X112414285Y-73947619D02*
X113176190Y-73947619D01*
X113366666Y-73566666D02*
X113842857Y-73566666D01*
X113271428Y-73852380D02*
X113604761Y-72852380D01*
X113938095Y-73852380D01*
D14*
X110911904Y-80226190D02*
X110911904Y-79726190D01*
X111197619Y-80226190D01*
X111197619Y-79726190D01*
X111435714Y-79964285D02*
X111602380Y-79964285D01*
X111673809Y-80226190D02*
X111435714Y-80226190D01*
X111435714Y-79726190D01*
X111673809Y-79726190D01*
X111888095Y-79726190D02*
X111888095Y-80130952D01*
X111911904Y-80178571D01*
X111935714Y-80202380D01*
X111983333Y-80226190D01*
X112078571Y-80226190D01*
X112126190Y-80202380D01*
X112150000Y-80178571D01*
X112173809Y-80130952D01*
X112173809Y-79726190D01*
X112340476Y-79726190D02*
X112626190Y-79726190D01*
X112483333Y-80226190D02*
X112483333Y-79726190D01*
X113078571Y-80226190D02*
X112911904Y-79988095D01*
X112792857Y-80226190D02*
X112792857Y-79726190D01*
X112983333Y-79726190D01*
X113030952Y-79750000D01*
X113054761Y-79773809D01*
X113078571Y-79821428D01*
X113078571Y-79892857D01*
X113054761Y-79940476D01*
X113030952Y-79964285D01*
X112983333Y-79988095D01*
X112792857Y-79988095D01*
X113269047Y-80083333D02*
X113507142Y-80083333D01*
X113221428Y-80226190D02*
X113388095Y-79726190D01*
X113554761Y-80226190D01*
X113959523Y-80226190D02*
X113721428Y-80226190D01*
X113721428Y-79726190D01*
X110911904Y-92026190D02*
X110911904Y-91526190D01*
X111197619Y-92026190D01*
X111197619Y-91526190D01*
X111435714Y-91764285D02*
X111602380Y-91764285D01*
X111673809Y-92026190D02*
X111435714Y-92026190D01*
X111435714Y-91526190D01*
X111673809Y-91526190D01*
X111888095Y-91526190D02*
X111888095Y-91930952D01*
X111911904Y-91978571D01*
X111935714Y-92002380D01*
X111983333Y-92026190D01*
X112078571Y-92026190D01*
X112126190Y-92002380D01*
X112150000Y-91978571D01*
X112173809Y-91930952D01*
X112173809Y-91526190D01*
X112340476Y-91526190D02*
X112626190Y-91526190D01*
X112483333Y-92026190D02*
X112483333Y-91526190D01*
X113078571Y-92026190D02*
X112911904Y-91788095D01*
X112792857Y-92026190D02*
X112792857Y-91526190D01*
X112983333Y-91526190D01*
X113030952Y-91550000D01*
X113054761Y-91573809D01*
X113078571Y-91621428D01*
X113078571Y-91692857D01*
X113054761Y-91740476D01*
X113030952Y-91764285D01*
X112983333Y-91788095D01*
X112792857Y-91788095D01*
X113269047Y-91883333D02*
X113507142Y-91883333D01*
X113221428Y-92026190D02*
X113388095Y-91526190D01*
X113554761Y-92026190D01*
X113959523Y-92026190D02*
X113721428Y-92026190D01*
X113721428Y-91526190D01*
X110911904Y-104226190D02*
X110911904Y-103726190D01*
X111197619Y-104226190D01*
X111197619Y-103726190D01*
X111435714Y-103964285D02*
X111602380Y-103964285D01*
X111673809Y-104226190D02*
X111435714Y-104226190D01*
X111435714Y-103726190D01*
X111673809Y-103726190D01*
X111888095Y-103726190D02*
X111888095Y-104130952D01*
X111911904Y-104178571D01*
X111935714Y-104202380D01*
X111983333Y-104226190D01*
X112078571Y-104226190D01*
X112126190Y-104202380D01*
X112150000Y-104178571D01*
X112173809Y-104130952D01*
X112173809Y-103726190D01*
X112340476Y-103726190D02*
X112626190Y-103726190D01*
X112483333Y-104226190D02*
X112483333Y-103726190D01*
X113078571Y-104226190D02*
X112911904Y-103988095D01*
X112792857Y-104226190D02*
X112792857Y-103726190D01*
X112983333Y-103726190D01*
X113030952Y-103750000D01*
X113054761Y-103773809D01*
X113078571Y-103821428D01*
X113078571Y-103892857D01*
X113054761Y-103940476D01*
X113030952Y-103964285D01*
X112983333Y-103988095D01*
X112792857Y-103988095D01*
X113269047Y-104083333D02*
X113507142Y-104083333D01*
X113221428Y-104226190D02*
X113388095Y-103726190D01*
X113554761Y-104226190D01*
X113959523Y-104226190D02*
X113721428Y-104226190D01*
X113721428Y-103726190D01*
D13*
X83038095Y-79300000D02*
X82942857Y-79252380D01*
X82800000Y-79252380D01*
X82657142Y-79300000D01*
X82561904Y-79395238D01*
X82514285Y-79490476D01*
X82466666Y-79680952D01*
X82466666Y-79823809D01*
X82514285Y-80014285D01*
X82561904Y-80109523D01*
X82657142Y-80204761D01*
X82800000Y-80252380D01*
X82895238Y-80252380D01*
X83038095Y-80204761D01*
X83085714Y-80157142D01*
X83085714Y-79823809D01*
X82895238Y-79823809D01*
X83514285Y-80252380D02*
X83514285Y-79252380D01*
X84085714Y-80252380D01*
X84085714Y-79252380D01*
X84561904Y-80252380D02*
X84561904Y-79252380D01*
X84800000Y-79252380D01*
X84942857Y-79300000D01*
X85038095Y-79395238D01*
X85085714Y-79490476D01*
X85133333Y-79680952D01*
X85133333Y-79823809D01*
X85085714Y-80014285D01*
X85038095Y-80109523D01*
X84942857Y-80204761D01*
X84800000Y-80252380D01*
X84561904Y-80252380D01*
X82838095Y-90900000D02*
X82742857Y-90852380D01*
X82600000Y-90852380D01*
X82457142Y-90900000D01*
X82361904Y-90995238D01*
X82314285Y-91090476D01*
X82266666Y-91280952D01*
X82266666Y-91423809D01*
X82314285Y-91614285D01*
X82361904Y-91709523D01*
X82457142Y-91804761D01*
X82600000Y-91852380D01*
X82695238Y-91852380D01*
X82838095Y-91804761D01*
X82885714Y-91757142D01*
X82885714Y-91423809D01*
X82695238Y-91423809D01*
X83314285Y-91852380D02*
X83314285Y-90852380D01*
X83885714Y-91852380D01*
X83885714Y-90852380D01*
X84361904Y-91852380D02*
X84361904Y-90852380D01*
X84600000Y-90852380D01*
X84742857Y-90900000D01*
X84838095Y-90995238D01*
X84885714Y-91090476D01*
X84933333Y-91280952D01*
X84933333Y-91423809D01*
X84885714Y-91614285D01*
X84838095Y-91709523D01*
X84742857Y-91804761D01*
X84600000Y-91852380D01*
X84361904Y-91852380D01*
X83038095Y-103100000D02*
X82942857Y-103052380D01*
X82800000Y-103052380D01*
X82657142Y-103100000D01*
X82561904Y-103195238D01*
X82514285Y-103290476D01*
X82466666Y-103480952D01*
X82466666Y-103623809D01*
X82514285Y-103814285D01*
X82561904Y-103909523D01*
X82657142Y-104004761D01*
X82800000Y-104052380D01*
X82895238Y-104052380D01*
X83038095Y-104004761D01*
X83085714Y-103957142D01*
X83085714Y-103623809D01*
X82895238Y-103623809D01*
X83514285Y-104052380D02*
X83514285Y-103052380D01*
X84085714Y-104052380D01*
X84085714Y-103052380D01*
X84561904Y-104052380D02*
X84561904Y-103052380D01*
X84800000Y-103052380D01*
X84942857Y-103100000D01*
X85038095Y-103195238D01*
X85085714Y-103290476D01*
X85133333Y-103480952D01*
X85133333Y-103623809D01*
X85085714Y-103814285D01*
X85038095Y-103909523D01*
X84942857Y-104004761D01*
X84800000Y-104052380D01*
X84561904Y-104052380D01*
X105838095Y-103300000D02*
X105742857Y-103252380D01*
X105600000Y-103252380D01*
X105457142Y-103300000D01*
X105361904Y-103395238D01*
X105314285Y-103490476D01*
X105266666Y-103680952D01*
X105266666Y-103823809D01*
X105314285Y-104014285D01*
X105361904Y-104109523D01*
X105457142Y-104204761D01*
X105600000Y-104252380D01*
X105695238Y-104252380D01*
X105838095Y-104204761D01*
X105885714Y-104157142D01*
X105885714Y-103823809D01*
X105695238Y-103823809D01*
X106314285Y-104252380D02*
X106314285Y-103252380D01*
X106885714Y-104252380D01*
X106885714Y-103252380D01*
X107361904Y-104252380D02*
X107361904Y-103252380D01*
X107600000Y-103252380D01*
X107742857Y-103300000D01*
X107838095Y-103395238D01*
X107885714Y-103490476D01*
X107933333Y-103680952D01*
X107933333Y-103823809D01*
X107885714Y-104014285D01*
X107838095Y-104109523D01*
X107742857Y-104204761D01*
X107600000Y-104252380D01*
X107361904Y-104252380D01*
X106238095Y-91100000D02*
X106142857Y-91052380D01*
X106000000Y-91052380D01*
X105857142Y-91100000D01*
X105761904Y-91195238D01*
X105714285Y-91290476D01*
X105666666Y-91480952D01*
X105666666Y-91623809D01*
X105714285Y-91814285D01*
X105761904Y-91909523D01*
X105857142Y-92004761D01*
X106000000Y-92052380D01*
X106095238Y-92052380D01*
X106238095Y-92004761D01*
X106285714Y-91957142D01*
X106285714Y-91623809D01*
X106095238Y-91623809D01*
X106714285Y-92052380D02*
X106714285Y-91052380D01*
X107285714Y-92052380D01*
X107285714Y-91052380D01*
X107761904Y-92052380D02*
X107761904Y-91052380D01*
X108000000Y-91052380D01*
X108142857Y-91100000D01*
X108238095Y-91195238D01*
X108285714Y-91290476D01*
X108333333Y-91480952D01*
X108333333Y-91623809D01*
X108285714Y-91814285D01*
X108238095Y-91909523D01*
X108142857Y-92004761D01*
X108000000Y-92052380D01*
X107761904Y-92052380D01*
X106038095Y-79100000D02*
X105942857Y-79052380D01*
X105800000Y-79052380D01*
X105657142Y-79100000D01*
X105561904Y-79195238D01*
X105514285Y-79290476D01*
X105466666Y-79480952D01*
X105466666Y-79623809D01*
X105514285Y-79814285D01*
X105561904Y-79909523D01*
X105657142Y-80004761D01*
X105800000Y-80052380D01*
X105895238Y-80052380D01*
X106038095Y-80004761D01*
X106085714Y-79957142D01*
X106085714Y-79623809D01*
X105895238Y-79623809D01*
X106514285Y-80052380D02*
X106514285Y-79052380D01*
X107085714Y-80052380D01*
X107085714Y-79052380D01*
X107561904Y-80052380D02*
X107561904Y-79052380D01*
X107800000Y-79052380D01*
X107942857Y-79100000D01*
X108038095Y-79195238D01*
X108085714Y-79290476D01*
X108133333Y-79480952D01*
X108133333Y-79623809D01*
X108085714Y-79814285D01*
X108038095Y-79909523D01*
X107942857Y-80004761D01*
X107800000Y-80052380D01*
X107561904Y-80052380D01*
X98714285Y-104252380D02*
X98714285Y-103252380D01*
X98952380Y-104347619D02*
X99714285Y-104347619D01*
X99952380Y-104252380D02*
X99952380Y-103252380D01*
X100333333Y-103252380D01*
X100428571Y-103300000D01*
X100476190Y-103347619D01*
X100523809Y-103442857D01*
X100523809Y-103585714D01*
X100476190Y-103680952D01*
X100428571Y-103728571D01*
X100333333Y-103776190D01*
X99952380Y-103776190D01*
X100952380Y-104252380D02*
X100952380Y-103252380D01*
X100952380Y-103728571D02*
X101523809Y-103728571D01*
X101523809Y-104252380D02*
X101523809Y-103252380D01*
X101761904Y-104347619D02*
X102523809Y-104347619D01*
X103333333Y-104157142D02*
X103285714Y-104204761D01*
X103142857Y-104252380D01*
X103047619Y-104252380D01*
X102904761Y-104204761D01*
X102809523Y-104109523D01*
X102761904Y-104014285D01*
X102714285Y-103823809D01*
X102714285Y-103680952D01*
X102761904Y-103490476D01*
X102809523Y-103395238D01*
X102904761Y-103300000D01*
X103047619Y-103252380D01*
X103142857Y-103252380D01*
X103285714Y-103300000D01*
X103333333Y-103347619D01*
X98714285Y-92052380D02*
X98714285Y-91052380D01*
X98952380Y-92147619D02*
X99714285Y-92147619D01*
X99952380Y-92052380D02*
X99952380Y-91052380D01*
X100333333Y-91052380D01*
X100428571Y-91100000D01*
X100476190Y-91147619D01*
X100523809Y-91242857D01*
X100523809Y-91385714D01*
X100476190Y-91480952D01*
X100428571Y-91528571D01*
X100333333Y-91576190D01*
X99952380Y-91576190D01*
X100952380Y-92052380D02*
X100952380Y-91052380D01*
X100952380Y-91528571D02*
X101523809Y-91528571D01*
X101523809Y-92052380D02*
X101523809Y-91052380D01*
X101761904Y-92147619D02*
X102523809Y-92147619D01*
X103095238Y-91528571D02*
X103238095Y-91576190D01*
X103285714Y-91623809D01*
X103333333Y-91719047D01*
X103333333Y-91861904D01*
X103285714Y-91957142D01*
X103238095Y-92004761D01*
X103142857Y-92052380D01*
X102761904Y-92052380D01*
X102761904Y-91052380D01*
X103095238Y-91052380D01*
X103190476Y-91100000D01*
X103238095Y-91147619D01*
X103285714Y-91242857D01*
X103285714Y-91338095D01*
X103238095Y-91433333D01*
X103190476Y-91480952D01*
X103095238Y-91528571D01*
X102761904Y-91528571D01*
X98785714Y-80252380D02*
X98785714Y-79252380D01*
X99023809Y-80347619D02*
X99785714Y-80347619D01*
X100023809Y-80252380D02*
X100023809Y-79252380D01*
X100404761Y-79252380D01*
X100500000Y-79300000D01*
X100547619Y-79347619D01*
X100595238Y-79442857D01*
X100595238Y-79585714D01*
X100547619Y-79680952D01*
X100500000Y-79728571D01*
X100404761Y-79776190D01*
X100023809Y-79776190D01*
X101023809Y-80252380D02*
X101023809Y-79252380D01*
X101023809Y-79728571D02*
X101595238Y-79728571D01*
X101595238Y-80252380D02*
X101595238Y-79252380D01*
X101833333Y-80347619D02*
X102595238Y-80347619D01*
X102785714Y-79966666D02*
X103261904Y-79966666D01*
X102690476Y-80252380D02*
X103023809Y-79252380D01*
X103357142Y-80252380D01*
X71580952Y-103052380D02*
X71914285Y-104052380D01*
X72247619Y-103052380D01*
X72342857Y-104147619D02*
X73104761Y-104147619D01*
X73342857Y-104052380D02*
X73342857Y-103052380D01*
X73723809Y-103052380D01*
X73819047Y-103100000D01*
X73866666Y-103147619D01*
X73914285Y-103242857D01*
X73914285Y-103385714D01*
X73866666Y-103480952D01*
X73819047Y-103528571D01*
X73723809Y-103576190D01*
X73342857Y-103576190D01*
X74342857Y-104052380D02*
X74342857Y-103052380D01*
X74342857Y-103528571D02*
X74914285Y-103528571D01*
X74914285Y-104052380D02*
X74914285Y-103052380D01*
X75152380Y-104147619D02*
X75914285Y-104147619D01*
X76723809Y-103957142D02*
X76676190Y-104004761D01*
X76533333Y-104052380D01*
X76438095Y-104052380D01*
X76295238Y-104004761D01*
X76200000Y-103909523D01*
X76152380Y-103814285D01*
X76104761Y-103623809D01*
X76104761Y-103480952D01*
X76152380Y-103290476D01*
X76200000Y-103195238D01*
X76295238Y-103100000D01*
X76438095Y-103052380D01*
X76533333Y-103052380D01*
X76676190Y-103100000D01*
X76723809Y-103147619D01*
X71580952Y-90852380D02*
X71914285Y-91852380D01*
X72247619Y-90852380D01*
X72342857Y-91947619D02*
X73104761Y-91947619D01*
X73342857Y-91852380D02*
X73342857Y-90852380D01*
X73723809Y-90852380D01*
X73819047Y-90900000D01*
X73866666Y-90947619D01*
X73914285Y-91042857D01*
X73914285Y-91185714D01*
X73866666Y-91280952D01*
X73819047Y-91328571D01*
X73723809Y-91376190D01*
X73342857Y-91376190D01*
X74342857Y-91852380D02*
X74342857Y-90852380D01*
X74342857Y-91328571D02*
X74914285Y-91328571D01*
X74914285Y-91852380D02*
X74914285Y-90852380D01*
X75152380Y-91947619D02*
X75914285Y-91947619D01*
X76485714Y-91328571D02*
X76628571Y-91376190D01*
X76676190Y-91423809D01*
X76723809Y-91519047D01*
X76723809Y-91661904D01*
X76676190Y-91757142D01*
X76628571Y-91804761D01*
X76533333Y-91852380D01*
X76152380Y-91852380D01*
X76152380Y-90852380D01*
X76485714Y-90852380D01*
X76580952Y-90900000D01*
X76628571Y-90947619D01*
X76676190Y-91042857D01*
X76676190Y-91138095D01*
X76628571Y-91233333D01*
X76580952Y-91280952D01*
X76485714Y-91328571D01*
X76152380Y-91328571D01*
X71652380Y-79052380D02*
X71985714Y-80052380D01*
X72319047Y-79052380D01*
X72414285Y-80147619D02*
X73176190Y-80147619D01*
X73414285Y-80052380D02*
X73414285Y-79052380D01*
X73795238Y-79052380D01*
X73890476Y-79100000D01*
X73938095Y-79147619D01*
X73985714Y-79242857D01*
X73985714Y-79385714D01*
X73938095Y-79480952D01*
X73890476Y-79528571D01*
X73795238Y-79576190D01*
X73414285Y-79576190D01*
X74414285Y-80052380D02*
X74414285Y-79052380D01*
X74414285Y-79528571D02*
X74985714Y-79528571D01*
X74985714Y-80052380D02*
X74985714Y-79052380D01*
X75223809Y-80147619D02*
X75985714Y-80147619D01*
X76176190Y-79766666D02*
X76652380Y-79766666D01*
X76080952Y-80052380D02*
X76414285Y-79052380D01*
X76747619Y-80052380D01*
X74471428Y-53528571D02*
X74614285Y-53576190D01*
X74661904Y-53623809D01*
X74709523Y-53719047D01*
X74709523Y-53861904D01*
X74661904Y-53957142D01*
X74614285Y-54004761D01*
X74519047Y-54052380D01*
X74138095Y-54052380D01*
X74138095Y-53052380D01*
X74471428Y-53052380D01*
X74566666Y-53100000D01*
X74614285Y-53147619D01*
X74661904Y-53242857D01*
X74661904Y-53338095D01*
X74614285Y-53433333D01*
X74566666Y-53480952D01*
X74471428Y-53528571D01*
X74138095Y-53528571D01*
X75138095Y-53052380D02*
X75138095Y-53861904D01*
X75185714Y-53957142D01*
X75233333Y-54004761D01*
X75328571Y-54052380D01*
X75519047Y-54052380D01*
X75614285Y-54004761D01*
X75661904Y-53957142D01*
X75709523Y-53861904D01*
X75709523Y-53052380D01*
X76138095Y-54004761D02*
X76280952Y-54052380D01*
X76519047Y-54052380D01*
X76614285Y-54004761D01*
X76661904Y-53957142D01*
X76709523Y-53861904D01*
X76709523Y-53766666D01*
X76661904Y-53671428D01*
X76614285Y-53623809D01*
X76519047Y-53576190D01*
X76328571Y-53528571D01*
X76233333Y-53480952D01*
X76185714Y-53433333D01*
X76138095Y-53338095D01*
X76138095Y-53242857D01*
X76185714Y-53147619D01*
X76233333Y-53100000D01*
X76328571Y-53052380D01*
X76566666Y-53052380D01*
X76709523Y-53100000D01*
X72985714Y-59252380D02*
X73319047Y-60252380D01*
X73652380Y-59252380D01*
X73747619Y-60347619D02*
X74509523Y-60347619D01*
X75080952Y-59728571D02*
X75223809Y-59776190D01*
X75271428Y-59823809D01*
X75319047Y-59919047D01*
X75319047Y-60061904D01*
X75271428Y-60157142D01*
X75223809Y-60204761D01*
X75128571Y-60252380D01*
X74747619Y-60252380D01*
X74747619Y-59252380D01*
X75080952Y-59252380D01*
X75176190Y-59300000D01*
X75223809Y-59347619D01*
X75271428Y-59442857D01*
X75271428Y-59538095D01*
X75223809Y-59633333D01*
X75176190Y-59680952D01*
X75080952Y-59728571D01*
X74747619Y-59728571D01*
X75747619Y-59252380D02*
X75747619Y-60061904D01*
X75795238Y-60157142D01*
X75842857Y-60204761D01*
X75938095Y-60252380D01*
X76128571Y-60252380D01*
X76223809Y-60204761D01*
X76271428Y-60157142D01*
X76319047Y-60061904D01*
X76319047Y-59252380D01*
X76747619Y-60204761D02*
X76890476Y-60252380D01*
X77128571Y-60252380D01*
X77223809Y-60204761D01*
X77271428Y-60157142D01*
X77319047Y-60061904D01*
X77319047Y-59966666D01*
X77271428Y-59871428D01*
X77223809Y-59823809D01*
X77128571Y-59776190D01*
X76938095Y-59728571D01*
X76842857Y-59680952D01*
X76795238Y-59633333D01*
X76747619Y-59538095D01*
X76747619Y-59442857D01*
X76795238Y-59347619D01*
X76842857Y-59300000D01*
X76938095Y-59252380D01*
X77176190Y-59252380D01*
X77319047Y-59300000D01*
X83038095Y-59500000D02*
X82942857Y-59452380D01*
X82800000Y-59452380D01*
X82657142Y-59500000D01*
X82561904Y-59595238D01*
X82514285Y-59690476D01*
X82466666Y-59880952D01*
X82466666Y-60023809D01*
X82514285Y-60214285D01*
X82561904Y-60309523D01*
X82657142Y-60404761D01*
X82800000Y-60452380D01*
X82895238Y-60452380D01*
X83038095Y-60404761D01*
X83085714Y-60357142D01*
X83085714Y-60023809D01*
X82895238Y-60023809D01*
X83514285Y-60452380D02*
X83514285Y-59452380D01*
X84085714Y-60452380D01*
X84085714Y-59452380D01*
X84561904Y-60452380D02*
X84561904Y-59452380D01*
X84800000Y-59452380D01*
X84942857Y-59500000D01*
X85038095Y-59595238D01*
X85085714Y-59690476D01*
X85133333Y-59880952D01*
X85133333Y-60023809D01*
X85085714Y-60214285D01*
X85038095Y-60309523D01*
X84942857Y-60404761D01*
X84800000Y-60452380D01*
X84561904Y-60452380D01*
X105838095Y-59500000D02*
X105742857Y-59452380D01*
X105600000Y-59452380D01*
X105457142Y-59500000D01*
X105361904Y-59595238D01*
X105314285Y-59690476D01*
X105266666Y-59880952D01*
X105266666Y-60023809D01*
X105314285Y-60214285D01*
X105361904Y-60309523D01*
X105457142Y-60404761D01*
X105600000Y-60452380D01*
X105695238Y-60452380D01*
X105838095Y-60404761D01*
X105885714Y-60357142D01*
X105885714Y-60023809D01*
X105695238Y-60023809D01*
X106314285Y-60452380D02*
X106314285Y-59452380D01*
X106885714Y-60452380D01*
X106885714Y-59452380D01*
X107361904Y-60452380D02*
X107361904Y-59452380D01*
X107600000Y-59452380D01*
X107742857Y-59500000D01*
X107838095Y-59595238D01*
X107885714Y-59690476D01*
X107933333Y-59880952D01*
X107933333Y-60023809D01*
X107885714Y-60214285D01*
X107838095Y-60309523D01*
X107742857Y-60404761D01*
X107600000Y-60452380D01*
X107361904Y-60452380D01*
X99119047Y-60452380D02*
X99119047Y-59452380D01*
X99357142Y-60547619D02*
X100119047Y-60547619D01*
X100690476Y-59928571D02*
X100833333Y-59976190D01*
X100880952Y-60023809D01*
X100928571Y-60119047D01*
X100928571Y-60261904D01*
X100880952Y-60357142D01*
X100833333Y-60404761D01*
X100738095Y-60452380D01*
X100357142Y-60452380D01*
X100357142Y-59452380D01*
X100690476Y-59452380D01*
X100785714Y-59500000D01*
X100833333Y-59547619D01*
X100880952Y-59642857D01*
X100880952Y-59738095D01*
X100833333Y-59833333D01*
X100785714Y-59880952D01*
X100690476Y-59928571D01*
X100357142Y-59928571D01*
X101357142Y-59452380D02*
X101357142Y-60261904D01*
X101404761Y-60357142D01*
X101452380Y-60404761D01*
X101547619Y-60452380D01*
X101738095Y-60452380D01*
X101833333Y-60404761D01*
X101880952Y-60357142D01*
X101928571Y-60261904D01*
X101928571Y-59452380D01*
X102357142Y-60404761D02*
X102500000Y-60452380D01*
X102738095Y-60452380D01*
X102833333Y-60404761D01*
X102880952Y-60357142D01*
X102928571Y-60261904D01*
X102928571Y-60166666D01*
X102880952Y-60071428D01*
X102833333Y-60023809D01*
X102738095Y-59976190D01*
X102547619Y-59928571D01*
X102452380Y-59880952D01*
X102404761Y-59833333D01*
X102357142Y-59738095D01*
X102357142Y-59642857D01*
X102404761Y-59547619D01*
X102452380Y-59500000D01*
X102547619Y-59452380D01*
X102785714Y-59452380D01*
X102928571Y-59500000D01*
D11*
X81350000Y-64000000D02*
X81350000Y-63000000D01*
X79650000Y-63000000D02*
X79650000Y-64000000D01*
X79150000Y-83250000D02*
X79150000Y-84250000D01*
X80850000Y-84250000D02*
X80850000Y-83250000D01*
X90850000Y-59100000D02*
X90150000Y-59100000D01*
X90150000Y-57900000D02*
X90850000Y-57900000D01*
X89900000Y-77900000D02*
X90600000Y-77900000D01*
X90600000Y-79100000D02*
X89900000Y-79100000D01*
X97400000Y-63850000D02*
X97400000Y-63150000D01*
X98600000Y-63150000D02*
X98600000Y-63850000D01*
X98350000Y-83150000D02*
X98350000Y-83850000D01*
X97150000Y-83850000D02*
X97150000Y-83150000D01*
X96100000Y-62000000D02*
X96100000Y-61000000D01*
X94400000Y-61000000D02*
X94400000Y-62000000D01*
X89900000Y-89900000D02*
X90600000Y-89900000D01*
X90600000Y-91100000D02*
X89900000Y-91100000D01*
X98600000Y-94900000D02*
X98600000Y-95600000D01*
X97400000Y-95600000D02*
X97400000Y-94900000D01*
X95850000Y-82000000D02*
X95850000Y-81000000D01*
X94150000Y-81000000D02*
X94150000Y-82000000D01*
X90600000Y-103100000D02*
X89900000Y-103100000D01*
X89900000Y-101900000D02*
X90600000Y-101900000D01*
X97400000Y-107850000D02*
X97400000Y-107150000D01*
X98600000Y-107150000D02*
X98600000Y-107850000D01*
X94150000Y-92750000D02*
X94150000Y-93750000D01*
X95850000Y-93750000D02*
X95850000Y-92750000D01*
X95850000Y-106000000D02*
X95850000Y-105000000D01*
X94150000Y-105000000D02*
X94150000Y-106000000D01*
X80600000Y-96000000D02*
X80600000Y-95000000D01*
X78900000Y-95000000D02*
X78900000Y-96000000D01*
X80850000Y-108000000D02*
X80850000Y-107000000D01*
X79150000Y-107000000D02*
X79150000Y-108000000D01*
X70400000Y-105900000D02*
X70400000Y-108500000D01*
X55700000Y-105900000D02*
X70400000Y-105900000D01*
X70400000Y-115100000D02*
X68500000Y-115100000D01*
X70400000Y-112400000D02*
X70400000Y-115100000D01*
X55700000Y-115100000D02*
X55700000Y-105900000D01*
X64500000Y-115100000D02*
X55700000Y-115100000D01*
D15*
X62250000Y-68150000D02*
G75*
G03X62250000Y-68150000I-150000J0D01*
G01*
D16*
X63400000Y-67500000D02*
X64300000Y-66480000D01*
X66050000Y-64500000D02*
X65050000Y-65630000D01*
X60600000Y-67500000D02*
X59700000Y-66480000D01*
X57950000Y-64500000D02*
X58950000Y-65630000D01*
X63400000Y-67500000D02*
X60600000Y-67500000D01*
X66050000Y-52000000D02*
X66050000Y-64500000D01*
X57950000Y-52000000D02*
X66050000Y-52000000D01*
X57950000Y-64500000D02*
X57950000Y-52000000D01*
X117950000Y-64500000D02*
X117950000Y-52000000D01*
X117950000Y-52000000D02*
X126050000Y-52000000D01*
X126050000Y-52000000D02*
X126050000Y-64500000D01*
X123400000Y-67500000D02*
X120600000Y-67500000D01*
X117950000Y-64500000D02*
X118950000Y-65630000D01*
X120600000Y-67500000D02*
X119700000Y-66480000D01*
X126050000Y-64500000D02*
X125050000Y-65630000D01*
X123400000Y-67500000D02*
X124300000Y-66480000D01*
D15*
X122250000Y-68150000D02*
G75*
G03X122250000Y-68150000I-150000J0D01*
G01*
D11*
X79180000Y-62500000D02*
X79180000Y-63500000D01*
X77820000Y-63500000D02*
X77820000Y-62500000D01*
X77570000Y-83750000D02*
X77570000Y-82750000D01*
X78930000Y-82750000D02*
X78930000Y-83750000D01*
X87900000Y-54180000D02*
X93100000Y-54180000D01*
X93100000Y-57820000D02*
X87900000Y-57820000D01*
X92850000Y-77820000D02*
X87650000Y-77820000D01*
X87650000Y-74180000D02*
X92850000Y-74180000D01*
X96250000Y-64930000D02*
X95250000Y-64930000D01*
X95250000Y-63570000D02*
X96250000Y-63570000D01*
X95000000Y-83570000D02*
X96000000Y-83570000D01*
X96000000Y-84930000D02*
X95000000Y-84930000D01*
X77570000Y-81000000D02*
X77570000Y-80000000D01*
X78930000Y-80000000D02*
X78930000Y-81000000D01*
X116250000Y-81320000D02*
X117250000Y-81320000D01*
X117250000Y-82680000D02*
X116250000Y-82680000D01*
X117000000Y-94680000D02*
X116000000Y-94680000D01*
X116000000Y-93320000D02*
X117000000Y-93320000D01*
X87650000Y-86180000D02*
X92850000Y-86180000D01*
X92850000Y-89820000D02*
X87650000Y-89820000D01*
X116250000Y-105570000D02*
X117250000Y-105570000D01*
X117250000Y-106930000D02*
X116250000Y-106930000D01*
X96250000Y-96680000D02*
X95250000Y-96680000D01*
X95250000Y-95320000D02*
X96250000Y-95320000D01*
X78680000Y-94500000D02*
X78680000Y-95500000D01*
X77320000Y-95500000D02*
X77320000Y-94500000D01*
X92850000Y-101820000D02*
X87650000Y-101820000D01*
X87650000Y-98180000D02*
X92850000Y-98180000D01*
X96250000Y-108930000D02*
X95250000Y-108930000D01*
X95250000Y-107570000D02*
X96250000Y-107570000D01*
X77320000Y-92750000D02*
X77320000Y-91750000D01*
X78680000Y-91750000D02*
X78680000Y-92750000D01*
X77570000Y-107500000D02*
X77570000Y-106500000D01*
X78930000Y-106500000D02*
X78930000Y-107500000D01*
X77570000Y-104750000D02*
X77570000Y-103750000D01*
X78930000Y-103750000D02*
X78930000Y-104750000D01*
X79180000Y-59750000D02*
X79180000Y-60750000D01*
X77820000Y-60750000D02*
X77820000Y-59750000D01*
X77000000Y-62250000D02*
G75*
G03X77000000Y-62250000I-1500000J0D01*
G01*
X85250000Y-62250000D02*
G75*
G03X85250000Y-62250000I-1500000J0D01*
G01*
X76750000Y-82000000D02*
G75*
G03X76750000Y-82000000I-1500000J0D01*
G01*
X85250000Y-82000000D02*
G75*
G03X85250000Y-82000000I-1500000J0D01*
G01*
X102500000Y-62250000D02*
G75*
G03X102500000Y-62250000I-1500000J0D01*
G01*
X102500000Y-82000000D02*
G75*
G03X102500000Y-82000000I-1500000J0D01*
G01*
X77000000Y-56000000D02*
G75*
G03X77000000Y-56000000I-1500000J0D01*
G01*
X108000000Y-62250000D02*
G75*
G03X108000000Y-62250000I-1500000J0D01*
G01*
X76750000Y-94000000D02*
G75*
G03X76750000Y-94000000I-1500000J0D01*
G01*
X108000000Y-82000000D02*
G75*
G03X108000000Y-82000000I-1500000J0D01*
G01*
X113750000Y-82000000D02*
G75*
G03X113750000Y-82000000I-1500000J0D01*
G01*
X113750000Y-106250000D02*
G75*
G03X113750000Y-106250000I-1500000J0D01*
G01*
X113750000Y-94000000D02*
G75*
G03X113750000Y-94000000I-1500000J0D01*
G01*
X102500000Y-94000000D02*
G75*
G03X102500000Y-94000000I-1500000J0D01*
G01*
X85250000Y-94000000D02*
G75*
G03X85250000Y-94000000I-1500000J0D01*
G01*
X77000000Y-106000000D02*
G75*
G03X77000000Y-106000000I-1500000J0D01*
G01*
X108000000Y-94000000D02*
G75*
G03X108000000Y-94000000I-1500000J0D01*
G01*
X102500000Y-106250000D02*
G75*
G03X102500000Y-106250000I-1500000J0D01*
G01*
X85250000Y-106000000D02*
G75*
G03X85250000Y-106000000I-1500000J0D01*
G01*
X113750000Y-76000000D02*
G75*
G03X113750000Y-76000000I-1500000J0D01*
G01*
X113750000Y-88000000D02*
G75*
G03X113750000Y-88000000I-1500000J0D01*
G01*
X113750000Y-100000000D02*
G75*
G03X113750000Y-100000000I-1500000J0D01*
G01*
X108000000Y-106250000D02*
G75*
G03X108000000Y-106250000I-1500000J0D01*
G01*
X77650000Y-110900000D02*
X76350000Y-110900000D01*
X77000000Y-110300000D02*
X77000000Y-111500000D01*
X77246000Y-118331000D02*
X76754000Y-118331000D01*
X77598000Y-118291000D02*
X76402000Y-118291000D01*
X77814000Y-118251000D02*
X76186000Y-118251000D01*
X77983000Y-118211000D02*
X76017000Y-118211000D01*
X78127000Y-118171000D02*
X75873000Y-118171000D01*
X78254000Y-118131000D02*
X75746000Y-118131000D01*
X78369000Y-118091000D02*
X75631000Y-118091000D01*
X78473000Y-118051000D02*
X75527000Y-118051000D01*
X78570000Y-118011000D02*
X75430000Y-118011000D01*
X78660000Y-117971000D02*
X75340000Y-117971000D01*
X78745000Y-117931000D02*
X75255000Y-117931000D01*
X78826000Y-117891000D02*
X75174000Y-117891000D01*
X78902000Y-117851000D02*
X75098000Y-117851000D01*
X78974000Y-117811000D02*
X75026000Y-117811000D01*
X79043000Y-117771000D02*
X74957000Y-117771000D01*
X79109000Y-117731000D02*
X74891000Y-117731000D01*
X79173000Y-117691000D02*
X74827000Y-117691000D01*
X79234000Y-117651000D02*
X74766000Y-117651000D01*
X79293000Y-117611000D02*
X74707000Y-117611000D01*
X79349000Y-117571000D02*
X74651000Y-117571000D01*
X79404000Y-117531000D02*
X74596000Y-117531000D01*
X79457000Y-117491000D02*
X74543000Y-117491000D01*
X79508000Y-117451000D02*
X74492000Y-117451000D01*
X79557000Y-117411000D02*
X74443000Y-117411000D01*
X79605000Y-117371000D02*
X74395000Y-117371000D01*
X79652000Y-117331000D02*
X74348000Y-117331000D01*
X79697000Y-117291000D02*
X74303000Y-117291000D01*
X79740000Y-117251000D02*
X74260000Y-117251000D01*
X79783000Y-117211000D02*
X74217000Y-117211000D01*
X79824000Y-117171000D02*
X74176000Y-117171000D01*
X79865000Y-117131000D02*
X74135000Y-117131000D01*
X79904000Y-117091000D02*
X74096000Y-117091000D01*
X79942000Y-117051000D02*
X74058000Y-117051000D01*
X79979000Y-117011000D02*
X74021000Y-117011000D01*
X76020000Y-116971000D02*
X73985000Y-116971000D01*
X80015000Y-116971000D02*
X77980000Y-116971000D01*
X76020000Y-116931000D02*
X73950000Y-116931000D01*
X80050000Y-116931000D02*
X77980000Y-116931000D01*
X76020000Y-116891000D02*
X73916000Y-116891000D01*
X80084000Y-116891000D02*
X77980000Y-116891000D01*
X76020000Y-116851000D02*
X73882000Y-116851000D01*
X80118000Y-116851000D02*
X77980000Y-116851000D01*
X76020000Y-116811000D02*
X73850000Y-116811000D01*
X80150000Y-116811000D02*
X77980000Y-116811000D01*
X76020000Y-116771000D02*
X73818000Y-116771000D01*
X80182000Y-116771000D02*
X77980000Y-116771000D01*
X76020000Y-116731000D02*
X73787000Y-116731000D01*
X80213000Y-116731000D02*
X77980000Y-116731000D01*
X76020000Y-116691000D02*
X73757000Y-116691000D01*
X80243000Y-116691000D02*
X77980000Y-116691000D01*
X76020000Y-116651000D02*
X73728000Y-116651000D01*
X80272000Y-116651000D02*
X77980000Y-116651000D01*
X76020000Y-116611000D02*
X73699000Y-116611000D01*
X80301000Y-116611000D02*
X77980000Y-116611000D01*
X76020000Y-116571000D02*
X73671000Y-116571000D01*
X80329000Y-116571000D02*
X77980000Y-116571000D01*
X76020000Y-116531000D02*
X73644000Y-116531000D01*
X80356000Y-116531000D02*
X77980000Y-116531000D01*
X76020000Y-116491000D02*
X73617000Y-116491000D01*
X80383000Y-116491000D02*
X77980000Y-116491000D01*
X76020000Y-116451000D02*
X73592000Y-116451000D01*
X80408000Y-116451000D02*
X77980000Y-116451000D01*
X76020000Y-116411000D02*
X73566000Y-116411000D01*
X80434000Y-116411000D02*
X77980000Y-116411000D01*
X76020000Y-116371000D02*
X73542000Y-116371000D01*
X80458000Y-116371000D02*
X77980000Y-116371000D01*
X76020000Y-116331000D02*
X73518000Y-116331000D01*
X80482000Y-116331000D02*
X77980000Y-116331000D01*
X76020000Y-116291000D02*
X73495000Y-116291000D01*
X80505000Y-116291000D02*
X77980000Y-116291000D01*
X76020000Y-116251000D02*
X73472000Y-116251000D01*
X80528000Y-116251000D02*
X77980000Y-116251000D01*
X76020000Y-116211000D02*
X73450000Y-116211000D01*
X80550000Y-116211000D02*
X77980000Y-116211000D01*
X76020000Y-116171000D02*
X73428000Y-116171000D01*
X80572000Y-116171000D02*
X77980000Y-116171000D01*
X76020000Y-116131000D02*
X73407000Y-116131000D01*
X80593000Y-116131000D02*
X77980000Y-116131000D01*
X76020000Y-116091000D02*
X73387000Y-116091000D01*
X80613000Y-116091000D02*
X77980000Y-116091000D01*
X76020000Y-116051000D02*
X73367000Y-116051000D01*
X80633000Y-116051000D02*
X77980000Y-116051000D01*
X76020000Y-116011000D02*
X73348000Y-116011000D01*
X80652000Y-116011000D02*
X77980000Y-116011000D01*
X76020000Y-115971000D02*
X73329000Y-115971000D01*
X80671000Y-115971000D02*
X77980000Y-115971000D01*
X76020000Y-115931000D02*
X73310000Y-115931000D01*
X80690000Y-115931000D02*
X77980000Y-115931000D01*
X76020000Y-115891000D02*
X73293000Y-115891000D01*
X80707000Y-115891000D02*
X77980000Y-115891000D01*
X76020000Y-115851000D02*
X73275000Y-115851000D01*
X80725000Y-115851000D02*
X77980000Y-115851000D01*
X76020000Y-115811000D02*
X73259000Y-115811000D01*
X80741000Y-115811000D02*
X77980000Y-115811000D01*
X76020000Y-115771000D02*
X73242000Y-115771000D01*
X80758000Y-115771000D02*
X77980000Y-115771000D01*
X76020000Y-115731000D02*
X73227000Y-115731000D01*
X80773000Y-115731000D02*
X77980000Y-115731000D01*
X76020000Y-115691000D02*
X73211000Y-115691000D01*
X80789000Y-115691000D02*
X77980000Y-115691000D01*
X76020000Y-115651000D02*
X73197000Y-115651000D01*
X80803000Y-115651000D02*
X77980000Y-115651000D01*
X76020000Y-115611000D02*
X73182000Y-115611000D01*
X80818000Y-115611000D02*
X77980000Y-115611000D01*
X76020000Y-115571000D02*
X73168000Y-115571000D01*
X80832000Y-115571000D02*
X77980000Y-115571000D01*
X76020000Y-115531000D02*
X73155000Y-115531000D01*
X80845000Y-115531000D02*
X77980000Y-115531000D01*
X76020000Y-115491000D02*
X73142000Y-115491000D01*
X80858000Y-115491000D02*
X77980000Y-115491000D01*
X76020000Y-115451000D02*
X73130000Y-115451000D01*
X80870000Y-115451000D02*
X77980000Y-115451000D01*
X76020000Y-115411000D02*
X73117000Y-115411000D01*
X80883000Y-115411000D02*
X77980000Y-115411000D01*
X76020000Y-115371000D02*
X73106000Y-115371000D01*
X80894000Y-115371000D02*
X77980000Y-115371000D01*
X76020000Y-115331000D02*
X73095000Y-115331000D01*
X80905000Y-115331000D02*
X77980000Y-115331000D01*
X76020000Y-115291000D02*
X73084000Y-115291000D01*
X80916000Y-115291000D02*
X77980000Y-115291000D01*
X76020000Y-115251000D02*
X73074000Y-115251000D01*
X80926000Y-115251000D02*
X77980000Y-115251000D01*
X76020000Y-115211000D02*
X73064000Y-115211000D01*
X80936000Y-115211000D02*
X77980000Y-115211000D01*
X76020000Y-115171000D02*
X73054000Y-115171000D01*
X80946000Y-115171000D02*
X77980000Y-115171000D01*
X76020000Y-115131000D02*
X73045000Y-115131000D01*
X80955000Y-115131000D02*
X77980000Y-115131000D01*
X76020000Y-115091000D02*
X73037000Y-115091000D01*
X80963000Y-115091000D02*
X77980000Y-115091000D01*
X76020000Y-115051000D02*
X73029000Y-115051000D01*
X80971000Y-115051000D02*
X77980000Y-115051000D01*
X80979000Y-115011000D02*
X73021000Y-115011000D01*
X80987000Y-114971000D02*
X73013000Y-114971000D01*
X80994000Y-114930000D02*
X73006000Y-114930000D01*
X81000000Y-114890000D02*
X73000000Y-114890000D01*
X81006000Y-114850000D02*
X72994000Y-114850000D01*
X81012000Y-114810000D02*
X72988000Y-114810000D01*
X81017000Y-114770000D02*
X72983000Y-114770000D01*
X81022000Y-114730000D02*
X72978000Y-114730000D01*
X81027000Y-114690000D02*
X72973000Y-114690000D01*
X81031000Y-114650000D02*
X72969000Y-114650000D01*
X81035000Y-114610000D02*
X72965000Y-114610000D01*
X81038000Y-114570000D02*
X72962000Y-114570000D01*
X81041000Y-114530000D02*
X72959000Y-114530000D01*
X81043000Y-114490000D02*
X72957000Y-114490000D01*
X81046000Y-114450000D02*
X72954000Y-114450000D01*
X81047000Y-114410000D02*
X72953000Y-114410000D01*
X81049000Y-114370000D02*
X72951000Y-114370000D01*
X81050000Y-114330000D02*
X72950000Y-114330000D01*
X81050000Y-114290000D02*
X72950000Y-114290000D01*
X81050000Y-114250000D02*
X72950000Y-114250000D01*
X81090000Y-114250000D02*
G75*
G03X81090000Y-114250000I-4090000J0D01*
G01*
X82000000Y-114500000D02*
X82000000Y-112400000D01*
X83000000Y-114500000D02*
X83000000Y-112400000D01*
X82000000Y-114500000D02*
X83000000Y-114500000D01*
X83180000Y-115500000D02*
X83180000Y-116500000D01*
X81820000Y-116500000D02*
X81820000Y-115500000D01*
X85170000Y-118330000D02*
X85170000Y-117000000D01*
X86500000Y-118330000D02*
X85170000Y-118330000D01*
X87770000Y-118330000D02*
X87770000Y-115670000D01*
X87770000Y-115670000D02*
X108150000Y-115670000D01*
X87770000Y-118330000D02*
X108150000Y-118330000D01*
X108150000Y-118330000D02*
X108150000Y-115670000D01*
D17*
X88425000Y-59475000D02*
X87025000Y-59475000D01*
X88425000Y-64575000D02*
X92575000Y-64575000D01*
X88425000Y-59425000D02*
X92575000Y-59425000D01*
X88425000Y-64575000D02*
X88425000Y-64430000D01*
X92575000Y-64575000D02*
X92575000Y-64430000D01*
X92575000Y-59425000D02*
X92575000Y-59570000D01*
X88425000Y-59425000D02*
X88425000Y-59475000D01*
X88175000Y-79425000D02*
X88175000Y-79475000D01*
X92325000Y-79425000D02*
X92325000Y-79570000D01*
X92325000Y-84575000D02*
X92325000Y-84430000D01*
X88175000Y-84575000D02*
X88175000Y-84430000D01*
X88175000Y-79425000D02*
X92325000Y-79425000D01*
X88175000Y-84575000D02*
X92325000Y-84575000D01*
X88175000Y-79475000D02*
X86775000Y-79475000D01*
X88175000Y-91425000D02*
X88175000Y-91475000D01*
X92325000Y-91425000D02*
X92325000Y-91570000D01*
X92325000Y-96575000D02*
X92325000Y-96430000D01*
X88175000Y-96575000D02*
X88175000Y-96430000D01*
X88175000Y-91425000D02*
X92325000Y-91425000D01*
X88175000Y-96575000D02*
X92325000Y-96575000D01*
X88175000Y-91475000D02*
X86775000Y-91475000D01*
X88175000Y-103475000D02*
X86775000Y-103475000D01*
X88175000Y-108575000D02*
X92325000Y-108575000D01*
X88175000Y-103425000D02*
X92325000Y-103425000D01*
X88175000Y-108575000D02*
X88175000Y-108430000D01*
X92325000Y-108575000D02*
X92325000Y-108430000D01*
X92325000Y-103425000D02*
X92325000Y-103570000D01*
X88175000Y-103425000D02*
X88175000Y-103475000D01*
D14*
X81916666Y-64778571D02*
X81892857Y-64802380D01*
X81821428Y-64826190D01*
X81773809Y-64826190D01*
X81702380Y-64802380D01*
X81654761Y-64754761D01*
X81630952Y-64707142D01*
X81607142Y-64611904D01*
X81607142Y-64540476D01*
X81630952Y-64445238D01*
X81654761Y-64397619D01*
X81702380Y-64350000D01*
X81773809Y-64326190D01*
X81821428Y-64326190D01*
X81892857Y-64350000D01*
X81916666Y-64373809D01*
X82392857Y-64826190D02*
X82107142Y-64826190D01*
X82250000Y-64826190D02*
X82250000Y-64326190D01*
X82202380Y-64397619D01*
X82154761Y-64445238D01*
X82107142Y-64469047D01*
X79916666Y-81778571D02*
X79892857Y-81802380D01*
X79821428Y-81826190D01*
X79773809Y-81826190D01*
X79702380Y-81802380D01*
X79654761Y-81754761D01*
X79630952Y-81707142D01*
X79607142Y-81611904D01*
X79607142Y-81540476D01*
X79630952Y-81445238D01*
X79654761Y-81397619D01*
X79702380Y-81350000D01*
X79773809Y-81326190D01*
X79821428Y-81326190D01*
X79892857Y-81350000D01*
X79916666Y-81373809D01*
X80107142Y-81373809D02*
X80130952Y-81350000D01*
X80178571Y-81326190D01*
X80297619Y-81326190D01*
X80345238Y-81350000D01*
X80369047Y-81373809D01*
X80392857Y-81421428D01*
X80392857Y-81469047D01*
X80369047Y-81540476D01*
X80083333Y-81826190D01*
X80392857Y-81826190D01*
X92516666Y-58778571D02*
X92492857Y-58802380D01*
X92421428Y-58826190D01*
X92373809Y-58826190D01*
X92302380Y-58802380D01*
X92254761Y-58754761D01*
X92230952Y-58707142D01*
X92207142Y-58611904D01*
X92207142Y-58540476D01*
X92230952Y-58445238D01*
X92254761Y-58397619D01*
X92302380Y-58350000D01*
X92373809Y-58326190D01*
X92421428Y-58326190D01*
X92492857Y-58350000D01*
X92516666Y-58373809D01*
X92683333Y-58326190D02*
X92992857Y-58326190D01*
X92826190Y-58516666D01*
X92897619Y-58516666D01*
X92945238Y-58540476D01*
X92969047Y-58564285D01*
X92992857Y-58611904D01*
X92992857Y-58730952D01*
X92969047Y-58778571D01*
X92945238Y-58802380D01*
X92897619Y-58826190D01*
X92754761Y-58826190D01*
X92707142Y-58802380D01*
X92683333Y-58778571D01*
X92316666Y-78778571D02*
X92292857Y-78802380D01*
X92221428Y-78826190D01*
X92173809Y-78826190D01*
X92102380Y-78802380D01*
X92054761Y-78754761D01*
X92030952Y-78707142D01*
X92007142Y-78611904D01*
X92007142Y-78540476D01*
X92030952Y-78445238D01*
X92054761Y-78397619D01*
X92102380Y-78350000D01*
X92173809Y-78326190D01*
X92221428Y-78326190D01*
X92292857Y-78350000D01*
X92316666Y-78373809D01*
X92745238Y-78492857D02*
X92745238Y-78826190D01*
X92626190Y-78302380D02*
X92507142Y-78659523D01*
X92816666Y-78659523D01*
X97916666Y-65578571D02*
X97892857Y-65602380D01*
X97821428Y-65626190D01*
X97773809Y-65626190D01*
X97702380Y-65602380D01*
X97654761Y-65554761D01*
X97630952Y-65507142D01*
X97607142Y-65411904D01*
X97607142Y-65340476D01*
X97630952Y-65245238D01*
X97654761Y-65197619D01*
X97702380Y-65150000D01*
X97773809Y-65126190D01*
X97821428Y-65126190D01*
X97892857Y-65150000D01*
X97916666Y-65173809D01*
X98369047Y-65126190D02*
X98130952Y-65126190D01*
X98107142Y-65364285D01*
X98130952Y-65340476D01*
X98178571Y-65316666D01*
X98297619Y-65316666D01*
X98345238Y-65340476D01*
X98369047Y-65364285D01*
X98392857Y-65411904D01*
X98392857Y-65530952D01*
X98369047Y-65578571D01*
X98345238Y-65602380D01*
X98297619Y-65626190D01*
X98178571Y-65626190D01*
X98130952Y-65602380D01*
X98107142Y-65578571D01*
X97716666Y-85578571D02*
X97692857Y-85602380D01*
X97621428Y-85626190D01*
X97573809Y-85626190D01*
X97502380Y-85602380D01*
X97454761Y-85554761D01*
X97430952Y-85507142D01*
X97407142Y-85411904D01*
X97407142Y-85340476D01*
X97430952Y-85245238D01*
X97454761Y-85197619D01*
X97502380Y-85150000D01*
X97573809Y-85126190D01*
X97621428Y-85126190D01*
X97692857Y-85150000D01*
X97716666Y-85173809D01*
X98145238Y-85126190D02*
X98050000Y-85126190D01*
X98002380Y-85150000D01*
X97978571Y-85173809D01*
X97930952Y-85245238D01*
X97907142Y-85340476D01*
X97907142Y-85530952D01*
X97930952Y-85578571D01*
X97954761Y-85602380D01*
X98002380Y-85626190D01*
X98097619Y-85626190D01*
X98145238Y-85602380D01*
X98169047Y-85578571D01*
X98192857Y-85530952D01*
X98192857Y-85411904D01*
X98169047Y-85364285D01*
X98145238Y-85340476D01*
X98097619Y-85316666D01*
X98002380Y-85316666D01*
X97954761Y-85340476D01*
X97930952Y-85364285D01*
X97907142Y-85411904D01*
X96716666Y-60178571D02*
X96692857Y-60202380D01*
X96621428Y-60226190D01*
X96573809Y-60226190D01*
X96502380Y-60202380D01*
X96454761Y-60154761D01*
X96430952Y-60107142D01*
X96407142Y-60011904D01*
X96407142Y-59940476D01*
X96430952Y-59845238D01*
X96454761Y-59797619D01*
X96502380Y-59750000D01*
X96573809Y-59726190D01*
X96621428Y-59726190D01*
X96692857Y-59750000D01*
X96716666Y-59773809D01*
X96883333Y-59726190D02*
X97216666Y-59726190D01*
X97002380Y-60226190D01*
X92316666Y-90778571D02*
X92292857Y-90802380D01*
X92221428Y-90826190D01*
X92173809Y-90826190D01*
X92102380Y-90802380D01*
X92054761Y-90754761D01*
X92030952Y-90707142D01*
X92007142Y-90611904D01*
X92007142Y-90540476D01*
X92030952Y-90445238D01*
X92054761Y-90397619D01*
X92102380Y-90350000D01*
X92173809Y-90326190D01*
X92221428Y-90326190D01*
X92292857Y-90350000D01*
X92316666Y-90373809D01*
X92602380Y-90540476D02*
X92554761Y-90516666D01*
X92530952Y-90492857D01*
X92507142Y-90445238D01*
X92507142Y-90421428D01*
X92530952Y-90373809D01*
X92554761Y-90350000D01*
X92602380Y-90326190D01*
X92697619Y-90326190D01*
X92745238Y-90350000D01*
X92769047Y-90373809D01*
X92792857Y-90421428D01*
X92792857Y-90445238D01*
X92769047Y-90492857D01*
X92745238Y-90516666D01*
X92697619Y-90540476D01*
X92602380Y-90540476D01*
X92554761Y-90564285D01*
X92530952Y-90588095D01*
X92507142Y-90635714D01*
X92507142Y-90730952D01*
X92530952Y-90778571D01*
X92554761Y-90802380D01*
X92602380Y-90826190D01*
X92697619Y-90826190D01*
X92745238Y-90802380D01*
X92769047Y-90778571D01*
X92792857Y-90730952D01*
X92792857Y-90635714D01*
X92769047Y-90588095D01*
X92745238Y-90564285D01*
X92697619Y-90540476D01*
X97916666Y-97378571D02*
X97892857Y-97402380D01*
X97821428Y-97426190D01*
X97773809Y-97426190D01*
X97702380Y-97402380D01*
X97654761Y-97354761D01*
X97630952Y-97307142D01*
X97607142Y-97211904D01*
X97607142Y-97140476D01*
X97630952Y-97045238D01*
X97654761Y-96997619D01*
X97702380Y-96950000D01*
X97773809Y-96926190D01*
X97821428Y-96926190D01*
X97892857Y-96950000D01*
X97916666Y-96973809D01*
X98154761Y-97426190D02*
X98250000Y-97426190D01*
X98297619Y-97402380D01*
X98321428Y-97378571D01*
X98369047Y-97307142D01*
X98392857Y-97211904D01*
X98392857Y-97021428D01*
X98369047Y-96973809D01*
X98345238Y-96950000D01*
X98297619Y-96926190D01*
X98202380Y-96926190D01*
X98154761Y-96950000D01*
X98130952Y-96973809D01*
X98107142Y-97021428D01*
X98107142Y-97140476D01*
X98130952Y-97188095D01*
X98154761Y-97211904D01*
X98202380Y-97235714D01*
X98297619Y-97235714D01*
X98345238Y-97211904D01*
X98369047Y-97188095D01*
X98392857Y-97140476D01*
D17*
X93857142Y-82142857D02*
X93904761Y-82190476D01*
X93952380Y-82333333D01*
X93952380Y-82428571D01*
X93904761Y-82571428D01*
X93809523Y-82666666D01*
X93714285Y-82714285D01*
X93523809Y-82761904D01*
X93380952Y-82761904D01*
X93190476Y-82714285D01*
X93095238Y-82666666D01*
X93000000Y-82571428D01*
X92952380Y-82428571D01*
X92952380Y-82333333D01*
X93000000Y-82190476D01*
X93047619Y-82142857D01*
X93952380Y-81190476D02*
X93952380Y-81761904D01*
X93952380Y-81476190D02*
X92952380Y-81476190D01*
X93095238Y-81571428D01*
X93190476Y-81666666D01*
X93238095Y-81761904D01*
X92952380Y-80571428D02*
X92952380Y-80476190D01*
X93000000Y-80380952D01*
X93047619Y-80333333D01*
X93142857Y-80285714D01*
X93333333Y-80238095D01*
X93571428Y-80238095D01*
X93761904Y-80285714D01*
X93857142Y-80333333D01*
X93904761Y-80380952D01*
X93952380Y-80476190D01*
X93952380Y-80571428D01*
X93904761Y-80666666D01*
X93857142Y-80714285D01*
X93761904Y-80761904D01*
X93571428Y-80809523D01*
X93333333Y-80809523D01*
X93142857Y-80761904D01*
X93047619Y-80714285D01*
X93000000Y-80666666D01*
X92952380Y-80571428D01*
D14*
X92278571Y-102778571D02*
X92254761Y-102802380D01*
X92183333Y-102826190D01*
X92135714Y-102826190D01*
X92064285Y-102802380D01*
X92016666Y-102754761D01*
X91992857Y-102707142D01*
X91969047Y-102611904D01*
X91969047Y-102540476D01*
X91992857Y-102445238D01*
X92016666Y-102397619D01*
X92064285Y-102350000D01*
X92135714Y-102326190D01*
X92183333Y-102326190D01*
X92254761Y-102350000D01*
X92278571Y-102373809D01*
X92754761Y-102826190D02*
X92469047Y-102826190D01*
X92611904Y-102826190D02*
X92611904Y-102326190D01*
X92564285Y-102397619D01*
X92516666Y-102445238D01*
X92469047Y-102469047D01*
X93230952Y-102826190D02*
X92945238Y-102826190D01*
X93088095Y-102826190D02*
X93088095Y-102326190D01*
X93040476Y-102397619D01*
X92992857Y-102445238D01*
X92945238Y-102469047D01*
X97678571Y-109578571D02*
X97654761Y-109602380D01*
X97583333Y-109626190D01*
X97535714Y-109626190D01*
X97464285Y-109602380D01*
X97416666Y-109554761D01*
X97392857Y-109507142D01*
X97369047Y-109411904D01*
X97369047Y-109340476D01*
X97392857Y-109245238D01*
X97416666Y-109197619D01*
X97464285Y-109150000D01*
X97535714Y-109126190D01*
X97583333Y-109126190D01*
X97654761Y-109150000D01*
X97678571Y-109173809D01*
X98154761Y-109626190D02*
X97869047Y-109626190D01*
X98011904Y-109626190D02*
X98011904Y-109126190D01*
X97964285Y-109197619D01*
X97916666Y-109245238D01*
X97869047Y-109269047D01*
X98345238Y-109173809D02*
X98369047Y-109150000D01*
X98416666Y-109126190D01*
X98535714Y-109126190D01*
X98583333Y-109150000D01*
X98607142Y-109173809D01*
X98630952Y-109221428D01*
X98630952Y-109269047D01*
X98607142Y-109340476D01*
X98321428Y-109626190D01*
X98630952Y-109626190D01*
D17*
X93857142Y-93892857D02*
X93904761Y-93940476D01*
X93952380Y-94083333D01*
X93952380Y-94178571D01*
X93904761Y-94321428D01*
X93809523Y-94416666D01*
X93714285Y-94464285D01*
X93523809Y-94511904D01*
X93380952Y-94511904D01*
X93190476Y-94464285D01*
X93095238Y-94416666D01*
X93000000Y-94321428D01*
X92952380Y-94178571D01*
X92952380Y-94083333D01*
X93000000Y-93940476D01*
X93047619Y-93892857D01*
X93952380Y-92940476D02*
X93952380Y-93511904D01*
X93952380Y-93226190D02*
X92952380Y-93226190D01*
X93095238Y-93321428D01*
X93190476Y-93416666D01*
X93238095Y-93511904D01*
X92952380Y-92607142D02*
X92952380Y-91988095D01*
X93333333Y-92321428D01*
X93333333Y-92178571D01*
X93380952Y-92083333D01*
X93428571Y-92035714D01*
X93523809Y-91988095D01*
X93761904Y-91988095D01*
X93857142Y-92035714D01*
X93904761Y-92083333D01*
X93952380Y-92178571D01*
X93952380Y-92464285D01*
X93904761Y-92559523D01*
X93857142Y-92607142D01*
X93857142Y-106142857D02*
X93904761Y-106190476D01*
X93952380Y-106333333D01*
X93952380Y-106428571D01*
X93904761Y-106571428D01*
X93809523Y-106666666D01*
X93714285Y-106714285D01*
X93523809Y-106761904D01*
X93380952Y-106761904D01*
X93190476Y-106714285D01*
X93095238Y-106666666D01*
X93000000Y-106571428D01*
X92952380Y-106428571D01*
X92952380Y-106333333D01*
X93000000Y-106190476D01*
X93047619Y-106142857D01*
X93952380Y-105190476D02*
X93952380Y-105761904D01*
X93952380Y-105476190D02*
X92952380Y-105476190D01*
X93095238Y-105571428D01*
X93190476Y-105666666D01*
X93238095Y-105761904D01*
X93285714Y-104333333D02*
X93952380Y-104333333D01*
X92904761Y-104571428D02*
X93619047Y-104809523D01*
X93619047Y-104190476D01*
D14*
X79478571Y-93578571D02*
X79454761Y-93602380D01*
X79383333Y-93626190D01*
X79335714Y-93626190D01*
X79264285Y-93602380D01*
X79216666Y-93554761D01*
X79192857Y-93507142D01*
X79169047Y-93411904D01*
X79169047Y-93340476D01*
X79192857Y-93245238D01*
X79216666Y-93197619D01*
X79264285Y-93150000D01*
X79335714Y-93126190D01*
X79383333Y-93126190D01*
X79454761Y-93150000D01*
X79478571Y-93173809D01*
X79954761Y-93626190D02*
X79669047Y-93626190D01*
X79811904Y-93626190D02*
X79811904Y-93126190D01*
X79764285Y-93197619D01*
X79716666Y-93245238D01*
X79669047Y-93269047D01*
X80407142Y-93126190D02*
X80169047Y-93126190D01*
X80145238Y-93364285D01*
X80169047Y-93340476D01*
X80216666Y-93316666D01*
X80335714Y-93316666D01*
X80383333Y-93340476D01*
X80407142Y-93364285D01*
X80430952Y-93411904D01*
X80430952Y-93530952D01*
X80407142Y-93578571D01*
X80383333Y-93602380D01*
X80335714Y-93626190D01*
X80216666Y-93626190D01*
X80169047Y-93602380D01*
X80145238Y-93578571D01*
X79678571Y-110378571D02*
X79654761Y-110402380D01*
X79583333Y-110426190D01*
X79535714Y-110426190D01*
X79464285Y-110402380D01*
X79416666Y-110354761D01*
X79392857Y-110307142D01*
X79369047Y-110211904D01*
X79369047Y-110140476D01*
X79392857Y-110045238D01*
X79416666Y-109997619D01*
X79464285Y-109950000D01*
X79535714Y-109926190D01*
X79583333Y-109926190D01*
X79654761Y-109950000D01*
X79678571Y-109973809D01*
X80154761Y-110426190D02*
X79869047Y-110426190D01*
X80011904Y-110426190D02*
X80011904Y-109926190D01*
X79964285Y-109997619D01*
X79916666Y-110045238D01*
X79869047Y-110069047D01*
X80583333Y-109926190D02*
X80488095Y-109926190D01*
X80440476Y-109950000D01*
X80416666Y-109973809D01*
X80369047Y-110045238D01*
X80345238Y-110140476D01*
X80345238Y-110330952D01*
X80369047Y-110378571D01*
X80392857Y-110402380D01*
X80440476Y-110426190D01*
X80535714Y-110426190D01*
X80583333Y-110402380D01*
X80607142Y-110378571D01*
X80630952Y-110330952D01*
X80630952Y-110211904D01*
X80607142Y-110164285D01*
X80583333Y-110140476D01*
X80535714Y-110116666D01*
X80440476Y-110116666D01*
X80392857Y-110140476D01*
X80369047Y-110164285D01*
X80345238Y-110211904D01*
D17*
X62866666Y-115652380D02*
X62866666Y-116366666D01*
X62819047Y-116509523D01*
X62723809Y-116604761D01*
X62580952Y-116652380D01*
X62485714Y-116652380D01*
X63866666Y-116652380D02*
X63295238Y-116652380D01*
X63580952Y-116652380D02*
X63580952Y-115652380D01*
X63485714Y-115795238D01*
X63390476Y-115890476D01*
X63295238Y-115938095D01*
D18*
X58266436Y-68052003D02*
X58266436Y-68766781D01*
X58218784Y-68909737D01*
X58123480Y-69005041D01*
X57980525Y-69052693D01*
X57885221Y-69052693D01*
X58695303Y-68147306D02*
X58742955Y-68099655D01*
X58838259Y-68052003D01*
X59076519Y-68052003D01*
X59171822Y-68099655D01*
X59219474Y-68147306D01*
X59267126Y-68242610D01*
X59267126Y-68337914D01*
X59219474Y-68480870D01*
X58647651Y-69052693D01*
X59267126Y-69052693D01*
D13*
X58493233Y-51252693D02*
X58493233Y-50252003D01*
X58874449Y-50252003D01*
X58969752Y-50299655D01*
X59017404Y-50347306D01*
X59065056Y-50442610D01*
X59065056Y-50585566D01*
X59017404Y-50680870D01*
X58969752Y-50728522D01*
X58874449Y-50776174D01*
X58493233Y-50776174D01*
X59398620Y-50252003D02*
X59636879Y-51252693D01*
X59827487Y-50537914D01*
X60018094Y-51252693D01*
X60256354Y-50252003D01*
X61209392Y-51252693D02*
X60875829Y-50776174D01*
X60637569Y-51252693D02*
X60637569Y-50252003D01*
X61018784Y-50252003D01*
X61114088Y-50299655D01*
X61161740Y-50347306D01*
X61209392Y-50442610D01*
X61209392Y-50585566D01*
X61161740Y-50680870D01*
X61114088Y-50728522D01*
X61018784Y-50776174D01*
X60637569Y-50776174D01*
X61400000Y-51347996D02*
X62162430Y-51347996D01*
X62400690Y-51252693D02*
X62400690Y-50252003D01*
X62877209Y-51252693D02*
X62877209Y-50252003D01*
X63449031Y-51252693D01*
X63449031Y-50252003D01*
X63782595Y-50252003D02*
X64116158Y-51252693D01*
X64449721Y-50252003D01*
D19*
X116413513Y-65647423D02*
X117128291Y-65647423D01*
X117271247Y-65695075D01*
X117366551Y-65790379D01*
X117414203Y-65933334D01*
X117414203Y-66028638D01*
X116413513Y-65266208D02*
X116413513Y-64646733D01*
X116794728Y-64980296D01*
X116794728Y-64837340D01*
X116842380Y-64742037D01*
X116890032Y-64694385D01*
X116985335Y-64646733D01*
X117223595Y-64646733D01*
X117318899Y-64694385D01*
X117366551Y-64742037D01*
X117414203Y-64837340D01*
X117414203Y-65123252D01*
X117366551Y-65218556D01*
X117318899Y-65266208D01*
D13*
X118116369Y-51252693D02*
X118116369Y-50252003D01*
X118497585Y-50252003D01*
X118592888Y-50299655D01*
X118640540Y-50347306D01*
X118688192Y-50442610D01*
X118688192Y-50585566D01*
X118640540Y-50680870D01*
X118592888Y-50728522D01*
X118497585Y-50776174D01*
X118116369Y-50776174D01*
X119021755Y-50252003D02*
X119260015Y-51252693D01*
X119450623Y-50537914D01*
X119641230Y-51252693D01*
X119879490Y-50252003D01*
X120832528Y-51252693D02*
X120498965Y-50776174D01*
X120260705Y-51252693D02*
X120260705Y-50252003D01*
X120641920Y-50252003D01*
X120737224Y-50299655D01*
X120784876Y-50347306D01*
X120832528Y-50442610D01*
X120832528Y-50585566D01*
X120784876Y-50680870D01*
X120737224Y-50728522D01*
X120641920Y-50776174D01*
X120260705Y-50776174D01*
X121023135Y-51347996D02*
X121785566Y-51347996D01*
X122023825Y-51252693D02*
X122023825Y-50252003D01*
X122500345Y-51252693D02*
X122500345Y-50252003D01*
X123072167Y-51252693D01*
X123072167Y-50252003D01*
X123548686Y-51252693D02*
X123548686Y-50252003D01*
X123929902Y-50252003D01*
X124025205Y-50299655D01*
X124072857Y-50347306D01*
X124120509Y-50442610D01*
X124120509Y-50585566D01*
X124072857Y-50680870D01*
X124025205Y-50728522D01*
X123929902Y-50776174D01*
X123548686Y-50776174D01*
X124549376Y-50252003D02*
X124549376Y-51062085D01*
X124597028Y-51157389D01*
X124644680Y-51205041D01*
X124739984Y-51252693D01*
X124930592Y-51252693D01*
X125025895Y-51205041D01*
X125073547Y-51157389D01*
X125121199Y-51062085D01*
X125121199Y-50252003D01*
X125454763Y-50252003D02*
X126026585Y-50252003D01*
X125740674Y-51252693D02*
X125740674Y-50252003D01*
D14*
X77116666Y-64226190D02*
X76950000Y-63988095D01*
X76830952Y-64226190D02*
X76830952Y-63726190D01*
X77021428Y-63726190D01*
X77069047Y-63750000D01*
X77092857Y-63773809D01*
X77116666Y-63821428D01*
X77116666Y-63892857D01*
X77092857Y-63940476D01*
X77069047Y-63964285D01*
X77021428Y-63988095D01*
X76830952Y-63988095D01*
X77592857Y-64226190D02*
X77307142Y-64226190D01*
X77450000Y-64226190D02*
X77450000Y-63726190D01*
X77402380Y-63797619D01*
X77354761Y-63845238D01*
X77307142Y-63869047D01*
X76716666Y-84426190D02*
X76550000Y-84188095D01*
X76430952Y-84426190D02*
X76430952Y-83926190D01*
X76621428Y-83926190D01*
X76669047Y-83950000D01*
X76692857Y-83973809D01*
X76716666Y-84021428D01*
X76716666Y-84092857D01*
X76692857Y-84140476D01*
X76669047Y-84164285D01*
X76621428Y-84188095D01*
X76430952Y-84188095D01*
X76907142Y-83973809D02*
X76930952Y-83950000D01*
X76978571Y-83926190D01*
X77097619Y-83926190D01*
X77145238Y-83950000D01*
X77169047Y-83973809D01*
X77192857Y-84021428D01*
X77192857Y-84069047D01*
X77169047Y-84140476D01*
X76883333Y-84426190D01*
X77192857Y-84426190D01*
X87516666Y-53826190D02*
X87350000Y-53588095D01*
X87230952Y-53826190D02*
X87230952Y-53326190D01*
X87421428Y-53326190D01*
X87469047Y-53350000D01*
X87492857Y-53373809D01*
X87516666Y-53421428D01*
X87516666Y-53492857D01*
X87492857Y-53540476D01*
X87469047Y-53564285D01*
X87421428Y-53588095D01*
X87230952Y-53588095D01*
X87683333Y-53326190D02*
X87992857Y-53326190D01*
X87826190Y-53516666D01*
X87897619Y-53516666D01*
X87945238Y-53540476D01*
X87969047Y-53564285D01*
X87992857Y-53611904D01*
X87992857Y-53730952D01*
X87969047Y-53778571D01*
X87945238Y-53802380D01*
X87897619Y-53826190D01*
X87754761Y-53826190D01*
X87707142Y-53802380D01*
X87683333Y-53778571D01*
X87116666Y-73826190D02*
X86950000Y-73588095D01*
X86830952Y-73826190D02*
X86830952Y-73326190D01*
X87021428Y-73326190D01*
X87069047Y-73350000D01*
X87092857Y-73373809D01*
X87116666Y-73421428D01*
X87116666Y-73492857D01*
X87092857Y-73540476D01*
X87069047Y-73564285D01*
X87021428Y-73588095D01*
X86830952Y-73588095D01*
X87545238Y-73492857D02*
X87545238Y-73826190D01*
X87426190Y-73302380D02*
X87307142Y-73659523D01*
X87616666Y-73659523D01*
X95666666Y-65826190D02*
X95500000Y-65588095D01*
X95380952Y-65826190D02*
X95380952Y-65326190D01*
X95571428Y-65326190D01*
X95619047Y-65350000D01*
X95642857Y-65373809D01*
X95666666Y-65421428D01*
X95666666Y-65492857D01*
X95642857Y-65540476D01*
X95619047Y-65564285D01*
X95571428Y-65588095D01*
X95380952Y-65588095D01*
X96119047Y-65326190D02*
X95880952Y-65326190D01*
X95857142Y-65564285D01*
X95880952Y-65540476D01*
X95928571Y-65516666D01*
X96047619Y-65516666D01*
X96095238Y-65540476D01*
X96119047Y-65564285D01*
X96142857Y-65611904D01*
X96142857Y-65730952D01*
X96119047Y-65778571D01*
X96095238Y-65802380D01*
X96047619Y-65826190D01*
X95928571Y-65826190D01*
X95880952Y-65802380D01*
X95857142Y-65778571D01*
X95416666Y-85626190D02*
X95250000Y-85388095D01*
X95130952Y-85626190D02*
X95130952Y-85126190D01*
X95321428Y-85126190D01*
X95369047Y-85150000D01*
X95392857Y-85173809D01*
X95416666Y-85221428D01*
X95416666Y-85292857D01*
X95392857Y-85340476D01*
X95369047Y-85364285D01*
X95321428Y-85388095D01*
X95130952Y-85388095D01*
X95845238Y-85126190D02*
X95750000Y-85126190D01*
X95702380Y-85150000D01*
X95678571Y-85173809D01*
X95630952Y-85245238D01*
X95607142Y-85340476D01*
X95607142Y-85530952D01*
X95630952Y-85578571D01*
X95654761Y-85602380D01*
X95702380Y-85626190D01*
X95797619Y-85626190D01*
X95845238Y-85602380D01*
X95869047Y-85578571D01*
X95892857Y-85530952D01*
X95892857Y-85411904D01*
X95869047Y-85364285D01*
X95845238Y-85340476D01*
X95797619Y-85316666D01*
X95702380Y-85316666D01*
X95654761Y-85340476D01*
X95630952Y-85364285D01*
X95607142Y-85411904D01*
X79516666Y-80026190D02*
X79350000Y-79788095D01*
X79230952Y-80026190D02*
X79230952Y-79526190D01*
X79421428Y-79526190D01*
X79469047Y-79550000D01*
X79492857Y-79573809D01*
X79516666Y-79621428D01*
X79516666Y-79692857D01*
X79492857Y-79740476D01*
X79469047Y-79764285D01*
X79421428Y-79788095D01*
X79230952Y-79788095D01*
X79683333Y-79526190D02*
X80016666Y-79526190D01*
X79802380Y-80026190D01*
X116666666Y-81026190D02*
X116500000Y-80788095D01*
X116380952Y-81026190D02*
X116380952Y-80526190D01*
X116571428Y-80526190D01*
X116619047Y-80550000D01*
X116642857Y-80573809D01*
X116666666Y-80621428D01*
X116666666Y-80692857D01*
X116642857Y-80740476D01*
X116619047Y-80764285D01*
X116571428Y-80788095D01*
X116380952Y-80788095D01*
X116952380Y-80740476D02*
X116904761Y-80716666D01*
X116880952Y-80692857D01*
X116857142Y-80645238D01*
X116857142Y-80621428D01*
X116880952Y-80573809D01*
X116904761Y-80550000D01*
X116952380Y-80526190D01*
X117047619Y-80526190D01*
X117095238Y-80550000D01*
X117119047Y-80573809D01*
X117142857Y-80621428D01*
X117142857Y-80645238D01*
X117119047Y-80692857D01*
X117095238Y-80716666D01*
X117047619Y-80740476D01*
X116952380Y-80740476D01*
X116904761Y-80764285D01*
X116880952Y-80788095D01*
X116857142Y-80835714D01*
X116857142Y-80930952D01*
X116880952Y-80978571D01*
X116904761Y-81002380D01*
X116952380Y-81026190D01*
X117047619Y-81026190D01*
X117095238Y-81002380D01*
X117119047Y-80978571D01*
X117142857Y-80930952D01*
X117142857Y-80835714D01*
X117119047Y-80788095D01*
X117095238Y-80764285D01*
X117047619Y-80740476D01*
X116416666Y-93026190D02*
X116250000Y-92788095D01*
X116130952Y-93026190D02*
X116130952Y-92526190D01*
X116321428Y-92526190D01*
X116369047Y-92550000D01*
X116392857Y-92573809D01*
X116416666Y-92621428D01*
X116416666Y-92692857D01*
X116392857Y-92740476D01*
X116369047Y-92764285D01*
X116321428Y-92788095D01*
X116130952Y-92788095D01*
X116654761Y-93026190D02*
X116750000Y-93026190D01*
X116797619Y-93002380D01*
X116821428Y-92978571D01*
X116869047Y-92907142D01*
X116892857Y-92811904D01*
X116892857Y-92621428D01*
X116869047Y-92573809D01*
X116845238Y-92550000D01*
X116797619Y-92526190D01*
X116702380Y-92526190D01*
X116654761Y-92550000D01*
X116630952Y-92573809D01*
X116607142Y-92621428D01*
X116607142Y-92740476D01*
X116630952Y-92788095D01*
X116654761Y-92811904D01*
X116702380Y-92835714D01*
X116797619Y-92835714D01*
X116845238Y-92811904D01*
X116869047Y-92788095D01*
X116892857Y-92740476D01*
X86878571Y-85826190D02*
X86711904Y-85588095D01*
X86592857Y-85826190D02*
X86592857Y-85326190D01*
X86783333Y-85326190D01*
X86830952Y-85350000D01*
X86854761Y-85373809D01*
X86878571Y-85421428D01*
X86878571Y-85492857D01*
X86854761Y-85540476D01*
X86830952Y-85564285D01*
X86783333Y-85588095D01*
X86592857Y-85588095D01*
X87354761Y-85826190D02*
X87069047Y-85826190D01*
X87211904Y-85826190D02*
X87211904Y-85326190D01*
X87164285Y-85397619D01*
X87116666Y-85445238D01*
X87069047Y-85469047D01*
X87664285Y-85326190D02*
X87711904Y-85326190D01*
X87759523Y-85350000D01*
X87783333Y-85373809D01*
X87807142Y-85421428D01*
X87830952Y-85516666D01*
X87830952Y-85635714D01*
X87807142Y-85730952D01*
X87783333Y-85778571D01*
X87759523Y-85802380D01*
X87711904Y-85826190D01*
X87664285Y-85826190D01*
X87616666Y-85802380D01*
X87592857Y-85778571D01*
X87569047Y-85730952D01*
X87545238Y-85635714D01*
X87545238Y-85516666D01*
X87569047Y-85421428D01*
X87592857Y-85373809D01*
X87616666Y-85350000D01*
X87664285Y-85326190D01*
X116428571Y-105226190D02*
X116261904Y-104988095D01*
X116142857Y-105226190D02*
X116142857Y-104726190D01*
X116333333Y-104726190D01*
X116380952Y-104750000D01*
X116404761Y-104773809D01*
X116428571Y-104821428D01*
X116428571Y-104892857D01*
X116404761Y-104940476D01*
X116380952Y-104964285D01*
X116333333Y-104988095D01*
X116142857Y-104988095D01*
X116904761Y-105226190D02*
X116619047Y-105226190D01*
X116761904Y-105226190D02*
X116761904Y-104726190D01*
X116714285Y-104797619D01*
X116666666Y-104845238D01*
X116619047Y-104869047D01*
X117380952Y-105226190D02*
X117095238Y-105226190D01*
X117238095Y-105226190D02*
X117238095Y-104726190D01*
X117190476Y-104797619D01*
X117142857Y-104845238D01*
X117095238Y-104869047D01*
X95478571Y-97426190D02*
X95311904Y-97188095D01*
X95192857Y-97426190D02*
X95192857Y-96926190D01*
X95383333Y-96926190D01*
X95430952Y-96950000D01*
X95454761Y-96973809D01*
X95478571Y-97021428D01*
X95478571Y-97092857D01*
X95454761Y-97140476D01*
X95430952Y-97164285D01*
X95383333Y-97188095D01*
X95192857Y-97188095D01*
X95954761Y-97426190D02*
X95669047Y-97426190D01*
X95811904Y-97426190D02*
X95811904Y-96926190D01*
X95764285Y-96997619D01*
X95716666Y-97045238D01*
X95669047Y-97069047D01*
X96145238Y-96973809D02*
X96169047Y-96950000D01*
X96216666Y-96926190D01*
X96335714Y-96926190D01*
X96383333Y-96950000D01*
X96407142Y-96973809D01*
X96430952Y-97021428D01*
X96430952Y-97069047D01*
X96407142Y-97140476D01*
X96121428Y-97426190D01*
X96430952Y-97426190D01*
X77678571Y-97426190D02*
X77511904Y-97188095D01*
X77392857Y-97426190D02*
X77392857Y-96926190D01*
X77583333Y-96926190D01*
X77630952Y-96950000D01*
X77654761Y-96973809D01*
X77678571Y-97021428D01*
X77678571Y-97092857D01*
X77654761Y-97140476D01*
X77630952Y-97164285D01*
X77583333Y-97188095D01*
X77392857Y-97188095D01*
X78154761Y-97426190D02*
X77869047Y-97426190D01*
X78011904Y-97426190D02*
X78011904Y-96926190D01*
X77964285Y-96997619D01*
X77916666Y-97045238D01*
X77869047Y-97069047D01*
X78321428Y-96926190D02*
X78630952Y-96926190D01*
X78464285Y-97116666D01*
X78535714Y-97116666D01*
X78583333Y-97140476D01*
X78607142Y-97164285D01*
X78630952Y-97211904D01*
X78630952Y-97330952D01*
X78607142Y-97378571D01*
X78583333Y-97402380D01*
X78535714Y-97426190D01*
X78392857Y-97426190D01*
X78345238Y-97402380D01*
X78321428Y-97378571D01*
X86878571Y-98026190D02*
X86711904Y-97788095D01*
X86592857Y-98026190D02*
X86592857Y-97526190D01*
X86783333Y-97526190D01*
X86830952Y-97550000D01*
X86854761Y-97573809D01*
X86878571Y-97621428D01*
X86878571Y-97692857D01*
X86854761Y-97740476D01*
X86830952Y-97764285D01*
X86783333Y-97788095D01*
X86592857Y-97788095D01*
X87354761Y-98026190D02*
X87069047Y-98026190D01*
X87211904Y-98026190D02*
X87211904Y-97526190D01*
X87164285Y-97597619D01*
X87116666Y-97645238D01*
X87069047Y-97669047D01*
X87783333Y-97692857D02*
X87783333Y-98026190D01*
X87664285Y-97502380D02*
X87545238Y-97859523D01*
X87854761Y-97859523D01*
X95428571Y-109926190D02*
X95261904Y-109688095D01*
X95142857Y-109926190D02*
X95142857Y-109426190D01*
X95333333Y-109426190D01*
X95380952Y-109450000D01*
X95404761Y-109473809D01*
X95428571Y-109521428D01*
X95428571Y-109592857D01*
X95404761Y-109640476D01*
X95380952Y-109664285D01*
X95333333Y-109688095D01*
X95142857Y-109688095D01*
X95904761Y-109926190D02*
X95619047Y-109926190D01*
X95761904Y-109926190D02*
X95761904Y-109426190D01*
X95714285Y-109497619D01*
X95666666Y-109545238D01*
X95619047Y-109569047D01*
X96357142Y-109426190D02*
X96119047Y-109426190D01*
X96095238Y-109664285D01*
X96119047Y-109640476D01*
X96166666Y-109616666D01*
X96285714Y-109616666D01*
X96333333Y-109640476D01*
X96357142Y-109664285D01*
X96380952Y-109711904D01*
X96380952Y-109830952D01*
X96357142Y-109878571D01*
X96333333Y-109902380D01*
X96285714Y-109926190D01*
X96166666Y-109926190D01*
X96119047Y-109902380D01*
X96095238Y-109878571D01*
X79278571Y-92026190D02*
X79111904Y-91788095D01*
X78992857Y-92026190D02*
X78992857Y-91526190D01*
X79183333Y-91526190D01*
X79230952Y-91550000D01*
X79254761Y-91573809D01*
X79278571Y-91621428D01*
X79278571Y-91692857D01*
X79254761Y-91740476D01*
X79230952Y-91764285D01*
X79183333Y-91788095D01*
X78992857Y-91788095D01*
X79754761Y-92026190D02*
X79469047Y-92026190D01*
X79611904Y-92026190D02*
X79611904Y-91526190D01*
X79564285Y-91597619D01*
X79516666Y-91645238D01*
X79469047Y-91669047D01*
X80183333Y-91526190D02*
X80088095Y-91526190D01*
X80040476Y-91550000D01*
X80016666Y-91573809D01*
X79969047Y-91645238D01*
X79945238Y-91740476D01*
X79945238Y-91930952D01*
X79969047Y-91978571D01*
X79992857Y-92002380D01*
X80040476Y-92026190D01*
X80135714Y-92026190D01*
X80183333Y-92002380D01*
X80207142Y-91978571D01*
X80230952Y-91930952D01*
X80230952Y-91811904D01*
X80207142Y-91764285D01*
X80183333Y-91740476D01*
X80135714Y-91716666D01*
X80040476Y-91716666D01*
X79992857Y-91740476D01*
X79969047Y-91764285D01*
X79945238Y-91811904D01*
X77878571Y-109426190D02*
X77711904Y-109188095D01*
X77592857Y-109426190D02*
X77592857Y-108926190D01*
X77783333Y-108926190D01*
X77830952Y-108950000D01*
X77854761Y-108973809D01*
X77878571Y-109021428D01*
X77878571Y-109092857D01*
X77854761Y-109140476D01*
X77830952Y-109164285D01*
X77783333Y-109188095D01*
X77592857Y-109188095D01*
X78354761Y-109426190D02*
X78069047Y-109426190D01*
X78211904Y-109426190D02*
X78211904Y-108926190D01*
X78164285Y-108997619D01*
X78116666Y-109045238D01*
X78069047Y-109069047D01*
X78521428Y-108926190D02*
X78854761Y-108926190D01*
X78640476Y-109426190D01*
X79678571Y-104026190D02*
X79511904Y-103788095D01*
X79392857Y-104026190D02*
X79392857Y-103526190D01*
X79583333Y-103526190D01*
X79630952Y-103550000D01*
X79654761Y-103573809D01*
X79678571Y-103621428D01*
X79678571Y-103692857D01*
X79654761Y-103740476D01*
X79630952Y-103764285D01*
X79583333Y-103788095D01*
X79392857Y-103788095D01*
X80154761Y-104026190D02*
X79869047Y-104026190D01*
X80011904Y-104026190D02*
X80011904Y-103526190D01*
X79964285Y-103597619D01*
X79916666Y-103645238D01*
X79869047Y-103669047D01*
X80440476Y-103740476D02*
X80392857Y-103716666D01*
X80369047Y-103692857D01*
X80345238Y-103645238D01*
X80345238Y-103621428D01*
X80369047Y-103573809D01*
X80392857Y-103550000D01*
X80440476Y-103526190D01*
X80535714Y-103526190D01*
X80583333Y-103550000D01*
X80607142Y-103573809D01*
X80630952Y-103621428D01*
X80630952Y-103645238D01*
X80607142Y-103692857D01*
X80583333Y-103716666D01*
X80535714Y-103740476D01*
X80440476Y-103740476D01*
X80392857Y-103764285D01*
X80369047Y-103788095D01*
X80345238Y-103835714D01*
X80345238Y-103930952D01*
X80369047Y-103978571D01*
X80392857Y-104002380D01*
X80440476Y-104026190D01*
X80535714Y-104026190D01*
X80583333Y-104002380D01*
X80607142Y-103978571D01*
X80630952Y-103930952D01*
X80630952Y-103835714D01*
X80607142Y-103788095D01*
X80583333Y-103764285D01*
X80535714Y-103740476D01*
X79878571Y-60426190D02*
X79711904Y-60188095D01*
X79592857Y-60426190D02*
X79592857Y-59926190D01*
X79783333Y-59926190D01*
X79830952Y-59950000D01*
X79854761Y-59973809D01*
X79878571Y-60021428D01*
X79878571Y-60092857D01*
X79854761Y-60140476D01*
X79830952Y-60164285D01*
X79783333Y-60188095D01*
X79592857Y-60188095D01*
X80354761Y-60426190D02*
X80069047Y-60426190D01*
X80211904Y-60426190D02*
X80211904Y-59926190D01*
X80164285Y-59997619D01*
X80116666Y-60045238D01*
X80069047Y-60069047D01*
X80592857Y-60426190D02*
X80688095Y-60426190D01*
X80735714Y-60402380D01*
X80759523Y-60378571D01*
X80807142Y-60307142D01*
X80830952Y-60211904D01*
X80830952Y-60021428D01*
X80807142Y-59973809D01*
X80783333Y-59950000D01*
X80735714Y-59926190D01*
X80640476Y-59926190D01*
X80592857Y-59950000D01*
X80569047Y-59973809D01*
X80545238Y-60021428D01*
X80545238Y-60140476D01*
X80569047Y-60188095D01*
X80592857Y-60211904D01*
X80640476Y-60235714D01*
X80735714Y-60235714D01*
X80783333Y-60211904D01*
X80807142Y-60188095D01*
X80830952Y-60140476D01*
X74769047Y-64126190D02*
X75054761Y-64126190D01*
X74911904Y-64626190D02*
X74911904Y-64126190D01*
X75221428Y-64626190D02*
X75221428Y-64126190D01*
X75411904Y-64126190D01*
X75459523Y-64150000D01*
X75483333Y-64173809D01*
X75507142Y-64221428D01*
X75507142Y-64292857D01*
X75483333Y-64340476D01*
X75459523Y-64364285D01*
X75411904Y-64388095D01*
X75221428Y-64388095D01*
X75983333Y-64626190D02*
X75697619Y-64626190D01*
X75840476Y-64626190D02*
X75840476Y-64126190D01*
X75792857Y-64197619D01*
X75745238Y-64245238D01*
X75697619Y-64269047D01*
X83169047Y-64126190D02*
X83454761Y-64126190D01*
X83311904Y-64626190D02*
X83311904Y-64126190D01*
X83621428Y-64626190D02*
X83621428Y-64126190D01*
X83811904Y-64126190D01*
X83859523Y-64150000D01*
X83883333Y-64173809D01*
X83907142Y-64221428D01*
X83907142Y-64292857D01*
X83883333Y-64340476D01*
X83859523Y-64364285D01*
X83811904Y-64388095D01*
X83621428Y-64388095D01*
X84097619Y-64173809D02*
X84121428Y-64150000D01*
X84169047Y-64126190D01*
X84288095Y-64126190D01*
X84335714Y-64150000D01*
X84359523Y-64173809D01*
X84383333Y-64221428D01*
X84383333Y-64269047D01*
X84359523Y-64340476D01*
X84073809Y-64626190D01*
X84383333Y-64626190D01*
X74569047Y-83726190D02*
X74854761Y-83726190D01*
X74711904Y-84226190D02*
X74711904Y-83726190D01*
X75021428Y-84226190D02*
X75021428Y-83726190D01*
X75211904Y-83726190D01*
X75259523Y-83750000D01*
X75283333Y-83773809D01*
X75307142Y-83821428D01*
X75307142Y-83892857D01*
X75283333Y-83940476D01*
X75259523Y-83964285D01*
X75211904Y-83988095D01*
X75021428Y-83988095D01*
X75473809Y-83726190D02*
X75783333Y-83726190D01*
X75616666Y-83916666D01*
X75688095Y-83916666D01*
X75735714Y-83940476D01*
X75759523Y-83964285D01*
X75783333Y-84011904D01*
X75783333Y-84130952D01*
X75759523Y-84178571D01*
X75735714Y-84202380D01*
X75688095Y-84226190D01*
X75545238Y-84226190D01*
X75497619Y-84202380D01*
X75473809Y-84178571D01*
X83169047Y-83726190D02*
X83454761Y-83726190D01*
X83311904Y-84226190D02*
X83311904Y-83726190D01*
X83621428Y-84226190D02*
X83621428Y-83726190D01*
X83811904Y-83726190D01*
X83859523Y-83750000D01*
X83883333Y-83773809D01*
X83907142Y-83821428D01*
X83907142Y-83892857D01*
X83883333Y-83940476D01*
X83859523Y-83964285D01*
X83811904Y-83988095D01*
X83621428Y-83988095D01*
X84335714Y-83892857D02*
X84335714Y-84226190D01*
X84216666Y-83702380D02*
X84097619Y-84059523D01*
X84407142Y-84059523D01*
X100369047Y-64126190D02*
X100654761Y-64126190D01*
X100511904Y-64626190D02*
X100511904Y-64126190D01*
X100821428Y-64626190D02*
X100821428Y-64126190D01*
X101011904Y-64126190D01*
X101059523Y-64150000D01*
X101083333Y-64173809D01*
X101107142Y-64221428D01*
X101107142Y-64292857D01*
X101083333Y-64340476D01*
X101059523Y-64364285D01*
X101011904Y-64388095D01*
X100821428Y-64388095D01*
X101559523Y-64126190D02*
X101321428Y-64126190D01*
X101297619Y-64364285D01*
X101321428Y-64340476D01*
X101369047Y-64316666D01*
X101488095Y-64316666D01*
X101535714Y-64340476D01*
X101559523Y-64364285D01*
X101583333Y-64411904D01*
X101583333Y-64530952D01*
X101559523Y-64578571D01*
X101535714Y-64602380D01*
X101488095Y-64626190D01*
X101369047Y-64626190D01*
X101321428Y-64602380D01*
X101297619Y-64578571D01*
X100369047Y-83726190D02*
X100654761Y-83726190D01*
X100511904Y-84226190D02*
X100511904Y-83726190D01*
X100821428Y-84226190D02*
X100821428Y-83726190D01*
X101011904Y-83726190D01*
X101059523Y-83750000D01*
X101083333Y-83773809D01*
X101107142Y-83821428D01*
X101107142Y-83892857D01*
X101083333Y-83940476D01*
X101059523Y-83964285D01*
X101011904Y-83988095D01*
X100821428Y-83988095D01*
X101535714Y-83726190D02*
X101440476Y-83726190D01*
X101392857Y-83750000D01*
X101369047Y-83773809D01*
X101321428Y-83845238D01*
X101297619Y-83940476D01*
X101297619Y-84130952D01*
X101321428Y-84178571D01*
X101345238Y-84202380D01*
X101392857Y-84226190D01*
X101488095Y-84226190D01*
X101535714Y-84202380D01*
X101559523Y-84178571D01*
X101583333Y-84130952D01*
X101583333Y-84011904D01*
X101559523Y-83964285D01*
X101535714Y-83940476D01*
X101488095Y-83916666D01*
X101392857Y-83916666D01*
X101345238Y-83940476D01*
X101321428Y-83964285D01*
X101297619Y-84011904D01*
X74769047Y-57726190D02*
X75054761Y-57726190D01*
X74911904Y-58226190D02*
X74911904Y-57726190D01*
X75221428Y-58226190D02*
X75221428Y-57726190D01*
X75411904Y-57726190D01*
X75459523Y-57750000D01*
X75483333Y-57773809D01*
X75507142Y-57821428D01*
X75507142Y-57892857D01*
X75483333Y-57940476D01*
X75459523Y-57964285D01*
X75411904Y-57988095D01*
X75221428Y-57988095D01*
X75673809Y-57726190D02*
X76007142Y-57726190D01*
X75792857Y-58226190D01*
X105969047Y-64126190D02*
X106254761Y-64126190D01*
X106111904Y-64626190D02*
X106111904Y-64126190D01*
X106421428Y-64626190D02*
X106421428Y-64126190D01*
X106611904Y-64126190D01*
X106659523Y-64150000D01*
X106683333Y-64173809D01*
X106707142Y-64221428D01*
X106707142Y-64292857D01*
X106683333Y-64340476D01*
X106659523Y-64364285D01*
X106611904Y-64388095D01*
X106421428Y-64388095D01*
X106992857Y-64340476D02*
X106945238Y-64316666D01*
X106921428Y-64292857D01*
X106897619Y-64245238D01*
X106897619Y-64221428D01*
X106921428Y-64173809D01*
X106945238Y-64150000D01*
X106992857Y-64126190D01*
X107088095Y-64126190D01*
X107135714Y-64150000D01*
X107159523Y-64173809D01*
X107183333Y-64221428D01*
X107183333Y-64245238D01*
X107159523Y-64292857D01*
X107135714Y-64316666D01*
X107088095Y-64340476D01*
X106992857Y-64340476D01*
X106945238Y-64364285D01*
X106921428Y-64388095D01*
X106897619Y-64435714D01*
X106897619Y-64530952D01*
X106921428Y-64578571D01*
X106945238Y-64602380D01*
X106992857Y-64626190D01*
X107088095Y-64626190D01*
X107135714Y-64602380D01*
X107159523Y-64578571D01*
X107183333Y-64530952D01*
X107183333Y-64435714D01*
X107159523Y-64388095D01*
X107135714Y-64364285D01*
X107088095Y-64340476D01*
X74569047Y-95726190D02*
X74854761Y-95726190D01*
X74711904Y-96226190D02*
X74711904Y-95726190D01*
X75021428Y-96226190D02*
X75021428Y-95726190D01*
X75211904Y-95726190D01*
X75259523Y-95750000D01*
X75283333Y-95773809D01*
X75307142Y-95821428D01*
X75307142Y-95892857D01*
X75283333Y-95940476D01*
X75259523Y-95964285D01*
X75211904Y-95988095D01*
X75021428Y-95988095D01*
X75545238Y-96226190D02*
X75640476Y-96226190D01*
X75688095Y-96202380D01*
X75711904Y-96178571D01*
X75759523Y-96107142D01*
X75783333Y-96011904D01*
X75783333Y-95821428D01*
X75759523Y-95773809D01*
X75735714Y-95750000D01*
X75688095Y-95726190D01*
X75592857Y-95726190D01*
X75545238Y-95750000D01*
X75521428Y-95773809D01*
X75497619Y-95821428D01*
X75497619Y-95940476D01*
X75521428Y-95988095D01*
X75545238Y-96011904D01*
X75592857Y-96035714D01*
X75688095Y-96035714D01*
X75735714Y-96011904D01*
X75759523Y-95988095D01*
X75783333Y-95940476D01*
X105730952Y-83726190D02*
X106016666Y-83726190D01*
X105873809Y-84226190D02*
X105873809Y-83726190D01*
X106183333Y-84226190D02*
X106183333Y-83726190D01*
X106373809Y-83726190D01*
X106421428Y-83750000D01*
X106445238Y-83773809D01*
X106469047Y-83821428D01*
X106469047Y-83892857D01*
X106445238Y-83940476D01*
X106421428Y-83964285D01*
X106373809Y-83988095D01*
X106183333Y-83988095D01*
X106945238Y-84226190D02*
X106659523Y-84226190D01*
X106802380Y-84226190D02*
X106802380Y-83726190D01*
X106754761Y-83797619D01*
X106707142Y-83845238D01*
X106659523Y-83869047D01*
X107254761Y-83726190D02*
X107302380Y-83726190D01*
X107350000Y-83750000D01*
X107373809Y-83773809D01*
X107397619Y-83821428D01*
X107421428Y-83916666D01*
X107421428Y-84035714D01*
X107397619Y-84130952D01*
X107373809Y-84178571D01*
X107350000Y-84202380D01*
X107302380Y-84226190D01*
X107254761Y-84226190D01*
X107207142Y-84202380D01*
X107183333Y-84178571D01*
X107159523Y-84130952D01*
X107135714Y-84035714D01*
X107135714Y-83916666D01*
X107159523Y-83821428D01*
X107183333Y-83773809D01*
X107207142Y-83750000D01*
X107254761Y-83726190D01*
X111330952Y-83726190D02*
X111616666Y-83726190D01*
X111473809Y-84226190D02*
X111473809Y-83726190D01*
X111783333Y-84226190D02*
X111783333Y-83726190D01*
X111973809Y-83726190D01*
X112021428Y-83750000D01*
X112045238Y-83773809D01*
X112069047Y-83821428D01*
X112069047Y-83892857D01*
X112045238Y-83940476D01*
X112021428Y-83964285D01*
X111973809Y-83988095D01*
X111783333Y-83988095D01*
X112545238Y-84226190D02*
X112259523Y-84226190D01*
X112402380Y-84226190D02*
X112402380Y-83726190D01*
X112354761Y-83797619D01*
X112307142Y-83845238D01*
X112259523Y-83869047D01*
X113021428Y-84226190D02*
X112735714Y-84226190D01*
X112878571Y-84226190D02*
X112878571Y-83726190D01*
X112830952Y-83797619D01*
X112783333Y-83845238D01*
X112735714Y-83869047D01*
X111530952Y-108126190D02*
X111816666Y-108126190D01*
X111673809Y-108626190D02*
X111673809Y-108126190D01*
X111983333Y-108626190D02*
X111983333Y-108126190D01*
X112173809Y-108126190D01*
X112221428Y-108150000D01*
X112245238Y-108173809D01*
X112269047Y-108221428D01*
X112269047Y-108292857D01*
X112245238Y-108340476D01*
X112221428Y-108364285D01*
X112173809Y-108388095D01*
X111983333Y-108388095D01*
X112745238Y-108626190D02*
X112459523Y-108626190D01*
X112602380Y-108626190D02*
X112602380Y-108126190D01*
X112554761Y-108197619D01*
X112507142Y-108245238D01*
X112459523Y-108269047D01*
X112935714Y-108173809D02*
X112959523Y-108150000D01*
X113007142Y-108126190D01*
X113126190Y-108126190D01*
X113173809Y-108150000D01*
X113197619Y-108173809D01*
X113221428Y-108221428D01*
X113221428Y-108269047D01*
X113197619Y-108340476D01*
X112911904Y-108626190D01*
X113221428Y-108626190D01*
X111330952Y-95726190D02*
X111616666Y-95726190D01*
X111473809Y-96226190D02*
X111473809Y-95726190D01*
X111783333Y-96226190D02*
X111783333Y-95726190D01*
X111973809Y-95726190D01*
X112021428Y-95750000D01*
X112045238Y-95773809D01*
X112069047Y-95821428D01*
X112069047Y-95892857D01*
X112045238Y-95940476D01*
X112021428Y-95964285D01*
X111973809Y-95988095D01*
X111783333Y-95988095D01*
X112545238Y-96226190D02*
X112259523Y-96226190D01*
X112402380Y-96226190D02*
X112402380Y-95726190D01*
X112354761Y-95797619D01*
X112307142Y-95845238D01*
X112259523Y-95869047D01*
X112711904Y-95726190D02*
X113021428Y-95726190D01*
X112854761Y-95916666D01*
X112926190Y-95916666D01*
X112973809Y-95940476D01*
X112997619Y-95964285D01*
X113021428Y-96011904D01*
X113021428Y-96130952D01*
X112997619Y-96178571D01*
X112973809Y-96202380D01*
X112926190Y-96226190D01*
X112783333Y-96226190D01*
X112735714Y-96202380D01*
X112711904Y-96178571D01*
X100130952Y-95726190D02*
X100416666Y-95726190D01*
X100273809Y-96226190D02*
X100273809Y-95726190D01*
X100583333Y-96226190D02*
X100583333Y-95726190D01*
X100773809Y-95726190D01*
X100821428Y-95750000D01*
X100845238Y-95773809D01*
X100869047Y-95821428D01*
X100869047Y-95892857D01*
X100845238Y-95940476D01*
X100821428Y-95964285D01*
X100773809Y-95988095D01*
X100583333Y-95988095D01*
X101345238Y-96226190D02*
X101059523Y-96226190D01*
X101202380Y-96226190D02*
X101202380Y-95726190D01*
X101154761Y-95797619D01*
X101107142Y-95845238D01*
X101059523Y-95869047D01*
X101773809Y-95892857D02*
X101773809Y-96226190D01*
X101654761Y-95702380D02*
X101535714Y-96059523D01*
X101845238Y-96059523D01*
X82930952Y-95726190D02*
X83216666Y-95726190D01*
X83073809Y-96226190D02*
X83073809Y-95726190D01*
X83383333Y-96226190D02*
X83383333Y-95726190D01*
X83573809Y-95726190D01*
X83621428Y-95750000D01*
X83645238Y-95773809D01*
X83669047Y-95821428D01*
X83669047Y-95892857D01*
X83645238Y-95940476D01*
X83621428Y-95964285D01*
X83573809Y-95988095D01*
X83383333Y-95988095D01*
X84145238Y-96226190D02*
X83859523Y-96226190D01*
X84002380Y-96226190D02*
X84002380Y-95726190D01*
X83954761Y-95797619D01*
X83907142Y-95845238D01*
X83859523Y-95869047D01*
X84597619Y-95726190D02*
X84359523Y-95726190D01*
X84335714Y-95964285D01*
X84359523Y-95940476D01*
X84407142Y-95916666D01*
X84526190Y-95916666D01*
X84573809Y-95940476D01*
X84597619Y-95964285D01*
X84621428Y-96011904D01*
X84621428Y-96130952D01*
X84597619Y-96178571D01*
X84573809Y-96202380D01*
X84526190Y-96226190D01*
X84407142Y-96226190D01*
X84359523Y-96202380D01*
X84335714Y-96178571D01*
X74730952Y-107726190D02*
X75016666Y-107726190D01*
X74873809Y-108226190D02*
X74873809Y-107726190D01*
X75183333Y-108226190D02*
X75183333Y-107726190D01*
X75373809Y-107726190D01*
X75421428Y-107750000D01*
X75445238Y-107773809D01*
X75469047Y-107821428D01*
X75469047Y-107892857D01*
X75445238Y-107940476D01*
X75421428Y-107964285D01*
X75373809Y-107988095D01*
X75183333Y-107988095D01*
X75945238Y-108226190D02*
X75659523Y-108226190D01*
X75802380Y-108226190D02*
X75802380Y-107726190D01*
X75754761Y-107797619D01*
X75707142Y-107845238D01*
X75659523Y-107869047D01*
X76373809Y-107726190D02*
X76278571Y-107726190D01*
X76230952Y-107750000D01*
X76207142Y-107773809D01*
X76159523Y-107845238D01*
X76135714Y-107940476D01*
X76135714Y-108130952D01*
X76159523Y-108178571D01*
X76183333Y-108202380D01*
X76230952Y-108226190D01*
X76326190Y-108226190D01*
X76373809Y-108202380D01*
X76397619Y-108178571D01*
X76421428Y-108130952D01*
X76421428Y-108011904D01*
X76397619Y-107964285D01*
X76373809Y-107940476D01*
X76326190Y-107916666D01*
X76230952Y-107916666D01*
X76183333Y-107940476D01*
X76159523Y-107964285D01*
X76135714Y-108011904D01*
X105730952Y-95726190D02*
X106016666Y-95726190D01*
X105873809Y-96226190D02*
X105873809Y-95726190D01*
X106183333Y-96226190D02*
X106183333Y-95726190D01*
X106373809Y-95726190D01*
X106421428Y-95750000D01*
X106445238Y-95773809D01*
X106469047Y-95821428D01*
X106469047Y-95892857D01*
X106445238Y-95940476D01*
X106421428Y-95964285D01*
X106373809Y-95988095D01*
X106183333Y-95988095D01*
X106945238Y-96226190D02*
X106659523Y-96226190D01*
X106802380Y-96226190D02*
X106802380Y-95726190D01*
X106754761Y-95797619D01*
X106707142Y-95845238D01*
X106659523Y-95869047D01*
X107111904Y-95726190D02*
X107445238Y-95726190D01*
X107230952Y-96226190D01*
X100130952Y-108126190D02*
X100416666Y-108126190D01*
X100273809Y-108626190D02*
X100273809Y-108126190D01*
X100583333Y-108626190D02*
X100583333Y-108126190D01*
X100773809Y-108126190D01*
X100821428Y-108150000D01*
X100845238Y-108173809D01*
X100869047Y-108221428D01*
X100869047Y-108292857D01*
X100845238Y-108340476D01*
X100821428Y-108364285D01*
X100773809Y-108388095D01*
X100583333Y-108388095D01*
X101345238Y-108626190D02*
X101059523Y-108626190D01*
X101202380Y-108626190D02*
X101202380Y-108126190D01*
X101154761Y-108197619D01*
X101107142Y-108245238D01*
X101059523Y-108269047D01*
X101630952Y-108340476D02*
X101583333Y-108316666D01*
X101559523Y-108292857D01*
X101535714Y-108245238D01*
X101535714Y-108221428D01*
X101559523Y-108173809D01*
X101583333Y-108150000D01*
X101630952Y-108126190D01*
X101726190Y-108126190D01*
X101773809Y-108150000D01*
X101797619Y-108173809D01*
X101821428Y-108221428D01*
X101821428Y-108245238D01*
X101797619Y-108292857D01*
X101773809Y-108316666D01*
X101726190Y-108340476D01*
X101630952Y-108340476D01*
X101583333Y-108364285D01*
X101559523Y-108388095D01*
X101535714Y-108435714D01*
X101535714Y-108530952D01*
X101559523Y-108578571D01*
X101583333Y-108602380D01*
X101630952Y-108626190D01*
X101726190Y-108626190D01*
X101773809Y-108602380D01*
X101797619Y-108578571D01*
X101821428Y-108530952D01*
X101821428Y-108435714D01*
X101797619Y-108388095D01*
X101773809Y-108364285D01*
X101726190Y-108340476D01*
X82930952Y-107726190D02*
X83216666Y-107726190D01*
X83073809Y-108226190D02*
X83073809Y-107726190D01*
X83383333Y-108226190D02*
X83383333Y-107726190D01*
X83573809Y-107726190D01*
X83621428Y-107750000D01*
X83645238Y-107773809D01*
X83669047Y-107821428D01*
X83669047Y-107892857D01*
X83645238Y-107940476D01*
X83621428Y-107964285D01*
X83573809Y-107988095D01*
X83383333Y-107988095D01*
X84145238Y-108226190D02*
X83859523Y-108226190D01*
X84002380Y-108226190D02*
X84002380Y-107726190D01*
X83954761Y-107797619D01*
X83907142Y-107845238D01*
X83859523Y-107869047D01*
X84383333Y-108226190D02*
X84478571Y-108226190D01*
X84526190Y-108202380D01*
X84550000Y-108178571D01*
X84597619Y-108107142D01*
X84621428Y-108011904D01*
X84621428Y-107821428D01*
X84597619Y-107773809D01*
X84573809Y-107750000D01*
X84526190Y-107726190D01*
X84430952Y-107726190D01*
X84383333Y-107750000D01*
X84359523Y-107773809D01*
X84335714Y-107821428D01*
X84335714Y-107940476D01*
X84359523Y-107988095D01*
X84383333Y-108011904D01*
X84430952Y-108035714D01*
X84526190Y-108035714D01*
X84573809Y-108011904D01*
X84597619Y-107988095D01*
X84621428Y-107940476D01*
X111330952Y-77726190D02*
X111616666Y-77726190D01*
X111473809Y-78226190D02*
X111473809Y-77726190D01*
X111783333Y-78226190D02*
X111783333Y-77726190D01*
X111973809Y-77726190D01*
X112021428Y-77750000D01*
X112045238Y-77773809D01*
X112069047Y-77821428D01*
X112069047Y-77892857D01*
X112045238Y-77940476D01*
X112021428Y-77964285D01*
X111973809Y-77988095D01*
X111783333Y-77988095D01*
X112259523Y-77773809D02*
X112283333Y-77750000D01*
X112330952Y-77726190D01*
X112450000Y-77726190D01*
X112497619Y-77750000D01*
X112521428Y-77773809D01*
X112545238Y-77821428D01*
X112545238Y-77869047D01*
X112521428Y-77940476D01*
X112235714Y-78226190D01*
X112545238Y-78226190D01*
X112854761Y-77726190D02*
X112902380Y-77726190D01*
X112950000Y-77750000D01*
X112973809Y-77773809D01*
X112997619Y-77821428D01*
X113021428Y-77916666D01*
X113021428Y-78035714D01*
X112997619Y-78130952D01*
X112973809Y-78178571D01*
X112950000Y-78202380D01*
X112902380Y-78226190D01*
X112854761Y-78226190D01*
X112807142Y-78202380D01*
X112783333Y-78178571D01*
X112759523Y-78130952D01*
X112735714Y-78035714D01*
X112735714Y-77916666D01*
X112759523Y-77821428D01*
X112783333Y-77773809D01*
X112807142Y-77750000D01*
X112854761Y-77726190D01*
X111530952Y-89726190D02*
X111816666Y-89726190D01*
X111673809Y-90226190D02*
X111673809Y-89726190D01*
X111983333Y-90226190D02*
X111983333Y-89726190D01*
X112173809Y-89726190D01*
X112221428Y-89750000D01*
X112245238Y-89773809D01*
X112269047Y-89821428D01*
X112269047Y-89892857D01*
X112245238Y-89940476D01*
X112221428Y-89964285D01*
X112173809Y-89988095D01*
X111983333Y-89988095D01*
X112459523Y-89773809D02*
X112483333Y-89750000D01*
X112530952Y-89726190D01*
X112650000Y-89726190D01*
X112697619Y-89750000D01*
X112721428Y-89773809D01*
X112745238Y-89821428D01*
X112745238Y-89869047D01*
X112721428Y-89940476D01*
X112435714Y-90226190D01*
X112745238Y-90226190D01*
X113221428Y-90226190D02*
X112935714Y-90226190D01*
X113078571Y-90226190D02*
X113078571Y-89726190D01*
X113030952Y-89797619D01*
X112983333Y-89845238D01*
X112935714Y-89869047D01*
X111330952Y-101726190D02*
X111616666Y-101726190D01*
X111473809Y-102226190D02*
X111473809Y-101726190D01*
X111783333Y-102226190D02*
X111783333Y-101726190D01*
X111973809Y-101726190D01*
X112021428Y-101750000D01*
X112045238Y-101773809D01*
X112069047Y-101821428D01*
X112069047Y-101892857D01*
X112045238Y-101940476D01*
X112021428Y-101964285D01*
X111973809Y-101988095D01*
X111783333Y-101988095D01*
X112259523Y-101773809D02*
X112283333Y-101750000D01*
X112330952Y-101726190D01*
X112450000Y-101726190D01*
X112497619Y-101750000D01*
X112521428Y-101773809D01*
X112545238Y-101821428D01*
X112545238Y-101869047D01*
X112521428Y-101940476D01*
X112235714Y-102226190D01*
X112545238Y-102226190D01*
X112735714Y-101773809D02*
X112759523Y-101750000D01*
X112807142Y-101726190D01*
X112926190Y-101726190D01*
X112973809Y-101750000D01*
X112997619Y-101773809D01*
X113021428Y-101821428D01*
X113021428Y-101869047D01*
X112997619Y-101940476D01*
X112711904Y-102226190D01*
X113021428Y-102226190D01*
X105730952Y-108126190D02*
X106016666Y-108126190D01*
X105873809Y-108626190D02*
X105873809Y-108126190D01*
X106183333Y-108626190D02*
X106183333Y-108126190D01*
X106373809Y-108126190D01*
X106421428Y-108150000D01*
X106445238Y-108173809D01*
X106469047Y-108221428D01*
X106469047Y-108292857D01*
X106445238Y-108340476D01*
X106421428Y-108364285D01*
X106373809Y-108388095D01*
X106183333Y-108388095D01*
X106659523Y-108173809D02*
X106683333Y-108150000D01*
X106730952Y-108126190D01*
X106850000Y-108126190D01*
X106897619Y-108150000D01*
X106921428Y-108173809D01*
X106945238Y-108221428D01*
X106945238Y-108269047D01*
X106921428Y-108340476D01*
X106635714Y-108626190D01*
X106945238Y-108626190D01*
X107111904Y-108126190D02*
X107421428Y-108126190D01*
X107254761Y-108316666D01*
X107326190Y-108316666D01*
X107373809Y-108340476D01*
X107397619Y-108364285D01*
X107421428Y-108411904D01*
X107421428Y-108530952D01*
X107397619Y-108578571D01*
X107373809Y-108602380D01*
X107326190Y-108626190D01*
X107183333Y-108626190D01*
X107135714Y-108602380D01*
X107111904Y-108578571D01*
X73078571Y-118378571D02*
X73054761Y-118402380D01*
X72983333Y-118426190D01*
X72935714Y-118426190D01*
X72864285Y-118402380D01*
X72816666Y-118354761D01*
X72792857Y-118307142D01*
X72769047Y-118211904D01*
X72769047Y-118140476D01*
X72792857Y-118045238D01*
X72816666Y-117997619D01*
X72864285Y-117950000D01*
X72935714Y-117926190D01*
X72983333Y-117926190D01*
X73054761Y-117950000D01*
X73078571Y-117973809D01*
X73554761Y-118426190D02*
X73269047Y-118426190D01*
X73411904Y-118426190D02*
X73411904Y-117926190D01*
X73364285Y-117997619D01*
X73316666Y-118045238D01*
X73269047Y-118069047D01*
X73721428Y-117926190D02*
X74054761Y-117926190D01*
X73840476Y-118426190D01*
X83430952Y-112626190D02*
X83430952Y-112126190D01*
X83550000Y-112126190D01*
X83621428Y-112150000D01*
X83669047Y-112197619D01*
X83692857Y-112245238D01*
X83716666Y-112340476D01*
X83716666Y-112411904D01*
X83692857Y-112507142D01*
X83669047Y-112554761D01*
X83621428Y-112602380D01*
X83550000Y-112626190D01*
X83430952Y-112626190D01*
X84192857Y-112626190D02*
X83907142Y-112626190D01*
X84050000Y-112626190D02*
X84050000Y-112126190D01*
X84002380Y-112197619D01*
X83954761Y-112245238D01*
X83907142Y-112269047D01*
X83678571Y-115226190D02*
X83511904Y-114988095D01*
X83392857Y-115226190D02*
X83392857Y-114726190D01*
X83583333Y-114726190D01*
X83630952Y-114750000D01*
X83654761Y-114773809D01*
X83678571Y-114821428D01*
X83678571Y-114892857D01*
X83654761Y-114940476D01*
X83630952Y-114964285D01*
X83583333Y-114988095D01*
X83392857Y-114988095D01*
X83869047Y-114773809D02*
X83892857Y-114750000D01*
X83940476Y-114726190D01*
X84059523Y-114726190D01*
X84107142Y-114750000D01*
X84130952Y-114773809D01*
X84154761Y-114821428D01*
X84154761Y-114869047D01*
X84130952Y-114940476D01*
X83845238Y-115226190D01*
X84154761Y-115226190D01*
X84464285Y-114726190D02*
X84511904Y-114726190D01*
X84559523Y-114750000D01*
X84583333Y-114773809D01*
X84607142Y-114821428D01*
X84630952Y-114916666D01*
X84630952Y-115035714D01*
X84607142Y-115130952D01*
X84583333Y-115178571D01*
X84559523Y-115202380D01*
X84511904Y-115226190D01*
X84464285Y-115226190D01*
X84416666Y-115202380D01*
X84392857Y-115178571D01*
X84369047Y-115130952D01*
X84345238Y-115035714D01*
X84345238Y-114916666D01*
X84369047Y-114821428D01*
X84392857Y-114773809D01*
X84416666Y-114750000D01*
X84464285Y-114726190D01*
X83795238Y-117526190D02*
X83795238Y-117883333D01*
X83771428Y-117954761D01*
X83723809Y-118002380D01*
X83652380Y-118026190D01*
X83604761Y-118026190D01*
X84295238Y-118026190D02*
X84009523Y-118026190D01*
X84152380Y-118026190D02*
X84152380Y-117526190D01*
X84104761Y-117597619D01*
X84057142Y-117645238D01*
X84009523Y-117669047D01*
X84604761Y-117526190D02*
X84652380Y-117526190D01*
X84700000Y-117550000D01*
X84723809Y-117573809D01*
X84747619Y-117621428D01*
X84771428Y-117716666D01*
X84771428Y-117835714D01*
X84747619Y-117930952D01*
X84723809Y-117978571D01*
X84700000Y-118002380D01*
X84652380Y-118026190D01*
X84604761Y-118026190D01*
X84557142Y-118002380D01*
X84533333Y-117978571D01*
X84509523Y-117930952D01*
X84485714Y-117835714D01*
X84485714Y-117716666D01*
X84509523Y-117621428D01*
X84533333Y-117573809D01*
X84557142Y-117550000D01*
X84604761Y-117526190D01*
D17*
X89738095Y-57952380D02*
X89738095Y-58761904D01*
X89785714Y-58857142D01*
X89833333Y-58904761D01*
X89928571Y-58952380D01*
X90119047Y-58952380D01*
X90214285Y-58904761D01*
X90261904Y-58857142D01*
X90309523Y-58761904D01*
X90309523Y-57952380D01*
X91309523Y-58952380D02*
X90738095Y-58952380D01*
X91023809Y-58952380D02*
X91023809Y-57952380D01*
X90928571Y-58095238D01*
X90833333Y-58190476D01*
X90738095Y-58238095D01*
X89488095Y-77952380D02*
X89488095Y-78761904D01*
X89535714Y-78857142D01*
X89583333Y-78904761D01*
X89678571Y-78952380D01*
X89869047Y-78952380D01*
X89964285Y-78904761D01*
X90011904Y-78857142D01*
X90059523Y-78761904D01*
X90059523Y-77952380D01*
X90488095Y-78047619D02*
X90535714Y-78000000D01*
X90630952Y-77952380D01*
X90869047Y-77952380D01*
X90964285Y-78000000D01*
X91011904Y-78047619D01*
X91059523Y-78142857D01*
X91059523Y-78238095D01*
X91011904Y-78380952D01*
X90440476Y-78952380D01*
X91059523Y-78952380D01*
X89488095Y-89952380D02*
X89488095Y-90761904D01*
X89535714Y-90857142D01*
X89583333Y-90904761D01*
X89678571Y-90952380D01*
X89869047Y-90952380D01*
X89964285Y-90904761D01*
X90011904Y-90857142D01*
X90059523Y-90761904D01*
X90059523Y-89952380D01*
X90440476Y-89952380D02*
X91059523Y-89952380D01*
X90726190Y-90333333D01*
X90869047Y-90333333D01*
X90964285Y-90380952D01*
X91011904Y-90428571D01*
X91059523Y-90523809D01*
X91059523Y-90761904D01*
X91011904Y-90857142D01*
X90964285Y-90904761D01*
X90869047Y-90952380D01*
X90583333Y-90952380D01*
X90488095Y-90904761D01*
X90440476Y-90857142D01*
X89488095Y-101952380D02*
X89488095Y-102761904D01*
X89535714Y-102857142D01*
X89583333Y-102904761D01*
X89678571Y-102952380D01*
X89869047Y-102952380D01*
X89964285Y-102904761D01*
X90011904Y-102857142D01*
X90059523Y-102761904D01*
X90059523Y-101952380D01*
X90964285Y-102285714D02*
X90964285Y-102952380D01*
X90726190Y-101904761D02*
X90488095Y-102619047D01*
X91107142Y-102619047D01*
M02*
