M48
INCH,TZ
T1C0.0118
T2C0.0157
T3C0.0197
T4C0.0394
T5C0.1181
%
G90
G05
T1
X10598Y-31299
X14213Y-25551
X15787Y-25551
X16732Y-28976
X17205Y-25114
X17480Y-31417
X17835Y-28386
X18023Y-29075
X18307Y-30709
X18317Y-26046
X18340Y-30998
X18344Y-29805
X18372Y-31995
X18504Y-25014
X18538Y-28583
X18543Y-27520
X18740Y-28307
X18858Y-25512
X18922Y-32564
X19016Y-33031
X19244Y-26413
X19252Y-25551
X19291Y-29291
X19291Y-30000
X19291Y-30709
X19291Y-31417
X19331Y-33307
X19332Y-32401
X19424Y-33686
X19597Y-32475
X19626Y-27362
X20039Y-29291
X20039Y-30000
X20039Y-30709
X20039Y-31417
X20271Y-32564
X20453Y-28249
X20512Y-32402
X20748Y-29291
X20748Y-30000
X20748Y-30709
X20748Y-31417
X20787Y-25335
X21112Y-28189
X21240Y-24638
X21496Y-29291
X21496Y-30000
X21496Y-30709
X21496Y-31417
X21531Y-25035
X21969Y-28543
X22480Y-31417
X22835Y-28780
X22913Y-32874
X22992Y-31181
X22992Y-32244
X23189Y-30315
X23740Y-32244
X23796Y-28911
X24094Y-29449
X24488Y-32244
X25236Y-32244
X26142Y-31575
X26328Y-26772
X26811Y-26693
X27047Y-34134
X27061Y-31575
X27126Y-24685
X27126Y-27756
X27126Y-29646
X27126Y-32717
X27638Y-33780
X31142Y-33780
X31654Y-32598
X31693Y-27638
X31693Y-29606
X31732Y-24646
X31732Y-34134
X32230Y-29424
X32283Y-30335
X32303Y-31339
X32520Y-30000
X32795Y-30650
X33169Y-30315
X35689Y-32815
X36417Y-33425
X41457Y-31732
T2
X7094Y-32185
X7181Y-28516
X7760Y-28012
X7811Y-32705
X8449Y-32126
X8465Y-28512
X9291Y-32185
X9350Y-28500
X10102Y-32772
X10193Y-28039
X10945Y-28535
X11484Y-28886
X15283Y-28315
X15783Y-28906
X15787Y-33402
X15795Y-32043
X15862Y-34280
X16035Y-35130
X16138Y-30496
X16909Y-30512
X16974Y-35124
X27205Y-33307
X27559Y-28150
X27579Y-25167
X27598Y-29094
X31240Y-25167
X31240Y-28167
X31240Y-29116
X31289Y-32116
T3
X7776Y-35866
X8035Y-35240
X8035Y-36493
X8661Y-34980
X8661Y-36752
X9288Y-35240
X9288Y-36493
X9547Y-35866
X39665Y-24803
X39925Y-24177
X39925Y-25430
X40551Y-23917
X40551Y-25689
X41178Y-24177
X41178Y-25430
X41437Y-24803
X39665Y-35886
X39925Y-35259
X39925Y-36512
X40551Y-35000
X40551Y-36772
X41178Y-35259
X41178Y-36512
X41437Y-35886
X7776Y-24803
X8035Y-24177
X8035Y-25430
X8661Y-23917
X8661Y-25689
X9288Y-24177
X9288Y-25430
X9547Y-24803
T4
X39500Y-28335
X39500Y-29335
X39500Y-30335
X39500Y-31335
X39500Y-32335
X40500Y-28335
X40500Y-29335
X40500Y-30335
X40500Y-31335
X40500Y-32335
T5
X40551Y-24803
X40551Y-35886
X8661Y-24803
X8661Y-35866
T0
M30
