G04 #@! TF.GenerationSoftware,KiCad,Pcbnew,(5.1.5)-3*
G04 #@! TF.CreationDate,2020-01-27T20:13:38-03:30*
G04 #@! TF.ProjectId,XDS100v2 Programmer,58445331-3030-4763-9220-50726f677261,rev?*
G04 #@! TF.SameCoordinates,Original*
G04 #@! TF.FileFunction,Legend,Top*
G04 #@! TF.FilePolarity,Positive*
%FSLAX46Y46*%
G04 Gerber Fmt 4.6, Leading zero omitted, Abs format (unit mm)*
G04 Created by KiCad (PCBNEW (5.1.5)-3) date 2020-01-27 20:13:38*
%MOMM*%
%LPD*%
G04 APERTURE LIST*
%ADD10C,0.125000*%
%ADD11C,0.120000*%
%ADD12C,0.187500*%
%ADD13C,0.250000*%
%ADD14C,0.300000*%
%ADD15C,0.100000*%
%ADD16C,0.150000*%
%ADD17C,0.101600*%
G04 APERTURE END LIST*
D10*
X62116666Y-66926190D02*
X61950000Y-66688095D01*
X61830952Y-66926190D02*
X61830952Y-66426190D01*
X62021428Y-66426190D01*
X62069047Y-66450000D01*
X62092857Y-66473809D01*
X62116666Y-66521428D01*
X62116666Y-66592857D01*
X62092857Y-66640476D01*
X62069047Y-66664285D01*
X62021428Y-66688095D01*
X61830952Y-66688095D01*
X62283333Y-66426190D02*
X62616666Y-66926190D01*
X62616666Y-66426190D02*
X62283333Y-66926190D01*
X56719047Y-66426190D02*
X57004761Y-66426190D01*
X56861904Y-66926190D02*
X56861904Y-66426190D01*
X57123809Y-66426190D02*
X57457142Y-66926190D01*
X57457142Y-66426190D02*
X57123809Y-66926190D01*
X40019047Y-85935714D02*
X40400000Y-85935714D01*
X40209523Y-86126190D02*
X40209523Y-85745238D01*
X40590476Y-85626190D02*
X40900000Y-85626190D01*
X40733333Y-85816666D01*
X40804761Y-85816666D01*
X40852380Y-85840476D01*
X40876190Y-85864285D01*
X40900000Y-85911904D01*
X40900000Y-86030952D01*
X40876190Y-86078571D01*
X40852380Y-86102380D01*
X40804761Y-86126190D01*
X40661904Y-86126190D01*
X40614285Y-86102380D01*
X40590476Y-86078571D01*
X41042857Y-85626190D02*
X41209523Y-86126190D01*
X41376190Y-85626190D01*
X41495238Y-85626190D02*
X41804761Y-85626190D01*
X41638095Y-85816666D01*
X41709523Y-85816666D01*
X41757142Y-85840476D01*
X41780952Y-85864285D01*
X41804761Y-85911904D01*
X41804761Y-86030952D01*
X41780952Y-86078571D01*
X41757142Y-86102380D01*
X41709523Y-86126190D01*
X41566666Y-86126190D01*
X41519047Y-86102380D01*
X41495238Y-86078571D01*
D11*
X48300000Y-63900000D02*
X48500000Y-63700000D01*
X48100000Y-63700000D02*
X48300000Y-63900000D01*
X48300000Y-63400000D02*
X48300000Y-63900000D01*
X53800000Y-66000000D02*
X54100000Y-66200000D01*
X53800000Y-66000000D02*
X54100000Y-65800000D01*
X55300000Y-66000000D02*
X53800000Y-66000000D01*
X55300000Y-65400000D02*
X55300000Y-66000000D01*
D10*
X46504761Y-62626190D02*
X46600000Y-62626190D01*
X46647619Y-62650000D01*
X46695238Y-62697619D01*
X46719047Y-62792857D01*
X46719047Y-62959523D01*
X46695238Y-63054761D01*
X46647619Y-63102380D01*
X46600000Y-63126190D01*
X46504761Y-63126190D01*
X46457142Y-63102380D01*
X46409523Y-63054761D01*
X46385714Y-62959523D01*
X46385714Y-62792857D01*
X46409523Y-62697619D01*
X46457142Y-62650000D01*
X46504761Y-62626190D01*
X47004761Y-63126190D02*
X46957142Y-63102380D01*
X46933333Y-63054761D01*
X46933333Y-62626190D01*
X47409523Y-63126190D02*
X47409523Y-62626190D01*
X47409523Y-63102380D02*
X47361904Y-63126190D01*
X47266666Y-63126190D01*
X47219047Y-63102380D01*
X47195238Y-63078571D01*
X47171428Y-63030952D01*
X47171428Y-62888095D01*
X47195238Y-62840476D01*
X47219047Y-62816666D01*
X47266666Y-62792857D01*
X47361904Y-62792857D01*
X47409523Y-62816666D01*
X48028571Y-62864285D02*
X48195238Y-62864285D01*
X48266666Y-63126190D02*
X48028571Y-63126190D01*
X48028571Y-62626190D01*
X48266666Y-62626190D01*
X48480952Y-62864285D02*
X48647619Y-62864285D01*
X48719047Y-63126190D02*
X48480952Y-63126190D01*
X48480952Y-62626190D01*
X48719047Y-62626190D01*
X48933333Y-63126190D02*
X48933333Y-62626190D01*
X49123809Y-62626190D01*
X49171428Y-62650000D01*
X49195238Y-62673809D01*
X49219047Y-62721428D01*
X49219047Y-62792857D01*
X49195238Y-62840476D01*
X49171428Y-62864285D01*
X49123809Y-62888095D01*
X48933333Y-62888095D01*
X49719047Y-63126190D02*
X49552380Y-62888095D01*
X49433333Y-63126190D02*
X49433333Y-62626190D01*
X49623809Y-62626190D01*
X49671428Y-62650000D01*
X49695238Y-62673809D01*
X49719047Y-62721428D01*
X49719047Y-62792857D01*
X49695238Y-62840476D01*
X49671428Y-62864285D01*
X49623809Y-62888095D01*
X49433333Y-62888095D01*
X50028571Y-62626190D02*
X50123809Y-62626190D01*
X50171428Y-62650000D01*
X50219047Y-62697619D01*
X50242857Y-62792857D01*
X50242857Y-62959523D01*
X50219047Y-63054761D01*
X50171428Y-63102380D01*
X50123809Y-63126190D01*
X50028571Y-63126190D01*
X49980952Y-63102380D01*
X49933333Y-63054761D01*
X49909523Y-62959523D01*
X49909523Y-62792857D01*
X49933333Y-62697619D01*
X49980952Y-62650000D01*
X50028571Y-62626190D01*
X50457142Y-63126190D02*
X50457142Y-62626190D01*
X50623809Y-62983333D01*
X50790476Y-62626190D01*
X50790476Y-63126190D01*
X53690476Y-65126190D02*
X53690476Y-64626190D01*
X53976190Y-65126190D01*
X53976190Y-64626190D01*
X54404761Y-65102380D02*
X54357142Y-65126190D01*
X54261904Y-65126190D01*
X54214285Y-65102380D01*
X54190476Y-65054761D01*
X54190476Y-64864285D01*
X54214285Y-64816666D01*
X54261904Y-64792857D01*
X54357142Y-64792857D01*
X54404761Y-64816666D01*
X54428571Y-64864285D01*
X54428571Y-64911904D01*
X54190476Y-64959523D01*
X54595238Y-64792857D02*
X54690476Y-65126190D01*
X54785714Y-64888095D01*
X54880952Y-65126190D01*
X54976190Y-64792857D01*
X55547619Y-64864285D02*
X55714285Y-64864285D01*
X55785714Y-65126190D02*
X55547619Y-65126190D01*
X55547619Y-64626190D01*
X55785714Y-64626190D01*
X56000000Y-64864285D02*
X56166666Y-64864285D01*
X56238095Y-65126190D02*
X56000000Y-65126190D01*
X56000000Y-64626190D01*
X56238095Y-64626190D01*
X56452380Y-65126190D02*
X56452380Y-64626190D01*
X56642857Y-64626190D01*
X56690476Y-64650000D01*
X56714285Y-64673809D01*
X56738095Y-64721428D01*
X56738095Y-64792857D01*
X56714285Y-64840476D01*
X56690476Y-64864285D01*
X56642857Y-64888095D01*
X56452380Y-64888095D01*
X57238095Y-65126190D02*
X57071428Y-64888095D01*
X56952380Y-65126190D02*
X56952380Y-64626190D01*
X57142857Y-64626190D01*
X57190476Y-64650000D01*
X57214285Y-64673809D01*
X57238095Y-64721428D01*
X57238095Y-64792857D01*
X57214285Y-64840476D01*
X57190476Y-64864285D01*
X57142857Y-64888095D01*
X56952380Y-64888095D01*
X57547619Y-64626190D02*
X57642857Y-64626190D01*
X57690476Y-64650000D01*
X57738095Y-64697619D01*
X57761904Y-64792857D01*
X57761904Y-64959523D01*
X57738095Y-65054761D01*
X57690476Y-65102380D01*
X57642857Y-65126190D01*
X57547619Y-65126190D01*
X57500000Y-65102380D01*
X57452380Y-65054761D01*
X57428571Y-64959523D01*
X57428571Y-64792857D01*
X57452380Y-64697619D01*
X57500000Y-64650000D01*
X57547619Y-64626190D01*
X57976190Y-65126190D02*
X57976190Y-64626190D01*
X58142857Y-64983333D01*
X58309523Y-64626190D01*
X58309523Y-65126190D01*
D12*
X30110714Y-60439285D02*
X30110714Y-59689285D01*
X30360714Y-60225000D01*
X30610714Y-59689285D01*
X30610714Y-60439285D01*
X31289285Y-60439285D02*
X31289285Y-60046428D01*
X31253571Y-59975000D01*
X31182142Y-59939285D01*
X31039285Y-59939285D01*
X30967857Y-59975000D01*
X31289285Y-60403571D02*
X31217857Y-60439285D01*
X31039285Y-60439285D01*
X30967857Y-60403571D01*
X30932142Y-60332142D01*
X30932142Y-60260714D01*
X30967857Y-60189285D01*
X31039285Y-60153571D01*
X31217857Y-60153571D01*
X31289285Y-60117857D01*
X31646428Y-60439285D02*
X31646428Y-59939285D01*
X31646428Y-60082142D02*
X31682142Y-60010714D01*
X31717857Y-59975000D01*
X31789285Y-59939285D01*
X31860714Y-59939285D01*
X32110714Y-60439285D02*
X32110714Y-59689285D01*
X32182142Y-60153571D02*
X32396428Y-60439285D01*
X32396428Y-59939285D02*
X32110714Y-60225000D01*
X33539285Y-60046428D02*
X33646428Y-60082142D01*
X33682142Y-60117857D01*
X33717857Y-60189285D01*
X33717857Y-60296428D01*
X33682142Y-60367857D01*
X33646428Y-60403571D01*
X33575000Y-60439285D01*
X33289285Y-60439285D01*
X33289285Y-59689285D01*
X33539285Y-59689285D01*
X33610714Y-59725000D01*
X33646428Y-59760714D01*
X33682142Y-59832142D01*
X33682142Y-59903571D01*
X33646428Y-59975000D01*
X33610714Y-60010714D01*
X33539285Y-60046428D01*
X33289285Y-60046428D01*
X34325000Y-60403571D02*
X34253571Y-60439285D01*
X34110714Y-60439285D01*
X34039285Y-60403571D01*
X34003571Y-60332142D01*
X34003571Y-60046428D01*
X34039285Y-59975000D01*
X34110714Y-59939285D01*
X34253571Y-59939285D01*
X34325000Y-59975000D01*
X34360714Y-60046428D01*
X34360714Y-60117857D01*
X34003571Y-60189285D01*
X34789285Y-60439285D02*
X34717857Y-60403571D01*
X34682142Y-60332142D01*
X34682142Y-59689285D01*
X35075000Y-60439285D02*
X35075000Y-59689285D01*
X35075000Y-59975000D02*
X35146428Y-59939285D01*
X35289285Y-59939285D01*
X35360714Y-59975000D01*
X35396428Y-60010714D01*
X35432142Y-60082142D01*
X35432142Y-60296428D01*
X35396428Y-60367857D01*
X35360714Y-60403571D01*
X35289285Y-60439285D01*
X35146428Y-60439285D01*
X35075000Y-60403571D01*
X35753571Y-60439285D02*
X35753571Y-59939285D01*
X35753571Y-59689285D02*
X35717857Y-59725000D01*
X35753571Y-59760714D01*
X35789285Y-59725000D01*
X35753571Y-59689285D01*
X35753571Y-59760714D01*
X36110714Y-59939285D02*
X36110714Y-60439285D01*
X36110714Y-60010714D02*
X36146428Y-59975000D01*
X36217857Y-59939285D01*
X36325000Y-59939285D01*
X36396428Y-59975000D01*
X36432142Y-60046428D01*
X36432142Y-60439285D01*
X37360714Y-60153571D02*
X37932142Y-60153571D01*
X38289285Y-60153571D02*
X38860714Y-60153571D01*
X39753571Y-59760714D02*
X39789285Y-59725000D01*
X39860714Y-59689285D01*
X40039285Y-59689285D01*
X40110714Y-59725000D01*
X40146428Y-59760714D01*
X40182142Y-59832142D01*
X40182142Y-59903571D01*
X40146428Y-60010714D01*
X39717857Y-60439285D01*
X40182142Y-60439285D01*
X40646428Y-59689285D02*
X40717857Y-59689285D01*
X40789285Y-59725000D01*
X40825000Y-59760714D01*
X40860714Y-59832142D01*
X40896428Y-59975000D01*
X40896428Y-60153571D01*
X40860714Y-60296428D01*
X40825000Y-60367857D01*
X40789285Y-60403571D01*
X40717857Y-60439285D01*
X40646428Y-60439285D01*
X40575000Y-60403571D01*
X40539285Y-60367857D01*
X40503571Y-60296428D01*
X40467857Y-60153571D01*
X40467857Y-59975000D01*
X40503571Y-59832142D01*
X40539285Y-59760714D01*
X40575000Y-59725000D01*
X40646428Y-59689285D01*
X41182142Y-59760714D02*
X41217857Y-59725000D01*
X41289285Y-59689285D01*
X41467857Y-59689285D01*
X41539285Y-59725000D01*
X41575000Y-59760714D01*
X41610714Y-59832142D01*
X41610714Y-59903571D01*
X41575000Y-60010714D01*
X41146428Y-60439285D01*
X41610714Y-60439285D01*
X42075000Y-59689285D02*
X42146428Y-59689285D01*
X42217857Y-59725000D01*
X42253571Y-59760714D01*
X42289285Y-59832142D01*
X42325000Y-59975000D01*
X42325000Y-60153571D01*
X42289285Y-60296428D01*
X42253571Y-60367857D01*
X42217857Y-60403571D01*
X42146428Y-60439285D01*
X42075000Y-60439285D01*
X42003571Y-60403571D01*
X41967857Y-60367857D01*
X41932142Y-60296428D01*
X41896428Y-60153571D01*
X41896428Y-59975000D01*
X41932142Y-59832142D01*
X41967857Y-59760714D01*
X42003571Y-59725000D01*
X42075000Y-59689285D01*
D13*
X29133333Y-94228571D02*
X28800000Y-94228571D01*
X28800000Y-94752380D02*
X28800000Y-93752380D01*
X29276190Y-93752380D01*
X29800000Y-94752380D02*
X29704761Y-94704761D01*
X29657142Y-94657142D01*
X29609523Y-94561904D01*
X29609523Y-94276190D01*
X29657142Y-94180952D01*
X29704761Y-94133333D01*
X29800000Y-94085714D01*
X29942857Y-94085714D01*
X30038095Y-94133333D01*
X30085714Y-94180952D01*
X30133333Y-94276190D01*
X30133333Y-94561904D01*
X30085714Y-94657142D01*
X30038095Y-94704761D01*
X29942857Y-94752380D01*
X29800000Y-94752380D01*
X30561904Y-94752380D02*
X30561904Y-94085714D01*
X30561904Y-94276190D02*
X30609523Y-94180952D01*
X30657142Y-94133333D01*
X30752380Y-94085714D01*
X30847619Y-94085714D01*
X31800000Y-93752380D02*
X32371428Y-93752380D01*
X32085714Y-94752380D02*
X32085714Y-93752380D01*
X32704761Y-94752380D02*
X32704761Y-93752380D01*
X33800000Y-93752380D02*
X34371428Y-93752380D01*
X34085714Y-94752380D02*
X34085714Y-93752380D01*
X34704761Y-94752380D02*
X34704761Y-93752380D01*
X35038095Y-94466666D01*
X35371428Y-93752380D01*
X35371428Y-94752380D01*
X35800000Y-94704761D02*
X35942857Y-94752380D01*
X36180952Y-94752380D01*
X36276190Y-94704761D01*
X36323809Y-94657142D01*
X36371428Y-94561904D01*
X36371428Y-94466666D01*
X36323809Y-94371428D01*
X36276190Y-94323809D01*
X36180952Y-94276190D01*
X35990476Y-94228571D01*
X35895238Y-94180952D01*
X35847619Y-94133333D01*
X35800000Y-94038095D01*
X35800000Y-93942857D01*
X35847619Y-93847619D01*
X35895238Y-93800000D01*
X35990476Y-93752380D01*
X36228571Y-93752380D01*
X36371428Y-93800000D01*
X36704761Y-93752380D02*
X37323809Y-93752380D01*
X36990476Y-94133333D01*
X37133333Y-94133333D01*
X37228571Y-94180952D01*
X37276190Y-94228571D01*
X37323809Y-94323809D01*
X37323809Y-94561904D01*
X37276190Y-94657142D01*
X37228571Y-94704761D01*
X37133333Y-94752380D01*
X36847619Y-94752380D01*
X36752380Y-94704761D01*
X36704761Y-94657142D01*
X37704761Y-93847619D02*
X37752380Y-93800000D01*
X37847619Y-93752380D01*
X38085714Y-93752380D01*
X38180952Y-93800000D01*
X38228571Y-93847619D01*
X38276190Y-93942857D01*
X38276190Y-94038095D01*
X38228571Y-94180952D01*
X37657142Y-94752380D01*
X38276190Y-94752380D01*
X38895238Y-93752380D02*
X38990476Y-93752380D01*
X39085714Y-93800000D01*
X39133333Y-93847619D01*
X39180952Y-93942857D01*
X39228571Y-94133333D01*
X39228571Y-94371428D01*
X39180952Y-94561904D01*
X39133333Y-94657142D01*
X39085714Y-94704761D01*
X38990476Y-94752380D01*
X38895238Y-94752380D01*
X38800000Y-94704761D01*
X38752380Y-94657142D01*
X38704761Y-94561904D01*
X38657142Y-94371428D01*
X38657142Y-94133333D01*
X38704761Y-93942857D01*
X38752380Y-93847619D01*
X38800000Y-93800000D01*
X38895238Y-93752380D01*
X39990476Y-94228571D02*
X39657142Y-94228571D01*
X39657142Y-94752380D02*
X39657142Y-93752380D01*
X40133333Y-93752380D01*
X41276190Y-94752380D02*
X41276190Y-93752380D01*
X41609523Y-94466666D01*
X41942857Y-93752380D01*
X41942857Y-94752380D01*
X42990476Y-94657142D02*
X42942857Y-94704761D01*
X42800000Y-94752380D01*
X42704761Y-94752380D01*
X42561904Y-94704761D01*
X42466666Y-94609523D01*
X42419047Y-94514285D01*
X42371428Y-94323809D01*
X42371428Y-94180952D01*
X42419047Y-93990476D01*
X42466666Y-93895238D01*
X42561904Y-93800000D01*
X42704761Y-93752380D01*
X42800000Y-93752380D01*
X42942857Y-93800000D01*
X42990476Y-93847619D01*
X43419047Y-93752380D02*
X43419047Y-94561904D01*
X43466666Y-94657142D01*
X43514285Y-94704761D01*
X43609523Y-94752380D01*
X43800000Y-94752380D01*
X43895238Y-94704761D01*
X43942857Y-94657142D01*
X43990476Y-94561904D01*
X43990476Y-93752380D01*
X44419047Y-94704761D02*
X44514285Y-94752380D01*
X44704761Y-94752380D01*
X44799999Y-94704761D01*
X44847619Y-94609523D01*
X44847619Y-94561904D01*
X44799999Y-94466666D01*
X44704761Y-94419047D01*
X44561904Y-94419047D01*
X44466666Y-94371428D01*
X44419047Y-94276190D01*
X44419047Y-94228571D01*
X44466666Y-94133333D01*
X44561904Y-94085714D01*
X44704761Y-94085714D01*
X44799999Y-94133333D01*
D14*
X29142857Y-91278571D02*
X30142857Y-92778571D01*
X30142857Y-91278571D02*
X29142857Y-92778571D01*
X30714285Y-92778571D02*
X30714285Y-91278571D01*
X31071428Y-91278571D01*
X31285714Y-91350000D01*
X31428571Y-91492857D01*
X31499999Y-91635714D01*
X31571428Y-91921428D01*
X31571428Y-92135714D01*
X31499999Y-92421428D01*
X31428571Y-92564285D01*
X31285714Y-92707142D01*
X31071428Y-92778571D01*
X30714285Y-92778571D01*
X32142857Y-92707142D02*
X32357142Y-92778571D01*
X32714285Y-92778571D01*
X32857142Y-92707142D01*
X32928571Y-92635714D01*
X32999999Y-92492857D01*
X32999999Y-92350000D01*
X32928571Y-92207142D01*
X32857142Y-92135714D01*
X32714285Y-92064285D01*
X32428571Y-91992857D01*
X32285714Y-91921428D01*
X32214285Y-91850000D01*
X32142857Y-91707142D01*
X32142857Y-91564285D01*
X32214285Y-91421428D01*
X32285714Y-91350000D01*
X32428571Y-91278571D01*
X32785714Y-91278571D01*
X32999999Y-91350000D01*
X34428571Y-92778571D02*
X33571428Y-92778571D01*
X34000000Y-92778571D02*
X34000000Y-91278571D01*
X33857142Y-91492857D01*
X33714285Y-91635714D01*
X33571428Y-91707142D01*
X35357142Y-91278571D02*
X35499999Y-91278571D01*
X35642857Y-91350000D01*
X35714285Y-91421428D01*
X35785714Y-91564285D01*
X35857142Y-91850000D01*
X35857142Y-92207142D01*
X35785714Y-92492857D01*
X35714285Y-92635714D01*
X35642857Y-92707142D01*
X35499999Y-92778571D01*
X35357142Y-92778571D01*
X35214285Y-92707142D01*
X35142857Y-92635714D01*
X35071428Y-92492857D01*
X34999999Y-92207142D01*
X34999999Y-91850000D01*
X35071428Y-91564285D01*
X35142857Y-91421428D01*
X35214285Y-91350000D01*
X35357142Y-91278571D01*
X36785714Y-91278571D02*
X36928571Y-91278571D01*
X37071428Y-91350000D01*
X37142857Y-91421428D01*
X37214285Y-91564285D01*
X37285714Y-91850000D01*
X37285714Y-92207142D01*
X37214285Y-92492857D01*
X37142857Y-92635714D01*
X37071428Y-92707142D01*
X36928571Y-92778571D01*
X36785714Y-92778571D01*
X36642857Y-92707142D01*
X36571428Y-92635714D01*
X36499999Y-92492857D01*
X36428571Y-92207142D01*
X36428571Y-91850000D01*
X36499999Y-91564285D01*
X36571428Y-91421428D01*
X36642857Y-91350000D01*
X36785714Y-91278571D01*
X37785714Y-91778571D02*
X38142857Y-92778571D01*
X38500000Y-91778571D01*
X38999999Y-91421428D02*
X39071428Y-91350000D01*
X39214285Y-91278571D01*
X39571428Y-91278571D01*
X39714285Y-91350000D01*
X39785714Y-91421428D01*
X39857142Y-91564285D01*
X39857142Y-91707142D01*
X39785714Y-91921428D01*
X38928571Y-92778571D01*
X39857142Y-92778571D01*
X41642857Y-92778571D02*
X41642857Y-91278571D01*
X42214285Y-91278571D01*
X42357142Y-91350000D01*
X42428571Y-91421428D01*
X42499999Y-91564285D01*
X42499999Y-91778571D01*
X42428571Y-91921428D01*
X42357142Y-91992857D01*
X42214285Y-92064285D01*
X41642857Y-92064285D01*
X43142857Y-92778571D02*
X43142857Y-91778571D01*
X43142857Y-92064285D02*
X43214285Y-91921428D01*
X43285714Y-91850000D01*
X43428571Y-91778571D01*
X43571428Y-91778571D01*
X44285714Y-92778571D02*
X44142857Y-92707142D01*
X44071428Y-92635714D01*
X43999999Y-92492857D01*
X43999999Y-92064285D01*
X44071428Y-91921428D01*
X44142857Y-91850000D01*
X44285714Y-91778571D01*
X44499999Y-91778571D01*
X44642857Y-91850000D01*
X44714285Y-91921428D01*
X44785714Y-92064285D01*
X44785714Y-92492857D01*
X44714285Y-92635714D01*
X44642857Y-92707142D01*
X44499999Y-92778571D01*
X44285714Y-92778571D01*
X46071428Y-91778571D02*
X46071428Y-92992857D01*
X45999999Y-93135714D01*
X45928571Y-93207142D01*
X45785714Y-93278571D01*
X45571428Y-93278571D01*
X45428571Y-93207142D01*
X46071428Y-92707142D02*
X45928571Y-92778571D01*
X45642857Y-92778571D01*
X45499999Y-92707142D01*
X45428571Y-92635714D01*
X45357142Y-92492857D01*
X45357142Y-92064285D01*
X45428571Y-91921428D01*
X45499999Y-91850000D01*
X45642857Y-91778571D01*
X45928571Y-91778571D01*
X46071428Y-91850000D01*
X46785714Y-92778571D02*
X46785714Y-91778571D01*
X46785714Y-92064285D02*
X46857142Y-91921428D01*
X46928571Y-91850000D01*
X47071428Y-91778571D01*
X47214285Y-91778571D01*
X48357142Y-92778571D02*
X48357142Y-91992857D01*
X48285714Y-91850000D01*
X48142857Y-91778571D01*
X47857142Y-91778571D01*
X47714285Y-91850000D01*
X48357142Y-92707142D02*
X48214285Y-92778571D01*
X47857142Y-92778571D01*
X47714285Y-92707142D01*
X47642857Y-92564285D01*
X47642857Y-92421428D01*
X47714285Y-92278571D01*
X47857142Y-92207142D01*
X48214285Y-92207142D01*
X48357142Y-92135714D01*
X49071428Y-92778571D02*
X49071428Y-91778571D01*
X49071428Y-91921428D02*
X49142857Y-91850000D01*
X49285714Y-91778571D01*
X49500000Y-91778571D01*
X49642857Y-91850000D01*
X49714285Y-91992857D01*
X49714285Y-92778571D01*
X49714285Y-91992857D02*
X49785714Y-91850000D01*
X49928571Y-91778571D01*
X50142857Y-91778571D01*
X50285714Y-91850000D01*
X50357142Y-91992857D01*
X50357142Y-92778571D01*
X51071428Y-92778571D02*
X51071428Y-91778571D01*
X51071428Y-91921428D02*
X51142857Y-91850000D01*
X51285714Y-91778571D01*
X51500000Y-91778571D01*
X51642857Y-91850000D01*
X51714285Y-91992857D01*
X51714285Y-92778571D01*
X51714285Y-91992857D02*
X51785714Y-91850000D01*
X51928571Y-91778571D01*
X52142857Y-91778571D01*
X52285714Y-91850000D01*
X52357142Y-91992857D01*
X52357142Y-92778571D01*
X53642857Y-92707142D02*
X53500000Y-92778571D01*
X53214285Y-92778571D01*
X53071428Y-92707142D01*
X53000000Y-92564285D01*
X53000000Y-91992857D01*
X53071428Y-91850000D01*
X53214285Y-91778571D01*
X53500000Y-91778571D01*
X53642857Y-91850000D01*
X53714285Y-91992857D01*
X53714285Y-92135714D01*
X53000000Y-92278571D01*
X54357142Y-92778571D02*
X54357142Y-91778571D01*
X54357142Y-92064285D02*
X54428571Y-91921428D01*
X54500000Y-91850000D01*
X54642857Y-91778571D01*
X54785714Y-91778571D01*
D13*
X87242857Y-65928571D02*
X87385714Y-65976190D01*
X87433333Y-66023809D01*
X87480952Y-66119047D01*
X87480952Y-66261904D01*
X87433333Y-66357142D01*
X87385714Y-66404761D01*
X87290476Y-66452380D01*
X86909523Y-66452380D01*
X86909523Y-65452380D01*
X87242857Y-65452380D01*
X87338095Y-65500000D01*
X87385714Y-65547619D01*
X87433333Y-65642857D01*
X87433333Y-65738095D01*
X87385714Y-65833333D01*
X87338095Y-65880952D01*
X87242857Y-65928571D01*
X86909523Y-65928571D01*
X88100000Y-65452380D02*
X88290476Y-65452380D01*
X88385714Y-65500000D01*
X88480952Y-65595238D01*
X88528571Y-65785714D01*
X88528571Y-66119047D01*
X88480952Y-66309523D01*
X88385714Y-66404761D01*
X88290476Y-66452380D01*
X88100000Y-66452380D01*
X88004761Y-66404761D01*
X87909523Y-66309523D01*
X87861904Y-66119047D01*
X87861904Y-65785714D01*
X87909523Y-65595238D01*
X88004761Y-65500000D01*
X88100000Y-65452380D01*
X89147619Y-65452380D02*
X89338095Y-65452380D01*
X89433333Y-65500000D01*
X89528571Y-65595238D01*
X89576190Y-65785714D01*
X89576190Y-66119047D01*
X89528571Y-66309523D01*
X89433333Y-66404761D01*
X89338095Y-66452380D01*
X89147619Y-66452380D01*
X89052380Y-66404761D01*
X88957142Y-66309523D01*
X88909523Y-66119047D01*
X88909523Y-65785714D01*
X88957142Y-65595238D01*
X89052380Y-65500000D01*
X89147619Y-65452380D01*
X89861904Y-65452380D02*
X90433333Y-65452380D01*
X90147619Y-66452380D02*
X90147619Y-65452380D01*
X87104761Y-85652380D02*
X87104761Y-86461904D01*
X87152380Y-86557142D01*
X87200000Y-86604761D01*
X87295238Y-86652380D01*
X87485714Y-86652380D01*
X87580952Y-86604761D01*
X87628571Y-86557142D01*
X87676190Y-86461904D01*
X87676190Y-85652380D01*
X88104761Y-86366666D02*
X88580952Y-86366666D01*
X88009523Y-86652380D02*
X88342857Y-85652380D01*
X88676190Y-86652380D01*
X89580952Y-86652380D02*
X89247619Y-86176190D01*
X89009523Y-86652380D02*
X89009523Y-85652380D01*
X89390476Y-85652380D01*
X89485714Y-85700000D01*
X89533333Y-85747619D01*
X89580952Y-85842857D01*
X89580952Y-85985714D01*
X89533333Y-86080952D01*
X89485714Y-86128571D01*
X89390476Y-86176190D01*
X89009523Y-86176190D01*
X89866666Y-85652380D02*
X90438095Y-85652380D01*
X90152380Y-86652380D02*
X90152380Y-85652380D01*
X71585714Y-92252380D02*
X71585714Y-93061904D01*
X71633333Y-93157142D01*
X71680952Y-93204761D01*
X71776190Y-93252380D01*
X71966666Y-93252380D01*
X72061904Y-93204761D01*
X72109523Y-93157142D01*
X72157142Y-93061904D01*
X72157142Y-92252380D01*
X72585714Y-93204761D02*
X72728571Y-93252380D01*
X72966666Y-93252380D01*
X73061904Y-93204761D01*
X73109523Y-93157142D01*
X73157142Y-93061904D01*
X73157142Y-92966666D01*
X73109523Y-92871428D01*
X73061904Y-92823809D01*
X72966666Y-92776190D01*
X72776190Y-92728571D01*
X72680952Y-92680952D01*
X72633333Y-92633333D01*
X72585714Y-92538095D01*
X72585714Y-92442857D01*
X72633333Y-92347619D01*
X72680952Y-92300000D01*
X72776190Y-92252380D01*
X73014285Y-92252380D01*
X73157142Y-92300000D01*
X73919047Y-92728571D02*
X74061904Y-92776190D01*
X74109523Y-92823809D01*
X74157142Y-92919047D01*
X74157142Y-93061904D01*
X74109523Y-93157142D01*
X74061904Y-93204761D01*
X73966666Y-93252380D01*
X73585714Y-93252380D01*
X73585714Y-92252380D01*
X73919047Y-92252380D01*
X74014285Y-92300000D01*
X74061904Y-92347619D01*
X74109523Y-92442857D01*
X74109523Y-92538095D01*
X74061904Y-92633333D01*
X74014285Y-92680952D01*
X73919047Y-92728571D01*
X73585714Y-92728571D01*
X74347619Y-93347619D02*
X75109523Y-93347619D01*
X75347619Y-93252380D02*
X75347619Y-92252380D01*
X75728571Y-92252380D01*
X75823809Y-92300000D01*
X75871428Y-92347619D01*
X75919047Y-92442857D01*
X75919047Y-92585714D01*
X75871428Y-92680952D01*
X75823809Y-92728571D01*
X75728571Y-92776190D01*
X75347619Y-92776190D01*
X76252380Y-92252380D02*
X76490476Y-93252380D01*
X76680952Y-92538095D01*
X76871428Y-93252380D01*
X77109523Y-92252380D01*
X78061904Y-93252380D02*
X77728571Y-92776190D01*
X77490476Y-93252380D02*
X77490476Y-92252380D01*
X77871428Y-92252380D01*
X77966666Y-92300000D01*
X78014285Y-92347619D01*
X78061904Y-92442857D01*
X78061904Y-92585714D01*
X78014285Y-92680952D01*
X77966666Y-92728571D01*
X77871428Y-92776190D01*
X77490476Y-92776190D01*
D11*
X47300000Y-67800000D02*
X48300000Y-67800000D01*
X47300000Y-67500000D02*
X47300000Y-67800000D01*
X51000000Y-67900000D02*
X51800000Y-67900000D01*
X51000000Y-67100000D02*
X51000000Y-67900000D01*
D15*
X53300000Y-64600000D02*
X51300000Y-64600000D01*
X53300000Y-67600000D02*
X53300000Y-64600000D01*
X51300000Y-67600000D02*
X53300000Y-67600000D01*
X51300000Y-64600000D02*
X51300000Y-67600000D01*
D16*
X69700000Y-91750000D02*
X79700000Y-91750000D01*
X69700000Y-84250000D02*
X69700000Y-91750000D01*
X79700000Y-84250000D02*
X69700000Y-84250000D01*
X79700000Y-91750000D02*
X79700000Y-84250000D01*
X83600000Y-85050000D02*
X93600000Y-85050000D01*
X83600000Y-77550000D02*
X83600000Y-85050000D01*
X93600000Y-77550000D02*
X83600000Y-77550000D01*
X93600000Y-85050000D02*
X93600000Y-77550000D01*
X93500000Y-66900000D02*
X83500000Y-66900000D01*
X93500000Y-76900000D02*
X93500000Y-66900000D01*
X83500000Y-76900000D02*
X93500000Y-76900000D01*
X83500000Y-66900000D02*
X83500000Y-76900000D01*
D17*
X26278200Y-74089000D02*
X26278200Y-75075400D01*
X26278100Y-79124500D02*
X26278100Y-80110900D01*
X16881800Y-73258400D02*
X18385300Y-73258500D01*
X16881800Y-80941400D02*
X18385400Y-80941400D01*
X21217400Y-80941400D02*
X23526700Y-80941500D01*
X21657800Y-77722800D02*
X21657800Y-76476800D01*
X18231500Y-77930400D02*
X21657800Y-77722800D01*
X18231500Y-77930400D02*
G75*
G03X18023900Y-78138000I0J-207600D01*
G01*
X18023900Y-78138100D02*
G75*
G03X18231500Y-78345700I207600J0D01*
G01*
X22488400Y-77930400D02*
X22488400Y-76269300D01*
X22488401Y-77930399D02*
G75*
G02X22280800Y-78138100I-219701J11994D01*
G01*
X18231600Y-78345700D02*
X22280800Y-78138100D01*
X24357300Y-75075200D02*
X26226100Y-75075200D01*
X23370899Y-78864899D02*
G75*
G03X23630400Y-79124400I259801J300D01*
G01*
X23630500Y-79124400D02*
G75*
G03X23838100Y-78916800I100J207500D01*
G01*
X25862700Y-80110800D02*
X26226100Y-80110800D01*
X20982900Y-79851200D02*
X20982900Y-80058900D01*
X18594900Y-79591700D02*
X20982900Y-79851200D01*
X18594900Y-79072500D02*
X18594900Y-79591700D01*
X20982900Y-78813000D02*
X18594900Y-79072500D01*
X20982900Y-78605300D02*
X20982900Y-78813000D01*
X18231500Y-78864900D02*
X20982900Y-78605300D01*
X18231499Y-78864899D02*
G75*
G03X17972000Y-79072500I22331J-293900D01*
G01*
X17972000Y-79072500D02*
G75*
G03X17972000Y-79643600I931100J-285550D01*
G01*
X17972000Y-79643600D02*
G75*
G03X18231500Y-79851200I281830J86300D01*
G01*
X20982900Y-80058900D02*
X18231500Y-79851200D01*
X23319000Y-81149000D02*
X23319000Y-81304800D01*
X23319000Y-81149000D02*
G75*
G02X23526600Y-80941400I207600J0D01*
G01*
X18231500Y-76269400D02*
X21657800Y-76477000D01*
X18231500Y-76269400D02*
G75*
G02X18023900Y-76061800I0J207600D01*
G01*
X18023900Y-76061700D02*
X18023900Y-76061800D01*
X18023900Y-76061700D02*
G75*
G02X18231500Y-75854100I207600J0D01*
G01*
X22488402Y-76269400D02*
G75*
G03X22280800Y-76061700I-219601J-11895D01*
G01*
X18231600Y-75854100D02*
X22280800Y-76061700D01*
X24357300Y-79124600D02*
X26226100Y-79124600D01*
X23370899Y-75334901D02*
G75*
G02X23630400Y-75075400I259601J-100D01*
G01*
X23630500Y-75075400D02*
X23630400Y-75075400D01*
X23630500Y-75075400D02*
G75*
G02X23838100Y-75283000I100J-207500D01*
G01*
X23838100Y-78916900D02*
X23838100Y-75283000D01*
X23370900Y-75334900D02*
X23370900Y-78865000D01*
X25862700Y-74089000D02*
X26226100Y-74089000D01*
X20982900Y-74348600D02*
X20982900Y-74140900D01*
X18594900Y-74608100D02*
X20982900Y-74348600D01*
X18594900Y-75127300D02*
X18594900Y-74608100D01*
X20982900Y-75386800D02*
X18594900Y-75127300D01*
X20982900Y-75594500D02*
X20982900Y-75386800D01*
X18231500Y-75334900D02*
X20982900Y-75594500D01*
X18231499Y-75334901D02*
G75*
G02X17972000Y-75127300I22331J293900D01*
G01*
X17972000Y-75127300D02*
G75*
G02X17972000Y-74556200I931100J285550D01*
G01*
X17972000Y-74556200D02*
G75*
G02X18231500Y-74348600I281830J-86300D01*
G01*
X20982900Y-74140900D02*
X18231500Y-74348600D01*
X16881800Y-80941400D02*
X16881800Y-73258400D01*
X16881800Y-80941500D02*
X16881800Y-80941400D01*
X23319000Y-73050800D02*
X23319000Y-72895000D01*
X23319000Y-73050800D02*
G75*
G03X23526600Y-73258400I207600J0D01*
G01*
X21217500Y-73258400D02*
X23526600Y-73258400D01*
D11*
X104200000Y-83460000D02*
X102870000Y-83460000D01*
X104200000Y-82130000D02*
X104200000Y-83460000D01*
X101600000Y-83460000D02*
X99000000Y-83460000D01*
X101600000Y-80860000D02*
X101600000Y-83460000D01*
X104200000Y-80860000D02*
X101600000Y-80860000D01*
X99000000Y-83460000D02*
X99000000Y-70640000D01*
X104200000Y-80860000D02*
X104200000Y-70640000D01*
X104200000Y-70640000D02*
X99000000Y-70640000D01*
D16*
X96600000Y-77050000D02*
X96600000Y-87550000D01*
X96600000Y-87550000D02*
X106600000Y-87550000D01*
X106600000Y-87550000D02*
X106600000Y-66550000D01*
X106600000Y-66550000D02*
X96600000Y-66550000D01*
X96600000Y-66550000D02*
X96600000Y-77050000D01*
X106600000Y-79550000D02*
X105600000Y-79550000D01*
X105600000Y-79550000D02*
X105600000Y-74550000D01*
X105600000Y-74550000D02*
X106600000Y-74550000D01*
D11*
X46150000Y-74300000D02*
X46150000Y-73300000D01*
X44450000Y-73300000D02*
X44450000Y-74300000D01*
X44450000Y-78100000D02*
X44450000Y-79100000D01*
X46150000Y-79100000D02*
X46150000Y-78100000D01*
X31500000Y-72250000D02*
X30500000Y-72250000D01*
X30500000Y-73950000D02*
X31500000Y-73950000D01*
X33000000Y-81250000D02*
X33000000Y-84950000D01*
X33000000Y-84950000D02*
X40100000Y-84950000D01*
X33000000Y-81250000D02*
X40100000Y-81250000D01*
X58850000Y-75300000D02*
X58850000Y-74300000D01*
X57150000Y-74300000D02*
X57150000Y-75300000D01*
X63250000Y-79700000D02*
X63250000Y-80700000D01*
X64950000Y-80700000D02*
X64950000Y-79700000D01*
X63050000Y-80700000D02*
X63050000Y-79700000D01*
X61350000Y-79700000D02*
X61350000Y-80700000D01*
X61150000Y-80700000D02*
X61150000Y-79700000D01*
X59450000Y-79700000D02*
X59450000Y-80700000D01*
X59250000Y-80700000D02*
X59250000Y-79700000D01*
X57550000Y-79700000D02*
X57550000Y-80700000D01*
X45500000Y-63810000D02*
X44500000Y-63810000D01*
X44500000Y-65510000D02*
X45500000Y-65510000D01*
X52240000Y-64430000D02*
X53240000Y-64430000D01*
X53240000Y-62730000D02*
X52240000Y-62730000D01*
X41950000Y-65500000D02*
X41250000Y-65500000D01*
X41250000Y-64300000D02*
X41950000Y-64300000D01*
X34950000Y-65500000D02*
X34250000Y-65500000D01*
X34250000Y-64300000D02*
X34950000Y-64300000D01*
X40000000Y-87800000D02*
X37200000Y-87800000D01*
X40000000Y-86400000D02*
X37200000Y-86400000D01*
X40000000Y-87800000D02*
X40000000Y-86400000D01*
X59800000Y-69600000D02*
X61200000Y-69600000D01*
X61200000Y-69600000D02*
X61200000Y-66800000D01*
X59800000Y-69600000D02*
X59800000Y-66800000D01*
X57900000Y-69600000D02*
X57900000Y-66800000D01*
X59300000Y-69600000D02*
X59300000Y-66800000D01*
X57900000Y-69600000D02*
X59300000Y-69600000D01*
D16*
X32850000Y-77100000D02*
X32850000Y-79600000D01*
X29350000Y-79600000D02*
X29350000Y-74600000D01*
X32850000Y-74600000D02*
X32850000Y-77100000D01*
D11*
X43650000Y-76970000D02*
X43150000Y-76970000D01*
X43150000Y-78030000D02*
X43650000Y-78030000D01*
X43150000Y-75430000D02*
X43650000Y-75430000D01*
X43650000Y-74370000D02*
X43150000Y-74370000D01*
X33850000Y-86220000D02*
X35050000Y-86220000D01*
X35050000Y-87980000D02*
X33850000Y-87980000D01*
X46180000Y-81800000D02*
X46180000Y-83000000D01*
X44420000Y-83000000D02*
X44420000Y-81800000D01*
X56050000Y-82620000D02*
X57250000Y-82620000D01*
X57250000Y-84380000D02*
X56050000Y-84380000D01*
X42520000Y-73200000D02*
X42520000Y-72000000D01*
X44280000Y-72000000D02*
X44280000Y-73200000D01*
X54850000Y-69920000D02*
X56050000Y-69920000D01*
X56050000Y-71680000D02*
X54850000Y-71680000D01*
X56050000Y-69780000D02*
X54850000Y-69780000D01*
X54850000Y-68020000D02*
X56050000Y-68020000D01*
D16*
X70825000Y-73350000D02*
X69300000Y-73350000D01*
X70825000Y-83725000D02*
X78575000Y-83725000D01*
X70825000Y-73075000D02*
X78575000Y-73075000D01*
X70825000Y-83725000D02*
X70825000Y-83370000D01*
X78575000Y-83725000D02*
X78575000Y-83370000D01*
X78575000Y-73075000D02*
X78575000Y-73430000D01*
X70825000Y-73075000D02*
X70825000Y-73350000D01*
D11*
X47290000Y-65100000D02*
X47290000Y-67550000D01*
X50510000Y-66900000D02*
X50510000Y-65100000D01*
D16*
X56500000Y-72300000D02*
X55925000Y-72300000D01*
X56500000Y-81700000D02*
X55925000Y-81700000D01*
X47100000Y-81700000D02*
X47675000Y-81700000D01*
X47100000Y-72300000D02*
X47675000Y-72300000D01*
X56500000Y-81700000D02*
X56500000Y-81125000D01*
X47100000Y-81700000D02*
X47100000Y-81125000D01*
X56500000Y-72300000D02*
X56500000Y-72875000D01*
X78575000Y-72425000D02*
X78575000Y-72150000D01*
X70825000Y-72425000D02*
X70825000Y-72070000D01*
X70825000Y-61775000D02*
X70825000Y-62130000D01*
X78575000Y-61775000D02*
X78575000Y-62130000D01*
X78575000Y-72425000D02*
X70825000Y-72425000D01*
X78575000Y-61775000D02*
X70825000Y-61775000D01*
X78575000Y-72150000D02*
X80100000Y-72150000D01*
D11*
X44800000Y-65750000D02*
X32200000Y-65750000D01*
X44800000Y-70850000D02*
X44800000Y-65750000D01*
X32200000Y-70850000D02*
X44800000Y-70850000D01*
X51100000Y-70180000D02*
X50100000Y-70180000D01*
X50100000Y-68820000D02*
X51100000Y-68820000D01*
X51100000Y-71680000D02*
X50100000Y-71680000D01*
X50100000Y-70320000D02*
X51100000Y-70320000D01*
X39910000Y-72500000D02*
X39910000Y-78510000D01*
X33090000Y-74750000D02*
X33090000Y-78510000D01*
X39910000Y-78510000D02*
X38650000Y-78510000D01*
X33090000Y-78510000D02*
X34350000Y-78510000D01*
D10*
X51819047Y-68126190D02*
X51819047Y-68530952D01*
X51842857Y-68578571D01*
X51866666Y-68602380D01*
X51914285Y-68626190D01*
X52009523Y-68626190D01*
X52057142Y-68602380D01*
X52080952Y-68578571D01*
X52104761Y-68530952D01*
X52104761Y-68126190D01*
X52557142Y-68126190D02*
X52461904Y-68126190D01*
X52414285Y-68150000D01*
X52390476Y-68173809D01*
X52342857Y-68245238D01*
X52319047Y-68340476D01*
X52319047Y-68530952D01*
X52342857Y-68578571D01*
X52366666Y-68602380D01*
X52414285Y-68626190D01*
X52509523Y-68626190D01*
X52557142Y-68602380D01*
X52580952Y-68578571D01*
X52604761Y-68530952D01*
X52604761Y-68411904D01*
X52580952Y-68364285D01*
X52557142Y-68340476D01*
X52509523Y-68316666D01*
X52414285Y-68316666D01*
X52366666Y-68340476D01*
X52342857Y-68364285D01*
X52319047Y-68411904D01*
X80233333Y-85002380D02*
X80304761Y-85026190D01*
X80423809Y-85026190D01*
X80471428Y-85002380D01*
X80495238Y-84978571D01*
X80519047Y-84930952D01*
X80519047Y-84883333D01*
X80495238Y-84835714D01*
X80471428Y-84811904D01*
X80423809Y-84788095D01*
X80328571Y-84764285D01*
X80280952Y-84740476D01*
X80257142Y-84716666D01*
X80233333Y-84669047D01*
X80233333Y-84621428D01*
X80257142Y-84573809D01*
X80280952Y-84550000D01*
X80328571Y-84526190D01*
X80447619Y-84526190D01*
X80519047Y-84550000D01*
X80685714Y-84526190D02*
X80804761Y-85026190D01*
X80900000Y-84669047D01*
X80995238Y-85026190D01*
X81114285Y-84526190D01*
X81566666Y-85026190D02*
X81280952Y-85026190D01*
X81423809Y-85026190D02*
X81423809Y-84526190D01*
X81376190Y-84597619D01*
X81328571Y-84645238D01*
X81280952Y-84669047D01*
X93933333Y-78202380D02*
X94004761Y-78226190D01*
X94123809Y-78226190D01*
X94171428Y-78202380D01*
X94195238Y-78178571D01*
X94219047Y-78130952D01*
X94219047Y-78083333D01*
X94195238Y-78035714D01*
X94171428Y-78011904D01*
X94123809Y-77988095D01*
X94028571Y-77964285D01*
X93980952Y-77940476D01*
X93957142Y-77916666D01*
X93933333Y-77869047D01*
X93933333Y-77821428D01*
X93957142Y-77773809D01*
X93980952Y-77750000D01*
X94028571Y-77726190D01*
X94147619Y-77726190D01*
X94219047Y-77750000D01*
X94385714Y-77726190D02*
X94504761Y-78226190D01*
X94600000Y-77869047D01*
X94695238Y-78226190D01*
X94814285Y-77726190D01*
X94980952Y-77773809D02*
X95004761Y-77750000D01*
X95052380Y-77726190D01*
X95171428Y-77726190D01*
X95219047Y-77750000D01*
X95242857Y-77773809D01*
X95266666Y-77821428D01*
X95266666Y-77869047D01*
X95242857Y-77940476D01*
X94957142Y-78226190D01*
X95266666Y-78226190D01*
X93933333Y-67802380D02*
X94004761Y-67826190D01*
X94123809Y-67826190D01*
X94171428Y-67802380D01*
X94195238Y-67778571D01*
X94219047Y-67730952D01*
X94219047Y-67683333D01*
X94195238Y-67635714D01*
X94171428Y-67611904D01*
X94123809Y-67588095D01*
X94028571Y-67564285D01*
X93980952Y-67540476D01*
X93957142Y-67516666D01*
X93933333Y-67469047D01*
X93933333Y-67421428D01*
X93957142Y-67373809D01*
X93980952Y-67350000D01*
X94028571Y-67326190D01*
X94147619Y-67326190D01*
X94219047Y-67350000D01*
X94385714Y-67326190D02*
X94504761Y-67826190D01*
X94600000Y-67469047D01*
X94695238Y-67826190D01*
X94814285Y-67326190D01*
X94957142Y-67326190D02*
X95266666Y-67326190D01*
X95100000Y-67516666D01*
X95171428Y-67516666D01*
X95219047Y-67540476D01*
X95242857Y-67564285D01*
X95266666Y-67611904D01*
X95266666Y-67730952D01*
X95242857Y-67778571D01*
X95219047Y-67802380D01*
X95171428Y-67826190D01*
X95028571Y-67826190D01*
X94980952Y-67802380D01*
X94957142Y-67778571D01*
X96733333Y-87926190D02*
X96733333Y-88283333D01*
X96709523Y-88354761D01*
X96661904Y-88402380D01*
X96590476Y-88426190D01*
X96542857Y-88426190D01*
X96947619Y-87973809D02*
X96971428Y-87950000D01*
X97019047Y-87926190D01*
X97138095Y-87926190D01*
X97185714Y-87950000D01*
X97209523Y-87973809D01*
X97233333Y-88021428D01*
X97233333Y-88069047D01*
X97209523Y-88140476D01*
X96923809Y-88426190D01*
X97233333Y-88426190D01*
X45316666Y-76078571D02*
X45292857Y-76102380D01*
X45221428Y-76126190D01*
X45173809Y-76126190D01*
X45102380Y-76102380D01*
X45054761Y-76054761D01*
X45030952Y-76007142D01*
X45007142Y-75911904D01*
X45007142Y-75840476D01*
X45030952Y-75745238D01*
X45054761Y-75697619D01*
X45102380Y-75650000D01*
X45173809Y-75626190D01*
X45221428Y-75626190D01*
X45292857Y-75650000D01*
X45316666Y-75673809D01*
X45792857Y-76126190D02*
X45507142Y-76126190D01*
X45650000Y-76126190D02*
X45650000Y-75626190D01*
X45602380Y-75697619D01*
X45554761Y-75745238D01*
X45507142Y-75769047D01*
X43616666Y-78878571D02*
X43592857Y-78902380D01*
X43521428Y-78926190D01*
X43473809Y-78926190D01*
X43402380Y-78902380D01*
X43354761Y-78854761D01*
X43330952Y-78807142D01*
X43307142Y-78711904D01*
X43307142Y-78640476D01*
X43330952Y-78545238D01*
X43354761Y-78497619D01*
X43402380Y-78450000D01*
X43473809Y-78426190D01*
X43521428Y-78426190D01*
X43592857Y-78450000D01*
X43616666Y-78473809D01*
X43807142Y-78473809D02*
X43830952Y-78450000D01*
X43878571Y-78426190D01*
X43997619Y-78426190D01*
X44045238Y-78450000D01*
X44069047Y-78473809D01*
X44092857Y-78521428D01*
X44092857Y-78569047D01*
X44069047Y-78640476D01*
X43783333Y-78926190D01*
X44092857Y-78926190D01*
X29916666Y-71778571D02*
X29892857Y-71802380D01*
X29821428Y-71826190D01*
X29773809Y-71826190D01*
X29702380Y-71802380D01*
X29654761Y-71754761D01*
X29630952Y-71707142D01*
X29607142Y-71611904D01*
X29607142Y-71540476D01*
X29630952Y-71445238D01*
X29654761Y-71397619D01*
X29702380Y-71350000D01*
X29773809Y-71326190D01*
X29821428Y-71326190D01*
X29892857Y-71350000D01*
X29916666Y-71373809D01*
X30083333Y-71326190D02*
X30392857Y-71326190D01*
X30226190Y-71516666D01*
X30297619Y-71516666D01*
X30345238Y-71540476D01*
X30369047Y-71564285D01*
X30392857Y-71611904D01*
X30392857Y-71730952D01*
X30369047Y-71778571D01*
X30345238Y-71802380D01*
X30297619Y-71826190D01*
X30154761Y-71826190D01*
X30107142Y-71802380D01*
X30083333Y-71778571D01*
X32116666Y-83278571D02*
X32092857Y-83302380D01*
X32021428Y-83326190D01*
X31973809Y-83326190D01*
X31902380Y-83302380D01*
X31854761Y-83254761D01*
X31830952Y-83207142D01*
X31807142Y-83111904D01*
X31807142Y-83040476D01*
X31830952Y-82945238D01*
X31854761Y-82897619D01*
X31902380Y-82850000D01*
X31973809Y-82826190D01*
X32021428Y-82826190D01*
X32092857Y-82850000D01*
X32116666Y-82873809D01*
X32545238Y-82992857D02*
X32545238Y-83326190D01*
X32426190Y-82802380D02*
X32307142Y-83159523D01*
X32616666Y-83159523D01*
X59416666Y-74278571D02*
X59392857Y-74302380D01*
X59321428Y-74326190D01*
X59273809Y-74326190D01*
X59202380Y-74302380D01*
X59154761Y-74254761D01*
X59130952Y-74207142D01*
X59107142Y-74111904D01*
X59107142Y-74040476D01*
X59130952Y-73945238D01*
X59154761Y-73897619D01*
X59202380Y-73850000D01*
X59273809Y-73826190D01*
X59321428Y-73826190D01*
X59392857Y-73850000D01*
X59416666Y-73873809D01*
X59869047Y-73826190D02*
X59630952Y-73826190D01*
X59607142Y-74064285D01*
X59630952Y-74040476D01*
X59678571Y-74016666D01*
X59797619Y-74016666D01*
X59845238Y-74040476D01*
X59869047Y-74064285D01*
X59892857Y-74111904D01*
X59892857Y-74230952D01*
X59869047Y-74278571D01*
X59845238Y-74302380D01*
X59797619Y-74326190D01*
X59678571Y-74326190D01*
X59630952Y-74302380D01*
X59607142Y-74278571D01*
X64016666Y-78278571D02*
X63992857Y-78302380D01*
X63921428Y-78326190D01*
X63873809Y-78326190D01*
X63802380Y-78302380D01*
X63754761Y-78254761D01*
X63730952Y-78207142D01*
X63707142Y-78111904D01*
X63707142Y-78040476D01*
X63730952Y-77945238D01*
X63754761Y-77897619D01*
X63802380Y-77850000D01*
X63873809Y-77826190D01*
X63921428Y-77826190D01*
X63992857Y-77850000D01*
X64016666Y-77873809D01*
X64445238Y-77826190D02*
X64350000Y-77826190D01*
X64302380Y-77850000D01*
X64278571Y-77873809D01*
X64230952Y-77945238D01*
X64207142Y-78040476D01*
X64207142Y-78230952D01*
X64230952Y-78278571D01*
X64254761Y-78302380D01*
X64302380Y-78326190D01*
X64397619Y-78326190D01*
X64445238Y-78302380D01*
X64469047Y-78278571D01*
X64492857Y-78230952D01*
X64492857Y-78111904D01*
X64469047Y-78064285D01*
X64445238Y-78040476D01*
X64397619Y-78016666D01*
X64302380Y-78016666D01*
X64254761Y-78040476D01*
X64230952Y-78064285D01*
X64207142Y-78111904D01*
X62116666Y-78278571D02*
X62092857Y-78302380D01*
X62021428Y-78326190D01*
X61973809Y-78326190D01*
X61902380Y-78302380D01*
X61854761Y-78254761D01*
X61830952Y-78207142D01*
X61807142Y-78111904D01*
X61807142Y-78040476D01*
X61830952Y-77945238D01*
X61854761Y-77897619D01*
X61902380Y-77850000D01*
X61973809Y-77826190D01*
X62021428Y-77826190D01*
X62092857Y-77850000D01*
X62116666Y-77873809D01*
X62283333Y-77826190D02*
X62616666Y-77826190D01*
X62402380Y-78326190D01*
X60216666Y-78278571D02*
X60192857Y-78302380D01*
X60121428Y-78326190D01*
X60073809Y-78326190D01*
X60002380Y-78302380D01*
X59954761Y-78254761D01*
X59930952Y-78207142D01*
X59907142Y-78111904D01*
X59907142Y-78040476D01*
X59930952Y-77945238D01*
X59954761Y-77897619D01*
X60002380Y-77850000D01*
X60073809Y-77826190D01*
X60121428Y-77826190D01*
X60192857Y-77850000D01*
X60216666Y-77873809D01*
X60502380Y-78040476D02*
X60454761Y-78016666D01*
X60430952Y-77992857D01*
X60407142Y-77945238D01*
X60407142Y-77921428D01*
X60430952Y-77873809D01*
X60454761Y-77850000D01*
X60502380Y-77826190D01*
X60597619Y-77826190D01*
X60645238Y-77850000D01*
X60669047Y-77873809D01*
X60692857Y-77921428D01*
X60692857Y-77945238D01*
X60669047Y-77992857D01*
X60645238Y-78016666D01*
X60597619Y-78040476D01*
X60502380Y-78040476D01*
X60454761Y-78064285D01*
X60430952Y-78088095D01*
X60407142Y-78135714D01*
X60407142Y-78230952D01*
X60430952Y-78278571D01*
X60454761Y-78302380D01*
X60502380Y-78326190D01*
X60597619Y-78326190D01*
X60645238Y-78302380D01*
X60669047Y-78278571D01*
X60692857Y-78230952D01*
X60692857Y-78135714D01*
X60669047Y-78088095D01*
X60645238Y-78064285D01*
X60597619Y-78040476D01*
X58316666Y-78278571D02*
X58292857Y-78302380D01*
X58221428Y-78326190D01*
X58173809Y-78326190D01*
X58102380Y-78302380D01*
X58054761Y-78254761D01*
X58030952Y-78207142D01*
X58007142Y-78111904D01*
X58007142Y-78040476D01*
X58030952Y-77945238D01*
X58054761Y-77897619D01*
X58102380Y-77850000D01*
X58173809Y-77826190D01*
X58221428Y-77826190D01*
X58292857Y-77850000D01*
X58316666Y-77873809D01*
X58554761Y-78326190D02*
X58650000Y-78326190D01*
X58697619Y-78302380D01*
X58721428Y-78278571D01*
X58769047Y-78207142D01*
X58792857Y-78111904D01*
X58792857Y-77921428D01*
X58769047Y-77873809D01*
X58745238Y-77850000D01*
X58697619Y-77826190D01*
X58602380Y-77826190D01*
X58554761Y-77850000D01*
X58530952Y-77873809D01*
X58507142Y-77921428D01*
X58507142Y-78040476D01*
X58530952Y-78088095D01*
X58554761Y-78111904D01*
X58602380Y-78135714D01*
X58697619Y-78135714D01*
X58745238Y-78111904D01*
X58769047Y-78088095D01*
X58792857Y-78040476D01*
X44678571Y-63338571D02*
X44654761Y-63362380D01*
X44583333Y-63386190D01*
X44535714Y-63386190D01*
X44464285Y-63362380D01*
X44416666Y-63314761D01*
X44392857Y-63267142D01*
X44369047Y-63171904D01*
X44369047Y-63100476D01*
X44392857Y-63005238D01*
X44416666Y-62957619D01*
X44464285Y-62910000D01*
X44535714Y-62886190D01*
X44583333Y-62886190D01*
X44654761Y-62910000D01*
X44678571Y-62933809D01*
X45154761Y-63386190D02*
X44869047Y-63386190D01*
X45011904Y-63386190D02*
X45011904Y-62886190D01*
X44964285Y-62957619D01*
X44916666Y-63005238D01*
X44869047Y-63029047D01*
X45464285Y-62886190D02*
X45511904Y-62886190D01*
X45559523Y-62910000D01*
X45583333Y-62933809D01*
X45607142Y-62981428D01*
X45630952Y-63076666D01*
X45630952Y-63195714D01*
X45607142Y-63290952D01*
X45583333Y-63338571D01*
X45559523Y-63362380D01*
X45511904Y-63386190D01*
X45464285Y-63386190D01*
X45416666Y-63362380D01*
X45392857Y-63338571D01*
X45369047Y-63290952D01*
X45345238Y-63195714D01*
X45345238Y-63076666D01*
X45369047Y-62981428D01*
X45392857Y-62933809D01*
X45416666Y-62910000D01*
X45464285Y-62886190D01*
X52418571Y-62378571D02*
X52394761Y-62402380D01*
X52323333Y-62426190D01*
X52275714Y-62426190D01*
X52204285Y-62402380D01*
X52156666Y-62354761D01*
X52132857Y-62307142D01*
X52109047Y-62211904D01*
X52109047Y-62140476D01*
X52132857Y-62045238D01*
X52156666Y-61997619D01*
X52204285Y-61950000D01*
X52275714Y-61926190D01*
X52323333Y-61926190D01*
X52394761Y-61950000D01*
X52418571Y-61973809D01*
X52894761Y-62426190D02*
X52609047Y-62426190D01*
X52751904Y-62426190D02*
X52751904Y-61926190D01*
X52704285Y-61997619D01*
X52656666Y-62045238D01*
X52609047Y-62069047D01*
X53370952Y-62426190D02*
X53085238Y-62426190D01*
X53228095Y-62426190D02*
X53228095Y-61926190D01*
X53180476Y-61997619D01*
X53132857Y-62045238D01*
X53085238Y-62069047D01*
X41178571Y-63878571D02*
X41154761Y-63902380D01*
X41083333Y-63926190D01*
X41035714Y-63926190D01*
X40964285Y-63902380D01*
X40916666Y-63854761D01*
X40892857Y-63807142D01*
X40869047Y-63711904D01*
X40869047Y-63640476D01*
X40892857Y-63545238D01*
X40916666Y-63497619D01*
X40964285Y-63450000D01*
X41035714Y-63426190D01*
X41083333Y-63426190D01*
X41154761Y-63450000D01*
X41178571Y-63473809D01*
X41654761Y-63926190D02*
X41369047Y-63926190D01*
X41511904Y-63926190D02*
X41511904Y-63426190D01*
X41464285Y-63497619D01*
X41416666Y-63545238D01*
X41369047Y-63569047D01*
X41845238Y-63473809D02*
X41869047Y-63450000D01*
X41916666Y-63426190D01*
X42035714Y-63426190D01*
X42083333Y-63450000D01*
X42107142Y-63473809D01*
X42130952Y-63521428D01*
X42130952Y-63569047D01*
X42107142Y-63640476D01*
X41821428Y-63926190D01*
X42130952Y-63926190D01*
X34278571Y-63878571D02*
X34254761Y-63902380D01*
X34183333Y-63926190D01*
X34135714Y-63926190D01*
X34064285Y-63902380D01*
X34016666Y-63854761D01*
X33992857Y-63807142D01*
X33969047Y-63711904D01*
X33969047Y-63640476D01*
X33992857Y-63545238D01*
X34016666Y-63497619D01*
X34064285Y-63450000D01*
X34135714Y-63426190D01*
X34183333Y-63426190D01*
X34254761Y-63450000D01*
X34278571Y-63473809D01*
X34754761Y-63926190D02*
X34469047Y-63926190D01*
X34611904Y-63926190D02*
X34611904Y-63426190D01*
X34564285Y-63497619D01*
X34516666Y-63545238D01*
X34469047Y-63569047D01*
X34921428Y-63426190D02*
X35230952Y-63426190D01*
X35064285Y-63616666D01*
X35135714Y-63616666D01*
X35183333Y-63640476D01*
X35207142Y-63664285D01*
X35230952Y-63711904D01*
X35230952Y-63830952D01*
X35207142Y-63878571D01*
X35183333Y-63902380D01*
X35135714Y-63926190D01*
X34992857Y-63926190D01*
X34945238Y-63902380D01*
X34921428Y-63878571D01*
X37830952Y-86126190D02*
X37830952Y-85626190D01*
X37950000Y-85626190D01*
X38021428Y-85650000D01*
X38069047Y-85697619D01*
X38092857Y-85745238D01*
X38116666Y-85840476D01*
X38116666Y-85911904D01*
X38092857Y-86007142D01*
X38069047Y-86054761D01*
X38021428Y-86102380D01*
X37950000Y-86126190D01*
X37830952Y-86126190D01*
X38592857Y-86126190D02*
X38307142Y-86126190D01*
X38450000Y-86126190D02*
X38450000Y-85626190D01*
X38402380Y-85697619D01*
X38354761Y-85745238D01*
X38307142Y-85769047D01*
X60130952Y-70426190D02*
X60130952Y-69926190D01*
X60250000Y-69926190D01*
X60321428Y-69950000D01*
X60369047Y-69997619D01*
X60392857Y-70045238D01*
X60416666Y-70140476D01*
X60416666Y-70211904D01*
X60392857Y-70307142D01*
X60369047Y-70354761D01*
X60321428Y-70402380D01*
X60250000Y-70426190D01*
X60130952Y-70426190D01*
X60607142Y-69973809D02*
X60630952Y-69950000D01*
X60678571Y-69926190D01*
X60797619Y-69926190D01*
X60845238Y-69950000D01*
X60869047Y-69973809D01*
X60892857Y-70021428D01*
X60892857Y-70069047D01*
X60869047Y-70140476D01*
X60583333Y-70426190D01*
X60892857Y-70426190D01*
X58230952Y-70326190D02*
X58230952Y-69826190D01*
X58350000Y-69826190D01*
X58421428Y-69850000D01*
X58469047Y-69897619D01*
X58492857Y-69945238D01*
X58516666Y-70040476D01*
X58516666Y-70111904D01*
X58492857Y-70207142D01*
X58469047Y-70254761D01*
X58421428Y-70302380D01*
X58350000Y-70326190D01*
X58230952Y-70326190D01*
X58683333Y-69826190D02*
X58992857Y-69826190D01*
X58826190Y-70016666D01*
X58897619Y-70016666D01*
X58945238Y-70040476D01*
X58969047Y-70064285D01*
X58992857Y-70111904D01*
X58992857Y-70230952D01*
X58969047Y-70278571D01*
X58945238Y-70302380D01*
X58897619Y-70326190D01*
X58754761Y-70326190D01*
X58707142Y-70302380D01*
X58683333Y-70278571D01*
X30833333Y-80764285D02*
X30666666Y-80764285D01*
X30666666Y-81026190D02*
X30666666Y-80526190D01*
X30904761Y-80526190D01*
X31357142Y-81026190D02*
X31071428Y-81026190D01*
X31214285Y-81026190D02*
X31214285Y-80526190D01*
X31166666Y-80597619D01*
X31119047Y-80645238D01*
X31071428Y-80669047D01*
X41916666Y-77626190D02*
X41678571Y-77626190D01*
X41678571Y-77126190D01*
X42345238Y-77626190D02*
X42059523Y-77626190D01*
X42202380Y-77626190D02*
X42202380Y-77126190D01*
X42154761Y-77197619D01*
X42107142Y-77245238D01*
X42059523Y-77269047D01*
X41816666Y-75126190D02*
X41578571Y-75126190D01*
X41578571Y-74626190D01*
X41959523Y-74673809D02*
X41983333Y-74650000D01*
X42030952Y-74626190D01*
X42150000Y-74626190D01*
X42197619Y-74650000D01*
X42221428Y-74673809D01*
X42245238Y-74721428D01*
X42245238Y-74769047D01*
X42221428Y-74840476D01*
X41935714Y-75126190D01*
X42245238Y-75126190D01*
X34416666Y-86026190D02*
X34250000Y-85788095D01*
X34130952Y-86026190D02*
X34130952Y-85526190D01*
X34321428Y-85526190D01*
X34369047Y-85550000D01*
X34392857Y-85573809D01*
X34416666Y-85621428D01*
X34416666Y-85692857D01*
X34392857Y-85740476D01*
X34369047Y-85764285D01*
X34321428Y-85788095D01*
X34130952Y-85788095D01*
X34892857Y-86026190D02*
X34607142Y-86026190D01*
X34750000Y-86026190D02*
X34750000Y-85526190D01*
X34702380Y-85597619D01*
X34654761Y-85645238D01*
X34607142Y-85669047D01*
X43566666Y-82626190D02*
X43400000Y-82388095D01*
X43280952Y-82626190D02*
X43280952Y-82126190D01*
X43471428Y-82126190D01*
X43519047Y-82150000D01*
X43542857Y-82173809D01*
X43566666Y-82221428D01*
X43566666Y-82292857D01*
X43542857Y-82340476D01*
X43519047Y-82364285D01*
X43471428Y-82388095D01*
X43280952Y-82388095D01*
X43733333Y-82126190D02*
X44042857Y-82126190D01*
X43876190Y-82316666D01*
X43947619Y-82316666D01*
X43995238Y-82340476D01*
X44019047Y-82364285D01*
X44042857Y-82411904D01*
X44042857Y-82530952D01*
X44019047Y-82578571D01*
X43995238Y-82602380D01*
X43947619Y-82626190D01*
X43804761Y-82626190D01*
X43757142Y-82602380D01*
X43733333Y-82578571D01*
X56566666Y-85226190D02*
X56400000Y-84988095D01*
X56280952Y-85226190D02*
X56280952Y-84726190D01*
X56471428Y-84726190D01*
X56519047Y-84750000D01*
X56542857Y-84773809D01*
X56566666Y-84821428D01*
X56566666Y-84892857D01*
X56542857Y-84940476D01*
X56519047Y-84964285D01*
X56471428Y-84988095D01*
X56280952Y-84988095D01*
X56995238Y-84892857D02*
X56995238Y-85226190D01*
X56876190Y-84702380D02*
X56757142Y-85059523D01*
X57066666Y-85059523D01*
X41666666Y-72826190D02*
X41500000Y-72588095D01*
X41380952Y-72826190D02*
X41380952Y-72326190D01*
X41571428Y-72326190D01*
X41619047Y-72350000D01*
X41642857Y-72373809D01*
X41666666Y-72421428D01*
X41666666Y-72492857D01*
X41642857Y-72540476D01*
X41619047Y-72564285D01*
X41571428Y-72588095D01*
X41380952Y-72588095D01*
X42095238Y-72326190D02*
X42000000Y-72326190D01*
X41952380Y-72350000D01*
X41928571Y-72373809D01*
X41880952Y-72445238D01*
X41857142Y-72540476D01*
X41857142Y-72730952D01*
X41880952Y-72778571D01*
X41904761Y-72802380D01*
X41952380Y-72826190D01*
X42047619Y-72826190D01*
X42095238Y-72802380D01*
X42119047Y-72778571D01*
X42142857Y-72730952D01*
X42142857Y-72611904D01*
X42119047Y-72564285D01*
X42095238Y-72540476D01*
X42047619Y-72516666D01*
X41952380Y-72516666D01*
X41904761Y-72540476D01*
X41880952Y-72564285D01*
X41857142Y-72611904D01*
X53316666Y-70526190D02*
X53150000Y-70288095D01*
X53030952Y-70526190D02*
X53030952Y-70026190D01*
X53221428Y-70026190D01*
X53269047Y-70050000D01*
X53292857Y-70073809D01*
X53316666Y-70121428D01*
X53316666Y-70192857D01*
X53292857Y-70240476D01*
X53269047Y-70264285D01*
X53221428Y-70288095D01*
X53030952Y-70288095D01*
X53602380Y-70240476D02*
X53554761Y-70216666D01*
X53530952Y-70192857D01*
X53507142Y-70145238D01*
X53507142Y-70121428D01*
X53530952Y-70073809D01*
X53554761Y-70050000D01*
X53602380Y-70026190D01*
X53697619Y-70026190D01*
X53745238Y-70050000D01*
X53769047Y-70073809D01*
X53792857Y-70121428D01*
X53792857Y-70145238D01*
X53769047Y-70192857D01*
X53745238Y-70216666D01*
X53697619Y-70240476D01*
X53602380Y-70240476D01*
X53554761Y-70264285D01*
X53530952Y-70288095D01*
X53507142Y-70335714D01*
X53507142Y-70430952D01*
X53530952Y-70478571D01*
X53554761Y-70502380D01*
X53602380Y-70526190D01*
X53697619Y-70526190D01*
X53745238Y-70502380D01*
X53769047Y-70478571D01*
X53792857Y-70430952D01*
X53792857Y-70335714D01*
X53769047Y-70288095D01*
X53745238Y-70264285D01*
X53697619Y-70240476D01*
X53316666Y-68926190D02*
X53150000Y-68688095D01*
X53030952Y-68926190D02*
X53030952Y-68426190D01*
X53221428Y-68426190D01*
X53269047Y-68450000D01*
X53292857Y-68473809D01*
X53316666Y-68521428D01*
X53316666Y-68592857D01*
X53292857Y-68640476D01*
X53269047Y-68664285D01*
X53221428Y-68688095D01*
X53030952Y-68688095D01*
X53554761Y-68926190D02*
X53650000Y-68926190D01*
X53697619Y-68902380D01*
X53721428Y-68878571D01*
X53769047Y-68807142D01*
X53792857Y-68711904D01*
X53792857Y-68521428D01*
X53769047Y-68473809D01*
X53745238Y-68450000D01*
X53697619Y-68426190D01*
X53602380Y-68426190D01*
X53554761Y-68450000D01*
X53530952Y-68473809D01*
X53507142Y-68521428D01*
X53507142Y-68640476D01*
X53530952Y-68688095D01*
X53554761Y-68711904D01*
X53602380Y-68735714D01*
X53697619Y-68735714D01*
X53745238Y-68711904D01*
X53769047Y-68688095D01*
X53792857Y-68640476D01*
X67419047Y-73526190D02*
X67419047Y-73930952D01*
X67442857Y-73978571D01*
X67466666Y-74002380D01*
X67514285Y-74026190D01*
X67609523Y-74026190D01*
X67657142Y-74002380D01*
X67680952Y-73978571D01*
X67704761Y-73930952D01*
X67704761Y-73526190D01*
X67919047Y-73573809D02*
X67942857Y-73550000D01*
X67990476Y-73526190D01*
X68109523Y-73526190D01*
X68157142Y-73550000D01*
X68180952Y-73573809D01*
X68204761Y-73621428D01*
X68204761Y-73669047D01*
X68180952Y-73740476D01*
X67895238Y-74026190D01*
X68204761Y-74026190D01*
X48519047Y-68026190D02*
X48519047Y-68430952D01*
X48542857Y-68478571D01*
X48566666Y-68502380D01*
X48614285Y-68526190D01*
X48709523Y-68526190D01*
X48757142Y-68502380D01*
X48780952Y-68478571D01*
X48804761Y-68430952D01*
X48804761Y-68026190D01*
X48995238Y-68026190D02*
X49304761Y-68026190D01*
X49138095Y-68216666D01*
X49209523Y-68216666D01*
X49257142Y-68240476D01*
X49280952Y-68264285D01*
X49304761Y-68311904D01*
X49304761Y-68430952D01*
X49280952Y-68478571D01*
X49257142Y-68502380D01*
X49209523Y-68526190D01*
X49066666Y-68526190D01*
X49019047Y-68502380D01*
X48995238Y-68478571D01*
X53119047Y-82326190D02*
X53119047Y-82730952D01*
X53142857Y-82778571D01*
X53166666Y-82802380D01*
X53214285Y-82826190D01*
X53309523Y-82826190D01*
X53357142Y-82802380D01*
X53380952Y-82778571D01*
X53404761Y-82730952D01*
X53404761Y-82326190D01*
X53857142Y-82492857D02*
X53857142Y-82826190D01*
X53738095Y-82302380D02*
X53619047Y-82659523D01*
X53928571Y-82659523D01*
X67419047Y-62026190D02*
X67419047Y-62430952D01*
X67442857Y-62478571D01*
X67466666Y-62502380D01*
X67514285Y-62526190D01*
X67609523Y-62526190D01*
X67657142Y-62502380D01*
X67680952Y-62478571D01*
X67704761Y-62430952D01*
X67704761Y-62026190D01*
X68180952Y-62026190D02*
X67942857Y-62026190D01*
X67919047Y-62264285D01*
X67942857Y-62240476D01*
X67990476Y-62216666D01*
X68109523Y-62216666D01*
X68157142Y-62240476D01*
X68180952Y-62264285D01*
X68204761Y-62311904D01*
X68204761Y-62430952D01*
X68180952Y-62478571D01*
X68157142Y-62502380D01*
X68109523Y-62526190D01*
X67990476Y-62526190D01*
X67942857Y-62502380D01*
X67919047Y-62478571D01*
X31561904Y-64888095D02*
X31561904Y-65126190D01*
X31395238Y-64626190D02*
X31561904Y-64888095D01*
X31728571Y-64626190D01*
X32157142Y-65126190D02*
X31871428Y-65126190D01*
X32014285Y-65126190D02*
X32014285Y-64626190D01*
X31966666Y-64697619D01*
X31919047Y-64745238D01*
X31871428Y-64769047D01*
X52316666Y-69726190D02*
X52150000Y-69488095D01*
X52030952Y-69726190D02*
X52030952Y-69226190D01*
X52221428Y-69226190D01*
X52269047Y-69250000D01*
X52292857Y-69273809D01*
X52316666Y-69321428D01*
X52316666Y-69392857D01*
X52292857Y-69440476D01*
X52269047Y-69464285D01*
X52221428Y-69488095D01*
X52030952Y-69488095D01*
X52507142Y-69273809D02*
X52530952Y-69250000D01*
X52578571Y-69226190D01*
X52697619Y-69226190D01*
X52745238Y-69250000D01*
X52769047Y-69273809D01*
X52792857Y-69321428D01*
X52792857Y-69369047D01*
X52769047Y-69440476D01*
X52483333Y-69726190D01*
X52792857Y-69726190D01*
X52316666Y-71226190D02*
X52150000Y-70988095D01*
X52030952Y-71226190D02*
X52030952Y-70726190D01*
X52221428Y-70726190D01*
X52269047Y-70750000D01*
X52292857Y-70773809D01*
X52316666Y-70821428D01*
X52316666Y-70892857D01*
X52292857Y-70940476D01*
X52269047Y-70964285D01*
X52221428Y-70988095D01*
X52030952Y-70988095D01*
X52769047Y-70726190D02*
X52530952Y-70726190D01*
X52507142Y-70964285D01*
X52530952Y-70940476D01*
X52578571Y-70916666D01*
X52697619Y-70916666D01*
X52745238Y-70940476D01*
X52769047Y-70964285D01*
X52792857Y-71011904D01*
X52792857Y-71130952D01*
X52769047Y-71178571D01*
X52745238Y-71202380D01*
X52697619Y-71226190D01*
X52578571Y-71226190D01*
X52530952Y-71202380D01*
X52507142Y-71178571D01*
X39219047Y-78926190D02*
X39219047Y-79330952D01*
X39242857Y-79378571D01*
X39266666Y-79402380D01*
X39314285Y-79426190D01*
X39409523Y-79426190D01*
X39457142Y-79402380D01*
X39480952Y-79378571D01*
X39504761Y-79330952D01*
X39504761Y-78926190D01*
X40004761Y-79426190D02*
X39719047Y-79426190D01*
X39861904Y-79426190D02*
X39861904Y-78926190D01*
X39814285Y-78997619D01*
X39766666Y-79045238D01*
X39719047Y-79069047D01*
M02*
