G04 #@! TF.GenerationSoftware,KiCad,Pcbnew,(5.1.5)-3*
G04 #@! TF.CreationDate,2020-01-27T20:13:38-03:30*
G04 #@! TF.ProjectId,XDS100v2 Programmer,58445331-3030-4763-9220-50726f677261,rev?*
G04 #@! TF.SameCoordinates,Original*
G04 #@! TF.FileFunction,Copper,L1,Top*
G04 #@! TF.FilePolarity,Positive*
%FSLAX46Y46*%
G04 Gerber Fmt 4.6, Leading zero omitted, Abs format (unit mm)*
G04 Created by KiCad (PCBNEW (5.1.5)-3) date 2020-01-27 20:13:38*
%MOMM*%
%LPD*%
G04 APERTURE LIST*
%ADD10R,0.300000X0.400000*%
%ADD11R,2.440000X1.130000*%
%ADD12R,3.100000X0.500000*%
%ADD13R,3.300000X2.000000*%
%ADD14R,2.500000X2.000000*%
%ADD15O,1.700000X1.700000*%
%ADD16R,1.700000X1.700000*%
%ADD17R,1.250000X1.000000*%
%ADD18R,1.000000X1.250000*%
%ADD19R,2.550000X2.500000*%
%ADD20R,0.800000X0.750000*%
%ADD21R,1.200000X1.200000*%
%ADD22R,3.200000X1.500000*%
%ADD23C,6.000000*%
%ADD24C,0.800000*%
%ADD25R,0.400000X0.600000*%
%ADD26R,0.700000X1.300000*%
%ADD27R,1.300000X0.700000*%
%ADD28R,1.500000X0.600000*%
%ADD29R,0.650000X1.060000*%
%ADD30R,1.837500X1.837500*%
%ADD31R,0.300000X0.850000*%
%ADD32R,0.850000X0.300000*%
%ADD33R,4.500000X2.000000*%
%ADD34R,0.500000X0.900000*%
%ADD35R,1.500000X2.000000*%
%ADD36R,3.800000X2.000000*%
%ADD37C,0.500000*%
%ADD38C,0.250000*%
%ADD39C,0.127000*%
%ADD40C,0.500000*%
%ADD41C,0.200000*%
%ADD42C,0.254000*%
G04 APERTURE END LIST*
D10*
X51550000Y-65000000D03*
X52050000Y-65000000D03*
X52550000Y-65000000D03*
X53050000Y-65000000D03*
X53050000Y-67200000D03*
X52550000Y-67200000D03*
X52050000Y-67200000D03*
X51550000Y-67200000D03*
D11*
X79000000Y-86730000D03*
X79000000Y-89270000D03*
X70400000Y-86730000D03*
X70400000Y-89270000D03*
X92900000Y-80030000D03*
X92900000Y-82570000D03*
X84300000Y-80030000D03*
X84300000Y-82570000D03*
X84200000Y-74440000D03*
X92800000Y-74440000D03*
X84200000Y-71900000D03*
X84200000Y-69360000D03*
X92800000Y-71900000D03*
X92800000Y-69360000D03*
D12*
X25800000Y-78700000D03*
X25800000Y-77900000D03*
X25800000Y-77100000D03*
X25800000Y-76300000D03*
X25800000Y-75500000D03*
D13*
X25700000Y-72650000D03*
X25700000Y-81550000D03*
D14*
X19800000Y-72650000D03*
X19800000Y-81550000D03*
D15*
X100330000Y-71970000D03*
X102870000Y-71970000D03*
X100330000Y-74510000D03*
X102870000Y-74510000D03*
X100330000Y-77050000D03*
X102870000Y-77050000D03*
X100330000Y-79590000D03*
X102870000Y-79590000D03*
X100330000Y-82130000D03*
D16*
X102870000Y-82130000D03*
D17*
X45300000Y-72800000D03*
X45300000Y-74800000D03*
X45300000Y-79600000D03*
X45300000Y-77600000D03*
D18*
X30000000Y-73100000D03*
X32000000Y-73100000D03*
D19*
X39625000Y-83100000D03*
X34575000Y-83100000D03*
D17*
X58000000Y-73800000D03*
X58000000Y-75800000D03*
X64100000Y-81200000D03*
X64100000Y-79200000D03*
X62200000Y-79200000D03*
X62200000Y-81200000D03*
X60300000Y-79200000D03*
X60300000Y-81200000D03*
X58400000Y-79200000D03*
X58400000Y-81200000D03*
D18*
X44000000Y-64660000D03*
X46000000Y-64660000D03*
X53740000Y-63580000D03*
X51740000Y-63580000D03*
D20*
X42350000Y-64900000D03*
X40850000Y-64900000D03*
X35350000Y-64900000D03*
X33850000Y-64900000D03*
D21*
X39300000Y-87100000D03*
X37100000Y-87100000D03*
X60500000Y-66700000D03*
X60500000Y-68900000D03*
X58600000Y-68900000D03*
X58600000Y-66700000D03*
D22*
X31100000Y-75000000D03*
X31100000Y-79200000D03*
D23*
X103000000Y-63000000D03*
D24*
X105250000Y-63000000D03*
X104590990Y-64590990D03*
X103000000Y-65250000D03*
X101409010Y-64590990D03*
X100750000Y-63000000D03*
X101409010Y-61409010D03*
X103000000Y-60750000D03*
X104590990Y-61409010D03*
X23590990Y-89509010D03*
X22000000Y-88850000D03*
X20409010Y-89509010D03*
X19750000Y-91100000D03*
X20409010Y-92690990D03*
X22000000Y-93350000D03*
X23590990Y-92690990D03*
X24250000Y-91100000D03*
D23*
X22000000Y-91100000D03*
X103000000Y-91150000D03*
D24*
X105250000Y-91150000D03*
X104590990Y-92740990D03*
X103000000Y-93400000D03*
X101409010Y-92740990D03*
X100750000Y-91150000D03*
X101409010Y-89559010D03*
X103000000Y-88900000D03*
X104590990Y-89559010D03*
X23590990Y-61409010D03*
X22000000Y-60750000D03*
X20409010Y-61409010D03*
X19750000Y-63000000D03*
X20409010Y-64590990D03*
X22000000Y-65250000D03*
X23590990Y-64590990D03*
X24250000Y-63000000D03*
D23*
X22000000Y-63000000D03*
D25*
X42950000Y-77500000D03*
X43850000Y-77500000D03*
X43850000Y-74900000D03*
X42950000Y-74900000D03*
D26*
X35400000Y-87100000D03*
X33500000Y-87100000D03*
D27*
X45300000Y-83350000D03*
X45300000Y-81450000D03*
D26*
X57600000Y-83500000D03*
X55700000Y-83500000D03*
D27*
X43400000Y-71650000D03*
X43400000Y-73550000D03*
D26*
X56400000Y-70800000D03*
X54500000Y-70800000D03*
X54500000Y-68900000D03*
X56400000Y-68900000D03*
D28*
X79350000Y-73955000D03*
X79350000Y-75225000D03*
X79350000Y-76495000D03*
X79350000Y-77765000D03*
X79350000Y-79035000D03*
X79350000Y-80305000D03*
X79350000Y-81575000D03*
X79350000Y-82845000D03*
X70050000Y-82845000D03*
X70050000Y-81575000D03*
X70050000Y-80305000D03*
X70050000Y-79035000D03*
X70050000Y-77765000D03*
X70050000Y-76495000D03*
X70050000Y-75225000D03*
X70050000Y-73955000D03*
D29*
X48900000Y-64900000D03*
X47950000Y-64900000D03*
X49850000Y-64900000D03*
X49850000Y-67100000D03*
X48900000Y-67100000D03*
X47950000Y-67100000D03*
D30*
X49043750Y-74243750D03*
X49043750Y-76081250D03*
X49043750Y-77918750D03*
X49043750Y-79756250D03*
X50881250Y-74243750D03*
X50881250Y-76081250D03*
X50881250Y-77918750D03*
X50881250Y-79756250D03*
X52718750Y-74243750D03*
X52718750Y-76081250D03*
X52718750Y-77918750D03*
X52718750Y-79756250D03*
X54556250Y-74243750D03*
X54556250Y-76081250D03*
X54556250Y-77918750D03*
X54556250Y-79756250D03*
D31*
X48050000Y-72550000D03*
X48550000Y-72550000D03*
X49050000Y-72550000D03*
X49550000Y-72550000D03*
X50050000Y-72550000D03*
X50550000Y-72550000D03*
X51050000Y-72550000D03*
X51550000Y-72550000D03*
X52050000Y-72550000D03*
X52550000Y-72550000D03*
X53050000Y-72550000D03*
X53550000Y-72550000D03*
X54050000Y-72550000D03*
X54550000Y-72550000D03*
X55050000Y-72550000D03*
X55550000Y-72550000D03*
D32*
X56250000Y-73250000D03*
X56250000Y-73750000D03*
X56250000Y-74250000D03*
X56250000Y-74750000D03*
X56250000Y-75250000D03*
X56250000Y-75750000D03*
X56250000Y-76250000D03*
X56250000Y-76750000D03*
X56250000Y-77250000D03*
X56250000Y-77750000D03*
X56250000Y-78250000D03*
X56250000Y-78750000D03*
X56250000Y-79250000D03*
X56250000Y-79750000D03*
X56250000Y-80250000D03*
X56250000Y-80750000D03*
D31*
X55550000Y-81450000D03*
X55050000Y-81450000D03*
X54550000Y-81450000D03*
X54050000Y-81450000D03*
X53550000Y-81450000D03*
X53050000Y-81450000D03*
X52550000Y-81450000D03*
X52050000Y-81450000D03*
X51550000Y-81450000D03*
X51050000Y-81450000D03*
X50550000Y-81450000D03*
X50050000Y-81450000D03*
X49550000Y-81450000D03*
X49050000Y-81450000D03*
X48550000Y-81450000D03*
X48050000Y-81450000D03*
D32*
X47350000Y-80750000D03*
X47350000Y-80250000D03*
X47350000Y-79750000D03*
X47350000Y-79250000D03*
X47350000Y-78750000D03*
X47350000Y-78250000D03*
X47350000Y-77750000D03*
X47350000Y-77250000D03*
X47350000Y-76750000D03*
X47350000Y-76250000D03*
X47350000Y-75750000D03*
X47350000Y-75250000D03*
X47350000Y-74750000D03*
X47350000Y-74250000D03*
X47350000Y-73750000D03*
X47350000Y-73250000D03*
D28*
X79350000Y-71545000D03*
X79350000Y-70275000D03*
X79350000Y-69005000D03*
X79350000Y-67735000D03*
X79350000Y-66465000D03*
X79350000Y-65195000D03*
X79350000Y-63925000D03*
X79350000Y-62655000D03*
X70050000Y-62655000D03*
X70050000Y-63925000D03*
X70050000Y-65195000D03*
X70050000Y-66465000D03*
X70050000Y-67735000D03*
X70050000Y-69005000D03*
X70050000Y-70275000D03*
X70050000Y-71545000D03*
D33*
X33850000Y-68300000D03*
X42350000Y-68300000D03*
D34*
X49850000Y-69500000D03*
X51350000Y-69500000D03*
X49850000Y-71000000D03*
X51350000Y-71000000D03*
D35*
X38800000Y-73450000D03*
X34200000Y-73450000D03*
X36500000Y-73450000D03*
D36*
X36500000Y-79750000D03*
D37*
X48880000Y-67090000D03*
X49000000Y-74400000D03*
X50900000Y-74400000D03*
X52700000Y-74400000D03*
X54600000Y-74400000D03*
X54600000Y-76200000D03*
X52700000Y-76200000D03*
X50900000Y-76200000D03*
X49000000Y-76200000D03*
X49000000Y-78000000D03*
X50900000Y-78000000D03*
X52700000Y-78000000D03*
X54600000Y-78000000D03*
X54600000Y-79800000D03*
X52700000Y-79800000D03*
X50900000Y-79800000D03*
X49000000Y-79800000D03*
X45300000Y-72100000D03*
X42500000Y-73600000D03*
X40099992Y-64900000D03*
X36100004Y-64900000D03*
X68900000Y-75300000D03*
X68900000Y-70500000D03*
X68900000Y-62700000D03*
X46665182Y-81267418D03*
X44400000Y-79800000D03*
X46499990Y-78000000D03*
X52100000Y-82300000D03*
X58000000Y-73100000D03*
X58400000Y-81900000D03*
X60300000Y-81900000D03*
X62200000Y-81900000D03*
X64100000Y-81900000D03*
X58200000Y-83500000D03*
X57100000Y-79800000D03*
X68900000Y-83100000D03*
X68700000Y-86700000D03*
X70200000Y-85800000D03*
X26920000Y-79500000D03*
D24*
X19840000Y-83070000D03*
X25660000Y-83240000D03*
X19710000Y-71150000D03*
X25890000Y-71220000D03*
X18020000Y-81750000D03*
X23600000Y-81750000D03*
X21500000Y-72420000D03*
X23750000Y-72390000D03*
X18240000Y-72430000D03*
X27800000Y-72480000D03*
X29170000Y-73370000D03*
X21460000Y-81600000D03*
X38820000Y-71920000D03*
X40090000Y-73420000D03*
X40290000Y-87070000D03*
X40120000Y-81390000D03*
X40100000Y-84840000D03*
D37*
X43700000Y-63790000D03*
X52800000Y-64350000D03*
X54690000Y-63590000D03*
X53950000Y-62580000D03*
X47086490Y-72600000D03*
D24*
X70000000Y-71500000D03*
X70050000Y-63925000D03*
X70100000Y-73900000D03*
X69100000Y-84600000D03*
X42950000Y-77500000D03*
X40990000Y-77460000D03*
D37*
X49777629Y-82486500D03*
X49336900Y-85563100D03*
X51487100Y-82712900D03*
X47100000Y-69900000D03*
X49850000Y-69500000D03*
X53625000Y-71600000D03*
X51950849Y-71751401D03*
X47900000Y-64800000D03*
X47000000Y-63535000D03*
D24*
X40729678Y-89229678D03*
X43114193Y-89214193D03*
D37*
X46583855Y-78735883D03*
X47600000Y-71900000D03*
X58400000Y-79200000D03*
X58900000Y-77000000D03*
X61199996Y-74800000D03*
X60440719Y-73433315D03*
X55800000Y-72500000D03*
X80600000Y-62600000D03*
X80500000Y-70200000D03*
X80400000Y-82800000D03*
X80500000Y-75200000D03*
X80600000Y-86700000D03*
X79100000Y-85800000D03*
X84250000Y-77000000D03*
X82600000Y-76200000D03*
X83300000Y-77850000D03*
X82000000Y-77050000D03*
X90650000Y-83350000D03*
X92500000Y-84900000D03*
X105300000Y-80600000D03*
D24*
X79475000Y-81575000D03*
X79350000Y-73955000D03*
X79350000Y-71545000D03*
X79350000Y-63925000D03*
D37*
X46594337Y-75705227D03*
X45778088Y-73849993D03*
X82050000Y-79600000D03*
X81863107Y-74736893D03*
X68735055Y-80200000D03*
X66400000Y-80200000D03*
X49103210Y-82298987D03*
X49100000Y-84600000D03*
X48300008Y-83900000D03*
X48062689Y-82711929D03*
X48900000Y-64900000D03*
X46525193Y-66158092D03*
X66872988Y-68000008D03*
X68100000Y-67800000D03*
D38*
X45300000Y-72800000D02*
X45300000Y-72100000D01*
X43400000Y-73550000D02*
X42550000Y-73550000D01*
X42550000Y-73550000D02*
X42500000Y-73600000D01*
D39*
X40850000Y-64900000D02*
X40100000Y-64900000D01*
X40100000Y-64900000D02*
X40099992Y-64900000D01*
X35350000Y-64900000D02*
X36100004Y-64900000D01*
D38*
X70050000Y-75225000D02*
X68975000Y-75225000D01*
X68975000Y-75225000D02*
X68900000Y-75300000D01*
X70050000Y-70275000D02*
X69125000Y-70275000D01*
X69125000Y-70275000D02*
X68900000Y-70500000D01*
X70050000Y-62655000D02*
X68945000Y-62655000D01*
X68945000Y-62655000D02*
X68900000Y-62700000D01*
D39*
X46661499Y-81263735D02*
X46665182Y-81267418D01*
X46661499Y-80386501D02*
X46661499Y-81263735D01*
X47350000Y-80250000D02*
X46798000Y-80250000D01*
X46798000Y-80250000D02*
X46661499Y-80386501D01*
X45650000Y-79250000D02*
X45300000Y-79600000D01*
X47350000Y-79250000D02*
X45650000Y-79250000D01*
X45300000Y-79600000D02*
X44600000Y-79600000D01*
X44600000Y-79600000D02*
X44400000Y-79800000D01*
X47350000Y-77750000D02*
X47350000Y-78250000D01*
X47350000Y-78250000D02*
X46749990Y-78250000D01*
X46749990Y-77750000D02*
X46499990Y-78000000D01*
X47350000Y-77750000D02*
X46749990Y-77750000D01*
X46749990Y-78250000D02*
X46499990Y-78000000D01*
X52050000Y-81450000D02*
X52050000Y-82250000D01*
X52050000Y-82250000D02*
X52100000Y-82300000D01*
D38*
X57950000Y-73750000D02*
X56250000Y-73750000D01*
X58000000Y-73800000D02*
X57950000Y-73750000D01*
X58000000Y-73800000D02*
X58000000Y-73100000D01*
X58400000Y-81200000D02*
X58400000Y-81900000D01*
X60300000Y-81200000D02*
X60300000Y-81900000D01*
X62200000Y-81200000D02*
X62200000Y-81800000D01*
X62200000Y-81800000D02*
X62200000Y-81900000D01*
X64100000Y-81200000D02*
X64100000Y-81900000D01*
X57600000Y-83500000D02*
X58200000Y-83500000D01*
X56250000Y-79750000D02*
X57050000Y-79750000D01*
X57050000Y-79750000D02*
X57100000Y-79800000D01*
X58400000Y-81200000D02*
X60300000Y-81200000D01*
X60300000Y-81200000D02*
X62200000Y-81200000D01*
X62200000Y-81200000D02*
X64100000Y-81200000D01*
X70050000Y-82845000D02*
X69050000Y-82845000D01*
X68900000Y-82995000D02*
X68900000Y-83100000D01*
X69050000Y-82845000D02*
X68900000Y-82995000D01*
X70400000Y-86730000D02*
X68730000Y-86730000D01*
X68730000Y-86730000D02*
X68700000Y-86700000D01*
X70400000Y-85900000D02*
X70300000Y-85800000D01*
X70400000Y-86730000D02*
X70400000Y-85900000D01*
X70300000Y-85800000D02*
X70200000Y-85800000D01*
X25800000Y-78700000D02*
X26120000Y-78700000D01*
X26120000Y-78700000D02*
X26920000Y-79500000D01*
D40*
X19800000Y-81550000D02*
X19800000Y-83030000D01*
X19800000Y-83030000D02*
X19840000Y-83070000D01*
X25700000Y-81550000D02*
X25700000Y-83200000D01*
X25700000Y-83200000D02*
X25660000Y-83240000D01*
X19800000Y-72650000D02*
X19800000Y-71240000D01*
X19800000Y-71240000D02*
X19710000Y-71150000D01*
X25700000Y-72650000D02*
X25700000Y-71410000D01*
X25700000Y-71410000D02*
X25890000Y-71220000D01*
X19800000Y-81550000D02*
X18220000Y-81550000D01*
X18220000Y-81550000D02*
X18020000Y-81750000D01*
X25700000Y-81550000D02*
X23800000Y-81550000D01*
X23800000Y-81550000D02*
X23600000Y-81750000D01*
X19800000Y-72650000D02*
X21270000Y-72650000D01*
X21270000Y-72650000D02*
X21500000Y-72420000D01*
X25700000Y-72650000D02*
X24010000Y-72650000D01*
X24010000Y-72650000D02*
X23750000Y-72390000D01*
X19800000Y-72650000D02*
X18460000Y-72650000D01*
X18460000Y-72650000D02*
X18240000Y-72430000D01*
X25700000Y-72650000D02*
X27630000Y-72650000D01*
X27630000Y-72650000D02*
X27800000Y-72480000D01*
X30000000Y-73100000D02*
X29440000Y-73100000D01*
X29440000Y-73100000D02*
X29170000Y-73370000D01*
X19800000Y-81550000D02*
X21410000Y-81550000D01*
X21410000Y-81550000D02*
X21460000Y-81600000D01*
X38800000Y-73450000D02*
X38800000Y-71940000D01*
X38800000Y-71940000D02*
X38820000Y-71920000D01*
X38800000Y-73450000D02*
X40060000Y-73450000D01*
X40060000Y-73450000D02*
X40090000Y-73420000D01*
X39300000Y-87100000D02*
X40260000Y-87100000D01*
X40260000Y-87100000D02*
X40290000Y-87070000D01*
X39625000Y-83100000D02*
X39625000Y-81885000D01*
X39625000Y-81885000D02*
X40120000Y-81390000D01*
X39625000Y-83100000D02*
X39625000Y-84365000D01*
X39625000Y-84365000D02*
X40100000Y-84840000D01*
D38*
X48150000Y-75250000D02*
X49000000Y-74400000D01*
X47350000Y-75250000D02*
X48150000Y-75250000D01*
X55250000Y-73750000D02*
X54600000Y-74400000D01*
X56250000Y-73750000D02*
X55250000Y-73750000D01*
X54550000Y-74237500D02*
X54556250Y-74243750D01*
X54550000Y-72550000D02*
X54550000Y-74237500D01*
X48550000Y-80250000D02*
X49043750Y-79756250D01*
X47350000Y-80250000D02*
X48550000Y-80250000D01*
X49000000Y-79131250D02*
X49000000Y-78353553D01*
X49000000Y-78353553D02*
X49000000Y-78000000D01*
X48881250Y-79250000D02*
X49000000Y-79131250D01*
X47350000Y-79250000D02*
X48881250Y-79250000D01*
X52050000Y-80425000D02*
X52718750Y-79756250D01*
X52050000Y-81450000D02*
X52050000Y-80425000D01*
X54562500Y-79750000D02*
X54556250Y-79756250D01*
X56250000Y-79750000D02*
X54562500Y-79750000D01*
X44000000Y-64660000D02*
X44000000Y-64090000D01*
X44000000Y-64090000D02*
X43700000Y-63790000D01*
X52550000Y-65000000D02*
X53050000Y-65000000D01*
X53050000Y-64550000D02*
X52850000Y-64350000D01*
X52550000Y-64550000D02*
X52750000Y-64350000D01*
X53050000Y-65000000D02*
X53050000Y-64550000D01*
X52850000Y-64350000D02*
X52800000Y-64350000D01*
X52750000Y-64350000D02*
X52800000Y-64350000D01*
X52550000Y-65000000D02*
X52550000Y-64550000D01*
X53740000Y-63580000D02*
X54680000Y-63580000D01*
X54680000Y-63580000D02*
X54690000Y-63590000D01*
X53740000Y-63580000D02*
X53740000Y-62790000D01*
X53740000Y-62790000D02*
X53950000Y-62580000D01*
X47350000Y-72850000D02*
X47100000Y-72600000D01*
X47100000Y-72600000D02*
X47086490Y-72600000D01*
X47350000Y-73250000D02*
X47350000Y-72850000D01*
X45350000Y-74750000D02*
X47350000Y-74750000D01*
X45300000Y-74800000D02*
X45350000Y-74750000D01*
X45200000Y-74900000D02*
X45300000Y-74800000D01*
X43850000Y-74900000D02*
X45200000Y-74900000D01*
X45200000Y-77500000D02*
X45300000Y-77600000D01*
X43850000Y-77500000D02*
X45200000Y-77500000D01*
X45625001Y-77274999D02*
X45300000Y-77600000D01*
X47350000Y-77250000D02*
X47325001Y-77274999D01*
X47325001Y-77274999D02*
X45625001Y-77274999D01*
X57550000Y-76250000D02*
X58000000Y-75800000D01*
X56250000Y-76250000D02*
X57550000Y-76250000D01*
D40*
X70050000Y-71545000D02*
X70045000Y-71545000D01*
X70045000Y-71545000D02*
X70000000Y-71500000D01*
X70050000Y-73955000D02*
X70050000Y-73950000D01*
X70050000Y-73950000D02*
X70100000Y-73900000D01*
X70050000Y-71550000D02*
X70000000Y-71500000D01*
X70050000Y-73955000D02*
X70050000Y-71550000D01*
X68534315Y-84600000D02*
X67600000Y-85534315D01*
X69100000Y-84600000D02*
X68534315Y-84600000D01*
X67600000Y-85534315D02*
X67600000Y-88500000D01*
X68370000Y-89270000D02*
X70400000Y-89270000D01*
X67600000Y-88500000D02*
X68370000Y-89270000D01*
X33500000Y-88250000D02*
X33500000Y-87100000D01*
X34520000Y-89270000D02*
X33500000Y-88250000D01*
X34575000Y-83100000D02*
X34575000Y-84850000D01*
X33500000Y-85925000D02*
X33500000Y-87100000D01*
X34575000Y-84850000D02*
X33500000Y-85925000D01*
X37689999Y-74900001D02*
X36500000Y-73710002D01*
X36500000Y-73710002D02*
X36500000Y-73450000D01*
X42950000Y-74900000D02*
X37689999Y-74900001D01*
X40990000Y-77460000D02*
X37490000Y-77460000D01*
D38*
X51550000Y-63770000D02*
X51550000Y-65000000D01*
X51740000Y-63580000D02*
X51550000Y-63770000D01*
D40*
X36500000Y-73189998D02*
X34810002Y-71500000D01*
X36500000Y-73450000D02*
X36500000Y-73189998D01*
X34810002Y-71500000D02*
X31500000Y-71500000D01*
X31500000Y-71500000D02*
X30700000Y-70700000D01*
X30700000Y-70700000D02*
X30700000Y-65000000D01*
X46000000Y-63535000D02*
X46000000Y-64660000D01*
X45554999Y-63089999D02*
X46000000Y-63535000D01*
X32610001Y-63089999D02*
X45554999Y-63089999D01*
X30700000Y-65000000D02*
X32610001Y-63089999D01*
X50695000Y-63535000D02*
X47000000Y-63535000D01*
X46000000Y-64535000D02*
X46000000Y-64660000D01*
X50740000Y-63580000D02*
X50695000Y-63535000D01*
X47000000Y-63535000D02*
X46000000Y-64535000D01*
X51740000Y-63580000D02*
X50740000Y-63580000D01*
X52315001Y-61879999D02*
X51740000Y-62455000D01*
X55679999Y-61879999D02*
X52315001Y-61879999D01*
X51740000Y-62455000D02*
X51740000Y-63580000D01*
X58600000Y-66700000D02*
X58600000Y-64800000D01*
X58600000Y-64800000D02*
X55679999Y-61879999D01*
X45300000Y-83350000D02*
X45300000Y-89200000D01*
X70400000Y-89270000D02*
X45300000Y-89200000D01*
X45300000Y-89200000D02*
X43114193Y-89214193D01*
D39*
X49777629Y-82229629D02*
X49777629Y-82486500D01*
X49550000Y-81450000D02*
X49550000Y-82002000D01*
X49550000Y-82002000D02*
X49777629Y-82229629D01*
X49336900Y-85563100D02*
X48963100Y-85563100D01*
X46750000Y-83350000D02*
X45300000Y-83350000D01*
X48963100Y-85563100D02*
X46750000Y-83350000D01*
X51587701Y-82813501D02*
X51487100Y-82712900D01*
X54238499Y-82813501D02*
X51587701Y-82813501D01*
X55050000Y-81450000D02*
X55050000Y-82002000D01*
X55050000Y-82002000D02*
X54238499Y-82813501D01*
D40*
X45825192Y-68625192D02*
X47100000Y-69900000D01*
X46000000Y-64660000D02*
X45825192Y-64834808D01*
X45825192Y-64834808D02*
X45825192Y-68625192D01*
D38*
X50350000Y-69500000D02*
X49850000Y-69500000D01*
X50600000Y-69750000D02*
X50350000Y-69500000D01*
X52050000Y-71889998D02*
X51935003Y-71775001D01*
X51935003Y-71775001D02*
X50800003Y-71775001D01*
X50800003Y-71775001D02*
X50600000Y-71574998D01*
X52050000Y-72550000D02*
X52050000Y-71889998D01*
X50600000Y-71574998D02*
X50600000Y-69750000D01*
D39*
X53886499Y-71861499D02*
X53625000Y-71600000D01*
X54913499Y-71861499D02*
X53886499Y-71861499D01*
X55050000Y-72550000D02*
X55050000Y-71998000D01*
X55050000Y-71998000D02*
X54913499Y-71861499D01*
D38*
X47950000Y-64900000D02*
X47950000Y-64850000D01*
X47950000Y-64850000D02*
X47900000Y-64800000D01*
D40*
X40729678Y-89229678D02*
X34520000Y-89270000D01*
X58600000Y-66700000D02*
X60500000Y-66700000D01*
X62000000Y-67100000D02*
X61600000Y-66700000D01*
X61600000Y-66700000D02*
X60500000Y-66700000D01*
X59063998Y-75800000D02*
X62000000Y-72863998D01*
X62000000Y-72863998D02*
X62000000Y-67100000D01*
X58000000Y-75800000D02*
X59063998Y-75800000D01*
D38*
X58300000Y-79100000D02*
X58400000Y-79200000D01*
X57600000Y-79100000D02*
X58300000Y-79100000D01*
X56250000Y-78750000D02*
X57250000Y-78750000D01*
X57250000Y-78750000D02*
X57600000Y-79100000D01*
X58400000Y-79200000D02*
X60300000Y-79200000D01*
X60300000Y-79200000D02*
X62200000Y-79200000D01*
X64100000Y-79200000D02*
X62200000Y-79200000D01*
D39*
X46597972Y-78750000D02*
X46583855Y-78735883D01*
X47952000Y-71900000D02*
X47600000Y-71900000D01*
X48050000Y-71998000D02*
X47952000Y-71900000D01*
X48050000Y-72550000D02*
X48050000Y-71998000D01*
D38*
X55550000Y-72550000D02*
X55550000Y-72275000D01*
X55550000Y-72275000D02*
X55950000Y-71875000D01*
X58882404Y-71875000D02*
X60190720Y-73183316D01*
X60190720Y-73183316D02*
X60440719Y-73433315D01*
X55950000Y-71875000D02*
X58882404Y-71875000D01*
X61199996Y-75100004D02*
X61199996Y-74800000D01*
X58900000Y-77000000D02*
X59300000Y-77000000D01*
X59300000Y-77000000D02*
X61199996Y-75100004D01*
X47335883Y-78735883D02*
X47350000Y-78750000D01*
X46583855Y-78735883D02*
X47335883Y-78735883D01*
X55550000Y-72550000D02*
X55750000Y-72550000D01*
X55750000Y-72550000D02*
X55800000Y-72500000D01*
D39*
X33850000Y-64950000D02*
X33900000Y-64900000D01*
X42350000Y-68300000D02*
X42350000Y-64900000D01*
X44727000Y-68300000D02*
X42350000Y-68300000D01*
X47350000Y-73750000D02*
X46800698Y-73750000D01*
X46586498Y-73535800D02*
X46586498Y-72859992D01*
X46586498Y-72859992D02*
X46572988Y-72846482D01*
X46800698Y-73750000D02*
X46586498Y-73535800D01*
X46572988Y-70145988D02*
X44727000Y-68300000D01*
X46572988Y-72846482D02*
X46572988Y-70145988D01*
X33850000Y-67173000D02*
X33850000Y-64900000D01*
X33850000Y-68300000D02*
X33850000Y-67173000D01*
X46245977Y-72981934D02*
X46245977Y-71645977D01*
X47350000Y-74250000D02*
X46838237Y-74250000D01*
X46245977Y-71645977D02*
X44700000Y-70100000D01*
X46838237Y-74250000D02*
X46259487Y-73671252D01*
X34523000Y-70100000D02*
X33850000Y-69427000D01*
X46259487Y-72995444D02*
X46245977Y-72981934D01*
X44700000Y-70100000D02*
X34523000Y-70100000D01*
X46259487Y-73671252D02*
X46259487Y-72995444D01*
X33850000Y-69427000D02*
X33850000Y-68300000D01*
D40*
X35400000Y-87100000D02*
X37100000Y-87100000D01*
D38*
X59500000Y-70800000D02*
X59800000Y-70800000D01*
X56400000Y-70800000D02*
X59500000Y-70800000D01*
X60500000Y-70100000D02*
X60500000Y-69175010D01*
X59800000Y-70800000D02*
X60500000Y-70100000D01*
X56400000Y-68900000D02*
X58600000Y-68900000D01*
D40*
X30510000Y-79200000D02*
X31100000Y-79200000D01*
X29260000Y-77950000D02*
X30510000Y-79200000D01*
X29260000Y-76650000D02*
X29260000Y-77950000D01*
X25800000Y-75500000D02*
X28110000Y-75500000D01*
X28110000Y-75500000D02*
X29260000Y-76650000D01*
D38*
X79350000Y-62655000D02*
X80545000Y-62655000D01*
X80545000Y-62655000D02*
X80600000Y-62600000D01*
X79350000Y-70275000D02*
X80425000Y-70275000D01*
X80425000Y-70275000D02*
X80500000Y-70200000D01*
X79350000Y-82845000D02*
X80355000Y-82845000D01*
X80355000Y-82845000D02*
X80400000Y-82800000D01*
X79350000Y-75225000D02*
X80475000Y-75225000D01*
X80475000Y-75225000D02*
X80500000Y-75200000D01*
X79000000Y-86730000D02*
X80570000Y-86730000D01*
X80570000Y-86730000D02*
X80600000Y-86700000D01*
X79000000Y-86730000D02*
X79000000Y-85900000D01*
X79000000Y-85900000D02*
X79100000Y-85800000D01*
D41*
X41705000Y-76856800D02*
X41705000Y-89595000D01*
X27738200Y-76300000D02*
X27100000Y-76300000D01*
X27100000Y-76300000D02*
X25800000Y-76300000D01*
X46687499Y-76275000D02*
X42286800Y-76275000D01*
X47350000Y-76250000D02*
X46712499Y-76250000D01*
X42286800Y-76275000D02*
X41705000Y-76856800D01*
X41300000Y-90000000D02*
X33368200Y-90000000D01*
X46712499Y-76250000D02*
X46687499Y-76275000D01*
X41705000Y-89595000D02*
X41300000Y-90000000D01*
X33368200Y-90000000D02*
X28495000Y-85126800D01*
X28495000Y-77056800D02*
X27738200Y-76300000D01*
X28495000Y-85126800D02*
X28495000Y-77056800D01*
X28045000Y-85313200D02*
X28045000Y-77243200D01*
X47350000Y-76750000D02*
X46712499Y-76750000D01*
X27100000Y-77100000D02*
X25800000Y-77100000D01*
X46687499Y-76725000D02*
X42473200Y-76725000D01*
X28045000Y-77243200D02*
X27901800Y-77100000D01*
X42155000Y-77043200D02*
X42155000Y-89745000D01*
X46712499Y-76750000D02*
X46687499Y-76725000D01*
X41500000Y-90400000D02*
X33131800Y-90400000D01*
X42155000Y-89745000D02*
X41500000Y-90400000D01*
X33131800Y-90400000D02*
X28045000Y-85313200D01*
X42473200Y-76725000D02*
X42155000Y-77043200D01*
X27901800Y-77100000D02*
X27100000Y-77100000D01*
D39*
X100330000Y-71970000D02*
X98480000Y-71970000D01*
X96010000Y-74440000D02*
X92800000Y-74440000D01*
X98480000Y-71970000D02*
X96010000Y-74440000D01*
X99480001Y-75359999D02*
X84440001Y-75359999D01*
X100330000Y-74510000D02*
X99480001Y-75359999D01*
X82035000Y-77765000D02*
X79350000Y-77765000D01*
X84440001Y-75359999D02*
X82035000Y-77765000D01*
X95435000Y-79035000D02*
X79350000Y-79035000D01*
X100330000Y-82130000D02*
X97235000Y-79035000D01*
X97235000Y-79035000D02*
X95435000Y-79035000D01*
X100330000Y-77050000D02*
X84300000Y-77050000D01*
X84300000Y-77050000D02*
X84250000Y-77000000D01*
X81150000Y-74750000D02*
X82600000Y-76200000D01*
X81150000Y-69928000D02*
X81150000Y-74750000D01*
X79350000Y-69005000D02*
X80227000Y-69005000D01*
X80227000Y-69005000D02*
X81150000Y-69928000D01*
X100330000Y-79590000D02*
X98590000Y-77850000D01*
X98590000Y-77850000D02*
X83300000Y-77850000D01*
X79350000Y-76495000D02*
X81445000Y-76495000D01*
X81445000Y-76495000D02*
X82000000Y-77050000D01*
X91553000Y-80030000D02*
X92900000Y-80030000D01*
X90650000Y-80933000D02*
X91553000Y-80030000D01*
X90650000Y-83350000D02*
X90650000Y-80933000D01*
X104750000Y-83300000D02*
X103150000Y-84900000D01*
X104750000Y-78930000D02*
X104750000Y-83300000D01*
X103150000Y-84900000D02*
X92853553Y-84900000D01*
X92853553Y-84900000D02*
X92500000Y-84900000D01*
X102870000Y-77050000D02*
X104750000Y-78930000D01*
X100864481Y-83243501D02*
X99243501Y-83243501D01*
X101756499Y-82351483D02*
X100864481Y-83243501D01*
X102870000Y-79590000D02*
X101756499Y-80703501D01*
X101756499Y-80703501D02*
X101756499Y-82351483D01*
X98570000Y-82570000D02*
X92900000Y-82570000D01*
X99243501Y-83243501D02*
X98570000Y-82570000D01*
D38*
X79350000Y-81575000D02*
X79475000Y-81575000D01*
D40*
X80600000Y-63925000D02*
X83950000Y-67275000D01*
X79350000Y-63925000D02*
X80600000Y-63925000D01*
X83950000Y-67275000D02*
X103375000Y-67275000D01*
X105300000Y-69200000D02*
X105300000Y-80600000D01*
X103375000Y-67275000D02*
X105300000Y-69200000D01*
X80600000Y-81575000D02*
X79350000Y-81575000D01*
X83075001Y-84050001D02*
X80600000Y-81575000D01*
X102299999Y-84050001D02*
X83075001Y-84050001D01*
X102870000Y-83480000D02*
X102299999Y-84050001D01*
X102870000Y-82130000D02*
X102870000Y-83480000D01*
X83075001Y-86914999D02*
X80720000Y-89270000D01*
X80720000Y-89270000D02*
X79000000Y-89270000D01*
X83075001Y-84050001D02*
X83075001Y-86914999D01*
D39*
X47950000Y-67757000D02*
X47950000Y-67100000D01*
X51350000Y-68923000D02*
X50320501Y-67893501D01*
X48086501Y-67893501D02*
X47950000Y-67757000D01*
X50320501Y-67893501D02*
X48086501Y-67893501D01*
X51350000Y-69500000D02*
X51350000Y-68923000D01*
X53050000Y-68177000D02*
X51727000Y-69500000D01*
X51727000Y-69500000D02*
X51350000Y-69500000D01*
X53050000Y-67200000D02*
X53050000Y-68177000D01*
X51350000Y-71000000D02*
X51350000Y-69500000D01*
X46300000Y-80900000D02*
X45750000Y-81450000D01*
X45750000Y-81450000D02*
X45300000Y-81450000D01*
X46300000Y-80248000D02*
X46300000Y-80900000D01*
X47350000Y-79750000D02*
X46798000Y-79750000D01*
X46798000Y-79750000D02*
X46300000Y-80248000D01*
X55550000Y-83350000D02*
X55700000Y-83500000D01*
X55550000Y-81450000D02*
X55550000Y-83350000D01*
X52550000Y-67527000D02*
X52550000Y-67200000D01*
X52550000Y-67550000D02*
X52550000Y-67527000D01*
X52436499Y-67663501D02*
X52550000Y-67550000D01*
X50865501Y-67663501D02*
X52436499Y-67663501D01*
X50302000Y-67100000D02*
X50865501Y-67663501D01*
X49850000Y-67100000D02*
X50302000Y-67100000D01*
X49550000Y-72550000D02*
X49550000Y-71920000D01*
X49850000Y-71620000D02*
X49850000Y-71000000D01*
X49550000Y-71920000D02*
X49850000Y-71620000D01*
X49850000Y-71000000D02*
X49850000Y-70800000D01*
X49850000Y-70800000D02*
X47361500Y-68311500D01*
X47361499Y-66359199D02*
X47414199Y-66306499D01*
X47414199Y-66306499D02*
X49713499Y-66306499D01*
X49713499Y-66306499D02*
X49850000Y-66443000D01*
X47361500Y-68311500D02*
X47361499Y-66359199D01*
X49850000Y-66443000D02*
X49850000Y-67100000D01*
X44177000Y-71650000D02*
X43400000Y-71650000D01*
X44313501Y-73412803D02*
X44313501Y-71786501D01*
X44313501Y-71786501D02*
X44177000Y-71650000D01*
X47350000Y-75750000D02*
X46639110Y-75750000D01*
X46639110Y-75750000D02*
X46594337Y-75705227D01*
X44700698Y-73800000D02*
X44700000Y-73800000D01*
X44700000Y-73800000D02*
X44313501Y-73412803D01*
X44700000Y-73800000D02*
X44749993Y-73849993D01*
X45424535Y-73849993D02*
X45778088Y-73849993D01*
X44749993Y-73849993D02*
X45424535Y-73849993D01*
D38*
X53600000Y-70800000D02*
X54500000Y-70800000D01*
X53050000Y-72550000D02*
X53050000Y-71350000D01*
X53050000Y-71350000D02*
X53600000Y-70800000D01*
X53900000Y-68900000D02*
X54500000Y-68900000D01*
X52550000Y-70250000D02*
X53900000Y-68900000D01*
X52550000Y-72550000D02*
X52550000Y-70250000D01*
D39*
X84300000Y-80030000D02*
X82480000Y-80030000D01*
X82480000Y-80030000D02*
X82050000Y-79600000D01*
X81863107Y-74383340D02*
X81863107Y-74736893D01*
X79350000Y-67735000D02*
X80227000Y-67735000D01*
X80227000Y-67735000D02*
X81863107Y-69371107D01*
X81863107Y-69371107D02*
X81863107Y-74383340D01*
X80227000Y-80305000D02*
X79350000Y-80305000D01*
X80688000Y-80305000D02*
X80227000Y-80305000D01*
X82953000Y-82570000D02*
X80688000Y-80305000D01*
X84300000Y-82570000D02*
X82953000Y-82570000D01*
X80515000Y-66465000D02*
X79350000Y-66465000D01*
X82500000Y-68450000D02*
X80515000Y-66465000D01*
X84200000Y-74440000D02*
X82500000Y-72740000D01*
X82500000Y-72740000D02*
X82500000Y-68450000D01*
X70050000Y-80305000D02*
X68840055Y-80305000D01*
X68840055Y-80305000D02*
X68735055Y-80200000D01*
X66000000Y-80200000D02*
X66400000Y-80200000D01*
X65700000Y-79900000D02*
X66000000Y-80200000D01*
X65700000Y-78900000D02*
X65700000Y-79900000D01*
X56250000Y-78250000D02*
X65050000Y-78250000D01*
X65050000Y-78250000D02*
X65700000Y-78900000D01*
X49108274Y-81508274D02*
X49050000Y-81450000D01*
X49050000Y-82245777D02*
X49103210Y-82298987D01*
X49050000Y-81450000D02*
X49050000Y-82245777D01*
X49108274Y-84608274D02*
X49100000Y-84600000D01*
X68221545Y-82978455D02*
X68221545Y-79986455D01*
X69173000Y-79035000D02*
X70050000Y-79035000D01*
X50500000Y-86000000D02*
X65200000Y-86000000D01*
X68221545Y-79986455D02*
X69173000Y-79035000D01*
X65200000Y-86000000D02*
X68221545Y-82978455D01*
X49100000Y-84600000D02*
X50500000Y-86000000D01*
X48050000Y-81450000D02*
X48050000Y-82699240D01*
X48050000Y-82699240D02*
X48062689Y-82711929D01*
X48653561Y-83900000D02*
X48300008Y-83900000D01*
X49300000Y-83900000D02*
X48653561Y-83900000D01*
X51000000Y-85600000D02*
X49300000Y-83900000D01*
X65087380Y-85600000D02*
X64900000Y-85600000D01*
X64900000Y-85600000D02*
X51000000Y-85600000D01*
X70050000Y-77765000D02*
X69173000Y-77765000D01*
X69173000Y-77765000D02*
X67894534Y-79043466D01*
X67894534Y-79043466D02*
X67894534Y-82830387D01*
X67894534Y-82830387D02*
X65124921Y-85600000D01*
X65124921Y-85600000D02*
X64900000Y-85600000D01*
X70050000Y-76495000D02*
X69229918Y-76495000D01*
X47926514Y-83386498D02*
X49686498Y-83386498D01*
X47350000Y-82809984D02*
X47926514Y-83386498D01*
X51500000Y-85200000D02*
X65062459Y-85200000D01*
X49686498Y-83386498D02*
X51500000Y-85200000D01*
X67567523Y-82694936D02*
X67567523Y-78100477D01*
X67567523Y-78100477D02*
X69173000Y-76495000D01*
X69173000Y-76495000D02*
X70050000Y-76495000D01*
X65062459Y-85200000D02*
X67567523Y-82694936D01*
X47350000Y-80750000D02*
X47350000Y-82809984D01*
X48900000Y-65557000D02*
X48900000Y-64900000D01*
X49036501Y-65693501D02*
X48900000Y-65557000D01*
X50370501Y-65693501D02*
X49036501Y-65693501D01*
X51550000Y-66873000D02*
X50370501Y-65693501D01*
X51550000Y-67200000D02*
X51550000Y-66873000D01*
X48550000Y-70424922D02*
X46525193Y-68400115D01*
X48550000Y-72550000D02*
X48550000Y-70424922D01*
X46525193Y-66511645D02*
X46525193Y-66158092D01*
X46525193Y-68400115D02*
X46525193Y-66511645D01*
X52050000Y-66873000D02*
X52050000Y-67200000D01*
X52050000Y-66648000D02*
X52050000Y-66873000D01*
X50302000Y-64900000D02*
X52050000Y-66648000D01*
X49850000Y-64900000D02*
X50302000Y-64900000D01*
X49713499Y-64106499D02*
X49143501Y-64106499D01*
X49850000Y-64243000D02*
X49713499Y-64106499D01*
X49850000Y-64900000D02*
X49850000Y-64243000D01*
X49143501Y-64106499D02*
X49435801Y-64106499D01*
X47034489Y-66223747D02*
X47043502Y-66214734D01*
X49050000Y-70462460D02*
X47034489Y-68446949D01*
X47034489Y-68446949D02*
X47034489Y-66223747D01*
X47043502Y-66214734D02*
X47043502Y-64477196D01*
X47043502Y-64477196D02*
X47414199Y-64106499D01*
X47414199Y-64106499D02*
X49143501Y-64106499D01*
X49050000Y-72550000D02*
X49050000Y-70462460D01*
X56250000Y-77250000D02*
X56250000Y-76750000D01*
X70050000Y-67735000D02*
X68165000Y-67735000D01*
X68165000Y-67735000D02*
X68100000Y-67800000D01*
X66600000Y-68272996D02*
X66872988Y-68000008D01*
X66600000Y-76200000D02*
X66600000Y-68272996D01*
X56250000Y-77750000D02*
X65050000Y-77750000D01*
X65050000Y-77750000D02*
X66600000Y-76200000D01*
X52461501Y-84413501D02*
X50050000Y-82002000D01*
X66913501Y-82386497D02*
X64886497Y-84413501D01*
X50050000Y-82002000D02*
X50050000Y-81450000D01*
X67400000Y-76200000D02*
X66913501Y-76686499D01*
X64886497Y-84413501D02*
X52461501Y-84413501D01*
X68535000Y-66465000D02*
X67413502Y-67586498D01*
X67400000Y-70059984D02*
X67400000Y-76200000D01*
X66913501Y-76686499D02*
X66913501Y-82386497D01*
X70050000Y-66465000D02*
X68535000Y-66465000D01*
X67413502Y-67586498D02*
X67413502Y-70046482D01*
X67413502Y-70046482D02*
X67400000Y-70059984D01*
X50059984Y-83000000D02*
X50000000Y-83000000D01*
X48550000Y-82550000D02*
X48550000Y-82002000D01*
X49000000Y-83000000D02*
X48550000Y-82550000D01*
X50059984Y-83000000D02*
X49000000Y-83000000D01*
X48550000Y-82002000D02*
X48550000Y-81450000D01*
X65000000Y-84800000D02*
X67240512Y-82559488D01*
X67240512Y-77459488D02*
X67900000Y-76800000D01*
X69173000Y-69005000D02*
X70050000Y-69005000D01*
X50059984Y-83000000D02*
X51859984Y-84800000D01*
X67900000Y-76800000D02*
X67900000Y-69800000D01*
X67900000Y-69800000D02*
X68695000Y-69005000D01*
X51859984Y-84800000D02*
X65000000Y-84800000D01*
X67240512Y-82559488D02*
X67240512Y-77459488D01*
X68695000Y-69005000D02*
X69173000Y-69005000D01*
D42*
G36*
X34526250Y-72564180D02*
G01*
X34630076Y-72578348D01*
X34641575Y-72583151D01*
X34886452Y-72828029D01*
X34891372Y-72839830D01*
X34905468Y-72943666D01*
X34911532Y-74180751D01*
X34898061Y-74286215D01*
X34860771Y-74376687D01*
X34801171Y-74454302D01*
X34716659Y-74518822D01*
X32830262Y-75599137D01*
X32732749Y-75639141D01*
X32628217Y-75652567D01*
X30007174Y-75644550D01*
X29902826Y-75630515D01*
X29813389Y-75593229D01*
X29736620Y-75534104D01*
X29677729Y-75457153D01*
X29640715Y-75367599D01*
X29627000Y-75263217D01*
X29627000Y-74735762D01*
X29640680Y-74631515D01*
X29677602Y-74542057D01*
X29736351Y-74465156D01*
X29812955Y-74406015D01*
X29902224Y-74368640D01*
X29943049Y-74363072D01*
X30500000Y-74363072D01*
X30619331Y-74351319D01*
X30970412Y-74349537D01*
X30986987Y-74348366D01*
X31116347Y-74330662D01*
X31148338Y-74321913D01*
X31268703Y-74271321D01*
X31297335Y-74254590D01*
X31400499Y-74174562D01*
X31423824Y-74150987D01*
X31502752Y-74046978D01*
X31519179Y-74018168D01*
X31568488Y-73897271D01*
X31576896Y-73865191D01*
X31593224Y-73735650D01*
X31594219Y-73719062D01*
X31589854Y-72933281D01*
X31603231Y-72827902D01*
X31640396Y-72737471D01*
X31699841Y-72659856D01*
X31777466Y-72600409D01*
X31867892Y-72563251D01*
X31973277Y-72549878D01*
X34526250Y-72564180D01*
G37*
X34526250Y-72564180D02*
X34630076Y-72578348D01*
X34641575Y-72583151D01*
X34886452Y-72828029D01*
X34891372Y-72839830D01*
X34905468Y-72943666D01*
X34911532Y-74180751D01*
X34898061Y-74286215D01*
X34860771Y-74376687D01*
X34801171Y-74454302D01*
X34716659Y-74518822D01*
X32830262Y-75599137D01*
X32732749Y-75639141D01*
X32628217Y-75652567D01*
X30007174Y-75644550D01*
X29902826Y-75630515D01*
X29813389Y-75593229D01*
X29736620Y-75534104D01*
X29677729Y-75457153D01*
X29640715Y-75367599D01*
X29627000Y-75263217D01*
X29627000Y-74735762D01*
X29640680Y-74631515D01*
X29677602Y-74542057D01*
X29736351Y-74465156D01*
X29812955Y-74406015D01*
X29902224Y-74368640D01*
X29943049Y-74363072D01*
X30500000Y-74363072D01*
X30619331Y-74351319D01*
X30970412Y-74349537D01*
X30986987Y-74348366D01*
X31116347Y-74330662D01*
X31148338Y-74321913D01*
X31268703Y-74271321D01*
X31297335Y-74254590D01*
X31400499Y-74174562D01*
X31423824Y-74150987D01*
X31502752Y-74046978D01*
X31519179Y-74018168D01*
X31568488Y-73897271D01*
X31576896Y-73865191D01*
X31593224Y-73735650D01*
X31594219Y-73719062D01*
X31589854Y-72933281D01*
X31603231Y-72827902D01*
X31640396Y-72737471D01*
X31699841Y-72659856D01*
X31777466Y-72600409D01*
X31867892Y-72563251D01*
X31973277Y-72549878D01*
X34526250Y-72564180D01*
G36*
X36916257Y-72620769D02*
G01*
X37005955Y-72657923D01*
X37082976Y-72717024D01*
X37142077Y-72794045D01*
X37179231Y-72883743D01*
X37193000Y-72988328D01*
X37193000Y-74442376D01*
X37194146Y-74459397D01*
X37212109Y-74592215D01*
X37215526Y-74608930D01*
X38336960Y-78678963D01*
X38352626Y-78796939D01*
X38344649Y-80448178D01*
X38326872Y-80564752D01*
X38280235Y-80662711D01*
X38207288Y-80743029D01*
X38106180Y-80803699D01*
X36176770Y-81605728D01*
X36160212Y-81614078D01*
X36035317Y-81688961D01*
X36006702Y-81712397D01*
X35908680Y-81820092D01*
X35888031Y-81850781D01*
X35825199Y-81982152D01*
X35814269Y-82017489D01*
X35791955Y-82161393D01*
X35790459Y-82179876D01*
X35776885Y-83944588D01*
X35762450Y-84048557D01*
X35724961Y-84137607D01*
X35665800Y-84213995D01*
X35588964Y-84272563D01*
X35499629Y-84309365D01*
X35395549Y-84323000D01*
X33778328Y-84323000D01*
X33673743Y-84309231D01*
X33584045Y-84272077D01*
X33507024Y-84212976D01*
X33447923Y-84135955D01*
X33410769Y-84046257D01*
X33397000Y-83941672D01*
X33397000Y-82009999D01*
X33429067Y-81845903D01*
X34656900Y-78824283D01*
X34659437Y-78817491D01*
X34677865Y-78763492D01*
X34680009Y-78756568D01*
X35843300Y-74582409D01*
X35846876Y-74564891D01*
X35865205Y-74425662D01*
X35866285Y-74407816D01*
X35852128Y-72992102D01*
X35865016Y-72886746D01*
X35901726Y-72796206D01*
X35960747Y-72718353D01*
X36038008Y-72658555D01*
X36128174Y-72620943D01*
X36233404Y-72607000D01*
X36811672Y-72607000D01*
X36916257Y-72620769D01*
G37*
X36916257Y-72620769D02*
X37005955Y-72657923D01*
X37082976Y-72717024D01*
X37142077Y-72794045D01*
X37179231Y-72883743D01*
X37193000Y-72988328D01*
X37193000Y-74442376D01*
X37194146Y-74459397D01*
X37212109Y-74592215D01*
X37215526Y-74608930D01*
X38336960Y-78678963D01*
X38352626Y-78796939D01*
X38344649Y-80448178D01*
X38326872Y-80564752D01*
X38280235Y-80662711D01*
X38207288Y-80743029D01*
X38106180Y-80803699D01*
X36176770Y-81605728D01*
X36160212Y-81614078D01*
X36035317Y-81688961D01*
X36006702Y-81712397D01*
X35908680Y-81820092D01*
X35888031Y-81850781D01*
X35825199Y-81982152D01*
X35814269Y-82017489D01*
X35791955Y-82161393D01*
X35790459Y-82179876D01*
X35776885Y-83944588D01*
X35762450Y-84048557D01*
X35724961Y-84137607D01*
X35665800Y-84213995D01*
X35588964Y-84272563D01*
X35499629Y-84309365D01*
X35395549Y-84323000D01*
X33778328Y-84323000D01*
X33673743Y-84309231D01*
X33584045Y-84272077D01*
X33507024Y-84212976D01*
X33447923Y-84135955D01*
X33410769Y-84046257D01*
X33397000Y-83941672D01*
X33397000Y-82009999D01*
X33429067Y-81845903D01*
X34656900Y-78824283D01*
X34659437Y-78817491D01*
X34677865Y-78763492D01*
X34680009Y-78756568D01*
X35843300Y-74582409D01*
X35846876Y-74564891D01*
X35865205Y-74425662D01*
X35866285Y-74407816D01*
X35852128Y-72992102D01*
X35865016Y-72886746D01*
X35901726Y-72796206D01*
X35960747Y-72718353D01*
X36038008Y-72658555D01*
X36128174Y-72620943D01*
X36233404Y-72607000D01*
X36811672Y-72607000D01*
X36916257Y-72620769D01*
M02*
