G04 #@! TF.GenerationSoftware,KiCad,Pcbnew,(5.1.4)-1*
G04 #@! TF.CreationDate,2019-08-28T01:11:50-07:00*
G04 #@! TF.ProjectId,ESC Drivetrain V1,45534320-4472-4697-9665-747261696e20,rev?*
G04 #@! TF.SameCoordinates,Original*
G04 #@! TF.FileFunction,Paste,Bot*
G04 #@! TF.FilePolarity,Positive*
%FSLAX46Y46*%
G04 Gerber Fmt 4.6, Leading zero omitted, Abs format (unit mm)*
G04 Created by KiCad (PCBNEW (5.1.4)-1) date 2019-08-28 01:11:50*
%MOMM*%
%LPD*%
G04 APERTURE LIST*
%ADD10C,0.100000*%
%ADD11C,0.500000*%
%ADD12C,0.600000*%
%ADD13C,0.800000*%
%ADD14R,0.800000X0.750000*%
%ADD15R,1.250000X1.000000*%
%ADD16R,3.200000X1.000000*%
G04 APERTURE END LIST*
D10*
G36*
X137909901Y-112500241D02*
G01*
X137914755Y-112500961D01*
X137919514Y-112502153D01*
X137924134Y-112503806D01*
X137928570Y-112505904D01*
X137932779Y-112508427D01*
X137936720Y-112511349D01*
X137940355Y-112514645D01*
X137943651Y-112518280D01*
X137946573Y-112522221D01*
X137949096Y-112526430D01*
X137951194Y-112530866D01*
X137952847Y-112535486D01*
X137954039Y-112540245D01*
X137954759Y-112545099D01*
X137955000Y-112550000D01*
X137955000Y-113950000D01*
X137954759Y-113954901D01*
X137954039Y-113959755D01*
X137952847Y-113964514D01*
X137951194Y-113969134D01*
X137949096Y-113973570D01*
X137946573Y-113977779D01*
X137943651Y-113981720D01*
X137940355Y-113985355D01*
X137936720Y-113988651D01*
X137932779Y-113991573D01*
X137928570Y-113994096D01*
X137924134Y-113996194D01*
X137919514Y-113997847D01*
X137914755Y-113999039D01*
X137909901Y-113999759D01*
X137905000Y-114000000D01*
X137505000Y-114000000D01*
X137500099Y-113999759D01*
X137495245Y-113999039D01*
X137490486Y-113997847D01*
X137485866Y-113996194D01*
X137481430Y-113994096D01*
X137477221Y-113991573D01*
X137473280Y-113988651D01*
X137469645Y-113985355D01*
X137466349Y-113981720D01*
X137463427Y-113977779D01*
X137460904Y-113973570D01*
X137458806Y-113969134D01*
X137457153Y-113964514D01*
X137455961Y-113959755D01*
X137455241Y-113954901D01*
X137455000Y-113950000D01*
X137455000Y-112550000D01*
X137455241Y-112545099D01*
X137455961Y-112540245D01*
X137457153Y-112535486D01*
X137458806Y-112530866D01*
X137460904Y-112526430D01*
X137463427Y-112522221D01*
X137466349Y-112518280D01*
X137469645Y-112514645D01*
X137473280Y-112511349D01*
X137477221Y-112508427D01*
X137481430Y-112505904D01*
X137485866Y-112503806D01*
X137490486Y-112502153D01*
X137495245Y-112500961D01*
X137500099Y-112500241D01*
X137505000Y-112500000D01*
X137905000Y-112500000D01*
X137909901Y-112500241D01*
X137909901Y-112500241D01*
G37*
D11*
X137705000Y-113250000D03*
D10*
G36*
X136945881Y-112500289D02*
G01*
X136951705Y-112501153D01*
X136957417Y-112502584D01*
X136962961Y-112504567D01*
X136968284Y-112507085D01*
X136973334Y-112510112D01*
X136978064Y-112513619D01*
X136982426Y-112517574D01*
X136986381Y-112521936D01*
X136989888Y-112526666D01*
X136992915Y-112531716D01*
X136995433Y-112537039D01*
X136997416Y-112542583D01*
X136998847Y-112548295D01*
X136999711Y-112554119D01*
X137000000Y-112560000D01*
X137000000Y-113040000D01*
X136999711Y-113045881D01*
X136998847Y-113051705D01*
X136997416Y-113057417D01*
X136995433Y-113062961D01*
X136992915Y-113068284D01*
X136989888Y-113073334D01*
X136986381Y-113078064D01*
X136982426Y-113082426D01*
X136978064Y-113086381D01*
X136973334Y-113089888D01*
X136968284Y-113092915D01*
X136962961Y-113095433D01*
X136957417Y-113097416D01*
X136951705Y-113098847D01*
X136945881Y-113099711D01*
X136940000Y-113100000D01*
X133660000Y-113100000D01*
X133654119Y-113099711D01*
X133648295Y-113098847D01*
X133642583Y-113097416D01*
X133637039Y-113095433D01*
X133631716Y-113092915D01*
X133626666Y-113089888D01*
X133621936Y-113086381D01*
X133617574Y-113082426D01*
X133613619Y-113078064D01*
X133610112Y-113073334D01*
X133607085Y-113068284D01*
X133604567Y-113062961D01*
X133602584Y-113057417D01*
X133601153Y-113051705D01*
X133600289Y-113045881D01*
X133600000Y-113040000D01*
X133600000Y-112560000D01*
X133600289Y-112554119D01*
X133601153Y-112548295D01*
X133602584Y-112542583D01*
X133604567Y-112537039D01*
X133607085Y-112531716D01*
X133610112Y-112526666D01*
X133613619Y-112521936D01*
X133617574Y-112517574D01*
X133621936Y-112513619D01*
X133626666Y-112510112D01*
X133631716Y-112507085D01*
X133637039Y-112504567D01*
X133642583Y-112502584D01*
X133648295Y-112501153D01*
X133654119Y-112500289D01*
X133660000Y-112500000D01*
X136940000Y-112500000D01*
X136945881Y-112500289D01*
X136945881Y-112500289D01*
G37*
D12*
X135300000Y-112800000D03*
D11*
X135800000Y-115950000D03*
D10*
G36*
X133590245Y-116249039D02*
G01*
X133580866Y-116246194D01*
X133572221Y-116241573D01*
X133564645Y-116235355D01*
X133558427Y-116227779D01*
X133553806Y-116219134D01*
X133550961Y-116209755D01*
X133550000Y-116200000D01*
X133550000Y-113600000D01*
X133550961Y-113590245D01*
X133553806Y-113580866D01*
X133558427Y-113572221D01*
X133564645Y-113564645D01*
X133572221Y-113558427D01*
X133580866Y-113553806D01*
X133590245Y-113550961D01*
X133600000Y-113550000D01*
X137000000Y-113550000D01*
X137009755Y-113550961D01*
X137019134Y-113553806D01*
X137027779Y-113558427D01*
X137035355Y-113564645D01*
X137041573Y-113572221D01*
X137046194Y-113580866D01*
X137049039Y-113590245D01*
X137050000Y-113600000D01*
X137050000Y-114550000D01*
X138000000Y-114550000D01*
X138009755Y-114550961D01*
X138019134Y-114553806D01*
X138027779Y-114558427D01*
X138035355Y-114564645D01*
X138041573Y-114572221D01*
X138046194Y-114580866D01*
X138049039Y-114590245D01*
X138050000Y-114600000D01*
X138050000Y-116200000D01*
X138049039Y-116209755D01*
X138046194Y-116219134D01*
X138041573Y-116227779D01*
X138035355Y-116235355D01*
X138027779Y-116241573D01*
X138019134Y-116246194D01*
X138009755Y-116249039D01*
X138000000Y-116250000D01*
X133600000Y-116250000D01*
X133590245Y-116249039D01*
X133590245Y-116249039D01*
G37*
G36*
X138013921Y-116820193D02*
G01*
X138017804Y-116820769D01*
X138021611Y-116821722D01*
X138025307Y-116823045D01*
X138028856Y-116824723D01*
X138032223Y-116826741D01*
X138035376Y-116829080D01*
X138038284Y-116831716D01*
X138040920Y-116834624D01*
X138043259Y-116837777D01*
X138045277Y-116841144D01*
X138046955Y-116844693D01*
X138048278Y-116848389D01*
X138049231Y-116852196D01*
X138049807Y-116856079D01*
X138050000Y-116860000D01*
X138050000Y-117580000D01*
X138049807Y-117583921D01*
X138049231Y-117587804D01*
X138048278Y-117591611D01*
X138046955Y-117595307D01*
X138045277Y-117598856D01*
X138043259Y-117602223D01*
X138040920Y-117605376D01*
X138038284Y-117608284D01*
X138035376Y-117610920D01*
X138032223Y-117613259D01*
X138028856Y-117615277D01*
X138025307Y-117616955D01*
X138021611Y-117618278D01*
X138017804Y-117619231D01*
X138013921Y-117619807D01*
X138010000Y-117620000D01*
X133590000Y-117620000D01*
X133586079Y-117619807D01*
X133582196Y-117619231D01*
X133578389Y-117618278D01*
X133574693Y-117616955D01*
X133571144Y-117615277D01*
X133567777Y-117613259D01*
X133564624Y-117610920D01*
X133561716Y-117608284D01*
X133559080Y-117605376D01*
X133556741Y-117602223D01*
X133554723Y-117598856D01*
X133553045Y-117595307D01*
X133551722Y-117591611D01*
X133550769Y-117587804D01*
X133550193Y-117583921D01*
X133550000Y-117580000D01*
X133550000Y-116860000D01*
X133550193Y-116856079D01*
X133550769Y-116852196D01*
X133551722Y-116848389D01*
X133553045Y-116844693D01*
X133554723Y-116841144D01*
X133556741Y-116837777D01*
X133559080Y-116834624D01*
X133561716Y-116831716D01*
X133564624Y-116829080D01*
X133567777Y-116826741D01*
X133571144Y-116824723D01*
X133574693Y-116823045D01*
X133578389Y-116821722D01*
X133582196Y-116820769D01*
X133586079Y-116820193D01*
X133590000Y-116820000D01*
X138010000Y-116820000D01*
X138013921Y-116820193D01*
X138013921Y-116820193D01*
G37*
D13*
X135800000Y-117220000D03*
D10*
G36*
X137909901Y-118096241D02*
G01*
X137914755Y-118096961D01*
X137919514Y-118098153D01*
X137924134Y-118099806D01*
X137928570Y-118101904D01*
X137932779Y-118104427D01*
X137936720Y-118107349D01*
X137940355Y-118110645D01*
X137943651Y-118114280D01*
X137946573Y-118118221D01*
X137949096Y-118122430D01*
X137951194Y-118126866D01*
X137952847Y-118131486D01*
X137954039Y-118136245D01*
X137954759Y-118141099D01*
X137955000Y-118146000D01*
X137955000Y-118746000D01*
X137954759Y-118750901D01*
X137954039Y-118755755D01*
X137952847Y-118760514D01*
X137951194Y-118765134D01*
X137949096Y-118769570D01*
X137946573Y-118773779D01*
X137943651Y-118777720D01*
X137940355Y-118781355D01*
X137936720Y-118784651D01*
X137932779Y-118787573D01*
X137928570Y-118790096D01*
X137924134Y-118792194D01*
X137919514Y-118793847D01*
X137914755Y-118795039D01*
X137909901Y-118795759D01*
X137905000Y-118796000D01*
X137505000Y-118796000D01*
X137500099Y-118795759D01*
X137495245Y-118795039D01*
X137490486Y-118793847D01*
X137485866Y-118792194D01*
X137481430Y-118790096D01*
X137477221Y-118787573D01*
X137473280Y-118784651D01*
X137469645Y-118781355D01*
X137466349Y-118777720D01*
X137463427Y-118773779D01*
X137460904Y-118769570D01*
X137458806Y-118765134D01*
X137457153Y-118760514D01*
X137455961Y-118755755D01*
X137455241Y-118750901D01*
X137455000Y-118746000D01*
X137455000Y-118146000D01*
X137455241Y-118141099D01*
X137455961Y-118136245D01*
X137457153Y-118131486D01*
X137458806Y-118126866D01*
X137460904Y-118122430D01*
X137463427Y-118118221D01*
X137466349Y-118114280D01*
X137469645Y-118110645D01*
X137473280Y-118107349D01*
X137477221Y-118104427D01*
X137481430Y-118101904D01*
X137485866Y-118099806D01*
X137490486Y-118098153D01*
X137495245Y-118096961D01*
X137500099Y-118096241D01*
X137505000Y-118096000D01*
X137905000Y-118096000D01*
X137909901Y-118096241D01*
X137909901Y-118096241D01*
G37*
D11*
X137705000Y-118446000D03*
D10*
G36*
X134099901Y-118096241D02*
G01*
X134104755Y-118096961D01*
X134109514Y-118098153D01*
X134114134Y-118099806D01*
X134118570Y-118101904D01*
X134122779Y-118104427D01*
X134126720Y-118107349D01*
X134130355Y-118110645D01*
X134133651Y-118114280D01*
X134136573Y-118118221D01*
X134139096Y-118122430D01*
X134141194Y-118126866D01*
X134142847Y-118131486D01*
X134144039Y-118136245D01*
X134144759Y-118141099D01*
X134145000Y-118146000D01*
X134145000Y-118746000D01*
X134144759Y-118750901D01*
X134144039Y-118755755D01*
X134142847Y-118760514D01*
X134141194Y-118765134D01*
X134139096Y-118769570D01*
X134136573Y-118773779D01*
X134133651Y-118777720D01*
X134130355Y-118781355D01*
X134126720Y-118784651D01*
X134122779Y-118787573D01*
X134118570Y-118790096D01*
X134114134Y-118792194D01*
X134109514Y-118793847D01*
X134104755Y-118795039D01*
X134099901Y-118795759D01*
X134095000Y-118796000D01*
X133695000Y-118796000D01*
X133690099Y-118795759D01*
X133685245Y-118795039D01*
X133680486Y-118793847D01*
X133675866Y-118792194D01*
X133671430Y-118790096D01*
X133667221Y-118787573D01*
X133663280Y-118784651D01*
X133659645Y-118781355D01*
X133656349Y-118777720D01*
X133653427Y-118773779D01*
X133650904Y-118769570D01*
X133648806Y-118765134D01*
X133647153Y-118760514D01*
X133645961Y-118755755D01*
X133645241Y-118750901D01*
X133645000Y-118746000D01*
X133645000Y-118146000D01*
X133645241Y-118141099D01*
X133645961Y-118136245D01*
X133647153Y-118131486D01*
X133648806Y-118126866D01*
X133650904Y-118122430D01*
X133653427Y-118118221D01*
X133656349Y-118114280D01*
X133659645Y-118110645D01*
X133663280Y-118107349D01*
X133667221Y-118104427D01*
X133671430Y-118101904D01*
X133675866Y-118099806D01*
X133680486Y-118098153D01*
X133685245Y-118096961D01*
X133690099Y-118096241D01*
X133695000Y-118096000D01*
X134095000Y-118096000D01*
X134099901Y-118096241D01*
X134099901Y-118096241D01*
G37*
D11*
X133895000Y-118446000D03*
D10*
G36*
X136639901Y-118096241D02*
G01*
X136644755Y-118096961D01*
X136649514Y-118098153D01*
X136654134Y-118099806D01*
X136658570Y-118101904D01*
X136662779Y-118104427D01*
X136666720Y-118107349D01*
X136670355Y-118110645D01*
X136673651Y-118114280D01*
X136676573Y-118118221D01*
X136679096Y-118122430D01*
X136681194Y-118126866D01*
X136682847Y-118131486D01*
X136684039Y-118136245D01*
X136684759Y-118141099D01*
X136685000Y-118146000D01*
X136685000Y-118746000D01*
X136684759Y-118750901D01*
X136684039Y-118755755D01*
X136682847Y-118760514D01*
X136681194Y-118765134D01*
X136679096Y-118769570D01*
X136676573Y-118773779D01*
X136673651Y-118777720D01*
X136670355Y-118781355D01*
X136666720Y-118784651D01*
X136662779Y-118787573D01*
X136658570Y-118790096D01*
X136654134Y-118792194D01*
X136649514Y-118793847D01*
X136644755Y-118795039D01*
X136639901Y-118795759D01*
X136635000Y-118796000D01*
X136235000Y-118796000D01*
X136230099Y-118795759D01*
X136225245Y-118795039D01*
X136220486Y-118793847D01*
X136215866Y-118792194D01*
X136211430Y-118790096D01*
X136207221Y-118787573D01*
X136203280Y-118784651D01*
X136199645Y-118781355D01*
X136196349Y-118777720D01*
X136193427Y-118773779D01*
X136190904Y-118769570D01*
X136188806Y-118765134D01*
X136187153Y-118760514D01*
X136185961Y-118755755D01*
X136185241Y-118750901D01*
X136185000Y-118746000D01*
X136185000Y-118146000D01*
X136185241Y-118141099D01*
X136185961Y-118136245D01*
X136187153Y-118131486D01*
X136188806Y-118126866D01*
X136190904Y-118122430D01*
X136193427Y-118118221D01*
X136196349Y-118114280D01*
X136199645Y-118110645D01*
X136203280Y-118107349D01*
X136207221Y-118104427D01*
X136211430Y-118101904D01*
X136215866Y-118099806D01*
X136220486Y-118098153D01*
X136225245Y-118096961D01*
X136230099Y-118096241D01*
X136235000Y-118096000D01*
X136635000Y-118096000D01*
X136639901Y-118096241D01*
X136639901Y-118096241D01*
G37*
D11*
X136435000Y-118446000D03*
D10*
G36*
X135369901Y-118096241D02*
G01*
X135374755Y-118096961D01*
X135379514Y-118098153D01*
X135384134Y-118099806D01*
X135388570Y-118101904D01*
X135392779Y-118104427D01*
X135396720Y-118107349D01*
X135400355Y-118110645D01*
X135403651Y-118114280D01*
X135406573Y-118118221D01*
X135409096Y-118122430D01*
X135411194Y-118126866D01*
X135412847Y-118131486D01*
X135414039Y-118136245D01*
X135414759Y-118141099D01*
X135415000Y-118146000D01*
X135415000Y-118746000D01*
X135414759Y-118750901D01*
X135414039Y-118755755D01*
X135412847Y-118760514D01*
X135411194Y-118765134D01*
X135409096Y-118769570D01*
X135406573Y-118773779D01*
X135403651Y-118777720D01*
X135400355Y-118781355D01*
X135396720Y-118784651D01*
X135392779Y-118787573D01*
X135388570Y-118790096D01*
X135384134Y-118792194D01*
X135379514Y-118793847D01*
X135374755Y-118795039D01*
X135369901Y-118795759D01*
X135365000Y-118796000D01*
X134965000Y-118796000D01*
X134960099Y-118795759D01*
X134955245Y-118795039D01*
X134950486Y-118793847D01*
X134945866Y-118792194D01*
X134941430Y-118790096D01*
X134937221Y-118787573D01*
X134933280Y-118784651D01*
X134929645Y-118781355D01*
X134926349Y-118777720D01*
X134923427Y-118773779D01*
X134920904Y-118769570D01*
X134918806Y-118765134D01*
X134917153Y-118760514D01*
X134915961Y-118755755D01*
X134915241Y-118750901D01*
X134915000Y-118746000D01*
X134915000Y-118146000D01*
X134915241Y-118141099D01*
X134915961Y-118136245D01*
X134917153Y-118131486D01*
X134918806Y-118126866D01*
X134920904Y-118122430D01*
X134923427Y-118118221D01*
X134926349Y-118114280D01*
X134929645Y-118110645D01*
X134933280Y-118107349D01*
X134937221Y-118104427D01*
X134941430Y-118101904D01*
X134945866Y-118099806D01*
X134950486Y-118098153D01*
X134955245Y-118096961D01*
X134960099Y-118096241D01*
X134965000Y-118096000D01*
X135365000Y-118096000D01*
X135369901Y-118096241D01*
X135369901Y-118096241D01*
G37*
D11*
X135165000Y-118446000D03*
D10*
G36*
X129209901Y-112500241D02*
G01*
X129214755Y-112500961D01*
X129219514Y-112502153D01*
X129224134Y-112503806D01*
X129228570Y-112505904D01*
X129232779Y-112508427D01*
X129236720Y-112511349D01*
X129240355Y-112514645D01*
X129243651Y-112518280D01*
X129246573Y-112522221D01*
X129249096Y-112526430D01*
X129251194Y-112530866D01*
X129252847Y-112535486D01*
X129254039Y-112540245D01*
X129254759Y-112545099D01*
X129255000Y-112550000D01*
X129255000Y-113950000D01*
X129254759Y-113954901D01*
X129254039Y-113959755D01*
X129252847Y-113964514D01*
X129251194Y-113969134D01*
X129249096Y-113973570D01*
X129246573Y-113977779D01*
X129243651Y-113981720D01*
X129240355Y-113985355D01*
X129236720Y-113988651D01*
X129232779Y-113991573D01*
X129228570Y-113994096D01*
X129224134Y-113996194D01*
X129219514Y-113997847D01*
X129214755Y-113999039D01*
X129209901Y-113999759D01*
X129205000Y-114000000D01*
X128805000Y-114000000D01*
X128800099Y-113999759D01*
X128795245Y-113999039D01*
X128790486Y-113997847D01*
X128785866Y-113996194D01*
X128781430Y-113994096D01*
X128777221Y-113991573D01*
X128773280Y-113988651D01*
X128769645Y-113985355D01*
X128766349Y-113981720D01*
X128763427Y-113977779D01*
X128760904Y-113973570D01*
X128758806Y-113969134D01*
X128757153Y-113964514D01*
X128755961Y-113959755D01*
X128755241Y-113954901D01*
X128755000Y-113950000D01*
X128755000Y-112550000D01*
X128755241Y-112545099D01*
X128755961Y-112540245D01*
X128757153Y-112535486D01*
X128758806Y-112530866D01*
X128760904Y-112526430D01*
X128763427Y-112522221D01*
X128766349Y-112518280D01*
X128769645Y-112514645D01*
X128773280Y-112511349D01*
X128777221Y-112508427D01*
X128781430Y-112505904D01*
X128785866Y-112503806D01*
X128790486Y-112502153D01*
X128795245Y-112500961D01*
X128800099Y-112500241D01*
X128805000Y-112500000D01*
X129205000Y-112500000D01*
X129209901Y-112500241D01*
X129209901Y-112500241D01*
G37*
D11*
X129005000Y-113250000D03*
D10*
G36*
X128245881Y-112500289D02*
G01*
X128251705Y-112501153D01*
X128257417Y-112502584D01*
X128262961Y-112504567D01*
X128268284Y-112507085D01*
X128273334Y-112510112D01*
X128278064Y-112513619D01*
X128282426Y-112517574D01*
X128286381Y-112521936D01*
X128289888Y-112526666D01*
X128292915Y-112531716D01*
X128295433Y-112537039D01*
X128297416Y-112542583D01*
X128298847Y-112548295D01*
X128299711Y-112554119D01*
X128300000Y-112560000D01*
X128300000Y-113040000D01*
X128299711Y-113045881D01*
X128298847Y-113051705D01*
X128297416Y-113057417D01*
X128295433Y-113062961D01*
X128292915Y-113068284D01*
X128289888Y-113073334D01*
X128286381Y-113078064D01*
X128282426Y-113082426D01*
X128278064Y-113086381D01*
X128273334Y-113089888D01*
X128268284Y-113092915D01*
X128262961Y-113095433D01*
X128257417Y-113097416D01*
X128251705Y-113098847D01*
X128245881Y-113099711D01*
X128240000Y-113100000D01*
X124960000Y-113100000D01*
X124954119Y-113099711D01*
X124948295Y-113098847D01*
X124942583Y-113097416D01*
X124937039Y-113095433D01*
X124931716Y-113092915D01*
X124926666Y-113089888D01*
X124921936Y-113086381D01*
X124917574Y-113082426D01*
X124913619Y-113078064D01*
X124910112Y-113073334D01*
X124907085Y-113068284D01*
X124904567Y-113062961D01*
X124902584Y-113057417D01*
X124901153Y-113051705D01*
X124900289Y-113045881D01*
X124900000Y-113040000D01*
X124900000Y-112560000D01*
X124900289Y-112554119D01*
X124901153Y-112548295D01*
X124902584Y-112542583D01*
X124904567Y-112537039D01*
X124907085Y-112531716D01*
X124910112Y-112526666D01*
X124913619Y-112521936D01*
X124917574Y-112517574D01*
X124921936Y-112513619D01*
X124926666Y-112510112D01*
X124931716Y-112507085D01*
X124937039Y-112504567D01*
X124942583Y-112502584D01*
X124948295Y-112501153D01*
X124954119Y-112500289D01*
X124960000Y-112500000D01*
X128240000Y-112500000D01*
X128245881Y-112500289D01*
X128245881Y-112500289D01*
G37*
D12*
X126600000Y-112800000D03*
D11*
X127100000Y-115950000D03*
D10*
G36*
X124890245Y-116249039D02*
G01*
X124880866Y-116246194D01*
X124872221Y-116241573D01*
X124864645Y-116235355D01*
X124858427Y-116227779D01*
X124853806Y-116219134D01*
X124850961Y-116209755D01*
X124850000Y-116200000D01*
X124850000Y-113600000D01*
X124850961Y-113590245D01*
X124853806Y-113580866D01*
X124858427Y-113572221D01*
X124864645Y-113564645D01*
X124872221Y-113558427D01*
X124880866Y-113553806D01*
X124890245Y-113550961D01*
X124900000Y-113550000D01*
X128300000Y-113550000D01*
X128309755Y-113550961D01*
X128319134Y-113553806D01*
X128327779Y-113558427D01*
X128335355Y-113564645D01*
X128341573Y-113572221D01*
X128346194Y-113580866D01*
X128349039Y-113590245D01*
X128350000Y-113600000D01*
X128350000Y-114550000D01*
X129300000Y-114550000D01*
X129309755Y-114550961D01*
X129319134Y-114553806D01*
X129327779Y-114558427D01*
X129335355Y-114564645D01*
X129341573Y-114572221D01*
X129346194Y-114580866D01*
X129349039Y-114590245D01*
X129350000Y-114600000D01*
X129350000Y-116200000D01*
X129349039Y-116209755D01*
X129346194Y-116219134D01*
X129341573Y-116227779D01*
X129335355Y-116235355D01*
X129327779Y-116241573D01*
X129319134Y-116246194D01*
X129309755Y-116249039D01*
X129300000Y-116250000D01*
X124900000Y-116250000D01*
X124890245Y-116249039D01*
X124890245Y-116249039D01*
G37*
G36*
X129313921Y-116820193D02*
G01*
X129317804Y-116820769D01*
X129321611Y-116821722D01*
X129325307Y-116823045D01*
X129328856Y-116824723D01*
X129332223Y-116826741D01*
X129335376Y-116829080D01*
X129338284Y-116831716D01*
X129340920Y-116834624D01*
X129343259Y-116837777D01*
X129345277Y-116841144D01*
X129346955Y-116844693D01*
X129348278Y-116848389D01*
X129349231Y-116852196D01*
X129349807Y-116856079D01*
X129350000Y-116860000D01*
X129350000Y-117580000D01*
X129349807Y-117583921D01*
X129349231Y-117587804D01*
X129348278Y-117591611D01*
X129346955Y-117595307D01*
X129345277Y-117598856D01*
X129343259Y-117602223D01*
X129340920Y-117605376D01*
X129338284Y-117608284D01*
X129335376Y-117610920D01*
X129332223Y-117613259D01*
X129328856Y-117615277D01*
X129325307Y-117616955D01*
X129321611Y-117618278D01*
X129317804Y-117619231D01*
X129313921Y-117619807D01*
X129310000Y-117620000D01*
X124890000Y-117620000D01*
X124886079Y-117619807D01*
X124882196Y-117619231D01*
X124878389Y-117618278D01*
X124874693Y-117616955D01*
X124871144Y-117615277D01*
X124867777Y-117613259D01*
X124864624Y-117610920D01*
X124861716Y-117608284D01*
X124859080Y-117605376D01*
X124856741Y-117602223D01*
X124854723Y-117598856D01*
X124853045Y-117595307D01*
X124851722Y-117591611D01*
X124850769Y-117587804D01*
X124850193Y-117583921D01*
X124850000Y-117580000D01*
X124850000Y-116860000D01*
X124850193Y-116856079D01*
X124850769Y-116852196D01*
X124851722Y-116848389D01*
X124853045Y-116844693D01*
X124854723Y-116841144D01*
X124856741Y-116837777D01*
X124859080Y-116834624D01*
X124861716Y-116831716D01*
X124864624Y-116829080D01*
X124867777Y-116826741D01*
X124871144Y-116824723D01*
X124874693Y-116823045D01*
X124878389Y-116821722D01*
X124882196Y-116820769D01*
X124886079Y-116820193D01*
X124890000Y-116820000D01*
X129310000Y-116820000D01*
X129313921Y-116820193D01*
X129313921Y-116820193D01*
G37*
D13*
X127100000Y-117220000D03*
D10*
G36*
X129209901Y-118096241D02*
G01*
X129214755Y-118096961D01*
X129219514Y-118098153D01*
X129224134Y-118099806D01*
X129228570Y-118101904D01*
X129232779Y-118104427D01*
X129236720Y-118107349D01*
X129240355Y-118110645D01*
X129243651Y-118114280D01*
X129246573Y-118118221D01*
X129249096Y-118122430D01*
X129251194Y-118126866D01*
X129252847Y-118131486D01*
X129254039Y-118136245D01*
X129254759Y-118141099D01*
X129255000Y-118146000D01*
X129255000Y-118746000D01*
X129254759Y-118750901D01*
X129254039Y-118755755D01*
X129252847Y-118760514D01*
X129251194Y-118765134D01*
X129249096Y-118769570D01*
X129246573Y-118773779D01*
X129243651Y-118777720D01*
X129240355Y-118781355D01*
X129236720Y-118784651D01*
X129232779Y-118787573D01*
X129228570Y-118790096D01*
X129224134Y-118792194D01*
X129219514Y-118793847D01*
X129214755Y-118795039D01*
X129209901Y-118795759D01*
X129205000Y-118796000D01*
X128805000Y-118796000D01*
X128800099Y-118795759D01*
X128795245Y-118795039D01*
X128790486Y-118793847D01*
X128785866Y-118792194D01*
X128781430Y-118790096D01*
X128777221Y-118787573D01*
X128773280Y-118784651D01*
X128769645Y-118781355D01*
X128766349Y-118777720D01*
X128763427Y-118773779D01*
X128760904Y-118769570D01*
X128758806Y-118765134D01*
X128757153Y-118760514D01*
X128755961Y-118755755D01*
X128755241Y-118750901D01*
X128755000Y-118746000D01*
X128755000Y-118146000D01*
X128755241Y-118141099D01*
X128755961Y-118136245D01*
X128757153Y-118131486D01*
X128758806Y-118126866D01*
X128760904Y-118122430D01*
X128763427Y-118118221D01*
X128766349Y-118114280D01*
X128769645Y-118110645D01*
X128773280Y-118107349D01*
X128777221Y-118104427D01*
X128781430Y-118101904D01*
X128785866Y-118099806D01*
X128790486Y-118098153D01*
X128795245Y-118096961D01*
X128800099Y-118096241D01*
X128805000Y-118096000D01*
X129205000Y-118096000D01*
X129209901Y-118096241D01*
X129209901Y-118096241D01*
G37*
D11*
X129005000Y-118446000D03*
D10*
G36*
X125399901Y-118096241D02*
G01*
X125404755Y-118096961D01*
X125409514Y-118098153D01*
X125414134Y-118099806D01*
X125418570Y-118101904D01*
X125422779Y-118104427D01*
X125426720Y-118107349D01*
X125430355Y-118110645D01*
X125433651Y-118114280D01*
X125436573Y-118118221D01*
X125439096Y-118122430D01*
X125441194Y-118126866D01*
X125442847Y-118131486D01*
X125444039Y-118136245D01*
X125444759Y-118141099D01*
X125445000Y-118146000D01*
X125445000Y-118746000D01*
X125444759Y-118750901D01*
X125444039Y-118755755D01*
X125442847Y-118760514D01*
X125441194Y-118765134D01*
X125439096Y-118769570D01*
X125436573Y-118773779D01*
X125433651Y-118777720D01*
X125430355Y-118781355D01*
X125426720Y-118784651D01*
X125422779Y-118787573D01*
X125418570Y-118790096D01*
X125414134Y-118792194D01*
X125409514Y-118793847D01*
X125404755Y-118795039D01*
X125399901Y-118795759D01*
X125395000Y-118796000D01*
X124995000Y-118796000D01*
X124990099Y-118795759D01*
X124985245Y-118795039D01*
X124980486Y-118793847D01*
X124975866Y-118792194D01*
X124971430Y-118790096D01*
X124967221Y-118787573D01*
X124963280Y-118784651D01*
X124959645Y-118781355D01*
X124956349Y-118777720D01*
X124953427Y-118773779D01*
X124950904Y-118769570D01*
X124948806Y-118765134D01*
X124947153Y-118760514D01*
X124945961Y-118755755D01*
X124945241Y-118750901D01*
X124945000Y-118746000D01*
X124945000Y-118146000D01*
X124945241Y-118141099D01*
X124945961Y-118136245D01*
X124947153Y-118131486D01*
X124948806Y-118126866D01*
X124950904Y-118122430D01*
X124953427Y-118118221D01*
X124956349Y-118114280D01*
X124959645Y-118110645D01*
X124963280Y-118107349D01*
X124967221Y-118104427D01*
X124971430Y-118101904D01*
X124975866Y-118099806D01*
X124980486Y-118098153D01*
X124985245Y-118096961D01*
X124990099Y-118096241D01*
X124995000Y-118096000D01*
X125395000Y-118096000D01*
X125399901Y-118096241D01*
X125399901Y-118096241D01*
G37*
D11*
X125195000Y-118446000D03*
D10*
G36*
X127939901Y-118096241D02*
G01*
X127944755Y-118096961D01*
X127949514Y-118098153D01*
X127954134Y-118099806D01*
X127958570Y-118101904D01*
X127962779Y-118104427D01*
X127966720Y-118107349D01*
X127970355Y-118110645D01*
X127973651Y-118114280D01*
X127976573Y-118118221D01*
X127979096Y-118122430D01*
X127981194Y-118126866D01*
X127982847Y-118131486D01*
X127984039Y-118136245D01*
X127984759Y-118141099D01*
X127985000Y-118146000D01*
X127985000Y-118746000D01*
X127984759Y-118750901D01*
X127984039Y-118755755D01*
X127982847Y-118760514D01*
X127981194Y-118765134D01*
X127979096Y-118769570D01*
X127976573Y-118773779D01*
X127973651Y-118777720D01*
X127970355Y-118781355D01*
X127966720Y-118784651D01*
X127962779Y-118787573D01*
X127958570Y-118790096D01*
X127954134Y-118792194D01*
X127949514Y-118793847D01*
X127944755Y-118795039D01*
X127939901Y-118795759D01*
X127935000Y-118796000D01*
X127535000Y-118796000D01*
X127530099Y-118795759D01*
X127525245Y-118795039D01*
X127520486Y-118793847D01*
X127515866Y-118792194D01*
X127511430Y-118790096D01*
X127507221Y-118787573D01*
X127503280Y-118784651D01*
X127499645Y-118781355D01*
X127496349Y-118777720D01*
X127493427Y-118773779D01*
X127490904Y-118769570D01*
X127488806Y-118765134D01*
X127487153Y-118760514D01*
X127485961Y-118755755D01*
X127485241Y-118750901D01*
X127485000Y-118746000D01*
X127485000Y-118146000D01*
X127485241Y-118141099D01*
X127485961Y-118136245D01*
X127487153Y-118131486D01*
X127488806Y-118126866D01*
X127490904Y-118122430D01*
X127493427Y-118118221D01*
X127496349Y-118114280D01*
X127499645Y-118110645D01*
X127503280Y-118107349D01*
X127507221Y-118104427D01*
X127511430Y-118101904D01*
X127515866Y-118099806D01*
X127520486Y-118098153D01*
X127525245Y-118096961D01*
X127530099Y-118096241D01*
X127535000Y-118096000D01*
X127935000Y-118096000D01*
X127939901Y-118096241D01*
X127939901Y-118096241D01*
G37*
D11*
X127735000Y-118446000D03*
D10*
G36*
X126669901Y-118096241D02*
G01*
X126674755Y-118096961D01*
X126679514Y-118098153D01*
X126684134Y-118099806D01*
X126688570Y-118101904D01*
X126692779Y-118104427D01*
X126696720Y-118107349D01*
X126700355Y-118110645D01*
X126703651Y-118114280D01*
X126706573Y-118118221D01*
X126709096Y-118122430D01*
X126711194Y-118126866D01*
X126712847Y-118131486D01*
X126714039Y-118136245D01*
X126714759Y-118141099D01*
X126715000Y-118146000D01*
X126715000Y-118746000D01*
X126714759Y-118750901D01*
X126714039Y-118755755D01*
X126712847Y-118760514D01*
X126711194Y-118765134D01*
X126709096Y-118769570D01*
X126706573Y-118773779D01*
X126703651Y-118777720D01*
X126700355Y-118781355D01*
X126696720Y-118784651D01*
X126692779Y-118787573D01*
X126688570Y-118790096D01*
X126684134Y-118792194D01*
X126679514Y-118793847D01*
X126674755Y-118795039D01*
X126669901Y-118795759D01*
X126665000Y-118796000D01*
X126265000Y-118796000D01*
X126260099Y-118795759D01*
X126255245Y-118795039D01*
X126250486Y-118793847D01*
X126245866Y-118792194D01*
X126241430Y-118790096D01*
X126237221Y-118787573D01*
X126233280Y-118784651D01*
X126229645Y-118781355D01*
X126226349Y-118777720D01*
X126223427Y-118773779D01*
X126220904Y-118769570D01*
X126218806Y-118765134D01*
X126217153Y-118760514D01*
X126215961Y-118755755D01*
X126215241Y-118750901D01*
X126215000Y-118746000D01*
X126215000Y-118146000D01*
X126215241Y-118141099D01*
X126215961Y-118136245D01*
X126217153Y-118131486D01*
X126218806Y-118126866D01*
X126220904Y-118122430D01*
X126223427Y-118118221D01*
X126226349Y-118114280D01*
X126229645Y-118110645D01*
X126233280Y-118107349D01*
X126237221Y-118104427D01*
X126241430Y-118101904D01*
X126245866Y-118099806D01*
X126250486Y-118098153D01*
X126255245Y-118096961D01*
X126260099Y-118096241D01*
X126265000Y-118096000D01*
X126665000Y-118096000D01*
X126669901Y-118096241D01*
X126669901Y-118096241D01*
G37*
D11*
X126465000Y-118446000D03*
D10*
G36*
X120559901Y-112500241D02*
G01*
X120564755Y-112500961D01*
X120569514Y-112502153D01*
X120574134Y-112503806D01*
X120578570Y-112505904D01*
X120582779Y-112508427D01*
X120586720Y-112511349D01*
X120590355Y-112514645D01*
X120593651Y-112518280D01*
X120596573Y-112522221D01*
X120599096Y-112526430D01*
X120601194Y-112530866D01*
X120602847Y-112535486D01*
X120604039Y-112540245D01*
X120604759Y-112545099D01*
X120605000Y-112550000D01*
X120605000Y-113950000D01*
X120604759Y-113954901D01*
X120604039Y-113959755D01*
X120602847Y-113964514D01*
X120601194Y-113969134D01*
X120599096Y-113973570D01*
X120596573Y-113977779D01*
X120593651Y-113981720D01*
X120590355Y-113985355D01*
X120586720Y-113988651D01*
X120582779Y-113991573D01*
X120578570Y-113994096D01*
X120574134Y-113996194D01*
X120569514Y-113997847D01*
X120564755Y-113999039D01*
X120559901Y-113999759D01*
X120555000Y-114000000D01*
X120155000Y-114000000D01*
X120150099Y-113999759D01*
X120145245Y-113999039D01*
X120140486Y-113997847D01*
X120135866Y-113996194D01*
X120131430Y-113994096D01*
X120127221Y-113991573D01*
X120123280Y-113988651D01*
X120119645Y-113985355D01*
X120116349Y-113981720D01*
X120113427Y-113977779D01*
X120110904Y-113973570D01*
X120108806Y-113969134D01*
X120107153Y-113964514D01*
X120105961Y-113959755D01*
X120105241Y-113954901D01*
X120105000Y-113950000D01*
X120105000Y-112550000D01*
X120105241Y-112545099D01*
X120105961Y-112540245D01*
X120107153Y-112535486D01*
X120108806Y-112530866D01*
X120110904Y-112526430D01*
X120113427Y-112522221D01*
X120116349Y-112518280D01*
X120119645Y-112514645D01*
X120123280Y-112511349D01*
X120127221Y-112508427D01*
X120131430Y-112505904D01*
X120135866Y-112503806D01*
X120140486Y-112502153D01*
X120145245Y-112500961D01*
X120150099Y-112500241D01*
X120155000Y-112500000D01*
X120555000Y-112500000D01*
X120559901Y-112500241D01*
X120559901Y-112500241D01*
G37*
D11*
X120355000Y-113250000D03*
D10*
G36*
X119595881Y-112500289D02*
G01*
X119601705Y-112501153D01*
X119607417Y-112502584D01*
X119612961Y-112504567D01*
X119618284Y-112507085D01*
X119623334Y-112510112D01*
X119628064Y-112513619D01*
X119632426Y-112517574D01*
X119636381Y-112521936D01*
X119639888Y-112526666D01*
X119642915Y-112531716D01*
X119645433Y-112537039D01*
X119647416Y-112542583D01*
X119648847Y-112548295D01*
X119649711Y-112554119D01*
X119650000Y-112560000D01*
X119650000Y-113040000D01*
X119649711Y-113045881D01*
X119648847Y-113051705D01*
X119647416Y-113057417D01*
X119645433Y-113062961D01*
X119642915Y-113068284D01*
X119639888Y-113073334D01*
X119636381Y-113078064D01*
X119632426Y-113082426D01*
X119628064Y-113086381D01*
X119623334Y-113089888D01*
X119618284Y-113092915D01*
X119612961Y-113095433D01*
X119607417Y-113097416D01*
X119601705Y-113098847D01*
X119595881Y-113099711D01*
X119590000Y-113100000D01*
X116310000Y-113100000D01*
X116304119Y-113099711D01*
X116298295Y-113098847D01*
X116292583Y-113097416D01*
X116287039Y-113095433D01*
X116281716Y-113092915D01*
X116276666Y-113089888D01*
X116271936Y-113086381D01*
X116267574Y-113082426D01*
X116263619Y-113078064D01*
X116260112Y-113073334D01*
X116257085Y-113068284D01*
X116254567Y-113062961D01*
X116252584Y-113057417D01*
X116251153Y-113051705D01*
X116250289Y-113045881D01*
X116250000Y-113040000D01*
X116250000Y-112560000D01*
X116250289Y-112554119D01*
X116251153Y-112548295D01*
X116252584Y-112542583D01*
X116254567Y-112537039D01*
X116257085Y-112531716D01*
X116260112Y-112526666D01*
X116263619Y-112521936D01*
X116267574Y-112517574D01*
X116271936Y-112513619D01*
X116276666Y-112510112D01*
X116281716Y-112507085D01*
X116287039Y-112504567D01*
X116292583Y-112502584D01*
X116298295Y-112501153D01*
X116304119Y-112500289D01*
X116310000Y-112500000D01*
X119590000Y-112500000D01*
X119595881Y-112500289D01*
X119595881Y-112500289D01*
G37*
D12*
X117950000Y-112800000D03*
D11*
X118450000Y-115950000D03*
D10*
G36*
X116240245Y-116249039D02*
G01*
X116230866Y-116246194D01*
X116222221Y-116241573D01*
X116214645Y-116235355D01*
X116208427Y-116227779D01*
X116203806Y-116219134D01*
X116200961Y-116209755D01*
X116200000Y-116200000D01*
X116200000Y-113600000D01*
X116200961Y-113590245D01*
X116203806Y-113580866D01*
X116208427Y-113572221D01*
X116214645Y-113564645D01*
X116222221Y-113558427D01*
X116230866Y-113553806D01*
X116240245Y-113550961D01*
X116250000Y-113550000D01*
X119650000Y-113550000D01*
X119659755Y-113550961D01*
X119669134Y-113553806D01*
X119677779Y-113558427D01*
X119685355Y-113564645D01*
X119691573Y-113572221D01*
X119696194Y-113580866D01*
X119699039Y-113590245D01*
X119700000Y-113600000D01*
X119700000Y-114550000D01*
X120650000Y-114550000D01*
X120659755Y-114550961D01*
X120669134Y-114553806D01*
X120677779Y-114558427D01*
X120685355Y-114564645D01*
X120691573Y-114572221D01*
X120696194Y-114580866D01*
X120699039Y-114590245D01*
X120700000Y-114600000D01*
X120700000Y-116200000D01*
X120699039Y-116209755D01*
X120696194Y-116219134D01*
X120691573Y-116227779D01*
X120685355Y-116235355D01*
X120677779Y-116241573D01*
X120669134Y-116246194D01*
X120659755Y-116249039D01*
X120650000Y-116250000D01*
X116250000Y-116250000D01*
X116240245Y-116249039D01*
X116240245Y-116249039D01*
G37*
G36*
X120663921Y-116820193D02*
G01*
X120667804Y-116820769D01*
X120671611Y-116821722D01*
X120675307Y-116823045D01*
X120678856Y-116824723D01*
X120682223Y-116826741D01*
X120685376Y-116829080D01*
X120688284Y-116831716D01*
X120690920Y-116834624D01*
X120693259Y-116837777D01*
X120695277Y-116841144D01*
X120696955Y-116844693D01*
X120698278Y-116848389D01*
X120699231Y-116852196D01*
X120699807Y-116856079D01*
X120700000Y-116860000D01*
X120700000Y-117580000D01*
X120699807Y-117583921D01*
X120699231Y-117587804D01*
X120698278Y-117591611D01*
X120696955Y-117595307D01*
X120695277Y-117598856D01*
X120693259Y-117602223D01*
X120690920Y-117605376D01*
X120688284Y-117608284D01*
X120685376Y-117610920D01*
X120682223Y-117613259D01*
X120678856Y-117615277D01*
X120675307Y-117616955D01*
X120671611Y-117618278D01*
X120667804Y-117619231D01*
X120663921Y-117619807D01*
X120660000Y-117620000D01*
X116240000Y-117620000D01*
X116236079Y-117619807D01*
X116232196Y-117619231D01*
X116228389Y-117618278D01*
X116224693Y-117616955D01*
X116221144Y-117615277D01*
X116217777Y-117613259D01*
X116214624Y-117610920D01*
X116211716Y-117608284D01*
X116209080Y-117605376D01*
X116206741Y-117602223D01*
X116204723Y-117598856D01*
X116203045Y-117595307D01*
X116201722Y-117591611D01*
X116200769Y-117587804D01*
X116200193Y-117583921D01*
X116200000Y-117580000D01*
X116200000Y-116860000D01*
X116200193Y-116856079D01*
X116200769Y-116852196D01*
X116201722Y-116848389D01*
X116203045Y-116844693D01*
X116204723Y-116841144D01*
X116206741Y-116837777D01*
X116209080Y-116834624D01*
X116211716Y-116831716D01*
X116214624Y-116829080D01*
X116217777Y-116826741D01*
X116221144Y-116824723D01*
X116224693Y-116823045D01*
X116228389Y-116821722D01*
X116232196Y-116820769D01*
X116236079Y-116820193D01*
X116240000Y-116820000D01*
X120660000Y-116820000D01*
X120663921Y-116820193D01*
X120663921Y-116820193D01*
G37*
D13*
X118450000Y-117220000D03*
D10*
G36*
X120559901Y-118096241D02*
G01*
X120564755Y-118096961D01*
X120569514Y-118098153D01*
X120574134Y-118099806D01*
X120578570Y-118101904D01*
X120582779Y-118104427D01*
X120586720Y-118107349D01*
X120590355Y-118110645D01*
X120593651Y-118114280D01*
X120596573Y-118118221D01*
X120599096Y-118122430D01*
X120601194Y-118126866D01*
X120602847Y-118131486D01*
X120604039Y-118136245D01*
X120604759Y-118141099D01*
X120605000Y-118146000D01*
X120605000Y-118746000D01*
X120604759Y-118750901D01*
X120604039Y-118755755D01*
X120602847Y-118760514D01*
X120601194Y-118765134D01*
X120599096Y-118769570D01*
X120596573Y-118773779D01*
X120593651Y-118777720D01*
X120590355Y-118781355D01*
X120586720Y-118784651D01*
X120582779Y-118787573D01*
X120578570Y-118790096D01*
X120574134Y-118792194D01*
X120569514Y-118793847D01*
X120564755Y-118795039D01*
X120559901Y-118795759D01*
X120555000Y-118796000D01*
X120155000Y-118796000D01*
X120150099Y-118795759D01*
X120145245Y-118795039D01*
X120140486Y-118793847D01*
X120135866Y-118792194D01*
X120131430Y-118790096D01*
X120127221Y-118787573D01*
X120123280Y-118784651D01*
X120119645Y-118781355D01*
X120116349Y-118777720D01*
X120113427Y-118773779D01*
X120110904Y-118769570D01*
X120108806Y-118765134D01*
X120107153Y-118760514D01*
X120105961Y-118755755D01*
X120105241Y-118750901D01*
X120105000Y-118746000D01*
X120105000Y-118146000D01*
X120105241Y-118141099D01*
X120105961Y-118136245D01*
X120107153Y-118131486D01*
X120108806Y-118126866D01*
X120110904Y-118122430D01*
X120113427Y-118118221D01*
X120116349Y-118114280D01*
X120119645Y-118110645D01*
X120123280Y-118107349D01*
X120127221Y-118104427D01*
X120131430Y-118101904D01*
X120135866Y-118099806D01*
X120140486Y-118098153D01*
X120145245Y-118096961D01*
X120150099Y-118096241D01*
X120155000Y-118096000D01*
X120555000Y-118096000D01*
X120559901Y-118096241D01*
X120559901Y-118096241D01*
G37*
D11*
X120355000Y-118446000D03*
D10*
G36*
X116749901Y-118096241D02*
G01*
X116754755Y-118096961D01*
X116759514Y-118098153D01*
X116764134Y-118099806D01*
X116768570Y-118101904D01*
X116772779Y-118104427D01*
X116776720Y-118107349D01*
X116780355Y-118110645D01*
X116783651Y-118114280D01*
X116786573Y-118118221D01*
X116789096Y-118122430D01*
X116791194Y-118126866D01*
X116792847Y-118131486D01*
X116794039Y-118136245D01*
X116794759Y-118141099D01*
X116795000Y-118146000D01*
X116795000Y-118746000D01*
X116794759Y-118750901D01*
X116794039Y-118755755D01*
X116792847Y-118760514D01*
X116791194Y-118765134D01*
X116789096Y-118769570D01*
X116786573Y-118773779D01*
X116783651Y-118777720D01*
X116780355Y-118781355D01*
X116776720Y-118784651D01*
X116772779Y-118787573D01*
X116768570Y-118790096D01*
X116764134Y-118792194D01*
X116759514Y-118793847D01*
X116754755Y-118795039D01*
X116749901Y-118795759D01*
X116745000Y-118796000D01*
X116345000Y-118796000D01*
X116340099Y-118795759D01*
X116335245Y-118795039D01*
X116330486Y-118793847D01*
X116325866Y-118792194D01*
X116321430Y-118790096D01*
X116317221Y-118787573D01*
X116313280Y-118784651D01*
X116309645Y-118781355D01*
X116306349Y-118777720D01*
X116303427Y-118773779D01*
X116300904Y-118769570D01*
X116298806Y-118765134D01*
X116297153Y-118760514D01*
X116295961Y-118755755D01*
X116295241Y-118750901D01*
X116295000Y-118746000D01*
X116295000Y-118146000D01*
X116295241Y-118141099D01*
X116295961Y-118136245D01*
X116297153Y-118131486D01*
X116298806Y-118126866D01*
X116300904Y-118122430D01*
X116303427Y-118118221D01*
X116306349Y-118114280D01*
X116309645Y-118110645D01*
X116313280Y-118107349D01*
X116317221Y-118104427D01*
X116321430Y-118101904D01*
X116325866Y-118099806D01*
X116330486Y-118098153D01*
X116335245Y-118096961D01*
X116340099Y-118096241D01*
X116345000Y-118096000D01*
X116745000Y-118096000D01*
X116749901Y-118096241D01*
X116749901Y-118096241D01*
G37*
D11*
X116545000Y-118446000D03*
D10*
G36*
X119289901Y-118096241D02*
G01*
X119294755Y-118096961D01*
X119299514Y-118098153D01*
X119304134Y-118099806D01*
X119308570Y-118101904D01*
X119312779Y-118104427D01*
X119316720Y-118107349D01*
X119320355Y-118110645D01*
X119323651Y-118114280D01*
X119326573Y-118118221D01*
X119329096Y-118122430D01*
X119331194Y-118126866D01*
X119332847Y-118131486D01*
X119334039Y-118136245D01*
X119334759Y-118141099D01*
X119335000Y-118146000D01*
X119335000Y-118746000D01*
X119334759Y-118750901D01*
X119334039Y-118755755D01*
X119332847Y-118760514D01*
X119331194Y-118765134D01*
X119329096Y-118769570D01*
X119326573Y-118773779D01*
X119323651Y-118777720D01*
X119320355Y-118781355D01*
X119316720Y-118784651D01*
X119312779Y-118787573D01*
X119308570Y-118790096D01*
X119304134Y-118792194D01*
X119299514Y-118793847D01*
X119294755Y-118795039D01*
X119289901Y-118795759D01*
X119285000Y-118796000D01*
X118885000Y-118796000D01*
X118880099Y-118795759D01*
X118875245Y-118795039D01*
X118870486Y-118793847D01*
X118865866Y-118792194D01*
X118861430Y-118790096D01*
X118857221Y-118787573D01*
X118853280Y-118784651D01*
X118849645Y-118781355D01*
X118846349Y-118777720D01*
X118843427Y-118773779D01*
X118840904Y-118769570D01*
X118838806Y-118765134D01*
X118837153Y-118760514D01*
X118835961Y-118755755D01*
X118835241Y-118750901D01*
X118835000Y-118746000D01*
X118835000Y-118146000D01*
X118835241Y-118141099D01*
X118835961Y-118136245D01*
X118837153Y-118131486D01*
X118838806Y-118126866D01*
X118840904Y-118122430D01*
X118843427Y-118118221D01*
X118846349Y-118114280D01*
X118849645Y-118110645D01*
X118853280Y-118107349D01*
X118857221Y-118104427D01*
X118861430Y-118101904D01*
X118865866Y-118099806D01*
X118870486Y-118098153D01*
X118875245Y-118096961D01*
X118880099Y-118096241D01*
X118885000Y-118096000D01*
X119285000Y-118096000D01*
X119289901Y-118096241D01*
X119289901Y-118096241D01*
G37*
D11*
X119085000Y-118446000D03*
D10*
G36*
X118019901Y-118096241D02*
G01*
X118024755Y-118096961D01*
X118029514Y-118098153D01*
X118034134Y-118099806D01*
X118038570Y-118101904D01*
X118042779Y-118104427D01*
X118046720Y-118107349D01*
X118050355Y-118110645D01*
X118053651Y-118114280D01*
X118056573Y-118118221D01*
X118059096Y-118122430D01*
X118061194Y-118126866D01*
X118062847Y-118131486D01*
X118064039Y-118136245D01*
X118064759Y-118141099D01*
X118065000Y-118146000D01*
X118065000Y-118746000D01*
X118064759Y-118750901D01*
X118064039Y-118755755D01*
X118062847Y-118760514D01*
X118061194Y-118765134D01*
X118059096Y-118769570D01*
X118056573Y-118773779D01*
X118053651Y-118777720D01*
X118050355Y-118781355D01*
X118046720Y-118784651D01*
X118042779Y-118787573D01*
X118038570Y-118790096D01*
X118034134Y-118792194D01*
X118029514Y-118793847D01*
X118024755Y-118795039D01*
X118019901Y-118795759D01*
X118015000Y-118796000D01*
X117615000Y-118796000D01*
X117610099Y-118795759D01*
X117605245Y-118795039D01*
X117600486Y-118793847D01*
X117595866Y-118792194D01*
X117591430Y-118790096D01*
X117587221Y-118787573D01*
X117583280Y-118784651D01*
X117579645Y-118781355D01*
X117576349Y-118777720D01*
X117573427Y-118773779D01*
X117570904Y-118769570D01*
X117568806Y-118765134D01*
X117567153Y-118760514D01*
X117565961Y-118755755D01*
X117565241Y-118750901D01*
X117565000Y-118746000D01*
X117565000Y-118146000D01*
X117565241Y-118141099D01*
X117565961Y-118136245D01*
X117567153Y-118131486D01*
X117568806Y-118126866D01*
X117570904Y-118122430D01*
X117573427Y-118118221D01*
X117576349Y-118114280D01*
X117579645Y-118110645D01*
X117583280Y-118107349D01*
X117587221Y-118104427D01*
X117591430Y-118101904D01*
X117595866Y-118099806D01*
X117600486Y-118098153D01*
X117605245Y-118096961D01*
X117610099Y-118096241D01*
X117615000Y-118096000D01*
X118015000Y-118096000D01*
X118019901Y-118096241D01*
X118019901Y-118096241D01*
G37*
D11*
X117815000Y-118446000D03*
D14*
X117375000Y-126700000D03*
X118875000Y-126700000D03*
X117325000Y-129200000D03*
X118825000Y-129200000D03*
D15*
X114925000Y-119250000D03*
X114925000Y-117250000D03*
X123700000Y-119200000D03*
X123700000Y-117200000D03*
X132375000Y-119175000D03*
X132375000Y-117175000D03*
D14*
X118725000Y-125300000D03*
X117225000Y-125300000D03*
X117225000Y-123900000D03*
X118725000Y-123900000D03*
D16*
X122750000Y-109400000D03*
X122750000Y-115600000D03*
X131400000Y-115600000D03*
X131400000Y-109400000D03*
X114100000Y-115650000D03*
X114100000Y-109450000D03*
M02*
