M48
INCH,TZ
T1C0.0118
T2C0.0394
T3C0.1772
T4C0.1890
%
G90
G05
T1
X42116Y-39902
X42126Y-54154
X42283Y-47402
X42387Y-47725
X42480Y-47107
X42500Y-50492
X42500Y-50886
X42500Y-52087
X42697Y-48169
X42717Y-48583
X42733Y-47844
X43091Y-49606
X43091Y-51791
X43091Y-53091
X43091Y-54232
X43278Y-39872
X43287Y-54626
X43287Y-55768
X43287Y-56909
X43523Y-53011
X43543Y-47815
X43661Y-49508
X43661Y-51831
X43661Y-54370
X43819Y-48701
X44154Y-48169
X44488Y-42795
X44528Y-44291
X44528Y-44843
X44573Y-44563
X44675Y-48022
X44685Y-43071
X44921Y-42795
X44921Y-44941
X45049Y-46949
X45157Y-43071
X45236Y-46132
X45354Y-42795
X45404Y-44764
X45463Y-46959
X45551Y-57087
X45610Y-52057
X45640Y-50413
X45650Y-54941
X45827Y-46152
X45886Y-46555
X45955Y-49331
X45974Y-48780
X46014Y-49882
X46014Y-50866
X46063Y-51526
X46122Y-54646
X46220Y-55138
X46329Y-50413
X46378Y-46142
X46388Y-46555
X46634Y-54429
X46673Y-55059
X46801Y-51486
X46841Y-51161
X46890Y-46791
X46929Y-46142
X47037Y-49882
X47116Y-52274
X47165Y-47411
X47172Y-50684
X47175Y-49094
X47234Y-48819
X47323Y-55354
X47382Y-44764
X47441Y-46142
X47618Y-51377
X47667Y-54193
X47795Y-55059
X47874Y-42795
X47953Y-55492
X48002Y-54636
X48071Y-48504
X48110Y-43071
X48128Y-52245
X48150Y-47714
X48268Y-56575
X48297Y-57707
X48297Y-58071
X48307Y-42795
X48307Y-47441
X48319Y-52475
X48327Y-44783
X48396Y-55925
X48425Y-55335
X48455Y-56762
X48482Y-52697
X48504Y-46998
X48543Y-43071
X48686Y-52882
X48720Y-46142
X48740Y-42795
X48839Y-44783
X48867Y-53090
X48888Y-46998
X49007Y-53327
X49077Y-47971
X49173Y-56811
X49190Y-53533
X49281Y-46516
X49301Y-46142
X49351Y-53757
X49523Y-53972
X49724Y-54162
X49793Y-46516
X49813Y-46142
X49931Y-54380
X50187Y-56762
X50295Y-46142
X50295Y-46811
X50394Y-47933
X50748Y-46142
X50778Y-44764
X50787Y-46811
X50807Y-55689
X50846Y-51772
X51142Y-46949
X51299Y-42795
X51339Y-44823
X51535Y-43071
X51732Y-42795
X51752Y-44862
X51772Y-52017
X51900Y-46969
X51969Y-43071
X52087Y-46142
X52165Y-42795
X52244Y-51654
X52352Y-46969
X52569Y-51201
X52717Y-46142
X52717Y-46526
X53209Y-46526
X53219Y-46142
X53327Y-47224
X53465Y-51929
X53504Y-47854
X53711Y-46142
X53720Y-46870
X53789Y-48198
X54075Y-51319
X54173Y-46142
X54331Y-51929
X54488Y-55472
X54638Y-44225
X54656Y-43839
X54843Y-48189
X54862Y-43622
X54882Y-44468
X55157Y-44685
X55177Y-43425
X55512Y-55472
X56024Y-48189
X56171Y-56260
X56378Y-55728
X56478Y-53909
X48593Y-49370
X48593Y-49764
X48593Y-50157
X48593Y-50551
X48593Y-50945
X48986Y-49370
X48986Y-49764
X48986Y-50157
X48986Y-50551
X48986Y-50945
X49380Y-49370
X49380Y-49764
X49380Y-50157
X49380Y-50551
X49380Y-50945
X49774Y-49370
X49774Y-49764
X49774Y-50157
X49774Y-50551
X49774Y-50945
X50167Y-49370
X50167Y-49764
X50167Y-50157
X50167Y-50551
X50167Y-50945
T2
X57402Y-48425
X57402Y-49425
X57402Y-50425
X57402Y-51425
X57402Y-52425
X57402Y-53425
X57402Y-54425
X57402Y-55425
X57402Y-56425
X57402Y-57425
X58402Y-48425
X58402Y-49425
X58402Y-50425
X58402Y-51425
X58402Y-52425
X58402Y-53425
X58402Y-54425
X58402Y-55425
X58402Y-56425
X58402Y-57425
X40402Y-48425
X40402Y-49425
X40402Y-50425
X40402Y-51425
X40402Y-52425
X40402Y-53425
X40402Y-54425
X40402Y-55425
X40402Y-56425
X40402Y-57425
X41402Y-48425
X41402Y-49425
X41402Y-50425
X41402Y-51425
X41402Y-52425
X41402Y-53425
X41402Y-54425
X41402Y-55425
X41402Y-56425
X41402Y-57425
X53484Y-57441
X54484Y-57441
X55484Y-57441
T3
X41732Y-42648
X41732Y-45482
T4
X46004Y-40945
X49409Y-40945
X52815Y-40945
T0
M30
