G04 #@! TF.GenerationSoftware,KiCad,Pcbnew,(5.1.4)-1*
G04 #@! TF.CreationDate,2019-08-28T01:11:50-07:00*
G04 #@! TF.ProjectId,ESC Drivetrain V1,45534320-4472-4697-9665-747261696e20,rev?*
G04 #@! TF.SameCoordinates,Original*
G04 #@! TF.FileFunction,Copper,L4,Bot*
G04 #@! TF.FilePolarity,Positive*
%FSLAX46Y46*%
G04 Gerber Fmt 4.6, Leading zero omitted, Abs format (unit mm)*
G04 Created by KiCad (PCBNEW (5.1.4)-1) date 2019-08-28 01:11:50*
%MOMM*%
%LPD*%
G04 APERTURE LIST*
%ADD10C,0.100000*%
%ADD11C,0.500000*%
%ADD12C,0.600000*%
%ADD13C,0.800000*%
%ADD14R,5.516000X5.516000*%
%ADD15C,5.516000*%
%ADD16R,0.800000X0.750000*%
%ADD17R,1.250000X1.000000*%
%ADD18R,1.700000X1.700000*%
%ADD19O,1.700000X1.700000*%
%ADD20R,3.200000X1.000000*%
%ADD21C,7.000000*%
%ADD22C,0.203200*%
%ADD23C,0.344678*%
%ADD24C,0.250000*%
%ADD25C,0.500000*%
G04 APERTURE END LIST*
D10*
G36*
X137909901Y-112500241D02*
G01*
X137914755Y-112500961D01*
X137919514Y-112502153D01*
X137924134Y-112503806D01*
X137928570Y-112505904D01*
X137932779Y-112508427D01*
X137936720Y-112511349D01*
X137940355Y-112514645D01*
X137943651Y-112518280D01*
X137946573Y-112522221D01*
X137949096Y-112526430D01*
X137951194Y-112530866D01*
X137952847Y-112535486D01*
X137954039Y-112540245D01*
X137954759Y-112545099D01*
X137955000Y-112550000D01*
X137955000Y-113950000D01*
X137954759Y-113954901D01*
X137954039Y-113959755D01*
X137952847Y-113964514D01*
X137951194Y-113969134D01*
X137949096Y-113973570D01*
X137946573Y-113977779D01*
X137943651Y-113981720D01*
X137940355Y-113985355D01*
X137936720Y-113988651D01*
X137932779Y-113991573D01*
X137928570Y-113994096D01*
X137924134Y-113996194D01*
X137919514Y-113997847D01*
X137914755Y-113999039D01*
X137909901Y-113999759D01*
X137905000Y-114000000D01*
X137505000Y-114000000D01*
X137500099Y-113999759D01*
X137495245Y-113999039D01*
X137490486Y-113997847D01*
X137485866Y-113996194D01*
X137481430Y-113994096D01*
X137477221Y-113991573D01*
X137473280Y-113988651D01*
X137469645Y-113985355D01*
X137466349Y-113981720D01*
X137463427Y-113977779D01*
X137460904Y-113973570D01*
X137458806Y-113969134D01*
X137457153Y-113964514D01*
X137455961Y-113959755D01*
X137455241Y-113954901D01*
X137455000Y-113950000D01*
X137455000Y-112550000D01*
X137455241Y-112545099D01*
X137455961Y-112540245D01*
X137457153Y-112535486D01*
X137458806Y-112530866D01*
X137460904Y-112526430D01*
X137463427Y-112522221D01*
X137466349Y-112518280D01*
X137469645Y-112514645D01*
X137473280Y-112511349D01*
X137477221Y-112508427D01*
X137481430Y-112505904D01*
X137485866Y-112503806D01*
X137490486Y-112502153D01*
X137495245Y-112500961D01*
X137500099Y-112500241D01*
X137505000Y-112500000D01*
X137905000Y-112500000D01*
X137909901Y-112500241D01*
X137909901Y-112500241D01*
G37*
D11*
X137705000Y-113250000D03*
D10*
G36*
X136945881Y-112500289D02*
G01*
X136951705Y-112501153D01*
X136957417Y-112502584D01*
X136962961Y-112504567D01*
X136968284Y-112507085D01*
X136973334Y-112510112D01*
X136978064Y-112513619D01*
X136982426Y-112517574D01*
X136986381Y-112521936D01*
X136989888Y-112526666D01*
X136992915Y-112531716D01*
X136995433Y-112537039D01*
X136997416Y-112542583D01*
X136998847Y-112548295D01*
X136999711Y-112554119D01*
X137000000Y-112560000D01*
X137000000Y-113040000D01*
X136999711Y-113045881D01*
X136998847Y-113051705D01*
X136997416Y-113057417D01*
X136995433Y-113062961D01*
X136992915Y-113068284D01*
X136989888Y-113073334D01*
X136986381Y-113078064D01*
X136982426Y-113082426D01*
X136978064Y-113086381D01*
X136973334Y-113089888D01*
X136968284Y-113092915D01*
X136962961Y-113095433D01*
X136957417Y-113097416D01*
X136951705Y-113098847D01*
X136945881Y-113099711D01*
X136940000Y-113100000D01*
X133660000Y-113100000D01*
X133654119Y-113099711D01*
X133648295Y-113098847D01*
X133642583Y-113097416D01*
X133637039Y-113095433D01*
X133631716Y-113092915D01*
X133626666Y-113089888D01*
X133621936Y-113086381D01*
X133617574Y-113082426D01*
X133613619Y-113078064D01*
X133610112Y-113073334D01*
X133607085Y-113068284D01*
X133604567Y-113062961D01*
X133602584Y-113057417D01*
X133601153Y-113051705D01*
X133600289Y-113045881D01*
X133600000Y-113040000D01*
X133600000Y-112560000D01*
X133600289Y-112554119D01*
X133601153Y-112548295D01*
X133602584Y-112542583D01*
X133604567Y-112537039D01*
X133607085Y-112531716D01*
X133610112Y-112526666D01*
X133613619Y-112521936D01*
X133617574Y-112517574D01*
X133621936Y-112513619D01*
X133626666Y-112510112D01*
X133631716Y-112507085D01*
X133637039Y-112504567D01*
X133642583Y-112502584D01*
X133648295Y-112501153D01*
X133654119Y-112500289D01*
X133660000Y-112500000D01*
X136940000Y-112500000D01*
X136945881Y-112500289D01*
X136945881Y-112500289D01*
G37*
D12*
X135300000Y-112800000D03*
D11*
X135800000Y-115950000D03*
D10*
G36*
X133590245Y-116249039D02*
G01*
X133580866Y-116246194D01*
X133572221Y-116241573D01*
X133564645Y-116235355D01*
X133558427Y-116227779D01*
X133553806Y-116219134D01*
X133550961Y-116209755D01*
X133550000Y-116200000D01*
X133550000Y-113600000D01*
X133550961Y-113590245D01*
X133553806Y-113580866D01*
X133558427Y-113572221D01*
X133564645Y-113564645D01*
X133572221Y-113558427D01*
X133580866Y-113553806D01*
X133590245Y-113550961D01*
X133600000Y-113550000D01*
X137000000Y-113550000D01*
X137009755Y-113550961D01*
X137019134Y-113553806D01*
X137027779Y-113558427D01*
X137035355Y-113564645D01*
X137041573Y-113572221D01*
X137046194Y-113580866D01*
X137049039Y-113590245D01*
X137050000Y-113600000D01*
X137050000Y-114550000D01*
X138000000Y-114550000D01*
X138009755Y-114550961D01*
X138019134Y-114553806D01*
X138027779Y-114558427D01*
X138035355Y-114564645D01*
X138041573Y-114572221D01*
X138046194Y-114580866D01*
X138049039Y-114590245D01*
X138050000Y-114600000D01*
X138050000Y-116200000D01*
X138049039Y-116209755D01*
X138046194Y-116219134D01*
X138041573Y-116227779D01*
X138035355Y-116235355D01*
X138027779Y-116241573D01*
X138019134Y-116246194D01*
X138009755Y-116249039D01*
X138000000Y-116250000D01*
X133600000Y-116250000D01*
X133590245Y-116249039D01*
X133590245Y-116249039D01*
G37*
G36*
X138013921Y-116820193D02*
G01*
X138017804Y-116820769D01*
X138021611Y-116821722D01*
X138025307Y-116823045D01*
X138028856Y-116824723D01*
X138032223Y-116826741D01*
X138035376Y-116829080D01*
X138038284Y-116831716D01*
X138040920Y-116834624D01*
X138043259Y-116837777D01*
X138045277Y-116841144D01*
X138046955Y-116844693D01*
X138048278Y-116848389D01*
X138049231Y-116852196D01*
X138049807Y-116856079D01*
X138050000Y-116860000D01*
X138050000Y-117580000D01*
X138049807Y-117583921D01*
X138049231Y-117587804D01*
X138048278Y-117591611D01*
X138046955Y-117595307D01*
X138045277Y-117598856D01*
X138043259Y-117602223D01*
X138040920Y-117605376D01*
X138038284Y-117608284D01*
X138035376Y-117610920D01*
X138032223Y-117613259D01*
X138028856Y-117615277D01*
X138025307Y-117616955D01*
X138021611Y-117618278D01*
X138017804Y-117619231D01*
X138013921Y-117619807D01*
X138010000Y-117620000D01*
X133590000Y-117620000D01*
X133586079Y-117619807D01*
X133582196Y-117619231D01*
X133578389Y-117618278D01*
X133574693Y-117616955D01*
X133571144Y-117615277D01*
X133567777Y-117613259D01*
X133564624Y-117610920D01*
X133561716Y-117608284D01*
X133559080Y-117605376D01*
X133556741Y-117602223D01*
X133554723Y-117598856D01*
X133553045Y-117595307D01*
X133551722Y-117591611D01*
X133550769Y-117587804D01*
X133550193Y-117583921D01*
X133550000Y-117580000D01*
X133550000Y-116860000D01*
X133550193Y-116856079D01*
X133550769Y-116852196D01*
X133551722Y-116848389D01*
X133553045Y-116844693D01*
X133554723Y-116841144D01*
X133556741Y-116837777D01*
X133559080Y-116834624D01*
X133561716Y-116831716D01*
X133564624Y-116829080D01*
X133567777Y-116826741D01*
X133571144Y-116824723D01*
X133574693Y-116823045D01*
X133578389Y-116821722D01*
X133582196Y-116820769D01*
X133586079Y-116820193D01*
X133590000Y-116820000D01*
X138010000Y-116820000D01*
X138013921Y-116820193D01*
X138013921Y-116820193D01*
G37*
D13*
X135800000Y-117220000D03*
D10*
G36*
X137909901Y-118096241D02*
G01*
X137914755Y-118096961D01*
X137919514Y-118098153D01*
X137924134Y-118099806D01*
X137928570Y-118101904D01*
X137932779Y-118104427D01*
X137936720Y-118107349D01*
X137940355Y-118110645D01*
X137943651Y-118114280D01*
X137946573Y-118118221D01*
X137949096Y-118122430D01*
X137951194Y-118126866D01*
X137952847Y-118131486D01*
X137954039Y-118136245D01*
X137954759Y-118141099D01*
X137955000Y-118146000D01*
X137955000Y-118746000D01*
X137954759Y-118750901D01*
X137954039Y-118755755D01*
X137952847Y-118760514D01*
X137951194Y-118765134D01*
X137949096Y-118769570D01*
X137946573Y-118773779D01*
X137943651Y-118777720D01*
X137940355Y-118781355D01*
X137936720Y-118784651D01*
X137932779Y-118787573D01*
X137928570Y-118790096D01*
X137924134Y-118792194D01*
X137919514Y-118793847D01*
X137914755Y-118795039D01*
X137909901Y-118795759D01*
X137905000Y-118796000D01*
X137505000Y-118796000D01*
X137500099Y-118795759D01*
X137495245Y-118795039D01*
X137490486Y-118793847D01*
X137485866Y-118792194D01*
X137481430Y-118790096D01*
X137477221Y-118787573D01*
X137473280Y-118784651D01*
X137469645Y-118781355D01*
X137466349Y-118777720D01*
X137463427Y-118773779D01*
X137460904Y-118769570D01*
X137458806Y-118765134D01*
X137457153Y-118760514D01*
X137455961Y-118755755D01*
X137455241Y-118750901D01*
X137455000Y-118746000D01*
X137455000Y-118146000D01*
X137455241Y-118141099D01*
X137455961Y-118136245D01*
X137457153Y-118131486D01*
X137458806Y-118126866D01*
X137460904Y-118122430D01*
X137463427Y-118118221D01*
X137466349Y-118114280D01*
X137469645Y-118110645D01*
X137473280Y-118107349D01*
X137477221Y-118104427D01*
X137481430Y-118101904D01*
X137485866Y-118099806D01*
X137490486Y-118098153D01*
X137495245Y-118096961D01*
X137500099Y-118096241D01*
X137505000Y-118096000D01*
X137905000Y-118096000D01*
X137909901Y-118096241D01*
X137909901Y-118096241D01*
G37*
D11*
X137705000Y-118446000D03*
D10*
G36*
X134099901Y-118096241D02*
G01*
X134104755Y-118096961D01*
X134109514Y-118098153D01*
X134114134Y-118099806D01*
X134118570Y-118101904D01*
X134122779Y-118104427D01*
X134126720Y-118107349D01*
X134130355Y-118110645D01*
X134133651Y-118114280D01*
X134136573Y-118118221D01*
X134139096Y-118122430D01*
X134141194Y-118126866D01*
X134142847Y-118131486D01*
X134144039Y-118136245D01*
X134144759Y-118141099D01*
X134145000Y-118146000D01*
X134145000Y-118746000D01*
X134144759Y-118750901D01*
X134144039Y-118755755D01*
X134142847Y-118760514D01*
X134141194Y-118765134D01*
X134139096Y-118769570D01*
X134136573Y-118773779D01*
X134133651Y-118777720D01*
X134130355Y-118781355D01*
X134126720Y-118784651D01*
X134122779Y-118787573D01*
X134118570Y-118790096D01*
X134114134Y-118792194D01*
X134109514Y-118793847D01*
X134104755Y-118795039D01*
X134099901Y-118795759D01*
X134095000Y-118796000D01*
X133695000Y-118796000D01*
X133690099Y-118795759D01*
X133685245Y-118795039D01*
X133680486Y-118793847D01*
X133675866Y-118792194D01*
X133671430Y-118790096D01*
X133667221Y-118787573D01*
X133663280Y-118784651D01*
X133659645Y-118781355D01*
X133656349Y-118777720D01*
X133653427Y-118773779D01*
X133650904Y-118769570D01*
X133648806Y-118765134D01*
X133647153Y-118760514D01*
X133645961Y-118755755D01*
X133645241Y-118750901D01*
X133645000Y-118746000D01*
X133645000Y-118146000D01*
X133645241Y-118141099D01*
X133645961Y-118136245D01*
X133647153Y-118131486D01*
X133648806Y-118126866D01*
X133650904Y-118122430D01*
X133653427Y-118118221D01*
X133656349Y-118114280D01*
X133659645Y-118110645D01*
X133663280Y-118107349D01*
X133667221Y-118104427D01*
X133671430Y-118101904D01*
X133675866Y-118099806D01*
X133680486Y-118098153D01*
X133685245Y-118096961D01*
X133690099Y-118096241D01*
X133695000Y-118096000D01*
X134095000Y-118096000D01*
X134099901Y-118096241D01*
X134099901Y-118096241D01*
G37*
D11*
X133895000Y-118446000D03*
D10*
G36*
X136639901Y-118096241D02*
G01*
X136644755Y-118096961D01*
X136649514Y-118098153D01*
X136654134Y-118099806D01*
X136658570Y-118101904D01*
X136662779Y-118104427D01*
X136666720Y-118107349D01*
X136670355Y-118110645D01*
X136673651Y-118114280D01*
X136676573Y-118118221D01*
X136679096Y-118122430D01*
X136681194Y-118126866D01*
X136682847Y-118131486D01*
X136684039Y-118136245D01*
X136684759Y-118141099D01*
X136685000Y-118146000D01*
X136685000Y-118746000D01*
X136684759Y-118750901D01*
X136684039Y-118755755D01*
X136682847Y-118760514D01*
X136681194Y-118765134D01*
X136679096Y-118769570D01*
X136676573Y-118773779D01*
X136673651Y-118777720D01*
X136670355Y-118781355D01*
X136666720Y-118784651D01*
X136662779Y-118787573D01*
X136658570Y-118790096D01*
X136654134Y-118792194D01*
X136649514Y-118793847D01*
X136644755Y-118795039D01*
X136639901Y-118795759D01*
X136635000Y-118796000D01*
X136235000Y-118796000D01*
X136230099Y-118795759D01*
X136225245Y-118795039D01*
X136220486Y-118793847D01*
X136215866Y-118792194D01*
X136211430Y-118790096D01*
X136207221Y-118787573D01*
X136203280Y-118784651D01*
X136199645Y-118781355D01*
X136196349Y-118777720D01*
X136193427Y-118773779D01*
X136190904Y-118769570D01*
X136188806Y-118765134D01*
X136187153Y-118760514D01*
X136185961Y-118755755D01*
X136185241Y-118750901D01*
X136185000Y-118746000D01*
X136185000Y-118146000D01*
X136185241Y-118141099D01*
X136185961Y-118136245D01*
X136187153Y-118131486D01*
X136188806Y-118126866D01*
X136190904Y-118122430D01*
X136193427Y-118118221D01*
X136196349Y-118114280D01*
X136199645Y-118110645D01*
X136203280Y-118107349D01*
X136207221Y-118104427D01*
X136211430Y-118101904D01*
X136215866Y-118099806D01*
X136220486Y-118098153D01*
X136225245Y-118096961D01*
X136230099Y-118096241D01*
X136235000Y-118096000D01*
X136635000Y-118096000D01*
X136639901Y-118096241D01*
X136639901Y-118096241D01*
G37*
D11*
X136435000Y-118446000D03*
D10*
G36*
X135369901Y-118096241D02*
G01*
X135374755Y-118096961D01*
X135379514Y-118098153D01*
X135384134Y-118099806D01*
X135388570Y-118101904D01*
X135392779Y-118104427D01*
X135396720Y-118107349D01*
X135400355Y-118110645D01*
X135403651Y-118114280D01*
X135406573Y-118118221D01*
X135409096Y-118122430D01*
X135411194Y-118126866D01*
X135412847Y-118131486D01*
X135414039Y-118136245D01*
X135414759Y-118141099D01*
X135415000Y-118146000D01*
X135415000Y-118746000D01*
X135414759Y-118750901D01*
X135414039Y-118755755D01*
X135412847Y-118760514D01*
X135411194Y-118765134D01*
X135409096Y-118769570D01*
X135406573Y-118773779D01*
X135403651Y-118777720D01*
X135400355Y-118781355D01*
X135396720Y-118784651D01*
X135392779Y-118787573D01*
X135388570Y-118790096D01*
X135384134Y-118792194D01*
X135379514Y-118793847D01*
X135374755Y-118795039D01*
X135369901Y-118795759D01*
X135365000Y-118796000D01*
X134965000Y-118796000D01*
X134960099Y-118795759D01*
X134955245Y-118795039D01*
X134950486Y-118793847D01*
X134945866Y-118792194D01*
X134941430Y-118790096D01*
X134937221Y-118787573D01*
X134933280Y-118784651D01*
X134929645Y-118781355D01*
X134926349Y-118777720D01*
X134923427Y-118773779D01*
X134920904Y-118769570D01*
X134918806Y-118765134D01*
X134917153Y-118760514D01*
X134915961Y-118755755D01*
X134915241Y-118750901D01*
X134915000Y-118746000D01*
X134915000Y-118146000D01*
X134915241Y-118141099D01*
X134915961Y-118136245D01*
X134917153Y-118131486D01*
X134918806Y-118126866D01*
X134920904Y-118122430D01*
X134923427Y-118118221D01*
X134926349Y-118114280D01*
X134929645Y-118110645D01*
X134933280Y-118107349D01*
X134937221Y-118104427D01*
X134941430Y-118101904D01*
X134945866Y-118099806D01*
X134950486Y-118098153D01*
X134955245Y-118096961D01*
X134960099Y-118096241D01*
X134965000Y-118096000D01*
X135365000Y-118096000D01*
X135369901Y-118096241D01*
X135369901Y-118096241D01*
G37*
D11*
X135165000Y-118446000D03*
D10*
G36*
X129209901Y-112500241D02*
G01*
X129214755Y-112500961D01*
X129219514Y-112502153D01*
X129224134Y-112503806D01*
X129228570Y-112505904D01*
X129232779Y-112508427D01*
X129236720Y-112511349D01*
X129240355Y-112514645D01*
X129243651Y-112518280D01*
X129246573Y-112522221D01*
X129249096Y-112526430D01*
X129251194Y-112530866D01*
X129252847Y-112535486D01*
X129254039Y-112540245D01*
X129254759Y-112545099D01*
X129255000Y-112550000D01*
X129255000Y-113950000D01*
X129254759Y-113954901D01*
X129254039Y-113959755D01*
X129252847Y-113964514D01*
X129251194Y-113969134D01*
X129249096Y-113973570D01*
X129246573Y-113977779D01*
X129243651Y-113981720D01*
X129240355Y-113985355D01*
X129236720Y-113988651D01*
X129232779Y-113991573D01*
X129228570Y-113994096D01*
X129224134Y-113996194D01*
X129219514Y-113997847D01*
X129214755Y-113999039D01*
X129209901Y-113999759D01*
X129205000Y-114000000D01*
X128805000Y-114000000D01*
X128800099Y-113999759D01*
X128795245Y-113999039D01*
X128790486Y-113997847D01*
X128785866Y-113996194D01*
X128781430Y-113994096D01*
X128777221Y-113991573D01*
X128773280Y-113988651D01*
X128769645Y-113985355D01*
X128766349Y-113981720D01*
X128763427Y-113977779D01*
X128760904Y-113973570D01*
X128758806Y-113969134D01*
X128757153Y-113964514D01*
X128755961Y-113959755D01*
X128755241Y-113954901D01*
X128755000Y-113950000D01*
X128755000Y-112550000D01*
X128755241Y-112545099D01*
X128755961Y-112540245D01*
X128757153Y-112535486D01*
X128758806Y-112530866D01*
X128760904Y-112526430D01*
X128763427Y-112522221D01*
X128766349Y-112518280D01*
X128769645Y-112514645D01*
X128773280Y-112511349D01*
X128777221Y-112508427D01*
X128781430Y-112505904D01*
X128785866Y-112503806D01*
X128790486Y-112502153D01*
X128795245Y-112500961D01*
X128800099Y-112500241D01*
X128805000Y-112500000D01*
X129205000Y-112500000D01*
X129209901Y-112500241D01*
X129209901Y-112500241D01*
G37*
D11*
X129005000Y-113250000D03*
D10*
G36*
X128245881Y-112500289D02*
G01*
X128251705Y-112501153D01*
X128257417Y-112502584D01*
X128262961Y-112504567D01*
X128268284Y-112507085D01*
X128273334Y-112510112D01*
X128278064Y-112513619D01*
X128282426Y-112517574D01*
X128286381Y-112521936D01*
X128289888Y-112526666D01*
X128292915Y-112531716D01*
X128295433Y-112537039D01*
X128297416Y-112542583D01*
X128298847Y-112548295D01*
X128299711Y-112554119D01*
X128300000Y-112560000D01*
X128300000Y-113040000D01*
X128299711Y-113045881D01*
X128298847Y-113051705D01*
X128297416Y-113057417D01*
X128295433Y-113062961D01*
X128292915Y-113068284D01*
X128289888Y-113073334D01*
X128286381Y-113078064D01*
X128282426Y-113082426D01*
X128278064Y-113086381D01*
X128273334Y-113089888D01*
X128268284Y-113092915D01*
X128262961Y-113095433D01*
X128257417Y-113097416D01*
X128251705Y-113098847D01*
X128245881Y-113099711D01*
X128240000Y-113100000D01*
X124960000Y-113100000D01*
X124954119Y-113099711D01*
X124948295Y-113098847D01*
X124942583Y-113097416D01*
X124937039Y-113095433D01*
X124931716Y-113092915D01*
X124926666Y-113089888D01*
X124921936Y-113086381D01*
X124917574Y-113082426D01*
X124913619Y-113078064D01*
X124910112Y-113073334D01*
X124907085Y-113068284D01*
X124904567Y-113062961D01*
X124902584Y-113057417D01*
X124901153Y-113051705D01*
X124900289Y-113045881D01*
X124900000Y-113040000D01*
X124900000Y-112560000D01*
X124900289Y-112554119D01*
X124901153Y-112548295D01*
X124902584Y-112542583D01*
X124904567Y-112537039D01*
X124907085Y-112531716D01*
X124910112Y-112526666D01*
X124913619Y-112521936D01*
X124917574Y-112517574D01*
X124921936Y-112513619D01*
X124926666Y-112510112D01*
X124931716Y-112507085D01*
X124937039Y-112504567D01*
X124942583Y-112502584D01*
X124948295Y-112501153D01*
X124954119Y-112500289D01*
X124960000Y-112500000D01*
X128240000Y-112500000D01*
X128245881Y-112500289D01*
X128245881Y-112500289D01*
G37*
D12*
X126600000Y-112800000D03*
D11*
X127100000Y-115950000D03*
D10*
G36*
X124890245Y-116249039D02*
G01*
X124880866Y-116246194D01*
X124872221Y-116241573D01*
X124864645Y-116235355D01*
X124858427Y-116227779D01*
X124853806Y-116219134D01*
X124850961Y-116209755D01*
X124850000Y-116200000D01*
X124850000Y-113600000D01*
X124850961Y-113590245D01*
X124853806Y-113580866D01*
X124858427Y-113572221D01*
X124864645Y-113564645D01*
X124872221Y-113558427D01*
X124880866Y-113553806D01*
X124890245Y-113550961D01*
X124900000Y-113550000D01*
X128300000Y-113550000D01*
X128309755Y-113550961D01*
X128319134Y-113553806D01*
X128327779Y-113558427D01*
X128335355Y-113564645D01*
X128341573Y-113572221D01*
X128346194Y-113580866D01*
X128349039Y-113590245D01*
X128350000Y-113600000D01*
X128350000Y-114550000D01*
X129300000Y-114550000D01*
X129309755Y-114550961D01*
X129319134Y-114553806D01*
X129327779Y-114558427D01*
X129335355Y-114564645D01*
X129341573Y-114572221D01*
X129346194Y-114580866D01*
X129349039Y-114590245D01*
X129350000Y-114600000D01*
X129350000Y-116200000D01*
X129349039Y-116209755D01*
X129346194Y-116219134D01*
X129341573Y-116227779D01*
X129335355Y-116235355D01*
X129327779Y-116241573D01*
X129319134Y-116246194D01*
X129309755Y-116249039D01*
X129300000Y-116250000D01*
X124900000Y-116250000D01*
X124890245Y-116249039D01*
X124890245Y-116249039D01*
G37*
G36*
X129313921Y-116820193D02*
G01*
X129317804Y-116820769D01*
X129321611Y-116821722D01*
X129325307Y-116823045D01*
X129328856Y-116824723D01*
X129332223Y-116826741D01*
X129335376Y-116829080D01*
X129338284Y-116831716D01*
X129340920Y-116834624D01*
X129343259Y-116837777D01*
X129345277Y-116841144D01*
X129346955Y-116844693D01*
X129348278Y-116848389D01*
X129349231Y-116852196D01*
X129349807Y-116856079D01*
X129350000Y-116860000D01*
X129350000Y-117580000D01*
X129349807Y-117583921D01*
X129349231Y-117587804D01*
X129348278Y-117591611D01*
X129346955Y-117595307D01*
X129345277Y-117598856D01*
X129343259Y-117602223D01*
X129340920Y-117605376D01*
X129338284Y-117608284D01*
X129335376Y-117610920D01*
X129332223Y-117613259D01*
X129328856Y-117615277D01*
X129325307Y-117616955D01*
X129321611Y-117618278D01*
X129317804Y-117619231D01*
X129313921Y-117619807D01*
X129310000Y-117620000D01*
X124890000Y-117620000D01*
X124886079Y-117619807D01*
X124882196Y-117619231D01*
X124878389Y-117618278D01*
X124874693Y-117616955D01*
X124871144Y-117615277D01*
X124867777Y-117613259D01*
X124864624Y-117610920D01*
X124861716Y-117608284D01*
X124859080Y-117605376D01*
X124856741Y-117602223D01*
X124854723Y-117598856D01*
X124853045Y-117595307D01*
X124851722Y-117591611D01*
X124850769Y-117587804D01*
X124850193Y-117583921D01*
X124850000Y-117580000D01*
X124850000Y-116860000D01*
X124850193Y-116856079D01*
X124850769Y-116852196D01*
X124851722Y-116848389D01*
X124853045Y-116844693D01*
X124854723Y-116841144D01*
X124856741Y-116837777D01*
X124859080Y-116834624D01*
X124861716Y-116831716D01*
X124864624Y-116829080D01*
X124867777Y-116826741D01*
X124871144Y-116824723D01*
X124874693Y-116823045D01*
X124878389Y-116821722D01*
X124882196Y-116820769D01*
X124886079Y-116820193D01*
X124890000Y-116820000D01*
X129310000Y-116820000D01*
X129313921Y-116820193D01*
X129313921Y-116820193D01*
G37*
D13*
X127100000Y-117220000D03*
D10*
G36*
X129209901Y-118096241D02*
G01*
X129214755Y-118096961D01*
X129219514Y-118098153D01*
X129224134Y-118099806D01*
X129228570Y-118101904D01*
X129232779Y-118104427D01*
X129236720Y-118107349D01*
X129240355Y-118110645D01*
X129243651Y-118114280D01*
X129246573Y-118118221D01*
X129249096Y-118122430D01*
X129251194Y-118126866D01*
X129252847Y-118131486D01*
X129254039Y-118136245D01*
X129254759Y-118141099D01*
X129255000Y-118146000D01*
X129255000Y-118746000D01*
X129254759Y-118750901D01*
X129254039Y-118755755D01*
X129252847Y-118760514D01*
X129251194Y-118765134D01*
X129249096Y-118769570D01*
X129246573Y-118773779D01*
X129243651Y-118777720D01*
X129240355Y-118781355D01*
X129236720Y-118784651D01*
X129232779Y-118787573D01*
X129228570Y-118790096D01*
X129224134Y-118792194D01*
X129219514Y-118793847D01*
X129214755Y-118795039D01*
X129209901Y-118795759D01*
X129205000Y-118796000D01*
X128805000Y-118796000D01*
X128800099Y-118795759D01*
X128795245Y-118795039D01*
X128790486Y-118793847D01*
X128785866Y-118792194D01*
X128781430Y-118790096D01*
X128777221Y-118787573D01*
X128773280Y-118784651D01*
X128769645Y-118781355D01*
X128766349Y-118777720D01*
X128763427Y-118773779D01*
X128760904Y-118769570D01*
X128758806Y-118765134D01*
X128757153Y-118760514D01*
X128755961Y-118755755D01*
X128755241Y-118750901D01*
X128755000Y-118746000D01*
X128755000Y-118146000D01*
X128755241Y-118141099D01*
X128755961Y-118136245D01*
X128757153Y-118131486D01*
X128758806Y-118126866D01*
X128760904Y-118122430D01*
X128763427Y-118118221D01*
X128766349Y-118114280D01*
X128769645Y-118110645D01*
X128773280Y-118107349D01*
X128777221Y-118104427D01*
X128781430Y-118101904D01*
X128785866Y-118099806D01*
X128790486Y-118098153D01*
X128795245Y-118096961D01*
X128800099Y-118096241D01*
X128805000Y-118096000D01*
X129205000Y-118096000D01*
X129209901Y-118096241D01*
X129209901Y-118096241D01*
G37*
D11*
X129005000Y-118446000D03*
D10*
G36*
X125399901Y-118096241D02*
G01*
X125404755Y-118096961D01*
X125409514Y-118098153D01*
X125414134Y-118099806D01*
X125418570Y-118101904D01*
X125422779Y-118104427D01*
X125426720Y-118107349D01*
X125430355Y-118110645D01*
X125433651Y-118114280D01*
X125436573Y-118118221D01*
X125439096Y-118122430D01*
X125441194Y-118126866D01*
X125442847Y-118131486D01*
X125444039Y-118136245D01*
X125444759Y-118141099D01*
X125445000Y-118146000D01*
X125445000Y-118746000D01*
X125444759Y-118750901D01*
X125444039Y-118755755D01*
X125442847Y-118760514D01*
X125441194Y-118765134D01*
X125439096Y-118769570D01*
X125436573Y-118773779D01*
X125433651Y-118777720D01*
X125430355Y-118781355D01*
X125426720Y-118784651D01*
X125422779Y-118787573D01*
X125418570Y-118790096D01*
X125414134Y-118792194D01*
X125409514Y-118793847D01*
X125404755Y-118795039D01*
X125399901Y-118795759D01*
X125395000Y-118796000D01*
X124995000Y-118796000D01*
X124990099Y-118795759D01*
X124985245Y-118795039D01*
X124980486Y-118793847D01*
X124975866Y-118792194D01*
X124971430Y-118790096D01*
X124967221Y-118787573D01*
X124963280Y-118784651D01*
X124959645Y-118781355D01*
X124956349Y-118777720D01*
X124953427Y-118773779D01*
X124950904Y-118769570D01*
X124948806Y-118765134D01*
X124947153Y-118760514D01*
X124945961Y-118755755D01*
X124945241Y-118750901D01*
X124945000Y-118746000D01*
X124945000Y-118146000D01*
X124945241Y-118141099D01*
X124945961Y-118136245D01*
X124947153Y-118131486D01*
X124948806Y-118126866D01*
X124950904Y-118122430D01*
X124953427Y-118118221D01*
X124956349Y-118114280D01*
X124959645Y-118110645D01*
X124963280Y-118107349D01*
X124967221Y-118104427D01*
X124971430Y-118101904D01*
X124975866Y-118099806D01*
X124980486Y-118098153D01*
X124985245Y-118096961D01*
X124990099Y-118096241D01*
X124995000Y-118096000D01*
X125395000Y-118096000D01*
X125399901Y-118096241D01*
X125399901Y-118096241D01*
G37*
D11*
X125195000Y-118446000D03*
D10*
G36*
X127939901Y-118096241D02*
G01*
X127944755Y-118096961D01*
X127949514Y-118098153D01*
X127954134Y-118099806D01*
X127958570Y-118101904D01*
X127962779Y-118104427D01*
X127966720Y-118107349D01*
X127970355Y-118110645D01*
X127973651Y-118114280D01*
X127976573Y-118118221D01*
X127979096Y-118122430D01*
X127981194Y-118126866D01*
X127982847Y-118131486D01*
X127984039Y-118136245D01*
X127984759Y-118141099D01*
X127985000Y-118146000D01*
X127985000Y-118746000D01*
X127984759Y-118750901D01*
X127984039Y-118755755D01*
X127982847Y-118760514D01*
X127981194Y-118765134D01*
X127979096Y-118769570D01*
X127976573Y-118773779D01*
X127973651Y-118777720D01*
X127970355Y-118781355D01*
X127966720Y-118784651D01*
X127962779Y-118787573D01*
X127958570Y-118790096D01*
X127954134Y-118792194D01*
X127949514Y-118793847D01*
X127944755Y-118795039D01*
X127939901Y-118795759D01*
X127935000Y-118796000D01*
X127535000Y-118796000D01*
X127530099Y-118795759D01*
X127525245Y-118795039D01*
X127520486Y-118793847D01*
X127515866Y-118792194D01*
X127511430Y-118790096D01*
X127507221Y-118787573D01*
X127503280Y-118784651D01*
X127499645Y-118781355D01*
X127496349Y-118777720D01*
X127493427Y-118773779D01*
X127490904Y-118769570D01*
X127488806Y-118765134D01*
X127487153Y-118760514D01*
X127485961Y-118755755D01*
X127485241Y-118750901D01*
X127485000Y-118746000D01*
X127485000Y-118146000D01*
X127485241Y-118141099D01*
X127485961Y-118136245D01*
X127487153Y-118131486D01*
X127488806Y-118126866D01*
X127490904Y-118122430D01*
X127493427Y-118118221D01*
X127496349Y-118114280D01*
X127499645Y-118110645D01*
X127503280Y-118107349D01*
X127507221Y-118104427D01*
X127511430Y-118101904D01*
X127515866Y-118099806D01*
X127520486Y-118098153D01*
X127525245Y-118096961D01*
X127530099Y-118096241D01*
X127535000Y-118096000D01*
X127935000Y-118096000D01*
X127939901Y-118096241D01*
X127939901Y-118096241D01*
G37*
D11*
X127735000Y-118446000D03*
D10*
G36*
X126669901Y-118096241D02*
G01*
X126674755Y-118096961D01*
X126679514Y-118098153D01*
X126684134Y-118099806D01*
X126688570Y-118101904D01*
X126692779Y-118104427D01*
X126696720Y-118107349D01*
X126700355Y-118110645D01*
X126703651Y-118114280D01*
X126706573Y-118118221D01*
X126709096Y-118122430D01*
X126711194Y-118126866D01*
X126712847Y-118131486D01*
X126714039Y-118136245D01*
X126714759Y-118141099D01*
X126715000Y-118146000D01*
X126715000Y-118746000D01*
X126714759Y-118750901D01*
X126714039Y-118755755D01*
X126712847Y-118760514D01*
X126711194Y-118765134D01*
X126709096Y-118769570D01*
X126706573Y-118773779D01*
X126703651Y-118777720D01*
X126700355Y-118781355D01*
X126696720Y-118784651D01*
X126692779Y-118787573D01*
X126688570Y-118790096D01*
X126684134Y-118792194D01*
X126679514Y-118793847D01*
X126674755Y-118795039D01*
X126669901Y-118795759D01*
X126665000Y-118796000D01*
X126265000Y-118796000D01*
X126260099Y-118795759D01*
X126255245Y-118795039D01*
X126250486Y-118793847D01*
X126245866Y-118792194D01*
X126241430Y-118790096D01*
X126237221Y-118787573D01*
X126233280Y-118784651D01*
X126229645Y-118781355D01*
X126226349Y-118777720D01*
X126223427Y-118773779D01*
X126220904Y-118769570D01*
X126218806Y-118765134D01*
X126217153Y-118760514D01*
X126215961Y-118755755D01*
X126215241Y-118750901D01*
X126215000Y-118746000D01*
X126215000Y-118146000D01*
X126215241Y-118141099D01*
X126215961Y-118136245D01*
X126217153Y-118131486D01*
X126218806Y-118126866D01*
X126220904Y-118122430D01*
X126223427Y-118118221D01*
X126226349Y-118114280D01*
X126229645Y-118110645D01*
X126233280Y-118107349D01*
X126237221Y-118104427D01*
X126241430Y-118101904D01*
X126245866Y-118099806D01*
X126250486Y-118098153D01*
X126255245Y-118096961D01*
X126260099Y-118096241D01*
X126265000Y-118096000D01*
X126665000Y-118096000D01*
X126669901Y-118096241D01*
X126669901Y-118096241D01*
G37*
D11*
X126465000Y-118446000D03*
D10*
G36*
X120559901Y-112500241D02*
G01*
X120564755Y-112500961D01*
X120569514Y-112502153D01*
X120574134Y-112503806D01*
X120578570Y-112505904D01*
X120582779Y-112508427D01*
X120586720Y-112511349D01*
X120590355Y-112514645D01*
X120593651Y-112518280D01*
X120596573Y-112522221D01*
X120599096Y-112526430D01*
X120601194Y-112530866D01*
X120602847Y-112535486D01*
X120604039Y-112540245D01*
X120604759Y-112545099D01*
X120605000Y-112550000D01*
X120605000Y-113950000D01*
X120604759Y-113954901D01*
X120604039Y-113959755D01*
X120602847Y-113964514D01*
X120601194Y-113969134D01*
X120599096Y-113973570D01*
X120596573Y-113977779D01*
X120593651Y-113981720D01*
X120590355Y-113985355D01*
X120586720Y-113988651D01*
X120582779Y-113991573D01*
X120578570Y-113994096D01*
X120574134Y-113996194D01*
X120569514Y-113997847D01*
X120564755Y-113999039D01*
X120559901Y-113999759D01*
X120555000Y-114000000D01*
X120155000Y-114000000D01*
X120150099Y-113999759D01*
X120145245Y-113999039D01*
X120140486Y-113997847D01*
X120135866Y-113996194D01*
X120131430Y-113994096D01*
X120127221Y-113991573D01*
X120123280Y-113988651D01*
X120119645Y-113985355D01*
X120116349Y-113981720D01*
X120113427Y-113977779D01*
X120110904Y-113973570D01*
X120108806Y-113969134D01*
X120107153Y-113964514D01*
X120105961Y-113959755D01*
X120105241Y-113954901D01*
X120105000Y-113950000D01*
X120105000Y-112550000D01*
X120105241Y-112545099D01*
X120105961Y-112540245D01*
X120107153Y-112535486D01*
X120108806Y-112530866D01*
X120110904Y-112526430D01*
X120113427Y-112522221D01*
X120116349Y-112518280D01*
X120119645Y-112514645D01*
X120123280Y-112511349D01*
X120127221Y-112508427D01*
X120131430Y-112505904D01*
X120135866Y-112503806D01*
X120140486Y-112502153D01*
X120145245Y-112500961D01*
X120150099Y-112500241D01*
X120155000Y-112500000D01*
X120555000Y-112500000D01*
X120559901Y-112500241D01*
X120559901Y-112500241D01*
G37*
D11*
X120355000Y-113250000D03*
D10*
G36*
X119595881Y-112500289D02*
G01*
X119601705Y-112501153D01*
X119607417Y-112502584D01*
X119612961Y-112504567D01*
X119618284Y-112507085D01*
X119623334Y-112510112D01*
X119628064Y-112513619D01*
X119632426Y-112517574D01*
X119636381Y-112521936D01*
X119639888Y-112526666D01*
X119642915Y-112531716D01*
X119645433Y-112537039D01*
X119647416Y-112542583D01*
X119648847Y-112548295D01*
X119649711Y-112554119D01*
X119650000Y-112560000D01*
X119650000Y-113040000D01*
X119649711Y-113045881D01*
X119648847Y-113051705D01*
X119647416Y-113057417D01*
X119645433Y-113062961D01*
X119642915Y-113068284D01*
X119639888Y-113073334D01*
X119636381Y-113078064D01*
X119632426Y-113082426D01*
X119628064Y-113086381D01*
X119623334Y-113089888D01*
X119618284Y-113092915D01*
X119612961Y-113095433D01*
X119607417Y-113097416D01*
X119601705Y-113098847D01*
X119595881Y-113099711D01*
X119590000Y-113100000D01*
X116310000Y-113100000D01*
X116304119Y-113099711D01*
X116298295Y-113098847D01*
X116292583Y-113097416D01*
X116287039Y-113095433D01*
X116281716Y-113092915D01*
X116276666Y-113089888D01*
X116271936Y-113086381D01*
X116267574Y-113082426D01*
X116263619Y-113078064D01*
X116260112Y-113073334D01*
X116257085Y-113068284D01*
X116254567Y-113062961D01*
X116252584Y-113057417D01*
X116251153Y-113051705D01*
X116250289Y-113045881D01*
X116250000Y-113040000D01*
X116250000Y-112560000D01*
X116250289Y-112554119D01*
X116251153Y-112548295D01*
X116252584Y-112542583D01*
X116254567Y-112537039D01*
X116257085Y-112531716D01*
X116260112Y-112526666D01*
X116263619Y-112521936D01*
X116267574Y-112517574D01*
X116271936Y-112513619D01*
X116276666Y-112510112D01*
X116281716Y-112507085D01*
X116287039Y-112504567D01*
X116292583Y-112502584D01*
X116298295Y-112501153D01*
X116304119Y-112500289D01*
X116310000Y-112500000D01*
X119590000Y-112500000D01*
X119595881Y-112500289D01*
X119595881Y-112500289D01*
G37*
D12*
X117950000Y-112800000D03*
D11*
X118450000Y-115950000D03*
D10*
G36*
X116240245Y-116249039D02*
G01*
X116230866Y-116246194D01*
X116222221Y-116241573D01*
X116214645Y-116235355D01*
X116208427Y-116227779D01*
X116203806Y-116219134D01*
X116200961Y-116209755D01*
X116200000Y-116200000D01*
X116200000Y-113600000D01*
X116200961Y-113590245D01*
X116203806Y-113580866D01*
X116208427Y-113572221D01*
X116214645Y-113564645D01*
X116222221Y-113558427D01*
X116230866Y-113553806D01*
X116240245Y-113550961D01*
X116250000Y-113550000D01*
X119650000Y-113550000D01*
X119659755Y-113550961D01*
X119669134Y-113553806D01*
X119677779Y-113558427D01*
X119685355Y-113564645D01*
X119691573Y-113572221D01*
X119696194Y-113580866D01*
X119699039Y-113590245D01*
X119700000Y-113600000D01*
X119700000Y-114550000D01*
X120650000Y-114550000D01*
X120659755Y-114550961D01*
X120669134Y-114553806D01*
X120677779Y-114558427D01*
X120685355Y-114564645D01*
X120691573Y-114572221D01*
X120696194Y-114580866D01*
X120699039Y-114590245D01*
X120700000Y-114600000D01*
X120700000Y-116200000D01*
X120699039Y-116209755D01*
X120696194Y-116219134D01*
X120691573Y-116227779D01*
X120685355Y-116235355D01*
X120677779Y-116241573D01*
X120669134Y-116246194D01*
X120659755Y-116249039D01*
X120650000Y-116250000D01*
X116250000Y-116250000D01*
X116240245Y-116249039D01*
X116240245Y-116249039D01*
G37*
G36*
X120663921Y-116820193D02*
G01*
X120667804Y-116820769D01*
X120671611Y-116821722D01*
X120675307Y-116823045D01*
X120678856Y-116824723D01*
X120682223Y-116826741D01*
X120685376Y-116829080D01*
X120688284Y-116831716D01*
X120690920Y-116834624D01*
X120693259Y-116837777D01*
X120695277Y-116841144D01*
X120696955Y-116844693D01*
X120698278Y-116848389D01*
X120699231Y-116852196D01*
X120699807Y-116856079D01*
X120700000Y-116860000D01*
X120700000Y-117580000D01*
X120699807Y-117583921D01*
X120699231Y-117587804D01*
X120698278Y-117591611D01*
X120696955Y-117595307D01*
X120695277Y-117598856D01*
X120693259Y-117602223D01*
X120690920Y-117605376D01*
X120688284Y-117608284D01*
X120685376Y-117610920D01*
X120682223Y-117613259D01*
X120678856Y-117615277D01*
X120675307Y-117616955D01*
X120671611Y-117618278D01*
X120667804Y-117619231D01*
X120663921Y-117619807D01*
X120660000Y-117620000D01*
X116240000Y-117620000D01*
X116236079Y-117619807D01*
X116232196Y-117619231D01*
X116228389Y-117618278D01*
X116224693Y-117616955D01*
X116221144Y-117615277D01*
X116217777Y-117613259D01*
X116214624Y-117610920D01*
X116211716Y-117608284D01*
X116209080Y-117605376D01*
X116206741Y-117602223D01*
X116204723Y-117598856D01*
X116203045Y-117595307D01*
X116201722Y-117591611D01*
X116200769Y-117587804D01*
X116200193Y-117583921D01*
X116200000Y-117580000D01*
X116200000Y-116860000D01*
X116200193Y-116856079D01*
X116200769Y-116852196D01*
X116201722Y-116848389D01*
X116203045Y-116844693D01*
X116204723Y-116841144D01*
X116206741Y-116837777D01*
X116209080Y-116834624D01*
X116211716Y-116831716D01*
X116214624Y-116829080D01*
X116217777Y-116826741D01*
X116221144Y-116824723D01*
X116224693Y-116823045D01*
X116228389Y-116821722D01*
X116232196Y-116820769D01*
X116236079Y-116820193D01*
X116240000Y-116820000D01*
X120660000Y-116820000D01*
X120663921Y-116820193D01*
X120663921Y-116820193D01*
G37*
D13*
X118450000Y-117220000D03*
D10*
G36*
X120559901Y-118096241D02*
G01*
X120564755Y-118096961D01*
X120569514Y-118098153D01*
X120574134Y-118099806D01*
X120578570Y-118101904D01*
X120582779Y-118104427D01*
X120586720Y-118107349D01*
X120590355Y-118110645D01*
X120593651Y-118114280D01*
X120596573Y-118118221D01*
X120599096Y-118122430D01*
X120601194Y-118126866D01*
X120602847Y-118131486D01*
X120604039Y-118136245D01*
X120604759Y-118141099D01*
X120605000Y-118146000D01*
X120605000Y-118746000D01*
X120604759Y-118750901D01*
X120604039Y-118755755D01*
X120602847Y-118760514D01*
X120601194Y-118765134D01*
X120599096Y-118769570D01*
X120596573Y-118773779D01*
X120593651Y-118777720D01*
X120590355Y-118781355D01*
X120586720Y-118784651D01*
X120582779Y-118787573D01*
X120578570Y-118790096D01*
X120574134Y-118792194D01*
X120569514Y-118793847D01*
X120564755Y-118795039D01*
X120559901Y-118795759D01*
X120555000Y-118796000D01*
X120155000Y-118796000D01*
X120150099Y-118795759D01*
X120145245Y-118795039D01*
X120140486Y-118793847D01*
X120135866Y-118792194D01*
X120131430Y-118790096D01*
X120127221Y-118787573D01*
X120123280Y-118784651D01*
X120119645Y-118781355D01*
X120116349Y-118777720D01*
X120113427Y-118773779D01*
X120110904Y-118769570D01*
X120108806Y-118765134D01*
X120107153Y-118760514D01*
X120105961Y-118755755D01*
X120105241Y-118750901D01*
X120105000Y-118746000D01*
X120105000Y-118146000D01*
X120105241Y-118141099D01*
X120105961Y-118136245D01*
X120107153Y-118131486D01*
X120108806Y-118126866D01*
X120110904Y-118122430D01*
X120113427Y-118118221D01*
X120116349Y-118114280D01*
X120119645Y-118110645D01*
X120123280Y-118107349D01*
X120127221Y-118104427D01*
X120131430Y-118101904D01*
X120135866Y-118099806D01*
X120140486Y-118098153D01*
X120145245Y-118096961D01*
X120150099Y-118096241D01*
X120155000Y-118096000D01*
X120555000Y-118096000D01*
X120559901Y-118096241D01*
X120559901Y-118096241D01*
G37*
D11*
X120355000Y-118446000D03*
D10*
G36*
X116749901Y-118096241D02*
G01*
X116754755Y-118096961D01*
X116759514Y-118098153D01*
X116764134Y-118099806D01*
X116768570Y-118101904D01*
X116772779Y-118104427D01*
X116776720Y-118107349D01*
X116780355Y-118110645D01*
X116783651Y-118114280D01*
X116786573Y-118118221D01*
X116789096Y-118122430D01*
X116791194Y-118126866D01*
X116792847Y-118131486D01*
X116794039Y-118136245D01*
X116794759Y-118141099D01*
X116795000Y-118146000D01*
X116795000Y-118746000D01*
X116794759Y-118750901D01*
X116794039Y-118755755D01*
X116792847Y-118760514D01*
X116791194Y-118765134D01*
X116789096Y-118769570D01*
X116786573Y-118773779D01*
X116783651Y-118777720D01*
X116780355Y-118781355D01*
X116776720Y-118784651D01*
X116772779Y-118787573D01*
X116768570Y-118790096D01*
X116764134Y-118792194D01*
X116759514Y-118793847D01*
X116754755Y-118795039D01*
X116749901Y-118795759D01*
X116745000Y-118796000D01*
X116345000Y-118796000D01*
X116340099Y-118795759D01*
X116335245Y-118795039D01*
X116330486Y-118793847D01*
X116325866Y-118792194D01*
X116321430Y-118790096D01*
X116317221Y-118787573D01*
X116313280Y-118784651D01*
X116309645Y-118781355D01*
X116306349Y-118777720D01*
X116303427Y-118773779D01*
X116300904Y-118769570D01*
X116298806Y-118765134D01*
X116297153Y-118760514D01*
X116295961Y-118755755D01*
X116295241Y-118750901D01*
X116295000Y-118746000D01*
X116295000Y-118146000D01*
X116295241Y-118141099D01*
X116295961Y-118136245D01*
X116297153Y-118131486D01*
X116298806Y-118126866D01*
X116300904Y-118122430D01*
X116303427Y-118118221D01*
X116306349Y-118114280D01*
X116309645Y-118110645D01*
X116313280Y-118107349D01*
X116317221Y-118104427D01*
X116321430Y-118101904D01*
X116325866Y-118099806D01*
X116330486Y-118098153D01*
X116335245Y-118096961D01*
X116340099Y-118096241D01*
X116345000Y-118096000D01*
X116745000Y-118096000D01*
X116749901Y-118096241D01*
X116749901Y-118096241D01*
G37*
D11*
X116545000Y-118446000D03*
D10*
G36*
X119289901Y-118096241D02*
G01*
X119294755Y-118096961D01*
X119299514Y-118098153D01*
X119304134Y-118099806D01*
X119308570Y-118101904D01*
X119312779Y-118104427D01*
X119316720Y-118107349D01*
X119320355Y-118110645D01*
X119323651Y-118114280D01*
X119326573Y-118118221D01*
X119329096Y-118122430D01*
X119331194Y-118126866D01*
X119332847Y-118131486D01*
X119334039Y-118136245D01*
X119334759Y-118141099D01*
X119335000Y-118146000D01*
X119335000Y-118746000D01*
X119334759Y-118750901D01*
X119334039Y-118755755D01*
X119332847Y-118760514D01*
X119331194Y-118765134D01*
X119329096Y-118769570D01*
X119326573Y-118773779D01*
X119323651Y-118777720D01*
X119320355Y-118781355D01*
X119316720Y-118784651D01*
X119312779Y-118787573D01*
X119308570Y-118790096D01*
X119304134Y-118792194D01*
X119299514Y-118793847D01*
X119294755Y-118795039D01*
X119289901Y-118795759D01*
X119285000Y-118796000D01*
X118885000Y-118796000D01*
X118880099Y-118795759D01*
X118875245Y-118795039D01*
X118870486Y-118793847D01*
X118865866Y-118792194D01*
X118861430Y-118790096D01*
X118857221Y-118787573D01*
X118853280Y-118784651D01*
X118849645Y-118781355D01*
X118846349Y-118777720D01*
X118843427Y-118773779D01*
X118840904Y-118769570D01*
X118838806Y-118765134D01*
X118837153Y-118760514D01*
X118835961Y-118755755D01*
X118835241Y-118750901D01*
X118835000Y-118746000D01*
X118835000Y-118146000D01*
X118835241Y-118141099D01*
X118835961Y-118136245D01*
X118837153Y-118131486D01*
X118838806Y-118126866D01*
X118840904Y-118122430D01*
X118843427Y-118118221D01*
X118846349Y-118114280D01*
X118849645Y-118110645D01*
X118853280Y-118107349D01*
X118857221Y-118104427D01*
X118861430Y-118101904D01*
X118865866Y-118099806D01*
X118870486Y-118098153D01*
X118875245Y-118096961D01*
X118880099Y-118096241D01*
X118885000Y-118096000D01*
X119285000Y-118096000D01*
X119289901Y-118096241D01*
X119289901Y-118096241D01*
G37*
D11*
X119085000Y-118446000D03*
D10*
G36*
X118019901Y-118096241D02*
G01*
X118024755Y-118096961D01*
X118029514Y-118098153D01*
X118034134Y-118099806D01*
X118038570Y-118101904D01*
X118042779Y-118104427D01*
X118046720Y-118107349D01*
X118050355Y-118110645D01*
X118053651Y-118114280D01*
X118056573Y-118118221D01*
X118059096Y-118122430D01*
X118061194Y-118126866D01*
X118062847Y-118131486D01*
X118064039Y-118136245D01*
X118064759Y-118141099D01*
X118065000Y-118146000D01*
X118065000Y-118746000D01*
X118064759Y-118750901D01*
X118064039Y-118755755D01*
X118062847Y-118760514D01*
X118061194Y-118765134D01*
X118059096Y-118769570D01*
X118056573Y-118773779D01*
X118053651Y-118777720D01*
X118050355Y-118781355D01*
X118046720Y-118784651D01*
X118042779Y-118787573D01*
X118038570Y-118790096D01*
X118034134Y-118792194D01*
X118029514Y-118793847D01*
X118024755Y-118795039D01*
X118019901Y-118795759D01*
X118015000Y-118796000D01*
X117615000Y-118796000D01*
X117610099Y-118795759D01*
X117605245Y-118795039D01*
X117600486Y-118793847D01*
X117595866Y-118792194D01*
X117591430Y-118790096D01*
X117587221Y-118787573D01*
X117583280Y-118784651D01*
X117579645Y-118781355D01*
X117576349Y-118777720D01*
X117573427Y-118773779D01*
X117570904Y-118769570D01*
X117568806Y-118765134D01*
X117567153Y-118760514D01*
X117565961Y-118755755D01*
X117565241Y-118750901D01*
X117565000Y-118746000D01*
X117565000Y-118146000D01*
X117565241Y-118141099D01*
X117565961Y-118136245D01*
X117567153Y-118131486D01*
X117568806Y-118126866D01*
X117570904Y-118122430D01*
X117573427Y-118118221D01*
X117576349Y-118114280D01*
X117579645Y-118110645D01*
X117583280Y-118107349D01*
X117587221Y-118104427D01*
X117591430Y-118101904D01*
X117595866Y-118099806D01*
X117600486Y-118098153D01*
X117605245Y-118096961D01*
X117610099Y-118096241D01*
X117615000Y-118096000D01*
X118015000Y-118096000D01*
X118019901Y-118096241D01*
X118019901Y-118096241D01*
G37*
D11*
X117815000Y-118446000D03*
D14*
X106000000Y-108325000D03*
D15*
X106000000Y-115525000D03*
D16*
X117375000Y-126700000D03*
X118875000Y-126700000D03*
X117325000Y-129200000D03*
X118825000Y-129200000D03*
D17*
X114925000Y-119250000D03*
X114925000Y-117250000D03*
X123700000Y-119200000D03*
X123700000Y-117200000D03*
X132375000Y-119175000D03*
X132375000Y-117175000D03*
D16*
X118725000Y-125300000D03*
X117225000Y-125300000D03*
X117225000Y-123900000D03*
X118725000Y-123900000D03*
D18*
X135850000Y-145900000D03*
D19*
X138390000Y-145900000D03*
X140930000Y-145900000D03*
D11*
X127425000Y-125400000D03*
X127425000Y-128400000D03*
X127425000Y-126400000D03*
X127425000Y-127400000D03*
X127425000Y-129400000D03*
X126425000Y-125400000D03*
X126425000Y-128400000D03*
X126425000Y-126400000D03*
X126425000Y-127400000D03*
X126425000Y-129400000D03*
X125425000Y-125400000D03*
X125425000Y-128400000D03*
X125425000Y-126400000D03*
X125425000Y-127400000D03*
X125425000Y-129400000D03*
X124425000Y-125400000D03*
X124425000Y-128400000D03*
X124425000Y-126400000D03*
X124425000Y-127400000D03*
X124425000Y-129400000D03*
X123425000Y-125400000D03*
X123425000Y-127400000D03*
X123425000Y-126400000D03*
X123425000Y-128400000D03*
X123425000Y-129400000D03*
D18*
X105160000Y-123000000D03*
D19*
X102620000Y-123000000D03*
X105160000Y-125540000D03*
X102620000Y-125540000D03*
X105160000Y-128080000D03*
X102620000Y-128080000D03*
X105160000Y-130620000D03*
X102620000Y-130620000D03*
X105160000Y-133160000D03*
X102620000Y-133160000D03*
X105160000Y-135700000D03*
X102620000Y-135700000D03*
X105160000Y-138240000D03*
X102620000Y-138240000D03*
X105160000Y-140780000D03*
X102620000Y-140780000D03*
X105160000Y-143320000D03*
X102620000Y-143320000D03*
X105160000Y-145860000D03*
X102620000Y-145860000D03*
D18*
X148340000Y-123000000D03*
D19*
X145800000Y-123000000D03*
X148340000Y-125540000D03*
X145800000Y-125540000D03*
X148340000Y-128080000D03*
X145800000Y-128080000D03*
X148340000Y-130620000D03*
X145800000Y-130620000D03*
X148340000Y-133160000D03*
X145800000Y-133160000D03*
X148340000Y-135700000D03*
X145800000Y-135700000D03*
X148340000Y-138240000D03*
X145800000Y-138240000D03*
X148340000Y-140780000D03*
X145800000Y-140780000D03*
X148340000Y-143320000D03*
X145800000Y-143320000D03*
X148340000Y-145860000D03*
X145800000Y-145860000D03*
D20*
X122750000Y-109400000D03*
X122750000Y-115600000D03*
X131400000Y-115600000D03*
X131400000Y-109400000D03*
X114100000Y-115650000D03*
X114100000Y-109450000D03*
D21*
X116850000Y-104000000D03*
X125500000Y-104000000D03*
X134150000Y-104000000D03*
D11*
X117000000Y-130875000D03*
X124900000Y-144300000D03*
X115925000Y-128050000D03*
X137600000Y-117200000D03*
X136425000Y-117200000D03*
X135175000Y-117200000D03*
X135150000Y-118175000D03*
X133900000Y-117200000D03*
X133900000Y-118175000D03*
X128900000Y-117200000D03*
X127750000Y-117200000D03*
X126525000Y-117200000D03*
X126475000Y-118150000D03*
X125225000Y-117200000D03*
X125175000Y-118150000D03*
X123750000Y-117200000D03*
X117825000Y-118250000D03*
X116550000Y-118250000D03*
X120500000Y-117200000D03*
X119200000Y-117200000D03*
X117800000Y-117200000D03*
X116400000Y-117225000D03*
X114900000Y-117175000D03*
X132300000Y-117200000D03*
X107000000Y-137550000D03*
X116725000Y-125300000D03*
X119475000Y-126699996D03*
X109925000Y-101275000D03*
X123075000Y-144175000D03*
X122600000Y-143700000D03*
X131825000Y-119300000D03*
X132975000Y-119300000D03*
X123200000Y-119375000D03*
X124175000Y-119375000D03*
X114425000Y-119250000D03*
X115475000Y-119275000D03*
X130900000Y-109400000D03*
X132000000Y-109400000D03*
X122200000Y-109400000D03*
X123300000Y-109400000D03*
X114700000Y-109400000D03*
X113500000Y-109400000D03*
X113000000Y-108700000D03*
X114100000Y-108700000D03*
X115200000Y-108700000D03*
X121600000Y-108700000D03*
X122700000Y-108700000D03*
X123800000Y-108700000D03*
X130300000Y-108700000D03*
X131400000Y-108700000D03*
X132500000Y-108700000D03*
X109450000Y-126000000D03*
X110900000Y-125750000D03*
X110900000Y-131650000D03*
X109450000Y-131550000D03*
X109450000Y-134850000D03*
X109450000Y-137750000D03*
X110900000Y-138100000D03*
X109950000Y-138750000D03*
X109950000Y-141650000D03*
X109950000Y-144550000D03*
X108450000Y-122350000D03*
X116775000Y-123900000D03*
X116875000Y-126700000D03*
X116875000Y-129200000D03*
X106975000Y-101350000D03*
X139350000Y-110800000D03*
X140150000Y-110299997D03*
X133525000Y-130050000D03*
X122675000Y-147500000D03*
X122675000Y-146575000D03*
X127475000Y-144175000D03*
X129050000Y-141450000D03*
X122925000Y-142050000D03*
X121925000Y-138775000D03*
X121075000Y-137650000D03*
X115700000Y-145000000D03*
X138824994Y-111350000D03*
X110547452Y-134647452D03*
X118975000Y-129950002D03*
X107950000Y-129250000D03*
X110600000Y-121450000D03*
X107950000Y-132300000D03*
X111300000Y-123700000D03*
X107950000Y-128250000D03*
X108500000Y-123400000D03*
X114100000Y-114150000D03*
X138779687Y-112331714D03*
X136623226Y-122423226D03*
X119800000Y-120425000D03*
X122750000Y-113750000D03*
X122700000Y-120500000D03*
X139400000Y-112948390D03*
X139300000Y-122400000D03*
X108541523Y-121522974D03*
X128000000Y-121750000D03*
X131450000Y-113950000D03*
X140100000Y-113500000D03*
X142300000Y-122400000D03*
X119825000Y-124700000D03*
X119975000Y-124000000D03*
X117150000Y-138800000D03*
X118450000Y-138250000D03*
X117400000Y-140050000D03*
X120200000Y-140600000D03*
X121400000Y-139850000D03*
X123000000Y-140550000D03*
X121800000Y-140950000D03*
X118550000Y-139850000D03*
X112150000Y-122350000D03*
X113475000Y-121975000D03*
X120950000Y-130498400D03*
X115950000Y-139550000D03*
X131500000Y-132124012D03*
X135800000Y-131900000D03*
X138000000Y-131900000D03*
X138400000Y-140900000D03*
X141000000Y-140900000D03*
X118875000Y-130775000D03*
X115325000Y-113700000D03*
X107664090Y-121221363D03*
X113100000Y-113900004D03*
X107400000Y-120400000D03*
X113215081Y-113190487D03*
X124050000Y-113750000D03*
X113100000Y-112500000D03*
X130399994Y-113850000D03*
X107900000Y-119651610D03*
X129150000Y-131500000D03*
X115850000Y-132225000D03*
X124943201Y-135974537D03*
X119675000Y-132776600D03*
X126825000Y-138125000D03*
X142675000Y-142900000D03*
X143200000Y-141550000D03*
X126297819Y-137570367D03*
X124477887Y-135451566D03*
X143454358Y-136929358D03*
X125789150Y-137089460D03*
X124121404Y-134849124D03*
X132700000Y-131200000D03*
X137350000Y-130350000D03*
X123661845Y-134321087D03*
X123143767Y-133850330D03*
X122729544Y-133286029D03*
X125351365Y-136543236D03*
X122244555Y-132701945D03*
X128975000Y-113700000D03*
X124655986Y-121846640D03*
X129900000Y-119250000D03*
X129000000Y-118900000D03*
X127750000Y-118900000D03*
X136450000Y-119050000D03*
X135450000Y-119950000D03*
X135900000Y-121550000D03*
X119100000Y-118850000D03*
X122100000Y-123200000D03*
X120350000Y-113700000D03*
X122300000Y-121193570D03*
X119817634Y-128737447D03*
X117675000Y-128050000D03*
D22*
X117225000Y-125300000D02*
X116725000Y-125300000D01*
X118875004Y-126699996D02*
X119121447Y-126699996D01*
X118875000Y-126700000D02*
X118875004Y-126699996D01*
X119121447Y-126699996D02*
X119475000Y-126699996D01*
D23*
X118820213Y-126700000D02*
X118875000Y-126700000D01*
X117420213Y-125300000D02*
X118820213Y-126700000D01*
X117225000Y-125300000D02*
X117420213Y-125300000D01*
D22*
X107000000Y-136050000D02*
X107000000Y-137550000D01*
X109350000Y-133700000D02*
X107000000Y-136050000D01*
X110700000Y-133700000D02*
X109350000Y-133700000D01*
X115925000Y-128050000D02*
X115925000Y-128475000D01*
X115925000Y-128475000D02*
X110700000Y-133700000D01*
X117225000Y-123900000D02*
X116775000Y-123900000D01*
X117375000Y-126700000D02*
X116875000Y-126700000D01*
X117325000Y-129200000D02*
X116875000Y-129200000D01*
X118825000Y-129800002D02*
X118825000Y-129200000D01*
X118975000Y-129950002D02*
X118825000Y-129800002D01*
D24*
X106530000Y-129250000D02*
X105160000Y-130620000D01*
X107950000Y-129250000D02*
X106530000Y-129250000D01*
X110350000Y-121450000D02*
X110600000Y-121450000D01*
X109700000Y-122100000D02*
X110350000Y-121450000D01*
X109700000Y-123950000D02*
X109700000Y-122100000D01*
X108874999Y-124775001D02*
X109700000Y-123950000D01*
X107950000Y-129250000D02*
X108874999Y-128325001D01*
X108874999Y-128325001D02*
X108874999Y-124775001D01*
X106020000Y-132300000D02*
X105160000Y-133160000D01*
X107950000Y-132300000D02*
X106020000Y-132300000D01*
X110025001Y-124974999D02*
X110025001Y-128724999D01*
X111300000Y-123700000D02*
X110025001Y-124974999D01*
X107950000Y-130800000D02*
X107950000Y-132300000D01*
X110025001Y-128724999D02*
X107950000Y-130800000D01*
X105330000Y-128250000D02*
X105160000Y-128080000D01*
X107950000Y-128250000D02*
X105330000Y-128250000D01*
X107950000Y-128250000D02*
X107950000Y-123950000D01*
X107950000Y-123950000D02*
X108500000Y-123400000D01*
D22*
X114100000Y-115650000D02*
X113000000Y-115650000D01*
X114100000Y-115650000D02*
X114100000Y-114276610D01*
X114100000Y-114276610D02*
X114075000Y-114251610D01*
X138779687Y-112331714D02*
X138779687Y-120266765D01*
X138779687Y-120266765D02*
X136623226Y-122423226D01*
X114100000Y-116353200D02*
X114100000Y-115650000D01*
X113375000Y-117078200D02*
X114100000Y-116353200D01*
X113375000Y-119550000D02*
X113375000Y-117078200D01*
X114000000Y-120175000D02*
X113375000Y-119550000D01*
X119800000Y-120425000D02*
X119550000Y-120175000D01*
X119550000Y-120175000D02*
X114000000Y-120175000D01*
X122750000Y-115600000D02*
X122750000Y-113750000D01*
X122750000Y-116303200D02*
X122350000Y-116703200D01*
X122350000Y-116703200D02*
X122350000Y-120150000D01*
X122450001Y-120250001D02*
X122700000Y-120500000D01*
X122350000Y-120150000D02*
X122450001Y-120250001D01*
X122750000Y-115600000D02*
X122750000Y-116303200D01*
X139400000Y-112948390D02*
X139400000Y-122300000D01*
X139400000Y-122300000D02*
X139300000Y-122400000D01*
D24*
X105639002Y-126800000D02*
X106900000Y-125539002D01*
X106900000Y-125539002D02*
X106900000Y-122810944D01*
X106900000Y-122810944D02*
X108187970Y-121522974D01*
X108187970Y-121522974D02*
X108541523Y-121522974D01*
X103900000Y-127650000D02*
X104750000Y-126800000D01*
X103900000Y-134440000D02*
X103900000Y-127650000D01*
X105160000Y-135700000D02*
X103900000Y-134440000D01*
X104750000Y-126800000D02*
X105639002Y-126800000D01*
D22*
X131400000Y-115600000D02*
X131400000Y-113950000D01*
X131400000Y-113950000D02*
X131450000Y-113900000D01*
X140100000Y-113500000D02*
X140100000Y-113853553D01*
X140100000Y-113853553D02*
X140100000Y-120200000D01*
X140100000Y-120200000D02*
X142300000Y-122400000D01*
X131400000Y-115900000D02*
X131400000Y-115600000D01*
X130700000Y-116600000D02*
X131400000Y-115900000D01*
X130700000Y-119266370D02*
X130700000Y-116600000D01*
X128466369Y-121500001D02*
X130700000Y-119266370D01*
X128000000Y-121750000D02*
X128249999Y-121500001D01*
X128249999Y-121500001D02*
X128466369Y-121500001D01*
D24*
X118725000Y-125300000D02*
X118875000Y-125300000D01*
D22*
X119471447Y-124700000D02*
X119825000Y-124700000D01*
X118750000Y-125300000D02*
X119350000Y-124700000D01*
X119350000Y-124700000D02*
X119471447Y-124700000D01*
X118725000Y-125300000D02*
X118750000Y-125300000D01*
X118725000Y-123900000D02*
X119875000Y-123900000D01*
X119875000Y-123900000D02*
X119975000Y-124000000D01*
D24*
X131500000Y-132124012D02*
X135575988Y-132124012D01*
X135575988Y-132124012D02*
X135800000Y-131900000D01*
D22*
X120950000Y-130498400D02*
X119151600Y-130498400D01*
X119151600Y-130498400D02*
X118875000Y-130775000D01*
D24*
X117950000Y-112800000D02*
X117900000Y-112850000D01*
X117900000Y-112850000D02*
X116250000Y-112850000D01*
D22*
X115574999Y-113450001D02*
X115325000Y-113700000D01*
X116250000Y-112850000D02*
X116175000Y-112850000D01*
X116175000Y-112850000D02*
X115574999Y-113450001D01*
X112850001Y-114150003D02*
X113100000Y-113900004D01*
X112198399Y-114801605D02*
X112850001Y-114150003D01*
X112198399Y-118376601D02*
X112198399Y-114801605D01*
X107914089Y-120971364D02*
X109603636Y-120971364D01*
X107664090Y-121221363D02*
X107914089Y-120971364D01*
X109603636Y-120971364D02*
X112198399Y-118376601D01*
X124299999Y-113500001D02*
X124050000Y-113750000D01*
X124900000Y-112900000D02*
X124299999Y-113500001D01*
X126600000Y-112800000D02*
X126500000Y-112900000D01*
X126500000Y-112900000D02*
X124900000Y-112900000D01*
X112861528Y-113190487D02*
X113215081Y-113190487D01*
X111795190Y-114256825D02*
X112861528Y-113190487D01*
X111795190Y-118079810D02*
X111795190Y-114256825D01*
X109575000Y-120300000D02*
X111795190Y-118079810D01*
X107400000Y-120400000D02*
X107500000Y-120300000D01*
X107500000Y-120300000D02*
X109575000Y-120300000D01*
X131449994Y-112800000D02*
X130649993Y-113600001D01*
X130649993Y-113600001D02*
X130399994Y-113850000D01*
X135300000Y-112800000D02*
X131449994Y-112800000D01*
X107926610Y-119625000D02*
X107900000Y-119651610D01*
X109450000Y-119625000D02*
X107926610Y-119625000D01*
X111391979Y-117683021D02*
X109450000Y-119625000D01*
X111391979Y-113854468D02*
X111391979Y-117683021D01*
X113100000Y-112500000D02*
X112746447Y-112500000D01*
X112746447Y-112500000D02*
X111391979Y-113854468D01*
X129025000Y-131375000D02*
X129150000Y-131500000D01*
X103905000Y-139525000D02*
X102620000Y-138240000D01*
X106450000Y-139525000D02*
X103905000Y-139525000D01*
X129150000Y-131000000D02*
X128500000Y-130350000D01*
X129150000Y-131500000D02*
X129150000Y-131000000D01*
X128500000Y-130350000D02*
X122400000Y-130350000D01*
X122400000Y-130350000D02*
X121200000Y-131550000D01*
X121200000Y-131550000D02*
X114425000Y-131550000D01*
X114425000Y-131550000D02*
X106450000Y-139525000D01*
X120455057Y-132225000D02*
X124454593Y-136224536D01*
X124454593Y-136224536D02*
X124693202Y-136224536D01*
X115850000Y-132225000D02*
X120455057Y-132225000D01*
X124693202Y-136224536D02*
X124943201Y-135974537D01*
X146951601Y-144708399D02*
X145008399Y-144708399D01*
X148340000Y-143320000D02*
X146951601Y-144708399D01*
X145008399Y-144708399D02*
X143950000Y-143650000D01*
X143950000Y-143650000D02*
X137775000Y-143650000D01*
X137775000Y-143650000D02*
X137000000Y-142875000D01*
X137000000Y-142875000D02*
X137000000Y-139950000D01*
X137000000Y-139950000D02*
X135850000Y-138800000D01*
X135850000Y-138800000D02*
X125698400Y-138800000D01*
X125698400Y-138800000D02*
X119675000Y-132776600D01*
X126900000Y-138050000D02*
X142175000Y-138050000D01*
X146352769Y-141931601D02*
X147504370Y-140780000D01*
X126825000Y-138125000D02*
X126900000Y-138050000D01*
X142175000Y-138050000D02*
X143875000Y-139750000D01*
X143875000Y-139750000D02*
X143875000Y-140559370D01*
X147504370Y-140780000D02*
X148340000Y-140780000D01*
X143875000Y-140559370D02*
X145247231Y-141931601D01*
X145247231Y-141931601D02*
X146352769Y-141931601D01*
X142675000Y-142900000D02*
X142675000Y-142075000D01*
X142675000Y-142075000D02*
X143200000Y-141550000D01*
X126368186Y-137500000D02*
X126297819Y-137570367D01*
X142500000Y-137500000D02*
X126368186Y-137500000D01*
X144425000Y-139425000D02*
X142500000Y-137500000D01*
X148340000Y-138240000D02*
X147155000Y-139425000D01*
X147155000Y-139425000D02*
X144425000Y-139425000D01*
X144270771Y-135372852D02*
X124556601Y-135372852D01*
X124556601Y-135372852D02*
X124477887Y-135451566D01*
X145800000Y-135700000D02*
X144597919Y-135700000D01*
X144597919Y-135700000D02*
X144270771Y-135372852D01*
X143454358Y-136929358D02*
X125949252Y-136929358D01*
X125949252Y-136929358D02*
X125789150Y-137089460D01*
X124474957Y-134849124D02*
X124121404Y-134849124D01*
X124549081Y-134775000D02*
X124474957Y-134849124D01*
X145800000Y-133160000D02*
X144185000Y-134775000D01*
X144185000Y-134775000D02*
X124549081Y-134775000D01*
X133053553Y-131200000D02*
X132700000Y-131200000D01*
X136146447Y-131200000D02*
X133053553Y-131200000D01*
X136996447Y-130350000D02*
X136146447Y-131200000D01*
X137350000Y-130350000D02*
X136996447Y-130350000D01*
X123751745Y-134231187D02*
X123661845Y-134321087D01*
X142188813Y-134231187D02*
X123751745Y-134231187D01*
X145800000Y-130620000D02*
X142188813Y-134231187D01*
X140157365Y-133722635D02*
X123271462Y-133722635D01*
X145800000Y-128080000D02*
X140157365Y-133722635D01*
X123271462Y-133722635D02*
X123143767Y-133850330D01*
X123083097Y-133286029D02*
X122729544Y-133286029D01*
X123169126Y-133200000D02*
X123083097Y-133286029D01*
X145800000Y-125540000D02*
X138140000Y-133200000D01*
X138140000Y-133200000D02*
X123169126Y-133200000D01*
X125744601Y-136150000D02*
X125351365Y-136543236D01*
X149750000Y-126950000D02*
X149750000Y-135994370D01*
X148340000Y-125540000D02*
X149750000Y-126950000D01*
X149750000Y-135994370D02*
X148655971Y-137088399D01*
X148655971Y-137088399D02*
X144838399Y-137088399D01*
X144838399Y-137088399D02*
X143900000Y-136150000D01*
X143900000Y-136150000D02*
X125744601Y-136150000D01*
X136098055Y-132701945D02*
X122598108Y-132701945D01*
X145800000Y-123000000D02*
X136098055Y-132701945D01*
X122598108Y-132701945D02*
X122244555Y-132701945D01*
X124655986Y-121846640D02*
X124655986Y-120794014D01*
X124655986Y-120794014D02*
X125750000Y-119700000D01*
X125750000Y-119700000D02*
X129400000Y-119700000D01*
X129400000Y-119700000D02*
X129850000Y-119250000D01*
X129850000Y-119250000D02*
X129900000Y-119250000D01*
X129001000Y-118900000D02*
X129000000Y-118900000D01*
X129005000Y-118446000D02*
X129005000Y-118896000D01*
X129005000Y-118896000D02*
X129001000Y-118900000D01*
X127735000Y-118446000D02*
X127735000Y-118896000D01*
X127739000Y-118900000D02*
X127750000Y-118900000D01*
X127735000Y-118896000D02*
X127739000Y-118900000D01*
X136450000Y-118461000D02*
X136435000Y-118446000D01*
X136450000Y-119050000D02*
X136450000Y-118461000D01*
X135699999Y-119700001D02*
X137099999Y-119700001D01*
X135450000Y-119950000D02*
X135699999Y-119700001D01*
X137705000Y-119095000D02*
X137705000Y-118446000D01*
X137099999Y-119700001D02*
X137705000Y-119095000D01*
X138351610Y-119098390D02*
X136149999Y-121300001D01*
X138025710Y-113643951D02*
X138351610Y-113969851D01*
X138025710Y-113570710D02*
X138025710Y-113643951D01*
X136149999Y-121300001D02*
X135900000Y-121550000D01*
X137705000Y-113250000D02*
X138025710Y-113570710D01*
X138351610Y-113969851D02*
X138351610Y-119098390D01*
X119099531Y-118446000D02*
X119100000Y-118446469D01*
X119100000Y-118446469D02*
X119100000Y-118800022D01*
X119085000Y-118446000D02*
X119099531Y-118446000D01*
X120355000Y-118446000D02*
X120350000Y-118451000D01*
X120350000Y-118496447D02*
X120350000Y-118850000D01*
X120350000Y-118451000D02*
X120350000Y-118496447D01*
X120355000Y-121455000D02*
X120355000Y-118446000D01*
X122100000Y-123200000D02*
X120355000Y-121455000D01*
X119817634Y-128737447D02*
X119130187Y-128050000D01*
X119130187Y-128050000D02*
X117675000Y-128050000D01*
D25*
G36*
X138150000Y-110902650D02*
G01*
X138136743Y-111048763D01*
X138134217Y-111057840D01*
X138103816Y-111131233D01*
X138090009Y-111200643D01*
X138041282Y-111300899D01*
X137961170Y-111409998D01*
X137854469Y-111510694D01*
X137081441Y-112118074D01*
X137060242Y-112136762D01*
X136961102Y-112234655D01*
X136925678Y-112278584D01*
X136851020Y-112396219D01*
X136826352Y-112446972D01*
X136779979Y-112578354D01*
X136767322Y-112633348D01*
X136752771Y-112761449D01*
X136741670Y-112817259D01*
X136731892Y-112831892D01*
X136717259Y-112841670D01*
X136675379Y-112850000D01*
X134504258Y-112850000D01*
X134336663Y-112832508D01*
X134188734Y-112784799D01*
X134053850Y-112707574D01*
X133937817Y-112604160D01*
X133845641Y-112479017D01*
X133781291Y-112337533D01*
X133744701Y-112173038D01*
X133493213Y-109993471D01*
X133502419Y-109900000D01*
X133502419Y-108900000D01*
X133500000Y-108875440D01*
X133500000Y-108800000D01*
X133495723Y-108734737D01*
X133478686Y-108605327D01*
X133444903Y-108479248D01*
X133394953Y-108358658D01*
X133329688Y-108245617D01*
X133250228Y-108142064D01*
X133157936Y-108049772D01*
X133054383Y-107970312D01*
X132941342Y-107905047D01*
X132820752Y-107855097D01*
X132760346Y-107838911D01*
X132637048Y-107768320D01*
X132589570Y-107747346D01*
X132391978Y-107683620D01*
X132341194Y-107672903D01*
X132134702Y-107651351D01*
X132108750Y-107650000D01*
X131112281Y-107650000D01*
X130953917Y-107634402D01*
X130813450Y-107591793D01*
X130683996Y-107522598D01*
X130570525Y-107429475D01*
X130477402Y-107316004D01*
X130408207Y-107186550D01*
X130365598Y-107046083D01*
X130350000Y-106887719D01*
X130350000Y-100525000D01*
X138150000Y-100525000D01*
X138150000Y-110902650D01*
X138150000Y-110902650D01*
G37*
X138150000Y-110902650D02*
X138136743Y-111048763D01*
X138134217Y-111057840D01*
X138103816Y-111131233D01*
X138090009Y-111200643D01*
X138041282Y-111300899D01*
X137961170Y-111409998D01*
X137854469Y-111510694D01*
X137081441Y-112118074D01*
X137060242Y-112136762D01*
X136961102Y-112234655D01*
X136925678Y-112278584D01*
X136851020Y-112396219D01*
X136826352Y-112446972D01*
X136779979Y-112578354D01*
X136767322Y-112633348D01*
X136752771Y-112761449D01*
X136741670Y-112817259D01*
X136731892Y-112831892D01*
X136717259Y-112841670D01*
X136675379Y-112850000D01*
X134504258Y-112850000D01*
X134336663Y-112832508D01*
X134188734Y-112784799D01*
X134053850Y-112707574D01*
X133937817Y-112604160D01*
X133845641Y-112479017D01*
X133781291Y-112337533D01*
X133744701Y-112173038D01*
X133493213Y-109993471D01*
X133502419Y-109900000D01*
X133502419Y-108900000D01*
X133500000Y-108875440D01*
X133500000Y-108800000D01*
X133495723Y-108734737D01*
X133478686Y-108605327D01*
X133444903Y-108479248D01*
X133394953Y-108358658D01*
X133329688Y-108245617D01*
X133250228Y-108142064D01*
X133157936Y-108049772D01*
X133054383Y-107970312D01*
X132941342Y-107905047D01*
X132820752Y-107855097D01*
X132760346Y-107838911D01*
X132637048Y-107768320D01*
X132589570Y-107747346D01*
X132391978Y-107683620D01*
X132341194Y-107672903D01*
X132134702Y-107651351D01*
X132108750Y-107650000D01*
X131112281Y-107650000D01*
X130953917Y-107634402D01*
X130813450Y-107591793D01*
X130683996Y-107522598D01*
X130570525Y-107429475D01*
X130477402Y-107316004D01*
X130408207Y-107186550D01*
X130365598Y-107046083D01*
X130350000Y-106887719D01*
X130350000Y-100525000D01*
X138150000Y-100525000D01*
X138150000Y-110902650D01*
G36*
X129250000Y-110873505D02*
G01*
X129234402Y-111031870D01*
X129191793Y-111172337D01*
X129122598Y-111301791D01*
X129021649Y-111424797D01*
X128335355Y-112111091D01*
X128313794Y-112135678D01*
X128198695Y-112285678D01*
X128166063Y-112342198D01*
X128093709Y-112516877D01*
X128076818Y-112579915D01*
X128053207Y-112759258D01*
X128041670Y-112817259D01*
X128031892Y-112831892D01*
X128017259Y-112841670D01*
X127975379Y-112850000D01*
X125804258Y-112850000D01*
X125636663Y-112832508D01*
X125488734Y-112784799D01*
X125353850Y-112707574D01*
X125237817Y-112604160D01*
X125145641Y-112479017D01*
X125081291Y-112337533D01*
X125044701Y-112173038D01*
X124806310Y-110106981D01*
X124814175Y-110092267D01*
X124842765Y-109998017D01*
X124852419Y-109900000D01*
X124852419Y-108900000D01*
X124842765Y-108801983D01*
X124814175Y-108707733D01*
X124784976Y-108653106D01*
X124778686Y-108605327D01*
X124744903Y-108479248D01*
X124694953Y-108358658D01*
X124629688Y-108245617D01*
X124550228Y-108142064D01*
X124457936Y-108049772D01*
X124354383Y-107970312D01*
X124241342Y-107905047D01*
X124120752Y-107855097D01*
X124060346Y-107838911D01*
X123937048Y-107768320D01*
X123889570Y-107747346D01*
X123691978Y-107683620D01*
X123641194Y-107672903D01*
X123434702Y-107651351D01*
X123408750Y-107650000D01*
X122412281Y-107650000D01*
X122253917Y-107634402D01*
X122113450Y-107591793D01*
X121983996Y-107522598D01*
X121870525Y-107429475D01*
X121777402Y-107316004D01*
X121708207Y-107186550D01*
X121665598Y-107046083D01*
X121650000Y-106887719D01*
X121650000Y-100525000D01*
X129250000Y-100525000D01*
X129250000Y-110873505D01*
X129250000Y-110873505D01*
G37*
X129250000Y-110873505D02*
X129234402Y-111031870D01*
X129191793Y-111172337D01*
X129122598Y-111301791D01*
X129021649Y-111424797D01*
X128335355Y-112111091D01*
X128313794Y-112135678D01*
X128198695Y-112285678D01*
X128166063Y-112342198D01*
X128093709Y-112516877D01*
X128076818Y-112579915D01*
X128053207Y-112759258D01*
X128041670Y-112817259D01*
X128031892Y-112831892D01*
X128017259Y-112841670D01*
X127975379Y-112850000D01*
X125804258Y-112850000D01*
X125636663Y-112832508D01*
X125488734Y-112784799D01*
X125353850Y-112707574D01*
X125237817Y-112604160D01*
X125145641Y-112479017D01*
X125081291Y-112337533D01*
X125044701Y-112173038D01*
X124806310Y-110106981D01*
X124814175Y-110092267D01*
X124842765Y-109998017D01*
X124852419Y-109900000D01*
X124852419Y-108900000D01*
X124842765Y-108801983D01*
X124814175Y-108707733D01*
X124784976Y-108653106D01*
X124778686Y-108605327D01*
X124744903Y-108479248D01*
X124694953Y-108358658D01*
X124629688Y-108245617D01*
X124550228Y-108142064D01*
X124457936Y-108049772D01*
X124354383Y-107970312D01*
X124241342Y-107905047D01*
X124120752Y-107855097D01*
X124060346Y-107838911D01*
X123937048Y-107768320D01*
X123889570Y-107747346D01*
X123691978Y-107683620D01*
X123641194Y-107672903D01*
X123434702Y-107651351D01*
X123408750Y-107650000D01*
X122412281Y-107650000D01*
X122253917Y-107634402D01*
X122113450Y-107591793D01*
X121983996Y-107522598D01*
X121870525Y-107429475D01*
X121777402Y-107316004D01*
X121708207Y-107186550D01*
X121665598Y-107046083D01*
X121650000Y-106887719D01*
X121650000Y-100525000D01*
X129250000Y-100525000D01*
X129250000Y-110873505D01*
G36*
X120550000Y-110873505D02*
G01*
X120534402Y-111031870D01*
X120491793Y-111172337D01*
X120422598Y-111301791D01*
X120321649Y-111424797D01*
X119635355Y-112111091D01*
X119613794Y-112135678D01*
X119498695Y-112285678D01*
X119466063Y-112342198D01*
X119393709Y-112516877D01*
X119376818Y-112579915D01*
X119353207Y-112759258D01*
X119341670Y-112817259D01*
X119331892Y-112831892D01*
X119317259Y-112841670D01*
X119275379Y-112850000D01*
X117104258Y-112850000D01*
X116936663Y-112832508D01*
X116788734Y-112784799D01*
X116653850Y-112707574D01*
X116537817Y-112604160D01*
X116445641Y-112479017D01*
X116381291Y-112337533D01*
X116344701Y-112173038D01*
X116119932Y-110225039D01*
X116164175Y-110142267D01*
X116192765Y-110048017D01*
X116202419Y-109950000D01*
X116202419Y-108950000D01*
X116200000Y-108925440D01*
X116200000Y-108800000D01*
X116195723Y-108734737D01*
X116178686Y-108605327D01*
X116144903Y-108479248D01*
X116094953Y-108358658D01*
X116029688Y-108245617D01*
X115950228Y-108142064D01*
X115857936Y-108049772D01*
X115754383Y-107970312D01*
X115641342Y-107905047D01*
X115520752Y-107855097D01*
X115394673Y-107821314D01*
X115310181Y-107810191D01*
X115237048Y-107768320D01*
X115189570Y-107747346D01*
X114991978Y-107683620D01*
X114941194Y-107672903D01*
X114734702Y-107651351D01*
X114708750Y-107650000D01*
X113712281Y-107650000D01*
X113553917Y-107634402D01*
X113413450Y-107591793D01*
X113283996Y-107522598D01*
X113170525Y-107429475D01*
X113077402Y-107316004D01*
X113008207Y-107186550D01*
X112965598Y-107046083D01*
X112950000Y-106887719D01*
X112950000Y-100525000D01*
X120550000Y-100525000D01*
X120550000Y-110873505D01*
X120550000Y-110873505D01*
G37*
X120550000Y-110873505D02*
X120534402Y-111031870D01*
X120491793Y-111172337D01*
X120422598Y-111301791D01*
X120321649Y-111424797D01*
X119635355Y-112111091D01*
X119613794Y-112135678D01*
X119498695Y-112285678D01*
X119466063Y-112342198D01*
X119393709Y-112516877D01*
X119376818Y-112579915D01*
X119353207Y-112759258D01*
X119341670Y-112817259D01*
X119331892Y-112831892D01*
X119317259Y-112841670D01*
X119275379Y-112850000D01*
X117104258Y-112850000D01*
X116936663Y-112832508D01*
X116788734Y-112784799D01*
X116653850Y-112707574D01*
X116537817Y-112604160D01*
X116445641Y-112479017D01*
X116381291Y-112337533D01*
X116344701Y-112173038D01*
X116119932Y-110225039D01*
X116164175Y-110142267D01*
X116192765Y-110048017D01*
X116202419Y-109950000D01*
X116202419Y-108950000D01*
X116200000Y-108925440D01*
X116200000Y-108800000D01*
X116195723Y-108734737D01*
X116178686Y-108605327D01*
X116144903Y-108479248D01*
X116094953Y-108358658D01*
X116029688Y-108245617D01*
X115950228Y-108142064D01*
X115857936Y-108049772D01*
X115754383Y-107970312D01*
X115641342Y-107905047D01*
X115520752Y-107855097D01*
X115394673Y-107821314D01*
X115310181Y-107810191D01*
X115237048Y-107768320D01*
X115189570Y-107747346D01*
X114991978Y-107683620D01*
X114941194Y-107672903D01*
X114734702Y-107651351D01*
X114708750Y-107650000D01*
X113712281Y-107650000D01*
X113553917Y-107634402D01*
X113413450Y-107591793D01*
X113283996Y-107522598D01*
X113170525Y-107429475D01*
X113077402Y-107316004D01*
X113008207Y-107186550D01*
X112965598Y-107046083D01*
X112950000Y-106887719D01*
X112950000Y-100525000D01*
X120550000Y-100525000D01*
X120550000Y-110873505D01*
G36*
X132564145Y-108560602D02*
G01*
X132623921Y-108585362D01*
X132675251Y-108624749D01*
X132714638Y-108676079D01*
X132739398Y-108735855D01*
X132750000Y-108816384D01*
X132750000Y-109383616D01*
X132739398Y-109464145D01*
X132714638Y-109523921D01*
X132675251Y-109575251D01*
X132623921Y-109614638D01*
X132564145Y-109639398D01*
X132483616Y-109650000D01*
X130316384Y-109650000D01*
X130235855Y-109639398D01*
X130176079Y-109614638D01*
X130124749Y-109575251D01*
X130085362Y-109523921D01*
X130060602Y-109464145D01*
X130050000Y-109383616D01*
X130050000Y-108816384D01*
X130060602Y-108735855D01*
X130085362Y-108676079D01*
X130124749Y-108624749D01*
X130176079Y-108585362D01*
X130235855Y-108560602D01*
X130316384Y-108550000D01*
X132483616Y-108550000D01*
X132564145Y-108560602D01*
X132564145Y-108560602D01*
G37*
X132564145Y-108560602D02*
X132623921Y-108585362D01*
X132675251Y-108624749D01*
X132714638Y-108676079D01*
X132739398Y-108735855D01*
X132750000Y-108816384D01*
X132750000Y-109383616D01*
X132739398Y-109464145D01*
X132714638Y-109523921D01*
X132675251Y-109575251D01*
X132623921Y-109614638D01*
X132564145Y-109639398D01*
X132483616Y-109650000D01*
X130316384Y-109650000D01*
X130235855Y-109639398D01*
X130176079Y-109614638D01*
X130124749Y-109575251D01*
X130085362Y-109523921D01*
X130060602Y-109464145D01*
X130050000Y-109383616D01*
X130050000Y-108816384D01*
X130060602Y-108735855D01*
X130085362Y-108676079D01*
X130124749Y-108624749D01*
X130176079Y-108585362D01*
X130235855Y-108560602D01*
X130316384Y-108550000D01*
X132483616Y-108550000D01*
X132564145Y-108560602D01*
G36*
X123864145Y-108560602D02*
G01*
X123923921Y-108585362D01*
X123975251Y-108624749D01*
X124014638Y-108676079D01*
X124039398Y-108735855D01*
X124050000Y-108816384D01*
X124050000Y-109383616D01*
X124039398Y-109464145D01*
X124014638Y-109523921D01*
X123975251Y-109575251D01*
X123923921Y-109614638D01*
X123864145Y-109639398D01*
X123783616Y-109650000D01*
X121616384Y-109650000D01*
X121535855Y-109639398D01*
X121476079Y-109614638D01*
X121424749Y-109575251D01*
X121385362Y-109523921D01*
X121360602Y-109464145D01*
X121350000Y-109383616D01*
X121350000Y-108816384D01*
X121360602Y-108735855D01*
X121385362Y-108676079D01*
X121424749Y-108624749D01*
X121476079Y-108585362D01*
X121535855Y-108560602D01*
X121616384Y-108550000D01*
X123783616Y-108550000D01*
X123864145Y-108560602D01*
X123864145Y-108560602D01*
G37*
X123864145Y-108560602D02*
X123923921Y-108585362D01*
X123975251Y-108624749D01*
X124014638Y-108676079D01*
X124039398Y-108735855D01*
X124050000Y-108816384D01*
X124050000Y-109383616D01*
X124039398Y-109464145D01*
X124014638Y-109523921D01*
X123975251Y-109575251D01*
X123923921Y-109614638D01*
X123864145Y-109639398D01*
X123783616Y-109650000D01*
X121616384Y-109650000D01*
X121535855Y-109639398D01*
X121476079Y-109614638D01*
X121424749Y-109575251D01*
X121385362Y-109523921D01*
X121360602Y-109464145D01*
X121350000Y-109383616D01*
X121350000Y-108816384D01*
X121360602Y-108735855D01*
X121385362Y-108676079D01*
X121424749Y-108624749D01*
X121476079Y-108585362D01*
X121535855Y-108560602D01*
X121616384Y-108550000D01*
X123783616Y-108550000D01*
X123864145Y-108560602D01*
G36*
X115264145Y-108560602D02*
G01*
X115323921Y-108585362D01*
X115375251Y-108624749D01*
X115414638Y-108676079D01*
X115439398Y-108735855D01*
X115450000Y-108816384D01*
X115450000Y-109383616D01*
X115439398Y-109464145D01*
X115414638Y-109523921D01*
X115375251Y-109575251D01*
X115323921Y-109614638D01*
X115264145Y-109639398D01*
X115183616Y-109650000D01*
X113016384Y-109650000D01*
X112935855Y-109639398D01*
X112876079Y-109614638D01*
X112824749Y-109575251D01*
X112785362Y-109523921D01*
X112760602Y-109464145D01*
X112750000Y-109383616D01*
X112750000Y-108816384D01*
X112760602Y-108735855D01*
X112785362Y-108676079D01*
X112824749Y-108624749D01*
X112876079Y-108585362D01*
X112935855Y-108560602D01*
X113016384Y-108550000D01*
X115183616Y-108550000D01*
X115264145Y-108560602D01*
X115264145Y-108560602D01*
G37*
X115264145Y-108560602D02*
X115323921Y-108585362D01*
X115375251Y-108624749D01*
X115414638Y-108676079D01*
X115439398Y-108735855D01*
X115450000Y-108816384D01*
X115450000Y-109383616D01*
X115439398Y-109464145D01*
X115414638Y-109523921D01*
X115375251Y-109575251D01*
X115323921Y-109614638D01*
X115264145Y-109639398D01*
X115183616Y-109650000D01*
X113016384Y-109650000D01*
X112935855Y-109639398D01*
X112876079Y-109614638D01*
X112824749Y-109575251D01*
X112785362Y-109523921D01*
X112760602Y-109464145D01*
X112750000Y-109383616D01*
X112750000Y-108816384D01*
X112760602Y-108735855D01*
X112785362Y-108676079D01*
X112824749Y-108624749D01*
X112876079Y-108585362D01*
X112935855Y-108560602D01*
X113016384Y-108550000D01*
X115183616Y-108550000D01*
X115264145Y-108560602D01*
G36*
X118664145Y-115360602D02*
G01*
X118723921Y-115385362D01*
X118775251Y-115424749D01*
X118814638Y-115476079D01*
X118839398Y-115535855D01*
X118850000Y-115616384D01*
X118850000Y-115683616D01*
X118839398Y-115764145D01*
X118814638Y-115823921D01*
X118775251Y-115875251D01*
X118723921Y-115914638D01*
X118664145Y-115939398D01*
X118583616Y-115950000D01*
X113416384Y-115950000D01*
X113335855Y-115939398D01*
X113276079Y-115914638D01*
X113224749Y-115875251D01*
X113185362Y-115823921D01*
X113160602Y-115764145D01*
X113150000Y-115683616D01*
X113150000Y-115616384D01*
X113160602Y-115535855D01*
X113185362Y-115476079D01*
X113224749Y-115424749D01*
X113276079Y-115385362D01*
X113335855Y-115360602D01*
X113416384Y-115350000D01*
X118583616Y-115350000D01*
X118664145Y-115360602D01*
X118664145Y-115360602D01*
G37*
X118664145Y-115360602D02*
X118723921Y-115385362D01*
X118775251Y-115424749D01*
X118814638Y-115476079D01*
X118839398Y-115535855D01*
X118850000Y-115616384D01*
X118850000Y-115683616D01*
X118839398Y-115764145D01*
X118814638Y-115823921D01*
X118775251Y-115875251D01*
X118723921Y-115914638D01*
X118664145Y-115939398D01*
X118583616Y-115950000D01*
X113416384Y-115950000D01*
X113335855Y-115939398D01*
X113276079Y-115914638D01*
X113224749Y-115875251D01*
X113185362Y-115823921D01*
X113160602Y-115764145D01*
X113150000Y-115683616D01*
X113150000Y-115616384D01*
X113160602Y-115535855D01*
X113185362Y-115476079D01*
X113224749Y-115424749D01*
X113276079Y-115385362D01*
X113335855Y-115360602D01*
X113416384Y-115350000D01*
X118583616Y-115350000D01*
X118664145Y-115360602D01*
G36*
X135964145Y-115360602D02*
G01*
X136023921Y-115385362D01*
X136075251Y-115424749D01*
X136114638Y-115476079D01*
X136139398Y-115535855D01*
X136150000Y-115616384D01*
X136150000Y-115683616D01*
X136139398Y-115764145D01*
X136114638Y-115823921D01*
X136075251Y-115875251D01*
X136023921Y-115914638D01*
X135964145Y-115939398D01*
X135883616Y-115950000D01*
X130716384Y-115950000D01*
X130635855Y-115939398D01*
X130576079Y-115914638D01*
X130524749Y-115875251D01*
X130485362Y-115823921D01*
X130460602Y-115764145D01*
X130450000Y-115683616D01*
X130450000Y-115616384D01*
X130460602Y-115535855D01*
X130485362Y-115476079D01*
X130524749Y-115424749D01*
X130576079Y-115385362D01*
X130635855Y-115360602D01*
X130716384Y-115350000D01*
X135883616Y-115350000D01*
X135964145Y-115360602D01*
X135964145Y-115360602D01*
G37*
X135964145Y-115360602D02*
X136023921Y-115385362D01*
X136075251Y-115424749D01*
X136114638Y-115476079D01*
X136139398Y-115535855D01*
X136150000Y-115616384D01*
X136150000Y-115683616D01*
X136139398Y-115764145D01*
X136114638Y-115823921D01*
X136075251Y-115875251D01*
X136023921Y-115914638D01*
X135964145Y-115939398D01*
X135883616Y-115950000D01*
X130716384Y-115950000D01*
X130635855Y-115939398D01*
X130576079Y-115914638D01*
X130524749Y-115875251D01*
X130485362Y-115823921D01*
X130460602Y-115764145D01*
X130450000Y-115683616D01*
X130450000Y-115616384D01*
X130460602Y-115535855D01*
X130485362Y-115476079D01*
X130524749Y-115424749D01*
X130576079Y-115385362D01*
X130635855Y-115360602D01*
X130716384Y-115350000D01*
X135883616Y-115350000D01*
X135964145Y-115360602D01*
G36*
X127964145Y-115360602D02*
G01*
X128023921Y-115385362D01*
X128075251Y-115424749D01*
X128114638Y-115476079D01*
X128139398Y-115535855D01*
X128150000Y-115616384D01*
X128150000Y-115683616D01*
X128139398Y-115764145D01*
X128114638Y-115823921D01*
X128075251Y-115875251D01*
X128023921Y-115914638D01*
X127964145Y-115939398D01*
X127883616Y-115950000D01*
X122716384Y-115950000D01*
X122635855Y-115939398D01*
X122576079Y-115914638D01*
X122524749Y-115875251D01*
X122485362Y-115823921D01*
X122460602Y-115764145D01*
X122450000Y-115683616D01*
X122450000Y-115616384D01*
X122460602Y-115535855D01*
X122485362Y-115476079D01*
X122524749Y-115424749D01*
X122576079Y-115385362D01*
X122635855Y-115360602D01*
X122716384Y-115350000D01*
X127883616Y-115350000D01*
X127964145Y-115360602D01*
X127964145Y-115360602D01*
G37*
X127964145Y-115360602D02*
X128023921Y-115385362D01*
X128075251Y-115424749D01*
X128114638Y-115476079D01*
X128139398Y-115535855D01*
X128150000Y-115616384D01*
X128150000Y-115683616D01*
X128139398Y-115764145D01*
X128114638Y-115823921D01*
X128075251Y-115875251D01*
X128023921Y-115914638D01*
X127964145Y-115939398D01*
X127883616Y-115950000D01*
X122716384Y-115950000D01*
X122635855Y-115939398D01*
X122576079Y-115914638D01*
X122524749Y-115875251D01*
X122485362Y-115823921D01*
X122460602Y-115764145D01*
X122450000Y-115683616D01*
X122450000Y-115616384D01*
X122460602Y-115535855D01*
X122485362Y-115476079D01*
X122524749Y-115424749D01*
X122576079Y-115385362D01*
X122635855Y-115360602D01*
X122716384Y-115350000D01*
X127883616Y-115350000D01*
X127964145Y-115360602D01*
G36*
X120445915Y-117054085D02*
G01*
X120450000Y-117074620D01*
X120450000Y-117325380D01*
X120445915Y-117345915D01*
X120425380Y-117350000D01*
X118450000Y-117350000D01*
X118401228Y-117354804D01*
X118305557Y-117373834D01*
X118258658Y-117388060D01*
X118215437Y-117411162D01*
X118134331Y-117465355D01*
X118096447Y-117496446D01*
X118065355Y-117534331D01*
X118011162Y-117615437D01*
X117988060Y-117658659D01*
X117973834Y-117705557D01*
X117954804Y-117801228D01*
X117950000Y-117850000D01*
X117950000Y-118525380D01*
X117945915Y-118545915D01*
X117925380Y-118550000D01*
X116369318Y-118550000D01*
X116349220Y-118546399D01*
X116336311Y-118530577D01*
X115989977Y-117907178D01*
X115965141Y-117870541D01*
X115909396Y-117802220D01*
X115874841Y-117767467D01*
X115842474Y-117744800D01*
X115766476Y-117700083D01*
X115722004Y-117679489D01*
X115683785Y-117669470D01*
X115596989Y-117653919D01*
X115552899Y-117650000D01*
X114574620Y-117650000D01*
X114554085Y-117645915D01*
X114550000Y-117625380D01*
X114550000Y-117074620D01*
X114554085Y-117054085D01*
X114574620Y-117050000D01*
X120425380Y-117050000D01*
X120445915Y-117054085D01*
X120445915Y-117054085D01*
G37*
X120445915Y-117054085D02*
X120450000Y-117074620D01*
X120450000Y-117325380D01*
X120445915Y-117345915D01*
X120425380Y-117350000D01*
X118450000Y-117350000D01*
X118401228Y-117354804D01*
X118305557Y-117373834D01*
X118258658Y-117388060D01*
X118215437Y-117411162D01*
X118134331Y-117465355D01*
X118096447Y-117496446D01*
X118065355Y-117534331D01*
X118011162Y-117615437D01*
X117988060Y-117658659D01*
X117973834Y-117705557D01*
X117954804Y-117801228D01*
X117950000Y-117850000D01*
X117950000Y-118525380D01*
X117945915Y-118545915D01*
X117925380Y-118550000D01*
X116369318Y-118550000D01*
X116349220Y-118546399D01*
X116336311Y-118530577D01*
X115989977Y-117907178D01*
X115965141Y-117870541D01*
X115909396Y-117802220D01*
X115874841Y-117767467D01*
X115842474Y-117744800D01*
X115766476Y-117700083D01*
X115722004Y-117679489D01*
X115683785Y-117669470D01*
X115596989Y-117653919D01*
X115552899Y-117650000D01*
X114574620Y-117650000D01*
X114554085Y-117645915D01*
X114550000Y-117625380D01*
X114550000Y-117074620D01*
X114554085Y-117054085D01*
X114574620Y-117050000D01*
X120425380Y-117050000D01*
X120445915Y-117054085D01*
G36*
X129145915Y-117054085D02*
G01*
X129150000Y-117074620D01*
X129150000Y-117325380D01*
X129145915Y-117345915D01*
X129125380Y-117350000D01*
X127150000Y-117350000D01*
X127101228Y-117354804D01*
X127005557Y-117373834D01*
X126958658Y-117388060D01*
X126915437Y-117411162D01*
X126834331Y-117465355D01*
X126796447Y-117496446D01*
X126765355Y-117534331D01*
X126711162Y-117615437D01*
X126688060Y-117658659D01*
X126673834Y-117705557D01*
X126654804Y-117801228D01*
X126650000Y-117850000D01*
X126650000Y-118525380D01*
X126645915Y-118545915D01*
X126625380Y-118550000D01*
X125069318Y-118550000D01*
X125049220Y-118546399D01*
X125036311Y-118530577D01*
X124689977Y-117907178D01*
X124665141Y-117870541D01*
X124609396Y-117802220D01*
X124574841Y-117767467D01*
X124542474Y-117744800D01*
X124466476Y-117700083D01*
X124422004Y-117679489D01*
X124383785Y-117669470D01*
X124296989Y-117653919D01*
X124252899Y-117650000D01*
X123274620Y-117650000D01*
X123254085Y-117645915D01*
X123250000Y-117625380D01*
X123250000Y-117074620D01*
X123254085Y-117054085D01*
X123274620Y-117050000D01*
X129125380Y-117050000D01*
X129145915Y-117054085D01*
X129145915Y-117054085D01*
G37*
X129145915Y-117054085D02*
X129150000Y-117074620D01*
X129150000Y-117325380D01*
X129145915Y-117345915D01*
X129125380Y-117350000D01*
X127150000Y-117350000D01*
X127101228Y-117354804D01*
X127005557Y-117373834D01*
X126958658Y-117388060D01*
X126915437Y-117411162D01*
X126834331Y-117465355D01*
X126796447Y-117496446D01*
X126765355Y-117534331D01*
X126711162Y-117615437D01*
X126688060Y-117658659D01*
X126673834Y-117705557D01*
X126654804Y-117801228D01*
X126650000Y-117850000D01*
X126650000Y-118525380D01*
X126645915Y-118545915D01*
X126625380Y-118550000D01*
X125069318Y-118550000D01*
X125049220Y-118546399D01*
X125036311Y-118530577D01*
X124689977Y-117907178D01*
X124665141Y-117870541D01*
X124609396Y-117802220D01*
X124574841Y-117767467D01*
X124542474Y-117744800D01*
X124466476Y-117700083D01*
X124422004Y-117679489D01*
X124383785Y-117669470D01*
X124296989Y-117653919D01*
X124252899Y-117650000D01*
X123274620Y-117650000D01*
X123254085Y-117645915D01*
X123250000Y-117625380D01*
X123250000Y-117074620D01*
X123254085Y-117054085D01*
X123274620Y-117050000D01*
X129125380Y-117050000D01*
X129145915Y-117054085D01*
G36*
X137800011Y-117350000D02*
G01*
X135950000Y-117350000D01*
X135901228Y-117354804D01*
X135805557Y-117373834D01*
X135758658Y-117388060D01*
X135715437Y-117411162D01*
X135634331Y-117465355D01*
X135596447Y-117496446D01*
X135565355Y-117534331D01*
X135511162Y-117615437D01*
X135488060Y-117658659D01*
X135473834Y-117705557D01*
X135454804Y-117801228D01*
X135450000Y-117850000D01*
X135450000Y-118525380D01*
X135445915Y-118545915D01*
X135425380Y-118550000D01*
X133869318Y-118550000D01*
X133849220Y-118546399D01*
X133836311Y-118530577D01*
X133489977Y-117907178D01*
X133465141Y-117870541D01*
X133409396Y-117802220D01*
X133374841Y-117767467D01*
X133342474Y-117744800D01*
X133266476Y-117700083D01*
X133222004Y-117679489D01*
X133183785Y-117669470D01*
X133096989Y-117653919D01*
X133052899Y-117650000D01*
X131974620Y-117650000D01*
X131954085Y-117645915D01*
X131950000Y-117625380D01*
X131950000Y-117074620D01*
X131954085Y-117054085D01*
X131974620Y-117050000D01*
X137800011Y-117050000D01*
X137800011Y-117350000D01*
X137800011Y-117350000D01*
G37*
X137800011Y-117350000D02*
X135950000Y-117350000D01*
X135901228Y-117354804D01*
X135805557Y-117373834D01*
X135758658Y-117388060D01*
X135715437Y-117411162D01*
X135634331Y-117465355D01*
X135596447Y-117496446D01*
X135565355Y-117534331D01*
X135511162Y-117615437D01*
X135488060Y-117658659D01*
X135473834Y-117705557D01*
X135454804Y-117801228D01*
X135450000Y-117850000D01*
X135450000Y-118525380D01*
X135445915Y-118545915D01*
X135425380Y-118550000D01*
X133869318Y-118550000D01*
X133849220Y-118546399D01*
X133836311Y-118530577D01*
X133489977Y-117907178D01*
X133465141Y-117870541D01*
X133409396Y-117802220D01*
X133374841Y-117767467D01*
X133342474Y-117744800D01*
X133266476Y-117700083D01*
X133222004Y-117679489D01*
X133183785Y-117669470D01*
X133096989Y-117653919D01*
X133052899Y-117650000D01*
X131974620Y-117650000D01*
X131954085Y-117645915D01*
X131950000Y-117625380D01*
X131950000Y-117074620D01*
X131954085Y-117054085D01*
X131974620Y-117050000D01*
X137800011Y-117050000D01*
X137800011Y-117350000D01*
M02*
