G04 #@! TF.GenerationSoftware,KiCad,Pcbnew,(5.1.4)-1*
G04 #@! TF.CreationDate,2019-08-28T01:11:50-07:00*
G04 #@! TF.ProjectId,ESC Drivetrain V1,45534320-4472-4697-9665-747261696e20,rev?*
G04 #@! TF.SameCoordinates,Original*
G04 #@! TF.FileFunction,Paste,Top*
G04 #@! TF.FilePolarity,Positive*
%FSLAX46Y46*%
G04 Gerber Fmt 4.6, Leading zero omitted, Abs format (unit mm)*
G04 Created by KiCad (PCBNEW (5.1.4)-1) date 2019-08-28 01:11:50*
%MOMM*%
%LPD*%
G04 APERTURE LIST*
%ADD10R,0.750000X0.800000*%
%ADD11R,0.800000X0.750000*%
%ADD12R,2.500000X4.000000*%
%ADD13R,1.000000X1.250000*%
%ADD14R,0.800000X0.800000*%
%ADD15R,1.100000X1.100000*%
%ADD16R,0.900000X0.500000*%
%ADD17R,0.500000X0.900000*%
%ADD18R,0.300000X1.500000*%
%ADD19R,1.500000X0.300000*%
%ADD20R,3.102000X3.102000*%
%ADD21R,1.060000X0.650000*%
%ADD22C,0.100000*%
%ADD23C,1.000000*%
G04 APERTURE END LIST*
D10*
X122925000Y-142525000D03*
X122925000Y-144025000D03*
X118875000Y-129100000D03*
X118875000Y-127600000D03*
D11*
X132925000Y-130000000D03*
X131425000Y-130000000D03*
D10*
X118875000Y-124350000D03*
X118875000Y-125850000D03*
X110900000Y-131150000D03*
X110900000Y-129650000D03*
X110900000Y-134400000D03*
X110900000Y-132900000D03*
X110900000Y-126350000D03*
X110900000Y-127850000D03*
D11*
X134850000Y-123300000D03*
X136350000Y-123300000D03*
D12*
X116850000Y-116350000D03*
X116850000Y-110250000D03*
X125500000Y-116350000D03*
X125500000Y-110250000D03*
X134150000Y-116350000D03*
X134150000Y-110250000D03*
D11*
X137800000Y-123300000D03*
X139300000Y-123300000D03*
D10*
X110900000Y-137600000D03*
X110900000Y-136100000D03*
D11*
X140750000Y-123300000D03*
X142250000Y-123300000D03*
D13*
X121175000Y-138575000D03*
X119175000Y-138575000D03*
D11*
X126325000Y-146725000D03*
X124825000Y-146725000D03*
X109400000Y-138750000D03*
X107900000Y-138750000D03*
X109400000Y-141650000D03*
X107900000Y-141650000D03*
X109400000Y-144550000D03*
X107900000Y-144550000D03*
D14*
X109150000Y-101250000D03*
X109150000Y-102850000D03*
X113975000Y-123350000D03*
X113975000Y-124950000D03*
X115650000Y-140150000D03*
X115650000Y-141750000D03*
D15*
X119275000Y-147025000D03*
X122075000Y-147025000D03*
D16*
X131450000Y-132725000D03*
X131450000Y-131225000D03*
D17*
X116175000Y-128050000D03*
X117675000Y-128050000D03*
D16*
X107950000Y-131150000D03*
X107950000Y-129650000D03*
X107950000Y-134400000D03*
X107950000Y-132900000D03*
X107950000Y-126450000D03*
X107950000Y-127950000D03*
D17*
X113975000Y-121900000D03*
X115475000Y-121900000D03*
D16*
X107650000Y-102900000D03*
X107650000Y-101400000D03*
X115475000Y-124750000D03*
X115475000Y-123250000D03*
X109450000Y-129650000D03*
X109450000Y-131150000D03*
X109450000Y-132900000D03*
X109450000Y-134400000D03*
X109450000Y-127950000D03*
X109450000Y-126450000D03*
X107950000Y-137400000D03*
X107950000Y-135900000D03*
X109450000Y-135900000D03*
X109450000Y-137400000D03*
X115675000Y-143025000D03*
X115675000Y-144525000D03*
D17*
X124475000Y-141425000D03*
X125975000Y-141425000D03*
X127075000Y-141425000D03*
X128575000Y-141425000D03*
X109250000Y-140200000D03*
X107750000Y-140200000D03*
X109250000Y-143100000D03*
X107750000Y-143100000D03*
X109250000Y-146000000D03*
X107750000Y-146000000D03*
D16*
X140950000Y-141350000D03*
X140950000Y-142850000D03*
X138400000Y-141350000D03*
X138400000Y-142850000D03*
D18*
X122675000Y-131600000D03*
X123175000Y-131600000D03*
X123675000Y-131600000D03*
X124175000Y-131600000D03*
X124675000Y-131600000D03*
X125175000Y-131600000D03*
X125675000Y-131600000D03*
X126175000Y-131600000D03*
X126675000Y-131600000D03*
X127175000Y-131600000D03*
X127675000Y-131600000D03*
X128175000Y-131600000D03*
D19*
X129625000Y-130150000D03*
X129625000Y-129650000D03*
X129625000Y-129150000D03*
X129625000Y-128650000D03*
X129625000Y-128150000D03*
X129625000Y-127650000D03*
X129625000Y-127150000D03*
X129625000Y-126650000D03*
X129625000Y-126150000D03*
X129625000Y-125650000D03*
X129625000Y-125150000D03*
X129625000Y-124650000D03*
D18*
X128175000Y-123200000D03*
X127675000Y-123200000D03*
X127175000Y-123200000D03*
X126675000Y-123200000D03*
X126175000Y-123200000D03*
X125675000Y-123200000D03*
X125175000Y-123200000D03*
X124675000Y-123200000D03*
X124175000Y-123200000D03*
X123675000Y-123200000D03*
X123175000Y-123200000D03*
X122675000Y-123200000D03*
D19*
X121225000Y-124650000D03*
X121225000Y-125150000D03*
X121225000Y-125650000D03*
X121225000Y-126150000D03*
X121225000Y-126650000D03*
X121225000Y-127150000D03*
X121225000Y-127650000D03*
X121225000Y-128150000D03*
X121225000Y-128650000D03*
X121225000Y-129150000D03*
X121225000Y-129650000D03*
X121225000Y-130150000D03*
D20*
X125425000Y-127400000D03*
D21*
X126675000Y-145125000D03*
X126675000Y-144175000D03*
X126675000Y-143225000D03*
X124475000Y-143225000D03*
X124475000Y-145125000D03*
X124475000Y-144175000D03*
X109100000Y-121400000D03*
X109100000Y-122350000D03*
X109100000Y-123300000D03*
X111300000Y-123300000D03*
X111300000Y-121400000D03*
X111300000Y-122350000D03*
D22*
G36*
X120099504Y-144626204D02*
G01*
X120123773Y-144629804D01*
X120147571Y-144635765D01*
X120170671Y-144644030D01*
X120192849Y-144654520D01*
X120213893Y-144667133D01*
X120233598Y-144681747D01*
X120251777Y-144698223D01*
X120268253Y-144716402D01*
X120282867Y-144736107D01*
X120295480Y-144757151D01*
X120305970Y-144779329D01*
X120314235Y-144802429D01*
X120320196Y-144826227D01*
X120323796Y-144850496D01*
X120325000Y-144875000D01*
X120325000Y-145375000D01*
X120323796Y-145399504D01*
X120320196Y-145423773D01*
X120314235Y-145447571D01*
X120305970Y-145470671D01*
X120295480Y-145492849D01*
X120282867Y-145513893D01*
X120268253Y-145533598D01*
X120251777Y-145551777D01*
X120233598Y-145568253D01*
X120213893Y-145582867D01*
X120192849Y-145595480D01*
X120170671Y-145605970D01*
X120147571Y-145614235D01*
X120123773Y-145620196D01*
X120099504Y-145623796D01*
X120075000Y-145625000D01*
X118575000Y-145625000D01*
X118550496Y-145623796D01*
X118526227Y-145620196D01*
X118502429Y-145614235D01*
X118479329Y-145605970D01*
X118457151Y-145595480D01*
X118436107Y-145582867D01*
X118416402Y-145568253D01*
X118398223Y-145551777D01*
X118381747Y-145533598D01*
X118367133Y-145513893D01*
X118354520Y-145492849D01*
X118344030Y-145470671D01*
X118335765Y-145447571D01*
X118329804Y-145423773D01*
X118326204Y-145399504D01*
X118325000Y-145375000D01*
X118325000Y-144875000D01*
X118326204Y-144850496D01*
X118329804Y-144826227D01*
X118335765Y-144802429D01*
X118344030Y-144779329D01*
X118354520Y-144757151D01*
X118367133Y-144736107D01*
X118381747Y-144716402D01*
X118398223Y-144698223D01*
X118416402Y-144681747D01*
X118436107Y-144667133D01*
X118457151Y-144654520D01*
X118479329Y-144644030D01*
X118502429Y-144635765D01*
X118526227Y-144629804D01*
X118550496Y-144626204D01*
X118575000Y-144625000D01*
X120075000Y-144625000D01*
X120099504Y-144626204D01*
X120099504Y-144626204D01*
G37*
D23*
X119325000Y-145125000D03*
D22*
G36*
X120099504Y-139626204D02*
G01*
X120123773Y-139629804D01*
X120147571Y-139635765D01*
X120170671Y-139644030D01*
X120192849Y-139654520D01*
X120213893Y-139667133D01*
X120233598Y-139681747D01*
X120251777Y-139698223D01*
X120268253Y-139716402D01*
X120282867Y-139736107D01*
X120295480Y-139757151D01*
X120305970Y-139779329D01*
X120314235Y-139802429D01*
X120320196Y-139826227D01*
X120323796Y-139850496D01*
X120325000Y-139875000D01*
X120325000Y-140375000D01*
X120323796Y-140399504D01*
X120320196Y-140423773D01*
X120314235Y-140447571D01*
X120305970Y-140470671D01*
X120295480Y-140492849D01*
X120282867Y-140513893D01*
X120268253Y-140533598D01*
X120251777Y-140551777D01*
X120233598Y-140568253D01*
X120213893Y-140582867D01*
X120192849Y-140595480D01*
X120170671Y-140605970D01*
X120147571Y-140614235D01*
X120123773Y-140620196D01*
X120099504Y-140623796D01*
X120075000Y-140625000D01*
X118575000Y-140625000D01*
X118550496Y-140623796D01*
X118526227Y-140620196D01*
X118502429Y-140614235D01*
X118479329Y-140605970D01*
X118457151Y-140595480D01*
X118436107Y-140582867D01*
X118416402Y-140568253D01*
X118398223Y-140551777D01*
X118381747Y-140533598D01*
X118367133Y-140513893D01*
X118354520Y-140492849D01*
X118344030Y-140470671D01*
X118335765Y-140447571D01*
X118329804Y-140423773D01*
X118326204Y-140399504D01*
X118325000Y-140375000D01*
X118325000Y-139875000D01*
X118326204Y-139850496D01*
X118329804Y-139826227D01*
X118335765Y-139802429D01*
X118344030Y-139779329D01*
X118354520Y-139757151D01*
X118367133Y-139736107D01*
X118381747Y-139716402D01*
X118398223Y-139698223D01*
X118416402Y-139681747D01*
X118436107Y-139667133D01*
X118457151Y-139654520D01*
X118479329Y-139644030D01*
X118502429Y-139635765D01*
X118526227Y-139629804D01*
X118550496Y-139626204D01*
X118575000Y-139625000D01*
X120075000Y-139625000D01*
X120099504Y-139626204D01*
X120099504Y-139626204D01*
G37*
D23*
X119325000Y-140125000D03*
D11*
X118875000Y-130925000D03*
X117375000Y-130925000D03*
M02*
