G04 #@! TF.GenerationSoftware,KiCad,Pcbnew,(5.1.5)-3*
G04 #@! TF.CreationDate,2020-02-07T19:54:23-03:30*
G04 #@! TF.ProjectId,MCU_Powertrain,4d43555f-506f-4776-9572-747261696e2e,rev?*
G04 #@! TF.SameCoordinates,Original*
G04 #@! TF.FileFunction,Legend,Bot*
G04 #@! TF.FilePolarity,Positive*
%FSLAX46Y46*%
G04 Gerber Fmt 4.6, Leading zero omitted, Abs format (unit mm)*
G04 Created by KiCad (PCBNEW (5.1.5)-3) date 2020-02-07 19:54:23*
%MOMM*%
%LPD*%
G04 APERTURE LIST*
%ADD10C,0.120000*%
%ADD11C,0.125000*%
G04 APERTURE END LIST*
D10*
X72845000Y-106915000D02*
X72845000Y-107615000D01*
X74045000Y-107615000D02*
X74045000Y-106915000D01*
X88100000Y-93350000D02*
X87100000Y-93350000D01*
X87100000Y-91650000D02*
X88100000Y-91650000D01*
X87300000Y-101150000D02*
X88300000Y-101150000D01*
X88300000Y-102850000D02*
X87300000Y-102850000D01*
X88125000Y-111950000D02*
X87125000Y-111950000D01*
X87125000Y-110250000D02*
X88125000Y-110250000D01*
X66485000Y-84930000D02*
X67185000Y-84930000D01*
X67185000Y-83730000D02*
X66485000Y-83730000D01*
X57000000Y-96000000D02*
X57000000Y-95000000D01*
X58700000Y-95000000D02*
X58700000Y-96000000D01*
X59550000Y-95050000D02*
X59550000Y-94050000D01*
X61250000Y-94050000D02*
X61250000Y-95050000D01*
X54875000Y-105325000D02*
X53875000Y-105325000D01*
X53875000Y-103625000D02*
X54875000Y-103625000D01*
X60025000Y-100775000D02*
X59025000Y-100775000D01*
X59025000Y-99075000D02*
X60025000Y-99075000D01*
X59025000Y-100975000D02*
X60025000Y-100975000D01*
X60025000Y-102675000D02*
X59025000Y-102675000D01*
X54800000Y-101620000D02*
X53600000Y-101620000D01*
X53600000Y-103380000D02*
X54800000Y-103380000D01*
X61155000Y-97725000D02*
X61155000Y-98225000D01*
X60095000Y-98225000D02*
X60095000Y-97725000D01*
X71630000Y-99500000D02*
X71630000Y-98500000D01*
X70270000Y-98500000D02*
X70270000Y-99500000D01*
X92500000Y-105680000D02*
X87300000Y-105680000D01*
X87300000Y-109320000D02*
X92500000Y-109320000D01*
X87300000Y-118320000D02*
X92500000Y-118320000D01*
X92500000Y-114680000D02*
X87300000Y-114680000D01*
X87300000Y-100320000D02*
X92500000Y-100320000D01*
X92500000Y-96680000D02*
X87300000Y-96680000D01*
X59225000Y-103720000D02*
X58025000Y-103720000D01*
X58025000Y-105480000D02*
X59225000Y-105480000D01*
X58025000Y-107380000D02*
X59225000Y-107380000D01*
X59225000Y-105620000D02*
X58025000Y-105620000D01*
X52595000Y-86190000D02*
X52595000Y-87390000D01*
X54355000Y-87390000D02*
X54355000Y-86190000D01*
X49945000Y-86190000D02*
X49945000Y-87390000D01*
X51705000Y-87390000D02*
X51705000Y-86190000D01*
X59680000Y-87400000D02*
X59680000Y-86200000D01*
X57920000Y-86200000D02*
X57920000Y-87400000D01*
X55270000Y-86200000D02*
X55270000Y-87400000D01*
X57030000Y-87400000D02*
X57030000Y-86200000D01*
X31300000Y-120950000D02*
X32300000Y-120950000D01*
X32300000Y-122650000D02*
X31300000Y-122650000D01*
X32300000Y-120750000D02*
X31300000Y-120750000D01*
X31300000Y-119050000D02*
X32300000Y-119050000D01*
D11*
X75028333Y-107443571D02*
X75052142Y-107467380D01*
X75123571Y-107491190D01*
X75171190Y-107491190D01*
X75242619Y-107467380D01*
X75290238Y-107419761D01*
X75314047Y-107372142D01*
X75337857Y-107276904D01*
X75337857Y-107205476D01*
X75314047Y-107110238D01*
X75290238Y-107062619D01*
X75242619Y-107015000D01*
X75171190Y-106991190D01*
X75123571Y-106991190D01*
X75052142Y-107015000D01*
X75028333Y-107038809D01*
X74861666Y-106991190D02*
X74552142Y-106991190D01*
X74718809Y-107181666D01*
X74647380Y-107181666D01*
X74599761Y-107205476D01*
X74575952Y-107229285D01*
X74552142Y-107276904D01*
X74552142Y-107395952D01*
X74575952Y-107443571D01*
X74599761Y-107467380D01*
X74647380Y-107491190D01*
X74790238Y-107491190D01*
X74837857Y-107467380D01*
X74861666Y-107443571D01*
X87921428Y-94178571D02*
X87945238Y-94202380D01*
X88016666Y-94226190D01*
X88064285Y-94226190D01*
X88135714Y-94202380D01*
X88183333Y-94154761D01*
X88207142Y-94107142D01*
X88230952Y-94011904D01*
X88230952Y-93940476D01*
X88207142Y-93845238D01*
X88183333Y-93797619D01*
X88135714Y-93750000D01*
X88064285Y-93726190D01*
X88016666Y-93726190D01*
X87945238Y-93750000D01*
X87921428Y-93773809D01*
X87445238Y-94226190D02*
X87730952Y-94226190D01*
X87588095Y-94226190D02*
X87588095Y-93726190D01*
X87635714Y-93797619D01*
X87683333Y-93845238D01*
X87730952Y-93869047D01*
X87278571Y-93726190D02*
X86969047Y-93726190D01*
X87135714Y-93916666D01*
X87064285Y-93916666D01*
X87016666Y-93940476D01*
X86992857Y-93964285D01*
X86969047Y-94011904D01*
X86969047Y-94130952D01*
X86992857Y-94178571D01*
X87016666Y-94202380D01*
X87064285Y-94226190D01*
X87207142Y-94226190D01*
X87254761Y-94202380D01*
X87278571Y-94178571D01*
X88096428Y-103553571D02*
X88120238Y-103577380D01*
X88191666Y-103601190D01*
X88239285Y-103601190D01*
X88310714Y-103577380D01*
X88358333Y-103529761D01*
X88382142Y-103482142D01*
X88405952Y-103386904D01*
X88405952Y-103315476D01*
X88382142Y-103220238D01*
X88358333Y-103172619D01*
X88310714Y-103125000D01*
X88239285Y-103101190D01*
X88191666Y-103101190D01*
X88120238Y-103125000D01*
X88096428Y-103148809D01*
X87620238Y-103601190D02*
X87905952Y-103601190D01*
X87763095Y-103601190D02*
X87763095Y-103101190D01*
X87810714Y-103172619D01*
X87858333Y-103220238D01*
X87905952Y-103244047D01*
X87191666Y-103267857D02*
X87191666Y-103601190D01*
X87310714Y-103077380D02*
X87429761Y-103434523D01*
X87120238Y-103434523D01*
X87946428Y-112778571D02*
X87970238Y-112802380D01*
X88041666Y-112826190D01*
X88089285Y-112826190D01*
X88160714Y-112802380D01*
X88208333Y-112754761D01*
X88232142Y-112707142D01*
X88255952Y-112611904D01*
X88255952Y-112540476D01*
X88232142Y-112445238D01*
X88208333Y-112397619D01*
X88160714Y-112350000D01*
X88089285Y-112326190D01*
X88041666Y-112326190D01*
X87970238Y-112350000D01*
X87946428Y-112373809D01*
X87470238Y-112826190D02*
X87755952Y-112826190D01*
X87613095Y-112826190D02*
X87613095Y-112326190D01*
X87660714Y-112397619D01*
X87708333Y-112445238D01*
X87755952Y-112469047D01*
X87017857Y-112326190D02*
X87255952Y-112326190D01*
X87279761Y-112564285D01*
X87255952Y-112540476D01*
X87208333Y-112516666D01*
X87089285Y-112516666D01*
X87041666Y-112540476D01*
X87017857Y-112564285D01*
X86994047Y-112611904D01*
X86994047Y-112730952D01*
X87017857Y-112778571D01*
X87041666Y-112802380D01*
X87089285Y-112826190D01*
X87208333Y-112826190D01*
X87255952Y-112802380D01*
X87279761Y-112778571D01*
X67171428Y-83378571D02*
X67195238Y-83402380D01*
X67266666Y-83426190D01*
X67314285Y-83426190D01*
X67385714Y-83402380D01*
X67433333Y-83354761D01*
X67457142Y-83307142D01*
X67480952Y-83211904D01*
X67480952Y-83140476D01*
X67457142Y-83045238D01*
X67433333Y-82997619D01*
X67385714Y-82950000D01*
X67314285Y-82926190D01*
X67266666Y-82926190D01*
X67195238Y-82950000D01*
X67171428Y-82973809D01*
X67004761Y-82926190D02*
X66695238Y-82926190D01*
X66861904Y-83116666D01*
X66790476Y-83116666D01*
X66742857Y-83140476D01*
X66719047Y-83164285D01*
X66695238Y-83211904D01*
X66695238Y-83330952D01*
X66719047Y-83378571D01*
X66742857Y-83402380D01*
X66790476Y-83426190D01*
X66933333Y-83426190D01*
X66980952Y-83402380D01*
X67004761Y-83378571D01*
X66528571Y-82926190D02*
X66219047Y-82926190D01*
X66385714Y-83116666D01*
X66314285Y-83116666D01*
X66266666Y-83140476D01*
X66242857Y-83164285D01*
X66219047Y-83211904D01*
X66219047Y-83330952D01*
X66242857Y-83378571D01*
X66266666Y-83402380D01*
X66314285Y-83426190D01*
X66457142Y-83426190D01*
X66504761Y-83402380D01*
X66528571Y-83378571D01*
X58221428Y-93428571D02*
X58245238Y-93452380D01*
X58316666Y-93476190D01*
X58364285Y-93476190D01*
X58435714Y-93452380D01*
X58483333Y-93404761D01*
X58507142Y-93357142D01*
X58530952Y-93261904D01*
X58530952Y-93190476D01*
X58507142Y-93095238D01*
X58483333Y-93047619D01*
X58435714Y-93000000D01*
X58364285Y-92976190D01*
X58316666Y-92976190D01*
X58245238Y-93000000D01*
X58221428Y-93023809D01*
X58054761Y-92976190D02*
X57745238Y-92976190D01*
X57911904Y-93166666D01*
X57840476Y-93166666D01*
X57792857Y-93190476D01*
X57769047Y-93214285D01*
X57745238Y-93261904D01*
X57745238Y-93380952D01*
X57769047Y-93428571D01*
X57792857Y-93452380D01*
X57840476Y-93476190D01*
X57983333Y-93476190D01*
X58030952Y-93452380D01*
X58054761Y-93428571D01*
X57316666Y-93142857D02*
X57316666Y-93476190D01*
X57435714Y-92952380D02*
X57554761Y-93309523D01*
X57245238Y-93309523D01*
X60746428Y-92328571D02*
X60770238Y-92352380D01*
X60841666Y-92376190D01*
X60889285Y-92376190D01*
X60960714Y-92352380D01*
X61008333Y-92304761D01*
X61032142Y-92257142D01*
X61055952Y-92161904D01*
X61055952Y-92090476D01*
X61032142Y-91995238D01*
X61008333Y-91947619D01*
X60960714Y-91900000D01*
X60889285Y-91876190D01*
X60841666Y-91876190D01*
X60770238Y-91900000D01*
X60746428Y-91923809D01*
X60579761Y-91876190D02*
X60270238Y-91876190D01*
X60436904Y-92066666D01*
X60365476Y-92066666D01*
X60317857Y-92090476D01*
X60294047Y-92114285D01*
X60270238Y-92161904D01*
X60270238Y-92280952D01*
X60294047Y-92328571D01*
X60317857Y-92352380D01*
X60365476Y-92376190D01*
X60508333Y-92376190D01*
X60555952Y-92352380D01*
X60579761Y-92328571D01*
X59817857Y-91876190D02*
X60055952Y-91876190D01*
X60079761Y-92114285D01*
X60055952Y-92090476D01*
X60008333Y-92066666D01*
X59889285Y-92066666D01*
X59841666Y-92090476D01*
X59817857Y-92114285D01*
X59794047Y-92161904D01*
X59794047Y-92280952D01*
X59817857Y-92328571D01*
X59841666Y-92352380D01*
X59889285Y-92376190D01*
X60008333Y-92376190D01*
X60055952Y-92352380D01*
X60079761Y-92328571D01*
X52096428Y-104603571D02*
X52120238Y-104627380D01*
X52191666Y-104651190D01*
X52239285Y-104651190D01*
X52310714Y-104627380D01*
X52358333Y-104579761D01*
X52382142Y-104532142D01*
X52405952Y-104436904D01*
X52405952Y-104365476D01*
X52382142Y-104270238D01*
X52358333Y-104222619D01*
X52310714Y-104175000D01*
X52239285Y-104151190D01*
X52191666Y-104151190D01*
X52120238Y-104175000D01*
X52096428Y-104198809D01*
X51929761Y-104151190D02*
X51620238Y-104151190D01*
X51786904Y-104341666D01*
X51715476Y-104341666D01*
X51667857Y-104365476D01*
X51644047Y-104389285D01*
X51620238Y-104436904D01*
X51620238Y-104555952D01*
X51644047Y-104603571D01*
X51667857Y-104627380D01*
X51715476Y-104651190D01*
X51858333Y-104651190D01*
X51905952Y-104627380D01*
X51929761Y-104603571D01*
X51191666Y-104151190D02*
X51286904Y-104151190D01*
X51334523Y-104175000D01*
X51358333Y-104198809D01*
X51405952Y-104270238D01*
X51429761Y-104365476D01*
X51429761Y-104555952D01*
X51405952Y-104603571D01*
X51382142Y-104627380D01*
X51334523Y-104651190D01*
X51239285Y-104651190D01*
X51191666Y-104627380D01*
X51167857Y-104603571D01*
X51144047Y-104555952D01*
X51144047Y-104436904D01*
X51167857Y-104389285D01*
X51191666Y-104365476D01*
X51239285Y-104341666D01*
X51334523Y-104341666D01*
X51382142Y-104365476D01*
X51405952Y-104389285D01*
X51429761Y-104436904D01*
X62521428Y-100078571D02*
X62545238Y-100102380D01*
X62616666Y-100126190D01*
X62664285Y-100126190D01*
X62735714Y-100102380D01*
X62783333Y-100054761D01*
X62807142Y-100007142D01*
X62830952Y-99911904D01*
X62830952Y-99840476D01*
X62807142Y-99745238D01*
X62783333Y-99697619D01*
X62735714Y-99650000D01*
X62664285Y-99626190D01*
X62616666Y-99626190D01*
X62545238Y-99650000D01*
X62521428Y-99673809D01*
X62354761Y-99626190D02*
X62045238Y-99626190D01*
X62211904Y-99816666D01*
X62140476Y-99816666D01*
X62092857Y-99840476D01*
X62069047Y-99864285D01*
X62045238Y-99911904D01*
X62045238Y-100030952D01*
X62069047Y-100078571D01*
X62092857Y-100102380D01*
X62140476Y-100126190D01*
X62283333Y-100126190D01*
X62330952Y-100102380D01*
X62354761Y-100078571D01*
X61878571Y-99626190D02*
X61545238Y-99626190D01*
X61759523Y-100126190D01*
X62471428Y-102028571D02*
X62495238Y-102052380D01*
X62566666Y-102076190D01*
X62614285Y-102076190D01*
X62685714Y-102052380D01*
X62733333Y-102004761D01*
X62757142Y-101957142D01*
X62780952Y-101861904D01*
X62780952Y-101790476D01*
X62757142Y-101695238D01*
X62733333Y-101647619D01*
X62685714Y-101600000D01*
X62614285Y-101576190D01*
X62566666Y-101576190D01*
X62495238Y-101600000D01*
X62471428Y-101623809D01*
X62304761Y-101576190D02*
X61995238Y-101576190D01*
X62161904Y-101766666D01*
X62090476Y-101766666D01*
X62042857Y-101790476D01*
X62019047Y-101814285D01*
X61995238Y-101861904D01*
X61995238Y-101980952D01*
X62019047Y-102028571D01*
X62042857Y-102052380D01*
X62090476Y-102076190D01*
X62233333Y-102076190D01*
X62280952Y-102052380D01*
X62304761Y-102028571D01*
X61709523Y-101790476D02*
X61757142Y-101766666D01*
X61780952Y-101742857D01*
X61804761Y-101695238D01*
X61804761Y-101671428D01*
X61780952Y-101623809D01*
X61757142Y-101600000D01*
X61709523Y-101576190D01*
X61614285Y-101576190D01*
X61566666Y-101600000D01*
X61542857Y-101623809D01*
X61519047Y-101671428D01*
X61519047Y-101695238D01*
X61542857Y-101742857D01*
X61566666Y-101766666D01*
X61614285Y-101790476D01*
X61709523Y-101790476D01*
X61757142Y-101814285D01*
X61780952Y-101838095D01*
X61804761Y-101885714D01*
X61804761Y-101980952D01*
X61780952Y-102028571D01*
X61757142Y-102052380D01*
X61709523Y-102076190D01*
X61614285Y-102076190D01*
X61566666Y-102052380D01*
X61542857Y-102028571D01*
X61519047Y-101980952D01*
X61519047Y-101885714D01*
X61542857Y-101838095D01*
X61566666Y-101814285D01*
X61614285Y-101790476D01*
X52058333Y-102701190D02*
X52296428Y-102701190D01*
X52296428Y-102201190D01*
X51915476Y-102248809D02*
X51891666Y-102225000D01*
X51844047Y-102201190D01*
X51725000Y-102201190D01*
X51677380Y-102225000D01*
X51653571Y-102248809D01*
X51629761Y-102296428D01*
X51629761Y-102344047D01*
X51653571Y-102415476D01*
X51939285Y-102701190D01*
X51629761Y-102701190D01*
X59483333Y-98226190D02*
X59721428Y-98226190D01*
X59721428Y-97726190D01*
X59364285Y-97726190D02*
X59054761Y-97726190D01*
X59221428Y-97916666D01*
X59150000Y-97916666D01*
X59102380Y-97940476D01*
X59078571Y-97964285D01*
X59054761Y-98011904D01*
X59054761Y-98130952D01*
X59078571Y-98178571D01*
X59102380Y-98202380D01*
X59150000Y-98226190D01*
X59292857Y-98226190D01*
X59340476Y-98202380D01*
X59364285Y-98178571D01*
X95447619Y-100273809D02*
X95495238Y-100250000D01*
X95542857Y-100202380D01*
X95614285Y-100130952D01*
X95661904Y-100107142D01*
X95709523Y-100107142D01*
X95685714Y-100226190D02*
X95733333Y-100202380D01*
X95780952Y-100154761D01*
X95804761Y-100059523D01*
X95804761Y-99892857D01*
X95780952Y-99797619D01*
X95733333Y-99750000D01*
X95685714Y-99726190D01*
X95590476Y-99726190D01*
X95542857Y-99750000D01*
X95495238Y-99797619D01*
X95471428Y-99892857D01*
X95471428Y-100059523D01*
X95495238Y-100154761D01*
X95542857Y-100202380D01*
X95590476Y-100226190D01*
X95685714Y-100226190D01*
X94995238Y-100226190D02*
X95280952Y-100226190D01*
X95138095Y-100226190D02*
X95138095Y-99726190D01*
X95185714Y-99797619D01*
X95233333Y-99845238D01*
X95280952Y-99869047D01*
X95597619Y-109023809D02*
X95645238Y-109000000D01*
X95692857Y-108952380D01*
X95764285Y-108880952D01*
X95811904Y-108857142D01*
X95859523Y-108857142D01*
X95835714Y-108976190D02*
X95883333Y-108952380D01*
X95930952Y-108904761D01*
X95954761Y-108809523D01*
X95954761Y-108642857D01*
X95930952Y-108547619D01*
X95883333Y-108500000D01*
X95835714Y-108476190D01*
X95740476Y-108476190D01*
X95692857Y-108500000D01*
X95645238Y-108547619D01*
X95621428Y-108642857D01*
X95621428Y-108809523D01*
X95645238Y-108904761D01*
X95692857Y-108952380D01*
X95740476Y-108976190D01*
X95835714Y-108976190D01*
X95430952Y-108523809D02*
X95407142Y-108500000D01*
X95359523Y-108476190D01*
X95240476Y-108476190D01*
X95192857Y-108500000D01*
X95169047Y-108523809D01*
X95145238Y-108571428D01*
X95145238Y-108619047D01*
X95169047Y-108690476D01*
X95454761Y-108976190D01*
X95145238Y-108976190D01*
X95897619Y-91273809D02*
X95945238Y-91250000D01*
X95992857Y-91202380D01*
X96064285Y-91130952D01*
X96111904Y-91107142D01*
X96159523Y-91107142D01*
X96135714Y-91226190D02*
X96183333Y-91202380D01*
X96230952Y-91154761D01*
X96254761Y-91059523D01*
X96254761Y-90892857D01*
X96230952Y-90797619D01*
X96183333Y-90750000D01*
X96135714Y-90726190D01*
X96040476Y-90726190D01*
X95992857Y-90750000D01*
X95945238Y-90797619D01*
X95921428Y-90892857D01*
X95921428Y-91059523D01*
X95945238Y-91154761D01*
X95992857Y-91202380D01*
X96040476Y-91226190D01*
X96135714Y-91226190D01*
X95754761Y-90726190D02*
X95445238Y-90726190D01*
X95611904Y-90916666D01*
X95540476Y-90916666D01*
X95492857Y-90940476D01*
X95469047Y-90964285D01*
X95445238Y-91011904D01*
X95445238Y-91130952D01*
X95469047Y-91178571D01*
X95492857Y-91202380D01*
X95540476Y-91226190D01*
X95683333Y-91226190D01*
X95730952Y-91202380D01*
X95754761Y-91178571D01*
X69583333Y-99226190D02*
X69750000Y-98988095D01*
X69869047Y-99226190D02*
X69869047Y-98726190D01*
X69678571Y-98726190D01*
X69630952Y-98750000D01*
X69607142Y-98773809D01*
X69583333Y-98821428D01*
X69583333Y-98892857D01*
X69607142Y-98940476D01*
X69630952Y-98964285D01*
X69678571Y-98988095D01*
X69869047Y-98988095D01*
X69107142Y-99226190D02*
X69392857Y-99226190D01*
X69250000Y-99226190D02*
X69250000Y-98726190D01*
X69297619Y-98797619D01*
X69345238Y-98845238D01*
X69392857Y-98869047D01*
X94733333Y-107476190D02*
X94900000Y-107238095D01*
X95019047Y-107476190D02*
X95019047Y-106976190D01*
X94828571Y-106976190D01*
X94780952Y-107000000D01*
X94757142Y-107023809D01*
X94733333Y-107071428D01*
X94733333Y-107142857D01*
X94757142Y-107190476D01*
X94780952Y-107214285D01*
X94828571Y-107238095D01*
X95019047Y-107238095D01*
X94447619Y-107190476D02*
X94495238Y-107166666D01*
X94519047Y-107142857D01*
X94542857Y-107095238D01*
X94542857Y-107071428D01*
X94519047Y-107023809D01*
X94495238Y-107000000D01*
X94447619Y-106976190D01*
X94352380Y-106976190D01*
X94304761Y-107000000D01*
X94280952Y-107023809D01*
X94257142Y-107071428D01*
X94257142Y-107095238D01*
X94280952Y-107142857D01*
X94304761Y-107166666D01*
X94352380Y-107190476D01*
X94447619Y-107190476D01*
X94495238Y-107214285D01*
X94519047Y-107238095D01*
X94542857Y-107285714D01*
X94542857Y-107380952D01*
X94519047Y-107428571D01*
X94495238Y-107452380D01*
X94447619Y-107476190D01*
X94352380Y-107476190D01*
X94304761Y-107452380D01*
X94280952Y-107428571D01*
X94257142Y-107380952D01*
X94257142Y-107285714D01*
X94280952Y-107238095D01*
X94304761Y-107214285D01*
X94352380Y-107190476D01*
X94608333Y-116701190D02*
X94775000Y-116463095D01*
X94894047Y-116701190D02*
X94894047Y-116201190D01*
X94703571Y-116201190D01*
X94655952Y-116225000D01*
X94632142Y-116248809D01*
X94608333Y-116296428D01*
X94608333Y-116367857D01*
X94632142Y-116415476D01*
X94655952Y-116439285D01*
X94703571Y-116463095D01*
X94894047Y-116463095D01*
X94370238Y-116701190D02*
X94275000Y-116701190D01*
X94227380Y-116677380D01*
X94203571Y-116653571D01*
X94155952Y-116582142D01*
X94132142Y-116486904D01*
X94132142Y-116296428D01*
X94155952Y-116248809D01*
X94179761Y-116225000D01*
X94227380Y-116201190D01*
X94322619Y-116201190D01*
X94370238Y-116225000D01*
X94394047Y-116248809D01*
X94417857Y-116296428D01*
X94417857Y-116415476D01*
X94394047Y-116463095D01*
X94370238Y-116486904D01*
X94322619Y-116510714D01*
X94227380Y-116510714D01*
X94179761Y-116486904D01*
X94155952Y-116463095D01*
X94132142Y-116415476D01*
X94971428Y-98501190D02*
X95138095Y-98263095D01*
X95257142Y-98501190D02*
X95257142Y-98001190D01*
X95066666Y-98001190D01*
X95019047Y-98025000D01*
X94995238Y-98048809D01*
X94971428Y-98096428D01*
X94971428Y-98167857D01*
X94995238Y-98215476D01*
X95019047Y-98239285D01*
X95066666Y-98263095D01*
X95257142Y-98263095D01*
X94495238Y-98501190D02*
X94780952Y-98501190D01*
X94638095Y-98501190D02*
X94638095Y-98001190D01*
X94685714Y-98072619D01*
X94733333Y-98120238D01*
X94780952Y-98144047D01*
X94019047Y-98501190D02*
X94304761Y-98501190D01*
X94161904Y-98501190D02*
X94161904Y-98001190D01*
X94209523Y-98072619D01*
X94257142Y-98120238D01*
X94304761Y-98144047D01*
X61346428Y-104801190D02*
X61513095Y-104563095D01*
X61632142Y-104801190D02*
X61632142Y-104301190D01*
X61441666Y-104301190D01*
X61394047Y-104325000D01*
X61370238Y-104348809D01*
X61346428Y-104396428D01*
X61346428Y-104467857D01*
X61370238Y-104515476D01*
X61394047Y-104539285D01*
X61441666Y-104563095D01*
X61632142Y-104563095D01*
X61155952Y-104348809D02*
X61132142Y-104325000D01*
X61084523Y-104301190D01*
X60965476Y-104301190D01*
X60917857Y-104325000D01*
X60894047Y-104348809D01*
X60870238Y-104396428D01*
X60870238Y-104444047D01*
X60894047Y-104515476D01*
X61179761Y-104801190D01*
X60870238Y-104801190D01*
X60441666Y-104301190D02*
X60536904Y-104301190D01*
X60584523Y-104325000D01*
X60608333Y-104348809D01*
X60655952Y-104420238D01*
X60679761Y-104515476D01*
X60679761Y-104705952D01*
X60655952Y-104753571D01*
X60632142Y-104777380D01*
X60584523Y-104801190D01*
X60489285Y-104801190D01*
X60441666Y-104777380D01*
X60417857Y-104753571D01*
X60394047Y-104705952D01*
X60394047Y-104586904D01*
X60417857Y-104539285D01*
X60441666Y-104515476D01*
X60489285Y-104491666D01*
X60584523Y-104491666D01*
X60632142Y-104515476D01*
X60655952Y-104539285D01*
X60679761Y-104586904D01*
X61321428Y-106626190D02*
X61488095Y-106388095D01*
X61607142Y-106626190D02*
X61607142Y-106126190D01*
X61416666Y-106126190D01*
X61369047Y-106150000D01*
X61345238Y-106173809D01*
X61321428Y-106221428D01*
X61321428Y-106292857D01*
X61345238Y-106340476D01*
X61369047Y-106364285D01*
X61416666Y-106388095D01*
X61607142Y-106388095D01*
X61130952Y-106173809D02*
X61107142Y-106150000D01*
X61059523Y-106126190D01*
X60940476Y-106126190D01*
X60892857Y-106150000D01*
X60869047Y-106173809D01*
X60845238Y-106221428D01*
X60845238Y-106269047D01*
X60869047Y-106340476D01*
X61154761Y-106626190D01*
X60845238Y-106626190D01*
X60607142Y-106626190D02*
X60511904Y-106626190D01*
X60464285Y-106602380D01*
X60440476Y-106578571D01*
X60392857Y-106507142D01*
X60369047Y-106411904D01*
X60369047Y-106221428D01*
X60392857Y-106173809D01*
X60416666Y-106150000D01*
X60464285Y-106126190D01*
X60559523Y-106126190D01*
X60607142Y-106150000D01*
X60630952Y-106173809D01*
X60654761Y-106221428D01*
X60654761Y-106340476D01*
X60630952Y-106388095D01*
X60607142Y-106411904D01*
X60559523Y-106435714D01*
X60464285Y-106435714D01*
X60416666Y-106411904D01*
X60392857Y-106388095D01*
X60369047Y-106340476D01*
X53821428Y-89051190D02*
X53988095Y-88813095D01*
X54107142Y-89051190D02*
X54107142Y-88551190D01*
X53916666Y-88551190D01*
X53869047Y-88575000D01*
X53845238Y-88598809D01*
X53821428Y-88646428D01*
X53821428Y-88717857D01*
X53845238Y-88765476D01*
X53869047Y-88789285D01*
X53916666Y-88813095D01*
X54107142Y-88813095D01*
X53654761Y-88551190D02*
X53345238Y-88551190D01*
X53511904Y-88741666D01*
X53440476Y-88741666D01*
X53392857Y-88765476D01*
X53369047Y-88789285D01*
X53345238Y-88836904D01*
X53345238Y-88955952D01*
X53369047Y-89003571D01*
X53392857Y-89027380D01*
X53440476Y-89051190D01*
X53583333Y-89051190D01*
X53630952Y-89027380D01*
X53654761Y-89003571D01*
X52869047Y-89051190D02*
X53154761Y-89051190D01*
X53011904Y-89051190D02*
X53011904Y-88551190D01*
X53059523Y-88622619D01*
X53107142Y-88670238D01*
X53154761Y-88694047D01*
X51071428Y-89026190D02*
X51238095Y-88788095D01*
X51357142Y-89026190D02*
X51357142Y-88526190D01*
X51166666Y-88526190D01*
X51119047Y-88550000D01*
X51095238Y-88573809D01*
X51071428Y-88621428D01*
X51071428Y-88692857D01*
X51095238Y-88740476D01*
X51119047Y-88764285D01*
X51166666Y-88788095D01*
X51357142Y-88788095D01*
X50904761Y-88526190D02*
X50595238Y-88526190D01*
X50761904Y-88716666D01*
X50690476Y-88716666D01*
X50642857Y-88740476D01*
X50619047Y-88764285D01*
X50595238Y-88811904D01*
X50595238Y-88930952D01*
X50619047Y-88978571D01*
X50642857Y-89002380D01*
X50690476Y-89026190D01*
X50833333Y-89026190D01*
X50880952Y-89002380D01*
X50904761Y-88978571D01*
X50404761Y-88573809D02*
X50380952Y-88550000D01*
X50333333Y-88526190D01*
X50214285Y-88526190D01*
X50166666Y-88550000D01*
X50142857Y-88573809D01*
X50119047Y-88621428D01*
X50119047Y-88669047D01*
X50142857Y-88740476D01*
X50428571Y-89026190D01*
X50119047Y-89026190D01*
X59146428Y-89026190D02*
X59313095Y-88788095D01*
X59432142Y-89026190D02*
X59432142Y-88526190D01*
X59241666Y-88526190D01*
X59194047Y-88550000D01*
X59170238Y-88573809D01*
X59146428Y-88621428D01*
X59146428Y-88692857D01*
X59170238Y-88740476D01*
X59194047Y-88764285D01*
X59241666Y-88788095D01*
X59432142Y-88788095D01*
X58979761Y-88526190D02*
X58670238Y-88526190D01*
X58836904Y-88716666D01*
X58765476Y-88716666D01*
X58717857Y-88740476D01*
X58694047Y-88764285D01*
X58670238Y-88811904D01*
X58670238Y-88930952D01*
X58694047Y-88978571D01*
X58717857Y-89002380D01*
X58765476Y-89026190D01*
X58908333Y-89026190D01*
X58955952Y-89002380D01*
X58979761Y-88978571D01*
X58503571Y-88526190D02*
X58194047Y-88526190D01*
X58360714Y-88716666D01*
X58289285Y-88716666D01*
X58241666Y-88740476D01*
X58217857Y-88764285D01*
X58194047Y-88811904D01*
X58194047Y-88930952D01*
X58217857Y-88978571D01*
X58241666Y-89002380D01*
X58289285Y-89026190D01*
X58432142Y-89026190D01*
X58479761Y-89002380D01*
X58503571Y-88978571D01*
X56496428Y-89026190D02*
X56663095Y-88788095D01*
X56782142Y-89026190D02*
X56782142Y-88526190D01*
X56591666Y-88526190D01*
X56544047Y-88550000D01*
X56520238Y-88573809D01*
X56496428Y-88621428D01*
X56496428Y-88692857D01*
X56520238Y-88740476D01*
X56544047Y-88764285D01*
X56591666Y-88788095D01*
X56782142Y-88788095D01*
X56329761Y-88526190D02*
X56020238Y-88526190D01*
X56186904Y-88716666D01*
X56115476Y-88716666D01*
X56067857Y-88740476D01*
X56044047Y-88764285D01*
X56020238Y-88811904D01*
X56020238Y-88930952D01*
X56044047Y-88978571D01*
X56067857Y-89002380D01*
X56115476Y-89026190D01*
X56258333Y-89026190D01*
X56305952Y-89002380D01*
X56329761Y-88978571D01*
X55591666Y-88692857D02*
X55591666Y-89026190D01*
X55710714Y-88502380D02*
X55829761Y-88859523D01*
X55520238Y-88859523D01*
X34746428Y-121953571D02*
X34770238Y-121977380D01*
X34841666Y-122001190D01*
X34889285Y-122001190D01*
X34960714Y-121977380D01*
X35008333Y-121929761D01*
X35032142Y-121882142D01*
X35055952Y-121786904D01*
X35055952Y-121715476D01*
X35032142Y-121620238D01*
X35008333Y-121572619D01*
X34960714Y-121525000D01*
X34889285Y-121501190D01*
X34841666Y-121501190D01*
X34770238Y-121525000D01*
X34746428Y-121548809D01*
X34317857Y-121667857D02*
X34317857Y-122001190D01*
X34436904Y-121477380D02*
X34555952Y-121834523D01*
X34246428Y-121834523D01*
X33960714Y-121501190D02*
X33913095Y-121501190D01*
X33865476Y-121525000D01*
X33841666Y-121548809D01*
X33817857Y-121596428D01*
X33794047Y-121691666D01*
X33794047Y-121810714D01*
X33817857Y-121905952D01*
X33841666Y-121953571D01*
X33865476Y-121977380D01*
X33913095Y-122001190D01*
X33960714Y-122001190D01*
X34008333Y-121977380D01*
X34032142Y-121953571D01*
X34055952Y-121905952D01*
X34079761Y-121810714D01*
X34079761Y-121691666D01*
X34055952Y-121596428D01*
X34032142Y-121548809D01*
X34008333Y-121525000D01*
X33960714Y-121501190D01*
X34796428Y-120153571D02*
X34820238Y-120177380D01*
X34891666Y-120201190D01*
X34939285Y-120201190D01*
X35010714Y-120177380D01*
X35058333Y-120129761D01*
X35082142Y-120082142D01*
X35105952Y-119986904D01*
X35105952Y-119915476D01*
X35082142Y-119820238D01*
X35058333Y-119772619D01*
X35010714Y-119725000D01*
X34939285Y-119701190D01*
X34891666Y-119701190D01*
X34820238Y-119725000D01*
X34796428Y-119748809D01*
X34367857Y-119867857D02*
X34367857Y-120201190D01*
X34486904Y-119677380D02*
X34605952Y-120034523D01*
X34296428Y-120034523D01*
X33844047Y-120201190D02*
X34129761Y-120201190D01*
X33986904Y-120201190D02*
X33986904Y-119701190D01*
X34034523Y-119772619D01*
X34082142Y-119820238D01*
X34129761Y-119844047D01*
M02*
