G04 #@! TF.GenerationSoftware,KiCad,Pcbnew,(5.1.5)-3*
G04 #@! TF.CreationDate,2020-02-07T19:54:23-03:30*
G04 #@! TF.ProjectId,MCU_Powertrain,4d43555f-506f-4776-9572-747261696e2e,rev?*
G04 #@! TF.SameCoordinates,Original*
G04 #@! TF.FileFunction,Copper,L4,Bot*
G04 #@! TF.FilePolarity,Positive*
%FSLAX46Y46*%
G04 Gerber Fmt 4.6, Leading zero omitted, Abs format (unit mm)*
G04 Created by KiCad (PCBNEW (5.1.5)-3) date 2020-02-07 19:54:23*
%MOMM*%
%LPD*%
G04 APERTURE LIST*
%ADD10C,0.100000*%
%ADD11R,0.750000X0.800000*%
%ADD12R,1.000000X1.250000*%
%ADD13R,0.800000X0.750000*%
%ADD14R,1.250000X1.000000*%
%ADD15C,6.000000*%
%ADD16C,0.800000*%
%ADD17O,1.700000X1.700000*%
%ADD18R,1.700000X1.700000*%
%ADD19O,3.276600X1.638300*%
%ADD20C,5.516000*%
%ADD21R,5.516000X5.516000*%
%ADD22R,0.700000X1.300000*%
%ADD23R,0.600000X0.400000*%
%ADD24R,0.900000X0.500000*%
%ADD25R,1.000000X3.200000*%
%ADD26R,1.300000X0.700000*%
%ADD27C,0.500000*%
%ADD28C,0.127000*%
%ADD29C,2.000000*%
%ADD30C,0.127000*%
%ADD31C,0.500000*%
%ADD32C,0.250000*%
%ADD33C,1.000000*%
G04 APERTURE END LIST*
D10*
G36*
X88181000Y-107436500D02*
G01*
X87800000Y-107436500D01*
X87800000Y-107563500D01*
X88181000Y-107563500D01*
X88181000Y-107436500D01*
G37*
G36*
X88190500Y-116436500D02*
G01*
X87809500Y-116436500D01*
X87809500Y-116563500D01*
X88190500Y-116563500D01*
X88190500Y-116436500D01*
G37*
G36*
X88190500Y-98436500D02*
G01*
X87809500Y-98436500D01*
X87809500Y-98563500D01*
X88190500Y-98563500D01*
X88190500Y-98436500D01*
G37*
G36*
X91509500Y-107563500D02*
G01*
X91890500Y-107563500D01*
X91890500Y-107436500D01*
X91509500Y-107436500D01*
X91509500Y-107563500D01*
G37*
G36*
X91509500Y-116563500D02*
G01*
X91890500Y-116563500D01*
X91890500Y-116436500D01*
X91509500Y-116436500D01*
X91509500Y-116563500D01*
G37*
G36*
X91409500Y-98563500D02*
G01*
X91790500Y-98563500D01*
X91790500Y-98436500D01*
X91409500Y-98436500D01*
X91409500Y-98563500D01*
G37*
D11*
X73445000Y-106515000D03*
X73445000Y-108015000D03*
D12*
X86600000Y-92500000D03*
X88600000Y-92500000D03*
X88800000Y-102000000D03*
X86800000Y-102000000D03*
X86625000Y-111100000D03*
X88625000Y-111100000D03*
D13*
X66085000Y-84330000D03*
X67585000Y-84330000D03*
D14*
X57850000Y-94500000D03*
X57850000Y-96500000D03*
X60400000Y-93550000D03*
X60400000Y-95550000D03*
D12*
X53375000Y-104475000D03*
X55375000Y-104475000D03*
X58525000Y-99925000D03*
X60525000Y-99925000D03*
X60525000Y-101825000D03*
X58525000Y-101825000D03*
D15*
X107000000Y-126000000D03*
D16*
X109250000Y-126000000D03*
X108590990Y-127590990D03*
X107000000Y-128250000D03*
X105409010Y-127590990D03*
X104750000Y-126000000D03*
X105409010Y-124409010D03*
X107000000Y-123750000D03*
X108590990Y-124409010D03*
X11040990Y-124409010D03*
X9450000Y-123750000D03*
X7859010Y-124409010D03*
X7200000Y-126000000D03*
X7859010Y-127590990D03*
X9450000Y-128250000D03*
X11040990Y-127590990D03*
X11700000Y-126000000D03*
D15*
X9450000Y-126000000D03*
D16*
X11140990Y-80159010D03*
X9550000Y-79500000D03*
X7959010Y-80159010D03*
X7300000Y-81750000D03*
X7959010Y-83340990D03*
X9550000Y-84000000D03*
X11140990Y-83340990D03*
X11800000Y-81750000D03*
D15*
X9550000Y-81750000D03*
X107000000Y-82000000D03*
D16*
X109250000Y-82000000D03*
X108590990Y-83590990D03*
X107000000Y-84250000D03*
X105409010Y-83590990D03*
X104750000Y-82000000D03*
X105409010Y-80409010D03*
X107000000Y-79750000D03*
X108590990Y-80409010D03*
D17*
X10470000Y-101180000D03*
X7930000Y-101180000D03*
X10470000Y-98640000D03*
X7930000Y-98640000D03*
X10470000Y-96100000D03*
X7930000Y-96100000D03*
X10470000Y-93560000D03*
X7930000Y-93560000D03*
X10470000Y-91020000D03*
D18*
X7930000Y-91020000D03*
D19*
X17820000Y-112800000D03*
X17820000Y-115340000D03*
X17820000Y-110260000D03*
D20*
X92800000Y-82100000D03*
D21*
X85600000Y-82100000D03*
D22*
X53250000Y-102500000D03*
X55150000Y-102500000D03*
D23*
X60625000Y-98425000D03*
X60625000Y-97525000D03*
G04 #@! TA.AperFunction,SMDPad,CuDef*
D10*
G36*
X95954901Y-104655241D02*
G01*
X95959755Y-104655961D01*
X95964514Y-104657153D01*
X95969134Y-104658806D01*
X95973570Y-104660904D01*
X95977779Y-104663427D01*
X95981720Y-104666349D01*
X95985355Y-104669645D01*
X95988651Y-104673280D01*
X95991573Y-104677221D01*
X95994096Y-104681430D01*
X95996194Y-104685866D01*
X95997847Y-104690486D01*
X95999039Y-104695245D01*
X95999759Y-104700099D01*
X96000000Y-104705000D01*
X96000000Y-105105000D01*
X95999759Y-105109901D01*
X95999039Y-105114755D01*
X95997847Y-105119514D01*
X95996194Y-105124134D01*
X95994096Y-105128570D01*
X95991573Y-105132779D01*
X95988651Y-105136720D01*
X95985355Y-105140355D01*
X95981720Y-105143651D01*
X95977779Y-105146573D01*
X95973570Y-105149096D01*
X95969134Y-105151194D01*
X95964514Y-105152847D01*
X95959755Y-105154039D01*
X95954901Y-105154759D01*
X95950000Y-105155000D01*
X94550000Y-105155000D01*
X94545099Y-105154759D01*
X94540245Y-105154039D01*
X94535486Y-105152847D01*
X94530866Y-105151194D01*
X94526430Y-105149096D01*
X94522221Y-105146573D01*
X94518280Y-105143651D01*
X94514645Y-105140355D01*
X94511349Y-105136720D01*
X94508427Y-105132779D01*
X94505904Y-105128570D01*
X94503806Y-105124134D01*
X94502153Y-105119514D01*
X94500961Y-105114755D01*
X94500241Y-105109901D01*
X94500000Y-105105000D01*
X94500000Y-104705000D01*
X94500241Y-104700099D01*
X94500961Y-104695245D01*
X94502153Y-104690486D01*
X94503806Y-104685866D01*
X94505904Y-104681430D01*
X94508427Y-104677221D01*
X94511349Y-104673280D01*
X94514645Y-104669645D01*
X94518280Y-104666349D01*
X94522221Y-104663427D01*
X94526430Y-104660904D01*
X94530866Y-104658806D01*
X94535486Y-104657153D01*
X94540245Y-104655961D01*
X94545099Y-104655241D01*
X94550000Y-104655000D01*
X95950000Y-104655000D01*
X95954901Y-104655241D01*
G37*
G04 #@! TD.AperFunction*
G04 #@! TA.AperFunction,SMDPad,CuDef*
G36*
X95945881Y-100800289D02*
G01*
X95951705Y-100801153D01*
X95957417Y-100802584D01*
X95962961Y-100804567D01*
X95968284Y-100807085D01*
X95973334Y-100810112D01*
X95978064Y-100813619D01*
X95982426Y-100817574D01*
X95986381Y-100821936D01*
X95989888Y-100826666D01*
X95992915Y-100831716D01*
X95995433Y-100837039D01*
X95997416Y-100842583D01*
X95998847Y-100848295D01*
X95999711Y-100854119D01*
X96000000Y-100860000D01*
X96000000Y-104140000D01*
X95999711Y-104145881D01*
X95998847Y-104151705D01*
X95997416Y-104157417D01*
X95995433Y-104162961D01*
X95992915Y-104168284D01*
X95989888Y-104173334D01*
X95986381Y-104178064D01*
X95982426Y-104182426D01*
X95978064Y-104186381D01*
X95973334Y-104189888D01*
X95968284Y-104192915D01*
X95962961Y-104195433D01*
X95957417Y-104197416D01*
X95951705Y-104198847D01*
X95945881Y-104199711D01*
X95940000Y-104200000D01*
X95460000Y-104200000D01*
X95454119Y-104199711D01*
X95448295Y-104198847D01*
X95442583Y-104197416D01*
X95437039Y-104195433D01*
X95431716Y-104192915D01*
X95426666Y-104189888D01*
X95421936Y-104186381D01*
X95417574Y-104182426D01*
X95413619Y-104178064D01*
X95410112Y-104173334D01*
X95407085Y-104168284D01*
X95404567Y-104162961D01*
X95402584Y-104157417D01*
X95401153Y-104151705D01*
X95400289Y-104145881D01*
X95400000Y-104140000D01*
X95400000Y-100860000D01*
X95400289Y-100854119D01*
X95401153Y-100848295D01*
X95402584Y-100842583D01*
X95404567Y-100837039D01*
X95407085Y-100831716D01*
X95410112Y-100826666D01*
X95413619Y-100821936D01*
X95417574Y-100817574D01*
X95421936Y-100813619D01*
X95426666Y-100810112D01*
X95431716Y-100807085D01*
X95437039Y-100804567D01*
X95442583Y-100802584D01*
X95448295Y-100801153D01*
X95454119Y-100800289D01*
X95460000Y-100800000D01*
X95940000Y-100800000D01*
X95945881Y-100800289D01*
G37*
G04 #@! TD.AperFunction*
G04 #@! TA.AperFunction,SMDPad,CuDef*
G36*
X92250961Y-100790245D02*
G01*
X92253806Y-100780866D01*
X92258427Y-100772221D01*
X92264645Y-100764645D01*
X92272221Y-100758427D01*
X92280866Y-100753806D01*
X92290245Y-100750961D01*
X92300000Y-100750000D01*
X94900000Y-100750000D01*
X94909755Y-100750961D01*
X94919134Y-100753806D01*
X94927779Y-100758427D01*
X94935355Y-100764645D01*
X94941573Y-100772221D01*
X94946194Y-100780866D01*
X94949039Y-100790245D01*
X94950000Y-100800000D01*
X94950000Y-104200000D01*
X94949039Y-104209755D01*
X94946194Y-104219134D01*
X94941573Y-104227779D01*
X94935355Y-104235355D01*
X94927779Y-104241573D01*
X94919134Y-104246194D01*
X94909755Y-104249039D01*
X94900000Y-104250000D01*
X93950000Y-104250000D01*
X93950000Y-105200000D01*
X93949039Y-105209755D01*
X93946194Y-105219134D01*
X93941573Y-105227779D01*
X93935355Y-105235355D01*
X93927779Y-105241573D01*
X93919134Y-105246194D01*
X93909755Y-105249039D01*
X93900000Y-105250000D01*
X92300000Y-105250000D01*
X92290245Y-105249039D01*
X92280866Y-105246194D01*
X92272221Y-105241573D01*
X92264645Y-105235355D01*
X92258427Y-105227779D01*
X92253806Y-105219134D01*
X92250961Y-105209755D01*
X92250000Y-105200000D01*
X92250000Y-100800000D01*
X92250961Y-100790245D01*
G37*
G04 #@! TD.AperFunction*
G04 #@! TA.AperFunction,SMDPad,CuDef*
G36*
X91643921Y-100750193D02*
G01*
X91647804Y-100750769D01*
X91651611Y-100751722D01*
X91655307Y-100753045D01*
X91658856Y-100754723D01*
X91662223Y-100756741D01*
X91665376Y-100759080D01*
X91668284Y-100761716D01*
X91670920Y-100764624D01*
X91673259Y-100767777D01*
X91675277Y-100771144D01*
X91676955Y-100774693D01*
X91678278Y-100778389D01*
X91679231Y-100782196D01*
X91679807Y-100786079D01*
X91680000Y-100790000D01*
X91680000Y-105210000D01*
X91679807Y-105213921D01*
X91679231Y-105217804D01*
X91678278Y-105221611D01*
X91676955Y-105225307D01*
X91675277Y-105228856D01*
X91673259Y-105232223D01*
X91670920Y-105235376D01*
X91668284Y-105238284D01*
X91665376Y-105240920D01*
X91662223Y-105243259D01*
X91658856Y-105245277D01*
X91655307Y-105246955D01*
X91651611Y-105248278D01*
X91647804Y-105249231D01*
X91643921Y-105249807D01*
X91640000Y-105250000D01*
X90920000Y-105250000D01*
X90916079Y-105249807D01*
X90912196Y-105249231D01*
X90908389Y-105248278D01*
X90904693Y-105246955D01*
X90901144Y-105245277D01*
X90897777Y-105243259D01*
X90894624Y-105240920D01*
X90891716Y-105238284D01*
X90889080Y-105235376D01*
X90886741Y-105232223D01*
X90884723Y-105228856D01*
X90883045Y-105225307D01*
X90881722Y-105221611D01*
X90880769Y-105217804D01*
X90880193Y-105213921D01*
X90880000Y-105210000D01*
X90880000Y-100790000D01*
X90880193Y-100786079D01*
X90880769Y-100782196D01*
X90881722Y-100778389D01*
X90883045Y-100774693D01*
X90884723Y-100771144D01*
X90886741Y-100767777D01*
X90889080Y-100764624D01*
X90891716Y-100761716D01*
X90894624Y-100759080D01*
X90897777Y-100756741D01*
X90901144Y-100754723D01*
X90904693Y-100753045D01*
X90908389Y-100751722D01*
X90912196Y-100750769D01*
X90916079Y-100750193D01*
X90920000Y-100750000D01*
X91640000Y-100750000D01*
X91643921Y-100750193D01*
G37*
G04 #@! TD.AperFunction*
G04 #@! TA.AperFunction,SMDPad,CuDef*
G36*
X90358901Y-104655241D02*
G01*
X90363755Y-104655961D01*
X90368514Y-104657153D01*
X90373134Y-104658806D01*
X90377570Y-104660904D01*
X90381779Y-104663427D01*
X90385720Y-104666349D01*
X90389355Y-104669645D01*
X90392651Y-104673280D01*
X90395573Y-104677221D01*
X90398096Y-104681430D01*
X90400194Y-104685866D01*
X90401847Y-104690486D01*
X90403039Y-104695245D01*
X90403759Y-104700099D01*
X90404000Y-104705000D01*
X90404000Y-105105000D01*
X90403759Y-105109901D01*
X90403039Y-105114755D01*
X90401847Y-105119514D01*
X90400194Y-105124134D01*
X90398096Y-105128570D01*
X90395573Y-105132779D01*
X90392651Y-105136720D01*
X90389355Y-105140355D01*
X90385720Y-105143651D01*
X90381779Y-105146573D01*
X90377570Y-105149096D01*
X90373134Y-105151194D01*
X90368514Y-105152847D01*
X90363755Y-105154039D01*
X90358901Y-105154759D01*
X90354000Y-105155000D01*
X89754000Y-105155000D01*
X89749099Y-105154759D01*
X89744245Y-105154039D01*
X89739486Y-105152847D01*
X89734866Y-105151194D01*
X89730430Y-105149096D01*
X89726221Y-105146573D01*
X89722280Y-105143651D01*
X89718645Y-105140355D01*
X89715349Y-105136720D01*
X89712427Y-105132779D01*
X89709904Y-105128570D01*
X89707806Y-105124134D01*
X89706153Y-105119514D01*
X89704961Y-105114755D01*
X89704241Y-105109901D01*
X89704000Y-105105000D01*
X89704000Y-104705000D01*
X89704241Y-104700099D01*
X89704961Y-104695245D01*
X89706153Y-104690486D01*
X89707806Y-104685866D01*
X89709904Y-104681430D01*
X89712427Y-104677221D01*
X89715349Y-104673280D01*
X89718645Y-104669645D01*
X89722280Y-104666349D01*
X89726221Y-104663427D01*
X89730430Y-104660904D01*
X89734866Y-104658806D01*
X89739486Y-104657153D01*
X89744245Y-104655961D01*
X89749099Y-104655241D01*
X89754000Y-104655000D01*
X90354000Y-104655000D01*
X90358901Y-104655241D01*
G37*
G04 #@! TD.AperFunction*
G04 #@! TA.AperFunction,SMDPad,CuDef*
G36*
X90358901Y-100845241D02*
G01*
X90363755Y-100845961D01*
X90368514Y-100847153D01*
X90373134Y-100848806D01*
X90377570Y-100850904D01*
X90381779Y-100853427D01*
X90385720Y-100856349D01*
X90389355Y-100859645D01*
X90392651Y-100863280D01*
X90395573Y-100867221D01*
X90398096Y-100871430D01*
X90400194Y-100875866D01*
X90401847Y-100880486D01*
X90403039Y-100885245D01*
X90403759Y-100890099D01*
X90404000Y-100895000D01*
X90404000Y-101295000D01*
X90403759Y-101299901D01*
X90403039Y-101304755D01*
X90401847Y-101309514D01*
X90400194Y-101314134D01*
X90398096Y-101318570D01*
X90395573Y-101322779D01*
X90392651Y-101326720D01*
X90389355Y-101330355D01*
X90385720Y-101333651D01*
X90381779Y-101336573D01*
X90377570Y-101339096D01*
X90373134Y-101341194D01*
X90368514Y-101342847D01*
X90363755Y-101344039D01*
X90358901Y-101344759D01*
X90354000Y-101345000D01*
X89754000Y-101345000D01*
X89749099Y-101344759D01*
X89744245Y-101344039D01*
X89739486Y-101342847D01*
X89734866Y-101341194D01*
X89730430Y-101339096D01*
X89726221Y-101336573D01*
X89722280Y-101333651D01*
X89718645Y-101330355D01*
X89715349Y-101326720D01*
X89712427Y-101322779D01*
X89709904Y-101318570D01*
X89707806Y-101314134D01*
X89706153Y-101309514D01*
X89704961Y-101304755D01*
X89704241Y-101299901D01*
X89704000Y-101295000D01*
X89704000Y-100895000D01*
X89704241Y-100890099D01*
X89704961Y-100885245D01*
X89706153Y-100880486D01*
X89707806Y-100875866D01*
X89709904Y-100871430D01*
X89712427Y-100867221D01*
X89715349Y-100863280D01*
X89718645Y-100859645D01*
X89722280Y-100856349D01*
X89726221Y-100853427D01*
X89730430Y-100850904D01*
X89734866Y-100848806D01*
X89739486Y-100847153D01*
X89744245Y-100845961D01*
X89749099Y-100845241D01*
X89754000Y-100845000D01*
X90354000Y-100845000D01*
X90358901Y-100845241D01*
G37*
G04 #@! TD.AperFunction*
G04 #@! TA.AperFunction,SMDPad,CuDef*
G36*
X90358901Y-103385241D02*
G01*
X90363755Y-103385961D01*
X90368514Y-103387153D01*
X90373134Y-103388806D01*
X90377570Y-103390904D01*
X90381779Y-103393427D01*
X90385720Y-103396349D01*
X90389355Y-103399645D01*
X90392651Y-103403280D01*
X90395573Y-103407221D01*
X90398096Y-103411430D01*
X90400194Y-103415866D01*
X90401847Y-103420486D01*
X90403039Y-103425245D01*
X90403759Y-103430099D01*
X90404000Y-103435000D01*
X90404000Y-103835000D01*
X90403759Y-103839901D01*
X90403039Y-103844755D01*
X90401847Y-103849514D01*
X90400194Y-103854134D01*
X90398096Y-103858570D01*
X90395573Y-103862779D01*
X90392651Y-103866720D01*
X90389355Y-103870355D01*
X90385720Y-103873651D01*
X90381779Y-103876573D01*
X90377570Y-103879096D01*
X90373134Y-103881194D01*
X90368514Y-103882847D01*
X90363755Y-103884039D01*
X90358901Y-103884759D01*
X90354000Y-103885000D01*
X89754000Y-103885000D01*
X89749099Y-103884759D01*
X89744245Y-103884039D01*
X89739486Y-103882847D01*
X89734866Y-103881194D01*
X89730430Y-103879096D01*
X89726221Y-103876573D01*
X89722280Y-103873651D01*
X89718645Y-103870355D01*
X89715349Y-103866720D01*
X89712427Y-103862779D01*
X89709904Y-103858570D01*
X89707806Y-103854134D01*
X89706153Y-103849514D01*
X89704961Y-103844755D01*
X89704241Y-103839901D01*
X89704000Y-103835000D01*
X89704000Y-103435000D01*
X89704241Y-103430099D01*
X89704961Y-103425245D01*
X89706153Y-103420486D01*
X89707806Y-103415866D01*
X89709904Y-103411430D01*
X89712427Y-103407221D01*
X89715349Y-103403280D01*
X89718645Y-103399645D01*
X89722280Y-103396349D01*
X89726221Y-103393427D01*
X89730430Y-103390904D01*
X89734866Y-103388806D01*
X89739486Y-103387153D01*
X89744245Y-103385961D01*
X89749099Y-103385241D01*
X89754000Y-103385000D01*
X90354000Y-103385000D01*
X90358901Y-103385241D01*
G37*
G04 #@! TD.AperFunction*
G04 #@! TA.AperFunction,SMDPad,CuDef*
G36*
X90358901Y-102115241D02*
G01*
X90363755Y-102115961D01*
X90368514Y-102117153D01*
X90373134Y-102118806D01*
X90377570Y-102120904D01*
X90381779Y-102123427D01*
X90385720Y-102126349D01*
X90389355Y-102129645D01*
X90392651Y-102133280D01*
X90395573Y-102137221D01*
X90398096Y-102141430D01*
X90400194Y-102145866D01*
X90401847Y-102150486D01*
X90403039Y-102155245D01*
X90403759Y-102160099D01*
X90404000Y-102165000D01*
X90404000Y-102565000D01*
X90403759Y-102569901D01*
X90403039Y-102574755D01*
X90401847Y-102579514D01*
X90400194Y-102584134D01*
X90398096Y-102588570D01*
X90395573Y-102592779D01*
X90392651Y-102596720D01*
X90389355Y-102600355D01*
X90385720Y-102603651D01*
X90381779Y-102606573D01*
X90377570Y-102609096D01*
X90373134Y-102611194D01*
X90368514Y-102612847D01*
X90363755Y-102614039D01*
X90358901Y-102614759D01*
X90354000Y-102615000D01*
X89754000Y-102615000D01*
X89749099Y-102614759D01*
X89744245Y-102614039D01*
X89739486Y-102612847D01*
X89734866Y-102611194D01*
X89730430Y-102609096D01*
X89726221Y-102606573D01*
X89722280Y-102603651D01*
X89718645Y-102600355D01*
X89715349Y-102596720D01*
X89712427Y-102592779D01*
X89709904Y-102588570D01*
X89707806Y-102584134D01*
X89706153Y-102579514D01*
X89704961Y-102574755D01*
X89704241Y-102569901D01*
X89704000Y-102565000D01*
X89704000Y-102165000D01*
X89704241Y-102160099D01*
X89704961Y-102155245D01*
X89706153Y-102150486D01*
X89707806Y-102145866D01*
X89709904Y-102141430D01*
X89712427Y-102137221D01*
X89715349Y-102133280D01*
X89718645Y-102129645D01*
X89722280Y-102126349D01*
X89726221Y-102123427D01*
X89730430Y-102120904D01*
X89734866Y-102118806D01*
X89739486Y-102117153D01*
X89744245Y-102115961D01*
X89749099Y-102115241D01*
X89754000Y-102115000D01*
X90354000Y-102115000D01*
X90358901Y-102115241D01*
G37*
G04 #@! TD.AperFunction*
G04 #@! TA.AperFunction,SMDPad,CuDef*
G36*
X90358901Y-111090241D02*
G01*
X90363755Y-111090961D01*
X90368514Y-111092153D01*
X90373134Y-111093806D01*
X90377570Y-111095904D01*
X90381779Y-111098427D01*
X90385720Y-111101349D01*
X90389355Y-111104645D01*
X90392651Y-111108280D01*
X90395573Y-111112221D01*
X90398096Y-111116430D01*
X90400194Y-111120866D01*
X90401847Y-111125486D01*
X90403039Y-111130245D01*
X90403759Y-111135099D01*
X90404000Y-111140000D01*
X90404000Y-111540000D01*
X90403759Y-111544901D01*
X90403039Y-111549755D01*
X90401847Y-111554514D01*
X90400194Y-111559134D01*
X90398096Y-111563570D01*
X90395573Y-111567779D01*
X90392651Y-111571720D01*
X90389355Y-111575355D01*
X90385720Y-111578651D01*
X90381779Y-111581573D01*
X90377570Y-111584096D01*
X90373134Y-111586194D01*
X90368514Y-111587847D01*
X90363755Y-111589039D01*
X90358901Y-111589759D01*
X90354000Y-111590000D01*
X89754000Y-111590000D01*
X89749099Y-111589759D01*
X89744245Y-111589039D01*
X89739486Y-111587847D01*
X89734866Y-111586194D01*
X89730430Y-111584096D01*
X89726221Y-111581573D01*
X89722280Y-111578651D01*
X89718645Y-111575355D01*
X89715349Y-111571720D01*
X89712427Y-111567779D01*
X89709904Y-111563570D01*
X89707806Y-111559134D01*
X89706153Y-111554514D01*
X89704961Y-111549755D01*
X89704241Y-111544901D01*
X89704000Y-111540000D01*
X89704000Y-111140000D01*
X89704241Y-111135099D01*
X89704961Y-111130245D01*
X89706153Y-111125486D01*
X89707806Y-111120866D01*
X89709904Y-111116430D01*
X89712427Y-111112221D01*
X89715349Y-111108280D01*
X89718645Y-111104645D01*
X89722280Y-111101349D01*
X89726221Y-111098427D01*
X89730430Y-111095904D01*
X89734866Y-111093806D01*
X89739486Y-111092153D01*
X89744245Y-111090961D01*
X89749099Y-111090241D01*
X89754000Y-111090000D01*
X90354000Y-111090000D01*
X90358901Y-111090241D01*
G37*
G04 #@! TD.AperFunction*
G04 #@! TA.AperFunction,SMDPad,CuDef*
G36*
X90358901Y-112360241D02*
G01*
X90363755Y-112360961D01*
X90368514Y-112362153D01*
X90373134Y-112363806D01*
X90377570Y-112365904D01*
X90381779Y-112368427D01*
X90385720Y-112371349D01*
X90389355Y-112374645D01*
X90392651Y-112378280D01*
X90395573Y-112382221D01*
X90398096Y-112386430D01*
X90400194Y-112390866D01*
X90401847Y-112395486D01*
X90403039Y-112400245D01*
X90403759Y-112405099D01*
X90404000Y-112410000D01*
X90404000Y-112810000D01*
X90403759Y-112814901D01*
X90403039Y-112819755D01*
X90401847Y-112824514D01*
X90400194Y-112829134D01*
X90398096Y-112833570D01*
X90395573Y-112837779D01*
X90392651Y-112841720D01*
X90389355Y-112845355D01*
X90385720Y-112848651D01*
X90381779Y-112851573D01*
X90377570Y-112854096D01*
X90373134Y-112856194D01*
X90368514Y-112857847D01*
X90363755Y-112859039D01*
X90358901Y-112859759D01*
X90354000Y-112860000D01*
X89754000Y-112860000D01*
X89749099Y-112859759D01*
X89744245Y-112859039D01*
X89739486Y-112857847D01*
X89734866Y-112856194D01*
X89730430Y-112854096D01*
X89726221Y-112851573D01*
X89722280Y-112848651D01*
X89718645Y-112845355D01*
X89715349Y-112841720D01*
X89712427Y-112837779D01*
X89709904Y-112833570D01*
X89707806Y-112829134D01*
X89706153Y-112824514D01*
X89704961Y-112819755D01*
X89704241Y-112814901D01*
X89704000Y-112810000D01*
X89704000Y-112410000D01*
X89704241Y-112405099D01*
X89704961Y-112400245D01*
X89706153Y-112395486D01*
X89707806Y-112390866D01*
X89709904Y-112386430D01*
X89712427Y-112382221D01*
X89715349Y-112378280D01*
X89718645Y-112374645D01*
X89722280Y-112371349D01*
X89726221Y-112368427D01*
X89730430Y-112365904D01*
X89734866Y-112363806D01*
X89739486Y-112362153D01*
X89744245Y-112360961D01*
X89749099Y-112360241D01*
X89754000Y-112360000D01*
X90354000Y-112360000D01*
X90358901Y-112360241D01*
G37*
G04 #@! TD.AperFunction*
G04 #@! TA.AperFunction,SMDPad,CuDef*
G36*
X90358901Y-109820241D02*
G01*
X90363755Y-109820961D01*
X90368514Y-109822153D01*
X90373134Y-109823806D01*
X90377570Y-109825904D01*
X90381779Y-109828427D01*
X90385720Y-109831349D01*
X90389355Y-109834645D01*
X90392651Y-109838280D01*
X90395573Y-109842221D01*
X90398096Y-109846430D01*
X90400194Y-109850866D01*
X90401847Y-109855486D01*
X90403039Y-109860245D01*
X90403759Y-109865099D01*
X90404000Y-109870000D01*
X90404000Y-110270000D01*
X90403759Y-110274901D01*
X90403039Y-110279755D01*
X90401847Y-110284514D01*
X90400194Y-110289134D01*
X90398096Y-110293570D01*
X90395573Y-110297779D01*
X90392651Y-110301720D01*
X90389355Y-110305355D01*
X90385720Y-110308651D01*
X90381779Y-110311573D01*
X90377570Y-110314096D01*
X90373134Y-110316194D01*
X90368514Y-110317847D01*
X90363755Y-110319039D01*
X90358901Y-110319759D01*
X90354000Y-110320000D01*
X89754000Y-110320000D01*
X89749099Y-110319759D01*
X89744245Y-110319039D01*
X89739486Y-110317847D01*
X89734866Y-110316194D01*
X89730430Y-110314096D01*
X89726221Y-110311573D01*
X89722280Y-110308651D01*
X89718645Y-110305355D01*
X89715349Y-110301720D01*
X89712427Y-110297779D01*
X89709904Y-110293570D01*
X89707806Y-110289134D01*
X89706153Y-110284514D01*
X89704961Y-110279755D01*
X89704241Y-110274901D01*
X89704000Y-110270000D01*
X89704000Y-109870000D01*
X89704241Y-109865099D01*
X89704961Y-109860245D01*
X89706153Y-109855486D01*
X89707806Y-109850866D01*
X89709904Y-109846430D01*
X89712427Y-109842221D01*
X89715349Y-109838280D01*
X89718645Y-109834645D01*
X89722280Y-109831349D01*
X89726221Y-109828427D01*
X89730430Y-109825904D01*
X89734866Y-109823806D01*
X89739486Y-109822153D01*
X89744245Y-109820961D01*
X89749099Y-109820241D01*
X89754000Y-109820000D01*
X90354000Y-109820000D01*
X90358901Y-109820241D01*
G37*
G04 #@! TD.AperFunction*
G04 #@! TA.AperFunction,SMDPad,CuDef*
G36*
X90358901Y-113630241D02*
G01*
X90363755Y-113630961D01*
X90368514Y-113632153D01*
X90373134Y-113633806D01*
X90377570Y-113635904D01*
X90381779Y-113638427D01*
X90385720Y-113641349D01*
X90389355Y-113644645D01*
X90392651Y-113648280D01*
X90395573Y-113652221D01*
X90398096Y-113656430D01*
X90400194Y-113660866D01*
X90401847Y-113665486D01*
X90403039Y-113670245D01*
X90403759Y-113675099D01*
X90404000Y-113680000D01*
X90404000Y-114080000D01*
X90403759Y-114084901D01*
X90403039Y-114089755D01*
X90401847Y-114094514D01*
X90400194Y-114099134D01*
X90398096Y-114103570D01*
X90395573Y-114107779D01*
X90392651Y-114111720D01*
X90389355Y-114115355D01*
X90385720Y-114118651D01*
X90381779Y-114121573D01*
X90377570Y-114124096D01*
X90373134Y-114126194D01*
X90368514Y-114127847D01*
X90363755Y-114129039D01*
X90358901Y-114129759D01*
X90354000Y-114130000D01*
X89754000Y-114130000D01*
X89749099Y-114129759D01*
X89744245Y-114129039D01*
X89739486Y-114127847D01*
X89734866Y-114126194D01*
X89730430Y-114124096D01*
X89726221Y-114121573D01*
X89722280Y-114118651D01*
X89718645Y-114115355D01*
X89715349Y-114111720D01*
X89712427Y-114107779D01*
X89709904Y-114103570D01*
X89707806Y-114099134D01*
X89706153Y-114094514D01*
X89704961Y-114089755D01*
X89704241Y-114084901D01*
X89704000Y-114080000D01*
X89704000Y-113680000D01*
X89704241Y-113675099D01*
X89704961Y-113670245D01*
X89706153Y-113665486D01*
X89707806Y-113660866D01*
X89709904Y-113656430D01*
X89712427Y-113652221D01*
X89715349Y-113648280D01*
X89718645Y-113644645D01*
X89722280Y-113641349D01*
X89726221Y-113638427D01*
X89730430Y-113635904D01*
X89734866Y-113633806D01*
X89739486Y-113632153D01*
X89744245Y-113630961D01*
X89749099Y-113630241D01*
X89754000Y-113630000D01*
X90354000Y-113630000D01*
X90358901Y-113630241D01*
G37*
G04 #@! TD.AperFunction*
G04 #@! TA.AperFunction,SMDPad,CuDef*
G36*
X91643921Y-109725193D02*
G01*
X91647804Y-109725769D01*
X91651611Y-109726722D01*
X91655307Y-109728045D01*
X91658856Y-109729723D01*
X91662223Y-109731741D01*
X91665376Y-109734080D01*
X91668284Y-109736716D01*
X91670920Y-109739624D01*
X91673259Y-109742777D01*
X91675277Y-109746144D01*
X91676955Y-109749693D01*
X91678278Y-109753389D01*
X91679231Y-109757196D01*
X91679807Y-109761079D01*
X91680000Y-109765000D01*
X91680000Y-114185000D01*
X91679807Y-114188921D01*
X91679231Y-114192804D01*
X91678278Y-114196611D01*
X91676955Y-114200307D01*
X91675277Y-114203856D01*
X91673259Y-114207223D01*
X91670920Y-114210376D01*
X91668284Y-114213284D01*
X91665376Y-114215920D01*
X91662223Y-114218259D01*
X91658856Y-114220277D01*
X91655307Y-114221955D01*
X91651611Y-114223278D01*
X91647804Y-114224231D01*
X91643921Y-114224807D01*
X91640000Y-114225000D01*
X90920000Y-114225000D01*
X90916079Y-114224807D01*
X90912196Y-114224231D01*
X90908389Y-114223278D01*
X90904693Y-114221955D01*
X90901144Y-114220277D01*
X90897777Y-114218259D01*
X90894624Y-114215920D01*
X90891716Y-114213284D01*
X90889080Y-114210376D01*
X90886741Y-114207223D01*
X90884723Y-114203856D01*
X90883045Y-114200307D01*
X90881722Y-114196611D01*
X90880769Y-114192804D01*
X90880193Y-114188921D01*
X90880000Y-114185000D01*
X90880000Y-109765000D01*
X90880193Y-109761079D01*
X90880769Y-109757196D01*
X90881722Y-109753389D01*
X90883045Y-109749693D01*
X90884723Y-109746144D01*
X90886741Y-109742777D01*
X90889080Y-109739624D01*
X90891716Y-109736716D01*
X90894624Y-109734080D01*
X90897777Y-109731741D01*
X90901144Y-109729723D01*
X90904693Y-109728045D01*
X90908389Y-109726722D01*
X90912196Y-109725769D01*
X90916079Y-109725193D01*
X90920000Y-109725000D01*
X91640000Y-109725000D01*
X91643921Y-109725193D01*
G37*
G04 #@! TD.AperFunction*
G04 #@! TA.AperFunction,SMDPad,CuDef*
G36*
X92250961Y-109765245D02*
G01*
X92253806Y-109755866D01*
X92258427Y-109747221D01*
X92264645Y-109739645D01*
X92272221Y-109733427D01*
X92280866Y-109728806D01*
X92290245Y-109725961D01*
X92300000Y-109725000D01*
X94900000Y-109725000D01*
X94909755Y-109725961D01*
X94919134Y-109728806D01*
X94927779Y-109733427D01*
X94935355Y-109739645D01*
X94941573Y-109747221D01*
X94946194Y-109755866D01*
X94949039Y-109765245D01*
X94950000Y-109775000D01*
X94950000Y-113175000D01*
X94949039Y-113184755D01*
X94946194Y-113194134D01*
X94941573Y-113202779D01*
X94935355Y-113210355D01*
X94927779Y-113216573D01*
X94919134Y-113221194D01*
X94909755Y-113224039D01*
X94900000Y-113225000D01*
X93950000Y-113225000D01*
X93950000Y-114175000D01*
X93949039Y-114184755D01*
X93946194Y-114194134D01*
X93941573Y-114202779D01*
X93935355Y-114210355D01*
X93927779Y-114216573D01*
X93919134Y-114221194D01*
X93909755Y-114224039D01*
X93900000Y-114225000D01*
X92300000Y-114225000D01*
X92290245Y-114224039D01*
X92280866Y-114221194D01*
X92272221Y-114216573D01*
X92264645Y-114210355D01*
X92258427Y-114202779D01*
X92253806Y-114194134D01*
X92250961Y-114184755D01*
X92250000Y-114175000D01*
X92250000Y-109775000D01*
X92250961Y-109765245D01*
G37*
G04 #@! TD.AperFunction*
G04 #@! TA.AperFunction,SMDPad,CuDef*
G36*
X95945881Y-109775289D02*
G01*
X95951705Y-109776153D01*
X95957417Y-109777584D01*
X95962961Y-109779567D01*
X95968284Y-109782085D01*
X95973334Y-109785112D01*
X95978064Y-109788619D01*
X95982426Y-109792574D01*
X95986381Y-109796936D01*
X95989888Y-109801666D01*
X95992915Y-109806716D01*
X95995433Y-109812039D01*
X95997416Y-109817583D01*
X95998847Y-109823295D01*
X95999711Y-109829119D01*
X96000000Y-109835000D01*
X96000000Y-113115000D01*
X95999711Y-113120881D01*
X95998847Y-113126705D01*
X95997416Y-113132417D01*
X95995433Y-113137961D01*
X95992915Y-113143284D01*
X95989888Y-113148334D01*
X95986381Y-113153064D01*
X95982426Y-113157426D01*
X95978064Y-113161381D01*
X95973334Y-113164888D01*
X95968284Y-113167915D01*
X95962961Y-113170433D01*
X95957417Y-113172416D01*
X95951705Y-113173847D01*
X95945881Y-113174711D01*
X95940000Y-113175000D01*
X95460000Y-113175000D01*
X95454119Y-113174711D01*
X95448295Y-113173847D01*
X95442583Y-113172416D01*
X95437039Y-113170433D01*
X95431716Y-113167915D01*
X95426666Y-113164888D01*
X95421936Y-113161381D01*
X95417574Y-113157426D01*
X95413619Y-113153064D01*
X95410112Y-113148334D01*
X95407085Y-113143284D01*
X95404567Y-113137961D01*
X95402584Y-113132417D01*
X95401153Y-113126705D01*
X95400289Y-113120881D01*
X95400000Y-113115000D01*
X95400000Y-109835000D01*
X95400289Y-109829119D01*
X95401153Y-109823295D01*
X95402584Y-109817583D01*
X95404567Y-109812039D01*
X95407085Y-109806716D01*
X95410112Y-109801666D01*
X95413619Y-109796936D01*
X95417574Y-109792574D01*
X95421936Y-109788619D01*
X95426666Y-109785112D01*
X95431716Y-109782085D01*
X95437039Y-109779567D01*
X95442583Y-109777584D01*
X95448295Y-109776153D01*
X95454119Y-109775289D01*
X95460000Y-109775000D01*
X95940000Y-109775000D01*
X95945881Y-109775289D01*
G37*
G04 #@! TD.AperFunction*
G04 #@! TA.AperFunction,SMDPad,CuDef*
G36*
X95954901Y-113630241D02*
G01*
X95959755Y-113630961D01*
X95964514Y-113632153D01*
X95969134Y-113633806D01*
X95973570Y-113635904D01*
X95977779Y-113638427D01*
X95981720Y-113641349D01*
X95985355Y-113644645D01*
X95988651Y-113648280D01*
X95991573Y-113652221D01*
X95994096Y-113656430D01*
X95996194Y-113660866D01*
X95997847Y-113665486D01*
X95999039Y-113670245D01*
X95999759Y-113675099D01*
X96000000Y-113680000D01*
X96000000Y-114080000D01*
X95999759Y-114084901D01*
X95999039Y-114089755D01*
X95997847Y-114094514D01*
X95996194Y-114099134D01*
X95994096Y-114103570D01*
X95991573Y-114107779D01*
X95988651Y-114111720D01*
X95985355Y-114115355D01*
X95981720Y-114118651D01*
X95977779Y-114121573D01*
X95973570Y-114124096D01*
X95969134Y-114126194D01*
X95964514Y-114127847D01*
X95959755Y-114129039D01*
X95954901Y-114129759D01*
X95950000Y-114130000D01*
X94550000Y-114130000D01*
X94545099Y-114129759D01*
X94540245Y-114129039D01*
X94535486Y-114127847D01*
X94530866Y-114126194D01*
X94526430Y-114124096D01*
X94522221Y-114121573D01*
X94518280Y-114118651D01*
X94514645Y-114115355D01*
X94511349Y-114111720D01*
X94508427Y-114107779D01*
X94505904Y-114103570D01*
X94503806Y-114099134D01*
X94502153Y-114094514D01*
X94500961Y-114089755D01*
X94500241Y-114084901D01*
X94500000Y-114080000D01*
X94500000Y-113680000D01*
X94500241Y-113675099D01*
X94500961Y-113670245D01*
X94502153Y-113665486D01*
X94503806Y-113660866D01*
X94505904Y-113656430D01*
X94508427Y-113652221D01*
X94511349Y-113648280D01*
X94514645Y-113644645D01*
X94518280Y-113641349D01*
X94522221Y-113638427D01*
X94526430Y-113635904D01*
X94530866Y-113633806D01*
X94535486Y-113632153D01*
X94540245Y-113630961D01*
X94545099Y-113630241D01*
X94550000Y-113630000D01*
X95950000Y-113630000D01*
X95954901Y-113630241D01*
G37*
G04 #@! TD.AperFunction*
G04 #@! TA.AperFunction,SMDPad,CuDef*
G36*
X90358901Y-93115241D02*
G01*
X90363755Y-93115961D01*
X90368514Y-93117153D01*
X90373134Y-93118806D01*
X90377570Y-93120904D01*
X90381779Y-93123427D01*
X90385720Y-93126349D01*
X90389355Y-93129645D01*
X90392651Y-93133280D01*
X90395573Y-93137221D01*
X90398096Y-93141430D01*
X90400194Y-93145866D01*
X90401847Y-93150486D01*
X90403039Y-93155245D01*
X90403759Y-93160099D01*
X90404000Y-93165000D01*
X90404000Y-93565000D01*
X90403759Y-93569901D01*
X90403039Y-93574755D01*
X90401847Y-93579514D01*
X90400194Y-93584134D01*
X90398096Y-93588570D01*
X90395573Y-93592779D01*
X90392651Y-93596720D01*
X90389355Y-93600355D01*
X90385720Y-93603651D01*
X90381779Y-93606573D01*
X90377570Y-93609096D01*
X90373134Y-93611194D01*
X90368514Y-93612847D01*
X90363755Y-93614039D01*
X90358901Y-93614759D01*
X90354000Y-93615000D01*
X89754000Y-93615000D01*
X89749099Y-93614759D01*
X89744245Y-93614039D01*
X89739486Y-93612847D01*
X89734866Y-93611194D01*
X89730430Y-93609096D01*
X89726221Y-93606573D01*
X89722280Y-93603651D01*
X89718645Y-93600355D01*
X89715349Y-93596720D01*
X89712427Y-93592779D01*
X89709904Y-93588570D01*
X89707806Y-93584134D01*
X89706153Y-93579514D01*
X89704961Y-93574755D01*
X89704241Y-93569901D01*
X89704000Y-93565000D01*
X89704000Y-93165000D01*
X89704241Y-93160099D01*
X89704961Y-93155245D01*
X89706153Y-93150486D01*
X89707806Y-93145866D01*
X89709904Y-93141430D01*
X89712427Y-93137221D01*
X89715349Y-93133280D01*
X89718645Y-93129645D01*
X89722280Y-93126349D01*
X89726221Y-93123427D01*
X89730430Y-93120904D01*
X89734866Y-93118806D01*
X89739486Y-93117153D01*
X89744245Y-93115961D01*
X89749099Y-93115241D01*
X89754000Y-93115000D01*
X90354000Y-93115000D01*
X90358901Y-93115241D01*
G37*
G04 #@! TD.AperFunction*
G04 #@! TA.AperFunction,SMDPad,CuDef*
G36*
X90358901Y-94385241D02*
G01*
X90363755Y-94385961D01*
X90368514Y-94387153D01*
X90373134Y-94388806D01*
X90377570Y-94390904D01*
X90381779Y-94393427D01*
X90385720Y-94396349D01*
X90389355Y-94399645D01*
X90392651Y-94403280D01*
X90395573Y-94407221D01*
X90398096Y-94411430D01*
X90400194Y-94415866D01*
X90401847Y-94420486D01*
X90403039Y-94425245D01*
X90403759Y-94430099D01*
X90404000Y-94435000D01*
X90404000Y-94835000D01*
X90403759Y-94839901D01*
X90403039Y-94844755D01*
X90401847Y-94849514D01*
X90400194Y-94854134D01*
X90398096Y-94858570D01*
X90395573Y-94862779D01*
X90392651Y-94866720D01*
X90389355Y-94870355D01*
X90385720Y-94873651D01*
X90381779Y-94876573D01*
X90377570Y-94879096D01*
X90373134Y-94881194D01*
X90368514Y-94882847D01*
X90363755Y-94884039D01*
X90358901Y-94884759D01*
X90354000Y-94885000D01*
X89754000Y-94885000D01*
X89749099Y-94884759D01*
X89744245Y-94884039D01*
X89739486Y-94882847D01*
X89734866Y-94881194D01*
X89730430Y-94879096D01*
X89726221Y-94876573D01*
X89722280Y-94873651D01*
X89718645Y-94870355D01*
X89715349Y-94866720D01*
X89712427Y-94862779D01*
X89709904Y-94858570D01*
X89707806Y-94854134D01*
X89706153Y-94849514D01*
X89704961Y-94844755D01*
X89704241Y-94839901D01*
X89704000Y-94835000D01*
X89704000Y-94435000D01*
X89704241Y-94430099D01*
X89704961Y-94425245D01*
X89706153Y-94420486D01*
X89707806Y-94415866D01*
X89709904Y-94411430D01*
X89712427Y-94407221D01*
X89715349Y-94403280D01*
X89718645Y-94399645D01*
X89722280Y-94396349D01*
X89726221Y-94393427D01*
X89730430Y-94390904D01*
X89734866Y-94388806D01*
X89739486Y-94387153D01*
X89744245Y-94385961D01*
X89749099Y-94385241D01*
X89754000Y-94385000D01*
X90354000Y-94385000D01*
X90358901Y-94385241D01*
G37*
G04 #@! TD.AperFunction*
G04 #@! TA.AperFunction,SMDPad,CuDef*
G36*
X90358901Y-91845241D02*
G01*
X90363755Y-91845961D01*
X90368514Y-91847153D01*
X90373134Y-91848806D01*
X90377570Y-91850904D01*
X90381779Y-91853427D01*
X90385720Y-91856349D01*
X90389355Y-91859645D01*
X90392651Y-91863280D01*
X90395573Y-91867221D01*
X90398096Y-91871430D01*
X90400194Y-91875866D01*
X90401847Y-91880486D01*
X90403039Y-91885245D01*
X90403759Y-91890099D01*
X90404000Y-91895000D01*
X90404000Y-92295000D01*
X90403759Y-92299901D01*
X90403039Y-92304755D01*
X90401847Y-92309514D01*
X90400194Y-92314134D01*
X90398096Y-92318570D01*
X90395573Y-92322779D01*
X90392651Y-92326720D01*
X90389355Y-92330355D01*
X90385720Y-92333651D01*
X90381779Y-92336573D01*
X90377570Y-92339096D01*
X90373134Y-92341194D01*
X90368514Y-92342847D01*
X90363755Y-92344039D01*
X90358901Y-92344759D01*
X90354000Y-92345000D01*
X89754000Y-92345000D01*
X89749099Y-92344759D01*
X89744245Y-92344039D01*
X89739486Y-92342847D01*
X89734866Y-92341194D01*
X89730430Y-92339096D01*
X89726221Y-92336573D01*
X89722280Y-92333651D01*
X89718645Y-92330355D01*
X89715349Y-92326720D01*
X89712427Y-92322779D01*
X89709904Y-92318570D01*
X89707806Y-92314134D01*
X89706153Y-92309514D01*
X89704961Y-92304755D01*
X89704241Y-92299901D01*
X89704000Y-92295000D01*
X89704000Y-91895000D01*
X89704241Y-91890099D01*
X89704961Y-91885245D01*
X89706153Y-91880486D01*
X89707806Y-91875866D01*
X89709904Y-91871430D01*
X89712427Y-91867221D01*
X89715349Y-91863280D01*
X89718645Y-91859645D01*
X89722280Y-91856349D01*
X89726221Y-91853427D01*
X89730430Y-91850904D01*
X89734866Y-91848806D01*
X89739486Y-91847153D01*
X89744245Y-91845961D01*
X89749099Y-91845241D01*
X89754000Y-91845000D01*
X90354000Y-91845000D01*
X90358901Y-91845241D01*
G37*
G04 #@! TD.AperFunction*
G04 #@! TA.AperFunction,SMDPad,CuDef*
G36*
X90358901Y-95655241D02*
G01*
X90363755Y-95655961D01*
X90368514Y-95657153D01*
X90373134Y-95658806D01*
X90377570Y-95660904D01*
X90381779Y-95663427D01*
X90385720Y-95666349D01*
X90389355Y-95669645D01*
X90392651Y-95673280D01*
X90395573Y-95677221D01*
X90398096Y-95681430D01*
X90400194Y-95685866D01*
X90401847Y-95690486D01*
X90403039Y-95695245D01*
X90403759Y-95700099D01*
X90404000Y-95705000D01*
X90404000Y-96105000D01*
X90403759Y-96109901D01*
X90403039Y-96114755D01*
X90401847Y-96119514D01*
X90400194Y-96124134D01*
X90398096Y-96128570D01*
X90395573Y-96132779D01*
X90392651Y-96136720D01*
X90389355Y-96140355D01*
X90385720Y-96143651D01*
X90381779Y-96146573D01*
X90377570Y-96149096D01*
X90373134Y-96151194D01*
X90368514Y-96152847D01*
X90363755Y-96154039D01*
X90358901Y-96154759D01*
X90354000Y-96155000D01*
X89754000Y-96155000D01*
X89749099Y-96154759D01*
X89744245Y-96154039D01*
X89739486Y-96152847D01*
X89734866Y-96151194D01*
X89730430Y-96149096D01*
X89726221Y-96146573D01*
X89722280Y-96143651D01*
X89718645Y-96140355D01*
X89715349Y-96136720D01*
X89712427Y-96132779D01*
X89709904Y-96128570D01*
X89707806Y-96124134D01*
X89706153Y-96119514D01*
X89704961Y-96114755D01*
X89704241Y-96109901D01*
X89704000Y-96105000D01*
X89704000Y-95705000D01*
X89704241Y-95700099D01*
X89704961Y-95695245D01*
X89706153Y-95690486D01*
X89707806Y-95685866D01*
X89709904Y-95681430D01*
X89712427Y-95677221D01*
X89715349Y-95673280D01*
X89718645Y-95669645D01*
X89722280Y-95666349D01*
X89726221Y-95663427D01*
X89730430Y-95660904D01*
X89734866Y-95658806D01*
X89739486Y-95657153D01*
X89744245Y-95655961D01*
X89749099Y-95655241D01*
X89754000Y-95655000D01*
X90354000Y-95655000D01*
X90358901Y-95655241D01*
G37*
G04 #@! TD.AperFunction*
G04 #@! TA.AperFunction,SMDPad,CuDef*
G36*
X91643921Y-91750193D02*
G01*
X91647804Y-91750769D01*
X91651611Y-91751722D01*
X91655307Y-91753045D01*
X91658856Y-91754723D01*
X91662223Y-91756741D01*
X91665376Y-91759080D01*
X91668284Y-91761716D01*
X91670920Y-91764624D01*
X91673259Y-91767777D01*
X91675277Y-91771144D01*
X91676955Y-91774693D01*
X91678278Y-91778389D01*
X91679231Y-91782196D01*
X91679807Y-91786079D01*
X91680000Y-91790000D01*
X91680000Y-96210000D01*
X91679807Y-96213921D01*
X91679231Y-96217804D01*
X91678278Y-96221611D01*
X91676955Y-96225307D01*
X91675277Y-96228856D01*
X91673259Y-96232223D01*
X91670920Y-96235376D01*
X91668284Y-96238284D01*
X91665376Y-96240920D01*
X91662223Y-96243259D01*
X91658856Y-96245277D01*
X91655307Y-96246955D01*
X91651611Y-96248278D01*
X91647804Y-96249231D01*
X91643921Y-96249807D01*
X91640000Y-96250000D01*
X90920000Y-96250000D01*
X90916079Y-96249807D01*
X90912196Y-96249231D01*
X90908389Y-96248278D01*
X90904693Y-96246955D01*
X90901144Y-96245277D01*
X90897777Y-96243259D01*
X90894624Y-96240920D01*
X90891716Y-96238284D01*
X90889080Y-96235376D01*
X90886741Y-96232223D01*
X90884723Y-96228856D01*
X90883045Y-96225307D01*
X90881722Y-96221611D01*
X90880769Y-96217804D01*
X90880193Y-96213921D01*
X90880000Y-96210000D01*
X90880000Y-91790000D01*
X90880193Y-91786079D01*
X90880769Y-91782196D01*
X90881722Y-91778389D01*
X90883045Y-91774693D01*
X90884723Y-91771144D01*
X90886741Y-91767777D01*
X90889080Y-91764624D01*
X90891716Y-91761716D01*
X90894624Y-91759080D01*
X90897777Y-91756741D01*
X90901144Y-91754723D01*
X90904693Y-91753045D01*
X90908389Y-91751722D01*
X90912196Y-91750769D01*
X90916079Y-91750193D01*
X90920000Y-91750000D01*
X91640000Y-91750000D01*
X91643921Y-91750193D01*
G37*
G04 #@! TD.AperFunction*
G04 #@! TA.AperFunction,SMDPad,CuDef*
G36*
X92250961Y-91790245D02*
G01*
X92253806Y-91780866D01*
X92258427Y-91772221D01*
X92264645Y-91764645D01*
X92272221Y-91758427D01*
X92280866Y-91753806D01*
X92290245Y-91750961D01*
X92300000Y-91750000D01*
X94900000Y-91750000D01*
X94909755Y-91750961D01*
X94919134Y-91753806D01*
X94927779Y-91758427D01*
X94935355Y-91764645D01*
X94941573Y-91772221D01*
X94946194Y-91780866D01*
X94949039Y-91790245D01*
X94950000Y-91800000D01*
X94950000Y-95200000D01*
X94949039Y-95209755D01*
X94946194Y-95219134D01*
X94941573Y-95227779D01*
X94935355Y-95235355D01*
X94927779Y-95241573D01*
X94919134Y-95246194D01*
X94909755Y-95249039D01*
X94900000Y-95250000D01*
X93950000Y-95250000D01*
X93950000Y-96200000D01*
X93949039Y-96209755D01*
X93946194Y-96219134D01*
X93941573Y-96227779D01*
X93935355Y-96235355D01*
X93927779Y-96241573D01*
X93919134Y-96246194D01*
X93909755Y-96249039D01*
X93900000Y-96250000D01*
X92300000Y-96250000D01*
X92290245Y-96249039D01*
X92280866Y-96246194D01*
X92272221Y-96241573D01*
X92264645Y-96235355D01*
X92258427Y-96227779D01*
X92253806Y-96219134D01*
X92250961Y-96209755D01*
X92250000Y-96200000D01*
X92250000Y-91800000D01*
X92250961Y-91790245D01*
G37*
G04 #@! TD.AperFunction*
G04 #@! TA.AperFunction,SMDPad,CuDef*
G36*
X95945881Y-91800289D02*
G01*
X95951705Y-91801153D01*
X95957417Y-91802584D01*
X95962961Y-91804567D01*
X95968284Y-91807085D01*
X95973334Y-91810112D01*
X95978064Y-91813619D01*
X95982426Y-91817574D01*
X95986381Y-91821936D01*
X95989888Y-91826666D01*
X95992915Y-91831716D01*
X95995433Y-91837039D01*
X95997416Y-91842583D01*
X95998847Y-91848295D01*
X95999711Y-91854119D01*
X96000000Y-91860000D01*
X96000000Y-95140000D01*
X95999711Y-95145881D01*
X95998847Y-95151705D01*
X95997416Y-95157417D01*
X95995433Y-95162961D01*
X95992915Y-95168284D01*
X95989888Y-95173334D01*
X95986381Y-95178064D01*
X95982426Y-95182426D01*
X95978064Y-95186381D01*
X95973334Y-95189888D01*
X95968284Y-95192915D01*
X95962961Y-95195433D01*
X95957417Y-95197416D01*
X95951705Y-95198847D01*
X95945881Y-95199711D01*
X95940000Y-95200000D01*
X95460000Y-95200000D01*
X95454119Y-95199711D01*
X95448295Y-95198847D01*
X95442583Y-95197416D01*
X95437039Y-95195433D01*
X95431716Y-95192915D01*
X95426666Y-95189888D01*
X95421936Y-95186381D01*
X95417574Y-95182426D01*
X95413619Y-95178064D01*
X95410112Y-95173334D01*
X95407085Y-95168284D01*
X95404567Y-95162961D01*
X95402584Y-95157417D01*
X95401153Y-95151705D01*
X95400289Y-95145881D01*
X95400000Y-95140000D01*
X95400000Y-91860000D01*
X95400289Y-91854119D01*
X95401153Y-91848295D01*
X95402584Y-91842583D01*
X95404567Y-91837039D01*
X95407085Y-91831716D01*
X95410112Y-91826666D01*
X95413619Y-91821936D01*
X95417574Y-91817574D01*
X95421936Y-91813619D01*
X95426666Y-91810112D01*
X95431716Y-91807085D01*
X95437039Y-91804567D01*
X95442583Y-91802584D01*
X95448295Y-91801153D01*
X95454119Y-91800289D01*
X95460000Y-91800000D01*
X95940000Y-91800000D01*
X95945881Y-91800289D01*
G37*
G04 #@! TD.AperFunction*
G04 #@! TA.AperFunction,SMDPad,CuDef*
G36*
X95954901Y-95655241D02*
G01*
X95959755Y-95655961D01*
X95964514Y-95657153D01*
X95969134Y-95658806D01*
X95973570Y-95660904D01*
X95977779Y-95663427D01*
X95981720Y-95666349D01*
X95985355Y-95669645D01*
X95988651Y-95673280D01*
X95991573Y-95677221D01*
X95994096Y-95681430D01*
X95996194Y-95685866D01*
X95997847Y-95690486D01*
X95999039Y-95695245D01*
X95999759Y-95700099D01*
X96000000Y-95705000D01*
X96000000Y-96105000D01*
X95999759Y-96109901D01*
X95999039Y-96114755D01*
X95997847Y-96119514D01*
X95996194Y-96124134D01*
X95994096Y-96128570D01*
X95991573Y-96132779D01*
X95988651Y-96136720D01*
X95985355Y-96140355D01*
X95981720Y-96143651D01*
X95977779Y-96146573D01*
X95973570Y-96149096D01*
X95969134Y-96151194D01*
X95964514Y-96152847D01*
X95959755Y-96154039D01*
X95954901Y-96154759D01*
X95950000Y-96155000D01*
X94550000Y-96155000D01*
X94545099Y-96154759D01*
X94540245Y-96154039D01*
X94535486Y-96152847D01*
X94530866Y-96151194D01*
X94526430Y-96149096D01*
X94522221Y-96146573D01*
X94518280Y-96143651D01*
X94514645Y-96140355D01*
X94511349Y-96136720D01*
X94508427Y-96132779D01*
X94505904Y-96128570D01*
X94503806Y-96124134D01*
X94502153Y-96119514D01*
X94500961Y-96114755D01*
X94500241Y-96109901D01*
X94500000Y-96105000D01*
X94500000Y-95705000D01*
X94500241Y-95700099D01*
X94500961Y-95695245D01*
X94502153Y-95690486D01*
X94503806Y-95685866D01*
X94505904Y-95681430D01*
X94508427Y-95677221D01*
X94511349Y-95673280D01*
X94514645Y-95669645D01*
X94518280Y-95666349D01*
X94522221Y-95663427D01*
X94526430Y-95660904D01*
X94530866Y-95658806D01*
X94535486Y-95657153D01*
X94540245Y-95655961D01*
X94545099Y-95655241D01*
X94550000Y-95655000D01*
X95950000Y-95655000D01*
X95954901Y-95655241D01*
G37*
G04 #@! TD.AperFunction*
D24*
X70950000Y-98250000D03*
X70950000Y-99750000D03*
D25*
X86800000Y-107500000D03*
X93000000Y-107500000D03*
X93000000Y-116500000D03*
X86800000Y-116500000D03*
X93000000Y-98500000D03*
X86800000Y-98500000D03*
D22*
X57675000Y-104600000D03*
X59575000Y-104600000D03*
X59575000Y-106500000D03*
X57675000Y-106500000D03*
D26*
X53475000Y-87740000D03*
X53475000Y-85840000D03*
X50825000Y-87740000D03*
X50825000Y-85840000D03*
X58800000Y-85850000D03*
X58800000Y-87750000D03*
X56150000Y-87750000D03*
X56150000Y-85850000D03*
D27*
X73220000Y-100440000D03*
X74220000Y-100440000D03*
X76220000Y-100440000D03*
X75220000Y-100440000D03*
X77220000Y-100440000D03*
X73220000Y-101440000D03*
X75220000Y-101440000D03*
X76220000Y-101440000D03*
X74220000Y-101440000D03*
X77220000Y-101440000D03*
X73220000Y-102440000D03*
X75220000Y-102440000D03*
X76220000Y-102440000D03*
X74220000Y-102440000D03*
X77220000Y-102440000D03*
X73220000Y-103440000D03*
X75220000Y-103440000D03*
X76220000Y-103440000D03*
X74220000Y-103440000D03*
X77220000Y-103440000D03*
X73220000Y-104440000D03*
X75220000Y-104440000D03*
X76220000Y-104440000D03*
X74220000Y-104440000D03*
X77220000Y-104440000D03*
D28*
X87800000Y-107500000D03*
X88181000Y-107500000D03*
X88190500Y-116500000D03*
X87809500Y-116500000D03*
X88190500Y-98500000D03*
X87809500Y-98500000D03*
X91890500Y-107500000D03*
X91509500Y-107500000D03*
X91509500Y-116500000D03*
X91890500Y-116500000D03*
X91790500Y-98500000D03*
X91409500Y-98500000D03*
D29*
X101230000Y-118040000D03*
X104910000Y-118030000D03*
X108620000Y-118070000D03*
X97560000Y-118040000D03*
X26850000Y-126825000D03*
X15550000Y-127275000D03*
X31050000Y-102600000D03*
X23375000Y-120225000D03*
X31040000Y-99580000D03*
X15550000Y-123500000D03*
X31030000Y-96190000D03*
X17145000Y-98065000D03*
X31005000Y-92800000D03*
X17145000Y-101665000D03*
X31005000Y-89350000D03*
X27350000Y-84180000D03*
X20540000Y-84190000D03*
X67500000Y-89350000D03*
X102660000Y-86940000D03*
X99210000Y-79740000D03*
X63900000Y-89400000D03*
X48600000Y-98025000D03*
X48600000Y-101250000D03*
X48600000Y-104450000D03*
X48600000Y-107875000D03*
X52450000Y-111575000D03*
X55675000Y-111575000D03*
X58850000Y-111575000D03*
X66370000Y-94215000D03*
X66345000Y-97390000D03*
X66320000Y-100565000D03*
X66345000Y-103740000D03*
X66345000Y-106940000D03*
X66345000Y-110115000D03*
X70090000Y-113670000D03*
X29500000Y-115275000D03*
X35975000Y-115275000D03*
X32800000Y-115275000D03*
X39200000Y-115275000D03*
X42225000Y-119175000D03*
X48600000Y-111500000D03*
X22400000Y-115250000D03*
X66290000Y-113640000D03*
X26150000Y-115250000D03*
D12*
X32800000Y-121800000D03*
X30800000Y-121800000D03*
X30800000Y-119900000D03*
X32800000Y-119900000D03*
D27*
X22400000Y-118400000D03*
X22400000Y-117400000D03*
X32700000Y-121700000D03*
X32500000Y-119400000D03*
X32500000Y-120300000D03*
X28300000Y-119400000D03*
X28300000Y-118200000D03*
X27300000Y-118200000D03*
X22100000Y-123900000D03*
X22900000Y-123900000D03*
X34150000Y-125150000D03*
X35500000Y-125150000D03*
X35500000Y-123600000D03*
X34150000Y-123600000D03*
X90900000Y-113900000D03*
X91550000Y-113400000D03*
X90850000Y-112950000D03*
X91500000Y-112200000D03*
X90850000Y-111650000D03*
X91450000Y-111050000D03*
X90800000Y-110500000D03*
X91500000Y-110000000D03*
X26400000Y-124400000D03*
X30400000Y-124300000D03*
X31450000Y-124350000D03*
X29500000Y-124250000D03*
X40050000Y-127100000D03*
X39250000Y-126200000D03*
X42900000Y-125100000D03*
X41650000Y-125050000D03*
X40800000Y-124000000D03*
X37600000Y-118950000D03*
X36550000Y-118950000D03*
X58200000Y-128350000D03*
X58200000Y-129150000D03*
X55150000Y-129150000D03*
X55150000Y-128350000D03*
X51400000Y-128350000D03*
X51400000Y-129150000D03*
X48350000Y-129150000D03*
X48350000Y-128350000D03*
X48150000Y-82350000D03*
X48150000Y-83200000D03*
X45100000Y-83200000D03*
X45100000Y-82350000D03*
X41200000Y-83100000D03*
X41200000Y-82350000D03*
X38250000Y-82400000D03*
X38250000Y-83150000D03*
X58200000Y-99400000D03*
X58200000Y-100400000D03*
X58200000Y-101350000D03*
X58200000Y-102300000D03*
X55500000Y-103050000D03*
X57450000Y-105100000D03*
D16*
X67660000Y-84300000D03*
D27*
X90950000Y-105000000D03*
X91450000Y-104450000D03*
X90950000Y-103950000D03*
X91450000Y-103300000D03*
X90950000Y-102600000D03*
X91450000Y-102000000D03*
X90850000Y-101550000D03*
X91450000Y-101050000D03*
X90950000Y-96000000D03*
X90950000Y-93650000D03*
X91000000Y-94850000D03*
X91450000Y-95400000D03*
X91450000Y-94250000D03*
X91450000Y-93050000D03*
X91450000Y-92050000D03*
X90850000Y-92550000D03*
X82390000Y-92640000D03*
D16*
X91000000Y-119400000D03*
D27*
X30400000Y-118000000D03*
X96600000Y-128100000D03*
X96000000Y-128100000D03*
X95400000Y-128100000D03*
X86400000Y-115100000D03*
X87150000Y-115650000D03*
X87100000Y-116850000D03*
X87050000Y-117900000D03*
X86300000Y-117400000D03*
X86350000Y-116200000D03*
X86200000Y-111650000D03*
X87050000Y-111650000D03*
X87050000Y-110550000D03*
X86150000Y-110550000D03*
X84850000Y-108400000D03*
X84850000Y-106200000D03*
X85700000Y-106700000D03*
X84850000Y-107250000D03*
X85700000Y-108950000D03*
X85700000Y-107850000D03*
X84700000Y-116200000D03*
X84700000Y-117350000D03*
X85550000Y-116800000D03*
X85550000Y-117900000D03*
X84700000Y-115150000D03*
X85550000Y-115650000D03*
X86400000Y-102500000D03*
X87200000Y-102450000D03*
X87200000Y-101600000D03*
X86400000Y-101600000D03*
X87100000Y-108850000D03*
X86500000Y-108400000D03*
X87100000Y-107850000D03*
X86500000Y-107200000D03*
X87100000Y-106650000D03*
X86500000Y-106250000D03*
X87100000Y-100000000D03*
X86500000Y-99450000D03*
X87100000Y-98900000D03*
X86500000Y-98300000D03*
X87100000Y-97750000D03*
X86500000Y-97250000D03*
X86200000Y-93000000D03*
X87000000Y-92050000D03*
X87000000Y-93000000D03*
X86200000Y-92050000D03*
D16*
X73979972Y-99484351D03*
D27*
X85750000Y-97750000D03*
X85750000Y-98900000D03*
X85750000Y-100000000D03*
X84900000Y-97250000D03*
X84900000Y-98300000D03*
X84900000Y-99450000D03*
X80530000Y-94320000D03*
X76110000Y-92420000D03*
X69610000Y-96430000D03*
X73100000Y-92750000D03*
D16*
X99230000Y-87570000D03*
X65765001Y-84280001D03*
X73270000Y-80850000D03*
X77140000Y-122940000D03*
X75720000Y-123160000D03*
X75750000Y-120200000D03*
X77180000Y-120070000D03*
X75710000Y-125900000D03*
X77130000Y-125780000D03*
X75800000Y-117200000D03*
X77290000Y-117150000D03*
X73799673Y-105290342D03*
D27*
X63300000Y-101000000D03*
X62425000Y-100975000D03*
D16*
X54100000Y-116200000D03*
X57400000Y-116400000D03*
X60700000Y-116300000D03*
X79100000Y-88200000D03*
X64050000Y-83450000D03*
D27*
X57850000Y-93950000D03*
X57200000Y-99250000D03*
X53700000Y-105550000D03*
X54950000Y-104000000D03*
D16*
X60400000Y-93000000D03*
D27*
X61300000Y-102900000D03*
X57090859Y-107936566D03*
X37507448Y-124408206D03*
X41650000Y-122800000D03*
X29500000Y-121500000D03*
X29500000Y-122300000D03*
X31100000Y-122900000D03*
X27650000Y-122050000D03*
X25950000Y-121500000D03*
X49942008Y-82590118D03*
X55276251Y-82564999D03*
X33700000Y-98450000D03*
X26050000Y-98000000D03*
X26050000Y-95400000D03*
X22100000Y-125100000D03*
X22887500Y-125100000D03*
X20900000Y-125800000D03*
X19500000Y-121500000D03*
X25800000Y-119200000D03*
X27306250Y-119393750D03*
X24386491Y-124850135D03*
X33750000Y-104786488D03*
D16*
X75600000Y-85600000D03*
X72881500Y-108200000D03*
D27*
X82590000Y-97050000D03*
X80630000Y-109340000D03*
X78510000Y-109340000D03*
X83217886Y-102822114D03*
X82870000Y-113830000D03*
X76450000Y-109350000D03*
X75500000Y-87450000D03*
X77750000Y-87450000D03*
D16*
X70950000Y-98250000D03*
D27*
X77750000Y-88850000D03*
X77350000Y-90200000D03*
X77750000Y-91700000D03*
X75500000Y-88500000D03*
X76550000Y-89050000D03*
X75800000Y-90300000D03*
X76250000Y-91700000D03*
X74700000Y-91650000D03*
X74300000Y-90300000D03*
X74300000Y-88750000D03*
X74300000Y-87450000D03*
X73150000Y-91700000D03*
X73150000Y-89550000D03*
X73150000Y-87450000D03*
X71760000Y-87705000D03*
X71800000Y-88500000D03*
X71850000Y-89700000D03*
X69810000Y-90960000D03*
X70400000Y-90050000D03*
X69850000Y-89350000D03*
X69850000Y-88100000D03*
X70645000Y-87705000D03*
X55500000Y-101950000D03*
X60337345Y-96634471D03*
D16*
X61800000Y-94536500D03*
D27*
X36300000Y-84450000D03*
X35250000Y-128500000D03*
X35250000Y-127600000D03*
X27600000Y-124150000D03*
X25550000Y-124400000D03*
X59700000Y-83550000D03*
X36200000Y-98200000D03*
X23200000Y-93750000D03*
X54250000Y-83650000D03*
X51050000Y-86340078D03*
X53750000Y-86340034D03*
X56450000Y-86315012D03*
X59150000Y-86315014D03*
X20700000Y-123400000D03*
X57850000Y-96500000D03*
X52726718Y-104840042D03*
X60525000Y-100263500D03*
X60550000Y-101800000D03*
X53475000Y-87490000D03*
X50825000Y-87490000D03*
X58775000Y-87465000D03*
X56125000Y-87465000D03*
D16*
X98000000Y-96500000D03*
X99500000Y-95000000D03*
X99500000Y-96500000D03*
X101000000Y-96500000D03*
X101000000Y-95000000D03*
X102500000Y-95000000D03*
X102500000Y-96500000D03*
X104000000Y-96500000D03*
X110000000Y-96500000D03*
X108500000Y-96500000D03*
X107000000Y-96500000D03*
X105500000Y-96500000D03*
X104000000Y-95000000D03*
X105500000Y-95000000D03*
X107000000Y-95000000D03*
X108500000Y-95000000D03*
X110000000Y-95000000D03*
X110000000Y-93500000D03*
X108500000Y-93500000D03*
X107000000Y-93500000D03*
X105500000Y-93500000D03*
X104000000Y-93500000D03*
X102500000Y-93500000D03*
X101000000Y-93500000D03*
X99500000Y-93500000D03*
X98000000Y-93500000D03*
X98000000Y-92000000D03*
X99500000Y-92000000D03*
X101000000Y-92000000D03*
X102500000Y-92000000D03*
X104000000Y-92000000D03*
X105500000Y-92000000D03*
X107000000Y-92000000D03*
X108500000Y-92000000D03*
X110000000Y-92000000D03*
X110000000Y-90500000D03*
X108500000Y-90500000D03*
X107000000Y-90500000D03*
X105500000Y-90500000D03*
X104000000Y-90500000D03*
X102500000Y-90500000D03*
X101000000Y-90500000D03*
X99500000Y-90500000D03*
X98000000Y-90500000D03*
X98000000Y-95000000D03*
X110000000Y-104000000D03*
X107000000Y-102500000D03*
X104000000Y-102500000D03*
X105500000Y-102500000D03*
X99500000Y-104000000D03*
X99500000Y-105500000D03*
X108500000Y-102500000D03*
X102500000Y-104000000D03*
X104000000Y-105500000D03*
X110000000Y-102500000D03*
X105500000Y-105500000D03*
X104000000Y-104000000D03*
X98000000Y-105500000D03*
X108500000Y-104000000D03*
X105500000Y-104000000D03*
X107000000Y-104000000D03*
X102500000Y-105500000D03*
X101000000Y-104000000D03*
X98000000Y-104000000D03*
X110000000Y-105500000D03*
X101000000Y-105500000D03*
X108500000Y-105500000D03*
X98000000Y-102500000D03*
X101000000Y-102500000D03*
X105500000Y-101000000D03*
X99500000Y-102500000D03*
X101000000Y-101000000D03*
X99500000Y-101000000D03*
X102500000Y-101000000D03*
X108500000Y-101000000D03*
X107000000Y-105500000D03*
X104000000Y-101000000D03*
X107000000Y-101000000D03*
X98000000Y-101000000D03*
X102500000Y-102500000D03*
X110000000Y-99500000D03*
X98000000Y-99500000D03*
X105500000Y-99500000D03*
X108500000Y-99500000D03*
X110000000Y-101000000D03*
X101000000Y-99500000D03*
X107000000Y-99500000D03*
X99500000Y-99500000D03*
X102500000Y-99500000D03*
X104000000Y-99500000D03*
X99500000Y-108500000D03*
X98000000Y-108500000D03*
X101000000Y-108500000D03*
X102500000Y-111500000D03*
X105500000Y-108500000D03*
X107000000Y-108500000D03*
X102500000Y-108500000D03*
X104000000Y-108500000D03*
X108500000Y-108500000D03*
X110000000Y-110000000D03*
X110000000Y-108500000D03*
X108500000Y-113000000D03*
X104000000Y-111500000D03*
X107000000Y-113000000D03*
X105500000Y-113000000D03*
X110000000Y-113000000D03*
X105500000Y-114500000D03*
X105500000Y-111500000D03*
X110000000Y-111500000D03*
X107000000Y-111500000D03*
X108500000Y-111500000D03*
X104000000Y-113000000D03*
X102500000Y-114500000D03*
X101000000Y-113000000D03*
X104000000Y-114500000D03*
X98000000Y-113000000D03*
X102500000Y-113000000D03*
X99500000Y-113000000D03*
X98000000Y-114500000D03*
X99500000Y-114500000D03*
X110000000Y-114500000D03*
X101000000Y-114500000D03*
X108500000Y-114500000D03*
X107000000Y-114500000D03*
X101000000Y-111500000D03*
X104000000Y-110000000D03*
X99500000Y-110000000D03*
X108500000Y-110000000D03*
X105500000Y-110000000D03*
X102500000Y-110000000D03*
X101000000Y-110000000D03*
X98000000Y-110000000D03*
X99500000Y-111500000D03*
X107000000Y-110000000D03*
X98000000Y-111500000D03*
D27*
X28550000Y-97750000D03*
X58498780Y-108198794D03*
X26916937Y-98149752D03*
X26900000Y-99550000D03*
X25500000Y-103450000D03*
X59939646Y-108213418D03*
X28000000Y-98850000D03*
X23150000Y-98800000D03*
X60650000Y-108199014D03*
X23200000Y-97550000D03*
X19050000Y-95450000D03*
X64600000Y-109700000D03*
X71325000Y-90975000D03*
X68200000Y-91950000D03*
X55300000Y-99150000D03*
X59231876Y-108191911D03*
X94900000Y-105600000D03*
X89700000Y-105700000D03*
X83720000Y-103320000D03*
X83714524Y-104786490D03*
X83757347Y-104087789D03*
X83799998Y-112650000D03*
X83168099Y-111291901D03*
X95050000Y-114500000D03*
X89700000Y-114650000D03*
X82270000Y-112510000D03*
X83300000Y-95391500D03*
X82350000Y-95550000D03*
X94950000Y-96550000D03*
X89800000Y-96650000D03*
X83250000Y-96418500D03*
D16*
X71250000Y-106600000D03*
D27*
X52450000Y-100750000D03*
X48150000Y-89550000D03*
X55600000Y-100350000D03*
X50450000Y-115300000D03*
X32875000Y-128000000D03*
X31800000Y-121600000D03*
X59350000Y-105150000D03*
X31200000Y-125450000D03*
X24600000Y-123500000D03*
X63506727Y-103001981D03*
X63850000Y-92550000D03*
X63600000Y-103700000D03*
X64450000Y-91650000D03*
X62450000Y-91136500D03*
X63050000Y-97950000D03*
X62200000Y-98499986D03*
X61500000Y-97000000D03*
X61099988Y-90600000D03*
X64550000Y-111450000D03*
X62743250Y-109056750D03*
X62000000Y-108350000D03*
X63900000Y-112350000D03*
X63250000Y-111800000D03*
X62550000Y-111250000D03*
X72550000Y-95850000D03*
X68350000Y-95699982D03*
X67600000Y-99000000D03*
X72237797Y-99643502D03*
X79495000Y-109340000D03*
X77410000Y-109340000D03*
X75340000Y-109340000D03*
D16*
X58840000Y-115600000D03*
X59500000Y-119100000D03*
X55650000Y-115650000D03*
X56100000Y-118363500D03*
D27*
X30200000Y-119500000D03*
D30*
X82390000Y-92640000D02*
X83430000Y-92640000D01*
X83430000Y-92640000D02*
X84970000Y-91100000D01*
X87952000Y-91100000D02*
X88600000Y-91748000D01*
X88600000Y-91748000D02*
X88600000Y-92500000D01*
X84970000Y-91100000D02*
X87952000Y-91100000D01*
D31*
X95160000Y-79740000D02*
X92800000Y-82100000D01*
X99210000Y-79740000D02*
X95160000Y-79740000D01*
D32*
X67615000Y-84300000D02*
X67585000Y-84330000D01*
X67660000Y-84300000D02*
X67615000Y-84300000D01*
X96000000Y-128100000D02*
X96600000Y-128100000D01*
X95400000Y-128100000D02*
X96000000Y-128100000D01*
D33*
X80300000Y-84300000D02*
X68225685Y-84300000D01*
X68225685Y-84300000D02*
X67660000Y-84300000D01*
X83600000Y-87600000D02*
X80300000Y-84300000D01*
X91200401Y-87600000D02*
X83600000Y-87600000D01*
X92800000Y-86000401D02*
X91200401Y-87600000D01*
X92800000Y-82100000D02*
X92800000Y-86000401D01*
D31*
X96600000Y-128100000D02*
X68100000Y-128100000D01*
D32*
X66500000Y-126500000D02*
X66550000Y-126550000D01*
D31*
X30753553Y-118000000D02*
X30400000Y-118000000D01*
X38903998Y-118000000D02*
X30753553Y-118000000D01*
X47403998Y-126500000D02*
X38903998Y-118000000D01*
X66500000Y-126500000D02*
X47403998Y-126500000D01*
X68100000Y-128100000D02*
X66550000Y-126550000D01*
D30*
X87809500Y-98500000D02*
X86800000Y-98500000D01*
X87800000Y-107500000D02*
X86800000Y-107500000D01*
X86800000Y-116500000D02*
X87809500Y-116500000D01*
D32*
X65815000Y-84330000D02*
X65765001Y-84280001D01*
X66085000Y-84330000D02*
X65815000Y-84330000D01*
D30*
X73445000Y-106515000D02*
X73445000Y-105655000D01*
X73445000Y-105655000D02*
X73799673Y-105300327D01*
X73799673Y-105300327D02*
X73799673Y-105290342D01*
D32*
X58525000Y-99925000D02*
X58425000Y-99925000D01*
X58525000Y-101825000D02*
X58325000Y-101825000D01*
D30*
X57850000Y-94500000D02*
X57850000Y-93950000D01*
X55375000Y-104475000D02*
X55375000Y-104575000D01*
X55375000Y-104575000D02*
X55850000Y-105050000D01*
X55375000Y-104475000D02*
X55375000Y-104325000D01*
X55375000Y-104325000D02*
X55800000Y-103900000D01*
D32*
X60400000Y-93550000D02*
X60350000Y-93500000D01*
X60350000Y-93500000D02*
X60400000Y-93450000D01*
X60400000Y-93450000D02*
X60400000Y-93000000D01*
D30*
X57675000Y-106500000D02*
X57675000Y-107352425D01*
X57675000Y-107352425D02*
X57090859Y-107936566D01*
X73260000Y-108200000D02*
X73445000Y-108015000D01*
X72881500Y-108200000D02*
X73260000Y-108200000D01*
X91790500Y-98500000D02*
X93000000Y-98500000D01*
X92450000Y-94000000D02*
X92450000Y-96450000D01*
X88827010Y-96627010D02*
X84072990Y-96627010D01*
X89363501Y-97163501D02*
X88827010Y-96627010D01*
X83650000Y-97050000D02*
X82943553Y-97050000D01*
X91736499Y-97163501D02*
X89363501Y-97163501D01*
X82943553Y-97050000D02*
X82590000Y-97050000D01*
X84072990Y-96627010D02*
X83650000Y-97050000D01*
X92450000Y-96450000D02*
X91736499Y-97163501D01*
X80830000Y-102380000D02*
X80830000Y-109105000D01*
X82487010Y-100722990D02*
X80830000Y-102380000D01*
X88127010Y-100722990D02*
X82487010Y-100722990D01*
X89100000Y-99750000D02*
X88127010Y-100722990D01*
X89100000Y-99100000D02*
X89100000Y-99750000D01*
X80830000Y-109105000D02*
X80595000Y-109340000D01*
X88190500Y-98500000D02*
X88500000Y-98500000D01*
X88500000Y-98500000D02*
X89100000Y-99100000D01*
X78495000Y-110065000D02*
X78495000Y-109340000D01*
X78880000Y-110450000D02*
X78495000Y-110065000D01*
X81200000Y-110450000D02*
X78880000Y-110450000D01*
X89149999Y-107919999D02*
X89149999Y-108750000D01*
X82027011Y-109622989D02*
X81200000Y-110450000D01*
X88181000Y-107500000D02*
X88730000Y-107500000D01*
X89149999Y-108750000D02*
X88277010Y-109622989D01*
X88730000Y-107500000D02*
X89149999Y-107919999D01*
X88277010Y-109622989D02*
X82027011Y-109622989D01*
X91890500Y-107500000D02*
X93000000Y-107500000D01*
X91586499Y-106213501D02*
X88813501Y-106213501D01*
X92550000Y-105250000D02*
X91586499Y-106213501D01*
X92550000Y-103000000D02*
X92550000Y-105250000D01*
X88236499Y-105636499D02*
X83280584Y-105636499D01*
X82967887Y-103072113D02*
X83217886Y-102822114D01*
X88813501Y-106213501D02*
X88236499Y-105636499D01*
X83280584Y-105636499D02*
X82874003Y-105229918D01*
X82874003Y-105229918D02*
X82874003Y-103165997D01*
X82874003Y-103165997D02*
X82967887Y-103072113D01*
X93000000Y-116500000D02*
X91890500Y-116500000D01*
X92550000Y-111975000D02*
X92550000Y-114225000D01*
X92550000Y-114225000D02*
X91611499Y-115163501D01*
X89113501Y-115163501D02*
X88419999Y-114469999D01*
X88419999Y-114469999D02*
X83509999Y-114469999D01*
X83509999Y-114469999D02*
X83119999Y-114079999D01*
X91611499Y-115163501D02*
X89113501Y-115163501D01*
X83119999Y-114079999D02*
X82870000Y-113830000D01*
X77610000Y-111270000D02*
X76420000Y-110080000D01*
X76420000Y-110080000D02*
X76420000Y-109340000D01*
X79510000Y-111270000D02*
X77610000Y-111270000D01*
X81590000Y-113350000D02*
X79510000Y-111270000D01*
X89150000Y-116500000D02*
X89500000Y-116850000D01*
X82813501Y-118413501D02*
X81590000Y-117190000D01*
X89500000Y-116850000D02*
X89500000Y-118250000D01*
X81590000Y-117190000D02*
X81590000Y-113350000D01*
X89500000Y-118250000D02*
X89336499Y-118413501D01*
X88190500Y-116500000D02*
X89150000Y-116500000D01*
X89336499Y-118413501D02*
X82813501Y-118413501D01*
D32*
X60625000Y-97525000D02*
X60625000Y-96922126D01*
X60625000Y-96922126D02*
X60337345Y-96634471D01*
X60400000Y-96571816D02*
X60337345Y-96634471D01*
X60400000Y-95550000D02*
X60400000Y-96571816D01*
X60400000Y-95550000D02*
X60786500Y-95550000D01*
X60786500Y-95550000D02*
X61800000Y-94536500D01*
X50825000Y-85840000D02*
X50903477Y-85840000D01*
X51050000Y-85986525D02*
X51050000Y-86340078D01*
X50903477Y-85840000D02*
X51050000Y-85986525D01*
X53500001Y-86090035D02*
X53750000Y-86340034D01*
X53475000Y-85840000D02*
X53475000Y-86065034D01*
X53475000Y-86065034D02*
X53500001Y-86090035D01*
X56150000Y-85850000D02*
X56150000Y-86015012D01*
X56200001Y-86065013D02*
X56450000Y-86315012D01*
X56150000Y-86015012D02*
X56200001Y-86065013D01*
X58800000Y-85850000D02*
X58800000Y-85965014D01*
X58800000Y-85965014D02*
X58900001Y-86065015D01*
X58900001Y-86065015D02*
X59150000Y-86315014D01*
D30*
X53009958Y-104840042D02*
X53375000Y-104475000D01*
X52726718Y-104840042D02*
X53009958Y-104840042D01*
D32*
X53375000Y-102625000D02*
X53250000Y-102500000D01*
X53375000Y-104475000D02*
X53375000Y-102625000D01*
X60525000Y-99925000D02*
X60525000Y-100263500D01*
X60625000Y-99825000D02*
X60525000Y-99925000D01*
X60625000Y-98425000D02*
X60625000Y-99825000D01*
X60525000Y-100263500D02*
X60525000Y-100263500D01*
X53475000Y-87740000D02*
X53475000Y-87490000D01*
X50825000Y-87740000D02*
X50825000Y-87490000D01*
X58800000Y-87750000D02*
X58800000Y-87490000D01*
X58800000Y-87490000D02*
X58775000Y-87465000D01*
X56150000Y-87750000D02*
X56150000Y-87490000D01*
X56150000Y-87490000D02*
X56125000Y-87465000D01*
D30*
X111540000Y-98605685D02*
X111540000Y-116090000D01*
X110000000Y-96500000D02*
X110000000Y-97065685D01*
X109560000Y-118070000D02*
X108620000Y-118070000D01*
X111540000Y-116090000D02*
X109560000Y-118070000D01*
X110000000Y-97065685D02*
X111540000Y-98605685D01*
X104580000Y-106870000D02*
X104000000Y-106290000D01*
X110190000Y-106870000D02*
X104580000Y-106870000D01*
X104000000Y-106290000D02*
X104000000Y-105500000D01*
X110110000Y-116250000D02*
X111020000Y-115340000D01*
X111020000Y-115340000D02*
X111020000Y-107700000D01*
X111020000Y-107700000D02*
X110190000Y-106870000D01*
X106690000Y-116250000D02*
X110110000Y-116250000D01*
X104910000Y-118030000D02*
X106690000Y-116250000D01*
X99260000Y-114740000D02*
X99500000Y-114500000D01*
X101230000Y-114730000D02*
X101000000Y-114500000D01*
X101230000Y-118040000D02*
X101230000Y-114730000D01*
X29635787Y-102600000D02*
X28550000Y-101514213D01*
X28550000Y-101514213D02*
X28550000Y-98103553D01*
X28550000Y-98103553D02*
X28550000Y-97750000D01*
X31050000Y-102600000D02*
X29635787Y-102600000D01*
X26916937Y-98149752D02*
X26916937Y-99533063D01*
X26916937Y-99533063D02*
X26900000Y-99550000D01*
X26900000Y-102050000D02*
X26900000Y-99550000D01*
X25500000Y-103450000D02*
X26900000Y-102050000D01*
X33980000Y-99580000D02*
X31040000Y-99580000D01*
X43538501Y-109138501D02*
X33980000Y-99580000D01*
X58498780Y-108198794D02*
X57559073Y-109138501D01*
X57559073Y-109138501D02*
X43538501Y-109138501D01*
X28000000Y-102350000D02*
X28000000Y-98850000D01*
X38775078Y-105300000D02*
X30950000Y-105300000D01*
X43267599Y-109792521D02*
X38775078Y-105300000D01*
X58357479Y-109792521D02*
X43267599Y-109792521D01*
X30950000Y-105300000D02*
X28000000Y-102350000D01*
X59939646Y-108213418D02*
X59936582Y-108213418D01*
X59936582Y-108213418D02*
X58357479Y-109792521D01*
X20285000Y-101665000D02*
X17145000Y-101665000D01*
X23150000Y-98800000D02*
X20285000Y-101665000D01*
X27400000Y-102200000D02*
X27450000Y-95550000D01*
X25450000Y-97550000D02*
X27450000Y-95550000D01*
X23200000Y-97550000D02*
X25450000Y-97550000D01*
X21150000Y-97550000D02*
X23200000Y-97550000D01*
X19050000Y-95450000D02*
X21150000Y-97550000D01*
X32550000Y-91255000D02*
X31005000Y-92800000D01*
X32550000Y-88450000D02*
X32550000Y-91255000D01*
X27450000Y-95550000D02*
X28750000Y-94250000D01*
X28750000Y-89050000D02*
X29900000Y-87900000D01*
X29900000Y-87900000D02*
X32000000Y-87900000D01*
X28750000Y-94250000D02*
X28750000Y-89050000D01*
X32000000Y-87900000D02*
X32550000Y-88450000D01*
X60475648Y-108726919D02*
X60473081Y-108726919D01*
X60473081Y-108726919D02*
X59080469Y-110119531D01*
X27400000Y-102212461D02*
X27400000Y-102200000D01*
X60650000Y-108199014D02*
X60650000Y-108552567D01*
X60650000Y-108552567D02*
X60475648Y-108726919D01*
X27400000Y-102200000D02*
X27400000Y-102212460D01*
X27400000Y-102212460D02*
X30814549Y-105627010D01*
X30814549Y-105627010D02*
X38639628Y-105627010D01*
X43132149Y-110119531D02*
X59080469Y-110119531D01*
X38639628Y-105627010D02*
X43132149Y-110119531D01*
X55050001Y-99399999D02*
X55300000Y-99150000D01*
X55022990Y-99427010D02*
X55050001Y-99399999D01*
X57850000Y-103350000D02*
X55022990Y-100522990D01*
X64600000Y-108112462D02*
X59837538Y-103350000D01*
X55022990Y-100522990D02*
X55022990Y-99427010D01*
X59837538Y-103350000D02*
X57850000Y-103350000D01*
X64600000Y-109700000D02*
X64600000Y-108112462D01*
X68250000Y-91900000D02*
X68200000Y-91950000D01*
X70046447Y-91900000D02*
X68250000Y-91900000D01*
X71325000Y-90975000D02*
X70971447Y-90975000D01*
X70971447Y-90975000D02*
X70046447Y-91900000D01*
X30005001Y-90349999D02*
X31005000Y-89350000D01*
X29100000Y-100237002D02*
X29100000Y-91255000D01*
X57958276Y-109465511D02*
X43403049Y-109465512D01*
X43403049Y-109465512D02*
X34781038Y-100843501D01*
X29100000Y-91255000D02*
X30005001Y-90349999D01*
X29706499Y-100843501D02*
X29100000Y-100237002D01*
X59231876Y-108191911D02*
X57958276Y-109465511D01*
X34781038Y-100843501D02*
X29706499Y-100843501D01*
X95250000Y-104905000D02*
X95250000Y-105250000D01*
X95250000Y-105250000D02*
X94900000Y-105600000D01*
X83470001Y-103569999D02*
X83720000Y-103320000D01*
X83201014Y-103838986D02*
X83470001Y-103569999D01*
X83201014Y-105094466D02*
X83201014Y-103838986D01*
X83406548Y-105300000D02*
X83201014Y-105094466D01*
X89300000Y-105300000D02*
X83406548Y-105300000D01*
X89700000Y-105700000D02*
X89300000Y-105300000D01*
X83833034Y-104905000D02*
X83714524Y-104786490D01*
X90054000Y-104905000D02*
X83833034Y-104905000D01*
X89509000Y-104430000D02*
X84099558Y-104430000D01*
X84099558Y-104430000D02*
X84007346Y-104337788D01*
X84007346Y-104337788D02*
X83757347Y-104087789D01*
X90054000Y-103885000D02*
X89509000Y-104430000D01*
X90054000Y-103635000D02*
X90054000Y-103885000D01*
X89704000Y-112610000D02*
X89694000Y-112600000D01*
X90054000Y-112610000D02*
X89704000Y-112610000D01*
X89704000Y-112610000D02*
X89091010Y-113222990D01*
X89091010Y-113222990D02*
X84585450Y-113222990D01*
X84585450Y-113222990D02*
X84372988Y-113222990D01*
X84372988Y-113222990D02*
X83799998Y-112650000D01*
X84080016Y-113690000D02*
X83286497Y-112896481D01*
X89524000Y-113700000D02*
X84090016Y-113700000D01*
X83168099Y-112778083D02*
X83168099Y-111291901D01*
X84090016Y-113700000D02*
X83168099Y-112778083D01*
X90054000Y-113880000D02*
X89704000Y-113880000D01*
X89704000Y-113880000D02*
X89524000Y-113700000D01*
X95250000Y-113880000D02*
X95250000Y-114300000D01*
X95250000Y-114300000D02*
X95050000Y-114500000D01*
X82309984Y-112510000D02*
X82270000Y-112510000D01*
X83899984Y-114100000D02*
X82309984Y-112510000D01*
X89700000Y-114650000D02*
X89150000Y-114100000D01*
X89150000Y-114100000D02*
X83899984Y-114100000D01*
X83486490Y-95577990D02*
X83300000Y-95391500D01*
X83897088Y-95577990D02*
X83486490Y-95577990D01*
X89704000Y-94635000D02*
X88761010Y-95577990D01*
X88761010Y-95577990D02*
X83897088Y-95577990D01*
X90054000Y-94635000D02*
X89704000Y-94635000D01*
X89954000Y-95905000D02*
X84032539Y-95905000D01*
X84032539Y-95905000D02*
X82705000Y-95905000D01*
X82705000Y-95905000D02*
X82350000Y-95550000D01*
X95150000Y-95905000D02*
X95150000Y-96350000D01*
X95150000Y-96350000D02*
X94950000Y-96550000D01*
X89096447Y-96300000D02*
X84100000Y-96300000D01*
X89800000Y-96650000D02*
X89446447Y-96650000D01*
X89446447Y-96650000D02*
X89096447Y-96300000D01*
X84100000Y-96300000D02*
X83368500Y-96300000D01*
X83368500Y-96300000D02*
X83250000Y-96418500D01*
X70950000Y-99750000D02*
X70950000Y-106300000D01*
X70950000Y-106300000D02*
X71250000Y-106600000D01*
X51000000Y-92400000D02*
X48150000Y-89550000D01*
X52450000Y-100750000D02*
X51000000Y-99300000D01*
X51000000Y-99300000D02*
X51000000Y-92400000D01*
X71250000Y-106600000D02*
X69350000Y-108500000D01*
X58019436Y-103022989D02*
X55849999Y-100853552D01*
X65450000Y-108500000D02*
X59972990Y-103022989D01*
X55849999Y-100599999D02*
X55600000Y-100350000D01*
X55849999Y-100853552D02*
X55849999Y-100599999D01*
X59972990Y-103022989D02*
X58019436Y-103022989D01*
X69350000Y-108500000D02*
X65450000Y-108500000D01*
X50450000Y-115300000D02*
X50450000Y-117000000D01*
X48275000Y-119175000D02*
X42225000Y-119175000D01*
X50450000Y-117000000D02*
X48275000Y-119175000D01*
X31800000Y-122300000D02*
X31800000Y-121600000D01*
X32163501Y-127765501D02*
X32163501Y-122663501D01*
X32163501Y-122663501D02*
X31800000Y-122300000D01*
X32875000Y-128000000D02*
X32398000Y-128000000D01*
X32398000Y-128000000D02*
X32163501Y-127765501D01*
D32*
X59575000Y-104600000D02*
X59575000Y-106500000D01*
D30*
X24900000Y-124700000D02*
X24900000Y-123800000D01*
X25400000Y-125200000D02*
X24900000Y-124700000D01*
X31200000Y-125450000D02*
X30950000Y-125200000D01*
X24900000Y-123800000D02*
X24600000Y-123500000D01*
X30950000Y-125200000D02*
X25400000Y-125200000D01*
X63813501Y-102695207D02*
X63756726Y-102751982D01*
X63813501Y-96771499D02*
X63813501Y-102695207D01*
X63756726Y-102751982D02*
X63506727Y-103001981D01*
X66370000Y-94215000D02*
X63813501Y-96771499D01*
X65515000Y-94215000D02*
X66370000Y-94215000D01*
X63850000Y-92550000D02*
X65515000Y-94215000D01*
X64200000Y-99535000D02*
X66345000Y-97390000D01*
X63600000Y-103700000D02*
X64200000Y-103100000D01*
X64200000Y-103100000D02*
X64200000Y-99535000D01*
X67650000Y-96085000D02*
X66345000Y-97390000D01*
X67650000Y-93625018D02*
X67650000Y-96085000D01*
X64450000Y-91650000D02*
X65674982Y-91650000D01*
X65674982Y-91650000D02*
X67650000Y-93625018D01*
X62450000Y-91136500D02*
X63050000Y-91736500D01*
X63050000Y-91736500D02*
X63050000Y-97950000D01*
X62200000Y-97700000D02*
X61500000Y-97000000D01*
X62200000Y-98499986D02*
X62200000Y-97700000D01*
X61500000Y-97000000D02*
X62463501Y-96036499D01*
X62463501Y-96036499D02*
X62463501Y-91963513D01*
X61349987Y-90849999D02*
X61099988Y-90600000D01*
X62463501Y-91963513D02*
X61349987Y-90849999D01*
X64550000Y-111450000D02*
X64550000Y-110863500D01*
X64550000Y-110863500D02*
X62743250Y-109056750D01*
X62743250Y-109056750D02*
X62736500Y-109050000D01*
X62000000Y-112500000D02*
X62000000Y-108703553D01*
X61650000Y-112850000D02*
X62000000Y-112500000D01*
X29500000Y-115275000D02*
X31925000Y-112850000D01*
X62000000Y-108703553D02*
X62000000Y-108350000D01*
X31925000Y-112850000D02*
X61650000Y-112850000D01*
X31350000Y-114400000D02*
X32300000Y-113450000D01*
X31350000Y-116250000D02*
X31350000Y-114400000D01*
X34150000Y-113450000D02*
X35975000Y-115275000D01*
X32350000Y-117250000D02*
X31350000Y-116250000D01*
X63750000Y-112350000D02*
X62268970Y-113831030D01*
X32300000Y-113450000D02*
X34150000Y-113450000D01*
X43068970Y-113831030D02*
X39650000Y-117250000D01*
X63900000Y-112350000D02*
X63750000Y-112350000D01*
X62268970Y-113831030D02*
X43068970Y-113831030D01*
X39650000Y-117250000D02*
X32350000Y-117250000D01*
X61920903Y-113504019D02*
X42933518Y-113504019D01*
X63250000Y-112174922D02*
X61920903Y-113504019D01*
X39514549Y-116922989D02*
X34447989Y-116922989D01*
X42933518Y-113504019D02*
X39514549Y-116922989D01*
X34447989Y-116922989D02*
X33799999Y-116274999D01*
X33799999Y-116274999D02*
X32800000Y-115275000D01*
X63250000Y-111800000D02*
X63250000Y-112174922D01*
X41297990Y-113177010D02*
X39200000Y-115275000D01*
X61785451Y-113177010D02*
X41297990Y-113177010D01*
X62550000Y-111250000D02*
X62550000Y-112412461D01*
X62550000Y-112412461D02*
X61785451Y-113177010D01*
X68350018Y-95700000D02*
X68350000Y-95699982D01*
X72550000Y-95850000D02*
X72400000Y-95700000D01*
X72400000Y-95700000D02*
X68350018Y-95700000D01*
X67600000Y-99000000D02*
X71594295Y-99000000D01*
X71594295Y-99000000D02*
X72237797Y-99643502D01*
X79495000Y-109717000D02*
X79495000Y-109340000D01*
X79648000Y-109870000D02*
X79495000Y-109717000D01*
X88290000Y-101050000D02*
X82622462Y-101050000D01*
X90100000Y-98500000D02*
X89427010Y-99172990D01*
X89427010Y-99912990D02*
X88290000Y-101050000D01*
X89427010Y-99172990D02*
X89427010Y-99912990D01*
X91409500Y-98500000D02*
X90100000Y-98500000D01*
X82622462Y-101050000D02*
X81157011Y-102515451D01*
X80841481Y-109853501D02*
X80824982Y-109870000D01*
X81157011Y-102515451D02*
X81157011Y-109537971D01*
X81157011Y-109537971D02*
X81143501Y-109551481D01*
X80876481Y-109853501D02*
X80841481Y-109853501D01*
X80824982Y-109870000D02*
X79648000Y-109870000D01*
X81143501Y-109551481D02*
X81143501Y-109586481D01*
X81143501Y-109586481D02*
X80876481Y-109853501D01*
X78458000Y-110780000D02*
X77395000Y-109717000D01*
X89990000Y-107500000D02*
X89477009Y-108012991D01*
X88470000Y-109950000D02*
X82162462Y-109950000D01*
X77395000Y-109717000D02*
X77395000Y-109340000D01*
X81332462Y-110780000D02*
X78458000Y-110780000D01*
X91509500Y-107500000D02*
X89990000Y-107500000D01*
X89477009Y-108012991D02*
X89477009Y-108942991D01*
X82162462Y-109950000D02*
X81332462Y-110780000D01*
X89477009Y-108942991D02*
X88470000Y-109950000D01*
X75320000Y-109800000D02*
X75320000Y-109340000D01*
X75670000Y-110150000D02*
X75320000Y-109800000D01*
X89950000Y-116950000D02*
X89950000Y-118262461D01*
X89950000Y-118262461D02*
X89471950Y-118740511D01*
X91509500Y-116500000D02*
X90400000Y-116500000D01*
X81230000Y-117292460D02*
X81230000Y-113452460D01*
X90400000Y-116500000D02*
X89950000Y-116950000D01*
X82678050Y-118740511D02*
X81230000Y-117292460D01*
X81230000Y-113452460D02*
X79374550Y-111597010D01*
X79374550Y-111597010D02*
X77474549Y-111597010D01*
X89471950Y-118740511D02*
X82678050Y-118740511D01*
X76027539Y-110150000D02*
X75670000Y-110150000D01*
X77474549Y-111597010D02*
X76027539Y-110150000D01*
X58800000Y-115640000D02*
X58840000Y-115600000D01*
X58840000Y-118440000D02*
X58840000Y-115600000D01*
X59500000Y-119100000D02*
X58840000Y-118440000D01*
X55600000Y-115700000D02*
X55650000Y-115650000D01*
X55650000Y-117913500D02*
X55650000Y-115650000D01*
X56100000Y-118363500D02*
X55650000Y-117913500D01*
D32*
X30800000Y-119900000D02*
X30800000Y-121800000D01*
X30800000Y-119900000D02*
X30600000Y-119900000D01*
X30600000Y-119900000D02*
X30200000Y-119500000D01*
G36*
X109743831Y-89917351D02*
G01*
X109920326Y-89936082D01*
X110083882Y-89987027D01*
X110234380Y-90068893D01*
X110366018Y-90178524D01*
X110473758Y-90311723D01*
X110553454Y-90463365D01*
X110602056Y-90627643D01*
X110618257Y-90804384D01*
X110581710Y-96249752D01*
X110563271Y-96425620D01*
X110512833Y-96588684D01*
X110431682Y-96738837D01*
X110322907Y-96870364D01*
X110190649Y-96978257D01*
X110039950Y-97058401D01*
X109876556Y-97107742D01*
X109700577Y-97125000D01*
X98160432Y-97125000D01*
X97968958Y-97104531D01*
X97792497Y-97046155D01*
X97632366Y-96951798D01*
X97490875Y-96821177D01*
X96276887Y-95433762D01*
X96251803Y-95403197D01*
X96245914Y-95398364D01*
X96242308Y-95394243D01*
X96231019Y-95382897D01*
X96088516Y-95256943D01*
X96062071Y-95239018D01*
X95892296Y-95153300D01*
X95862172Y-95142664D01*
X95679750Y-95103538D01*
X95589278Y-95078587D01*
X95530009Y-95034366D01*
X95490864Y-94971632D01*
X95475000Y-94887305D01*
X95475000Y-92087310D01*
X95492486Y-91999401D01*
X95535310Y-91935310D01*
X95599401Y-91892486D01*
X95694298Y-91873610D01*
X95839040Y-91857110D01*
X95866630Y-91850736D01*
X96008821Y-91800354D01*
X96034268Y-91787935D01*
X96161471Y-91706842D01*
X96183471Y-91689014D01*
X96289158Y-91581372D01*
X96298502Y-91570706D01*
X97391837Y-90169871D01*
X97505285Y-90049137D01*
X97634190Y-89954484D01*
X97778176Y-89884891D01*
X97932429Y-89842681D01*
X98097526Y-89828787D01*
X109743831Y-89917351D01*
G37*
X109743831Y-89917351D02*
X109920326Y-89936082D01*
X110083882Y-89987027D01*
X110234380Y-90068893D01*
X110366018Y-90178524D01*
X110473758Y-90311723D01*
X110553454Y-90463365D01*
X110602056Y-90627643D01*
X110618257Y-90804384D01*
X110581710Y-96249752D01*
X110563271Y-96425620D01*
X110512833Y-96588684D01*
X110431682Y-96738837D01*
X110322907Y-96870364D01*
X110190649Y-96978257D01*
X110039950Y-97058401D01*
X109876556Y-97107742D01*
X109700577Y-97125000D01*
X98160432Y-97125000D01*
X97968958Y-97104531D01*
X97792497Y-97046155D01*
X97632366Y-96951798D01*
X97490875Y-96821177D01*
X96276887Y-95433762D01*
X96251803Y-95403197D01*
X96245914Y-95398364D01*
X96242308Y-95394243D01*
X96231019Y-95382897D01*
X96088516Y-95256943D01*
X96062071Y-95239018D01*
X95892296Y-95153300D01*
X95862172Y-95142664D01*
X95679750Y-95103538D01*
X95589278Y-95078587D01*
X95530009Y-95034366D01*
X95490864Y-94971632D01*
X95475000Y-94887305D01*
X95475000Y-92087310D01*
X95492486Y-91999401D01*
X95535310Y-91935310D01*
X95599401Y-91892486D01*
X95694298Y-91873610D01*
X95839040Y-91857110D01*
X95866630Y-91850736D01*
X96008821Y-91800354D01*
X96034268Y-91787935D01*
X96161471Y-91706842D01*
X96183471Y-91689014D01*
X96289158Y-91581372D01*
X96298502Y-91570706D01*
X97391837Y-90169871D01*
X97505285Y-90049137D01*
X97634190Y-89954484D01*
X97778176Y-89884891D01*
X97932429Y-89842681D01*
X98097526Y-89828787D01*
X109743831Y-89917351D01*
G36*
X109817723Y-98795668D02*
G01*
X109982301Y-98845036D01*
X110134048Y-98925635D01*
X110267106Y-99034356D01*
X110376336Y-99166999D01*
X110457513Y-99318437D01*
X110507510Y-99482832D01*
X110525000Y-99659978D01*
X110525000Y-105243860D01*
X110507594Y-105420584D01*
X110457836Y-105584617D01*
X110377032Y-105735789D01*
X110268291Y-105868291D01*
X110135789Y-105977032D01*
X109984617Y-106057836D01*
X109820584Y-106107594D01*
X109643860Y-106125000D01*
X98126710Y-106125000D01*
X97929386Y-106103244D01*
X97748072Y-106041257D01*
X97584627Y-105941264D01*
X97441918Y-105803257D01*
X96253679Y-104370379D01*
X96244355Y-104360315D01*
X96135372Y-104254922D01*
X96113710Y-104238150D01*
X95984385Y-104159031D01*
X95959588Y-104147380D01*
X95816132Y-104098335D01*
X95789393Y-104092367D01*
X95644078Y-104076346D01*
X95549401Y-104057514D01*
X95485310Y-104014690D01*
X95442486Y-103950599D01*
X95425000Y-103862690D01*
X95425000Y-101087310D01*
X95442486Y-100999401D01*
X95485310Y-100935310D01*
X95549401Y-100892486D01*
X95644298Y-100873610D01*
X95789040Y-100857110D01*
X95816630Y-100850736D01*
X95958821Y-100800354D01*
X95984268Y-100787935D01*
X96111471Y-100706842D01*
X96133471Y-100689014D01*
X96239158Y-100581372D01*
X96248502Y-100570706D01*
X97346233Y-99164239D01*
X97458140Y-99044871D01*
X97585119Y-98950962D01*
X97726922Y-98881421D01*
X97878920Y-98838520D01*
X98041805Y-98823123D01*
X109640505Y-98778853D01*
X109817723Y-98795668D01*
G37*
X109817723Y-98795668D02*
X109982301Y-98845036D01*
X110134048Y-98925635D01*
X110267106Y-99034356D01*
X110376336Y-99166999D01*
X110457513Y-99318437D01*
X110507510Y-99482832D01*
X110525000Y-99659978D01*
X110525000Y-105243860D01*
X110507594Y-105420584D01*
X110457836Y-105584617D01*
X110377032Y-105735789D01*
X110268291Y-105868291D01*
X110135789Y-105977032D01*
X109984617Y-106057836D01*
X109820584Y-106107594D01*
X109643860Y-106125000D01*
X98126710Y-106125000D01*
X97929386Y-106103244D01*
X97748072Y-106041257D01*
X97584627Y-105941264D01*
X97441918Y-105803257D01*
X96253679Y-104370379D01*
X96244355Y-104360315D01*
X96135372Y-104254922D01*
X96113710Y-104238150D01*
X95984385Y-104159031D01*
X95959588Y-104147380D01*
X95816132Y-104098335D01*
X95789393Y-104092367D01*
X95644078Y-104076346D01*
X95549401Y-104057514D01*
X95485310Y-104014690D01*
X95442486Y-103950599D01*
X95425000Y-103862690D01*
X95425000Y-101087310D01*
X95442486Y-100999401D01*
X95485310Y-100935310D01*
X95549401Y-100892486D01*
X95644298Y-100873610D01*
X95789040Y-100857110D01*
X95816630Y-100850736D01*
X95958821Y-100800354D01*
X95984268Y-100787935D01*
X96111471Y-100706842D01*
X96133471Y-100689014D01*
X96239158Y-100581372D01*
X96248502Y-100570706D01*
X97346233Y-99164239D01*
X97458140Y-99044871D01*
X97585119Y-98950962D01*
X97726922Y-98881421D01*
X97878920Y-98838520D01*
X98041805Y-98823123D01*
X109640505Y-98778853D01*
X109817723Y-98795668D01*
G36*
X109817723Y-107845668D02*
G01*
X109982301Y-107895036D01*
X110134048Y-107975635D01*
X110267106Y-108084356D01*
X110376336Y-108216999D01*
X110457513Y-108368437D01*
X110507510Y-108532832D01*
X110525000Y-108709978D01*
X110525000Y-114293860D01*
X110507594Y-114470584D01*
X110457836Y-114634617D01*
X110377032Y-114785789D01*
X110268291Y-114918291D01*
X110135789Y-115027032D01*
X109984617Y-115107836D01*
X109820584Y-115157594D01*
X109643860Y-115175000D01*
X98126710Y-115175000D01*
X97929386Y-115153244D01*
X97748072Y-115091257D01*
X97584627Y-114991264D01*
X97441918Y-114853257D01*
X96350554Y-113537199D01*
X96344325Y-113516665D01*
X96304883Y-113442875D01*
X96251803Y-113378197D01*
X96187125Y-113325117D01*
X96113335Y-113285675D01*
X96106055Y-113283467D01*
X95984385Y-113209031D01*
X95959588Y-113197380D01*
X95816132Y-113148335D01*
X95789393Y-113142367D01*
X95644078Y-113126346D01*
X95549401Y-113107514D01*
X95485310Y-113064690D01*
X95442486Y-113000599D01*
X95425000Y-112912690D01*
X95425000Y-110137310D01*
X95442486Y-110049401D01*
X95485310Y-109985310D01*
X95549401Y-109942486D01*
X95644298Y-109923610D01*
X95789040Y-109907110D01*
X95816630Y-109900736D01*
X95958821Y-109850354D01*
X95984268Y-109837935D01*
X96111471Y-109756842D01*
X96133471Y-109739014D01*
X96239158Y-109631372D01*
X96248502Y-109620706D01*
X97346233Y-108214239D01*
X97458140Y-108094871D01*
X97585119Y-108000962D01*
X97726922Y-107931421D01*
X97878920Y-107888520D01*
X98041805Y-107873123D01*
X109640505Y-107828853D01*
X109817723Y-107845668D01*
G37*
X109817723Y-107845668D02*
X109982301Y-107895036D01*
X110134048Y-107975635D01*
X110267106Y-108084356D01*
X110376336Y-108216999D01*
X110457513Y-108368437D01*
X110507510Y-108532832D01*
X110525000Y-108709978D01*
X110525000Y-114293860D01*
X110507594Y-114470584D01*
X110457836Y-114634617D01*
X110377032Y-114785789D01*
X110268291Y-114918291D01*
X110135789Y-115027032D01*
X109984617Y-115107836D01*
X109820584Y-115157594D01*
X109643860Y-115175000D01*
X98126710Y-115175000D01*
X97929386Y-115153244D01*
X97748072Y-115091257D01*
X97584627Y-114991264D01*
X97441918Y-114853257D01*
X96350554Y-113537199D01*
X96344325Y-113516665D01*
X96304883Y-113442875D01*
X96251803Y-113378197D01*
X96187125Y-113325117D01*
X96113335Y-113285675D01*
X96106055Y-113283467D01*
X95984385Y-113209031D01*
X95959588Y-113197380D01*
X95816132Y-113148335D01*
X95789393Y-113142367D01*
X95644078Y-113126346D01*
X95549401Y-113107514D01*
X95485310Y-113064690D01*
X95442486Y-113000599D01*
X95425000Y-112912690D01*
X95425000Y-110137310D01*
X95442486Y-110049401D01*
X95485310Y-109985310D01*
X95549401Y-109942486D01*
X95644298Y-109923610D01*
X95789040Y-109907110D01*
X95816630Y-109900736D01*
X95958821Y-109850354D01*
X95984268Y-109837935D01*
X96111471Y-109756842D01*
X96133471Y-109739014D01*
X96239158Y-109631372D01*
X96248502Y-109620706D01*
X97346233Y-108214239D01*
X97458140Y-108094871D01*
X97585119Y-108000962D01*
X97726922Y-107931421D01*
X97878920Y-107888520D01*
X98041805Y-107873123D01*
X109640505Y-107828853D01*
X109817723Y-107845668D01*
G36*
X91196780Y-91838820D02*
G01*
X91286959Y-91876173D01*
X91364402Y-91935598D01*
X91423827Y-92013041D01*
X91461180Y-92103220D01*
X91475000Y-92208196D01*
X91475000Y-95790162D01*
X91457611Y-95899949D01*
X91411669Y-95990116D01*
X91340116Y-96061669D01*
X91249949Y-96107611D01*
X91150000Y-96123442D01*
X91050051Y-96107611D01*
X90959884Y-96061669D01*
X90888331Y-95990116D01*
X90842389Y-95899949D01*
X90825000Y-95790162D01*
X90825000Y-94150000D01*
X90823931Y-94133684D01*
X90806894Y-94004274D01*
X90798448Y-93972755D01*
X90748498Y-93852165D01*
X90732182Y-93823904D01*
X90652722Y-93720351D01*
X90629649Y-93697278D01*
X90526096Y-93617818D01*
X90497835Y-93601502D01*
X90377245Y-93551552D01*
X90345726Y-93543106D01*
X90216316Y-93526069D01*
X90200000Y-93525000D01*
X89693909Y-93525000D01*
X89551828Y-93501261D01*
X88387268Y-93100944D01*
X88276653Y-93042502D01*
X88195996Y-92960119D01*
X88144310Y-92857066D01*
X88125000Y-92733455D01*
X88125000Y-92208196D01*
X88138820Y-92103220D01*
X88176173Y-92013041D01*
X88235598Y-91935598D01*
X88313041Y-91876173D01*
X88403220Y-91838820D01*
X88508196Y-91825000D01*
X91091804Y-91825000D01*
X91196780Y-91838820D01*
G37*
X91196780Y-91838820D02*
X91286959Y-91876173D01*
X91364402Y-91935598D01*
X91423827Y-92013041D01*
X91461180Y-92103220D01*
X91475000Y-92208196D01*
X91475000Y-95790162D01*
X91457611Y-95899949D01*
X91411669Y-95990116D01*
X91340116Y-96061669D01*
X91249949Y-96107611D01*
X91150000Y-96123442D01*
X91050051Y-96107611D01*
X90959884Y-96061669D01*
X90888331Y-95990116D01*
X90842389Y-95899949D01*
X90825000Y-95790162D01*
X90825000Y-94150000D01*
X90823931Y-94133684D01*
X90806894Y-94004274D01*
X90798448Y-93972755D01*
X90748498Y-93852165D01*
X90732182Y-93823904D01*
X90652722Y-93720351D01*
X90629649Y-93697278D01*
X90526096Y-93617818D01*
X90497835Y-93601502D01*
X90377245Y-93551552D01*
X90345726Y-93543106D01*
X90216316Y-93526069D01*
X90200000Y-93525000D01*
X89693909Y-93525000D01*
X89551828Y-93501261D01*
X88387268Y-93100944D01*
X88276653Y-93042502D01*
X88195996Y-92960119D01*
X88144310Y-92857066D01*
X88125000Y-92733455D01*
X88125000Y-92208196D01*
X88138820Y-92103220D01*
X88176173Y-92013041D01*
X88235598Y-91935598D01*
X88313041Y-91876173D01*
X88403220Y-91838820D01*
X88508196Y-91825000D01*
X91091804Y-91825000D01*
X91196780Y-91838820D01*
G36*
X91296780Y-100838820D02*
G01*
X91386959Y-100876173D01*
X91464402Y-100935598D01*
X91523827Y-101013041D01*
X91561180Y-101103220D01*
X91575000Y-101208196D01*
X91575000Y-104790162D01*
X91557611Y-104899949D01*
X91511669Y-104990116D01*
X91440116Y-105061669D01*
X91349949Y-105107611D01*
X91250000Y-105123442D01*
X91150051Y-105107611D01*
X91059884Y-105061669D01*
X90988331Y-104990116D01*
X90942389Y-104899949D01*
X90925000Y-104790162D01*
X90925000Y-103150000D01*
X90923931Y-103133684D01*
X90906894Y-103004274D01*
X90898448Y-102972755D01*
X90848498Y-102852165D01*
X90832182Y-102823904D01*
X90752722Y-102720351D01*
X90729649Y-102697278D01*
X90626096Y-102617818D01*
X90597835Y-102601502D01*
X90477245Y-102551552D01*
X90445726Y-102543106D01*
X90316316Y-102526069D01*
X90300000Y-102525000D01*
X88808196Y-102525000D01*
X88703220Y-102511180D01*
X88613041Y-102473827D01*
X88535598Y-102414402D01*
X88476173Y-102336959D01*
X88438820Y-102246780D01*
X88425000Y-102141804D01*
X88425000Y-101722610D01*
X88440821Y-101610449D01*
X88483430Y-101515135D01*
X88550743Y-101435322D01*
X88644867Y-101372316D01*
X89695009Y-100865351D01*
X89780929Y-100835217D01*
X89871413Y-100825000D01*
X91191804Y-100825000D01*
X91296780Y-100838820D01*
G37*
X91296780Y-100838820D02*
X91386959Y-100876173D01*
X91464402Y-100935598D01*
X91523827Y-101013041D01*
X91561180Y-101103220D01*
X91575000Y-101208196D01*
X91575000Y-104790162D01*
X91557611Y-104899949D01*
X91511669Y-104990116D01*
X91440116Y-105061669D01*
X91349949Y-105107611D01*
X91250000Y-105123442D01*
X91150051Y-105107611D01*
X91059884Y-105061669D01*
X90988331Y-104990116D01*
X90942389Y-104899949D01*
X90925000Y-104790162D01*
X90925000Y-103150000D01*
X90923931Y-103133684D01*
X90906894Y-103004274D01*
X90898448Y-102972755D01*
X90848498Y-102852165D01*
X90832182Y-102823904D01*
X90752722Y-102720351D01*
X90729649Y-102697278D01*
X90626096Y-102617818D01*
X90597835Y-102601502D01*
X90477245Y-102551552D01*
X90445726Y-102543106D01*
X90316316Y-102526069D01*
X90300000Y-102525000D01*
X88808196Y-102525000D01*
X88703220Y-102511180D01*
X88613041Y-102473827D01*
X88535598Y-102414402D01*
X88476173Y-102336959D01*
X88438820Y-102246780D01*
X88425000Y-102141804D01*
X88425000Y-101722610D01*
X88440821Y-101610449D01*
X88483430Y-101515135D01*
X88550743Y-101435322D01*
X88644867Y-101372316D01*
X89695009Y-100865351D01*
X89780929Y-100835217D01*
X89871413Y-100825000D01*
X91191804Y-100825000D01*
X91296780Y-100838820D01*
G36*
X91296780Y-109838820D02*
G01*
X91386959Y-109876173D01*
X91464402Y-109935598D01*
X91523827Y-110013041D01*
X91561180Y-110103220D01*
X91575000Y-110208196D01*
X91575000Y-113790162D01*
X91557611Y-113899949D01*
X91511669Y-113990116D01*
X91440116Y-114061669D01*
X91349949Y-114107611D01*
X91250000Y-114123442D01*
X91150051Y-114107611D01*
X91059884Y-114061669D01*
X90988331Y-113990116D01*
X90942389Y-113899949D01*
X90925000Y-113790162D01*
X90925000Y-112200000D01*
X90923931Y-112183684D01*
X90906894Y-112054274D01*
X90898448Y-112022755D01*
X90848498Y-111902165D01*
X90832182Y-111873904D01*
X90752722Y-111770351D01*
X90729649Y-111747278D01*
X90626096Y-111667818D01*
X90597835Y-111651502D01*
X90477245Y-111601552D01*
X90445726Y-111593106D01*
X90316316Y-111576069D01*
X90300000Y-111575000D01*
X88608196Y-111575000D01*
X88503220Y-111561180D01*
X88413041Y-111523827D01*
X88335598Y-111464402D01*
X88276173Y-111386959D01*
X88238820Y-111296780D01*
X88225000Y-111191804D01*
X88225000Y-110776696D01*
X88241142Y-110663428D01*
X88284593Y-110567336D01*
X88353156Y-110487211D01*
X88448860Y-110424523D01*
X88534799Y-110384239D01*
X88555961Y-110382155D01*
X88638618Y-110357081D01*
X88714796Y-110316363D01*
X88761672Y-110277892D01*
X89645996Y-109863366D01*
X89730008Y-109834707D01*
X89818228Y-109825000D01*
X91191804Y-109825000D01*
X91296780Y-109838820D01*
G37*
X91296780Y-109838820D02*
X91386959Y-109876173D01*
X91464402Y-109935598D01*
X91523827Y-110013041D01*
X91561180Y-110103220D01*
X91575000Y-110208196D01*
X91575000Y-113790162D01*
X91557611Y-113899949D01*
X91511669Y-113990116D01*
X91440116Y-114061669D01*
X91349949Y-114107611D01*
X91250000Y-114123442D01*
X91150051Y-114107611D01*
X91059884Y-114061669D01*
X90988331Y-113990116D01*
X90942389Y-113899949D01*
X90925000Y-113790162D01*
X90925000Y-112200000D01*
X90923931Y-112183684D01*
X90906894Y-112054274D01*
X90898448Y-112022755D01*
X90848498Y-111902165D01*
X90832182Y-111873904D01*
X90752722Y-111770351D01*
X90729649Y-111747278D01*
X90626096Y-111667818D01*
X90597835Y-111651502D01*
X90477245Y-111601552D01*
X90445726Y-111593106D01*
X90316316Y-111576069D01*
X90300000Y-111575000D01*
X88608196Y-111575000D01*
X88503220Y-111561180D01*
X88413041Y-111523827D01*
X88335598Y-111464402D01*
X88276173Y-111386959D01*
X88238820Y-111296780D01*
X88225000Y-111191804D01*
X88225000Y-110776696D01*
X88241142Y-110663428D01*
X88284593Y-110567336D01*
X88353156Y-110487211D01*
X88448860Y-110424523D01*
X88534799Y-110384239D01*
X88555961Y-110382155D01*
X88638618Y-110357081D01*
X88714796Y-110316363D01*
X88761672Y-110277892D01*
X89645996Y-109863366D01*
X89730008Y-109834707D01*
X89818228Y-109825000D01*
X91191804Y-109825000D01*
X91296780Y-109838820D01*
G36*
X93546780Y-93788820D02*
G01*
X93636959Y-93826173D01*
X93714402Y-93885598D01*
X93773827Y-93963041D01*
X93811180Y-94053220D01*
X93825000Y-94158196D01*
X93825000Y-96084335D01*
X93806563Y-96205191D01*
X93752924Y-96315063D01*
X93486130Y-96700432D01*
X93476575Y-96716744D01*
X93410414Y-96852265D01*
X93401874Y-96875233D01*
X93399173Y-96888253D01*
X93376430Y-97037337D01*
X93375000Y-97056188D01*
X93375000Y-99591804D01*
X93361180Y-99696780D01*
X93323827Y-99786959D01*
X93264402Y-99864402D01*
X93186959Y-99923827D01*
X93096780Y-99961180D01*
X93000000Y-99973921D01*
X92903220Y-99961180D01*
X92813041Y-99923827D01*
X92735598Y-99864402D01*
X92676173Y-99786959D01*
X92638820Y-99696780D01*
X92625000Y-99591804D01*
X92625000Y-96986607D01*
X92623166Y-96965273D01*
X92594037Y-96797105D01*
X92588589Y-96776397D01*
X92400461Y-96249638D01*
X92375000Y-96102647D01*
X92375000Y-94158196D01*
X92388820Y-94053220D01*
X92426173Y-93963041D01*
X92485598Y-93885598D01*
X92563041Y-93826173D01*
X92653220Y-93788820D01*
X92758196Y-93775000D01*
X93441804Y-93775000D01*
X93546780Y-93788820D01*
G37*
X93546780Y-93788820D02*
X93636959Y-93826173D01*
X93714402Y-93885598D01*
X93773827Y-93963041D01*
X93811180Y-94053220D01*
X93825000Y-94158196D01*
X93825000Y-96084335D01*
X93806563Y-96205191D01*
X93752924Y-96315063D01*
X93486130Y-96700432D01*
X93476575Y-96716744D01*
X93410414Y-96852265D01*
X93401874Y-96875233D01*
X93399173Y-96888253D01*
X93376430Y-97037337D01*
X93375000Y-97056188D01*
X93375000Y-99591804D01*
X93361180Y-99696780D01*
X93323827Y-99786959D01*
X93264402Y-99864402D01*
X93186959Y-99923827D01*
X93096780Y-99961180D01*
X93000000Y-99973921D01*
X92903220Y-99961180D01*
X92813041Y-99923827D01*
X92735598Y-99864402D01*
X92676173Y-99786959D01*
X92638820Y-99696780D01*
X92625000Y-99591804D01*
X92625000Y-96986607D01*
X92623166Y-96965273D01*
X92594037Y-96797105D01*
X92588589Y-96776397D01*
X92400461Y-96249638D01*
X92375000Y-96102647D01*
X92375000Y-94158196D01*
X92388820Y-94053220D01*
X92426173Y-93963041D01*
X92485598Y-93885598D01*
X92563041Y-93826173D01*
X92653220Y-93788820D01*
X92758196Y-93775000D01*
X93441804Y-93775000D01*
X93546780Y-93788820D01*
G36*
X93542339Y-102795088D02*
G01*
X93633768Y-102831782D01*
X93712437Y-102891083D01*
X93772887Y-102968872D01*
X93810923Y-103059750D01*
X93825000Y-103165673D01*
X93825000Y-105084335D01*
X93806563Y-105205191D01*
X93752924Y-105315063D01*
X93486130Y-105700432D01*
X93476575Y-105716744D01*
X93410414Y-105852265D01*
X93401874Y-105875233D01*
X93399173Y-105888253D01*
X93376430Y-106037337D01*
X93375000Y-106056188D01*
X93375000Y-108591804D01*
X93361180Y-108696780D01*
X93323827Y-108786959D01*
X93264402Y-108864402D01*
X93186959Y-108923827D01*
X93096780Y-108961180D01*
X93000000Y-108973921D01*
X92903220Y-108961180D01*
X92813041Y-108923827D01*
X92735598Y-108864402D01*
X92676173Y-108786959D01*
X92638820Y-108696780D01*
X92625000Y-108591804D01*
X92625000Y-105989618D01*
X92623039Y-105967565D01*
X92591913Y-105793908D01*
X92586093Y-105772547D01*
X92402204Y-105276043D01*
X92375000Y-105124270D01*
X92375000Y-103177448D01*
X92394470Y-103053337D01*
X92446569Y-102949962D01*
X92527822Y-102867505D01*
X92630422Y-102813890D01*
X92754230Y-102792598D01*
X93436215Y-102782569D01*
X93542339Y-102795088D01*
G37*
X93542339Y-102795088D02*
X93633768Y-102831782D01*
X93712437Y-102891083D01*
X93772887Y-102968872D01*
X93810923Y-103059750D01*
X93825000Y-103165673D01*
X93825000Y-105084335D01*
X93806563Y-105205191D01*
X93752924Y-105315063D01*
X93486130Y-105700432D01*
X93476575Y-105716744D01*
X93410414Y-105852265D01*
X93401874Y-105875233D01*
X93399173Y-105888253D01*
X93376430Y-106037337D01*
X93375000Y-106056188D01*
X93375000Y-108591804D01*
X93361180Y-108696780D01*
X93323827Y-108786959D01*
X93264402Y-108864402D01*
X93186959Y-108923827D01*
X93096780Y-108961180D01*
X93000000Y-108973921D01*
X92903220Y-108961180D01*
X92813041Y-108923827D01*
X92735598Y-108864402D01*
X92676173Y-108786959D01*
X92638820Y-108696780D01*
X92625000Y-108591804D01*
X92625000Y-105989618D01*
X92623039Y-105967565D01*
X92591913Y-105793908D01*
X92586093Y-105772547D01*
X92402204Y-105276043D01*
X92375000Y-105124270D01*
X92375000Y-103177448D01*
X92394470Y-103053337D01*
X92446569Y-102949962D01*
X92527822Y-102867505D01*
X92630422Y-102813890D01*
X92754230Y-102792598D01*
X93436215Y-102782569D01*
X93542339Y-102795088D01*
G36*
X93542339Y-111795088D02*
G01*
X93633768Y-111831782D01*
X93712437Y-111891083D01*
X93772887Y-111968872D01*
X93810923Y-112059750D01*
X93825000Y-112165673D01*
X93825000Y-114084335D01*
X93806563Y-114205191D01*
X93752924Y-114315063D01*
X93486130Y-114700432D01*
X93476575Y-114716744D01*
X93410414Y-114852265D01*
X93401874Y-114875233D01*
X93399173Y-114888253D01*
X93376430Y-115037337D01*
X93375000Y-115056188D01*
X93375000Y-117591804D01*
X93361180Y-117696780D01*
X93323827Y-117786959D01*
X93264402Y-117864402D01*
X93186959Y-117923827D01*
X93096780Y-117961180D01*
X93000000Y-117973921D01*
X92903220Y-117961180D01*
X92813041Y-117923827D01*
X92735598Y-117864402D01*
X92676173Y-117786959D01*
X92638820Y-117696780D01*
X92625000Y-117591804D01*
X92625000Y-114989618D01*
X92623039Y-114967565D01*
X92591913Y-114793908D01*
X92586093Y-114772547D01*
X92402204Y-114276043D01*
X92375000Y-114124270D01*
X92375000Y-112177448D01*
X92394470Y-112053337D01*
X92446569Y-111949962D01*
X92527822Y-111867505D01*
X92630422Y-111813890D01*
X92754230Y-111792598D01*
X93436215Y-111782569D01*
X93542339Y-111795088D01*
G37*
X93542339Y-111795088D02*
X93633768Y-111831782D01*
X93712437Y-111891083D01*
X93772887Y-111968872D01*
X93810923Y-112059750D01*
X93825000Y-112165673D01*
X93825000Y-114084335D01*
X93806563Y-114205191D01*
X93752924Y-114315063D01*
X93486130Y-114700432D01*
X93476575Y-114716744D01*
X93410414Y-114852265D01*
X93401874Y-114875233D01*
X93399173Y-114888253D01*
X93376430Y-115037337D01*
X93375000Y-115056188D01*
X93375000Y-117591804D01*
X93361180Y-117696780D01*
X93323827Y-117786959D01*
X93264402Y-117864402D01*
X93186959Y-117923827D01*
X93096780Y-117961180D01*
X93000000Y-117973921D01*
X92903220Y-117961180D01*
X92813041Y-117923827D01*
X92735598Y-117864402D01*
X92676173Y-117786959D01*
X92638820Y-117696780D01*
X92625000Y-117591804D01*
X92625000Y-114989618D01*
X92623039Y-114967565D01*
X92591913Y-114793908D01*
X92586093Y-114772547D01*
X92402204Y-114276043D01*
X92375000Y-114124270D01*
X92375000Y-112177448D01*
X92394470Y-112053337D01*
X92446569Y-111949962D01*
X92527822Y-111867505D01*
X92630422Y-111813890D01*
X92754230Y-111792598D01*
X93436215Y-111782569D01*
X93542339Y-111795088D01*
G36*
X86986959Y-97076173D02*
G01*
X87064402Y-97135598D01*
X87123827Y-97213041D01*
X87161180Y-97303220D01*
X87175000Y-97408196D01*
X87175000Y-99641804D01*
X87161180Y-99746780D01*
X87123827Y-99836959D01*
X87064402Y-99914402D01*
X86986959Y-99973827D01*
X86896780Y-100011180D01*
X86791804Y-100025000D01*
X84808196Y-100025000D01*
X84703220Y-100011180D01*
X84613041Y-99973827D01*
X84535598Y-99914402D01*
X84476173Y-99836959D01*
X84438820Y-99746780D01*
X84425000Y-99641804D01*
X84425000Y-97408196D01*
X84438820Y-97303220D01*
X84476173Y-97213041D01*
X84535598Y-97135598D01*
X84613041Y-97076173D01*
X84638784Y-97065510D01*
X86961216Y-97065510D01*
X86986959Y-97076173D01*
G37*
X86986959Y-97076173D02*
X87064402Y-97135598D01*
X87123827Y-97213041D01*
X87161180Y-97303220D01*
X87175000Y-97408196D01*
X87175000Y-99641804D01*
X87161180Y-99746780D01*
X87123827Y-99836959D01*
X87064402Y-99914402D01*
X86986959Y-99973827D01*
X86896780Y-100011180D01*
X86791804Y-100025000D01*
X84808196Y-100025000D01*
X84703220Y-100011180D01*
X84613041Y-99973827D01*
X84535598Y-99914402D01*
X84476173Y-99836959D01*
X84438820Y-99746780D01*
X84425000Y-99641804D01*
X84425000Y-97408196D01*
X84438820Y-97303220D01*
X84476173Y-97213041D01*
X84535598Y-97135598D01*
X84613041Y-97076173D01*
X84638784Y-97065510D01*
X86961216Y-97065510D01*
X86986959Y-97076173D01*
G36*
X87123827Y-106113041D02*
G01*
X87161180Y-106203220D01*
X87175000Y-106308196D01*
X87175000Y-108541804D01*
X87161180Y-108646780D01*
X87123827Y-108736959D01*
X87064402Y-108814402D01*
X86986959Y-108873827D01*
X86896780Y-108911180D01*
X86791804Y-108925000D01*
X84808196Y-108925000D01*
X84703220Y-108911180D01*
X84613041Y-108873827D01*
X84535598Y-108814402D01*
X84476173Y-108736959D01*
X84438820Y-108646780D01*
X84425000Y-108541804D01*
X84425000Y-106308196D01*
X84438820Y-106203220D01*
X84476173Y-106113041D01*
X84505364Y-106074999D01*
X87094636Y-106074999D01*
X87123827Y-106113041D01*
G37*
X87123827Y-106113041D02*
X87161180Y-106203220D01*
X87175000Y-106308196D01*
X87175000Y-108541804D01*
X87161180Y-108646780D01*
X87123827Y-108736959D01*
X87064402Y-108814402D01*
X86986959Y-108873827D01*
X86896780Y-108911180D01*
X86791804Y-108925000D01*
X84808196Y-108925000D01*
X84703220Y-108911180D01*
X84613041Y-108873827D01*
X84535598Y-108814402D01*
X84476173Y-108736959D01*
X84438820Y-108646780D01*
X84425000Y-108541804D01*
X84425000Y-106308196D01*
X84438820Y-106203220D01*
X84476173Y-106113041D01*
X84505364Y-106074999D01*
X87094636Y-106074999D01*
X87123827Y-106113041D01*
G36*
X86896780Y-115038820D02*
G01*
X86986959Y-115076173D01*
X87064402Y-115135598D01*
X87123827Y-115213041D01*
X87161180Y-115303220D01*
X87175000Y-115408196D01*
X87175000Y-117641804D01*
X87161180Y-117746780D01*
X87123827Y-117836959D01*
X87064402Y-117914402D01*
X86986959Y-117973827D01*
X86984125Y-117975001D01*
X84615875Y-117975001D01*
X84613041Y-117973827D01*
X84535598Y-117914402D01*
X84476173Y-117836959D01*
X84438820Y-117746780D01*
X84425000Y-117641804D01*
X84425000Y-115408196D01*
X84438820Y-115303220D01*
X84476173Y-115213041D01*
X84535598Y-115135598D01*
X84613041Y-115076173D01*
X84703220Y-115038820D01*
X84808196Y-115025000D01*
X86791804Y-115025000D01*
X86896780Y-115038820D01*
G37*
X86896780Y-115038820D02*
X86986959Y-115076173D01*
X87064402Y-115135598D01*
X87123827Y-115213041D01*
X87161180Y-115303220D01*
X87175000Y-115408196D01*
X87175000Y-117641804D01*
X87161180Y-117746780D01*
X87123827Y-117836959D01*
X87064402Y-117914402D01*
X86986959Y-117973827D01*
X86984125Y-117975001D01*
X84615875Y-117975001D01*
X84613041Y-117973827D01*
X84535598Y-117914402D01*
X84476173Y-117836959D01*
X84438820Y-117746780D01*
X84425000Y-117641804D01*
X84425000Y-115408196D01*
X84438820Y-115303220D01*
X84476173Y-115213041D01*
X84535598Y-115135598D01*
X84613041Y-115076173D01*
X84703220Y-115038820D01*
X84808196Y-115025000D01*
X86791804Y-115025000D01*
X86896780Y-115038820D01*
M02*
