G04 #@! TF.GenerationSoftware,KiCad,Pcbnew,(5.1.5)-3*
G04 #@! TF.CreationDate,2020-02-07T19:54:23-03:30*
G04 #@! TF.ProjectId,MCU_Powertrain,4d43555f-506f-4776-9572-747261696e2e,rev?*
G04 #@! TF.SameCoordinates,Original*
G04 #@! TF.FileFunction,Soldermask,Bot*
G04 #@! TF.FilePolarity,Negative*
%FSLAX46Y46*%
G04 Gerber Fmt 4.6, Leading zero omitted, Abs format (unit mm)*
G04 Created by KiCad (PCBNEW (5.1.5)-3) date 2020-02-07 19:54:23*
%MOMM*%
%LPD*%
G04 APERTURE LIST*
%ADD10C,0.100000*%
G04 APERTURE END LIST*
D10*
G36*
X107889943Y-123066248D02*
G01*
X108445189Y-123296238D01*
X108693347Y-123462052D01*
X108944899Y-123630134D01*
X109369866Y-124055101D01*
X109518440Y-124277458D01*
X109703762Y-124554811D01*
X109933752Y-125110057D01*
X110051000Y-125699501D01*
X110051000Y-126300499D01*
X109933752Y-126889943D01*
X109703762Y-127445189D01*
X109703761Y-127445190D01*
X109369866Y-127944899D01*
X108944899Y-128369866D01*
X108804573Y-128463629D01*
X108445189Y-128703762D01*
X107889943Y-128933752D01*
X107300499Y-129051000D01*
X106699501Y-129051000D01*
X106110057Y-128933752D01*
X105554811Y-128703762D01*
X105195427Y-128463629D01*
X105055101Y-128369866D01*
X104630134Y-127944899D01*
X104296239Y-127445190D01*
X104296238Y-127445189D01*
X104066248Y-126889943D01*
X103949000Y-126300499D01*
X103949000Y-125699501D01*
X104066248Y-125110057D01*
X104296238Y-124554811D01*
X104481560Y-124277458D01*
X104630134Y-124055101D01*
X105055101Y-123630134D01*
X105306653Y-123462052D01*
X105554811Y-123296238D01*
X106110057Y-123066248D01*
X106699501Y-122949000D01*
X107300499Y-122949000D01*
X107889943Y-123066248D01*
G37*
G36*
X10339943Y-123066248D02*
G01*
X10895189Y-123296238D01*
X11143347Y-123462052D01*
X11394899Y-123630134D01*
X11819866Y-124055101D01*
X11968440Y-124277458D01*
X12153762Y-124554811D01*
X12383752Y-125110057D01*
X12501000Y-125699501D01*
X12501000Y-126300499D01*
X12383752Y-126889943D01*
X12153762Y-127445189D01*
X12153761Y-127445190D01*
X11819866Y-127944899D01*
X11394899Y-128369866D01*
X11254573Y-128463629D01*
X10895189Y-128703762D01*
X10339943Y-128933752D01*
X9750499Y-129051000D01*
X9149501Y-129051000D01*
X8560057Y-128933752D01*
X8004811Y-128703762D01*
X7645427Y-128463629D01*
X7505101Y-128369866D01*
X7080134Y-127944899D01*
X6746239Y-127445190D01*
X6746238Y-127445189D01*
X6516248Y-126889943D01*
X6399000Y-126300499D01*
X6399000Y-125699501D01*
X6516248Y-125110057D01*
X6746238Y-124554811D01*
X6931560Y-124277458D01*
X7080134Y-124055101D01*
X7505101Y-123630134D01*
X7756653Y-123462052D01*
X8004811Y-123296238D01*
X8560057Y-123066248D01*
X9149501Y-122949000D01*
X9750499Y-122949000D01*
X10339943Y-123066248D01*
G37*
G36*
X15856564Y-126264389D02*
G01*
X16047833Y-126343615D01*
X16047835Y-126343616D01*
X16057859Y-126350314D01*
X16219973Y-126458635D01*
X16366365Y-126605027D01*
X16481385Y-126777167D01*
X16560611Y-126968436D01*
X16601000Y-127171484D01*
X16601000Y-127378516D01*
X16560611Y-127581564D01*
X16502216Y-127722542D01*
X16481384Y-127772835D01*
X16366365Y-127944973D01*
X16219973Y-128091365D01*
X16047835Y-128206384D01*
X16047834Y-128206385D01*
X16047833Y-128206385D01*
X15856564Y-128285611D01*
X15653516Y-128326000D01*
X15446484Y-128326000D01*
X15243436Y-128285611D01*
X15052167Y-128206385D01*
X15052166Y-128206385D01*
X15052165Y-128206384D01*
X14880027Y-128091365D01*
X14733635Y-127944973D01*
X14618616Y-127772835D01*
X14597784Y-127722542D01*
X14539389Y-127581564D01*
X14499000Y-127378516D01*
X14499000Y-127171484D01*
X14539389Y-126968436D01*
X14618615Y-126777167D01*
X14733635Y-126605027D01*
X14880027Y-126458635D01*
X15042141Y-126350314D01*
X15052165Y-126343616D01*
X15052167Y-126343615D01*
X15243436Y-126264389D01*
X15446484Y-126224000D01*
X15653516Y-126224000D01*
X15856564Y-126264389D01*
G37*
G36*
X27156564Y-125814389D02*
G01*
X27287074Y-125868448D01*
X27347835Y-125893616D01*
X27519973Y-126008635D01*
X27666365Y-126155027D01*
X27781385Y-126327167D01*
X27860611Y-126518436D01*
X27901000Y-126721484D01*
X27901000Y-126928516D01*
X27860611Y-127131564D01*
X27815415Y-127240676D01*
X27781384Y-127322835D01*
X27666365Y-127494973D01*
X27519973Y-127641365D01*
X27347835Y-127756384D01*
X27347834Y-127756385D01*
X27347833Y-127756385D01*
X27156564Y-127835611D01*
X26953516Y-127876000D01*
X26746484Y-127876000D01*
X26543436Y-127835611D01*
X26352167Y-127756385D01*
X26352166Y-127756385D01*
X26352165Y-127756384D01*
X26180027Y-127641365D01*
X26033635Y-127494973D01*
X25918616Y-127322835D01*
X25884585Y-127240676D01*
X25839389Y-127131564D01*
X25799000Y-126928516D01*
X25799000Y-126721484D01*
X25839389Y-126518436D01*
X25918615Y-126327167D01*
X26033635Y-126155027D01*
X26180027Y-126008635D01*
X26352165Y-125893616D01*
X26412926Y-125868448D01*
X26543436Y-125814389D01*
X26746484Y-125774000D01*
X26953516Y-125774000D01*
X27156564Y-125814389D01*
G37*
G36*
X15856564Y-122489389D02*
G01*
X16047833Y-122568615D01*
X16047835Y-122568616D01*
X16219973Y-122683635D01*
X16366365Y-122830027D01*
X16481385Y-123002167D01*
X16560611Y-123193436D01*
X16601000Y-123396484D01*
X16601000Y-123603516D01*
X16560611Y-123806564D01*
X16490701Y-123975342D01*
X16481384Y-123997835D01*
X16366365Y-124169973D01*
X16219973Y-124316365D01*
X16047835Y-124431384D01*
X16047834Y-124431385D01*
X16047833Y-124431385D01*
X15856564Y-124510611D01*
X15653516Y-124551000D01*
X15446484Y-124551000D01*
X15243436Y-124510611D01*
X15052167Y-124431385D01*
X15052166Y-124431385D01*
X15052165Y-124431384D01*
X14880027Y-124316365D01*
X14733635Y-124169973D01*
X14618616Y-123997835D01*
X14609299Y-123975342D01*
X14539389Y-123806564D01*
X14499000Y-123603516D01*
X14499000Y-123396484D01*
X14539389Y-123193436D01*
X14618615Y-123002167D01*
X14733635Y-122830027D01*
X14880027Y-122683635D01*
X15052165Y-122568616D01*
X15052167Y-122568615D01*
X15243436Y-122489389D01*
X15446484Y-122449000D01*
X15653516Y-122449000D01*
X15856564Y-122489389D01*
G37*
G36*
X33351000Y-122476000D02*
G01*
X32249000Y-122476000D01*
X32249000Y-121124000D01*
X33351000Y-121124000D01*
X33351000Y-122476000D01*
G37*
G36*
X31351000Y-122476000D02*
G01*
X30249000Y-122476000D01*
X30249000Y-121124000D01*
X31351000Y-121124000D01*
X31351000Y-122476000D01*
G37*
G36*
X23681564Y-119214389D02*
G01*
X23872833Y-119293615D01*
X23872835Y-119293616D01*
X24044973Y-119408635D01*
X24191365Y-119555027D01*
X24306385Y-119727167D01*
X24385611Y-119918436D01*
X24426000Y-120121484D01*
X24426000Y-120328516D01*
X24385611Y-120531564D01*
X24367205Y-120576000D01*
X24306384Y-120722835D01*
X24191365Y-120894973D01*
X24044973Y-121041365D01*
X23872835Y-121156384D01*
X23872834Y-121156385D01*
X23872833Y-121156385D01*
X23681564Y-121235611D01*
X23478516Y-121276000D01*
X23271484Y-121276000D01*
X23068436Y-121235611D01*
X22877167Y-121156385D01*
X22877166Y-121156385D01*
X22877165Y-121156384D01*
X22705027Y-121041365D01*
X22558635Y-120894973D01*
X22443616Y-120722835D01*
X22382795Y-120576000D01*
X22364389Y-120531564D01*
X22324000Y-120328516D01*
X22324000Y-120121484D01*
X22364389Y-119918436D01*
X22443615Y-119727167D01*
X22558635Y-119555027D01*
X22705027Y-119408635D01*
X22877165Y-119293616D01*
X22877167Y-119293615D01*
X23068436Y-119214389D01*
X23271484Y-119174000D01*
X23478516Y-119174000D01*
X23681564Y-119214389D01*
G37*
G36*
X31351000Y-120576000D02*
G01*
X30249000Y-120576000D01*
X30249000Y-119224000D01*
X31351000Y-119224000D01*
X31351000Y-120576000D01*
G37*
G36*
X33351000Y-120576000D02*
G01*
X32249000Y-120576000D01*
X32249000Y-119224000D01*
X33351000Y-119224000D01*
X33351000Y-120576000D01*
G37*
G36*
X42531564Y-118164389D02*
G01*
X42722833Y-118243615D01*
X42722835Y-118243616D01*
X42861941Y-118336564D01*
X42894973Y-118358635D01*
X43041365Y-118505027D01*
X43156385Y-118677167D01*
X43235611Y-118868436D01*
X43276000Y-119071484D01*
X43276000Y-119278516D01*
X43235611Y-119481564D01*
X43156385Y-119672833D01*
X43156384Y-119672835D01*
X43041365Y-119844973D01*
X42894973Y-119991365D01*
X42722835Y-120106384D01*
X42722834Y-120106385D01*
X42722833Y-120106385D01*
X42531564Y-120185611D01*
X42328516Y-120226000D01*
X42121484Y-120226000D01*
X41918436Y-120185611D01*
X41727167Y-120106385D01*
X41727166Y-120106385D01*
X41727165Y-120106384D01*
X41555027Y-119991365D01*
X41408635Y-119844973D01*
X41293616Y-119672835D01*
X41293615Y-119672833D01*
X41214389Y-119481564D01*
X41174000Y-119278516D01*
X41174000Y-119071484D01*
X41214389Y-118868436D01*
X41293615Y-118677167D01*
X41408635Y-118505027D01*
X41555027Y-118358635D01*
X41588059Y-118336564D01*
X41727165Y-118243616D01*
X41727167Y-118243615D01*
X41918436Y-118164389D01*
X42121484Y-118124000D01*
X42328516Y-118124000D01*
X42531564Y-118164389D01*
G37*
G36*
X108926564Y-117059389D02*
G01*
X109117833Y-117138615D01*
X109117835Y-117138616D01*
X109289973Y-117253635D01*
X109436365Y-117400027D01*
X109531339Y-117542165D01*
X109551385Y-117572167D01*
X109630611Y-117763436D01*
X109671000Y-117966484D01*
X109671000Y-118173516D01*
X109630611Y-118376564D01*
X109551385Y-118567833D01*
X109551384Y-118567835D01*
X109436365Y-118739973D01*
X109289973Y-118886365D01*
X109117835Y-119001384D01*
X109117834Y-119001385D01*
X109117833Y-119001385D01*
X108926564Y-119080611D01*
X108723516Y-119121000D01*
X108516484Y-119121000D01*
X108313436Y-119080611D01*
X108122167Y-119001385D01*
X108122166Y-119001385D01*
X108122165Y-119001384D01*
X107950027Y-118886365D01*
X107803635Y-118739973D01*
X107688616Y-118567835D01*
X107688615Y-118567833D01*
X107609389Y-118376564D01*
X107569000Y-118173516D01*
X107569000Y-117966484D01*
X107609389Y-117763436D01*
X107688615Y-117572167D01*
X107708662Y-117542165D01*
X107803635Y-117400027D01*
X107950027Y-117253635D01*
X108122165Y-117138616D01*
X108122167Y-117138615D01*
X108313436Y-117059389D01*
X108516484Y-117019000D01*
X108723516Y-117019000D01*
X108926564Y-117059389D01*
G37*
G36*
X101536564Y-117029389D02*
G01*
X101703693Y-117098616D01*
X101727835Y-117108616D01*
X101899973Y-117223635D01*
X102046365Y-117370027D01*
X102154704Y-117532167D01*
X102161385Y-117542167D01*
X102240611Y-117733436D01*
X102281000Y-117936484D01*
X102281000Y-118143516D01*
X102240611Y-118346564D01*
X102165527Y-118527833D01*
X102161384Y-118537835D01*
X102046365Y-118709973D01*
X101899973Y-118856365D01*
X101727835Y-118971384D01*
X101727834Y-118971385D01*
X101727833Y-118971385D01*
X101536564Y-119050611D01*
X101333516Y-119091000D01*
X101126484Y-119091000D01*
X100923436Y-119050611D01*
X100732167Y-118971385D01*
X100732166Y-118971385D01*
X100732165Y-118971384D01*
X100560027Y-118856365D01*
X100413635Y-118709973D01*
X100298616Y-118537835D01*
X100294473Y-118527833D01*
X100219389Y-118346564D01*
X100179000Y-118143516D01*
X100179000Y-117936484D01*
X100219389Y-117733436D01*
X100298615Y-117542167D01*
X100305297Y-117532167D01*
X100413635Y-117370027D01*
X100560027Y-117223635D01*
X100732165Y-117108616D01*
X100756307Y-117098616D01*
X100923436Y-117029389D01*
X101126484Y-116989000D01*
X101333516Y-116989000D01*
X101536564Y-117029389D01*
G37*
G36*
X97866564Y-117029389D02*
G01*
X98033693Y-117098616D01*
X98057835Y-117108616D01*
X98229973Y-117223635D01*
X98376365Y-117370027D01*
X98484704Y-117532167D01*
X98491385Y-117542167D01*
X98570611Y-117733436D01*
X98611000Y-117936484D01*
X98611000Y-118143516D01*
X98570611Y-118346564D01*
X98495527Y-118527833D01*
X98491384Y-118537835D01*
X98376365Y-118709973D01*
X98229973Y-118856365D01*
X98057835Y-118971384D01*
X98057834Y-118971385D01*
X98057833Y-118971385D01*
X97866564Y-119050611D01*
X97663516Y-119091000D01*
X97456484Y-119091000D01*
X97253436Y-119050611D01*
X97062167Y-118971385D01*
X97062166Y-118971385D01*
X97062165Y-118971384D01*
X96890027Y-118856365D01*
X96743635Y-118709973D01*
X96628616Y-118537835D01*
X96624473Y-118527833D01*
X96549389Y-118346564D01*
X96509000Y-118143516D01*
X96509000Y-117936484D01*
X96549389Y-117733436D01*
X96628615Y-117542167D01*
X96635297Y-117532167D01*
X96743635Y-117370027D01*
X96890027Y-117223635D01*
X97062165Y-117108616D01*
X97086307Y-117098616D01*
X97253436Y-117029389D01*
X97456484Y-116989000D01*
X97663516Y-116989000D01*
X97866564Y-117029389D01*
G37*
G36*
X105216564Y-117019389D02*
G01*
X105407833Y-117098615D01*
X105407835Y-117098616D01*
X105467699Y-117138616D01*
X105579973Y-117213635D01*
X105726365Y-117360027D01*
X105841385Y-117532167D01*
X105920611Y-117723436D01*
X105961000Y-117926484D01*
X105961000Y-118133516D01*
X105920611Y-118336564D01*
X105841385Y-118527833D01*
X105841384Y-118527835D01*
X105726365Y-118699973D01*
X105579973Y-118846365D01*
X105407835Y-118961384D01*
X105407834Y-118961385D01*
X105407833Y-118961385D01*
X105216564Y-119040611D01*
X105013516Y-119081000D01*
X104806484Y-119081000D01*
X104603436Y-119040611D01*
X104412167Y-118961385D01*
X104412166Y-118961385D01*
X104412165Y-118961384D01*
X104240027Y-118846365D01*
X104093635Y-118699973D01*
X103978616Y-118527835D01*
X103978615Y-118527833D01*
X103899389Y-118336564D01*
X103859000Y-118133516D01*
X103859000Y-117926484D01*
X103899389Y-117723436D01*
X103978615Y-117532167D01*
X104093635Y-117360027D01*
X104240027Y-117213635D01*
X104352301Y-117138616D01*
X104412165Y-117098616D01*
X104412167Y-117098615D01*
X104603436Y-117019389D01*
X104806484Y-116979000D01*
X105013516Y-116979000D01*
X105216564Y-117019389D01*
G37*
G36*
X93551000Y-118151000D02*
G01*
X92449000Y-118151000D01*
X92449000Y-114849000D01*
X93551000Y-114849000D01*
X93551000Y-118151000D01*
G37*
G36*
X87351000Y-118151000D02*
G01*
X86249000Y-118151000D01*
X86249000Y-114849000D01*
X87351000Y-114849000D01*
X87351000Y-118151000D01*
G37*
G36*
X29806564Y-114264389D02*
G01*
X29989040Y-114339973D01*
X29997835Y-114343616D01*
X30169973Y-114458635D01*
X30316365Y-114605027D01*
X30414680Y-114752165D01*
X30431385Y-114777167D01*
X30510611Y-114968436D01*
X30551000Y-115171484D01*
X30551000Y-115378516D01*
X30510611Y-115581564D01*
X30441740Y-115747833D01*
X30431384Y-115772835D01*
X30316365Y-115944973D01*
X30169973Y-116091365D01*
X29997835Y-116206384D01*
X29997834Y-116206385D01*
X29997833Y-116206385D01*
X29806564Y-116285611D01*
X29603516Y-116326000D01*
X29396484Y-116326000D01*
X29193436Y-116285611D01*
X29002167Y-116206385D01*
X29002166Y-116206385D01*
X29002165Y-116206384D01*
X28830027Y-116091365D01*
X28683635Y-115944973D01*
X28568616Y-115772835D01*
X28558260Y-115747833D01*
X28489389Y-115581564D01*
X28449000Y-115378516D01*
X28449000Y-115171484D01*
X28489389Y-114968436D01*
X28568615Y-114777167D01*
X28585321Y-114752165D01*
X28683635Y-114605027D01*
X28830027Y-114458635D01*
X29002165Y-114343616D01*
X29010960Y-114339973D01*
X29193436Y-114264389D01*
X29396484Y-114224000D01*
X29603516Y-114224000D01*
X29806564Y-114264389D01*
G37*
G36*
X36281564Y-114264389D02*
G01*
X36464040Y-114339973D01*
X36472835Y-114343616D01*
X36644973Y-114458635D01*
X36791365Y-114605027D01*
X36889680Y-114752165D01*
X36906385Y-114777167D01*
X36985611Y-114968436D01*
X37026000Y-115171484D01*
X37026000Y-115378516D01*
X36985611Y-115581564D01*
X36916740Y-115747833D01*
X36906384Y-115772835D01*
X36791365Y-115944973D01*
X36644973Y-116091365D01*
X36472835Y-116206384D01*
X36472834Y-116206385D01*
X36472833Y-116206385D01*
X36281564Y-116285611D01*
X36078516Y-116326000D01*
X35871484Y-116326000D01*
X35668436Y-116285611D01*
X35477167Y-116206385D01*
X35477166Y-116206385D01*
X35477165Y-116206384D01*
X35305027Y-116091365D01*
X35158635Y-115944973D01*
X35043616Y-115772835D01*
X35033260Y-115747833D01*
X34964389Y-115581564D01*
X34924000Y-115378516D01*
X34924000Y-115171484D01*
X34964389Y-114968436D01*
X35043615Y-114777167D01*
X35060321Y-114752165D01*
X35158635Y-114605027D01*
X35305027Y-114458635D01*
X35477165Y-114343616D01*
X35485960Y-114339973D01*
X35668436Y-114264389D01*
X35871484Y-114224000D01*
X36078516Y-114224000D01*
X36281564Y-114264389D01*
G37*
G36*
X33106564Y-114264389D02*
G01*
X33289040Y-114339973D01*
X33297835Y-114343616D01*
X33469973Y-114458635D01*
X33616365Y-114605027D01*
X33714680Y-114752165D01*
X33731385Y-114777167D01*
X33810611Y-114968436D01*
X33851000Y-115171484D01*
X33851000Y-115378516D01*
X33810611Y-115581564D01*
X33741740Y-115747833D01*
X33731384Y-115772835D01*
X33616365Y-115944973D01*
X33469973Y-116091365D01*
X33297835Y-116206384D01*
X33297834Y-116206385D01*
X33297833Y-116206385D01*
X33106564Y-116285611D01*
X32903516Y-116326000D01*
X32696484Y-116326000D01*
X32493436Y-116285611D01*
X32302167Y-116206385D01*
X32302166Y-116206385D01*
X32302165Y-116206384D01*
X32130027Y-116091365D01*
X31983635Y-115944973D01*
X31868616Y-115772835D01*
X31858260Y-115747833D01*
X31789389Y-115581564D01*
X31749000Y-115378516D01*
X31749000Y-115171484D01*
X31789389Y-114968436D01*
X31868615Y-114777167D01*
X31885321Y-114752165D01*
X31983635Y-114605027D01*
X32130027Y-114458635D01*
X32302165Y-114343616D01*
X32310960Y-114339973D01*
X32493436Y-114264389D01*
X32696484Y-114224000D01*
X32903516Y-114224000D01*
X33106564Y-114264389D01*
G37*
G36*
X39506564Y-114264389D02*
G01*
X39689040Y-114339973D01*
X39697835Y-114343616D01*
X39869973Y-114458635D01*
X40016365Y-114605027D01*
X40114680Y-114752165D01*
X40131385Y-114777167D01*
X40210611Y-114968436D01*
X40251000Y-115171484D01*
X40251000Y-115378516D01*
X40210611Y-115581564D01*
X40141740Y-115747833D01*
X40131384Y-115772835D01*
X40016365Y-115944973D01*
X39869973Y-116091365D01*
X39697835Y-116206384D01*
X39697834Y-116206385D01*
X39697833Y-116206385D01*
X39506564Y-116285611D01*
X39303516Y-116326000D01*
X39096484Y-116326000D01*
X38893436Y-116285611D01*
X38702167Y-116206385D01*
X38702166Y-116206385D01*
X38702165Y-116206384D01*
X38530027Y-116091365D01*
X38383635Y-115944973D01*
X38268616Y-115772835D01*
X38258260Y-115747833D01*
X38189389Y-115581564D01*
X38149000Y-115378516D01*
X38149000Y-115171484D01*
X38189389Y-114968436D01*
X38268615Y-114777167D01*
X38285321Y-114752165D01*
X38383635Y-114605027D01*
X38530027Y-114458635D01*
X38702165Y-114343616D01*
X38710960Y-114339973D01*
X38893436Y-114264389D01*
X39096484Y-114224000D01*
X39303516Y-114224000D01*
X39506564Y-114264389D01*
G37*
G36*
X26456564Y-114239389D02*
G01*
X26626969Y-114309973D01*
X26647835Y-114318616D01*
X26819973Y-114433635D01*
X26966365Y-114580027D01*
X27037028Y-114685781D01*
X27081385Y-114752167D01*
X27160611Y-114943436D01*
X27201000Y-115146484D01*
X27201000Y-115353516D01*
X27160611Y-115556564D01*
X27150255Y-115581565D01*
X27081384Y-115747835D01*
X26966365Y-115919973D01*
X26819973Y-116066365D01*
X26647835Y-116181384D01*
X26647834Y-116181385D01*
X26647833Y-116181385D01*
X26456564Y-116260611D01*
X26253516Y-116301000D01*
X26046484Y-116301000D01*
X25843436Y-116260611D01*
X25652167Y-116181385D01*
X25652166Y-116181385D01*
X25652165Y-116181384D01*
X25480027Y-116066365D01*
X25333635Y-115919973D01*
X25218616Y-115747835D01*
X25149745Y-115581565D01*
X25139389Y-115556564D01*
X25099000Y-115353516D01*
X25099000Y-115146484D01*
X25139389Y-114943436D01*
X25218615Y-114752167D01*
X25262973Y-114685781D01*
X25333635Y-114580027D01*
X25480027Y-114433635D01*
X25652165Y-114318616D01*
X25673031Y-114309973D01*
X25843436Y-114239389D01*
X26046484Y-114199000D01*
X26253516Y-114199000D01*
X26456564Y-114239389D01*
G37*
G36*
X22706564Y-114239389D02*
G01*
X22876969Y-114309973D01*
X22897835Y-114318616D01*
X23069973Y-114433635D01*
X23216365Y-114580027D01*
X23287028Y-114685781D01*
X23331385Y-114752167D01*
X23410611Y-114943436D01*
X23451000Y-115146484D01*
X23451000Y-115353516D01*
X23410611Y-115556564D01*
X23400255Y-115581565D01*
X23331384Y-115747835D01*
X23216365Y-115919973D01*
X23069973Y-116066365D01*
X22897835Y-116181384D01*
X22897834Y-116181385D01*
X22897833Y-116181385D01*
X22706564Y-116260611D01*
X22503516Y-116301000D01*
X22296484Y-116301000D01*
X22093436Y-116260611D01*
X21902167Y-116181385D01*
X21902166Y-116181385D01*
X21902165Y-116181384D01*
X21730027Y-116066365D01*
X21583635Y-115919973D01*
X21468616Y-115747835D01*
X21399745Y-115581565D01*
X21389389Y-115556564D01*
X21349000Y-115353516D01*
X21349000Y-115146484D01*
X21389389Y-114943436D01*
X21468615Y-114752167D01*
X21512973Y-114685781D01*
X21583635Y-114580027D01*
X21730027Y-114433635D01*
X21902165Y-114318616D01*
X21923031Y-114309973D01*
X22093436Y-114239389D01*
X22296484Y-114199000D01*
X22503516Y-114199000D01*
X22706564Y-114239389D01*
G37*
G36*
X18819649Y-114432573D02*
G01*
X18993211Y-114485222D01*
X19153166Y-114570720D01*
X19293369Y-114685781D01*
X19408430Y-114825984D01*
X19493928Y-114985939D01*
X19546577Y-115159501D01*
X19564355Y-115340000D01*
X19546577Y-115520499D01*
X19493928Y-115694061D01*
X19408430Y-115854016D01*
X19293369Y-115994219D01*
X19153166Y-116109280D01*
X18993211Y-116194778D01*
X18819649Y-116247427D01*
X18684381Y-116260750D01*
X16955619Y-116260750D01*
X16820351Y-116247427D01*
X16646789Y-116194778D01*
X16486834Y-116109280D01*
X16346631Y-115994219D01*
X16231570Y-115854016D01*
X16146072Y-115694061D01*
X16093423Y-115520499D01*
X16075645Y-115340000D01*
X16093423Y-115159501D01*
X16146072Y-114985939D01*
X16231570Y-114825984D01*
X16346631Y-114685781D01*
X16486834Y-114570720D01*
X16646789Y-114485222D01*
X16820351Y-114432573D01*
X16955619Y-114419250D01*
X18684381Y-114419250D01*
X18819649Y-114432573D01*
G37*
G36*
X70396564Y-112659389D02*
G01*
X70587833Y-112738615D01*
X70587835Y-112738616D01*
X70759973Y-112853635D01*
X70906365Y-113000027D01*
X71009289Y-113154063D01*
X71021385Y-113172167D01*
X71100611Y-113363436D01*
X71141000Y-113566484D01*
X71141000Y-113773516D01*
X71100611Y-113976564D01*
X71031324Y-114143838D01*
X71021384Y-114167835D01*
X70906365Y-114339973D01*
X70759973Y-114486365D01*
X70587835Y-114601384D01*
X70587834Y-114601385D01*
X70587833Y-114601385D01*
X70396564Y-114680611D01*
X70193516Y-114721000D01*
X69986484Y-114721000D01*
X69783436Y-114680611D01*
X69592167Y-114601385D01*
X69592166Y-114601385D01*
X69592165Y-114601384D01*
X69420027Y-114486365D01*
X69273635Y-114339973D01*
X69158616Y-114167835D01*
X69148676Y-114143838D01*
X69079389Y-113976564D01*
X69039000Y-113773516D01*
X69039000Y-113566484D01*
X69079389Y-113363436D01*
X69158615Y-113172167D01*
X69170712Y-113154063D01*
X69273635Y-113000027D01*
X69420027Y-112853635D01*
X69592165Y-112738616D01*
X69592167Y-112738615D01*
X69783436Y-112659389D01*
X69986484Y-112619000D01*
X70193516Y-112619000D01*
X70396564Y-112659389D01*
G37*
G36*
X66596564Y-112629389D02*
G01*
X66787833Y-112708615D01*
X66787835Y-112708616D01*
X66832733Y-112738616D01*
X66959973Y-112823635D01*
X67106365Y-112970027D01*
X67221385Y-113142167D01*
X67300611Y-113333436D01*
X67341000Y-113536484D01*
X67341000Y-113743516D01*
X67300611Y-113946564D01*
X67288184Y-113976565D01*
X67221384Y-114137835D01*
X67106365Y-114309973D01*
X66959973Y-114456365D01*
X66787835Y-114571384D01*
X66787834Y-114571385D01*
X66787833Y-114571385D01*
X66596564Y-114650611D01*
X66393516Y-114691000D01*
X66186484Y-114691000D01*
X65983436Y-114650611D01*
X65792167Y-114571385D01*
X65792166Y-114571385D01*
X65792165Y-114571384D01*
X65620027Y-114456365D01*
X65473635Y-114309973D01*
X65358616Y-114137835D01*
X65291816Y-113976565D01*
X65279389Y-113946564D01*
X65239000Y-113743516D01*
X65239000Y-113536484D01*
X65279389Y-113333436D01*
X65358615Y-113142167D01*
X65473635Y-112970027D01*
X65620027Y-112823635D01*
X65747267Y-112738616D01*
X65792165Y-112708616D01*
X65792167Y-112708615D01*
X65983436Y-112629389D01*
X66186484Y-112589000D01*
X66393516Y-112589000D01*
X66596564Y-112629389D01*
G37*
G36*
X94908126Y-109673698D02*
G01*
X94908730Y-109673757D01*
X94929460Y-109677881D01*
X94947842Y-109685495D01*
X94964386Y-109696550D01*
X94978450Y-109710614D01*
X94989505Y-109727158D01*
X94997119Y-109745540D01*
X95001243Y-109766270D01*
X95001302Y-109766874D01*
X95001852Y-109778062D01*
X95001852Y-113171938D01*
X95001302Y-113183126D01*
X95001243Y-113183730D01*
X94997119Y-113204460D01*
X94989505Y-113222842D01*
X94978450Y-113239386D01*
X94964386Y-113253450D01*
X94947842Y-113264505D01*
X94929460Y-113272119D01*
X94908730Y-113276243D01*
X94908126Y-113276302D01*
X94896938Y-113276852D01*
X94126851Y-113276852D01*
X94102465Y-113279254D01*
X94079016Y-113286367D01*
X94057405Y-113297918D01*
X94038463Y-113313463D01*
X94022918Y-113332405D01*
X94011367Y-113354016D01*
X94004254Y-113377465D01*
X94001852Y-113401851D01*
X94001852Y-114171938D01*
X94001302Y-114183126D01*
X94001243Y-114183730D01*
X93997119Y-114204460D01*
X93989505Y-114222842D01*
X93978450Y-114239386D01*
X93964386Y-114253450D01*
X93947842Y-114264505D01*
X93929460Y-114272119D01*
X93908730Y-114276243D01*
X93908126Y-114276302D01*
X93896938Y-114276852D01*
X92303062Y-114276852D01*
X92291874Y-114276302D01*
X92291270Y-114276243D01*
X92270540Y-114272119D01*
X92252158Y-114264505D01*
X92235614Y-114253450D01*
X92221550Y-114239386D01*
X92210495Y-114222842D01*
X92202881Y-114204460D01*
X92198757Y-114183730D01*
X92198698Y-114183126D01*
X92198148Y-114171938D01*
X92198148Y-109778062D01*
X92198698Y-109766874D01*
X92198757Y-109766270D01*
X92202881Y-109745540D01*
X92210495Y-109727158D01*
X92221550Y-109710614D01*
X92235614Y-109696550D01*
X92252158Y-109685495D01*
X92270540Y-109677881D01*
X92291270Y-109673757D01*
X92291874Y-109673698D01*
X92303062Y-109673148D01*
X94896938Y-109673148D01*
X94908126Y-109673698D01*
G37*
G36*
X91731000Y-114276000D02*
G01*
X90829000Y-114276000D01*
X90829000Y-109674000D01*
X91731000Y-109674000D01*
X91731000Y-114276000D01*
G37*
G36*
X96051000Y-114181000D02*
G01*
X94449000Y-114181000D01*
X94449000Y-113579000D01*
X96051000Y-113579000D01*
X96051000Y-114181000D01*
G37*
G36*
X90455000Y-114181000D02*
G01*
X89653000Y-114181000D01*
X89653000Y-113579000D01*
X90455000Y-113579000D01*
X90455000Y-114181000D01*
G37*
G36*
X18819649Y-111892573D02*
G01*
X18993211Y-111945222D01*
X19153166Y-112030720D01*
X19293369Y-112145781D01*
X19408430Y-112285984D01*
X19493928Y-112445939D01*
X19546577Y-112619501D01*
X19564355Y-112800000D01*
X19546577Y-112980499D01*
X19493928Y-113154061D01*
X19408430Y-113314016D01*
X19293369Y-113454219D01*
X19153166Y-113569280D01*
X18993211Y-113654778D01*
X18819649Y-113707427D01*
X18684381Y-113720750D01*
X16955619Y-113720750D01*
X16820351Y-113707427D01*
X16646789Y-113654778D01*
X16486834Y-113569280D01*
X16346631Y-113454219D01*
X16231570Y-113314016D01*
X16146072Y-113154061D01*
X16093423Y-112980499D01*
X16075645Y-112800000D01*
X16093423Y-112619501D01*
X16146072Y-112445939D01*
X16231570Y-112285984D01*
X16346631Y-112145781D01*
X16486834Y-112030720D01*
X16646789Y-111945222D01*
X16820351Y-111892573D01*
X16955619Y-111879250D01*
X18684381Y-111879250D01*
X18819649Y-111892573D01*
G37*
G36*
X96051000Y-113226000D02*
G01*
X95349000Y-113226000D01*
X95349000Y-109724000D01*
X96051000Y-109724000D01*
X96051000Y-113226000D01*
G37*
G36*
X90455000Y-112911000D02*
G01*
X89653000Y-112911000D01*
X89653000Y-112309000D01*
X90455000Y-112309000D01*
X90455000Y-112911000D01*
G37*
G36*
X55981564Y-110564389D02*
G01*
X56172833Y-110643615D01*
X56172835Y-110643616D01*
X56344973Y-110758635D01*
X56491365Y-110905027D01*
X56605714Y-111076162D01*
X56606385Y-111077167D01*
X56685611Y-111268436D01*
X56726000Y-111471484D01*
X56726000Y-111678516D01*
X56685611Y-111881564D01*
X56606385Y-112072833D01*
X56606384Y-112072835D01*
X56491365Y-112244973D01*
X56344973Y-112391365D01*
X56172835Y-112506384D01*
X56172834Y-112506385D01*
X56172833Y-112506385D01*
X55981564Y-112585611D01*
X55778516Y-112626000D01*
X55571484Y-112626000D01*
X55368436Y-112585611D01*
X55177167Y-112506385D01*
X55177166Y-112506385D01*
X55177165Y-112506384D01*
X55005027Y-112391365D01*
X54858635Y-112244973D01*
X54743616Y-112072835D01*
X54743615Y-112072833D01*
X54664389Y-111881564D01*
X54624000Y-111678516D01*
X54624000Y-111471484D01*
X54664389Y-111268436D01*
X54743615Y-111077167D01*
X54744287Y-111076162D01*
X54858635Y-110905027D01*
X55005027Y-110758635D01*
X55177165Y-110643616D01*
X55177167Y-110643615D01*
X55368436Y-110564389D01*
X55571484Y-110524000D01*
X55778516Y-110524000D01*
X55981564Y-110564389D01*
G37*
G36*
X52756564Y-110564389D02*
G01*
X52947833Y-110643615D01*
X52947835Y-110643616D01*
X53119973Y-110758635D01*
X53266365Y-110905027D01*
X53380714Y-111076162D01*
X53381385Y-111077167D01*
X53460611Y-111268436D01*
X53501000Y-111471484D01*
X53501000Y-111678516D01*
X53460611Y-111881564D01*
X53381385Y-112072833D01*
X53381384Y-112072835D01*
X53266365Y-112244973D01*
X53119973Y-112391365D01*
X52947835Y-112506384D01*
X52947834Y-112506385D01*
X52947833Y-112506385D01*
X52756564Y-112585611D01*
X52553516Y-112626000D01*
X52346484Y-112626000D01*
X52143436Y-112585611D01*
X51952167Y-112506385D01*
X51952166Y-112506385D01*
X51952165Y-112506384D01*
X51780027Y-112391365D01*
X51633635Y-112244973D01*
X51518616Y-112072835D01*
X51518615Y-112072833D01*
X51439389Y-111881564D01*
X51399000Y-111678516D01*
X51399000Y-111471484D01*
X51439389Y-111268436D01*
X51518615Y-111077167D01*
X51519287Y-111076162D01*
X51633635Y-110905027D01*
X51780027Y-110758635D01*
X51952165Y-110643616D01*
X51952167Y-110643615D01*
X52143436Y-110564389D01*
X52346484Y-110524000D01*
X52553516Y-110524000D01*
X52756564Y-110564389D01*
G37*
G36*
X59156564Y-110564389D02*
G01*
X59347833Y-110643615D01*
X59347835Y-110643616D01*
X59519973Y-110758635D01*
X59666365Y-110905027D01*
X59780714Y-111076162D01*
X59781385Y-111077167D01*
X59860611Y-111268436D01*
X59901000Y-111471484D01*
X59901000Y-111678516D01*
X59860611Y-111881564D01*
X59781385Y-112072833D01*
X59781384Y-112072835D01*
X59666365Y-112244973D01*
X59519973Y-112391365D01*
X59347835Y-112506384D01*
X59347834Y-112506385D01*
X59347833Y-112506385D01*
X59156564Y-112585611D01*
X58953516Y-112626000D01*
X58746484Y-112626000D01*
X58543436Y-112585611D01*
X58352167Y-112506385D01*
X58352166Y-112506385D01*
X58352165Y-112506384D01*
X58180027Y-112391365D01*
X58033635Y-112244973D01*
X57918616Y-112072835D01*
X57918615Y-112072833D01*
X57839389Y-111881564D01*
X57799000Y-111678516D01*
X57799000Y-111471484D01*
X57839389Y-111268436D01*
X57918615Y-111077167D01*
X57919287Y-111076162D01*
X58033635Y-110905027D01*
X58180027Y-110758635D01*
X58352165Y-110643616D01*
X58352167Y-110643615D01*
X58543436Y-110564389D01*
X58746484Y-110524000D01*
X58953516Y-110524000D01*
X59156564Y-110564389D01*
G37*
G36*
X48906564Y-110489389D02*
G01*
X49097833Y-110568615D01*
X49097835Y-110568616D01*
X49269973Y-110683635D01*
X49416365Y-110830027D01*
X49472620Y-110914218D01*
X49531385Y-111002167D01*
X49610611Y-111193436D01*
X49651000Y-111396484D01*
X49651000Y-111603516D01*
X49610611Y-111806564D01*
X49574985Y-111892573D01*
X49531384Y-111997835D01*
X49416365Y-112169973D01*
X49269973Y-112316365D01*
X49097835Y-112431384D01*
X49097834Y-112431385D01*
X49097833Y-112431385D01*
X48906564Y-112510611D01*
X48703516Y-112551000D01*
X48496484Y-112551000D01*
X48293436Y-112510611D01*
X48102167Y-112431385D01*
X48102166Y-112431385D01*
X48102165Y-112431384D01*
X47930027Y-112316365D01*
X47783635Y-112169973D01*
X47668616Y-111997835D01*
X47625015Y-111892573D01*
X47589389Y-111806564D01*
X47549000Y-111603516D01*
X47549000Y-111396484D01*
X47589389Y-111193436D01*
X47668615Y-111002167D01*
X47727381Y-110914218D01*
X47783635Y-110830027D01*
X47930027Y-110683635D01*
X48102165Y-110568616D01*
X48102167Y-110568615D01*
X48293436Y-110489389D01*
X48496484Y-110449000D01*
X48703516Y-110449000D01*
X48906564Y-110489389D01*
G37*
G36*
X87176000Y-111776000D02*
G01*
X86074000Y-111776000D01*
X86074000Y-110424000D01*
X87176000Y-110424000D01*
X87176000Y-111776000D01*
G37*
G36*
X89176000Y-111776000D02*
G01*
X88074000Y-111776000D01*
X88074000Y-110424000D01*
X89176000Y-110424000D01*
X89176000Y-111776000D01*
G37*
G36*
X90455000Y-111641000D02*
G01*
X89653000Y-111641000D01*
X89653000Y-111039000D01*
X90455000Y-111039000D01*
X90455000Y-111641000D01*
G37*
G36*
X18819649Y-109352573D02*
G01*
X18993211Y-109405222D01*
X19153166Y-109490720D01*
X19293369Y-109605781D01*
X19408430Y-109745984D01*
X19493928Y-109905939D01*
X19546577Y-110079501D01*
X19564355Y-110260000D01*
X19546577Y-110440499D01*
X19493928Y-110614061D01*
X19408430Y-110774016D01*
X19293369Y-110914219D01*
X19153166Y-111029280D01*
X18993211Y-111114778D01*
X18819649Y-111167427D01*
X18684381Y-111180750D01*
X16955619Y-111180750D01*
X16820351Y-111167427D01*
X16646789Y-111114778D01*
X16486834Y-111029280D01*
X16346631Y-110914219D01*
X16231570Y-110774016D01*
X16146072Y-110614061D01*
X16093423Y-110440499D01*
X16075645Y-110260000D01*
X16093423Y-110079501D01*
X16146072Y-109905939D01*
X16231570Y-109745984D01*
X16346631Y-109605781D01*
X16486834Y-109490720D01*
X16646789Y-109405222D01*
X16820351Y-109352573D01*
X16955619Y-109339250D01*
X18684381Y-109339250D01*
X18819649Y-109352573D01*
G37*
G36*
X66651564Y-109104389D02*
G01*
X66842833Y-109183615D01*
X66842835Y-109183616D01*
X67014973Y-109298635D01*
X67161365Y-109445027D01*
X67276385Y-109617167D01*
X67355611Y-109808436D01*
X67396000Y-110011484D01*
X67396000Y-110218516D01*
X67355611Y-110421564D01*
X67294700Y-110568616D01*
X67276384Y-110612835D01*
X67161365Y-110784973D01*
X67014973Y-110931365D01*
X66842835Y-111046384D01*
X66842834Y-111046385D01*
X66842833Y-111046385D01*
X66651564Y-111125611D01*
X66448516Y-111166000D01*
X66241484Y-111166000D01*
X66038436Y-111125611D01*
X65847167Y-111046385D01*
X65847166Y-111046385D01*
X65847165Y-111046384D01*
X65675027Y-110931365D01*
X65528635Y-110784973D01*
X65413616Y-110612835D01*
X65395300Y-110568616D01*
X65334389Y-110421564D01*
X65294000Y-110218516D01*
X65294000Y-110011484D01*
X65334389Y-109808436D01*
X65413615Y-109617167D01*
X65528635Y-109445027D01*
X65675027Y-109298635D01*
X65847165Y-109183616D01*
X65847167Y-109183615D01*
X66038436Y-109104389D01*
X66241484Y-109064000D01*
X66448516Y-109064000D01*
X66651564Y-109104389D01*
G37*
G36*
X90455000Y-110371000D02*
G01*
X89653000Y-110371000D01*
X89653000Y-109769000D01*
X90455000Y-109769000D01*
X90455000Y-110371000D01*
G37*
G36*
X93551000Y-109151000D02*
G01*
X92449000Y-109151000D01*
X92449000Y-105849000D01*
X93551000Y-105849000D01*
X93551000Y-109151000D01*
G37*
G36*
X87351000Y-109151000D02*
G01*
X86249000Y-109151000D01*
X86249000Y-105849000D01*
X87351000Y-105849000D01*
X87351000Y-109151000D01*
G37*
G36*
X48906564Y-106864389D02*
G01*
X49097833Y-106943615D01*
X49097835Y-106943616D01*
X49131335Y-106966000D01*
X49269973Y-107058635D01*
X49416365Y-107205027D01*
X49531385Y-107377167D01*
X49610611Y-107568436D01*
X49651000Y-107771484D01*
X49651000Y-107978516D01*
X49610611Y-108181564D01*
X49531385Y-108372833D01*
X49531384Y-108372835D01*
X49416365Y-108544973D01*
X49269973Y-108691365D01*
X49097835Y-108806384D01*
X49097834Y-108806385D01*
X49097833Y-108806385D01*
X48906564Y-108885611D01*
X48703516Y-108926000D01*
X48496484Y-108926000D01*
X48293436Y-108885611D01*
X48102167Y-108806385D01*
X48102166Y-108806385D01*
X48102165Y-108806384D01*
X47930027Y-108691365D01*
X47783635Y-108544973D01*
X47668616Y-108372835D01*
X47668615Y-108372833D01*
X47589389Y-108181564D01*
X47549000Y-107978516D01*
X47549000Y-107771484D01*
X47589389Y-107568436D01*
X47668615Y-107377167D01*
X47783635Y-107205027D01*
X47930027Y-107058635D01*
X48068665Y-106966000D01*
X48102165Y-106943616D01*
X48102167Y-106943615D01*
X48293436Y-106864389D01*
X48496484Y-106824000D01*
X48703516Y-106824000D01*
X48906564Y-106864389D01*
G37*
G36*
X73871000Y-108466000D02*
G01*
X73019000Y-108466000D01*
X73019000Y-107564000D01*
X73871000Y-107564000D01*
X73871000Y-108466000D01*
G37*
G36*
X66651564Y-105929389D02*
G01*
X66842833Y-106008615D01*
X66842835Y-106008616D01*
X66925723Y-106064000D01*
X67014973Y-106123635D01*
X67161365Y-106270027D01*
X67276385Y-106442167D01*
X67355611Y-106633436D01*
X67396000Y-106836484D01*
X67396000Y-107043516D01*
X67355611Y-107246564D01*
X67276385Y-107437833D01*
X67276384Y-107437835D01*
X67161365Y-107609973D01*
X67014973Y-107756365D01*
X66842835Y-107871384D01*
X66842834Y-107871385D01*
X66842833Y-107871385D01*
X66651564Y-107950611D01*
X66448516Y-107991000D01*
X66241484Y-107991000D01*
X66038436Y-107950611D01*
X65847167Y-107871385D01*
X65847166Y-107871385D01*
X65847165Y-107871384D01*
X65675027Y-107756365D01*
X65528635Y-107609973D01*
X65413616Y-107437835D01*
X65413615Y-107437833D01*
X65334389Y-107246564D01*
X65294000Y-107043516D01*
X65294000Y-106836484D01*
X65334389Y-106633436D01*
X65413615Y-106442167D01*
X65528635Y-106270027D01*
X65675027Y-106123635D01*
X65764277Y-106064000D01*
X65847165Y-106008616D01*
X65847167Y-106008615D01*
X66038436Y-105929389D01*
X66241484Y-105889000D01*
X66448516Y-105889000D01*
X66651564Y-105929389D01*
G37*
G36*
X59976000Y-107201000D02*
G01*
X59174000Y-107201000D01*
X59174000Y-105799000D01*
X59976000Y-105799000D01*
X59976000Y-107201000D01*
G37*
G36*
X58076000Y-107201000D02*
G01*
X57274000Y-107201000D01*
X57274000Y-105799000D01*
X58076000Y-105799000D01*
X58076000Y-107201000D01*
G37*
G36*
X73871000Y-106966000D02*
G01*
X73019000Y-106966000D01*
X73019000Y-106064000D01*
X73871000Y-106064000D01*
X73871000Y-106966000D01*
G37*
G36*
X48906564Y-103439389D02*
G01*
X49097833Y-103518615D01*
X49097835Y-103518616D01*
X49269973Y-103633635D01*
X49416365Y-103780027D01*
X49513804Y-103925854D01*
X49531385Y-103952167D01*
X49610611Y-104143436D01*
X49651000Y-104346484D01*
X49651000Y-104553516D01*
X49610611Y-104756564D01*
X49596347Y-104791000D01*
X49531384Y-104947835D01*
X49416365Y-105119973D01*
X49269973Y-105266365D01*
X49097835Y-105381384D01*
X49097834Y-105381385D01*
X49097833Y-105381385D01*
X48906564Y-105460611D01*
X48703516Y-105501000D01*
X48496484Y-105501000D01*
X48293436Y-105460611D01*
X48102167Y-105381385D01*
X48102166Y-105381385D01*
X48102165Y-105381384D01*
X47930027Y-105266365D01*
X47783635Y-105119973D01*
X47668616Y-104947835D01*
X47603653Y-104791000D01*
X47589389Y-104756564D01*
X47549000Y-104553516D01*
X47549000Y-104346484D01*
X47589389Y-104143436D01*
X47668615Y-103952167D01*
X47686197Y-103925854D01*
X47783635Y-103780027D01*
X47930027Y-103633635D01*
X48102165Y-103518616D01*
X48102167Y-103518615D01*
X48293436Y-103439389D01*
X48496484Y-103399000D01*
X48703516Y-103399000D01*
X48906564Y-103439389D01*
G37*
G36*
X94908126Y-100698698D02*
G01*
X94908730Y-100698757D01*
X94929460Y-100702881D01*
X94947842Y-100710495D01*
X94964386Y-100721550D01*
X94978450Y-100735614D01*
X94989505Y-100752158D01*
X94997119Y-100770540D01*
X95001243Y-100791270D01*
X95001302Y-100791874D01*
X95001852Y-100803062D01*
X95001852Y-104196938D01*
X95001302Y-104208126D01*
X95001243Y-104208730D01*
X94997119Y-104229460D01*
X94989505Y-104247842D01*
X94978450Y-104264386D01*
X94964386Y-104278450D01*
X94947842Y-104289505D01*
X94929460Y-104297119D01*
X94908730Y-104301243D01*
X94908126Y-104301302D01*
X94896938Y-104301852D01*
X94126851Y-104301852D01*
X94102465Y-104304254D01*
X94079016Y-104311367D01*
X94057405Y-104322918D01*
X94038463Y-104338463D01*
X94022918Y-104357405D01*
X94011367Y-104379016D01*
X94004254Y-104402465D01*
X94001852Y-104426851D01*
X94001852Y-105196938D01*
X94001302Y-105208126D01*
X94001243Y-105208730D01*
X93997119Y-105229460D01*
X93989505Y-105247842D01*
X93978450Y-105264386D01*
X93964386Y-105278450D01*
X93947842Y-105289505D01*
X93929460Y-105297119D01*
X93908730Y-105301243D01*
X93908126Y-105301302D01*
X93896938Y-105301852D01*
X92303062Y-105301852D01*
X92291874Y-105301302D01*
X92291270Y-105301243D01*
X92270540Y-105297119D01*
X92252158Y-105289505D01*
X92235614Y-105278450D01*
X92221550Y-105264386D01*
X92210495Y-105247842D01*
X92202881Y-105229460D01*
X92198757Y-105208730D01*
X92198698Y-105208126D01*
X92198148Y-105196938D01*
X92198148Y-100803062D01*
X92198698Y-100791874D01*
X92198757Y-100791270D01*
X92202881Y-100770540D01*
X92210495Y-100752158D01*
X92221550Y-100735614D01*
X92235614Y-100721550D01*
X92252158Y-100710495D01*
X92270540Y-100702881D01*
X92291270Y-100698757D01*
X92291874Y-100698698D01*
X92303062Y-100698148D01*
X94896938Y-100698148D01*
X94908126Y-100698698D01*
G37*
G36*
X91731000Y-105301000D02*
G01*
X90829000Y-105301000D01*
X90829000Y-100699000D01*
X91731000Y-100699000D01*
X91731000Y-105301000D01*
G37*
G36*
X58076000Y-105301000D02*
G01*
X57274000Y-105301000D01*
X57274000Y-103899000D01*
X58076000Y-103899000D01*
X58076000Y-105301000D01*
G37*
G36*
X59976000Y-105301000D02*
G01*
X59174000Y-105301000D01*
X59174000Y-103899000D01*
X59976000Y-103899000D01*
X59976000Y-105301000D01*
G37*
G36*
X90455000Y-105206000D02*
G01*
X89653000Y-105206000D01*
X89653000Y-104604000D01*
X90455000Y-104604000D01*
X90455000Y-105206000D01*
G37*
G36*
X96051000Y-105206000D02*
G01*
X94449000Y-105206000D01*
X94449000Y-104604000D01*
X96051000Y-104604000D01*
X96051000Y-105206000D01*
G37*
G36*
X53926000Y-105151000D02*
G01*
X52824000Y-105151000D01*
X52824000Y-103799000D01*
X53926000Y-103799000D01*
X53926000Y-105151000D01*
G37*
G36*
X55926000Y-105151000D02*
G01*
X54824000Y-105151000D01*
X54824000Y-103799000D01*
X55926000Y-103799000D01*
X55926000Y-105151000D01*
G37*
G36*
X66651564Y-102729389D02*
G01*
X66842833Y-102808615D01*
X66842835Y-102808616D01*
X67014973Y-102923635D01*
X67161365Y-103070027D01*
X67252352Y-103206198D01*
X67276385Y-103242167D01*
X67355611Y-103433436D01*
X67396000Y-103636484D01*
X67396000Y-103843516D01*
X67355611Y-104046564D01*
X67276385Y-104237833D01*
X67276384Y-104237835D01*
X67161365Y-104409973D01*
X67014973Y-104556365D01*
X66842835Y-104671384D01*
X66842834Y-104671385D01*
X66842833Y-104671385D01*
X66651564Y-104750611D01*
X66448516Y-104791000D01*
X66241484Y-104791000D01*
X66038436Y-104750611D01*
X65847167Y-104671385D01*
X65847166Y-104671385D01*
X65847165Y-104671384D01*
X65675027Y-104556365D01*
X65528635Y-104409973D01*
X65413616Y-104237835D01*
X65413615Y-104237833D01*
X65334389Y-104046564D01*
X65294000Y-103843516D01*
X65294000Y-103636484D01*
X65334389Y-103433436D01*
X65413615Y-103242167D01*
X65437649Y-103206198D01*
X65528635Y-103070027D01*
X65675027Y-102923635D01*
X65847165Y-102808616D01*
X65847167Y-102808615D01*
X66038436Y-102729389D01*
X66241484Y-102689000D01*
X66448516Y-102689000D01*
X66651564Y-102729389D01*
G37*
G36*
X74307797Y-104150567D02*
G01*
X74362575Y-104173257D01*
X74362577Y-104173258D01*
X74411876Y-104206198D01*
X74453802Y-104248124D01*
X74481451Y-104289505D01*
X74486743Y-104297425D01*
X74509433Y-104352203D01*
X74521000Y-104410353D01*
X74521000Y-104469647D01*
X74509433Y-104527797D01*
X74486743Y-104582575D01*
X74486742Y-104582577D01*
X74453802Y-104631876D01*
X74411876Y-104673802D01*
X74362577Y-104706742D01*
X74362576Y-104706743D01*
X74362575Y-104706743D01*
X74307797Y-104729433D01*
X74249647Y-104741000D01*
X74190353Y-104741000D01*
X74132203Y-104729433D01*
X74077425Y-104706743D01*
X74077424Y-104706743D01*
X74077423Y-104706742D01*
X74028124Y-104673802D01*
X73986198Y-104631876D01*
X73953258Y-104582577D01*
X73953257Y-104582575D01*
X73930567Y-104527797D01*
X73919000Y-104469647D01*
X73919000Y-104410353D01*
X73930567Y-104352203D01*
X73953257Y-104297425D01*
X73958549Y-104289505D01*
X73986198Y-104248124D01*
X74028124Y-104206198D01*
X74077423Y-104173258D01*
X74077425Y-104173257D01*
X74132203Y-104150567D01*
X74190353Y-104139000D01*
X74249647Y-104139000D01*
X74307797Y-104150567D01*
G37*
G36*
X73307797Y-104150567D02*
G01*
X73362575Y-104173257D01*
X73362577Y-104173258D01*
X73411876Y-104206198D01*
X73453802Y-104248124D01*
X73481451Y-104289505D01*
X73486743Y-104297425D01*
X73509433Y-104352203D01*
X73521000Y-104410353D01*
X73521000Y-104469647D01*
X73509433Y-104527797D01*
X73486743Y-104582575D01*
X73486742Y-104582577D01*
X73453802Y-104631876D01*
X73411876Y-104673802D01*
X73362577Y-104706742D01*
X73362576Y-104706743D01*
X73362575Y-104706743D01*
X73307797Y-104729433D01*
X73249647Y-104741000D01*
X73190353Y-104741000D01*
X73132203Y-104729433D01*
X73077425Y-104706743D01*
X73077424Y-104706743D01*
X73077423Y-104706742D01*
X73028124Y-104673802D01*
X72986198Y-104631876D01*
X72953258Y-104582577D01*
X72953257Y-104582575D01*
X72930567Y-104527797D01*
X72919000Y-104469647D01*
X72919000Y-104410353D01*
X72930567Y-104352203D01*
X72953257Y-104297425D01*
X72958549Y-104289505D01*
X72986198Y-104248124D01*
X73028124Y-104206198D01*
X73077423Y-104173258D01*
X73077425Y-104173257D01*
X73132203Y-104150567D01*
X73190353Y-104139000D01*
X73249647Y-104139000D01*
X73307797Y-104150567D01*
G37*
G36*
X76307797Y-104150567D02*
G01*
X76362575Y-104173257D01*
X76362577Y-104173258D01*
X76411876Y-104206198D01*
X76453802Y-104248124D01*
X76481451Y-104289505D01*
X76486743Y-104297425D01*
X76509433Y-104352203D01*
X76521000Y-104410353D01*
X76521000Y-104469647D01*
X76509433Y-104527797D01*
X76486743Y-104582575D01*
X76486742Y-104582577D01*
X76453802Y-104631876D01*
X76411876Y-104673802D01*
X76362577Y-104706742D01*
X76362576Y-104706743D01*
X76362575Y-104706743D01*
X76307797Y-104729433D01*
X76249647Y-104741000D01*
X76190353Y-104741000D01*
X76132203Y-104729433D01*
X76077425Y-104706743D01*
X76077424Y-104706743D01*
X76077423Y-104706742D01*
X76028124Y-104673802D01*
X75986198Y-104631876D01*
X75953258Y-104582577D01*
X75953257Y-104582575D01*
X75930567Y-104527797D01*
X75919000Y-104469647D01*
X75919000Y-104410353D01*
X75930567Y-104352203D01*
X75953257Y-104297425D01*
X75958549Y-104289505D01*
X75986198Y-104248124D01*
X76028124Y-104206198D01*
X76077423Y-104173258D01*
X76077425Y-104173257D01*
X76132203Y-104150567D01*
X76190353Y-104139000D01*
X76249647Y-104139000D01*
X76307797Y-104150567D01*
G37*
G36*
X77307797Y-104150567D02*
G01*
X77362575Y-104173257D01*
X77362577Y-104173258D01*
X77411876Y-104206198D01*
X77453802Y-104248124D01*
X77481451Y-104289505D01*
X77486743Y-104297425D01*
X77509433Y-104352203D01*
X77521000Y-104410353D01*
X77521000Y-104469647D01*
X77509433Y-104527797D01*
X77486743Y-104582575D01*
X77486742Y-104582577D01*
X77453802Y-104631876D01*
X77411876Y-104673802D01*
X77362577Y-104706742D01*
X77362576Y-104706743D01*
X77362575Y-104706743D01*
X77307797Y-104729433D01*
X77249647Y-104741000D01*
X77190353Y-104741000D01*
X77132203Y-104729433D01*
X77077425Y-104706743D01*
X77077424Y-104706743D01*
X77077423Y-104706742D01*
X77028124Y-104673802D01*
X76986198Y-104631876D01*
X76953258Y-104582577D01*
X76953257Y-104582575D01*
X76930567Y-104527797D01*
X76919000Y-104469647D01*
X76919000Y-104410353D01*
X76930567Y-104352203D01*
X76953257Y-104297425D01*
X76958549Y-104289505D01*
X76986198Y-104248124D01*
X77028124Y-104206198D01*
X77077423Y-104173258D01*
X77077425Y-104173257D01*
X77132203Y-104150567D01*
X77190353Y-104139000D01*
X77249647Y-104139000D01*
X77307797Y-104150567D01*
G37*
G36*
X75307797Y-104150567D02*
G01*
X75362575Y-104173257D01*
X75362577Y-104173258D01*
X75411876Y-104206198D01*
X75453802Y-104248124D01*
X75481451Y-104289505D01*
X75486743Y-104297425D01*
X75509433Y-104352203D01*
X75521000Y-104410353D01*
X75521000Y-104469647D01*
X75509433Y-104527797D01*
X75486743Y-104582575D01*
X75486742Y-104582577D01*
X75453802Y-104631876D01*
X75411876Y-104673802D01*
X75362577Y-104706742D01*
X75362576Y-104706743D01*
X75362575Y-104706743D01*
X75307797Y-104729433D01*
X75249647Y-104741000D01*
X75190353Y-104741000D01*
X75132203Y-104729433D01*
X75077425Y-104706743D01*
X75077424Y-104706743D01*
X75077423Y-104706742D01*
X75028124Y-104673802D01*
X74986198Y-104631876D01*
X74953258Y-104582577D01*
X74953257Y-104582575D01*
X74930567Y-104527797D01*
X74919000Y-104469647D01*
X74919000Y-104410353D01*
X74930567Y-104352203D01*
X74953257Y-104297425D01*
X74958549Y-104289505D01*
X74986198Y-104248124D01*
X75028124Y-104206198D01*
X75077423Y-104173258D01*
X75077425Y-104173257D01*
X75132203Y-104150567D01*
X75190353Y-104139000D01*
X75249647Y-104139000D01*
X75307797Y-104150567D01*
G37*
G36*
X96051000Y-104251000D02*
G01*
X95349000Y-104251000D01*
X95349000Y-100749000D01*
X96051000Y-100749000D01*
X96051000Y-104251000D01*
G37*
G36*
X90455000Y-103936000D02*
G01*
X89653000Y-103936000D01*
X89653000Y-103334000D01*
X90455000Y-103334000D01*
X90455000Y-103936000D01*
G37*
G36*
X76307797Y-103150567D02*
G01*
X76362575Y-103173257D01*
X76362577Y-103173258D01*
X76411876Y-103206198D01*
X76453802Y-103248124D01*
X76486742Y-103297423D01*
X76486743Y-103297425D01*
X76509433Y-103352203D01*
X76521000Y-103410353D01*
X76521000Y-103469647D01*
X76509433Y-103527797D01*
X76486743Y-103582575D01*
X76486742Y-103582577D01*
X76453802Y-103631876D01*
X76411876Y-103673802D01*
X76362577Y-103706742D01*
X76362576Y-103706743D01*
X76362575Y-103706743D01*
X76307797Y-103729433D01*
X76249647Y-103741000D01*
X76190353Y-103741000D01*
X76132203Y-103729433D01*
X76077425Y-103706743D01*
X76077424Y-103706743D01*
X76077423Y-103706742D01*
X76028124Y-103673802D01*
X75986198Y-103631876D01*
X75953258Y-103582577D01*
X75953257Y-103582575D01*
X75930567Y-103527797D01*
X75919000Y-103469647D01*
X75919000Y-103410353D01*
X75930567Y-103352203D01*
X75953257Y-103297425D01*
X75953258Y-103297423D01*
X75986198Y-103248124D01*
X76028124Y-103206198D01*
X76077423Y-103173258D01*
X76077425Y-103173257D01*
X76132203Y-103150567D01*
X76190353Y-103139000D01*
X76249647Y-103139000D01*
X76307797Y-103150567D01*
G37*
G36*
X77307797Y-103150567D02*
G01*
X77362575Y-103173257D01*
X77362577Y-103173258D01*
X77411876Y-103206198D01*
X77453802Y-103248124D01*
X77486742Y-103297423D01*
X77486743Y-103297425D01*
X77509433Y-103352203D01*
X77521000Y-103410353D01*
X77521000Y-103469647D01*
X77509433Y-103527797D01*
X77486743Y-103582575D01*
X77486742Y-103582577D01*
X77453802Y-103631876D01*
X77411876Y-103673802D01*
X77362577Y-103706742D01*
X77362576Y-103706743D01*
X77362575Y-103706743D01*
X77307797Y-103729433D01*
X77249647Y-103741000D01*
X77190353Y-103741000D01*
X77132203Y-103729433D01*
X77077425Y-103706743D01*
X77077424Y-103706743D01*
X77077423Y-103706742D01*
X77028124Y-103673802D01*
X76986198Y-103631876D01*
X76953258Y-103582577D01*
X76953257Y-103582575D01*
X76930567Y-103527797D01*
X76919000Y-103469647D01*
X76919000Y-103410353D01*
X76930567Y-103352203D01*
X76953257Y-103297425D01*
X76953258Y-103297423D01*
X76986198Y-103248124D01*
X77028124Y-103206198D01*
X77077423Y-103173258D01*
X77077425Y-103173257D01*
X77132203Y-103150567D01*
X77190353Y-103139000D01*
X77249647Y-103139000D01*
X77307797Y-103150567D01*
G37*
G36*
X73307797Y-103150567D02*
G01*
X73362575Y-103173257D01*
X73362577Y-103173258D01*
X73411876Y-103206198D01*
X73453802Y-103248124D01*
X73486742Y-103297423D01*
X73486743Y-103297425D01*
X73509433Y-103352203D01*
X73521000Y-103410353D01*
X73521000Y-103469647D01*
X73509433Y-103527797D01*
X73486743Y-103582575D01*
X73486742Y-103582577D01*
X73453802Y-103631876D01*
X73411876Y-103673802D01*
X73362577Y-103706742D01*
X73362576Y-103706743D01*
X73362575Y-103706743D01*
X73307797Y-103729433D01*
X73249647Y-103741000D01*
X73190353Y-103741000D01*
X73132203Y-103729433D01*
X73077425Y-103706743D01*
X73077424Y-103706743D01*
X73077423Y-103706742D01*
X73028124Y-103673802D01*
X72986198Y-103631876D01*
X72953258Y-103582577D01*
X72953257Y-103582575D01*
X72930567Y-103527797D01*
X72919000Y-103469647D01*
X72919000Y-103410353D01*
X72930567Y-103352203D01*
X72953257Y-103297425D01*
X72953258Y-103297423D01*
X72986198Y-103248124D01*
X73028124Y-103206198D01*
X73077423Y-103173258D01*
X73077425Y-103173257D01*
X73132203Y-103150567D01*
X73190353Y-103139000D01*
X73249647Y-103139000D01*
X73307797Y-103150567D01*
G37*
G36*
X75307797Y-103150567D02*
G01*
X75362575Y-103173257D01*
X75362577Y-103173258D01*
X75411876Y-103206198D01*
X75453802Y-103248124D01*
X75486742Y-103297423D01*
X75486743Y-103297425D01*
X75509433Y-103352203D01*
X75521000Y-103410353D01*
X75521000Y-103469647D01*
X75509433Y-103527797D01*
X75486743Y-103582575D01*
X75486742Y-103582577D01*
X75453802Y-103631876D01*
X75411876Y-103673802D01*
X75362577Y-103706742D01*
X75362576Y-103706743D01*
X75362575Y-103706743D01*
X75307797Y-103729433D01*
X75249647Y-103741000D01*
X75190353Y-103741000D01*
X75132203Y-103729433D01*
X75077425Y-103706743D01*
X75077424Y-103706743D01*
X75077423Y-103706742D01*
X75028124Y-103673802D01*
X74986198Y-103631876D01*
X74953258Y-103582577D01*
X74953257Y-103582575D01*
X74930567Y-103527797D01*
X74919000Y-103469647D01*
X74919000Y-103410353D01*
X74930567Y-103352203D01*
X74953257Y-103297425D01*
X74953258Y-103297423D01*
X74986198Y-103248124D01*
X75028124Y-103206198D01*
X75077423Y-103173258D01*
X75077425Y-103173257D01*
X75132203Y-103150567D01*
X75190353Y-103139000D01*
X75249647Y-103139000D01*
X75307797Y-103150567D01*
G37*
G36*
X74307797Y-103150567D02*
G01*
X74362575Y-103173257D01*
X74362577Y-103173258D01*
X74411876Y-103206198D01*
X74453802Y-103248124D01*
X74486742Y-103297423D01*
X74486743Y-103297425D01*
X74509433Y-103352203D01*
X74521000Y-103410353D01*
X74521000Y-103469647D01*
X74509433Y-103527797D01*
X74486743Y-103582575D01*
X74486742Y-103582577D01*
X74453802Y-103631876D01*
X74411876Y-103673802D01*
X74362577Y-103706742D01*
X74362576Y-103706743D01*
X74362575Y-103706743D01*
X74307797Y-103729433D01*
X74249647Y-103741000D01*
X74190353Y-103741000D01*
X74132203Y-103729433D01*
X74077425Y-103706743D01*
X74077424Y-103706743D01*
X74077423Y-103706742D01*
X74028124Y-103673802D01*
X73986198Y-103631876D01*
X73953258Y-103582577D01*
X73953257Y-103582575D01*
X73930567Y-103527797D01*
X73919000Y-103469647D01*
X73919000Y-103410353D01*
X73930567Y-103352203D01*
X73953257Y-103297425D01*
X73953258Y-103297423D01*
X73986198Y-103248124D01*
X74028124Y-103206198D01*
X74077423Y-103173258D01*
X74077425Y-103173257D01*
X74132203Y-103150567D01*
X74190353Y-103139000D01*
X74249647Y-103139000D01*
X74307797Y-103150567D01*
G37*
G36*
X31356564Y-101589389D02*
G01*
X31547833Y-101668615D01*
X31547835Y-101668616D01*
X31719973Y-101783635D01*
X31866365Y-101930027D01*
X31980714Y-102101162D01*
X31981385Y-102102167D01*
X32060611Y-102293436D01*
X32101000Y-102496484D01*
X32101000Y-102703516D01*
X32060611Y-102906564D01*
X31981385Y-103097833D01*
X31981384Y-103097835D01*
X31866365Y-103269973D01*
X31719973Y-103416365D01*
X31547835Y-103531384D01*
X31547834Y-103531385D01*
X31547833Y-103531385D01*
X31356564Y-103610611D01*
X31153516Y-103651000D01*
X30946484Y-103651000D01*
X30743436Y-103610611D01*
X30552167Y-103531385D01*
X30552166Y-103531385D01*
X30552165Y-103531384D01*
X30380027Y-103416365D01*
X30233635Y-103269973D01*
X30118616Y-103097835D01*
X30118615Y-103097833D01*
X30039389Y-102906564D01*
X29999000Y-102703516D01*
X29999000Y-102496484D01*
X30039389Y-102293436D01*
X30118615Y-102102167D01*
X30119287Y-102101162D01*
X30233635Y-101930027D01*
X30380027Y-101783635D01*
X30552165Y-101668616D01*
X30552167Y-101668615D01*
X30743436Y-101589389D01*
X30946484Y-101549000D01*
X31153516Y-101549000D01*
X31356564Y-101589389D01*
G37*
G36*
X55551000Y-103201000D02*
G01*
X54749000Y-103201000D01*
X54749000Y-101799000D01*
X55551000Y-101799000D01*
X55551000Y-103201000D01*
G37*
G36*
X53651000Y-103201000D02*
G01*
X52849000Y-103201000D01*
X52849000Y-101799000D01*
X53651000Y-101799000D01*
X53651000Y-103201000D01*
G37*
G36*
X73307797Y-102150567D02*
G01*
X73362575Y-102173257D01*
X73362577Y-102173258D01*
X73411876Y-102206198D01*
X73453802Y-102248124D01*
X73462145Y-102260611D01*
X73486743Y-102297425D01*
X73509433Y-102352203D01*
X73521000Y-102410353D01*
X73521000Y-102469647D01*
X73509433Y-102527797D01*
X73486743Y-102582575D01*
X73486742Y-102582577D01*
X73453802Y-102631876D01*
X73411876Y-102673802D01*
X73362577Y-102706742D01*
X73362576Y-102706743D01*
X73362575Y-102706743D01*
X73307797Y-102729433D01*
X73249647Y-102741000D01*
X73190353Y-102741000D01*
X73132203Y-102729433D01*
X73077425Y-102706743D01*
X73077424Y-102706743D01*
X73077423Y-102706742D01*
X73028124Y-102673802D01*
X72986198Y-102631876D01*
X72953258Y-102582577D01*
X72953257Y-102582575D01*
X72930567Y-102527797D01*
X72919000Y-102469647D01*
X72919000Y-102410353D01*
X72930567Y-102352203D01*
X72953257Y-102297425D01*
X72977855Y-102260611D01*
X72986198Y-102248124D01*
X73028124Y-102206198D01*
X73077423Y-102173258D01*
X73077425Y-102173257D01*
X73132203Y-102150567D01*
X73190353Y-102139000D01*
X73249647Y-102139000D01*
X73307797Y-102150567D01*
G37*
G36*
X76307797Y-102150567D02*
G01*
X76362575Y-102173257D01*
X76362577Y-102173258D01*
X76411876Y-102206198D01*
X76453802Y-102248124D01*
X76462145Y-102260611D01*
X76486743Y-102297425D01*
X76509433Y-102352203D01*
X76521000Y-102410353D01*
X76521000Y-102469647D01*
X76509433Y-102527797D01*
X76486743Y-102582575D01*
X76486742Y-102582577D01*
X76453802Y-102631876D01*
X76411876Y-102673802D01*
X76362577Y-102706742D01*
X76362576Y-102706743D01*
X76362575Y-102706743D01*
X76307797Y-102729433D01*
X76249647Y-102741000D01*
X76190353Y-102741000D01*
X76132203Y-102729433D01*
X76077425Y-102706743D01*
X76077424Y-102706743D01*
X76077423Y-102706742D01*
X76028124Y-102673802D01*
X75986198Y-102631876D01*
X75953258Y-102582577D01*
X75953257Y-102582575D01*
X75930567Y-102527797D01*
X75919000Y-102469647D01*
X75919000Y-102410353D01*
X75930567Y-102352203D01*
X75953257Y-102297425D01*
X75977855Y-102260611D01*
X75986198Y-102248124D01*
X76028124Y-102206198D01*
X76077423Y-102173258D01*
X76077425Y-102173257D01*
X76132203Y-102150567D01*
X76190353Y-102139000D01*
X76249647Y-102139000D01*
X76307797Y-102150567D01*
G37*
G36*
X74307797Y-102150567D02*
G01*
X74362575Y-102173257D01*
X74362577Y-102173258D01*
X74411876Y-102206198D01*
X74453802Y-102248124D01*
X74462145Y-102260611D01*
X74486743Y-102297425D01*
X74509433Y-102352203D01*
X74521000Y-102410353D01*
X74521000Y-102469647D01*
X74509433Y-102527797D01*
X74486743Y-102582575D01*
X74486742Y-102582577D01*
X74453802Y-102631876D01*
X74411876Y-102673802D01*
X74362577Y-102706742D01*
X74362576Y-102706743D01*
X74362575Y-102706743D01*
X74307797Y-102729433D01*
X74249647Y-102741000D01*
X74190353Y-102741000D01*
X74132203Y-102729433D01*
X74077425Y-102706743D01*
X74077424Y-102706743D01*
X74077423Y-102706742D01*
X74028124Y-102673802D01*
X73986198Y-102631876D01*
X73953258Y-102582577D01*
X73953257Y-102582575D01*
X73930567Y-102527797D01*
X73919000Y-102469647D01*
X73919000Y-102410353D01*
X73930567Y-102352203D01*
X73953257Y-102297425D01*
X73977855Y-102260611D01*
X73986198Y-102248124D01*
X74028124Y-102206198D01*
X74077423Y-102173258D01*
X74077425Y-102173257D01*
X74132203Y-102150567D01*
X74190353Y-102139000D01*
X74249647Y-102139000D01*
X74307797Y-102150567D01*
G37*
G36*
X77307797Y-102150567D02*
G01*
X77362575Y-102173257D01*
X77362577Y-102173258D01*
X77411876Y-102206198D01*
X77453802Y-102248124D01*
X77462145Y-102260611D01*
X77486743Y-102297425D01*
X77509433Y-102352203D01*
X77521000Y-102410353D01*
X77521000Y-102469647D01*
X77509433Y-102527797D01*
X77486743Y-102582575D01*
X77486742Y-102582577D01*
X77453802Y-102631876D01*
X77411876Y-102673802D01*
X77362577Y-102706742D01*
X77362576Y-102706743D01*
X77362575Y-102706743D01*
X77307797Y-102729433D01*
X77249647Y-102741000D01*
X77190353Y-102741000D01*
X77132203Y-102729433D01*
X77077425Y-102706743D01*
X77077424Y-102706743D01*
X77077423Y-102706742D01*
X77028124Y-102673802D01*
X76986198Y-102631876D01*
X76953258Y-102582577D01*
X76953257Y-102582575D01*
X76930567Y-102527797D01*
X76919000Y-102469647D01*
X76919000Y-102410353D01*
X76930567Y-102352203D01*
X76953257Y-102297425D01*
X76977855Y-102260611D01*
X76986198Y-102248124D01*
X77028124Y-102206198D01*
X77077423Y-102173258D01*
X77077425Y-102173257D01*
X77132203Y-102150567D01*
X77190353Y-102139000D01*
X77249647Y-102139000D01*
X77307797Y-102150567D01*
G37*
G36*
X75307797Y-102150567D02*
G01*
X75362575Y-102173257D01*
X75362577Y-102173258D01*
X75411876Y-102206198D01*
X75453802Y-102248124D01*
X75462145Y-102260611D01*
X75486743Y-102297425D01*
X75509433Y-102352203D01*
X75521000Y-102410353D01*
X75521000Y-102469647D01*
X75509433Y-102527797D01*
X75486743Y-102582575D01*
X75486742Y-102582577D01*
X75453802Y-102631876D01*
X75411876Y-102673802D01*
X75362577Y-102706742D01*
X75362576Y-102706743D01*
X75362575Y-102706743D01*
X75307797Y-102729433D01*
X75249647Y-102741000D01*
X75190353Y-102741000D01*
X75132203Y-102729433D01*
X75077425Y-102706743D01*
X75077424Y-102706743D01*
X75077423Y-102706742D01*
X75028124Y-102673802D01*
X74986198Y-102631876D01*
X74953258Y-102582577D01*
X74953257Y-102582575D01*
X74930567Y-102527797D01*
X74919000Y-102469647D01*
X74919000Y-102410353D01*
X74930567Y-102352203D01*
X74953257Y-102297425D01*
X74977855Y-102260611D01*
X74986198Y-102248124D01*
X75028124Y-102206198D01*
X75077423Y-102173258D01*
X75077425Y-102173257D01*
X75132203Y-102150567D01*
X75190353Y-102139000D01*
X75249647Y-102139000D01*
X75307797Y-102150567D01*
G37*
G36*
X17451564Y-100654389D02*
G01*
X17639255Y-100732133D01*
X17642835Y-100733616D01*
X17814973Y-100848635D01*
X17961365Y-100995027D01*
X18065294Y-101150567D01*
X18076385Y-101167167D01*
X18155611Y-101358436D01*
X18196000Y-101561484D01*
X18196000Y-101768516D01*
X18155611Y-101971564D01*
X18092387Y-102124200D01*
X18076384Y-102162835D01*
X17961365Y-102334973D01*
X17814973Y-102481365D01*
X17642835Y-102596384D01*
X17642834Y-102596385D01*
X17642833Y-102596385D01*
X17451564Y-102675611D01*
X17248516Y-102716000D01*
X17041484Y-102716000D01*
X16838436Y-102675611D01*
X16647167Y-102596385D01*
X16647166Y-102596385D01*
X16647165Y-102596384D01*
X16475027Y-102481365D01*
X16328635Y-102334973D01*
X16213616Y-102162835D01*
X16197613Y-102124200D01*
X16134389Y-101971564D01*
X16094000Y-101768516D01*
X16094000Y-101561484D01*
X16134389Y-101358436D01*
X16213615Y-101167167D01*
X16224707Y-101150567D01*
X16328635Y-100995027D01*
X16475027Y-100848635D01*
X16647165Y-100733616D01*
X16650745Y-100732133D01*
X16838436Y-100654389D01*
X17041484Y-100614000D01*
X17248516Y-100614000D01*
X17451564Y-100654389D01*
G37*
G36*
X87351000Y-102676000D02*
G01*
X86249000Y-102676000D01*
X86249000Y-101324000D01*
X87351000Y-101324000D01*
X87351000Y-102676000D01*
G37*
G36*
X89351000Y-102676000D02*
G01*
X88249000Y-102676000D01*
X88249000Y-101324000D01*
X89351000Y-101324000D01*
X89351000Y-102676000D01*
G37*
G36*
X90455000Y-102666000D02*
G01*
X89653000Y-102666000D01*
X89653000Y-102064000D01*
X90455000Y-102064000D01*
X90455000Y-102666000D01*
G37*
G36*
X61076000Y-102501000D02*
G01*
X59974000Y-102501000D01*
X59974000Y-101149000D01*
X61076000Y-101149000D01*
X61076000Y-102501000D01*
G37*
G36*
X59076000Y-102501000D02*
G01*
X57974000Y-102501000D01*
X57974000Y-101149000D01*
X59076000Y-101149000D01*
X59076000Y-102501000D01*
G37*
G36*
X48906564Y-100239389D02*
G01*
X49085786Y-100313625D01*
X49097835Y-100318616D01*
X49269973Y-100433635D01*
X49416365Y-100580027D01*
X49530171Y-100750349D01*
X49531385Y-100752167D01*
X49610611Y-100943436D01*
X49651000Y-101146484D01*
X49651000Y-101353516D01*
X49610611Y-101556564D01*
X49534215Y-101741000D01*
X49531384Y-101747835D01*
X49416365Y-101919973D01*
X49269973Y-102066365D01*
X49097835Y-102181384D01*
X49097834Y-102181385D01*
X49097833Y-102181385D01*
X48906564Y-102260611D01*
X48703516Y-102301000D01*
X48496484Y-102301000D01*
X48293436Y-102260611D01*
X48102167Y-102181385D01*
X48102166Y-102181385D01*
X48102165Y-102181384D01*
X47930027Y-102066365D01*
X47783635Y-101919973D01*
X47668616Y-101747835D01*
X47665785Y-101741000D01*
X47589389Y-101556564D01*
X47549000Y-101353516D01*
X47549000Y-101146484D01*
X47589389Y-100943436D01*
X47668615Y-100752167D01*
X47669830Y-100750349D01*
X47783635Y-100580027D01*
X47930027Y-100433635D01*
X48102165Y-100318616D01*
X48114214Y-100313625D01*
X48293436Y-100239389D01*
X48496484Y-100199000D01*
X48703516Y-100199000D01*
X48906564Y-100239389D01*
G37*
G36*
X8043512Y-100283927D02*
G01*
X8192812Y-100313624D01*
X8356784Y-100381544D01*
X8504354Y-100480147D01*
X8629853Y-100605646D01*
X8728456Y-100753216D01*
X8796376Y-100917188D01*
X8831000Y-101091259D01*
X8831000Y-101268741D01*
X8796376Y-101442812D01*
X8728456Y-101606784D01*
X8629853Y-101754354D01*
X8504354Y-101879853D01*
X8356784Y-101978456D01*
X8192812Y-102046376D01*
X8053199Y-102074146D01*
X8018742Y-102081000D01*
X7841258Y-102081000D01*
X7806801Y-102074146D01*
X7667188Y-102046376D01*
X7503216Y-101978456D01*
X7355646Y-101879853D01*
X7230147Y-101754354D01*
X7131544Y-101606784D01*
X7063624Y-101442812D01*
X7029000Y-101268741D01*
X7029000Y-101091259D01*
X7063624Y-100917188D01*
X7131544Y-100753216D01*
X7230147Y-100605646D01*
X7355646Y-100480147D01*
X7503216Y-100381544D01*
X7667188Y-100313624D01*
X7816488Y-100283927D01*
X7841258Y-100279000D01*
X8018742Y-100279000D01*
X8043512Y-100283927D01*
G37*
G36*
X10583512Y-100283927D02*
G01*
X10732812Y-100313624D01*
X10896784Y-100381544D01*
X11044354Y-100480147D01*
X11169853Y-100605646D01*
X11268456Y-100753216D01*
X11336376Y-100917188D01*
X11371000Y-101091259D01*
X11371000Y-101268741D01*
X11336376Y-101442812D01*
X11268456Y-101606784D01*
X11169853Y-101754354D01*
X11044354Y-101879853D01*
X10896784Y-101978456D01*
X10732812Y-102046376D01*
X10593199Y-102074146D01*
X10558742Y-102081000D01*
X10381258Y-102081000D01*
X10346801Y-102074146D01*
X10207188Y-102046376D01*
X10043216Y-101978456D01*
X9895646Y-101879853D01*
X9770147Y-101754354D01*
X9671544Y-101606784D01*
X9603624Y-101442812D01*
X9569000Y-101268741D01*
X9569000Y-101091259D01*
X9603624Y-100917188D01*
X9671544Y-100753216D01*
X9770147Y-100605646D01*
X9895646Y-100480147D01*
X10043216Y-100381544D01*
X10207188Y-100313624D01*
X10356488Y-100283927D01*
X10381258Y-100279000D01*
X10558742Y-100279000D01*
X10583512Y-100283927D01*
G37*
G36*
X77307797Y-101150567D02*
G01*
X77362575Y-101173257D01*
X77362577Y-101173258D01*
X77411876Y-101206198D01*
X77453802Y-101248124D01*
X77467578Y-101268742D01*
X77486743Y-101297425D01*
X77509433Y-101352203D01*
X77521000Y-101410353D01*
X77521000Y-101469647D01*
X77509433Y-101527797D01*
X77486743Y-101582575D01*
X77486742Y-101582577D01*
X77453802Y-101631876D01*
X77411876Y-101673802D01*
X77362577Y-101706742D01*
X77362576Y-101706743D01*
X77362575Y-101706743D01*
X77307797Y-101729433D01*
X77249647Y-101741000D01*
X77190353Y-101741000D01*
X77132203Y-101729433D01*
X77077425Y-101706743D01*
X77077424Y-101706743D01*
X77077423Y-101706742D01*
X77028124Y-101673802D01*
X76986198Y-101631876D01*
X76953258Y-101582577D01*
X76953257Y-101582575D01*
X76930567Y-101527797D01*
X76919000Y-101469647D01*
X76919000Y-101410353D01*
X76930567Y-101352203D01*
X76953257Y-101297425D01*
X76972422Y-101268742D01*
X76986198Y-101248124D01*
X77028124Y-101206198D01*
X77077423Y-101173258D01*
X77077425Y-101173257D01*
X77132203Y-101150567D01*
X77190353Y-101139000D01*
X77249647Y-101139000D01*
X77307797Y-101150567D01*
G37*
G36*
X76307797Y-101150567D02*
G01*
X76362575Y-101173257D01*
X76362577Y-101173258D01*
X76411876Y-101206198D01*
X76453802Y-101248124D01*
X76467578Y-101268742D01*
X76486743Y-101297425D01*
X76509433Y-101352203D01*
X76521000Y-101410353D01*
X76521000Y-101469647D01*
X76509433Y-101527797D01*
X76486743Y-101582575D01*
X76486742Y-101582577D01*
X76453802Y-101631876D01*
X76411876Y-101673802D01*
X76362577Y-101706742D01*
X76362576Y-101706743D01*
X76362575Y-101706743D01*
X76307797Y-101729433D01*
X76249647Y-101741000D01*
X76190353Y-101741000D01*
X76132203Y-101729433D01*
X76077425Y-101706743D01*
X76077424Y-101706743D01*
X76077423Y-101706742D01*
X76028124Y-101673802D01*
X75986198Y-101631876D01*
X75953258Y-101582577D01*
X75953257Y-101582575D01*
X75930567Y-101527797D01*
X75919000Y-101469647D01*
X75919000Y-101410353D01*
X75930567Y-101352203D01*
X75953257Y-101297425D01*
X75972422Y-101268742D01*
X75986198Y-101248124D01*
X76028124Y-101206198D01*
X76077423Y-101173258D01*
X76077425Y-101173257D01*
X76132203Y-101150567D01*
X76190353Y-101139000D01*
X76249647Y-101139000D01*
X76307797Y-101150567D01*
G37*
G36*
X75307797Y-101150567D02*
G01*
X75362575Y-101173257D01*
X75362577Y-101173258D01*
X75411876Y-101206198D01*
X75453802Y-101248124D01*
X75467578Y-101268742D01*
X75486743Y-101297425D01*
X75509433Y-101352203D01*
X75521000Y-101410353D01*
X75521000Y-101469647D01*
X75509433Y-101527797D01*
X75486743Y-101582575D01*
X75486742Y-101582577D01*
X75453802Y-101631876D01*
X75411876Y-101673802D01*
X75362577Y-101706742D01*
X75362576Y-101706743D01*
X75362575Y-101706743D01*
X75307797Y-101729433D01*
X75249647Y-101741000D01*
X75190353Y-101741000D01*
X75132203Y-101729433D01*
X75077425Y-101706743D01*
X75077424Y-101706743D01*
X75077423Y-101706742D01*
X75028124Y-101673802D01*
X74986198Y-101631876D01*
X74953258Y-101582577D01*
X74953257Y-101582575D01*
X74930567Y-101527797D01*
X74919000Y-101469647D01*
X74919000Y-101410353D01*
X74930567Y-101352203D01*
X74953257Y-101297425D01*
X74972422Y-101268742D01*
X74986198Y-101248124D01*
X75028124Y-101206198D01*
X75077423Y-101173258D01*
X75077425Y-101173257D01*
X75132203Y-101150567D01*
X75190353Y-101139000D01*
X75249647Y-101139000D01*
X75307797Y-101150567D01*
G37*
G36*
X74307797Y-101150567D02*
G01*
X74362575Y-101173257D01*
X74362577Y-101173258D01*
X74411876Y-101206198D01*
X74453802Y-101248124D01*
X74467578Y-101268742D01*
X74486743Y-101297425D01*
X74509433Y-101352203D01*
X74521000Y-101410353D01*
X74521000Y-101469647D01*
X74509433Y-101527797D01*
X74486743Y-101582575D01*
X74486742Y-101582577D01*
X74453802Y-101631876D01*
X74411876Y-101673802D01*
X74362577Y-101706742D01*
X74362576Y-101706743D01*
X74362575Y-101706743D01*
X74307797Y-101729433D01*
X74249647Y-101741000D01*
X74190353Y-101741000D01*
X74132203Y-101729433D01*
X74077425Y-101706743D01*
X74077424Y-101706743D01*
X74077423Y-101706742D01*
X74028124Y-101673802D01*
X73986198Y-101631876D01*
X73953258Y-101582577D01*
X73953257Y-101582575D01*
X73930567Y-101527797D01*
X73919000Y-101469647D01*
X73919000Y-101410353D01*
X73930567Y-101352203D01*
X73953257Y-101297425D01*
X73972422Y-101268742D01*
X73986198Y-101248124D01*
X74028124Y-101206198D01*
X74077423Y-101173258D01*
X74077425Y-101173257D01*
X74132203Y-101150567D01*
X74190353Y-101139000D01*
X74249647Y-101139000D01*
X74307797Y-101150567D01*
G37*
G36*
X73307797Y-101150567D02*
G01*
X73362575Y-101173257D01*
X73362577Y-101173258D01*
X73411876Y-101206198D01*
X73453802Y-101248124D01*
X73467578Y-101268742D01*
X73486743Y-101297425D01*
X73509433Y-101352203D01*
X73521000Y-101410353D01*
X73521000Y-101469647D01*
X73509433Y-101527797D01*
X73486743Y-101582575D01*
X73486742Y-101582577D01*
X73453802Y-101631876D01*
X73411876Y-101673802D01*
X73362577Y-101706742D01*
X73362576Y-101706743D01*
X73362575Y-101706743D01*
X73307797Y-101729433D01*
X73249647Y-101741000D01*
X73190353Y-101741000D01*
X73132203Y-101729433D01*
X73077425Y-101706743D01*
X73077424Y-101706743D01*
X73077423Y-101706742D01*
X73028124Y-101673802D01*
X72986198Y-101631876D01*
X72953258Y-101582577D01*
X72953257Y-101582575D01*
X72930567Y-101527797D01*
X72919000Y-101469647D01*
X72919000Y-101410353D01*
X72930567Y-101352203D01*
X72953257Y-101297425D01*
X72972422Y-101268742D01*
X72986198Y-101248124D01*
X73028124Y-101206198D01*
X73077423Y-101173258D01*
X73077425Y-101173257D01*
X73132203Y-101150567D01*
X73190353Y-101139000D01*
X73249647Y-101139000D01*
X73307797Y-101150567D01*
G37*
G36*
X66626564Y-99554389D02*
G01*
X66817833Y-99633615D01*
X66817835Y-99633616D01*
X66934777Y-99711754D01*
X66989973Y-99748635D01*
X67136365Y-99895027D01*
X67251385Y-100067167D01*
X67330611Y-100258436D01*
X67371000Y-100461484D01*
X67371000Y-100668516D01*
X67330611Y-100871564D01*
X67279471Y-100995027D01*
X67251384Y-101062835D01*
X67136365Y-101234973D01*
X66989973Y-101381365D01*
X66817835Y-101496384D01*
X66817834Y-101496385D01*
X66817833Y-101496385D01*
X66626564Y-101575611D01*
X66423516Y-101616000D01*
X66216484Y-101616000D01*
X66013436Y-101575611D01*
X65822167Y-101496385D01*
X65822166Y-101496385D01*
X65822165Y-101496384D01*
X65650027Y-101381365D01*
X65503635Y-101234973D01*
X65388616Y-101062835D01*
X65360529Y-100995027D01*
X65309389Y-100871564D01*
X65269000Y-100668516D01*
X65269000Y-100461484D01*
X65309389Y-100258436D01*
X65388615Y-100067167D01*
X65503635Y-99895027D01*
X65650027Y-99748635D01*
X65705223Y-99711754D01*
X65822165Y-99633616D01*
X65822167Y-99633615D01*
X66013436Y-99554389D01*
X66216484Y-99514000D01*
X66423516Y-99514000D01*
X66626564Y-99554389D01*
G37*
G36*
X90455000Y-101396000D02*
G01*
X89653000Y-101396000D01*
X89653000Y-100794000D01*
X90455000Y-100794000D01*
X90455000Y-101396000D01*
G37*
G36*
X77307797Y-100150567D02*
G01*
X77362575Y-100173257D01*
X77362577Y-100173258D01*
X77411876Y-100206198D01*
X77453802Y-100248124D01*
X77455037Y-100249973D01*
X77486743Y-100297425D01*
X77509433Y-100352203D01*
X77521000Y-100410353D01*
X77521000Y-100469647D01*
X77509433Y-100527797D01*
X77487798Y-100580027D01*
X77486742Y-100582577D01*
X77453802Y-100631876D01*
X77411876Y-100673802D01*
X77362577Y-100706742D01*
X77362576Y-100706743D01*
X77362575Y-100706743D01*
X77307797Y-100729433D01*
X77249647Y-100741000D01*
X77190353Y-100741000D01*
X77132203Y-100729433D01*
X77077425Y-100706743D01*
X77077424Y-100706743D01*
X77077423Y-100706742D01*
X77028124Y-100673802D01*
X76986198Y-100631876D01*
X76953258Y-100582577D01*
X76952202Y-100580027D01*
X76930567Y-100527797D01*
X76919000Y-100469647D01*
X76919000Y-100410353D01*
X76930567Y-100352203D01*
X76953257Y-100297425D01*
X76984963Y-100249973D01*
X76986198Y-100248124D01*
X77028124Y-100206198D01*
X77077423Y-100173258D01*
X77077425Y-100173257D01*
X77132203Y-100150567D01*
X77190353Y-100139000D01*
X77249647Y-100139000D01*
X77307797Y-100150567D01*
G37*
G36*
X76307797Y-100150567D02*
G01*
X76362575Y-100173257D01*
X76362577Y-100173258D01*
X76411876Y-100206198D01*
X76453802Y-100248124D01*
X76455037Y-100249973D01*
X76486743Y-100297425D01*
X76509433Y-100352203D01*
X76521000Y-100410353D01*
X76521000Y-100469647D01*
X76509433Y-100527797D01*
X76487798Y-100580027D01*
X76486742Y-100582577D01*
X76453802Y-100631876D01*
X76411876Y-100673802D01*
X76362577Y-100706742D01*
X76362576Y-100706743D01*
X76362575Y-100706743D01*
X76307797Y-100729433D01*
X76249647Y-100741000D01*
X76190353Y-100741000D01*
X76132203Y-100729433D01*
X76077425Y-100706743D01*
X76077424Y-100706743D01*
X76077423Y-100706742D01*
X76028124Y-100673802D01*
X75986198Y-100631876D01*
X75953258Y-100582577D01*
X75952202Y-100580027D01*
X75930567Y-100527797D01*
X75919000Y-100469647D01*
X75919000Y-100410353D01*
X75930567Y-100352203D01*
X75953257Y-100297425D01*
X75984963Y-100249973D01*
X75986198Y-100248124D01*
X76028124Y-100206198D01*
X76077423Y-100173258D01*
X76077425Y-100173257D01*
X76132203Y-100150567D01*
X76190353Y-100139000D01*
X76249647Y-100139000D01*
X76307797Y-100150567D01*
G37*
G36*
X75307797Y-100150567D02*
G01*
X75362575Y-100173257D01*
X75362577Y-100173258D01*
X75411876Y-100206198D01*
X75453802Y-100248124D01*
X75455037Y-100249973D01*
X75486743Y-100297425D01*
X75509433Y-100352203D01*
X75521000Y-100410353D01*
X75521000Y-100469647D01*
X75509433Y-100527797D01*
X75487798Y-100580027D01*
X75486742Y-100582577D01*
X75453802Y-100631876D01*
X75411876Y-100673802D01*
X75362577Y-100706742D01*
X75362576Y-100706743D01*
X75362575Y-100706743D01*
X75307797Y-100729433D01*
X75249647Y-100741000D01*
X75190353Y-100741000D01*
X75132203Y-100729433D01*
X75077425Y-100706743D01*
X75077424Y-100706743D01*
X75077423Y-100706742D01*
X75028124Y-100673802D01*
X74986198Y-100631876D01*
X74953258Y-100582577D01*
X74952202Y-100580027D01*
X74930567Y-100527797D01*
X74919000Y-100469647D01*
X74919000Y-100410353D01*
X74930567Y-100352203D01*
X74953257Y-100297425D01*
X74984963Y-100249973D01*
X74986198Y-100248124D01*
X75028124Y-100206198D01*
X75077423Y-100173258D01*
X75077425Y-100173257D01*
X75132203Y-100150567D01*
X75190353Y-100139000D01*
X75249647Y-100139000D01*
X75307797Y-100150567D01*
G37*
G36*
X74307797Y-100150567D02*
G01*
X74362575Y-100173257D01*
X74362577Y-100173258D01*
X74411876Y-100206198D01*
X74453802Y-100248124D01*
X74455037Y-100249973D01*
X74486743Y-100297425D01*
X74509433Y-100352203D01*
X74521000Y-100410353D01*
X74521000Y-100469647D01*
X74509433Y-100527797D01*
X74487798Y-100580027D01*
X74486742Y-100582577D01*
X74453802Y-100631876D01*
X74411876Y-100673802D01*
X74362577Y-100706742D01*
X74362576Y-100706743D01*
X74362575Y-100706743D01*
X74307797Y-100729433D01*
X74249647Y-100741000D01*
X74190353Y-100741000D01*
X74132203Y-100729433D01*
X74077425Y-100706743D01*
X74077424Y-100706743D01*
X74077423Y-100706742D01*
X74028124Y-100673802D01*
X73986198Y-100631876D01*
X73953258Y-100582577D01*
X73952202Y-100580027D01*
X73930567Y-100527797D01*
X73919000Y-100469647D01*
X73919000Y-100410353D01*
X73930567Y-100352203D01*
X73953257Y-100297425D01*
X73984963Y-100249973D01*
X73986198Y-100248124D01*
X74028124Y-100206198D01*
X74077423Y-100173258D01*
X74077425Y-100173257D01*
X74132203Y-100150567D01*
X74190353Y-100139000D01*
X74249647Y-100139000D01*
X74307797Y-100150567D01*
G37*
G36*
X73307797Y-100150567D02*
G01*
X73362575Y-100173257D01*
X73362577Y-100173258D01*
X73411876Y-100206198D01*
X73453802Y-100248124D01*
X73455037Y-100249973D01*
X73486743Y-100297425D01*
X73509433Y-100352203D01*
X73521000Y-100410353D01*
X73521000Y-100469647D01*
X73509433Y-100527797D01*
X73487798Y-100580027D01*
X73486742Y-100582577D01*
X73453802Y-100631876D01*
X73411876Y-100673802D01*
X73362577Y-100706742D01*
X73362576Y-100706743D01*
X73362575Y-100706743D01*
X73307797Y-100729433D01*
X73249647Y-100741000D01*
X73190353Y-100741000D01*
X73132203Y-100729433D01*
X73077425Y-100706743D01*
X73077424Y-100706743D01*
X73077423Y-100706742D01*
X73028124Y-100673802D01*
X72986198Y-100631876D01*
X72953258Y-100582577D01*
X72952202Y-100580027D01*
X72930567Y-100527797D01*
X72919000Y-100469647D01*
X72919000Y-100410353D01*
X72930567Y-100352203D01*
X72953257Y-100297425D01*
X72984963Y-100249973D01*
X72986198Y-100248124D01*
X73028124Y-100206198D01*
X73077423Y-100173258D01*
X73077425Y-100173257D01*
X73132203Y-100150567D01*
X73190353Y-100139000D01*
X73249647Y-100139000D01*
X73307797Y-100150567D01*
G37*
G36*
X31346564Y-98569389D02*
G01*
X31537833Y-98648615D01*
X31537835Y-98648616D01*
X31709973Y-98763635D01*
X31856365Y-98910027D01*
X31967265Y-99076000D01*
X31971385Y-99082167D01*
X32050611Y-99273436D01*
X32091000Y-99476484D01*
X32091000Y-99683516D01*
X32050611Y-99886564D01*
X31975804Y-100067165D01*
X31971384Y-100077835D01*
X31856365Y-100249973D01*
X31709973Y-100396365D01*
X31537835Y-100511384D01*
X31537834Y-100511385D01*
X31537833Y-100511385D01*
X31346564Y-100590611D01*
X31143516Y-100631000D01*
X30936484Y-100631000D01*
X30733436Y-100590611D01*
X30542167Y-100511385D01*
X30542166Y-100511385D01*
X30542165Y-100511384D01*
X30370027Y-100396365D01*
X30223635Y-100249973D01*
X30108616Y-100077835D01*
X30104196Y-100067165D01*
X30029389Y-99886564D01*
X29989000Y-99683516D01*
X29989000Y-99476484D01*
X30029389Y-99273436D01*
X30108615Y-99082167D01*
X30112736Y-99076000D01*
X30223635Y-98910027D01*
X30370027Y-98763635D01*
X30542165Y-98648616D01*
X30542167Y-98648615D01*
X30733436Y-98569389D01*
X30936484Y-98529000D01*
X31143516Y-98529000D01*
X31346564Y-98569389D01*
G37*
G36*
X25922578Y-99524197D02*
G01*
X25975350Y-99534694D01*
X26074770Y-99575875D01*
X26164246Y-99635661D01*
X26240339Y-99711754D01*
X26300125Y-99801230D01*
X26341306Y-99900650D01*
X26362300Y-100006194D01*
X26362300Y-100113806D01*
X26341306Y-100219350D01*
X26300125Y-100318770D01*
X26240339Y-100408246D01*
X26164246Y-100484339D01*
X26074770Y-100544125D01*
X25975350Y-100585306D01*
X25922578Y-100595803D01*
X25869807Y-100606300D01*
X25762193Y-100606300D01*
X25709422Y-100595803D01*
X25656650Y-100585306D01*
X25557230Y-100544125D01*
X25467754Y-100484339D01*
X25391661Y-100408246D01*
X25331875Y-100318770D01*
X25290694Y-100219350D01*
X25269700Y-100113806D01*
X25269700Y-100006194D01*
X25290694Y-99900650D01*
X25331875Y-99801230D01*
X25391661Y-99711754D01*
X25467754Y-99635661D01*
X25557230Y-99575875D01*
X25656650Y-99534694D01*
X25709422Y-99524197D01*
X25762193Y-99513700D01*
X25869807Y-99513700D01*
X25922578Y-99524197D01*
G37*
G36*
X23890578Y-99524197D02*
G01*
X23943350Y-99534694D01*
X24042770Y-99575875D01*
X24132246Y-99635661D01*
X24208339Y-99711754D01*
X24268125Y-99801230D01*
X24309306Y-99900650D01*
X24330300Y-100006194D01*
X24330300Y-100113806D01*
X24309306Y-100219350D01*
X24268125Y-100318770D01*
X24208339Y-100408246D01*
X24132246Y-100484339D01*
X24042770Y-100544125D01*
X23943350Y-100585306D01*
X23890578Y-100595803D01*
X23837807Y-100606300D01*
X23730193Y-100606300D01*
X23677422Y-100595803D01*
X23624650Y-100585306D01*
X23525230Y-100544125D01*
X23435754Y-100484339D01*
X23359661Y-100408246D01*
X23299875Y-100318770D01*
X23258694Y-100219350D01*
X23237700Y-100113806D01*
X23237700Y-100006194D01*
X23258694Y-99900650D01*
X23299875Y-99801230D01*
X23359661Y-99711754D01*
X23435754Y-99635661D01*
X23525230Y-99575875D01*
X23624650Y-99534694D01*
X23677422Y-99524197D01*
X23730193Y-99513700D01*
X23837807Y-99513700D01*
X23890578Y-99524197D01*
G37*
G36*
X59076000Y-100601000D02*
G01*
X57974000Y-100601000D01*
X57974000Y-99249000D01*
X59076000Y-99249000D01*
X59076000Y-100601000D01*
G37*
G36*
X61076000Y-100601000D02*
G01*
X59974000Y-100601000D01*
X59974000Y-99249000D01*
X61076000Y-99249000D01*
X61076000Y-100601000D01*
G37*
G36*
X93551000Y-100151000D02*
G01*
X92449000Y-100151000D01*
X92449000Y-96849000D01*
X93551000Y-96849000D01*
X93551000Y-100151000D01*
G37*
G36*
X87351000Y-100151000D02*
G01*
X86249000Y-100151000D01*
X86249000Y-96849000D01*
X87351000Y-96849000D01*
X87351000Y-100151000D01*
G37*
G36*
X71451000Y-100051000D02*
G01*
X70449000Y-100051000D01*
X70449000Y-99449000D01*
X71451000Y-99449000D01*
X71451000Y-100051000D01*
G37*
G36*
X8043512Y-97743927D02*
G01*
X8192812Y-97773624D01*
X8356784Y-97841544D01*
X8504354Y-97940147D01*
X8629853Y-98065646D01*
X8728456Y-98213216D01*
X8796376Y-98377188D01*
X8825346Y-98522833D01*
X8831000Y-98551258D01*
X8831000Y-98728742D01*
X8826073Y-98753512D01*
X8796376Y-98902812D01*
X8728456Y-99066784D01*
X8629853Y-99214354D01*
X8504354Y-99339853D01*
X8356784Y-99438456D01*
X8192812Y-99506376D01*
X8050444Y-99534694D01*
X8018742Y-99541000D01*
X7841258Y-99541000D01*
X7809556Y-99534694D01*
X7667188Y-99506376D01*
X7503216Y-99438456D01*
X7355646Y-99339853D01*
X7230147Y-99214354D01*
X7131544Y-99066784D01*
X7063624Y-98902812D01*
X7033927Y-98753512D01*
X7029000Y-98728742D01*
X7029000Y-98551258D01*
X7034654Y-98522833D01*
X7063624Y-98377188D01*
X7131544Y-98213216D01*
X7230147Y-98065646D01*
X7355646Y-97940147D01*
X7503216Y-97841544D01*
X7667188Y-97773624D01*
X7816488Y-97743927D01*
X7841258Y-97739000D01*
X8018742Y-97739000D01*
X8043512Y-97743927D01*
G37*
G36*
X10583512Y-97743927D02*
G01*
X10732812Y-97773624D01*
X10896784Y-97841544D01*
X11044354Y-97940147D01*
X11169853Y-98065646D01*
X11268456Y-98213216D01*
X11336376Y-98377188D01*
X11365346Y-98522833D01*
X11371000Y-98551258D01*
X11371000Y-98728742D01*
X11366073Y-98753512D01*
X11336376Y-98902812D01*
X11268456Y-99066784D01*
X11169853Y-99214354D01*
X11044354Y-99339853D01*
X10896784Y-99438456D01*
X10732812Y-99506376D01*
X10590444Y-99534694D01*
X10558742Y-99541000D01*
X10381258Y-99541000D01*
X10349556Y-99534694D01*
X10207188Y-99506376D01*
X10043216Y-99438456D01*
X9895646Y-99339853D01*
X9770147Y-99214354D01*
X9671544Y-99066784D01*
X9603624Y-98902812D01*
X9573927Y-98753512D01*
X9569000Y-98728742D01*
X9569000Y-98551258D01*
X9574654Y-98522833D01*
X9603624Y-98377188D01*
X9671544Y-98213216D01*
X9770147Y-98065646D01*
X9895646Y-97940147D01*
X10043216Y-97841544D01*
X10207188Y-97773624D01*
X10356488Y-97743927D01*
X10381258Y-97739000D01*
X10558742Y-97739000D01*
X10583512Y-97743927D01*
G37*
G36*
X17451564Y-97054389D02*
G01*
X17613307Y-97121385D01*
X17642835Y-97133616D01*
X17743100Y-97200611D01*
X17814973Y-97248635D01*
X17961365Y-97395027D01*
X18076385Y-97567167D01*
X18155611Y-97758436D01*
X18196000Y-97961484D01*
X18196000Y-98168516D01*
X18155611Y-98371564D01*
X18081179Y-98551259D01*
X18076384Y-98562835D01*
X17961365Y-98734973D01*
X17814973Y-98881365D01*
X17642835Y-98996384D01*
X17642834Y-98996385D01*
X17642833Y-98996385D01*
X17451564Y-99075611D01*
X17248516Y-99116000D01*
X17041484Y-99116000D01*
X16838436Y-99075611D01*
X16647167Y-98996385D01*
X16647166Y-98996385D01*
X16647165Y-98996384D01*
X16475027Y-98881365D01*
X16328635Y-98734973D01*
X16213616Y-98562835D01*
X16208821Y-98551259D01*
X16134389Y-98371564D01*
X16094000Y-98168516D01*
X16094000Y-97961484D01*
X16134389Y-97758436D01*
X16213615Y-97567167D01*
X16328635Y-97395027D01*
X16475027Y-97248635D01*
X16546900Y-97200611D01*
X16647165Y-97133616D01*
X16676693Y-97121385D01*
X16838436Y-97054389D01*
X17041484Y-97014000D01*
X17248516Y-97014000D01*
X17451564Y-97054389D01*
G37*
G36*
X48906564Y-97014389D02*
G01*
X49097833Y-97093615D01*
X49097835Y-97093616D01*
X49157699Y-97133616D01*
X49269973Y-97208635D01*
X49416365Y-97355027D01*
X49531385Y-97527167D01*
X49610611Y-97718436D01*
X49651000Y-97921484D01*
X49651000Y-98128516D01*
X49610611Y-98331564D01*
X49565281Y-98441000D01*
X49531384Y-98522835D01*
X49416365Y-98694973D01*
X49269973Y-98841365D01*
X49097835Y-98956384D01*
X49097834Y-98956385D01*
X49097833Y-98956385D01*
X48906564Y-99035611D01*
X48703516Y-99076000D01*
X48496484Y-99076000D01*
X48293436Y-99035611D01*
X48102167Y-98956385D01*
X48102166Y-98956385D01*
X48102165Y-98956384D01*
X47930027Y-98841365D01*
X47783635Y-98694973D01*
X47668616Y-98522835D01*
X47634719Y-98441000D01*
X47589389Y-98331564D01*
X47549000Y-98128516D01*
X47549000Y-97921484D01*
X47589389Y-97718436D01*
X47668615Y-97527167D01*
X47783635Y-97355027D01*
X47930027Y-97208635D01*
X48042301Y-97133616D01*
X48102165Y-97093616D01*
X48102167Y-97093615D01*
X48293436Y-97014389D01*
X48496484Y-96974000D01*
X48703516Y-96974000D01*
X48906564Y-97014389D01*
G37*
G36*
X60976000Y-98676000D02*
G01*
X60274000Y-98676000D01*
X60274000Y-98174000D01*
X60976000Y-98174000D01*
X60976000Y-98676000D01*
G37*
G36*
X71451000Y-98551000D02*
G01*
X70449000Y-98551000D01*
X70449000Y-97949000D01*
X71451000Y-97949000D01*
X71451000Y-98551000D01*
G37*
G36*
X66651564Y-96379389D02*
G01*
X66842833Y-96458615D01*
X66842835Y-96458616D01*
X67014973Y-96573635D01*
X67161365Y-96720027D01*
X67276385Y-96892167D01*
X67355611Y-97083436D01*
X67396000Y-97286484D01*
X67396000Y-97493516D01*
X67355611Y-97696564D01*
X67295558Y-97841544D01*
X67276384Y-97887835D01*
X67161365Y-98059973D01*
X67014973Y-98206365D01*
X66842835Y-98321384D01*
X66842834Y-98321385D01*
X66842833Y-98321385D01*
X66651564Y-98400611D01*
X66448516Y-98441000D01*
X66241484Y-98441000D01*
X66038436Y-98400611D01*
X65847167Y-98321385D01*
X65847166Y-98321385D01*
X65847165Y-98321384D01*
X65675027Y-98206365D01*
X65528635Y-98059973D01*
X65413616Y-97887835D01*
X65394442Y-97841544D01*
X65334389Y-97696564D01*
X65294000Y-97493516D01*
X65294000Y-97286484D01*
X65334389Y-97083436D01*
X65413615Y-96892167D01*
X65528635Y-96720027D01*
X65675027Y-96573635D01*
X65847165Y-96458616D01*
X65847167Y-96458615D01*
X66038436Y-96379389D01*
X66241484Y-96339000D01*
X66448516Y-96339000D01*
X66651564Y-96379389D01*
G37*
G36*
X60976000Y-97776000D02*
G01*
X60274000Y-97776000D01*
X60274000Y-97274000D01*
X60976000Y-97274000D01*
X60976000Y-97776000D01*
G37*
G36*
X31336564Y-95179389D02*
G01*
X31527833Y-95258615D01*
X31527835Y-95258616D01*
X31699973Y-95373635D01*
X31846365Y-95520027D01*
X31948723Y-95673216D01*
X31961385Y-95692167D01*
X32040611Y-95883436D01*
X32081000Y-96086484D01*
X32081000Y-96293516D01*
X32040611Y-96496564D01*
X31966968Y-96674354D01*
X31961384Y-96687835D01*
X31846365Y-96859973D01*
X31699973Y-97006365D01*
X31527835Y-97121384D01*
X31527834Y-97121385D01*
X31527833Y-97121385D01*
X31336564Y-97200611D01*
X31133516Y-97241000D01*
X30926484Y-97241000D01*
X30723436Y-97200611D01*
X30532167Y-97121385D01*
X30532166Y-97121385D01*
X30532165Y-97121384D01*
X30360027Y-97006365D01*
X30213635Y-96859973D01*
X30098616Y-96687835D01*
X30093032Y-96674354D01*
X30019389Y-96496564D01*
X29979000Y-96293516D01*
X29979000Y-96086484D01*
X30019389Y-95883436D01*
X30098615Y-95692167D01*
X30111278Y-95673216D01*
X30213635Y-95520027D01*
X30360027Y-95373635D01*
X30532165Y-95258616D01*
X30532167Y-95258615D01*
X30723436Y-95179389D01*
X30926484Y-95139000D01*
X31133516Y-95139000D01*
X31336564Y-95179389D01*
G37*
G36*
X58526000Y-97051000D02*
G01*
X57174000Y-97051000D01*
X57174000Y-95949000D01*
X58526000Y-95949000D01*
X58526000Y-97051000D01*
G37*
G36*
X8043512Y-95203927D02*
G01*
X8192812Y-95233624D01*
X8356784Y-95301544D01*
X8504354Y-95400147D01*
X8629853Y-95525646D01*
X8728456Y-95673216D01*
X8796376Y-95837188D01*
X8818616Y-95949000D01*
X8831000Y-96011258D01*
X8831000Y-96188742D01*
X8827797Y-96204843D01*
X8796376Y-96362812D01*
X8728456Y-96526784D01*
X8629853Y-96674354D01*
X8504354Y-96799853D01*
X8356784Y-96898456D01*
X8192812Y-96966376D01*
X8043512Y-96996073D01*
X8018742Y-97001000D01*
X7841258Y-97001000D01*
X7816488Y-96996073D01*
X7667188Y-96966376D01*
X7503216Y-96898456D01*
X7355646Y-96799853D01*
X7230147Y-96674354D01*
X7131544Y-96526784D01*
X7063624Y-96362812D01*
X7032203Y-96204843D01*
X7029000Y-96188742D01*
X7029000Y-96011258D01*
X7041384Y-95949000D01*
X7063624Y-95837188D01*
X7131544Y-95673216D01*
X7230147Y-95525646D01*
X7355646Y-95400147D01*
X7503216Y-95301544D01*
X7667188Y-95233624D01*
X7816488Y-95203927D01*
X7841258Y-95199000D01*
X8018742Y-95199000D01*
X8043512Y-95203927D01*
G37*
G36*
X10583512Y-95203927D02*
G01*
X10732812Y-95233624D01*
X10896784Y-95301544D01*
X11044354Y-95400147D01*
X11169853Y-95525646D01*
X11268456Y-95673216D01*
X11336376Y-95837188D01*
X11358616Y-95949000D01*
X11371000Y-96011258D01*
X11371000Y-96188742D01*
X11367797Y-96204843D01*
X11336376Y-96362812D01*
X11268456Y-96526784D01*
X11169853Y-96674354D01*
X11044354Y-96799853D01*
X10896784Y-96898456D01*
X10732812Y-96966376D01*
X10583512Y-96996073D01*
X10558742Y-97001000D01*
X10381258Y-97001000D01*
X10356488Y-96996073D01*
X10207188Y-96966376D01*
X10043216Y-96898456D01*
X9895646Y-96799853D01*
X9770147Y-96674354D01*
X9671544Y-96526784D01*
X9603624Y-96362812D01*
X9572203Y-96204843D01*
X9569000Y-96188742D01*
X9569000Y-96011258D01*
X9581384Y-95949000D01*
X9603624Y-95837188D01*
X9671544Y-95673216D01*
X9770147Y-95525646D01*
X9895646Y-95400147D01*
X10043216Y-95301544D01*
X10207188Y-95233624D01*
X10356488Y-95203927D01*
X10381258Y-95199000D01*
X10558742Y-95199000D01*
X10583512Y-95203927D01*
G37*
G36*
X94908126Y-91698698D02*
G01*
X94908730Y-91698757D01*
X94929460Y-91702881D01*
X94947842Y-91710495D01*
X94964386Y-91721550D01*
X94978450Y-91735614D01*
X94989505Y-91752158D01*
X94997119Y-91770540D01*
X95001243Y-91791270D01*
X95001302Y-91791874D01*
X95001852Y-91803062D01*
X95001852Y-95196938D01*
X95001302Y-95208126D01*
X95001243Y-95208730D01*
X94997119Y-95229460D01*
X94989505Y-95247842D01*
X94978450Y-95264386D01*
X94964386Y-95278450D01*
X94947842Y-95289505D01*
X94929460Y-95297119D01*
X94908730Y-95301243D01*
X94908126Y-95301302D01*
X94896938Y-95301852D01*
X94126851Y-95301852D01*
X94102465Y-95304254D01*
X94079016Y-95311367D01*
X94057405Y-95322918D01*
X94038463Y-95338463D01*
X94022918Y-95357405D01*
X94011367Y-95379016D01*
X94004254Y-95402465D01*
X94001852Y-95426851D01*
X94001852Y-96196938D01*
X94001302Y-96208126D01*
X94001243Y-96208730D01*
X93997119Y-96229460D01*
X93989505Y-96247842D01*
X93978450Y-96264386D01*
X93964386Y-96278450D01*
X93947842Y-96289505D01*
X93929460Y-96297119D01*
X93908730Y-96301243D01*
X93908126Y-96301302D01*
X93896938Y-96301852D01*
X92303062Y-96301852D01*
X92291874Y-96301302D01*
X92291270Y-96301243D01*
X92270540Y-96297119D01*
X92252158Y-96289505D01*
X92235614Y-96278450D01*
X92221550Y-96264386D01*
X92210495Y-96247842D01*
X92202881Y-96229460D01*
X92198757Y-96208730D01*
X92198698Y-96208126D01*
X92198148Y-96196938D01*
X92198148Y-91803062D01*
X92198698Y-91791874D01*
X92198757Y-91791270D01*
X92202881Y-91770540D01*
X92210495Y-91752158D01*
X92221550Y-91735614D01*
X92235614Y-91721550D01*
X92252158Y-91710495D01*
X92270540Y-91702881D01*
X92291270Y-91698757D01*
X92291874Y-91698698D01*
X92303062Y-91698148D01*
X94896938Y-91698148D01*
X94908126Y-91698698D01*
G37*
G36*
X91731000Y-96301000D02*
G01*
X90829000Y-96301000D01*
X90829000Y-91699000D01*
X91731000Y-91699000D01*
X91731000Y-96301000D01*
G37*
G36*
X96051000Y-96206000D02*
G01*
X94449000Y-96206000D01*
X94449000Y-95604000D01*
X96051000Y-95604000D01*
X96051000Y-96206000D01*
G37*
G36*
X90455000Y-96206000D02*
G01*
X89653000Y-96206000D01*
X89653000Y-95604000D01*
X90455000Y-95604000D01*
X90455000Y-96206000D01*
G37*
G36*
X61076000Y-96101000D02*
G01*
X59724000Y-96101000D01*
X59724000Y-94999000D01*
X61076000Y-94999000D01*
X61076000Y-96101000D01*
G37*
G36*
X66676564Y-93204389D02*
G01*
X66867833Y-93283615D01*
X66867835Y-93283616D01*
X67039973Y-93398635D01*
X67186365Y-93545027D01*
X67267197Y-93666000D01*
X67301385Y-93717167D01*
X67380611Y-93908436D01*
X67421000Y-94111484D01*
X67421000Y-94318516D01*
X67380611Y-94521564D01*
X67301385Y-94712833D01*
X67301384Y-94712835D01*
X67186365Y-94884973D01*
X67039973Y-95031365D01*
X66867835Y-95146384D01*
X66867834Y-95146385D01*
X66867833Y-95146385D01*
X66676564Y-95225611D01*
X66473516Y-95266000D01*
X66266484Y-95266000D01*
X66063436Y-95225611D01*
X65872167Y-95146385D01*
X65872166Y-95146385D01*
X65872165Y-95146384D01*
X65700027Y-95031365D01*
X65553635Y-94884973D01*
X65438616Y-94712835D01*
X65438615Y-94712833D01*
X65359389Y-94521564D01*
X65319000Y-94318516D01*
X65319000Y-94111484D01*
X65359389Y-93908436D01*
X65438615Y-93717167D01*
X65472804Y-93666000D01*
X65553635Y-93545027D01*
X65700027Y-93398635D01*
X65872165Y-93283616D01*
X65872167Y-93283615D01*
X66063436Y-93204389D01*
X66266484Y-93164000D01*
X66473516Y-93164000D01*
X66676564Y-93204389D01*
G37*
G36*
X96051000Y-95251000D02*
G01*
X95349000Y-95251000D01*
X95349000Y-91749000D01*
X96051000Y-91749000D01*
X96051000Y-95251000D01*
G37*
G36*
X58526000Y-95051000D02*
G01*
X57174000Y-95051000D01*
X57174000Y-93949000D01*
X58526000Y-93949000D01*
X58526000Y-95051000D01*
G37*
G36*
X90455000Y-94936000D02*
G01*
X89653000Y-94936000D01*
X89653000Y-94334000D01*
X90455000Y-94334000D01*
X90455000Y-94936000D01*
G37*
G36*
X10583512Y-92663927D02*
G01*
X10732812Y-92693624D01*
X10896784Y-92761544D01*
X11044354Y-92860147D01*
X11169853Y-92985646D01*
X11268456Y-93133216D01*
X11336376Y-93297188D01*
X11366073Y-93446488D01*
X11371000Y-93471258D01*
X11371000Y-93648742D01*
X11367797Y-93664843D01*
X11336376Y-93822812D01*
X11268456Y-93986784D01*
X11169853Y-94134354D01*
X11044354Y-94259853D01*
X10896784Y-94358456D01*
X10732812Y-94426376D01*
X10583512Y-94456073D01*
X10558742Y-94461000D01*
X10381258Y-94461000D01*
X10356488Y-94456073D01*
X10207188Y-94426376D01*
X10043216Y-94358456D01*
X9895646Y-94259853D01*
X9770147Y-94134354D01*
X9671544Y-93986784D01*
X9603624Y-93822812D01*
X9572203Y-93664843D01*
X9569000Y-93648742D01*
X9569000Y-93471258D01*
X9573927Y-93446488D01*
X9603624Y-93297188D01*
X9671544Y-93133216D01*
X9770147Y-92985646D01*
X9895646Y-92860147D01*
X10043216Y-92761544D01*
X10207188Y-92693624D01*
X10356488Y-92663927D01*
X10381258Y-92659000D01*
X10558742Y-92659000D01*
X10583512Y-92663927D01*
G37*
G36*
X8043512Y-92663927D02*
G01*
X8192812Y-92693624D01*
X8356784Y-92761544D01*
X8504354Y-92860147D01*
X8629853Y-92985646D01*
X8728456Y-93133216D01*
X8796376Y-93297188D01*
X8826073Y-93446488D01*
X8831000Y-93471258D01*
X8831000Y-93648742D01*
X8827797Y-93664843D01*
X8796376Y-93822812D01*
X8728456Y-93986784D01*
X8629853Y-94134354D01*
X8504354Y-94259853D01*
X8356784Y-94358456D01*
X8192812Y-94426376D01*
X8043512Y-94456073D01*
X8018742Y-94461000D01*
X7841258Y-94461000D01*
X7816488Y-94456073D01*
X7667188Y-94426376D01*
X7503216Y-94358456D01*
X7355646Y-94259853D01*
X7230147Y-94134354D01*
X7131544Y-93986784D01*
X7063624Y-93822812D01*
X7032203Y-93664843D01*
X7029000Y-93648742D01*
X7029000Y-93471258D01*
X7033927Y-93446488D01*
X7063624Y-93297188D01*
X7131544Y-93133216D01*
X7230147Y-92985646D01*
X7355646Y-92860147D01*
X7503216Y-92761544D01*
X7667188Y-92693624D01*
X7816488Y-92663927D01*
X7841258Y-92659000D01*
X8018742Y-92659000D01*
X8043512Y-92663927D01*
G37*
G36*
X61076000Y-94101000D02*
G01*
X59724000Y-94101000D01*
X59724000Y-92999000D01*
X61076000Y-92999000D01*
X61076000Y-94101000D01*
G37*
G36*
X31311564Y-91789389D02*
G01*
X31502833Y-91868615D01*
X31502835Y-91868616D01*
X31581233Y-91921000D01*
X31674973Y-91983635D01*
X31821365Y-92130027D01*
X31936385Y-92302167D01*
X32015611Y-92493436D01*
X32056000Y-92696484D01*
X32056000Y-92903516D01*
X32015611Y-93106564D01*
X31975090Y-93204390D01*
X31936384Y-93297835D01*
X31821365Y-93469973D01*
X31674973Y-93616365D01*
X31502835Y-93731384D01*
X31502834Y-93731385D01*
X31502833Y-93731385D01*
X31311564Y-93810611D01*
X31108516Y-93851000D01*
X30901484Y-93851000D01*
X30698436Y-93810611D01*
X30507167Y-93731385D01*
X30507166Y-93731385D01*
X30507165Y-93731384D01*
X30335027Y-93616365D01*
X30188635Y-93469973D01*
X30073616Y-93297835D01*
X30034910Y-93204390D01*
X29994389Y-93106564D01*
X29954000Y-92903516D01*
X29954000Y-92696484D01*
X29994389Y-92493436D01*
X30073615Y-92302167D01*
X30188635Y-92130027D01*
X30335027Y-91983635D01*
X30428767Y-91921000D01*
X30507165Y-91868616D01*
X30507167Y-91868615D01*
X30698436Y-91789389D01*
X30901484Y-91749000D01*
X31108516Y-91749000D01*
X31311564Y-91789389D01*
G37*
G36*
X90455000Y-93666000D02*
G01*
X89653000Y-93666000D01*
X89653000Y-93064000D01*
X90455000Y-93064000D01*
X90455000Y-93666000D01*
G37*
G36*
X89151000Y-93176000D02*
G01*
X88049000Y-93176000D01*
X88049000Y-91824000D01*
X89151000Y-91824000D01*
X89151000Y-93176000D01*
G37*
G36*
X87151000Y-93176000D02*
G01*
X86049000Y-93176000D01*
X86049000Y-91824000D01*
X87151000Y-91824000D01*
X87151000Y-93176000D01*
G37*
G36*
X24906578Y-91904197D02*
G01*
X24959350Y-91914694D01*
X25058770Y-91955875D01*
X25148246Y-92015661D01*
X25224339Y-92091754D01*
X25284125Y-92181230D01*
X25325306Y-92280650D01*
X25329586Y-92302167D01*
X25346233Y-92385854D01*
X25346300Y-92386194D01*
X25346300Y-92493806D01*
X25325306Y-92599350D01*
X25284125Y-92698770D01*
X25224339Y-92788246D01*
X25148246Y-92864339D01*
X25058770Y-92924125D01*
X24959350Y-92965306D01*
X24906578Y-92975803D01*
X24853807Y-92986300D01*
X24746193Y-92986300D01*
X24693422Y-92975803D01*
X24640650Y-92965306D01*
X24541230Y-92924125D01*
X24451754Y-92864339D01*
X24375661Y-92788246D01*
X24315875Y-92698770D01*
X24274694Y-92599350D01*
X24253700Y-92493806D01*
X24253700Y-92386194D01*
X24253768Y-92385854D01*
X24270414Y-92302167D01*
X24274694Y-92280650D01*
X24315875Y-92181230D01*
X24375661Y-92091754D01*
X24451754Y-92015661D01*
X24541230Y-91955875D01*
X24640650Y-91914694D01*
X24693422Y-91904197D01*
X24746193Y-91893700D01*
X24853807Y-91893700D01*
X24906578Y-91904197D01*
G37*
G36*
X90455000Y-92396000D02*
G01*
X89653000Y-92396000D01*
X89653000Y-91794000D01*
X90455000Y-91794000D01*
X90455000Y-92396000D01*
G37*
G36*
X8831000Y-91921000D02*
G01*
X7029000Y-91921000D01*
X7029000Y-90119000D01*
X8831000Y-90119000D01*
X8831000Y-91921000D01*
G37*
G36*
X10583512Y-90123927D02*
G01*
X10732812Y-90153624D01*
X10896784Y-90221544D01*
X11044354Y-90320147D01*
X11169853Y-90445646D01*
X11268456Y-90593216D01*
X11336376Y-90757188D01*
X11371000Y-90931259D01*
X11371000Y-91108741D01*
X11336376Y-91282812D01*
X11268456Y-91446784D01*
X11169853Y-91594354D01*
X11044354Y-91719853D01*
X10896784Y-91818456D01*
X10732812Y-91886376D01*
X10590444Y-91914694D01*
X10558742Y-91921000D01*
X10381258Y-91921000D01*
X10349556Y-91914694D01*
X10207188Y-91886376D01*
X10043216Y-91818456D01*
X9895646Y-91719853D01*
X9770147Y-91594354D01*
X9671544Y-91446784D01*
X9603624Y-91282812D01*
X9569000Y-91108741D01*
X9569000Y-90931259D01*
X9603624Y-90757188D01*
X9671544Y-90593216D01*
X9770147Y-90445646D01*
X9895646Y-90320147D01*
X10043216Y-90221544D01*
X10207188Y-90153624D01*
X10356488Y-90123927D01*
X10381258Y-90119000D01*
X10558742Y-90119000D01*
X10583512Y-90123927D01*
G37*
G36*
X64206564Y-88389389D02*
G01*
X64397833Y-88468615D01*
X64397835Y-88468616D01*
X64495143Y-88533635D01*
X64569973Y-88583635D01*
X64716365Y-88730027D01*
X64831385Y-88902167D01*
X64910611Y-89093436D01*
X64951000Y-89296484D01*
X64951000Y-89503516D01*
X64910611Y-89706564D01*
X64852095Y-89847835D01*
X64831384Y-89897835D01*
X64716365Y-90069973D01*
X64569973Y-90216365D01*
X64397835Y-90331384D01*
X64397834Y-90331385D01*
X64397833Y-90331385D01*
X64206564Y-90410611D01*
X64003516Y-90451000D01*
X63796484Y-90451000D01*
X63593436Y-90410611D01*
X63402167Y-90331385D01*
X63402166Y-90331385D01*
X63402165Y-90331384D01*
X63230027Y-90216365D01*
X63083635Y-90069973D01*
X62968616Y-89897835D01*
X62947905Y-89847835D01*
X62889389Y-89706564D01*
X62849000Y-89503516D01*
X62849000Y-89296484D01*
X62889389Y-89093436D01*
X62968615Y-88902167D01*
X63083635Y-88730027D01*
X63230027Y-88583635D01*
X63304857Y-88533635D01*
X63402165Y-88468616D01*
X63402167Y-88468615D01*
X63593436Y-88389389D01*
X63796484Y-88349000D01*
X64003516Y-88349000D01*
X64206564Y-88389389D01*
G37*
G36*
X31311564Y-88339389D02*
G01*
X31432277Y-88389390D01*
X31502835Y-88418616D01*
X31577665Y-88468616D01*
X31674973Y-88533635D01*
X31821365Y-88680027D01*
X31936385Y-88852167D01*
X32015611Y-89043436D01*
X32056000Y-89246484D01*
X32056000Y-89453516D01*
X32015611Y-89656564D01*
X31936385Y-89847833D01*
X31936384Y-89847835D01*
X31821365Y-90019973D01*
X31674973Y-90166365D01*
X31502835Y-90281384D01*
X31502834Y-90281385D01*
X31502833Y-90281385D01*
X31311564Y-90360611D01*
X31108516Y-90401000D01*
X30901484Y-90401000D01*
X30698436Y-90360611D01*
X30507167Y-90281385D01*
X30507166Y-90281385D01*
X30507165Y-90281384D01*
X30335027Y-90166365D01*
X30188635Y-90019973D01*
X30073616Y-89847835D01*
X30073615Y-89847833D01*
X29994389Y-89656564D01*
X29954000Y-89453516D01*
X29954000Y-89246484D01*
X29994389Y-89043436D01*
X30073615Y-88852167D01*
X30188635Y-88680027D01*
X30335027Y-88533635D01*
X30432335Y-88468616D01*
X30507165Y-88418616D01*
X30577723Y-88389390D01*
X30698436Y-88339389D01*
X30901484Y-88299000D01*
X31108516Y-88299000D01*
X31311564Y-88339389D01*
G37*
G36*
X67806564Y-88339389D02*
G01*
X67927277Y-88389390D01*
X67997835Y-88418616D01*
X68072665Y-88468616D01*
X68169973Y-88533635D01*
X68316365Y-88680027D01*
X68431385Y-88852167D01*
X68510611Y-89043436D01*
X68551000Y-89246484D01*
X68551000Y-89453516D01*
X68510611Y-89656564D01*
X68431385Y-89847833D01*
X68431384Y-89847835D01*
X68316365Y-90019973D01*
X68169973Y-90166365D01*
X67997835Y-90281384D01*
X67997834Y-90281385D01*
X67997833Y-90281385D01*
X67806564Y-90360611D01*
X67603516Y-90401000D01*
X67396484Y-90401000D01*
X67193436Y-90360611D01*
X67002167Y-90281385D01*
X67002166Y-90281385D01*
X67002165Y-90281384D01*
X66830027Y-90166365D01*
X66683635Y-90019973D01*
X66568616Y-89847835D01*
X66568615Y-89847833D01*
X66489389Y-89656564D01*
X66449000Y-89453516D01*
X66449000Y-89246484D01*
X66489389Y-89043436D01*
X66568615Y-88852167D01*
X66683635Y-88680027D01*
X66830027Y-88533635D01*
X66927335Y-88468616D01*
X67002165Y-88418616D01*
X67072723Y-88389390D01*
X67193436Y-88339389D01*
X67396484Y-88299000D01*
X67603516Y-88299000D01*
X67806564Y-88339389D01*
G37*
G36*
X59501000Y-88151000D02*
G01*
X58099000Y-88151000D01*
X58099000Y-87349000D01*
X59501000Y-87349000D01*
X59501000Y-88151000D01*
G37*
G36*
X56851000Y-88151000D02*
G01*
X55449000Y-88151000D01*
X55449000Y-87349000D01*
X56851000Y-87349000D01*
X56851000Y-88151000D01*
G37*
G36*
X54176000Y-88141000D02*
G01*
X52774000Y-88141000D01*
X52774000Y-87339000D01*
X54176000Y-87339000D01*
X54176000Y-88141000D01*
G37*
G36*
X51526000Y-88141000D02*
G01*
X50124000Y-88141000D01*
X50124000Y-87339000D01*
X51526000Y-87339000D01*
X51526000Y-88141000D01*
G37*
G36*
X102966564Y-85929389D02*
G01*
X103157833Y-86008615D01*
X103157835Y-86008616D01*
X103329973Y-86123635D01*
X103476365Y-86270027D01*
X103591385Y-86442167D01*
X103670611Y-86633436D01*
X103711000Y-86836484D01*
X103711000Y-87043516D01*
X103670611Y-87246564D01*
X103591385Y-87437833D01*
X103591384Y-87437835D01*
X103476365Y-87609973D01*
X103329973Y-87756365D01*
X103157835Y-87871384D01*
X103157834Y-87871385D01*
X103157833Y-87871385D01*
X102966564Y-87950611D01*
X102763516Y-87991000D01*
X102556484Y-87991000D01*
X102353436Y-87950611D01*
X102162167Y-87871385D01*
X102162166Y-87871385D01*
X102162165Y-87871384D01*
X101990027Y-87756365D01*
X101843635Y-87609973D01*
X101728616Y-87437835D01*
X101728615Y-87437833D01*
X101649389Y-87246564D01*
X101609000Y-87043516D01*
X101609000Y-86836484D01*
X101649389Y-86633436D01*
X101728615Y-86442167D01*
X101843635Y-86270027D01*
X101990027Y-86123635D01*
X102162165Y-86008616D01*
X102162167Y-86008615D01*
X102353436Y-85929389D01*
X102556484Y-85889000D01*
X102763516Y-85889000D01*
X102966564Y-85929389D01*
G37*
G36*
X56851000Y-86251000D02*
G01*
X55449000Y-86251000D01*
X55449000Y-85449000D01*
X56851000Y-85449000D01*
X56851000Y-86251000D01*
G37*
G36*
X59501000Y-86251000D02*
G01*
X58099000Y-86251000D01*
X58099000Y-85449000D01*
X59501000Y-85449000D01*
X59501000Y-86251000D01*
G37*
G36*
X51526000Y-86241000D02*
G01*
X50124000Y-86241000D01*
X50124000Y-85439000D01*
X51526000Y-85439000D01*
X51526000Y-86241000D01*
G37*
G36*
X54176000Y-86241000D02*
G01*
X52774000Y-86241000D01*
X52774000Y-85439000D01*
X54176000Y-85439000D01*
X54176000Y-86241000D01*
G37*
G36*
X20846564Y-83179389D02*
G01*
X21013693Y-83248616D01*
X21037835Y-83258616D01*
X21209973Y-83373635D01*
X21356365Y-83520027D01*
X21470809Y-83691304D01*
X21471385Y-83692167D01*
X21550611Y-83883436D01*
X21591000Y-84086484D01*
X21591000Y-84293516D01*
X21550611Y-84496564D01*
X21533656Y-84537496D01*
X21471384Y-84687835D01*
X21356365Y-84859973D01*
X21209973Y-85006365D01*
X21037835Y-85121384D01*
X21037834Y-85121385D01*
X21037833Y-85121385D01*
X20846564Y-85200611D01*
X20643516Y-85241000D01*
X20436484Y-85241000D01*
X20233436Y-85200611D01*
X20042167Y-85121385D01*
X20042166Y-85121385D01*
X20042165Y-85121384D01*
X19870027Y-85006365D01*
X19723635Y-84859973D01*
X19608616Y-84687835D01*
X19546344Y-84537496D01*
X19529389Y-84496564D01*
X19489000Y-84293516D01*
X19489000Y-84086484D01*
X19529389Y-83883436D01*
X19608615Y-83692167D01*
X19609192Y-83691304D01*
X19723635Y-83520027D01*
X19870027Y-83373635D01*
X20042165Y-83258616D01*
X20066307Y-83248616D01*
X20233436Y-83179389D01*
X20436484Y-83139000D01*
X20643516Y-83139000D01*
X20846564Y-83179389D01*
G37*
G36*
X27656564Y-83169389D02*
G01*
X27847833Y-83248615D01*
X27847835Y-83248616D01*
X28019973Y-83363635D01*
X28166365Y-83510027D01*
X28281385Y-83682167D01*
X28360611Y-83873436D01*
X28401000Y-84076484D01*
X28401000Y-84283516D01*
X28360611Y-84486564D01*
X28313494Y-84600314D01*
X28281384Y-84677835D01*
X28166365Y-84849973D01*
X28019973Y-84996365D01*
X27847835Y-85111384D01*
X27847834Y-85111385D01*
X27847833Y-85111385D01*
X27656564Y-85190611D01*
X27453516Y-85231000D01*
X27246484Y-85231000D01*
X27043436Y-85190611D01*
X26852167Y-85111385D01*
X26852166Y-85111385D01*
X26852165Y-85111384D01*
X26680027Y-84996365D01*
X26533635Y-84849973D01*
X26418616Y-84677835D01*
X26386506Y-84600314D01*
X26339389Y-84486564D01*
X26299000Y-84283516D01*
X26299000Y-84076484D01*
X26339389Y-83873436D01*
X26418615Y-83682167D01*
X26533635Y-83510027D01*
X26680027Y-83363635D01*
X26852165Y-83248616D01*
X26852167Y-83248615D01*
X27043436Y-83169389D01*
X27246484Y-83129000D01*
X27453516Y-83129000D01*
X27656564Y-83169389D01*
G37*
G36*
X107889943Y-79066248D02*
G01*
X108445189Y-79296238D01*
X108650518Y-79433435D01*
X108944899Y-79630134D01*
X109369866Y-80055101D01*
X109468976Y-80203430D01*
X109703762Y-80554811D01*
X109933752Y-81110057D01*
X110051000Y-81699501D01*
X110051000Y-82300499D01*
X109933752Y-82889943D01*
X109703762Y-83445189D01*
X109576660Y-83635410D01*
X109369866Y-83944899D01*
X108944899Y-84369866D01*
X108694023Y-84537496D01*
X108445189Y-84703762D01*
X107889943Y-84933752D01*
X107300499Y-85051000D01*
X106699501Y-85051000D01*
X106110057Y-84933752D01*
X105554811Y-84703762D01*
X105305977Y-84537496D01*
X105055101Y-84369866D01*
X104630134Y-83944899D01*
X104423340Y-83635410D01*
X104296238Y-83445189D01*
X104066248Y-82889943D01*
X103949000Y-82300499D01*
X103949000Y-81699501D01*
X104066248Y-81110057D01*
X104296238Y-80554811D01*
X104531024Y-80203430D01*
X104630134Y-80055101D01*
X105055101Y-79630134D01*
X105349482Y-79433435D01*
X105554811Y-79296238D01*
X106110057Y-79066248D01*
X106699501Y-78949000D01*
X107300499Y-78949000D01*
X107889943Y-79066248D01*
G37*
G36*
X88409000Y-84909000D02*
G01*
X82791000Y-84909000D01*
X82791000Y-79291000D01*
X88409000Y-79291000D01*
X88409000Y-84909000D01*
G37*
G36*
X93374930Y-79350329D02*
G01*
X93619355Y-79398948D01*
X94130561Y-79610696D01*
X94590633Y-79918107D01*
X94981893Y-80309367D01*
X95289304Y-80769439D01*
X95501052Y-81280645D01*
X95514913Y-81350329D01*
X95609000Y-81823336D01*
X95609000Y-82376664D01*
X95556630Y-82639943D01*
X95501052Y-82919355D01*
X95289304Y-83430561D01*
X94981893Y-83890633D01*
X94590633Y-84281893D01*
X94130561Y-84589304D01*
X93619355Y-84801052D01*
X93438457Y-84837035D01*
X93076664Y-84909000D01*
X92523336Y-84909000D01*
X92161543Y-84837035D01*
X91980645Y-84801052D01*
X91469439Y-84589304D01*
X91009367Y-84281893D01*
X90618107Y-83890633D01*
X90310696Y-83430561D01*
X90098948Y-82919355D01*
X90043370Y-82639943D01*
X89991000Y-82376664D01*
X89991000Y-81823336D01*
X90085087Y-81350329D01*
X90098948Y-81280645D01*
X90310696Y-80769439D01*
X90618107Y-80309367D01*
X91009367Y-79918107D01*
X91469439Y-79610696D01*
X91980645Y-79398948D01*
X92225070Y-79350329D01*
X92523336Y-79291000D01*
X93076664Y-79291000D01*
X93374930Y-79350329D01*
G37*
G36*
X10439943Y-78816248D02*
G01*
X10995189Y-79046238D01*
X11243347Y-79212052D01*
X11494899Y-79380134D01*
X11919866Y-79805101D01*
X12068440Y-80027458D01*
X12253762Y-80304811D01*
X12483752Y-80860057D01*
X12601000Y-81449501D01*
X12601000Y-82050499D01*
X12483752Y-82639943D01*
X12253762Y-83195189D01*
X12253761Y-83195190D01*
X11919866Y-83694899D01*
X11494899Y-84119866D01*
X11366619Y-84205580D01*
X10995189Y-84453762D01*
X10439943Y-84683752D01*
X9850499Y-84801000D01*
X9249501Y-84801000D01*
X8660057Y-84683752D01*
X8104811Y-84453762D01*
X7733381Y-84205580D01*
X7605101Y-84119866D01*
X7180134Y-83694899D01*
X6846239Y-83195190D01*
X6846238Y-83195189D01*
X6616248Y-82639943D01*
X6499000Y-82050499D01*
X6499000Y-81449501D01*
X6616248Y-80860057D01*
X6846238Y-80304811D01*
X7031560Y-80027458D01*
X7180134Y-79805101D01*
X7605101Y-79380134D01*
X7856653Y-79212052D01*
X8104811Y-79046238D01*
X8660057Y-78816248D01*
X9249501Y-78699000D01*
X9850499Y-78699000D01*
X10439943Y-78816248D01*
G37*
G36*
X66536000Y-84756000D02*
G01*
X65634000Y-84756000D01*
X65634000Y-83904000D01*
X66536000Y-83904000D01*
X66536000Y-84756000D01*
G37*
G36*
X68036000Y-84756000D02*
G01*
X67134000Y-84756000D01*
X67134000Y-83904000D01*
X68036000Y-83904000D01*
X68036000Y-84756000D01*
G37*
G36*
X99516564Y-78729389D02*
G01*
X99707833Y-78808615D01*
X99707835Y-78808616D01*
X99879973Y-78923635D01*
X100026365Y-79070027D01*
X100141385Y-79242167D01*
X100220611Y-79433436D01*
X100261000Y-79636484D01*
X100261000Y-79843516D01*
X100220611Y-80046564D01*
X100155635Y-80203430D01*
X100141384Y-80237835D01*
X100026365Y-80409973D01*
X99879973Y-80556365D01*
X99707835Y-80671384D01*
X99707834Y-80671385D01*
X99707833Y-80671385D01*
X99516564Y-80750611D01*
X99313516Y-80791000D01*
X99106484Y-80791000D01*
X98903436Y-80750611D01*
X98712167Y-80671385D01*
X98712166Y-80671385D01*
X98712165Y-80671384D01*
X98540027Y-80556365D01*
X98393635Y-80409973D01*
X98278616Y-80237835D01*
X98264365Y-80203430D01*
X98199389Y-80046564D01*
X98159000Y-79843516D01*
X98159000Y-79636484D01*
X98199389Y-79433436D01*
X98278615Y-79242167D01*
X98393635Y-79070027D01*
X98540027Y-78923635D01*
X98712165Y-78808616D01*
X98712167Y-78808615D01*
X98903436Y-78729389D01*
X99106484Y-78689000D01*
X99313516Y-78689000D01*
X99516564Y-78729389D01*
G37*
M02*
