G04 #@! TF.GenerationSoftware,KiCad,Pcbnew,(5.1.5)-3*
G04 #@! TF.CreationDate,2020-02-07T19:54:23-03:30*
G04 #@! TF.ProjectId,MCU_Powertrain,4d43555f-506f-4776-9572-747261696e2e,rev?*
G04 #@! TF.SameCoordinates,Original*
G04 #@! TF.FileFunction,Copper,L1,Top*
G04 #@! TF.FilePolarity,Positive*
%FSLAX46Y46*%
G04 Gerber Fmt 4.6, Leading zero omitted, Abs format (unit mm)*
G04 Created by KiCad (PCBNEW (5.1.5)-3) date 2020-02-07 19:54:23*
%MOMM*%
%LPD*%
G04 APERTURE LIST*
%ADD10R,0.250000X1.300000*%
%ADD11R,1.300000X0.250000*%
%ADD12R,3.200000X1.000000*%
%ADD13R,0.750000X0.800000*%
%ADD14R,4.000000X2.500000*%
%ADD15R,0.800000X0.750000*%
%ADD16R,1.250000X1.000000*%
%ADD17R,0.800000X0.800000*%
%ADD18R,1.100000X1.100000*%
%ADD19R,1.200000X1.200000*%
%ADD20C,6.000000*%
%ADD21C,0.800000*%
%ADD22R,13.000000X7.500000*%
%ADD23O,1.700000X1.700000*%
%ADD24R,1.700000X1.700000*%
%ADD25C,0.787400*%
%ADD26O,3.276600X1.638300*%
%ADD27C,5.516000*%
%ADD28R,5.516000X5.516000*%
%ADD29C,0.100000*%
%ADD30R,0.900000X0.500000*%
%ADD31R,0.500000X0.900000*%
%ADD32R,1.300000X0.700000*%
%ADD33R,0.700000X1.300000*%
%ADD34R,5.170000X5.170000*%
%ADD35R,0.300000X1.500000*%
%ADD36R,1.500000X0.300000*%
%ADD37C,0.500000*%
%ADD38R,1.060000X0.650000*%
%ADD39R,1.150000X1.400000*%
%ADD40R,0.750000X0.250000*%
%ADD41R,1.250000X1.250000*%
%ADD42R,0.730000X0.300000*%
%ADD43R,0.300000X0.730000*%
%ADD44R,0.600000X0.500000*%
%ADD45C,2.000000*%
%ADD46R,1.000000X1.250000*%
%ADD47R,0.775000X1.200000*%
%ADD48R,0.650000X0.350000*%
%ADD49C,0.127000*%
%ADD50C,0.500000*%
%ADD51C,0.250000*%
%ADD52C,0.254000*%
G04 APERTURE END LIST*
D10*
X55325000Y-98150000D03*
X55825000Y-98150000D03*
X56325000Y-98150000D03*
X56825000Y-98150000D03*
X57325000Y-98150000D03*
X57825000Y-98150000D03*
X58325000Y-98150000D03*
X58825000Y-98150000D03*
X59325000Y-98150000D03*
X59825000Y-98150000D03*
X60325000Y-98150000D03*
X60825000Y-98150000D03*
D11*
X62425000Y-99750000D03*
X62425000Y-100250000D03*
X62425000Y-100750000D03*
X62425000Y-101250000D03*
X62425000Y-101750000D03*
X62425000Y-102250000D03*
X62425000Y-102750000D03*
X62425000Y-103250000D03*
X62425000Y-103750000D03*
X62425000Y-104250000D03*
X62425000Y-104750000D03*
X62425000Y-105250000D03*
D10*
X60825000Y-106850000D03*
X60325000Y-106850000D03*
X59825000Y-106850000D03*
X59325000Y-106850000D03*
X58825000Y-106850000D03*
X58325000Y-106850000D03*
X57825000Y-106850000D03*
X57325000Y-106850000D03*
X56825000Y-106850000D03*
X56325000Y-106850000D03*
X55825000Y-106850000D03*
X55325000Y-106850000D03*
D11*
X53725000Y-105250000D03*
X53725000Y-104750000D03*
X53725000Y-104250000D03*
X53725000Y-103750000D03*
X53725000Y-103250000D03*
X53725000Y-102750000D03*
X53725000Y-102250000D03*
X53725000Y-101750000D03*
X53725000Y-101250000D03*
X53725000Y-100750000D03*
X53725000Y-100250000D03*
X53725000Y-99750000D03*
D12*
X56650000Y-124750000D03*
X49850000Y-124750000D03*
X49850000Y-128750000D03*
X56650000Y-128750000D03*
D13*
X76120000Y-94365000D03*
X76120000Y-92865000D03*
X73145000Y-92790000D03*
X73145000Y-94290000D03*
X75725000Y-121255000D03*
X75725000Y-122755000D03*
X75755000Y-118410000D03*
X75755000Y-119910000D03*
X75705000Y-125680000D03*
X75705000Y-124180000D03*
D14*
X86250000Y-93500000D03*
X92350000Y-93500000D03*
X92350000Y-111400000D03*
X86250000Y-111400000D03*
X86250000Y-102500000D03*
X92350000Y-102500000D03*
D13*
X75820000Y-117030000D03*
X75820000Y-115530000D03*
X79170000Y-95715000D03*
X79170000Y-94215000D03*
X80545000Y-96340000D03*
X80545000Y-94840000D03*
X42900000Y-125350000D03*
X42900000Y-126850000D03*
D15*
X39675000Y-122825000D03*
X41175000Y-122825000D03*
D13*
X31525000Y-122575000D03*
X31525000Y-124075000D03*
X53900000Y-114260000D03*
X53900000Y-115760000D03*
X57080000Y-115790000D03*
X57080000Y-114290000D03*
X60300000Y-114240000D03*
X60300000Y-115740000D03*
D15*
X71570000Y-96440000D03*
X70070000Y-96440000D03*
D16*
X29925000Y-123975000D03*
X29925000Y-121975000D03*
X26000000Y-122000000D03*
X26000000Y-124000000D03*
D13*
X27600000Y-122400000D03*
X27600000Y-123900000D03*
D16*
X75580000Y-87590000D03*
X75580000Y-85590000D03*
D15*
X67650000Y-81755000D03*
X66150000Y-81755000D03*
D17*
X99250000Y-82620000D03*
X99250000Y-84220000D03*
X69960000Y-94010000D03*
X69960000Y-92410000D03*
X77635000Y-86180000D03*
X77635000Y-87780000D03*
D18*
X72560000Y-80855000D03*
X69760000Y-80855000D03*
D19*
X53475000Y-85290000D03*
X53475000Y-87490000D03*
X50825000Y-87490000D03*
X50825000Y-85290000D03*
X58775000Y-87465000D03*
X58775000Y-85265000D03*
X56125000Y-85265000D03*
X56125000Y-87465000D03*
D20*
X107000000Y-126000000D03*
D21*
X109250000Y-126000000D03*
X108590990Y-127590990D03*
X107000000Y-128250000D03*
X105409010Y-127590990D03*
X104750000Y-126000000D03*
X105409010Y-124409010D03*
X107000000Y-123750000D03*
X108590990Y-124409010D03*
X11040990Y-124409010D03*
X9450000Y-123750000D03*
X7859010Y-124409010D03*
X7200000Y-126000000D03*
X7859010Y-127590990D03*
X9450000Y-128250000D03*
X11040990Y-127590990D03*
X11700000Y-126000000D03*
D20*
X9450000Y-126000000D03*
D21*
X11140990Y-80159010D03*
X9550000Y-79500000D03*
X7959010Y-80159010D03*
X7300000Y-81750000D03*
X7959010Y-83340990D03*
X9550000Y-84000000D03*
X11140990Y-83340990D03*
X11800000Y-81750000D03*
D20*
X9550000Y-81750000D03*
X107000000Y-82000000D03*
D21*
X109250000Y-82000000D03*
X108590990Y-83590990D03*
X107000000Y-84250000D03*
X105409010Y-83590990D03*
X104750000Y-82000000D03*
X105409010Y-80409010D03*
X107000000Y-79750000D03*
X108590990Y-80409010D03*
D22*
X104200000Y-93500000D03*
X104100000Y-102500000D03*
X104100000Y-111500000D03*
D23*
X10470000Y-101180000D03*
X7930000Y-101180000D03*
X10470000Y-98640000D03*
X7930000Y-98640000D03*
X10470000Y-96100000D03*
X7930000Y-96100000D03*
X10470000Y-93560000D03*
X7930000Y-93560000D03*
X10470000Y-91020000D03*
D24*
X7930000Y-91020000D03*
D25*
X25435000Y-93710000D03*
X25435000Y-94980000D03*
X25435000Y-96250000D03*
X25435000Y-97520000D03*
X25435000Y-98790000D03*
X24165000Y-98790000D03*
X24165000Y-97520000D03*
X24165000Y-96250000D03*
X24165000Y-94980000D03*
X24165000Y-93710000D03*
D26*
X17820000Y-112800000D03*
X17820000Y-115340000D03*
X17820000Y-110260000D03*
D27*
X92800000Y-82100000D03*
D28*
X85600000Y-82100000D03*
G04 #@! TA.AperFunction,SMDPad,CuDef*
D29*
G36*
X72534504Y-82206204D02*
G01*
X72558773Y-82209804D01*
X72582571Y-82215765D01*
X72605671Y-82224030D01*
X72627849Y-82234520D01*
X72648893Y-82247133D01*
X72668598Y-82261747D01*
X72686777Y-82278223D01*
X72703253Y-82296402D01*
X72717867Y-82316107D01*
X72730480Y-82337151D01*
X72740970Y-82359329D01*
X72749235Y-82382429D01*
X72755196Y-82406227D01*
X72758796Y-82430496D01*
X72760000Y-82455000D01*
X72760000Y-82955000D01*
X72758796Y-82979504D01*
X72755196Y-83003773D01*
X72749235Y-83027571D01*
X72740970Y-83050671D01*
X72730480Y-83072849D01*
X72717867Y-83093893D01*
X72703253Y-83113598D01*
X72686777Y-83131777D01*
X72668598Y-83148253D01*
X72648893Y-83162867D01*
X72627849Y-83175480D01*
X72605671Y-83185970D01*
X72582571Y-83194235D01*
X72558773Y-83200196D01*
X72534504Y-83203796D01*
X72510000Y-83205000D01*
X71010000Y-83205000D01*
X70985496Y-83203796D01*
X70961227Y-83200196D01*
X70937429Y-83194235D01*
X70914329Y-83185970D01*
X70892151Y-83175480D01*
X70871107Y-83162867D01*
X70851402Y-83148253D01*
X70833223Y-83131777D01*
X70816747Y-83113598D01*
X70802133Y-83093893D01*
X70789520Y-83072849D01*
X70779030Y-83050671D01*
X70770765Y-83027571D01*
X70764804Y-83003773D01*
X70761204Y-82979504D01*
X70760000Y-82955000D01*
X70760000Y-82455000D01*
X70761204Y-82430496D01*
X70764804Y-82406227D01*
X70770765Y-82382429D01*
X70779030Y-82359329D01*
X70789520Y-82337151D01*
X70802133Y-82316107D01*
X70816747Y-82296402D01*
X70833223Y-82278223D01*
X70851402Y-82261747D01*
X70871107Y-82247133D01*
X70892151Y-82234520D01*
X70914329Y-82224030D01*
X70937429Y-82215765D01*
X70961227Y-82209804D01*
X70985496Y-82206204D01*
X71010000Y-82205000D01*
X72510000Y-82205000D01*
X72534504Y-82206204D01*
G37*
G04 #@! TD.AperFunction*
G04 #@! TA.AperFunction,SMDPad,CuDef*
G36*
X72534504Y-87206204D02*
G01*
X72558773Y-87209804D01*
X72582571Y-87215765D01*
X72605671Y-87224030D01*
X72627849Y-87234520D01*
X72648893Y-87247133D01*
X72668598Y-87261747D01*
X72686777Y-87278223D01*
X72703253Y-87296402D01*
X72717867Y-87316107D01*
X72730480Y-87337151D01*
X72740970Y-87359329D01*
X72749235Y-87382429D01*
X72755196Y-87406227D01*
X72758796Y-87430496D01*
X72760000Y-87455000D01*
X72760000Y-87955000D01*
X72758796Y-87979504D01*
X72755196Y-88003773D01*
X72749235Y-88027571D01*
X72740970Y-88050671D01*
X72730480Y-88072849D01*
X72717867Y-88093893D01*
X72703253Y-88113598D01*
X72686777Y-88131777D01*
X72668598Y-88148253D01*
X72648893Y-88162867D01*
X72627849Y-88175480D01*
X72605671Y-88185970D01*
X72582571Y-88194235D01*
X72558773Y-88200196D01*
X72534504Y-88203796D01*
X72510000Y-88205000D01*
X71010000Y-88205000D01*
X70985496Y-88203796D01*
X70961227Y-88200196D01*
X70937429Y-88194235D01*
X70914329Y-88185970D01*
X70892151Y-88175480D01*
X70871107Y-88162867D01*
X70851402Y-88148253D01*
X70833223Y-88131777D01*
X70816747Y-88113598D01*
X70802133Y-88093893D01*
X70789520Y-88072849D01*
X70779030Y-88050671D01*
X70770765Y-88027571D01*
X70764804Y-88003773D01*
X70761204Y-87979504D01*
X70760000Y-87955000D01*
X70760000Y-87455000D01*
X70761204Y-87430496D01*
X70764804Y-87406227D01*
X70770765Y-87382429D01*
X70779030Y-87359329D01*
X70789520Y-87337151D01*
X70802133Y-87316107D01*
X70816747Y-87296402D01*
X70833223Y-87278223D01*
X70851402Y-87261747D01*
X70871107Y-87247133D01*
X70892151Y-87234520D01*
X70914329Y-87224030D01*
X70937429Y-87215765D01*
X70961227Y-87209804D01*
X70985496Y-87206204D01*
X71010000Y-87205000D01*
X72510000Y-87205000D01*
X72534504Y-87206204D01*
G37*
G04 #@! TD.AperFunction*
D30*
X74670000Y-92790000D03*
X74670000Y-94290000D03*
X78650000Y-122630000D03*
X78650000Y-121130000D03*
X78655000Y-118260000D03*
X78655000Y-119760000D03*
X78630000Y-124030000D03*
X78630000Y-125530000D03*
D31*
X69810000Y-90960000D03*
X71310000Y-90960000D03*
D30*
X99220000Y-86940000D03*
X99220000Y-85440000D03*
X71410000Y-92310000D03*
X71410000Y-93810000D03*
X77150000Y-122630000D03*
X77150000Y-121130000D03*
X77180000Y-118260000D03*
X77180000Y-119760000D03*
X77130000Y-124030000D03*
X77130000Y-125530000D03*
X78790000Y-116880000D03*
X78790000Y-115380000D03*
X77290000Y-116880000D03*
X77290000Y-115380000D03*
D32*
X37025000Y-121075000D03*
X37025000Y-119175000D03*
D33*
X34775000Y-128000000D03*
X32875000Y-128000000D03*
D30*
X79100000Y-86330000D03*
X79100000Y-87830000D03*
X52450000Y-115630000D03*
X52450000Y-114130000D03*
X55650000Y-115650000D03*
X55650000Y-114150000D03*
X58840000Y-114100000D03*
X58840000Y-115600000D03*
D31*
X64160000Y-87005000D03*
X65660000Y-87005000D03*
D30*
X64060000Y-83830000D03*
X64060000Y-85330000D03*
D32*
X35600000Y-96210000D03*
X35600000Y-98110000D03*
X33750000Y-102600000D03*
X33750000Y-104500000D03*
X33700000Y-98110000D03*
X33700000Y-96210000D03*
X36300000Y-86800000D03*
X36300000Y-84900000D03*
D34*
X75220000Y-102440000D03*
D35*
X72470000Y-98240000D03*
X72970000Y-98240000D03*
X73470000Y-98240000D03*
X73970000Y-98240000D03*
X74470000Y-98240000D03*
X74970000Y-98240000D03*
X75470000Y-98240000D03*
X75970000Y-98240000D03*
X76470000Y-98240000D03*
X76970000Y-98240000D03*
X77470000Y-98240000D03*
X77970000Y-98240000D03*
D36*
X79420000Y-99690000D03*
X79420000Y-100190000D03*
X79420000Y-100690000D03*
X79420000Y-101190000D03*
X79420000Y-101690000D03*
X79420000Y-102190000D03*
X79420000Y-102690000D03*
X79420000Y-103190000D03*
X79420000Y-103690000D03*
X79420000Y-104190000D03*
X79420000Y-104690000D03*
X79420000Y-105190000D03*
D35*
X77970000Y-106640000D03*
X77470000Y-106640000D03*
X76970000Y-106640000D03*
X76470000Y-106640000D03*
X75970000Y-106640000D03*
X75470000Y-106640000D03*
X74970000Y-106640000D03*
X74470000Y-106640000D03*
X73970000Y-106640000D03*
X73470000Y-106640000D03*
X72970000Y-106640000D03*
X72470000Y-106640000D03*
D36*
X71020000Y-105190000D03*
X71020000Y-104690000D03*
X71020000Y-104190000D03*
X71020000Y-103690000D03*
X71020000Y-103190000D03*
X71020000Y-102690000D03*
X71020000Y-102190000D03*
X71020000Y-101690000D03*
X71020000Y-101190000D03*
X71020000Y-100690000D03*
X71020000Y-100190000D03*
X71020000Y-99690000D03*
D37*
X73220000Y-100440000D03*
X74220000Y-100440000D03*
X76220000Y-100440000D03*
X75220000Y-100440000D03*
X77220000Y-100440000D03*
X73220000Y-101440000D03*
X75220000Y-101440000D03*
X76220000Y-101440000D03*
X74220000Y-101440000D03*
X77220000Y-101440000D03*
X73220000Y-102440000D03*
X75220000Y-102440000D03*
X76220000Y-102440000D03*
X74220000Y-102440000D03*
X77220000Y-102440000D03*
X73220000Y-103440000D03*
X75220000Y-103440000D03*
X76220000Y-103440000D03*
X74220000Y-103440000D03*
X77220000Y-103440000D03*
X73220000Y-104440000D03*
X75220000Y-104440000D03*
X76220000Y-104440000D03*
X74220000Y-104440000D03*
X77220000Y-104440000D03*
D38*
X67965001Y-84280001D03*
X67965001Y-83330001D03*
X67965001Y-85230001D03*
X65765001Y-85230001D03*
X65765001Y-84280001D03*
X65765001Y-83330001D03*
D39*
X41275000Y-124525000D03*
X41275000Y-126725000D03*
X39675000Y-126725000D03*
X39675000Y-124525000D03*
D12*
X46550000Y-86750000D03*
X39750000Y-86750000D03*
X39750000Y-82750000D03*
X46550000Y-82750000D03*
D40*
X53700000Y-82065000D03*
X53700000Y-82565000D03*
X53700000Y-83065000D03*
X53700000Y-83565000D03*
X50600000Y-83565000D03*
X50600000Y-83065000D03*
X50600000Y-82565000D03*
X50600000Y-82065000D03*
X55900000Y-82065000D03*
X55900000Y-82565000D03*
X55900000Y-83065000D03*
X55900000Y-83565000D03*
X59000000Y-83565000D03*
X59000000Y-83065000D03*
X59000000Y-82565000D03*
X59000000Y-82065000D03*
D41*
X34250000Y-125050000D03*
X35500000Y-125050000D03*
X34250000Y-123800000D03*
X35500000Y-123800000D03*
D42*
X32910000Y-125425000D03*
X32910000Y-124925000D03*
X32910000Y-124425000D03*
X32910000Y-123925000D03*
X32910000Y-123425000D03*
D43*
X33875000Y-122460000D03*
X34375000Y-122460000D03*
X34875000Y-122460000D03*
X35375000Y-122460000D03*
X35875000Y-122460000D03*
D42*
X36840000Y-123425000D03*
X36840000Y-123925000D03*
X36840000Y-124425000D03*
X36840000Y-124925000D03*
X36840000Y-125425000D03*
D43*
X35875000Y-126390000D03*
X35375000Y-126390000D03*
X34875000Y-126390000D03*
X34375000Y-126390000D03*
X33875000Y-126390000D03*
D44*
X80595000Y-109340000D03*
X79495000Y-109340000D03*
X77395000Y-109340000D03*
X78495000Y-109340000D03*
X76420000Y-109340000D03*
X75320000Y-109340000D03*
X75320000Y-96590000D03*
X74220000Y-96590000D03*
X77745000Y-96590000D03*
X76645000Y-96590000D03*
D45*
X101230000Y-118040000D03*
X104910000Y-118030000D03*
X108620000Y-118070000D03*
X97560000Y-118040000D03*
X26850000Y-126825000D03*
X15550000Y-127275000D03*
X31050000Y-102600000D03*
X23375000Y-120225000D03*
X31040000Y-99580000D03*
X15550000Y-123500000D03*
X31030000Y-96190000D03*
X17145000Y-98065000D03*
X31005000Y-92800000D03*
X17145000Y-101665000D03*
X31005000Y-89350000D03*
X27350000Y-84180000D03*
X20540000Y-84190000D03*
X67500000Y-89350000D03*
X102660000Y-86940000D03*
X99210000Y-79740000D03*
X63900000Y-89400000D03*
X48600000Y-98025000D03*
X48600000Y-101250000D03*
X48600000Y-104450000D03*
X48600000Y-107875000D03*
X52450000Y-111575000D03*
X55675000Y-111575000D03*
X58850000Y-111575000D03*
X66370000Y-94215000D03*
X66345000Y-97390000D03*
X66320000Y-100565000D03*
X66345000Y-103740000D03*
X66345000Y-106940000D03*
X66345000Y-110115000D03*
X70090000Y-113670000D03*
X29500000Y-115275000D03*
X35975000Y-115275000D03*
X32800000Y-115275000D03*
X39200000Y-115275000D03*
X42225000Y-119175000D03*
X48600000Y-111500000D03*
X22400000Y-115250000D03*
X66290000Y-113640000D03*
X26150000Y-115250000D03*
D46*
X24700000Y-117900000D03*
X22700000Y-117900000D03*
D13*
X19500000Y-123350000D03*
X19500000Y-121850000D03*
D33*
X13650000Y-119600000D03*
X15550000Y-119600000D03*
D47*
X27412500Y-118300000D03*
X27412500Y-119500000D03*
X28187500Y-118300000D03*
X28187500Y-119500000D03*
D48*
X29350000Y-117925000D03*
X29350000Y-118575000D03*
X29350000Y-119225000D03*
X29350000Y-119875000D03*
X26250000Y-119875000D03*
X26250000Y-119225000D03*
X26250000Y-118575000D03*
X26250000Y-117925000D03*
X24050000Y-125475000D03*
X24050000Y-124825000D03*
X24050000Y-124175000D03*
X24050000Y-123525000D03*
X20950000Y-123525000D03*
X20950000Y-124175000D03*
X20950000Y-124825000D03*
X20950000Y-125475000D03*
D47*
X22112500Y-123900000D03*
X22112500Y-125100000D03*
X22887500Y-123900000D03*
X22887500Y-125100000D03*
D37*
X22400000Y-118400000D03*
X22400000Y-117400000D03*
X32700000Y-121700000D03*
X32500000Y-119400000D03*
X32500000Y-120300000D03*
X28300000Y-119400000D03*
X28300000Y-118200000D03*
X27300000Y-118200000D03*
X22100000Y-123900000D03*
X22900000Y-123900000D03*
X34150000Y-125150000D03*
X35500000Y-125150000D03*
X35500000Y-123600000D03*
X34150000Y-123600000D03*
X90900000Y-113900000D03*
X91550000Y-113400000D03*
X90850000Y-112950000D03*
X91500000Y-112200000D03*
X90850000Y-111650000D03*
X91450000Y-111050000D03*
X90800000Y-110500000D03*
X91500000Y-110000000D03*
X26400000Y-124400000D03*
X30400000Y-124300000D03*
X31450000Y-124350000D03*
X29500000Y-124250000D03*
X40050000Y-127100000D03*
X39250000Y-126200000D03*
X42900000Y-125100000D03*
X41650000Y-125050000D03*
X40800000Y-124000000D03*
X37600000Y-118950000D03*
X36550000Y-118950000D03*
X58200000Y-128350000D03*
X58200000Y-129150000D03*
X55150000Y-129150000D03*
X55150000Y-128350000D03*
X51400000Y-128350000D03*
X51400000Y-129150000D03*
X48350000Y-129150000D03*
X48350000Y-128350000D03*
X48150000Y-82350000D03*
X48150000Y-83200000D03*
X45100000Y-83200000D03*
X45100000Y-82350000D03*
X41200000Y-83100000D03*
X41200000Y-82350000D03*
X38250000Y-82400000D03*
X38250000Y-83150000D03*
X58200000Y-99400000D03*
X58200000Y-100400000D03*
X58200000Y-101350000D03*
X58200000Y-102300000D03*
X55500000Y-103050000D03*
X57450000Y-105100000D03*
D21*
X67660000Y-84300000D03*
D37*
X90950000Y-105000000D03*
X91450000Y-104450000D03*
X90950000Y-103950000D03*
X91450000Y-103300000D03*
X90950000Y-102600000D03*
X91450000Y-102000000D03*
X90850000Y-101550000D03*
X91450000Y-101050000D03*
X90950000Y-96000000D03*
X90950000Y-93650000D03*
X91000000Y-94850000D03*
X91450000Y-95400000D03*
X91450000Y-94250000D03*
X91450000Y-93050000D03*
X91450000Y-92050000D03*
X90850000Y-92550000D03*
X82390000Y-92640000D03*
D21*
X91000000Y-119400000D03*
D37*
X30400000Y-118000000D03*
X96600000Y-128100000D03*
X96000000Y-128100000D03*
X95400000Y-128100000D03*
X86400000Y-115100000D03*
X87150000Y-115650000D03*
X87100000Y-116850000D03*
X87050000Y-117900000D03*
X86300000Y-117400000D03*
X86350000Y-116200000D03*
X86200000Y-111650000D03*
X87050000Y-111650000D03*
X87050000Y-110550000D03*
X86150000Y-110550000D03*
X84850000Y-108400000D03*
X84850000Y-106200000D03*
X85700000Y-106700000D03*
X84850000Y-107250000D03*
X85700000Y-108950000D03*
X85700000Y-107850000D03*
X84700000Y-116200000D03*
X84700000Y-117350000D03*
X85550000Y-116800000D03*
X85550000Y-117900000D03*
X84700000Y-115150000D03*
X85550000Y-115650000D03*
X86400000Y-102500000D03*
X87200000Y-102450000D03*
X87200000Y-101600000D03*
X86400000Y-101600000D03*
X87100000Y-108850000D03*
X86500000Y-108400000D03*
X87100000Y-107850000D03*
X86500000Y-107200000D03*
X87100000Y-106650000D03*
X86500000Y-106250000D03*
X87100000Y-100000000D03*
X86500000Y-99450000D03*
X87100000Y-98900000D03*
X86500000Y-98300000D03*
X87100000Y-97750000D03*
X86500000Y-97250000D03*
X86200000Y-93000000D03*
X87000000Y-92050000D03*
X87000000Y-93000000D03*
X86200000Y-92050000D03*
D21*
X73979972Y-99484351D03*
D37*
X85750000Y-97750000D03*
X85750000Y-98900000D03*
X85750000Y-100000000D03*
X84900000Y-97250000D03*
X84900000Y-98300000D03*
X84900000Y-99450000D03*
X80530000Y-94320000D03*
X76110000Y-92420000D03*
X69610000Y-96430000D03*
X73100000Y-92750000D03*
D21*
X99230000Y-87570000D03*
X65765001Y-84280001D03*
X73270000Y-80850000D03*
X77140000Y-122940000D03*
X75720000Y-123160000D03*
X75750000Y-120200000D03*
X77180000Y-120070000D03*
X75710000Y-125900000D03*
X77130000Y-125780000D03*
X75800000Y-117200000D03*
X77290000Y-117150000D03*
X73799673Y-105290342D03*
D37*
X63300000Y-101000000D03*
X62425000Y-100975000D03*
D21*
X54100000Y-116200000D03*
X57400000Y-116400000D03*
X60700000Y-116300000D03*
X79100000Y-88200000D03*
X64050000Y-83450000D03*
D37*
X57850000Y-93950000D03*
X57200000Y-99250000D03*
X53700000Y-105550000D03*
X54950000Y-104000000D03*
D21*
X60400000Y-93000000D03*
D37*
X61300000Y-102900000D03*
X57090859Y-107936566D03*
X37507448Y-124408206D03*
X41650000Y-122800000D03*
X29500000Y-121500000D03*
X29500000Y-122300000D03*
X31100000Y-122900000D03*
X27650000Y-122050000D03*
X25950000Y-121500000D03*
X49942008Y-82590118D03*
X55276251Y-82564999D03*
X33700000Y-98450000D03*
X26050000Y-98000000D03*
X26050000Y-95400000D03*
X22100000Y-125100000D03*
X22887500Y-125100000D03*
X20900000Y-125800000D03*
X19500000Y-121500000D03*
X25800000Y-119200000D03*
X27306250Y-119393750D03*
X24386491Y-124850135D03*
X33750000Y-104786488D03*
D21*
X75600000Y-85600000D03*
X72881500Y-108200000D03*
D37*
X82590000Y-97050000D03*
X80630000Y-109340000D03*
X78510000Y-109340000D03*
X83217886Y-102822114D03*
X82870000Y-113830000D03*
X76450000Y-109350000D03*
X75500000Y-87450000D03*
X77750000Y-87450000D03*
D21*
X70950000Y-98250000D03*
D37*
X77750000Y-88850000D03*
X77350000Y-90200000D03*
X77750000Y-91700000D03*
X75500000Y-88500000D03*
X76550000Y-89050000D03*
X75800000Y-90300000D03*
X76250000Y-91700000D03*
X74700000Y-91650000D03*
X74300000Y-90300000D03*
X74300000Y-88750000D03*
X74300000Y-87450000D03*
X73150000Y-91700000D03*
X73150000Y-89550000D03*
X73150000Y-87450000D03*
X71760000Y-87705000D03*
X71800000Y-88500000D03*
X71850000Y-89700000D03*
X69810000Y-90960000D03*
X70400000Y-90050000D03*
X69850000Y-89350000D03*
X69850000Y-88100000D03*
X70645000Y-87705000D03*
X55500000Y-101950000D03*
X60337345Y-96634471D03*
D21*
X61800000Y-94536500D03*
D37*
X36300000Y-84450000D03*
X35250000Y-128500000D03*
X35250000Y-127600000D03*
X27600000Y-124150000D03*
X25550000Y-124400000D03*
X59700000Y-83550000D03*
X36200000Y-98200000D03*
X23200000Y-93750000D03*
X54250000Y-83650000D03*
X51050000Y-86340078D03*
X53750000Y-86340034D03*
X56450000Y-86315012D03*
X59150000Y-86315014D03*
X20700000Y-123400000D03*
X57850000Y-96500000D03*
X52726718Y-104840042D03*
X60525000Y-100263500D03*
X60550000Y-101800000D03*
X53475000Y-87490000D03*
X50825000Y-87490000D03*
X58775000Y-87465000D03*
X56125000Y-87465000D03*
D21*
X98000000Y-96500000D03*
X99500000Y-95000000D03*
X99500000Y-96500000D03*
X101000000Y-96500000D03*
X101000000Y-95000000D03*
X102500000Y-95000000D03*
X102500000Y-96500000D03*
X104000000Y-96500000D03*
X110000000Y-96500000D03*
X108500000Y-96500000D03*
X107000000Y-96500000D03*
X105500000Y-96500000D03*
X104000000Y-95000000D03*
X105500000Y-95000000D03*
X107000000Y-95000000D03*
X108500000Y-95000000D03*
X110000000Y-95000000D03*
X110000000Y-93500000D03*
X108500000Y-93500000D03*
X107000000Y-93500000D03*
X105500000Y-93500000D03*
X104000000Y-93500000D03*
X102500000Y-93500000D03*
X101000000Y-93500000D03*
X99500000Y-93500000D03*
X98000000Y-93500000D03*
X98000000Y-92000000D03*
X99500000Y-92000000D03*
X101000000Y-92000000D03*
X102500000Y-92000000D03*
X104000000Y-92000000D03*
X105500000Y-92000000D03*
X107000000Y-92000000D03*
X108500000Y-92000000D03*
X110000000Y-92000000D03*
X110000000Y-90500000D03*
X108500000Y-90500000D03*
X107000000Y-90500000D03*
X105500000Y-90500000D03*
X104000000Y-90500000D03*
X102500000Y-90500000D03*
X101000000Y-90500000D03*
X99500000Y-90500000D03*
X98000000Y-90500000D03*
X98000000Y-95000000D03*
X110000000Y-104000000D03*
X107000000Y-102500000D03*
X104000000Y-102500000D03*
X105500000Y-102500000D03*
X99500000Y-104000000D03*
X99500000Y-105500000D03*
X108500000Y-102500000D03*
X102500000Y-104000000D03*
X104000000Y-105500000D03*
X110000000Y-102500000D03*
X105500000Y-105500000D03*
X104000000Y-104000000D03*
X98000000Y-105500000D03*
X108500000Y-104000000D03*
X105500000Y-104000000D03*
X107000000Y-104000000D03*
X102500000Y-105500000D03*
X101000000Y-104000000D03*
X98000000Y-104000000D03*
X110000000Y-105500000D03*
X101000000Y-105500000D03*
X108500000Y-105500000D03*
X98000000Y-102500000D03*
X101000000Y-102500000D03*
X105500000Y-101000000D03*
X99500000Y-102500000D03*
X101000000Y-101000000D03*
X99500000Y-101000000D03*
X102500000Y-101000000D03*
X108500000Y-101000000D03*
X107000000Y-105500000D03*
X104000000Y-101000000D03*
X107000000Y-101000000D03*
X98000000Y-101000000D03*
X102500000Y-102500000D03*
X110000000Y-99500000D03*
X98000000Y-99500000D03*
X105500000Y-99500000D03*
X108500000Y-99500000D03*
X110000000Y-101000000D03*
X101000000Y-99500000D03*
X107000000Y-99500000D03*
X99500000Y-99500000D03*
X102500000Y-99500000D03*
X104000000Y-99500000D03*
X99500000Y-108500000D03*
X98000000Y-108500000D03*
X101000000Y-108500000D03*
X102500000Y-111500000D03*
X105500000Y-108500000D03*
X107000000Y-108500000D03*
X102500000Y-108500000D03*
X104000000Y-108500000D03*
X108500000Y-108500000D03*
X110000000Y-110000000D03*
X110000000Y-108500000D03*
X108500000Y-113000000D03*
X104000000Y-111500000D03*
X107000000Y-113000000D03*
X105500000Y-113000000D03*
X110000000Y-113000000D03*
X105500000Y-114500000D03*
X105500000Y-111500000D03*
X110000000Y-111500000D03*
X107000000Y-111500000D03*
X108500000Y-111500000D03*
X104000000Y-113000000D03*
X102500000Y-114500000D03*
X101000000Y-113000000D03*
X104000000Y-114500000D03*
X98000000Y-113000000D03*
X102500000Y-113000000D03*
X99500000Y-113000000D03*
X98000000Y-114500000D03*
X99500000Y-114500000D03*
X110000000Y-114500000D03*
X101000000Y-114500000D03*
X108500000Y-114500000D03*
X107000000Y-114500000D03*
X101000000Y-111500000D03*
X104000000Y-110000000D03*
X99500000Y-110000000D03*
X108500000Y-110000000D03*
X105500000Y-110000000D03*
X102500000Y-110000000D03*
X101000000Y-110000000D03*
X98000000Y-110000000D03*
X99500000Y-111500000D03*
X107000000Y-110000000D03*
X98000000Y-111500000D03*
D37*
X28550000Y-97750000D03*
X58498780Y-108198794D03*
X26916937Y-98149752D03*
X26900000Y-99550000D03*
X25500000Y-103450000D03*
X59939646Y-108213418D03*
X28000000Y-98850000D03*
X23150000Y-98800000D03*
X60650000Y-108199014D03*
X23200000Y-97550000D03*
X19050000Y-95450000D03*
X64600000Y-109700000D03*
X71325000Y-90975000D03*
X68200000Y-91950000D03*
X55300000Y-99150000D03*
X59231876Y-108191911D03*
X94900000Y-105600000D03*
X89700000Y-105700000D03*
X83720000Y-103320000D03*
X83714524Y-104786490D03*
X83757347Y-104087789D03*
X83799998Y-112650000D03*
X83168099Y-111291901D03*
X95050000Y-114500000D03*
X89700000Y-114650000D03*
X82270000Y-112510000D03*
X83300000Y-95391500D03*
X82350000Y-95550000D03*
X94950000Y-96550000D03*
X89800000Y-96650000D03*
X83250000Y-96418500D03*
D21*
X71250000Y-106600000D03*
D37*
X52450000Y-100750000D03*
X48150000Y-89550000D03*
X55600000Y-100350000D03*
X50450000Y-115300000D03*
X32875000Y-128000000D03*
X31800000Y-121600000D03*
X59350000Y-105150000D03*
X31200000Y-125450000D03*
X24600000Y-123500000D03*
X63506727Y-103001981D03*
X63850000Y-92550000D03*
X63600000Y-103700000D03*
X64450000Y-91650000D03*
X62450000Y-91136500D03*
X63050000Y-97950000D03*
X62200000Y-98499986D03*
X61500000Y-97000000D03*
X61099988Y-90600000D03*
X64550000Y-111450000D03*
X62743250Y-109056750D03*
X62000000Y-108350000D03*
X63900000Y-112350000D03*
X63250000Y-111800000D03*
X62550000Y-111250000D03*
X72550000Y-95850000D03*
X68350000Y-95699982D03*
X67600000Y-99000000D03*
X72237797Y-99643502D03*
X79495000Y-109340000D03*
X77410000Y-109340000D03*
X75340000Y-109340000D03*
D21*
X58840000Y-115600000D03*
X59500000Y-119100000D03*
X55650000Y-115650000D03*
X56100000Y-118363500D03*
D37*
X30200000Y-119500000D03*
D49*
X75970000Y-98240000D02*
X75970000Y-95640000D01*
X79170000Y-93688000D02*
X80218000Y-92640000D01*
X79170000Y-94215000D02*
X79170000Y-93688000D01*
X80218000Y-92640000D02*
X82390000Y-92640000D01*
X76270000Y-94215000D02*
X76120000Y-94365000D01*
X79170000Y-94215000D02*
X76270000Y-94215000D01*
X75970000Y-97363000D02*
X75970000Y-98240000D01*
X75970000Y-95042000D02*
X75970000Y-97363000D01*
X76120000Y-94892000D02*
X75970000Y-95042000D01*
X76120000Y-94365000D02*
X76120000Y-94892000D01*
X76045000Y-94290000D02*
X76120000Y-94365000D01*
X74670000Y-94290000D02*
X76045000Y-94290000D01*
D50*
X99250000Y-79780000D02*
X99210000Y-79740000D01*
X99250000Y-82620000D02*
X99250000Y-79780000D01*
D49*
X79330000Y-116880000D02*
X78790000Y-116880000D01*
X79900000Y-117450000D02*
X79330000Y-116880000D01*
X79900000Y-118250000D02*
X79900000Y-117450000D01*
X91000000Y-119400000D02*
X81050000Y-119400000D01*
X81050000Y-119400000D02*
X79900000Y-118250000D01*
D51*
X26250000Y-117500000D02*
X26375001Y-117374999D01*
X26250000Y-117925000D02*
X26250000Y-117500000D01*
X29350000Y-117500000D02*
X29350000Y-117925000D01*
X29224999Y-117374999D02*
X29350000Y-117500000D01*
X26375001Y-117374999D02*
X29224999Y-117374999D01*
X29350000Y-117925000D02*
X30325000Y-117925000D01*
X30325000Y-117925000D02*
X30400000Y-118000000D01*
X26225000Y-117900000D02*
X26250000Y-117925000D01*
X24700000Y-117900000D02*
X26225000Y-117900000D01*
D49*
X73970000Y-98240000D02*
X73970000Y-99474379D01*
X73970000Y-99474379D02*
X73979972Y-99484351D01*
X80545000Y-94840000D02*
X80545000Y-94335000D01*
X80545000Y-94335000D02*
X80530000Y-94320000D01*
X76120000Y-92865000D02*
X76120000Y-92430000D01*
X76120000Y-92430000D02*
X76110000Y-92420000D01*
X70070000Y-96440000D02*
X69620000Y-96440000D01*
X69620000Y-96440000D02*
X69610000Y-96430000D01*
X73145000Y-92790000D02*
X73145000Y-92395000D01*
X73145000Y-92395000D02*
X73140000Y-92390000D01*
D50*
X99220000Y-86940000D02*
X99220000Y-87560000D01*
X99220000Y-87560000D02*
X99230000Y-87570000D01*
D51*
X65765001Y-84280001D02*
X65765001Y-84280001D01*
D50*
X72560000Y-80855000D02*
X73265000Y-80855000D01*
X73265000Y-80855000D02*
X73270000Y-80850000D01*
D49*
X77150000Y-122630000D02*
X77150000Y-122930000D01*
X77150000Y-122930000D02*
X77140000Y-122940000D01*
X75725000Y-122755000D02*
X75725000Y-123155000D01*
X75725000Y-123155000D02*
X75720000Y-123160000D01*
X75755000Y-119910000D02*
X75755000Y-120195000D01*
X75755000Y-120195000D02*
X75750000Y-120200000D01*
X77180000Y-119760000D02*
X77180000Y-120070000D01*
X75705000Y-125680000D02*
X75705000Y-125895000D01*
X75705000Y-125895000D02*
X75710000Y-125900000D01*
X77130000Y-125530000D02*
X77130000Y-125780000D01*
X75820000Y-117030000D02*
X75820000Y-117460000D01*
X75820000Y-117460000D02*
X75810000Y-117470000D01*
X77290000Y-116880000D02*
X77290000Y-117150000D01*
X72970001Y-104689999D02*
X73220000Y-104440000D01*
X72970000Y-106640000D02*
X72970001Y-104689999D01*
X62425000Y-100750000D02*
X63050000Y-100750000D01*
X63050000Y-100750000D02*
X63300000Y-101000000D01*
X63050000Y-101250000D02*
X63300000Y-101000000D01*
X62425000Y-101250000D02*
X63050000Y-101250000D01*
X62425000Y-100750000D02*
X62425000Y-100975000D01*
X63300000Y-101000000D02*
X63300000Y-101000000D01*
X62425000Y-100975000D02*
X62425000Y-101250000D01*
X53890000Y-115760000D02*
X53890000Y-115990000D01*
X53890000Y-115990000D02*
X54100000Y-116200000D01*
X57080000Y-115790000D02*
X57080000Y-116080000D01*
X57080000Y-116080000D02*
X57400000Y-116400000D01*
X60300000Y-115740000D02*
X60300000Y-115900000D01*
X60300000Y-115900000D02*
X60700000Y-116300000D01*
D51*
X65080001Y-84280001D02*
X65765001Y-84280001D01*
X64060000Y-83830000D02*
X64630000Y-83830000D01*
X64630000Y-83830000D02*
X65080001Y-84280001D01*
D50*
X79100000Y-87830000D02*
X79100000Y-88200000D01*
X64060000Y-83830000D02*
X64060000Y-83460000D01*
X64060000Y-83460000D02*
X64050000Y-83450000D01*
D49*
X57325000Y-98150000D02*
X57325000Y-99125000D01*
X57325000Y-99125000D02*
X57200000Y-99250000D01*
X53725000Y-105250000D02*
X53725000Y-105525000D01*
X53725000Y-105525000D02*
X53700000Y-105550000D01*
X62425000Y-102750000D02*
X61450000Y-102750000D01*
X61450000Y-102750000D02*
X61300000Y-102900000D01*
X36840000Y-124425000D02*
X37490654Y-124425000D01*
X37490654Y-124425000D02*
X37507448Y-124408206D01*
X41175000Y-122825000D02*
X41625000Y-122825000D01*
X41625000Y-122825000D02*
X41650000Y-122800000D01*
X29925000Y-121975000D02*
X29925000Y-121925000D01*
X29925000Y-121925000D02*
X29500000Y-121500000D01*
X29925000Y-121975000D02*
X30400000Y-121500000D01*
X31525000Y-122575000D02*
X31525000Y-122275000D01*
X31525000Y-122275000D02*
X31500000Y-122250000D01*
X27600000Y-122400000D02*
X27600000Y-122100000D01*
X27600000Y-122100000D02*
X27650000Y-122050000D01*
X26000000Y-122000000D02*
X26000000Y-121550000D01*
X26000000Y-121550000D02*
X25950000Y-121500000D01*
X50600000Y-82565000D02*
X49967126Y-82565000D01*
X49967126Y-82565000D02*
X49942008Y-82590118D01*
X55900000Y-82565000D02*
X55276252Y-82565000D01*
X55276252Y-82565000D02*
X55276251Y-82564999D01*
X33700000Y-98110000D02*
X33700000Y-98450000D01*
X25435000Y-97520000D02*
X25570000Y-97520000D01*
X25570000Y-97520000D02*
X26050000Y-98000000D01*
X25435000Y-94980000D02*
X25630000Y-94980000D01*
X25630000Y-94980000D02*
X26050000Y-95400000D01*
X23162500Y-124825000D02*
X22887500Y-125100000D01*
X24050000Y-124825000D02*
X23162500Y-124825000D01*
X21737500Y-125475000D02*
X22006250Y-125206250D01*
X20950000Y-125475000D02*
X21737500Y-125475000D01*
X22006250Y-125206250D02*
X22112500Y-125100000D01*
X22887500Y-125100000D02*
X22887500Y-125100000D01*
X20950000Y-125475000D02*
X20950000Y-125750000D01*
X20950000Y-125750000D02*
X20900000Y-125800000D01*
D51*
X19500000Y-121850000D02*
X19500000Y-121500000D01*
X26250000Y-119225000D02*
X25825000Y-119225000D01*
X25825000Y-119225000D02*
X25800000Y-119200000D01*
X27137500Y-119225000D02*
X27306250Y-119393750D01*
X26250000Y-119225000D02*
X27137500Y-119225000D01*
X27306250Y-119393750D02*
X27412500Y-119500000D01*
X31200000Y-122900000D02*
X31525000Y-122575000D01*
X31100000Y-122900000D02*
X31200000Y-122900000D01*
D49*
X24361356Y-124825000D02*
X24386491Y-124850135D01*
X24050000Y-124825000D02*
X24361356Y-124825000D01*
X33750000Y-104500000D02*
X33750000Y-104786488D01*
D50*
X75580000Y-85420010D02*
X75600000Y-85400010D01*
X75580000Y-85590000D02*
X75580000Y-85420010D01*
D49*
X75470000Y-96740000D02*
X75320000Y-96590000D01*
X75470000Y-98240000D02*
X75470000Y-96740000D01*
X74270000Y-96590000D02*
X74220000Y-96590000D01*
X74970000Y-97290000D02*
X74270000Y-96590000D01*
X74970000Y-98240000D02*
X74970000Y-97290000D01*
X72881500Y-108105500D02*
X72881500Y-108200000D01*
X73470000Y-106640000D02*
X73470000Y-107517000D01*
X73470000Y-107517000D02*
X72881500Y-108105500D01*
X76970000Y-97315000D02*
X77695000Y-96590000D01*
X77695000Y-96590000D02*
X77745000Y-96590000D01*
X76970000Y-98240000D02*
X76970000Y-97315000D01*
X76470000Y-96765000D02*
X76645000Y-96590000D01*
X76470000Y-98240000D02*
X76470000Y-96765000D01*
X73470000Y-97326763D02*
X73470000Y-98240000D01*
X73145000Y-94290000D02*
X73145000Y-94817000D01*
X73250000Y-97106763D02*
X73470000Y-97326763D01*
X73250000Y-94922000D02*
X73250000Y-97106763D01*
X73145000Y-94817000D02*
X73250000Y-94922000D01*
X77727000Y-121130000D02*
X78650000Y-121130000D01*
X77150000Y-121130000D02*
X77727000Y-121130000D01*
X75850000Y-121130000D02*
X75725000Y-121255000D01*
X77150000Y-121130000D02*
X75850000Y-121130000D01*
X46850000Y-101250000D02*
X48600000Y-101250000D01*
X75580000Y-121400000D02*
X51950000Y-121400000D01*
X45200000Y-102900000D02*
X46850000Y-101250000D01*
X75725000Y-121255000D02*
X75580000Y-121400000D01*
X51950000Y-121400000D02*
X45200000Y-114650000D01*
X45200000Y-114650000D02*
X45200000Y-102900000D01*
X49650000Y-101250000D02*
X48600000Y-101250000D01*
X53725000Y-102750000D02*
X51150000Y-102750000D01*
X51150000Y-102750000D02*
X49650000Y-101250000D01*
X78078000Y-118260000D02*
X77180000Y-118260000D01*
X78655000Y-118260000D02*
X78078000Y-118260000D01*
X75905000Y-118260000D02*
X75755000Y-118410000D01*
X77180000Y-118260000D02*
X75905000Y-118260000D01*
X73390000Y-118410000D02*
X75755000Y-118410000D01*
X71200000Y-120600000D02*
X73390000Y-118410000D01*
X47185787Y-104450000D02*
X46100000Y-105535787D01*
X48600000Y-104450000D02*
X47185787Y-104450000D01*
X46100000Y-105535787D02*
X46100000Y-114600000D01*
X46100000Y-114600000D02*
X52100000Y-120600000D01*
X52100000Y-120600000D02*
X71200000Y-120600000D01*
X49950000Y-104450000D02*
X48600000Y-104450000D01*
X53725000Y-103250000D02*
X51150000Y-103250000D01*
X51150000Y-103250000D02*
X49950000Y-104450000D01*
X78053000Y-124030000D02*
X77130000Y-124030000D01*
X78630000Y-124030000D02*
X78053000Y-124030000D01*
X75855000Y-124030000D02*
X75705000Y-124180000D01*
X77130000Y-124030000D02*
X75855000Y-124030000D01*
X44400000Y-102225000D02*
X47600001Y-99024999D01*
X47600001Y-99024999D02*
X48600000Y-98025000D01*
X73355000Y-124180000D02*
X71375000Y-122200000D01*
X75705000Y-124180000D02*
X73355000Y-124180000D01*
X44400000Y-115000000D02*
X44400000Y-102225000D01*
X71375000Y-122200000D02*
X51600000Y-122200000D01*
X51600000Y-122200000D02*
X44400000Y-115000000D01*
X52200000Y-102250000D02*
X53725000Y-102250000D01*
X48600000Y-98025000D02*
X48600000Y-98650000D01*
X48600000Y-98650000D02*
X52200000Y-102250000D01*
X82530000Y-97050000D02*
X82590000Y-97050000D01*
X82010000Y-97570000D02*
X82530000Y-97050000D01*
X82010000Y-98936763D02*
X82010000Y-97570000D01*
X79420000Y-100690000D02*
X80256763Y-100690000D01*
X80256763Y-100690000D02*
X82010000Y-98936763D01*
X78478450Y-108062990D02*
X79694990Y-108062990D01*
X77970000Y-107554540D02*
X78478450Y-108062990D01*
X80595000Y-108963000D02*
X80595000Y-109340000D01*
X79694990Y-108062990D02*
X80595000Y-108963000D01*
X77970000Y-106640000D02*
X77970000Y-107554540D01*
X77870000Y-108765000D02*
X78297000Y-108765000D01*
X78495000Y-108963000D02*
X78495000Y-109340000D01*
X76970000Y-107865000D02*
X77870000Y-108765000D01*
X78297000Y-108765000D02*
X78495000Y-108963000D01*
X76970000Y-106640000D02*
X76970000Y-107865000D01*
X83115212Y-102755212D02*
X83182114Y-102822114D01*
X83182114Y-102822114D02*
X83217886Y-102822114D01*
X82967887Y-102572115D02*
X83217886Y-102822114D01*
X79506499Y-102276499D02*
X80380801Y-102276499D01*
X79420000Y-102190000D02*
X79506499Y-102276499D01*
X82715772Y-102320000D02*
X82967887Y-102572115D01*
X80380801Y-102276499D02*
X80424302Y-102320000D01*
X80424302Y-102320000D02*
X82715772Y-102320000D01*
X78213000Y-115380000D02*
X77290000Y-115380000D01*
X78790000Y-115380000D02*
X78213000Y-115380000D01*
X75970000Y-115380000D02*
X75820000Y-115530000D01*
X77290000Y-115380000D02*
X75970000Y-115380000D01*
X75318000Y-115530000D02*
X75820000Y-115530000D01*
X70948000Y-119900000D02*
X75318000Y-115530000D01*
X48125000Y-107875000D02*
X47000000Y-109000000D01*
X48600000Y-107875000D02*
X48125000Y-107875000D01*
X47000000Y-114300000D02*
X52600000Y-119900000D01*
X52600000Y-119900000D02*
X70948000Y-119900000D01*
X47000000Y-109000000D02*
X47000000Y-114300000D01*
X53725000Y-104250000D02*
X51300000Y-104250000D01*
X48600000Y-106950000D02*
X48600000Y-107875000D01*
X51300000Y-104250000D02*
X48600000Y-106950000D01*
X80297000Y-104690000D02*
X82305978Y-106698978D01*
X82305978Y-111618442D02*
X82870000Y-112182464D01*
X82870000Y-113476447D02*
X82870000Y-113830000D01*
X82870000Y-112182464D02*
X82870000Y-113476447D01*
X79420000Y-104690000D02*
X80297000Y-104690000D01*
X82305978Y-106698978D02*
X82305978Y-111618442D01*
X76420000Y-109140000D02*
X76420000Y-109340000D01*
X75970000Y-106640000D02*
X75970000Y-108690000D01*
X75970000Y-108690000D02*
X76420000Y-109140000D01*
X77470000Y-97365698D02*
X77732197Y-97103501D01*
X78782000Y-96630000D02*
X79170000Y-96242000D01*
X78296499Y-97103501D02*
X78770000Y-96630000D01*
X79170000Y-96242000D02*
X79170000Y-95715000D01*
X78770000Y-96630000D02*
X78782000Y-96630000D01*
X77470000Y-98240000D02*
X77470000Y-97365698D01*
X77732197Y-97103501D02*
X78296499Y-97103501D01*
X79370000Y-97117000D02*
X80173000Y-97117000D01*
X80545000Y-96745000D02*
X80545000Y-96340000D01*
X80173000Y-97117000D02*
X80545000Y-96745000D01*
X77970000Y-98240000D02*
X78247000Y-98240000D01*
X78247000Y-98240000D02*
X79370000Y-97117000D01*
X36840000Y-125425000D02*
X37475000Y-125425000D01*
X42775000Y-126725000D02*
X42900000Y-126850000D01*
X41275000Y-126725000D02*
X42775000Y-126725000D01*
X38889199Y-127688501D02*
X38400000Y-127199302D01*
X41138499Y-127688501D02*
X38889199Y-127688501D01*
X41275000Y-126725000D02*
X41275000Y-127552000D01*
X41275000Y-127552000D02*
X41138499Y-127688501D01*
X38400000Y-127199302D02*
X38400000Y-126000000D01*
X37825000Y-125425000D02*
X37475000Y-125425000D01*
X38400000Y-126000000D02*
X37825000Y-125425000D01*
X38573000Y-124925000D02*
X37332000Y-124925000D01*
X38973000Y-124525000D02*
X38573000Y-124925000D01*
X37332000Y-124925000D02*
X36840000Y-124925000D01*
X39675000Y-124525000D02*
X38973000Y-124525000D01*
X39675000Y-123698000D02*
X39675000Y-122825000D01*
X39675000Y-124525000D02*
X39675000Y-123698000D01*
D51*
X69810000Y-92260000D02*
X69960000Y-92410000D01*
X69810000Y-90960000D02*
X69810000Y-90960000D01*
X71570000Y-95815000D02*
X71085000Y-95330000D01*
X71570000Y-96440000D02*
X71570000Y-95815000D01*
X69894998Y-95330000D02*
X68880000Y-94315002D01*
X71085000Y-95330000D02*
X69894998Y-95330000D01*
X69310000Y-92410000D02*
X69960000Y-92410000D01*
X68880000Y-92840000D02*
X69310000Y-92410000D01*
X68880000Y-94315002D02*
X68880000Y-92840000D01*
X72110000Y-96440000D02*
X71570000Y-96440000D01*
X72470000Y-98240000D02*
X72470000Y-96800000D01*
X72470000Y-96800000D02*
X72110000Y-96440000D01*
D49*
X71570000Y-96440000D02*
X71570000Y-97630000D01*
X71570000Y-97630000D02*
X70950000Y-98250000D01*
D50*
X66005000Y-87350000D02*
X65660000Y-87005000D01*
X69950000Y-87350000D02*
X66005000Y-87350000D01*
X71760000Y-87705000D02*
X71760000Y-87705000D01*
X70305000Y-87705000D02*
X69950000Y-87350000D01*
X71760000Y-87705000D02*
X70645000Y-87705000D01*
D51*
X69810000Y-90960000D02*
X69810000Y-92260000D01*
D50*
X70645000Y-87705000D02*
X70305000Y-87705000D01*
D49*
X36300000Y-84900000D02*
X36300000Y-84450000D01*
X34775000Y-128000000D02*
X34775000Y-128025000D01*
X34775000Y-128025000D02*
X35250000Y-128500000D01*
X34775000Y-128000000D02*
X34850000Y-128000000D01*
X34850000Y-128000000D02*
X35250000Y-127600000D01*
X27675000Y-123975000D02*
X27675000Y-123975000D01*
X27675000Y-123975000D02*
X27600000Y-123900000D01*
D51*
X25735000Y-124265000D02*
X26000000Y-124000000D01*
X27500000Y-124000000D02*
X27600000Y-123900000D01*
X26000000Y-124000000D02*
X27500000Y-124000000D01*
X31425000Y-123975000D02*
X31525000Y-124075000D01*
X29925000Y-123975000D02*
X31425000Y-123975000D01*
X31875000Y-124425000D02*
X31525000Y-124075000D01*
X32910000Y-124425000D02*
X31875000Y-124425000D01*
D49*
X59000000Y-83565000D02*
X59685000Y-83565000D01*
X59685000Y-83565000D02*
X59700000Y-83550000D01*
X35600000Y-98110000D02*
X36110000Y-98110000D01*
X36110000Y-98110000D02*
X36200000Y-98200000D01*
X24165000Y-93710000D02*
X23240000Y-93710000D01*
X23240000Y-93710000D02*
X23200000Y-93750000D01*
D51*
X53700000Y-83565000D02*
X54165000Y-83565000D01*
X54165000Y-83565000D02*
X54250000Y-83650000D01*
D49*
X20950000Y-123525000D02*
X20825000Y-123525000D01*
X20825000Y-123525000D02*
X20700000Y-123400000D01*
D51*
X20100000Y-123500000D02*
X20925000Y-123500000D01*
X20925000Y-123500000D02*
X20950000Y-123525000D01*
X19500000Y-123350000D02*
X19950000Y-123350000D01*
X19950000Y-123350000D02*
X20100000Y-123500000D01*
D49*
X52580000Y-114260000D02*
X52450000Y-114130000D01*
X53890000Y-114260000D02*
X52580000Y-114260000D01*
X52450000Y-114130000D02*
X52450000Y-111575000D01*
X55325000Y-108700000D02*
X52450000Y-111575000D01*
X55325000Y-106850000D02*
X55325000Y-108700000D01*
X56940000Y-114150000D02*
X57080000Y-114290000D01*
X55650000Y-114150000D02*
X56940000Y-114150000D01*
X55650000Y-111600000D02*
X55675000Y-111575000D01*
X55650000Y-114150000D02*
X55650000Y-111600000D01*
X56225000Y-111025000D02*
X55675000Y-111575000D01*
X56325000Y-110925000D02*
X55675000Y-111575000D01*
X56325000Y-106850000D02*
X56325000Y-110925000D01*
X58980000Y-114240000D02*
X58840000Y-114100000D01*
X60300000Y-114240000D02*
X58980000Y-114240000D01*
X58840000Y-111585000D02*
X58850000Y-111575000D01*
X58840000Y-114100000D02*
X58840000Y-111585000D01*
X57825000Y-107627000D02*
X57786502Y-107665498D01*
X57850001Y-110575001D02*
X58850000Y-111575000D01*
X57825000Y-106850000D02*
X57825000Y-107627000D01*
X57786502Y-107665498D02*
X57786502Y-110511502D01*
X57786502Y-110511502D02*
X57850001Y-110575001D01*
D51*
X67965001Y-82010001D02*
X67710000Y-81755000D01*
X67965001Y-83330001D02*
X67965001Y-82010001D01*
D50*
X67965001Y-82070001D02*
X67650000Y-81755000D01*
X67965001Y-83330001D02*
X67965001Y-82070001D01*
X69050000Y-81450000D02*
X67955000Y-81450000D01*
X69760000Y-80855000D02*
X69645000Y-80855000D01*
X67955000Y-81450000D02*
X67650000Y-81755000D01*
X69645000Y-80855000D02*
X69050000Y-81450000D01*
D51*
X65765001Y-82199999D02*
X66210000Y-81755000D01*
X65765001Y-83330001D02*
X65765001Y-82199999D01*
D50*
X65765001Y-82139999D02*
X66150000Y-81755000D01*
X65765001Y-83330001D02*
X65765001Y-82139999D01*
D49*
X57825000Y-98150000D02*
X57825000Y-96525000D01*
X57825000Y-96525000D02*
X57850000Y-96500000D01*
X53725000Y-104750000D02*
X52816760Y-104750000D01*
X52816760Y-104750000D02*
X52726718Y-104840042D01*
D51*
X62425000Y-100250000D02*
X60538500Y-100250000D01*
X60538500Y-100250000D02*
X60525000Y-100263500D01*
X62425000Y-101750000D02*
X60600000Y-101750000D01*
X60600000Y-101750000D02*
X60550000Y-101800000D01*
X60550000Y-101800000D02*
X60525000Y-101825000D01*
D50*
X99220000Y-84250000D02*
X99250000Y-84220000D01*
X99220000Y-85440000D02*
X99220000Y-84250000D01*
D51*
X71210000Y-94010000D02*
X71410000Y-93810000D01*
X69960000Y-94010000D02*
X71210000Y-94010000D01*
D50*
X78950000Y-86180000D02*
X79100000Y-86330000D01*
X77635000Y-86180000D02*
X78950000Y-86180000D01*
D51*
X53475000Y-84440000D02*
X53475000Y-85290000D01*
X52999999Y-83964999D02*
X53475000Y-84440000D01*
X52999999Y-83179999D02*
X52999999Y-83964999D01*
X53114998Y-83065000D02*
X52999999Y-83179999D01*
X53700000Y-83065000D02*
X53114998Y-83065000D01*
X50600000Y-85065000D02*
X50825000Y-85290000D01*
X50600000Y-83565000D02*
X50600000Y-85065000D01*
X58375000Y-83065000D02*
X57950000Y-83490000D01*
X59000000Y-83065000D02*
X58375000Y-83065000D01*
X57950000Y-83490000D02*
X57950000Y-84700000D01*
X58515000Y-85265000D02*
X58775000Y-85265000D01*
X57950000Y-84700000D02*
X58515000Y-85265000D01*
X55900000Y-85040000D02*
X56125000Y-85265000D01*
X55900000Y-83565000D02*
X55900000Y-85040000D01*
D49*
X105390000Y-121300000D02*
X81500000Y-121300000D01*
X108620000Y-118070000D02*
X105390000Y-121300000D01*
X79207000Y-125530000D02*
X78630000Y-125530000D01*
X81500000Y-121300000D02*
X79700000Y-123100000D01*
X79700000Y-125037000D02*
X79207000Y-125530000D01*
X79700000Y-123100000D02*
X79700000Y-125037000D01*
X80870000Y-120730000D02*
X78970000Y-122630000D01*
X102170000Y-120730000D02*
X80870000Y-120730000D01*
X104910000Y-118030000D02*
X104870000Y-118030000D01*
X78970000Y-122630000D02*
X78650000Y-122630000D01*
X104870000Y-118030000D02*
X102170000Y-120730000D01*
X79210000Y-119760000D02*
X78655000Y-119760000D01*
X79620000Y-120170000D02*
X79210000Y-119760000D01*
X101230000Y-118040000D02*
X99100000Y-120170000D01*
X99100000Y-120170000D02*
X79620000Y-120170000D01*
X33750000Y-102600000D02*
X31050000Y-102600000D01*
X11672081Y-101180000D02*
X14792081Y-104300000D01*
X10470000Y-101180000D02*
X11672081Y-101180000D01*
X29350000Y-104300000D02*
X31050000Y-102600000D01*
X14792081Y-104300000D02*
X29350000Y-104300000D01*
X28550000Y-95250000D02*
X28550000Y-97750000D01*
X25435000Y-93710000D02*
X27010000Y-93710000D01*
X27010000Y-93710000D02*
X28550000Y-95250000D01*
X34527000Y-102600000D02*
X33750000Y-102600000D01*
X35527000Y-101600000D02*
X34527000Y-102600000D01*
X52948000Y-100250000D02*
X49352022Y-96654022D01*
X47545978Y-96654022D02*
X42600000Y-101600000D01*
X49352022Y-96654022D02*
X47545978Y-96654022D01*
X53725000Y-100250000D02*
X52948000Y-100250000D01*
X42600000Y-101600000D02*
X35527000Y-101600000D01*
X58825000Y-106850000D02*
X58825000Y-107872574D01*
X58825000Y-107872574D02*
X58748779Y-107948795D01*
X58748779Y-107948795D02*
X58498780Y-108198794D01*
X25435000Y-96250000D02*
X26950000Y-97765000D01*
X26950000Y-97765000D02*
X26950000Y-98116689D01*
X26950000Y-98116689D02*
X26916937Y-98149752D01*
X31010000Y-99550000D02*
X31040000Y-99580000D01*
X26900000Y-99550000D02*
X31010000Y-99550000D01*
X11672081Y-98640000D02*
X16532081Y-103500000D01*
X10470000Y-98640000D02*
X11672081Y-98640000D01*
X16532081Y-103500000D02*
X25450000Y-103500000D01*
X25450000Y-103500000D02*
X25500000Y-103450000D01*
X59825000Y-106850000D02*
X59825000Y-108098772D01*
X59825000Y-108098772D02*
X59939646Y-108213418D01*
X25495000Y-98850000D02*
X25435000Y-98790000D01*
X33680000Y-96190000D02*
X33700000Y-96210000D01*
X31030000Y-96190000D02*
X33680000Y-96190000D01*
X33700000Y-96210000D02*
X35600000Y-96210000D01*
X28000000Y-98850000D02*
X25495000Y-98850000D01*
X28000000Y-98850000D02*
X28370000Y-98850000D01*
X28370000Y-98850000D02*
X31030000Y-96190000D01*
X33400000Y-93820000D02*
X32029999Y-95190001D01*
X32450000Y-87000000D02*
X33400000Y-87950000D01*
X9150000Y-87000000D02*
X32450000Y-87000000D01*
X32029999Y-95190001D02*
X31030000Y-96190000D01*
X9270000Y-94900000D02*
X7400000Y-94900000D01*
X10470000Y-96100000D02*
X9270000Y-94900000D01*
X7400000Y-94900000D02*
X6550000Y-94050000D01*
X33400000Y-87950000D02*
X33400000Y-93820000D01*
X6550000Y-94050000D02*
X6550000Y-89600000D01*
X6550000Y-89600000D02*
X9150000Y-87000000D01*
X24165000Y-98790000D02*
X23160000Y-98790000D01*
X23160000Y-98790000D02*
X23150000Y-98800000D01*
X16145001Y-100665001D02*
X17145000Y-101665000D01*
X12780000Y-97300000D02*
X16145001Y-100665001D01*
X7930000Y-96100000D02*
X9130000Y-97300000D01*
X9130000Y-97300000D02*
X12780000Y-97300000D01*
X18559213Y-101665000D02*
X17145000Y-101665000D01*
X18951224Y-101272989D02*
X18559213Y-101665000D01*
X49527011Y-96327011D02*
X47372989Y-96327011D01*
X52950000Y-99750000D02*
X49527011Y-96327011D01*
X53725000Y-99750000D02*
X52950000Y-99750000D01*
X42427011Y-101272989D02*
X18951224Y-101272989D01*
X47372989Y-96327011D02*
X42427011Y-101272989D01*
X60325000Y-106850000D02*
X60325000Y-107874014D01*
X60325000Y-107874014D02*
X60650000Y-108199014D01*
X24165000Y-97520000D02*
X23230000Y-97520000D01*
X23230000Y-97520000D02*
X23200000Y-97550000D01*
X10470000Y-93560000D02*
X17160000Y-93560000D01*
X17160000Y-93560000D02*
X19050000Y-95450000D01*
D51*
X71410000Y-91060000D02*
X71325000Y-90975000D01*
X71410000Y-92310000D02*
X71410000Y-91060000D01*
D49*
X64600000Y-109700000D02*
X64600000Y-109700000D01*
D51*
X71325000Y-90975000D02*
X71310000Y-90960000D01*
D49*
X55325000Y-96825000D02*
X55325000Y-98150000D01*
X68200000Y-91950000D02*
X65550000Y-91950000D01*
X56950000Y-95200000D02*
X55325000Y-96825000D01*
X62300000Y-95200000D02*
X56950000Y-95200000D01*
X65550000Y-91950000D02*
X62300000Y-95200000D01*
X55325000Y-99125000D02*
X55300000Y-99150000D01*
X55325000Y-98150000D02*
X55325000Y-99125000D01*
X70143000Y-103190000D02*
X71020000Y-103190000D01*
X68650000Y-104683000D02*
X70143000Y-103190000D01*
X64600000Y-110239982D02*
X65738519Y-111378501D01*
X64600000Y-109700000D02*
X64600000Y-110239982D01*
X68650000Y-110000000D02*
X68650000Y-104683000D01*
X65738519Y-111378501D02*
X67271499Y-111378501D01*
X67271499Y-111378501D02*
X68650000Y-110000000D01*
X18960000Y-96250000D02*
X24165000Y-96250000D01*
X17145000Y-98065000D02*
X18960000Y-96250000D01*
X16145001Y-97065001D02*
X17145000Y-98065000D01*
X13753501Y-94673501D02*
X16145001Y-97065001D01*
X7930000Y-93560000D02*
X8660000Y-93560000D01*
X9773501Y-94673501D02*
X13753501Y-94673501D01*
X8660000Y-93560000D02*
X9773501Y-94673501D01*
X18144999Y-99064999D02*
X17145000Y-98065000D01*
X54500000Y-96000000D02*
X47200000Y-96000000D01*
X20025978Y-100945978D02*
X18144999Y-99064999D01*
X55325000Y-96825000D02*
X54500000Y-96000000D01*
X42254022Y-100945978D02*
X20025978Y-100945978D01*
X47200000Y-96000000D02*
X42254022Y-100945978D01*
X59325000Y-108098787D02*
X59231876Y-108191911D01*
X59325000Y-106850000D02*
X59325000Y-108098787D01*
X22450000Y-91450000D02*
X24550000Y-89350000D01*
X22450000Y-94050000D02*
X22450000Y-91450000D01*
X24550000Y-89350000D02*
X31005000Y-89350000D01*
X24165000Y-94980000D02*
X23380000Y-94980000D01*
X23380000Y-94980000D02*
X22450000Y-94050000D01*
X22450000Y-91350000D02*
X22450000Y-91450000D01*
X10470000Y-91020000D02*
X22120000Y-91020000D01*
X22120000Y-91020000D02*
X22450000Y-91350000D01*
X15550000Y-122085787D02*
X15550000Y-119600000D01*
X15550000Y-123500000D02*
X15550000Y-122085787D01*
X16054700Y-112800000D02*
X17820000Y-112800000D01*
X15550000Y-113304700D02*
X16054700Y-112800000D01*
X15550000Y-119600000D02*
X15550000Y-113304700D01*
X16225000Y-124175000D02*
X15550000Y-123500000D01*
X20950000Y-124175000D02*
X16225000Y-124175000D01*
X18000000Y-124825000D02*
X15550000Y-127275000D01*
X20950000Y-124825000D02*
X18000000Y-124825000D01*
X13650000Y-118823000D02*
X13650000Y-119600000D01*
X13650000Y-112850000D02*
X13650000Y-118823000D01*
X15000000Y-111500000D02*
X13650000Y-112850000D01*
X17820000Y-115340000D02*
X18960000Y-115340000D01*
X18960000Y-115340000D02*
X19900000Y-114400000D01*
X19900000Y-114400000D02*
X19900000Y-112100000D01*
X19900000Y-112100000D02*
X19300000Y-111500000D01*
X19300000Y-111500000D02*
X15000000Y-111500000D01*
X13650000Y-125375000D02*
X15550000Y-127275000D01*
X13650000Y-119600000D02*
X13650000Y-125375000D01*
X79506499Y-101776499D02*
X80380801Y-101776499D01*
X83740000Y-102590000D02*
X83740000Y-103300000D01*
X80597292Y-101992990D02*
X83142990Y-101992990D01*
X83740000Y-103300000D02*
X83720000Y-103320000D01*
X80380801Y-101776499D02*
X80597292Y-101992990D01*
X79420000Y-101690000D02*
X79506499Y-101776499D01*
X83142990Y-101992990D02*
X83740000Y-102590000D01*
X80380801Y-103103501D02*
X80484302Y-103000000D01*
X79506499Y-103103501D02*
X80380801Y-103103501D01*
X79420000Y-103190000D02*
X79506499Y-103103501D01*
X80484302Y-103000000D02*
X81928034Y-103000000D01*
X81928034Y-103000000D02*
X83714524Y-104786490D01*
X83507348Y-103837790D02*
X83757347Y-104087789D01*
X82342547Y-102672989D02*
X83507348Y-103837790D01*
X79420000Y-102690000D02*
X79437011Y-102672989D01*
X79437011Y-102672989D02*
X82342547Y-102672989D01*
X82632989Y-111482991D02*
X83549999Y-112400001D01*
X80297000Y-104190000D02*
X82632989Y-106525989D01*
X82632989Y-106525989D02*
X82632989Y-111482991D01*
X79420000Y-104190000D02*
X80297000Y-104190000D01*
X83549999Y-112400001D02*
X83799998Y-112650000D01*
X82960000Y-106353000D02*
X82960000Y-110730249D01*
X80297000Y-103690000D02*
X82960000Y-106353000D01*
X79420000Y-103690000D02*
X80297000Y-103690000D01*
X83168099Y-110938348D02*
X83168099Y-111291901D01*
X82960000Y-110730249D02*
X83168099Y-110938348D01*
X79420000Y-105190000D02*
X80297000Y-105190000D01*
X81978967Y-106871967D02*
X81978967Y-112218967D01*
X80297000Y-105190000D02*
X81978967Y-106871967D01*
X82020001Y-112260001D02*
X82270000Y-112510000D01*
X81978967Y-112218967D02*
X82020001Y-112260001D01*
X79420000Y-100190000D02*
X80294302Y-100190000D01*
X80294302Y-100190000D02*
X81677010Y-98807292D01*
X81677010Y-97014490D02*
X83300000Y-95391500D01*
X81677010Y-98807292D02*
X81677010Y-97014490D01*
X81350000Y-98650000D02*
X81350000Y-96550000D01*
X82100001Y-95799999D02*
X82350000Y-95550000D01*
X79420000Y-99690000D02*
X80310000Y-99690000D01*
X81350000Y-96550000D02*
X82100001Y-95799999D01*
X80310000Y-99690000D02*
X81350000Y-98650000D01*
X83250000Y-96418500D02*
X83081500Y-96418500D01*
X79420000Y-101190000D02*
X80219223Y-101190000D01*
X80219223Y-101190000D02*
X82337010Y-99072214D01*
X83250000Y-96772053D02*
X83250000Y-96418500D01*
X83250000Y-97149982D02*
X83250000Y-96772053D01*
X82337010Y-98062972D02*
X83250000Y-97149982D01*
X82337010Y-99072214D02*
X82337010Y-98062972D01*
X71290000Y-106640000D02*
X71250000Y-106600000D01*
X72470000Y-106640000D02*
X71290000Y-106640000D01*
X53725000Y-100750000D02*
X52948000Y-100750000D01*
X52948000Y-100750000D02*
X52450000Y-100750000D01*
X46550000Y-87950000D02*
X46550000Y-86750000D01*
X48150000Y-89550000D02*
X46550000Y-87950000D01*
X36350000Y-86750000D02*
X36300000Y-86800000D01*
X39750000Y-86750000D02*
X36350000Y-86750000D01*
X44823000Y-86750000D02*
X39750000Y-86750000D01*
X46550000Y-86750000D02*
X44823000Y-86750000D01*
X53725000Y-100750000D02*
X54450000Y-100750000D01*
X54850000Y-100350000D02*
X55600000Y-100350000D01*
X54450000Y-100750000D02*
X54850000Y-100350000D01*
X74470000Y-97365698D02*
X74470000Y-98240000D01*
X74207803Y-97103501D02*
X74470000Y-97365698D01*
X73709199Y-97103501D02*
X74207803Y-97103501D01*
X73600000Y-96994302D02*
X73709199Y-97103501D01*
X74093000Y-92790000D02*
X73783501Y-93099499D01*
X73783501Y-93099499D02*
X73783501Y-95766499D01*
X74670000Y-92790000D02*
X74093000Y-92790000D01*
X73783501Y-95766499D02*
X73600000Y-95950000D01*
X73600000Y-95950000D02*
X73600000Y-96994302D01*
X55825000Y-98150000D02*
X55825000Y-99384982D01*
X55825000Y-99384982D02*
X56150000Y-99709982D01*
X56150000Y-99709982D02*
X56150000Y-104400000D01*
X56150000Y-104400000D02*
X50450000Y-110100000D01*
X50450000Y-110100000D02*
X50450000Y-115300000D01*
X44902000Y-119175000D02*
X43639213Y-119175000D01*
X43639213Y-119175000D02*
X42225000Y-119175000D01*
X49850000Y-124123000D02*
X44902000Y-119175000D01*
X49850000Y-124750000D02*
X49850000Y-124123000D01*
X51577000Y-124750000D02*
X56650000Y-124750000D01*
X49850000Y-124750000D02*
X51577000Y-124750000D01*
X37025000Y-121552000D02*
X37025000Y-121075000D01*
X37025000Y-121587000D02*
X37025000Y-121552000D01*
X36152000Y-122460000D02*
X37025000Y-121587000D01*
X35875000Y-122460000D02*
X36152000Y-122460000D01*
X40325000Y-121075000D02*
X42225000Y-119175000D01*
X37025000Y-121075000D02*
X40325000Y-121075000D01*
X32049999Y-121849999D02*
X31800000Y-121600000D01*
X32200000Y-122000000D02*
X32049999Y-121849999D01*
X32418000Y-123925000D02*
X32300000Y-123807000D01*
X32300000Y-123807000D02*
X32300000Y-123804302D01*
X32300000Y-123804302D02*
X32200000Y-123704302D01*
X32910000Y-123925000D02*
X32418000Y-123925000D01*
X32200000Y-123704302D02*
X32200000Y-122000000D01*
D51*
X65665002Y-85330000D02*
X65765001Y-85230001D01*
X64060000Y-85330000D02*
X65665002Y-85330000D01*
X64160000Y-85430000D02*
X64060000Y-85330000D01*
X64160000Y-87005000D02*
X64160000Y-85430000D01*
D49*
X58325000Y-106073000D02*
X59248000Y-105150000D01*
X59248000Y-105150000D02*
X59350000Y-105150000D01*
X58325000Y-106850000D02*
X58325000Y-106073000D01*
X26830000Y-126805000D02*
X26850000Y-126825000D01*
X32418000Y-124925000D02*
X32910000Y-124925000D01*
X26850000Y-126825000D02*
X28750000Y-124925000D01*
X28750000Y-124925000D02*
X32418000Y-124925000D01*
X25500000Y-125475000D02*
X24050000Y-125475000D01*
X26850000Y-126825000D02*
X25500000Y-125475000D01*
X32910000Y-125425000D02*
X31225000Y-125425000D01*
X31225000Y-125425000D02*
X31200000Y-125450000D01*
X23375000Y-120225000D02*
X24000000Y-120850000D01*
X24050000Y-120900000D02*
X23375000Y-120225000D01*
X24050000Y-123525000D02*
X24050000Y-120900000D01*
X24075000Y-123500000D02*
X24050000Y-123525000D01*
X24600000Y-123500000D02*
X24075000Y-123500000D01*
X66370000Y-94215000D02*
X66370000Y-95330000D01*
X63258708Y-103250000D02*
X63506727Y-103001981D01*
X62425000Y-103250000D02*
X63258708Y-103250000D01*
X49428507Y-82343637D02*
X49428507Y-87678507D01*
X50600000Y-82065000D02*
X49707144Y-82065000D01*
X49707144Y-82065000D02*
X49428507Y-82343637D01*
X49428507Y-87678507D02*
X50750000Y-89000000D01*
X50750000Y-89000000D02*
X50800000Y-89000000D01*
X50750000Y-89000000D02*
X53750000Y-92000000D01*
X53750000Y-92000000D02*
X63300000Y-92000000D01*
X63300000Y-92000000D02*
X63850000Y-92550000D01*
X68910000Y-95899984D02*
X68913502Y-95896482D01*
X68913502Y-95896482D02*
X68913502Y-95344289D01*
X68913502Y-95344289D02*
X67784213Y-94215000D01*
X67784213Y-94215000D02*
X66370000Y-94215000D01*
X71020000Y-100190000D02*
X70143000Y-100190000D01*
X70143000Y-100190000D02*
X68910000Y-98957000D01*
X68910000Y-98957000D02*
X68910000Y-95899984D01*
X66415000Y-97460000D02*
X66345000Y-97390000D01*
X69460000Y-100690000D02*
X68450000Y-99680000D01*
X67700000Y-97460000D02*
X66415000Y-97460000D01*
X68450000Y-99680000D02*
X68450000Y-98210000D01*
X71020000Y-100690000D02*
X69460000Y-100690000D01*
X68450000Y-98210000D02*
X67700000Y-97460000D01*
X62425000Y-103750000D02*
X63550000Y-103750000D01*
X63550000Y-103750000D02*
X63600000Y-103700000D01*
X51102000Y-83065000D02*
X51700000Y-83663000D01*
X50600000Y-83065000D02*
X51102000Y-83065000D01*
X51700000Y-83663000D02*
X51700000Y-88600000D01*
X51700000Y-88600000D02*
X51900000Y-88800000D01*
X51900000Y-88800000D02*
X51900000Y-88850000D01*
X51900000Y-88850000D02*
X54700000Y-91650000D01*
X54700000Y-91650000D02*
X64450000Y-91650000D01*
X67734213Y-100565000D02*
X66320000Y-100565000D01*
X71020000Y-101190000D02*
X68359213Y-101190000D01*
X68359213Y-101190000D02*
X67734213Y-100565000D01*
X66320000Y-100565000D02*
X66320000Y-100145000D01*
X66320000Y-100565000D02*
X66320000Y-100219999D01*
X63403553Y-97950000D02*
X63050000Y-97950000D01*
X64050001Y-97950000D02*
X63403553Y-97950000D01*
X61077000Y-98150000D02*
X61277000Y-97950000D01*
X66320000Y-100219999D02*
X64050001Y-97950000D01*
X60825000Y-98150000D02*
X61077000Y-98150000D01*
X62696447Y-97950000D02*
X63050000Y-97950000D01*
X61277000Y-97950000D02*
X62696447Y-97950000D01*
X57636500Y-91136500D02*
X62096447Y-91136500D01*
X54950000Y-88450000D02*
X57636500Y-91136500D01*
X54762750Y-83402768D02*
X54950000Y-83590018D01*
X62096447Y-91136500D02*
X62450000Y-91136500D01*
X54950000Y-83590018D02*
X54950000Y-88450000D01*
X55650000Y-82065000D02*
X55398000Y-81813000D01*
X55398000Y-81813000D02*
X55268268Y-81813000D01*
X55900000Y-82065000D02*
X55650000Y-82065000D01*
X55268268Y-81813000D02*
X54762750Y-82318518D01*
X54762750Y-82318518D02*
X54762750Y-83402768D01*
X68395000Y-101690000D02*
X66345000Y-103740000D01*
X71020000Y-101690000D02*
X68395000Y-101690000D01*
X60300001Y-98125001D02*
X60325000Y-98150000D01*
X66345000Y-103740000D02*
X65000000Y-102395000D01*
X65000000Y-99500000D02*
X63999986Y-98499986D01*
X63999986Y-98499986D02*
X62553553Y-98499986D01*
X62553553Y-98499986D02*
X62200000Y-98499986D01*
X65000000Y-102395000D02*
X65000000Y-99500000D01*
X60325000Y-97373000D02*
X60698000Y-97000000D01*
X61146447Y-97000000D02*
X61500000Y-97000000D01*
X60325000Y-98150000D02*
X60325000Y-97373000D01*
X60698000Y-97000000D02*
X61146447Y-97000000D01*
X60746435Y-90600000D02*
X61099988Y-90600000D01*
X57200000Y-83863000D02*
X57200000Y-88300000D01*
X56402000Y-83065000D02*
X57200000Y-83863000D01*
X55900000Y-83065000D02*
X56402000Y-83065000D01*
X57200000Y-88300000D02*
X59500000Y-90600000D01*
X59500000Y-90600000D02*
X60746435Y-90600000D01*
X67940000Y-105345000D02*
X66345000Y-106940000D01*
X67940000Y-103410000D02*
X67940000Y-105345000D01*
X71020000Y-102190000D02*
X69160000Y-102190000D01*
X69160000Y-102190000D02*
X67940000Y-103410000D01*
X61100000Y-99200000D02*
X60098000Y-99200000D01*
X59825000Y-98927000D02*
X59825000Y-98150000D01*
X64600000Y-99769922D02*
X63864566Y-99034488D01*
X61265512Y-99034488D02*
X61100000Y-99200000D01*
X63864566Y-99034488D02*
X61265512Y-99034488D01*
X66345000Y-106940000D02*
X64600000Y-105195000D01*
X60098000Y-99200000D02*
X59825000Y-98927000D01*
X64600000Y-105195000D02*
X64600000Y-99769922D01*
X64227011Y-107997011D02*
X65345001Y-109115001D01*
X64227011Y-99859396D02*
X64227011Y-107997011D01*
X63729114Y-99361499D02*
X64227011Y-99859396D01*
X59325000Y-99025000D02*
X59900000Y-99600000D01*
X59325000Y-98150000D02*
X59325000Y-99025000D01*
X61438501Y-99361499D02*
X63729114Y-99361499D01*
X65345001Y-109115001D02*
X66345000Y-110115000D01*
X59900000Y-99600000D02*
X61200000Y-99600000D01*
X61200000Y-99600000D02*
X61438501Y-99361499D01*
X67344999Y-109115001D02*
X66345000Y-110115000D01*
X68300000Y-108160000D02*
X67344999Y-109115001D01*
X68300000Y-104090000D02*
X68300000Y-108160000D01*
X71020000Y-102690000D02*
X69700000Y-102690000D01*
X69700000Y-102690000D02*
X68300000Y-104090000D01*
X71020000Y-103690000D02*
X70143000Y-103690000D01*
X69090001Y-112670001D02*
X70090000Y-113670000D01*
X69055978Y-112635978D02*
X69090001Y-112670001D01*
X70143000Y-103690000D02*
X69055978Y-104777022D01*
X65200000Y-112100000D02*
X64550000Y-111450000D01*
X68520000Y-112100000D02*
X65200000Y-112100000D01*
X69055978Y-104777022D02*
X69050000Y-111750000D01*
X68700000Y-112100000D02*
X69050000Y-111750000D01*
X68520000Y-112100000D02*
X68700000Y-112100000D01*
X69050000Y-111750000D02*
X69055978Y-112635978D01*
X62736500Y-105561500D02*
X62425000Y-105250000D01*
X62736500Y-109050000D02*
X62736500Y-105561500D01*
X64550000Y-111450000D02*
X64550000Y-111450000D01*
X60850000Y-102250000D02*
X60786499Y-102313501D01*
X62000000Y-106500000D02*
X62000000Y-107996447D01*
X62000000Y-107996447D02*
X62000000Y-108350000D01*
X60786499Y-105286499D02*
X62000000Y-106500000D01*
X62425000Y-102250000D02*
X60850000Y-102250000D01*
X60786499Y-102313501D02*
X60786499Y-105286499D01*
X33300000Y-123035000D02*
X32910000Y-123425000D01*
X29500000Y-115275000D02*
X33300000Y-119075000D01*
X33300000Y-119075000D02*
X33300000Y-123035000D01*
X63900000Y-104948000D02*
X63202000Y-104250000D01*
X63202000Y-104250000D02*
X62425000Y-104250000D01*
X71353500Y-112793502D02*
X71353500Y-114276480D01*
X69382989Y-110822991D02*
X71353500Y-112793502D01*
X70696480Y-114933500D02*
X65333500Y-114933500D01*
X70143000Y-104190000D02*
X69382989Y-104950011D01*
X65333500Y-114933500D02*
X63900000Y-113500000D01*
X63900000Y-113500000D02*
X63900000Y-112350000D01*
X71353500Y-114276480D02*
X70696480Y-114933500D01*
X71020000Y-104190000D02*
X70143000Y-104190000D01*
X69382989Y-104950011D02*
X69382989Y-110822991D01*
X63900000Y-112350000D02*
X63900000Y-104948000D01*
X34375000Y-122460000D02*
X34375000Y-119225000D01*
X35975000Y-117625000D02*
X35975000Y-115275000D01*
X34375000Y-119225000D02*
X35975000Y-117625000D01*
X69710000Y-105123000D02*
X70143000Y-104690000D01*
X69710000Y-110687539D02*
X69710000Y-105123000D01*
X71680511Y-114411931D02*
X71680511Y-112658050D01*
X70831932Y-115260511D02*
X71680511Y-114411931D01*
X63350000Y-106000000D02*
X63250000Y-106100000D01*
X63174302Y-104750000D02*
X63350000Y-104925698D01*
X63256751Y-109303231D02*
X63250000Y-109309982D01*
X63250000Y-106100000D02*
X63250000Y-108803518D01*
X62425000Y-104750000D02*
X63174302Y-104750000D01*
X63250000Y-108803518D02*
X63256751Y-108810269D01*
X70143000Y-104690000D02*
X71020000Y-104690000D01*
X71680511Y-112658050D02*
X69710000Y-110687539D01*
X63256751Y-108810269D02*
X63256751Y-109303231D01*
X63250000Y-109309982D02*
X63250000Y-111800000D01*
X63250000Y-113350000D02*
X65160511Y-115260511D01*
X63350000Y-104925698D02*
X63350000Y-106000000D01*
X65160511Y-115260511D02*
X70831932Y-115260511D01*
X63250000Y-111800000D02*
X63250000Y-113350000D01*
X33875000Y-116350000D02*
X32800000Y-115275000D01*
X33875000Y-122460000D02*
X33875000Y-116350000D01*
X61250000Y-107275000D02*
X60825000Y-106850000D01*
X70110000Y-105190000D02*
X70037010Y-105262990D01*
X70037010Y-110552089D02*
X72007521Y-112522599D01*
X70037010Y-105262990D02*
X70037010Y-110552089D01*
X72007520Y-114547383D02*
X70967383Y-115587521D01*
X71020000Y-105190000D02*
X70110000Y-105190000D01*
X62550000Y-113144921D02*
X62550000Y-111250000D01*
X64992600Y-115587521D02*
X62550000Y-113144921D01*
X70967383Y-115587521D02*
X64992600Y-115587521D01*
X72007521Y-112522599D02*
X72007520Y-114547383D01*
X62550000Y-109950000D02*
X61250000Y-108650000D01*
X61250000Y-108650000D02*
X61250000Y-107275000D01*
X62550000Y-111250000D02*
X62550000Y-109950000D01*
X35375000Y-119100000D02*
X39200000Y-115275000D01*
X35375000Y-122460000D02*
X35375000Y-119100000D01*
X72899999Y-96199999D02*
X72799999Y-96099999D01*
X72899999Y-97292999D02*
X72899999Y-96199999D01*
X72970000Y-98240000D02*
X72970000Y-97363000D01*
X72799999Y-96099999D02*
X72550000Y-95850000D01*
X72970000Y-97363000D02*
X72899999Y-97292999D01*
X58325000Y-97373000D02*
X59998018Y-95699982D01*
X59998018Y-95699982D02*
X67996447Y-95699982D01*
X67996447Y-95699982D02*
X68350000Y-95699982D01*
X58325000Y-98150000D02*
X58325000Y-97373000D01*
X58825000Y-97373000D02*
X60077030Y-96120970D01*
X63205988Y-96120970D02*
X66085018Y-99000000D01*
X60077030Y-96120970D02*
X63205988Y-96120970D01*
X58825000Y-98150000D02*
X58825000Y-97373000D01*
X66085018Y-99000000D02*
X67600000Y-99000000D01*
X71066498Y-99643502D02*
X71020000Y-99690000D01*
X72237797Y-99643502D02*
X71066498Y-99643502D01*
X77470000Y-107517000D02*
X77470000Y-106640000D01*
X78343000Y-108390000D02*
X77470000Y-107517000D01*
X78922000Y-108390000D02*
X78343000Y-108390000D01*
X79495000Y-108963000D02*
X78922000Y-108390000D01*
X79495000Y-108963000D02*
X79495000Y-109340000D01*
X76470000Y-107517000D02*
X76470000Y-106640000D01*
X76470000Y-108038000D02*
X76470000Y-107517000D01*
X77395000Y-108963000D02*
X76470000Y-108038000D01*
X77395000Y-109340000D02*
X77395000Y-108963000D01*
X75470000Y-107517000D02*
X75470000Y-106640000D01*
X75470000Y-108813000D02*
X75470000Y-107517000D01*
X75320000Y-108963000D02*
X75470000Y-108813000D01*
X75320000Y-109340000D02*
X75320000Y-108963000D01*
X70850000Y-119100000D02*
X59500000Y-119100000D01*
X74370000Y-115580000D02*
X70850000Y-119100000D01*
X74970000Y-106640000D02*
X74970000Y-107517000D01*
X74370000Y-108117000D02*
X74370000Y-115580000D01*
X74970000Y-107517000D02*
X74370000Y-108117000D01*
X52450000Y-116007000D02*
X52450000Y-115630000D01*
X54143000Y-117700000D02*
X52450000Y-116007000D01*
X73970000Y-107554540D02*
X73545000Y-107979540D01*
X73970000Y-106640000D02*
X73970000Y-107554540D01*
X73545000Y-107979540D02*
X73545000Y-114575000D01*
X70420000Y-117700000D02*
X54143000Y-117700000D01*
X73545000Y-114575000D02*
X70420000Y-117700000D01*
X74470000Y-107517000D02*
X74470000Y-106640000D01*
X73970000Y-115080000D02*
X73970000Y-108017000D01*
X56100000Y-118363500D02*
X70686500Y-118363500D01*
X73970000Y-108017000D02*
X74470000Y-107517000D01*
X70686500Y-118363500D02*
X73970000Y-115080000D01*
D51*
X25825000Y-124175000D02*
X26000000Y-124000000D01*
X24050000Y-124175000D02*
X25825000Y-124175000D01*
X29925000Y-119225000D02*
X30200000Y-119500000D01*
X29350000Y-119225000D02*
X29925000Y-119225000D01*
X29776001Y-120924999D02*
X28875001Y-120924999D01*
X30200000Y-119500000D02*
X30200000Y-120501000D01*
X30200000Y-120501000D02*
X29776001Y-120924999D01*
X28875001Y-120924999D02*
X28600000Y-121200000D01*
X28225000Y-123900000D02*
X27600000Y-123900000D01*
X28600000Y-123525000D02*
X28225000Y-123900000D01*
X28600000Y-121200000D02*
X28600000Y-123525000D01*
G36*
X94275000Y-118301484D02*
G01*
X90338387Y-118348488D01*
X90524129Y-91775000D01*
X94275000Y-91775000D01*
X94275000Y-118301484D01*
G37*
X94275000Y-118301484D02*
X90338387Y-118348488D01*
X90524129Y-91775000D01*
X94275000Y-91775000D01*
X94275000Y-118301484D01*
G36*
X88174764Y-118349229D02*
G01*
X84350350Y-118325766D01*
X84365541Y-112917862D01*
X84400979Y-112832306D01*
X84424998Y-112711557D01*
X84424998Y-112588443D01*
X84400979Y-112467694D01*
X84367035Y-112385746D01*
X84424650Y-91875000D01*
X88125233Y-91875000D01*
X88174764Y-118349229D01*
G37*
X88174764Y-118349229D02*
X84350350Y-118325766D01*
X84365541Y-112917862D01*
X84400979Y-112832306D01*
X84424998Y-112711557D01*
X84424998Y-112588443D01*
X84400979Y-112467694D01*
X84367035Y-112385746D01*
X84424650Y-91875000D01*
X88125233Y-91875000D01*
X88174764Y-118349229D01*
G36*
X96700780Y-78289627D02*
G01*
X96742769Y-78322101D01*
X96766980Y-78369340D01*
X96769315Y-78436494D01*
X94288227Y-91717042D01*
X94259494Y-91781911D01*
X94216310Y-91817499D01*
X94147142Y-91833308D01*
X90656512Y-91806864D01*
X90599736Y-91795618D01*
X90561147Y-91770803D01*
X90534365Y-91733553D01*
X90520192Y-91677440D01*
X89731298Y-78420184D01*
X89740299Y-78358260D01*
X89766266Y-78316088D01*
X89806820Y-78287663D01*
X89868101Y-78275000D01*
X96635197Y-78275000D01*
X96700780Y-78289627D01*
G37*
X96700780Y-78289627D02*
X96742769Y-78322101D01*
X96766980Y-78369340D01*
X96769315Y-78436494D01*
X94288227Y-91717042D01*
X94259494Y-91781911D01*
X94216310Y-91817499D01*
X94147142Y-91833308D01*
X90656512Y-91806864D01*
X90599736Y-91795618D01*
X90561147Y-91770803D01*
X90534365Y-91733553D01*
X90520192Y-91677440D01*
X89731298Y-78420184D01*
X89740299Y-78358260D01*
X89766266Y-78316088D01*
X89806820Y-78287663D01*
X89868101Y-78275000D01*
X96635197Y-78275000D01*
X96700780Y-78289627D01*
G36*
X88262897Y-78274230D02*
G01*
X88322666Y-78286430D01*
X88362584Y-78313642D01*
X88388875Y-78354166D01*
X88399710Y-78414202D01*
X88130347Y-91930429D01*
X88117106Y-91990038D01*
X88089173Y-92029504D01*
X88048149Y-92055084D01*
X87987874Y-92064825D01*
X84566005Y-91933215D01*
X84500150Y-91915611D01*
X84459209Y-91880652D01*
X84431506Y-91818367D01*
X81774697Y-78418807D01*
X81776419Y-78351125D01*
X81800532Y-78303395D01*
X81842757Y-78270581D01*
X81908850Y-78255919D01*
X88262897Y-78274230D01*
G37*
X88262897Y-78274230D02*
X88322666Y-78286430D01*
X88362584Y-78313642D01*
X88388875Y-78354166D01*
X88399710Y-78414202D01*
X88130347Y-91930429D01*
X88117106Y-91990038D01*
X88089173Y-92029504D01*
X88048149Y-92055084D01*
X87987874Y-92064825D01*
X84566005Y-91933215D01*
X84500150Y-91915611D01*
X84459209Y-91880652D01*
X84431506Y-91818367D01*
X81774697Y-78418807D01*
X81776419Y-78351125D01*
X81800532Y-78303395D01*
X81842757Y-78270581D01*
X81908850Y-78255919D01*
X88262897Y-78274230D01*
D52*
G36*
X70255569Y-80484734D02*
G01*
X70298873Y-80507158D01*
X71722353Y-81560532D01*
X71736794Y-81587550D01*
X71777657Y-81637343D01*
X71827450Y-81678206D01*
X71884257Y-81708570D01*
X71945897Y-81727268D01*
X71947944Y-81727470D01*
X72611196Y-82218276D01*
X72656676Y-82272240D01*
X72673000Y-82340895D01*
X72673000Y-83337491D01*
X72661338Y-83396119D01*
X72635215Y-83435215D01*
X72596119Y-83461338D01*
X72537491Y-83473000D01*
X67553758Y-83473000D01*
X67496332Y-83461834D01*
X67457718Y-83436749D01*
X67431319Y-83399025D01*
X67418180Y-83342015D01*
X67377111Y-82150994D01*
X67377000Y-82144594D01*
X67377000Y-81607228D01*
X67386434Y-81554242D01*
X67407825Y-81517615D01*
X67449342Y-81483364D01*
X69190937Y-80500925D01*
X69282045Y-80477000D01*
X70207423Y-80477000D01*
X70255569Y-80484734D01*
G37*
X70255569Y-80484734D02*
X70298873Y-80507158D01*
X71722353Y-81560532D01*
X71736794Y-81587550D01*
X71777657Y-81637343D01*
X71827450Y-81678206D01*
X71884257Y-81708570D01*
X71945897Y-81727268D01*
X71947944Y-81727470D01*
X72611196Y-82218276D01*
X72656676Y-82272240D01*
X72673000Y-82340895D01*
X72673000Y-83337491D01*
X72661338Y-83396119D01*
X72635215Y-83435215D01*
X72596119Y-83461338D01*
X72537491Y-83473000D01*
X67553758Y-83473000D01*
X67496332Y-83461834D01*
X67457718Y-83436749D01*
X67431319Y-83399025D01*
X67418180Y-83342015D01*
X67377111Y-82150994D01*
X67377000Y-82144594D01*
X67377000Y-81607228D01*
X67386434Y-81554242D01*
X67407825Y-81517615D01*
X67449342Y-81483364D01*
X69190937Y-80500925D01*
X69282045Y-80477000D01*
X70207423Y-80477000D01*
X70255569Y-80484734D01*
G36*
X77938954Y-87124091D02*
G01*
X77997064Y-87136242D01*
X78035715Y-87162460D01*
X78061500Y-87201403D01*
X78073000Y-87259640D01*
X78073000Y-91839172D01*
X78061433Y-91897572D01*
X78035506Y-91936581D01*
X77996673Y-91962759D01*
X77938347Y-91974707D01*
X76490173Y-91984172D01*
X76477816Y-91971815D01*
X76383312Y-91908669D01*
X76278305Y-91865174D01*
X76166830Y-91843000D01*
X76053170Y-91843000D01*
X75941695Y-91865174D01*
X75836688Y-91908669D01*
X75742184Y-91971815D01*
X75724824Y-91989175D01*
X73217901Y-92005560D01*
X73216551Y-92005151D01*
X73140000Y-91997611D01*
X73063449Y-92005151D01*
X73058668Y-92006601D01*
X72183886Y-92012319D01*
X72182268Y-91995897D01*
X72163570Y-91934257D01*
X72133206Y-91877450D01*
X72092343Y-91827657D01*
X72042550Y-91786794D01*
X71985743Y-91756430D01*
X71924103Y-91737732D01*
X71862000Y-91731615D01*
X71862000Y-91538680D01*
X71863570Y-91535743D01*
X71882268Y-91474103D01*
X71888582Y-91410000D01*
X71888582Y-91099286D01*
X71902000Y-91031830D01*
X71902000Y-90918170D01*
X71888582Y-90850714D01*
X71888582Y-90510000D01*
X71882268Y-90445897D01*
X71863570Y-90384257D01*
X71833206Y-90327450D01*
X71792343Y-90277657D01*
X71742550Y-90236794D01*
X71685743Y-90206430D01*
X71624103Y-90187732D01*
X71560000Y-90181418D01*
X71060000Y-90181418D01*
X70995897Y-90187732D01*
X70934257Y-90206430D01*
X70877450Y-90236794D01*
X70827657Y-90277657D01*
X70786794Y-90327450D01*
X70756430Y-90384257D01*
X70737732Y-90445897D01*
X70731418Y-90510000D01*
X70731418Y-91410000D01*
X70737732Y-91474103D01*
X70756430Y-91535743D01*
X70786794Y-91592550D01*
X70827657Y-91642343D01*
X70877450Y-91683206D01*
X70934257Y-91713570D01*
X70958000Y-91720772D01*
X70958000Y-91731615D01*
X70895897Y-91737732D01*
X70834257Y-91756430D01*
X70777450Y-91786794D01*
X70727657Y-91827657D01*
X70686794Y-91877450D01*
X70656430Y-91934257D01*
X70637732Y-91995897D01*
X70635117Y-92022442D01*
X70550174Y-92022997D01*
X70549121Y-92023000D01*
X69512509Y-92023000D01*
X69453881Y-92011338D01*
X69414785Y-91985215D01*
X69388662Y-91946119D01*
X69377000Y-91887491D01*
X69377000Y-87165406D01*
X69388824Y-87106395D01*
X69415288Y-87067145D01*
X69454832Y-87041121D01*
X69513970Y-87029958D01*
X77938954Y-87124091D01*
G37*
X77938954Y-87124091D02*
X77997064Y-87136242D01*
X78035715Y-87162460D01*
X78061500Y-87201403D01*
X78073000Y-87259640D01*
X78073000Y-91839172D01*
X78061433Y-91897572D01*
X78035506Y-91936581D01*
X77996673Y-91962759D01*
X77938347Y-91974707D01*
X76490173Y-91984172D01*
X76477816Y-91971815D01*
X76383312Y-91908669D01*
X76278305Y-91865174D01*
X76166830Y-91843000D01*
X76053170Y-91843000D01*
X75941695Y-91865174D01*
X75836688Y-91908669D01*
X75742184Y-91971815D01*
X75724824Y-91989175D01*
X73217901Y-92005560D01*
X73216551Y-92005151D01*
X73140000Y-91997611D01*
X73063449Y-92005151D01*
X73058668Y-92006601D01*
X72183886Y-92012319D01*
X72182268Y-91995897D01*
X72163570Y-91934257D01*
X72133206Y-91877450D01*
X72092343Y-91827657D01*
X72042550Y-91786794D01*
X71985743Y-91756430D01*
X71924103Y-91737732D01*
X71862000Y-91731615D01*
X71862000Y-91538680D01*
X71863570Y-91535743D01*
X71882268Y-91474103D01*
X71888582Y-91410000D01*
X71888582Y-91099286D01*
X71902000Y-91031830D01*
X71902000Y-90918170D01*
X71888582Y-90850714D01*
X71888582Y-90510000D01*
X71882268Y-90445897D01*
X71863570Y-90384257D01*
X71833206Y-90327450D01*
X71792343Y-90277657D01*
X71742550Y-90236794D01*
X71685743Y-90206430D01*
X71624103Y-90187732D01*
X71560000Y-90181418D01*
X71060000Y-90181418D01*
X70995897Y-90187732D01*
X70934257Y-90206430D01*
X70877450Y-90236794D01*
X70827657Y-90277657D01*
X70786794Y-90327450D01*
X70756430Y-90384257D01*
X70737732Y-90445897D01*
X70731418Y-90510000D01*
X70731418Y-91410000D01*
X70737732Y-91474103D01*
X70756430Y-91535743D01*
X70786794Y-91592550D01*
X70827657Y-91642343D01*
X70877450Y-91683206D01*
X70934257Y-91713570D01*
X70958000Y-91720772D01*
X70958000Y-91731615D01*
X70895897Y-91737732D01*
X70834257Y-91756430D01*
X70777450Y-91786794D01*
X70727657Y-91827657D01*
X70686794Y-91877450D01*
X70656430Y-91934257D01*
X70637732Y-91995897D01*
X70635117Y-92022442D01*
X70550174Y-92022997D01*
X70549121Y-92023000D01*
X69512509Y-92023000D01*
X69453881Y-92011338D01*
X69414785Y-91985215D01*
X69388662Y-91946119D01*
X69377000Y-91887491D01*
X69377000Y-87165406D01*
X69388824Y-87106395D01*
X69415288Y-87067145D01*
X69454832Y-87041121D01*
X69513970Y-87029958D01*
X77938954Y-87124091D01*
M02*
