M48
; DRILL file {KiCad (5.1.5)-3} date 2020-02-07 7:54:34 PM
; FORMAT={-:-/ absolute / inch / decimal}
; #@! TF.CreationDate,2020-02-07T19:54:34-03:30
; #@! TF.GenerationSoftware,Kicad,Pcbnew,(5.1.5)-3
; #@! TF.FileFunction,Plated,1,4,PTH
FMAT,2
INCH
T1C0.0118
T2C0.0157
T3C0.0197
T4C0.0394
T5C0.0430
T6C0.1181
T7C0.1772
%
G90
G05
T1
X0.75Y-3.7579
X0.7677Y-4.7835
X0.815Y-4.8583
X0.8228Y-4.9528
X0.8701Y-4.878
X0.8701Y-4.9252
X0.8819Y-4.622
X0.8819Y-4.6614
X0.9011Y-4.9252
X0.9016Y-4.878
X0.9114Y-3.8898
X0.9134Y-3.6909
X0.9134Y-3.8406
X0.9601Y-4.9154
X0.9685Y-4.8622
X1.0039Y-4.0728
X1.0059Y-4.8976
X1.0157Y-4.6929
X1.0217Y-4.7835
X1.0256Y-3.7559
X1.0256Y-3.8583
X1.0394Y-4.8976
X1.0591Y-3.9193
X1.0597Y-3.8642
X1.0748Y-4.6535
X1.075Y-4.7005
X1.0866Y-4.8878
X1.0886Y-4.8051
X1.1024Y-3.8917
X1.1142Y-4.6535
X1.1142Y-4.7008
X1.124Y-3.8484
X1.1614Y-4.7835
X1.1614Y-4.815
X1.1614Y-4.8917
X1.189Y-4.7047
X1.1969Y-4.6457
X1.1969Y-4.8937
X1.2244Y-4.8386
X1.2283Y-4.939
X1.2382Y-4.8957
X1.252Y-4.7874
X1.2795Y-4.7008
X1.2795Y-4.7362
X1.2874Y-4.7913
X1.2943Y-5.0394
X1.3268Y-3.876
X1.3287Y-4.1255
X1.3445Y-4.8661
X1.3445Y-4.9272
X1.3878Y-5.0236
X1.3878Y-5.0591
X1.3976Y-4.8661
X1.3976Y-4.9272
X1.4252Y-3.8661
X1.4291Y-3.3248
X1.439Y-4.6831
X1.4767Y-4.898
X1.4803Y-4.6831
X1.5059Y-3.2441
X1.5059Y-3.2736
X1.5453Y-4.9685
X1.5768Y-5.0039
X1.6063Y-4.8819
X1.622Y-3.2421
X1.622Y-3.2717
X1.6398Y-4.8346
X1.6398Y-4.9232
X1.689Y-4.9252
X1.7756Y-3.2421
X1.7756Y-3.2756
X1.8957Y-3.2421
X1.8957Y-3.2756
X1.8957Y-3.5256
X1.9035Y-5.0531
X1.9035Y-5.0846
X1.9662Y-3.2516
X1.9862Y-4.5394
X2.001Y-3.4445
X2.0098Y-3.3992
X2.0236Y-5.0531
X2.0236Y-5.0846
X2.065Y-3.9665
X2.0759Y-4.1276
X2.1053Y-3.4445
X2.1142Y-4.1555
X2.1161Y-3.3992
X2.1358Y-3.2933
X2.1634Y-4.0945
X2.1713Y-5.0531
X2.1713Y-5.0846
X2.1762Y-3.2506
X2.1772Y-3.9035
X2.185Y-4.0138
X2.185Y-4.0571
X2.189Y-3.9508
X2.2096Y-3.4435
X2.2224Y-3.3982
X2.2477Y-4.2495
X2.252Y-3.9075
X2.2618Y-4.1378
X2.2776Y-3.6988
X2.2776Y-3.7992
X2.2913Y-3.9134
X2.2913Y-3.9528
X2.2913Y-3.9902
X2.2913Y-4.0276
X2.2913Y-5.0531
X2.2913Y-5.0846
X2.3031Y-4.2598
X2.314Y-3.4435
X2.3287Y-3.3982
X2.332Y-4.2595
X2.3366Y-4.1398
X2.3504Y-3.2894
X2.3598Y-4.2604
X2.3755Y-3.8045
X2.3829Y-3.9474
X2.3839Y-4.0079
X2.3878Y-4.2598
X2.4055Y-3.5669
X2.4134Y-4.0512
X2.4213Y-3.8189
X2.4409Y-4.2657
X2.4488Y-3.878
X2.4577Y-3.9754
X2.4587Y-3.5881
X2.4626Y-4.3799
X2.4702Y-4.2936
X2.4823Y-3.8563
X2.4902Y-4.4016
X2.4921Y-3.9764
X2.5003Y-4.0552
X2.5039Y-4.0827
X2.5138Y-3.6437
X2.5157Y-4.4232
X2.5374Y-3.6083
X2.5413Y-4.3878
X2.5433Y-4.3189
X2.6614Y-3.8976
X2.685Y-3.6201
X2.6909Y-3.7677
X2.7406Y-3.7965
X2.7484Y-3.5811
X2.75Y-3.4685
X2.75Y-3.5177
X2.7717Y-3.5453
X2.7813Y-3.453
X2.8081Y-3.5817
X2.8252Y-3.453
X2.8268Y-3.4843
X2.8287Y-3.5315
X2.844Y-3.923
X2.8563Y-3.7736
X2.878Y-3.6516
X2.8799Y-3.4429
X2.8799Y-3.5256
X2.8799Y-3.6102
X2.9252Y-3.4429
X2.9252Y-3.4941
X2.9252Y-3.5551
X2.9409Y-3.6083
X2.9661Y-4.3047
X2.9724Y-3.4429
X2.9724Y-3.4843
X2.9843Y-3.5551
X2.9965Y-3.6386
X3.002Y-3.6102
X3.0098Y-4.3051
X3.0138Y-3.5059
X3.0453Y-3.5512
X3.0476Y-4.3047
X3.061Y-3.4429
X3.061Y-3.498
X3.061Y-3.6102
X3.0909Y-4.3047
X3.1297Y-4.3047
X3.1705Y-3.7134
X3.1744Y-4.3047
X3.239Y-4.4295
X3.2421Y-3.7618
X3.2437Y-3.6472
X3.2516Y-3.8209
X3.2626Y-4.4815
X3.2743Y-4.3816
X3.2763Y-4.0481
X3.2776Y-3.796
X3.2795Y-3.7556
X3.2958Y-4.1255
X3.2961Y-4.0677
X3.2975Y-4.0979
X3.2992Y-4.435
X3.3346Y-4.5335
X3.3346Y-4.5748
X3.3346Y-4.6201
X3.3406Y-4.1811
X3.3406Y-4.2224
X3.3406Y-4.2677
X3.3425Y-3.8287
X3.3425Y-3.8701
X3.3425Y-3.9154
X3.3681Y-4.5531
X3.3681Y-4.5984
X3.3681Y-4.6417
X3.374Y-4.2008
X3.374Y-4.2461
X3.374Y-4.2894
X3.376Y-3.8484
X3.376Y-3.8937
X3.376Y-3.937
X3.3917Y-4.3524
X3.3937Y-3.624
X3.3937Y-3.6614
X3.3937Y-4.3957
X3.3976Y-4.622
X3.3996Y-4.5748
X3.4016Y-4.0
X3.4016Y-4.0354
X3.4016Y-4.5315
X3.4055Y-3.8287
X3.4055Y-3.8701
X3.4055Y-3.9154
X3.4055Y-4.1831
X3.4055Y-4.2205
X3.4055Y-4.2677
X3.4252Y-3.624
X3.4252Y-3.6614
X3.4272Y-4.3524
X3.4272Y-4.3957
X3.4272Y-4.6417
X3.4291Y-3.8484
X3.4291Y-3.8937
X3.4291Y-3.937
X3.4291Y-4.1988
X3.4291Y-4.2461
X3.4291Y-4.2854
X3.4291Y-4.6004
X3.4311Y-4.5531
X3.4331Y-4.0
X3.4331Y-4.0335
X3.5315Y-4.1614
X3.5315Y-4.5138
X3.5354Y-3.8051
X3.5748Y-4.3504
X3.5768Y-3.6437
X3.5768Y-3.998
X3.5768Y-4.3957
X3.5768Y-4.4469
X3.5787Y-4.4843
X3.5807Y-3.687
X3.5807Y-3.7795
X3.5807Y-4.0394
X3.5807Y-4.0925
X3.5807Y-4.1339
X3.5827Y-3.7343
X3.6004Y-3.624
X3.6004Y-3.6634
X3.6004Y-3.7106
X3.6004Y-3.7559
X3.6004Y-3.9783
X3.6004Y-4.0157
X3.6004Y-4.0669
X3.6004Y-4.1122
X3.6004Y-4.372
X3.6024Y-4.3307
X3.6024Y-4.4173
X3.6043Y-4.4646
X3.7362Y-4.1575
X3.7382Y-3.8012
X3.7421Y-4.5079
X3.7559Y-5.0433
X3.7795Y-5.0433
X3.8031Y-5.0433
X2.8827Y-3.9543
X2.8827Y-3.9937
X2.8827Y-4.0331
X2.8827Y-4.0724
X2.8827Y-4.1118
X2.922Y-3.9543
X2.922Y-3.9937
X2.922Y-4.0331
X2.922Y-4.0724
X2.922Y-4.1118
X2.9614Y-3.9543
X2.9614Y-3.9937
X2.9614Y-4.0331
X2.9614Y-4.0724
X2.9614Y-4.1118
X3.0008Y-3.9543
X3.0008Y-3.9937
X3.0008Y-4.0331
X3.0008Y-4.0724
X3.0008Y-4.1118
X3.0402Y-3.9543
X3.0402Y-3.9937
X3.0402Y-4.0331
X3.0402Y-4.0724
X3.0402Y-4.1118
T2
X2.1299Y-4.5748
X2.1909Y-4.5531
X2.2087Y-4.66
X2.2598Y-4.5827
X2.3165Y-4.5512
X2.3425Y-4.689
X2.378Y-3.6614
X2.3898Y-4.5787
X2.4331Y-3.7219
X2.5217Y-3.2854
X2.5892Y-3.3181
X2.6638Y-3.3189
X2.7933Y-3.8681
X2.8051Y-4.1969
X2.8694Y-4.2598
X2.8846Y-3.1831
X2.9055Y-4.1453
X2.9126Y-3.9167
X2.9764Y-3.3701
X2.9807Y-4.9567
X2.9811Y-4.8488
X2.9823Y-4.7323
X2.9843Y-4.6142
X3.0366Y-4.952
X3.037Y-4.8402
X3.0386Y-4.7272
X3.0429Y-4.6122
X3.1142Y-3.4724
X3.5827Y-4.7008
X3.8583Y-3.563
X3.8583Y-3.622
X3.8583Y-3.6811
X3.8583Y-3.7402
X3.8583Y-3.7992
X3.8583Y-3.9173
X3.8583Y-3.9764
X3.8583Y-4.0354
X3.8583Y-4.0945
X3.8583Y-4.1535
X3.8583Y-4.2717
X3.8583Y-4.3307
X3.8583Y-4.3898
X3.8583Y-4.4488
X3.8583Y-4.5079
X3.9067Y-3.4476
X3.9173Y-3.563
X3.9173Y-3.622
X3.9173Y-3.6811
X3.9173Y-3.7402
X3.9173Y-3.7992
X3.9173Y-3.9173
X3.9173Y-3.9764
X3.9173Y-4.0354
X3.9173Y-4.0945
X3.9173Y-4.1535
X3.9173Y-4.2717
X3.9173Y-4.3307
X3.9173Y-4.3898
X3.9173Y-4.4488
X3.9173Y-4.5079
X3.9764Y-3.563
X3.9764Y-3.622
X3.9764Y-3.6811
X3.9764Y-3.7402
X3.9764Y-3.7992
X3.9764Y-3.9173
X3.9764Y-3.9764
X3.9764Y-4.0354
X3.9764Y-4.0945
X3.9764Y-4.1535
X3.9764Y-4.2717
X3.9764Y-4.3307
X3.9764Y-4.3898
X3.9764Y-4.4488
X3.9764Y-4.5079
X4.0354Y-3.563
X4.0354Y-3.622
X4.0354Y-3.6811
X4.0354Y-3.7402
X4.0354Y-3.7992
X4.0354Y-3.9173
X4.0354Y-3.9764
X4.0354Y-4.0354
X4.0354Y-4.0945
X4.0354Y-4.1535
X4.0354Y-4.2717
X4.0354Y-4.3307
X4.0354Y-4.3898
X4.0354Y-4.4488
X4.0354Y-4.5079
X4.0945Y-3.563
X4.0945Y-3.622
X4.0945Y-3.6811
X4.0945Y-3.7402
X4.0945Y-3.7992
X4.0945Y-3.9173
X4.0945Y-3.9764
X4.0945Y-4.0354
X4.0945Y-4.0945
X4.0945Y-4.1535
X4.0945Y-4.2717
X4.0945Y-4.3307
X4.0945Y-4.3898
X4.0945Y-4.4488
X4.0945Y-4.5079
X4.1535Y-3.563
X4.1535Y-3.622
X4.1535Y-3.6811
X4.1535Y-3.7402
X4.1535Y-3.7992
X4.1535Y-3.9173
X4.1535Y-3.9764
X4.1535Y-4.0354
X4.1535Y-4.0945
X4.1535Y-4.1535
X4.1535Y-4.2717
X4.1535Y-4.3307
X4.1535Y-4.3898
X4.1535Y-4.4488
X4.1535Y-4.5079
X4.2126Y-3.563
X4.2126Y-3.622
X4.2126Y-3.6811
X4.2126Y-3.7402
X4.2126Y-3.7992
X4.2126Y-3.9173
X4.2126Y-3.9764
X4.2126Y-4.0354
X4.2126Y-4.0945
X4.2126Y-4.1535
X4.2126Y-4.2717
X4.2126Y-4.3307
X4.2126Y-4.3898
X4.2126Y-4.4488
X4.2126Y-4.5079
X4.2717Y-3.563
X4.2717Y-3.622
X4.2717Y-3.6811
X4.2717Y-3.7402
X4.2717Y-3.7992
X4.2717Y-3.9173
X4.2717Y-3.9764
X4.2717Y-4.0354
X4.2717Y-4.0945
X4.2717Y-4.1535
X4.2717Y-4.2717
X4.2717Y-4.3307
X4.2717Y-4.3898
X4.2717Y-4.4488
X4.2717Y-4.5079
X4.3307Y-3.563
X4.3307Y-3.622
X4.3307Y-3.6811
X4.3307Y-3.7402
X4.3307Y-3.7992
X4.3307Y-3.9173
X4.3307Y-3.9764
X4.3307Y-4.0354
X4.3307Y-4.0945
X4.3307Y-4.1535
X4.3307Y-4.2717
X4.3307Y-4.3307
X4.3307Y-4.3898
X4.3307Y-4.4488
X4.3307Y-4.5079
T3
X0.2835Y-4.9606
X0.3094Y-4.898
X0.3094Y-5.0233
X0.372Y-4.872
X0.372Y-5.0492
X0.4347Y-4.898
X0.4347Y-5.0233
X0.4606Y-4.9606
X0.2874Y-3.2185
X0.3133Y-3.1559
X0.3133Y-3.2811
X0.376Y-3.1299
X0.376Y-3.3071
X0.4386Y-3.1559
X0.4386Y-3.2811
X0.4646Y-3.2185
X4.124Y-4.9606
X4.15Y-4.898
X4.15Y-5.0233
X4.2126Y-4.872
X4.2126Y-5.0492
X4.2752Y-4.898
X4.2752Y-5.0233
X4.3012Y-4.9606
X4.124Y-3.2283
X4.15Y-3.1657
X4.15Y-3.291
X4.2126Y-3.1398
X4.2126Y-3.3169
X4.2752Y-3.1657
X4.2752Y-3.291
X4.3012Y-3.2283
T4
X1.222Y-3.9205
X1.2207Y-3.6535
X2.6575Y-3.5177
X0.675Y-4.0026
X2.7594Y-4.4752
X0.9203Y-4.7333
X3.9854Y-4.6472
X0.675Y-3.8608
X2.612Y-4.3352
X0.6122Y-4.8622
X1.9134Y-3.8593
X1.0571Y-4.9931
X1.2207Y-3.5177
X2.612Y-4.0843
X2.1919Y-4.3927
X2.611Y-3.9593
X2.065Y-4.3927
X1.6624Y-4.6919
X1.0295Y-4.5374
X3.8409Y-4.6472
X0.6122Y-5.0108
X0.8087Y-3.3146
X1.9134Y-4.247
X2.613Y-3.7093
X1.9134Y-3.9862
X1.5433Y-4.5384
X4.1303Y-4.6469
X3.9059Y-3.1394
X1.2913Y-4.5384
X2.5157Y-3.5197
X1.9134Y-4.3898
X2.612Y-3.8343
X2.612Y-4.2102
X1.2217Y-3.787
X0.8819Y-4.5374
X1.0768Y-3.3142
X0.3122Y-3.5835
X0.3122Y-3.6835
X0.3122Y-3.7835
X0.3122Y-3.8835
X0.3122Y-3.9835
X0.4122Y-3.5835
X0.4122Y-3.6835
X0.4122Y-3.7835
X0.4122Y-3.8835
X0.4122Y-3.9835
X1.1614Y-4.5384
X1.2224Y-4.0394
X2.3169Y-4.3927
X4.2764Y-4.6484
X1.9134Y-4.1122
X4.0417Y-3.4228
X1.4163Y-4.5384
X2.6098Y-4.474
T5
X0.7016Y-4.3409
X0.7016Y-4.4409
X0.7016Y-4.5409
T6
X0.372Y-4.9606
X0.376Y-3.2185
X4.2126Y-4.9606
X4.2126Y-3.2283
T7
X3.3701Y-3.2323
X3.6535Y-3.2323
T0
M30
