G04 #@! TF.GenerationSoftware,KiCad,Pcbnew,(5.1.5)-3*
G04 #@! TF.CreationDate,2020-02-07T19:54:23-03:30*
G04 #@! TF.ProjectId,MCU_Powertrain,4d43555f-506f-4776-9572-747261696e2e,rev?*
G04 #@! TF.SameCoordinates,Original*
G04 #@! TF.FileFunction,Legend,Top*
G04 #@! TF.FilePolarity,Positive*
%FSLAX46Y46*%
G04 Gerber Fmt 4.6, Leading zero omitted, Abs format (unit mm)*
G04 Created by KiCad (PCBNEW (5.1.5)-3) date 2020-02-07 19:54:23*
%MOMM*%
%LPD*%
G04 APERTURE LIST*
%ADD10C,0.125000*%
%ADD11C,0.150000*%
%ADD12C,0.250000*%
%ADD13C,0.120000*%
%ADD14C,0.254000*%
%ADD15C,0.100000*%
%ADD16C,0.300000*%
%ADD17C,0.127000*%
%ADD18C,0.250173*%
G04 APERTURE END LIST*
D10*
X31154761Y-119251190D02*
X30916666Y-119251190D01*
X30892857Y-119489285D01*
X30916666Y-119465476D01*
X30964285Y-119441666D01*
X31083333Y-119441666D01*
X31130952Y-119465476D01*
X31154761Y-119489285D01*
X31178571Y-119536904D01*
X31178571Y-119655952D01*
X31154761Y-119703571D01*
X31130952Y-119727380D01*
X31083333Y-119751190D01*
X30964285Y-119751190D01*
X30916666Y-119727380D01*
X30892857Y-119703571D01*
X31321428Y-119251190D02*
X31488095Y-119751190D01*
X31654761Y-119251190D01*
X66905952Y-91126190D02*
X67215476Y-91126190D01*
X67048809Y-91316666D01*
X67120238Y-91316666D01*
X67167857Y-91340476D01*
X67191666Y-91364285D01*
X67215476Y-91411904D01*
X67215476Y-91530952D01*
X67191666Y-91578571D01*
X67167857Y-91602380D01*
X67120238Y-91626190D01*
X66977380Y-91626190D01*
X66929761Y-91602380D01*
X66905952Y-91578571D01*
X67358333Y-91126190D02*
X67525000Y-91626190D01*
X67691666Y-91126190D01*
X67810714Y-91126190D02*
X68120238Y-91126190D01*
X67953571Y-91316666D01*
X68025000Y-91316666D01*
X68072619Y-91340476D01*
X68096428Y-91364285D01*
X68120238Y-91411904D01*
X68120238Y-91530952D01*
X68096428Y-91578571D01*
X68072619Y-91602380D01*
X68025000Y-91626190D01*
X67882142Y-91626190D01*
X67834523Y-91602380D01*
X67810714Y-91578571D01*
X60769047Y-89075000D02*
X60721428Y-89051190D01*
X60650000Y-89051190D01*
X60578571Y-89075000D01*
X60530952Y-89122619D01*
X60507142Y-89170238D01*
X60483333Y-89265476D01*
X60483333Y-89336904D01*
X60507142Y-89432142D01*
X60530952Y-89479761D01*
X60578571Y-89527380D01*
X60650000Y-89551190D01*
X60697619Y-89551190D01*
X60769047Y-89527380D01*
X60792857Y-89503571D01*
X60792857Y-89336904D01*
X60697619Y-89336904D01*
X61007142Y-89551190D02*
X61007142Y-89051190D01*
X61292857Y-89551190D01*
X61292857Y-89051190D01*
X61530952Y-89551190D02*
X61530952Y-89051190D01*
X61650000Y-89051190D01*
X61721428Y-89075000D01*
X61769047Y-89122619D01*
X61792857Y-89170238D01*
X61816666Y-89265476D01*
X61816666Y-89336904D01*
X61792857Y-89432142D01*
X61769047Y-89479761D01*
X61721428Y-89527380D01*
X61650000Y-89551190D01*
X61530952Y-89551190D01*
D11*
X70960714Y-130189285D02*
X70960714Y-129439285D01*
X71210714Y-129975000D01*
X71460714Y-129439285D01*
X71460714Y-130189285D01*
X72139285Y-130189285D02*
X72139285Y-129796428D01*
X72103571Y-129725000D01*
X72032142Y-129689285D01*
X71889285Y-129689285D01*
X71817857Y-129725000D01*
X72139285Y-130153571D02*
X72067857Y-130189285D01*
X71889285Y-130189285D01*
X71817857Y-130153571D01*
X71782142Y-130082142D01*
X71782142Y-130010714D01*
X71817857Y-129939285D01*
X71889285Y-129903571D01*
X72067857Y-129903571D01*
X72139285Y-129867857D01*
X72496428Y-130189285D02*
X72496428Y-129689285D01*
X72496428Y-129832142D02*
X72532142Y-129760714D01*
X72567857Y-129725000D01*
X72639285Y-129689285D01*
X72710714Y-129689285D01*
X72960714Y-130189285D02*
X72960714Y-129439285D01*
X73032142Y-129903571D02*
X73246428Y-130189285D01*
X73246428Y-129689285D02*
X72960714Y-129975000D01*
X74389285Y-129796428D02*
X74496428Y-129832142D01*
X74532142Y-129867857D01*
X74567857Y-129939285D01*
X74567857Y-130046428D01*
X74532142Y-130117857D01*
X74496428Y-130153571D01*
X74425000Y-130189285D01*
X74139285Y-130189285D01*
X74139285Y-129439285D01*
X74389285Y-129439285D01*
X74460714Y-129475000D01*
X74496428Y-129510714D01*
X74532142Y-129582142D01*
X74532142Y-129653571D01*
X74496428Y-129725000D01*
X74460714Y-129760714D01*
X74389285Y-129796428D01*
X74139285Y-129796428D01*
X75175000Y-130153571D02*
X75103571Y-130189285D01*
X74960714Y-130189285D01*
X74889285Y-130153571D01*
X74853571Y-130082142D01*
X74853571Y-129796428D01*
X74889285Y-129725000D01*
X74960714Y-129689285D01*
X75103571Y-129689285D01*
X75175000Y-129725000D01*
X75210714Y-129796428D01*
X75210714Y-129867857D01*
X74853571Y-129939285D01*
X75639285Y-130189285D02*
X75567857Y-130153571D01*
X75532142Y-130082142D01*
X75532142Y-129439285D01*
X75925000Y-130189285D02*
X75925000Y-129439285D01*
X75925000Y-129725000D02*
X75996428Y-129689285D01*
X76139285Y-129689285D01*
X76210714Y-129725000D01*
X76246428Y-129760714D01*
X76282142Y-129832142D01*
X76282142Y-130046428D01*
X76246428Y-130117857D01*
X76210714Y-130153571D01*
X76139285Y-130189285D01*
X75996428Y-130189285D01*
X75925000Y-130153571D01*
X76603571Y-130189285D02*
X76603571Y-129689285D01*
X76603571Y-129439285D02*
X76567857Y-129475000D01*
X76603571Y-129510714D01*
X76639285Y-129475000D01*
X76603571Y-129439285D01*
X76603571Y-129510714D01*
X76960714Y-129689285D02*
X76960714Y-130189285D01*
X76960714Y-129760714D02*
X76996428Y-129725000D01*
X77067857Y-129689285D01*
X77175000Y-129689285D01*
X77246428Y-129725000D01*
X77282142Y-129796428D01*
X77282142Y-130189285D01*
X78210714Y-129903571D02*
X78782142Y-129903571D01*
X79139285Y-129903571D02*
X79710714Y-129903571D01*
X80603571Y-129510714D02*
X80639285Y-129475000D01*
X80710714Y-129439285D01*
X80889285Y-129439285D01*
X80960714Y-129475000D01*
X80996428Y-129510714D01*
X81032142Y-129582142D01*
X81032142Y-129653571D01*
X80996428Y-129760714D01*
X80567857Y-130189285D01*
X81032142Y-130189285D01*
X81496428Y-129439285D02*
X81567857Y-129439285D01*
X81639285Y-129475000D01*
X81675000Y-129510714D01*
X81710714Y-129582142D01*
X81746428Y-129725000D01*
X81746428Y-129903571D01*
X81710714Y-130046428D01*
X81675000Y-130117857D01*
X81639285Y-130153571D01*
X81567857Y-130189285D01*
X81496428Y-130189285D01*
X81425000Y-130153571D01*
X81389285Y-130117857D01*
X81353571Y-130046428D01*
X81317857Y-129903571D01*
X81317857Y-129725000D01*
X81353571Y-129582142D01*
X81389285Y-129510714D01*
X81425000Y-129475000D01*
X81496428Y-129439285D01*
X82032142Y-129510714D02*
X82067857Y-129475000D01*
X82139285Y-129439285D01*
X82317857Y-129439285D01*
X82389285Y-129475000D01*
X82425000Y-129510714D01*
X82460714Y-129582142D01*
X82460714Y-129653571D01*
X82425000Y-129760714D01*
X81996428Y-130189285D01*
X82460714Y-130189285D01*
X82925000Y-129439285D02*
X82996428Y-129439285D01*
X83067857Y-129475000D01*
X83103571Y-129510714D01*
X83139285Y-129582142D01*
X83175000Y-129725000D01*
X83175000Y-129903571D01*
X83139285Y-130046428D01*
X83103571Y-130117857D01*
X83067857Y-130153571D01*
X82996428Y-130189285D01*
X82925000Y-130189285D01*
X82853571Y-130153571D01*
X82817857Y-130117857D01*
X82782142Y-130046428D01*
X82746428Y-129903571D01*
X82746428Y-129725000D01*
X82782142Y-129582142D01*
X82817857Y-129510714D01*
X82853571Y-129475000D01*
X82925000Y-129439285D01*
D12*
X62145833Y-127860714D02*
X61729166Y-127860714D01*
X61647321Y-128515476D02*
X61803571Y-127265476D01*
X62398809Y-127265476D01*
X63113095Y-127265476D02*
X63351190Y-127265476D01*
X63462797Y-127325000D01*
X63566964Y-127444047D01*
X63596726Y-127682142D01*
X63544642Y-128098809D01*
X63455357Y-128336904D01*
X63321428Y-128455952D01*
X63194940Y-128515476D01*
X62956845Y-128515476D01*
X62845238Y-128455952D01*
X62741071Y-128336904D01*
X62711309Y-128098809D01*
X62763392Y-127682142D01*
X62852678Y-127444047D01*
X62986607Y-127325000D01*
X63113095Y-127265476D01*
X64757440Y-128396428D02*
X64690476Y-128455952D01*
X64504464Y-128515476D01*
X64385416Y-128515476D01*
X64214285Y-128455952D01*
X64110119Y-128336904D01*
X64065476Y-128217857D01*
X64035714Y-127979761D01*
X64058035Y-127801190D01*
X64147321Y-127563095D01*
X64221726Y-127444047D01*
X64355654Y-127325000D01*
X64541666Y-127265476D01*
X64660714Y-127265476D01*
X64831845Y-127325000D01*
X64883928Y-127384523D01*
X66230654Y-128515476D02*
X66386904Y-127265476D01*
X66691964Y-128158333D01*
X67220238Y-127265476D01*
X67063988Y-128515476D01*
X67837797Y-128515476D02*
X67726190Y-128455952D01*
X67674107Y-128396428D01*
X67629464Y-128277380D01*
X67674107Y-127920238D01*
X67748511Y-127801190D01*
X67815476Y-127741666D01*
X67941964Y-127682142D01*
X68120535Y-127682142D01*
X68232142Y-127741666D01*
X68284226Y-127801190D01*
X68328869Y-127920238D01*
X68284226Y-128277380D01*
X68209821Y-128396428D01*
X68142857Y-128455952D01*
X68016369Y-128515476D01*
X67837797Y-128515476D01*
X68715773Y-127682142D02*
X69191964Y-127682142D01*
X68946428Y-127265476D02*
X68812500Y-128336904D01*
X68857142Y-128455952D01*
X68968750Y-128515476D01*
X69087797Y-128515476D01*
X69683035Y-128515476D02*
X69571428Y-128455952D01*
X69519345Y-128396428D01*
X69474702Y-128277380D01*
X69519345Y-127920238D01*
X69593750Y-127801190D01*
X69660714Y-127741666D01*
X69787202Y-127682142D01*
X69965773Y-127682142D01*
X70077380Y-127741666D01*
X70129464Y-127801190D01*
X70174107Y-127920238D01*
X70129464Y-128277380D01*
X70055059Y-128396428D01*
X69988095Y-128455952D01*
X69861607Y-128515476D01*
X69683035Y-128515476D01*
X70635416Y-128515476D02*
X70739583Y-127682142D01*
X70709821Y-127920238D02*
X70784226Y-127801190D01*
X70851190Y-127741666D01*
X70977678Y-127682142D01*
X71096726Y-127682142D01*
X73090773Y-128396428D02*
X73023809Y-128455952D01*
X72837797Y-128515476D01*
X72718750Y-128515476D01*
X72547619Y-128455952D01*
X72443452Y-128336904D01*
X72398809Y-128217857D01*
X72369047Y-127979761D01*
X72391369Y-127801190D01*
X72480654Y-127563095D01*
X72555059Y-127444047D01*
X72688988Y-127325000D01*
X72875000Y-127265476D01*
X72994047Y-127265476D01*
X73165178Y-127325000D01*
X73217261Y-127384523D01*
X73790178Y-128515476D02*
X73678571Y-128455952D01*
X73626488Y-128396428D01*
X73581845Y-128277380D01*
X73626488Y-127920238D01*
X73700892Y-127801190D01*
X73767857Y-127741666D01*
X73894345Y-127682142D01*
X74072916Y-127682142D01*
X74184523Y-127741666D01*
X74236607Y-127801190D01*
X74281250Y-127920238D01*
X74236607Y-128277380D01*
X74162202Y-128396428D01*
X74095238Y-128455952D01*
X73968750Y-128515476D01*
X73790178Y-128515476D01*
X74846726Y-127682142D02*
X74742559Y-128515476D01*
X74831845Y-127801190D02*
X74898809Y-127741666D01*
X75025297Y-127682142D01*
X75203869Y-127682142D01*
X75315476Y-127741666D01*
X75360119Y-127860714D01*
X75278273Y-128515476D01*
X75799107Y-127682142D02*
X76275297Y-127682142D01*
X76029761Y-127265476D02*
X75895833Y-128336904D01*
X75940476Y-128455952D01*
X76052083Y-128515476D01*
X76171130Y-128515476D01*
X76587797Y-128515476D02*
X76691964Y-127682142D01*
X76662202Y-127920238D02*
X76736607Y-127801190D01*
X76803571Y-127741666D01*
X76930059Y-127682142D01*
X77049107Y-127682142D01*
X77540178Y-128515476D02*
X77428571Y-128455952D01*
X77376488Y-128396428D01*
X77331845Y-128277380D01*
X77376488Y-127920238D01*
X77450892Y-127801190D01*
X77517857Y-127741666D01*
X77644345Y-127682142D01*
X77822916Y-127682142D01*
X77934523Y-127741666D01*
X77986607Y-127801190D01*
X78031250Y-127920238D01*
X77986607Y-128277380D01*
X77912202Y-128396428D01*
X77845238Y-128455952D01*
X77718750Y-128515476D01*
X77540178Y-128515476D01*
X78671130Y-128515476D02*
X78559523Y-128455952D01*
X78514880Y-128336904D01*
X78648809Y-127265476D01*
X79325892Y-128515476D02*
X79214285Y-128455952D01*
X79169642Y-128336904D01*
X79303571Y-127265476D01*
X80285714Y-128455952D02*
X80159226Y-128515476D01*
X79921130Y-128515476D01*
X79809523Y-128455952D01*
X79764880Y-128336904D01*
X79824404Y-127860714D01*
X79898809Y-127741666D01*
X80025297Y-127682142D01*
X80263392Y-127682142D01*
X80375000Y-127741666D01*
X80419642Y-127860714D01*
X80404761Y-127979761D01*
X79794642Y-128098809D01*
X80873511Y-128515476D02*
X80977678Y-127682142D01*
X80947916Y-127920238D02*
X81022321Y-127801190D01*
X81089285Y-127741666D01*
X81215773Y-127682142D01*
X81334821Y-127682142D01*
X82599702Y-128515476D02*
X82755952Y-127265476D01*
X83053571Y-127265476D01*
X83224702Y-127325000D01*
X83328869Y-127444047D01*
X83373511Y-127563095D01*
X83403273Y-127801190D01*
X83380952Y-127979761D01*
X83291666Y-128217857D01*
X83217261Y-128336904D01*
X83083333Y-128455952D01*
X82897321Y-128515476D01*
X82599702Y-128515476D01*
X84333333Y-128455952D02*
X84206845Y-128515476D01*
X83968750Y-128515476D01*
X83857142Y-128455952D01*
X83812499Y-128336904D01*
X83872023Y-127860714D01*
X83946428Y-127741666D01*
X84072916Y-127682142D01*
X84311011Y-127682142D01*
X84422619Y-127741666D01*
X84467261Y-127860714D01*
X84452380Y-127979761D01*
X83842261Y-128098809D01*
X84906249Y-127682142D02*
X85099702Y-128515476D01*
X85501488Y-127682142D01*
X85888392Y-128396428D02*
X85940476Y-128455952D01*
X85873511Y-128515476D01*
X85821428Y-128455952D01*
X85888392Y-128396428D01*
X85873511Y-128515476D01*
X87919642Y-127860714D02*
X88090773Y-127920238D01*
X88142857Y-127979761D01*
X88187499Y-128098809D01*
X88165178Y-128277380D01*
X88090773Y-128396428D01*
X88023809Y-128455952D01*
X87897321Y-128515476D01*
X87421130Y-128515476D01*
X87577380Y-127265476D01*
X87994047Y-127265476D01*
X88105654Y-127325000D01*
X88157738Y-127384523D01*
X88202380Y-127503571D01*
X88187499Y-127622619D01*
X88113095Y-127741666D01*
X88046130Y-127801190D01*
X87919642Y-127860714D01*
X87502976Y-127860714D01*
X88849702Y-128515476D02*
X88738095Y-128455952D01*
X88686011Y-128396428D01*
X88641369Y-128277380D01*
X88686011Y-127920238D01*
X88760416Y-127801190D01*
X88827380Y-127741666D01*
X88953869Y-127682142D01*
X89132440Y-127682142D01*
X89244047Y-127741666D01*
X89296130Y-127801190D01*
X89340773Y-127920238D01*
X89296130Y-128277380D01*
X89221726Y-128396428D01*
X89154761Y-128455952D01*
X89028273Y-128515476D01*
X88849702Y-128515476D01*
X90337797Y-128515476D02*
X90419642Y-127860714D01*
X90374999Y-127741666D01*
X90263392Y-127682142D01*
X90025297Y-127682142D01*
X89898809Y-127741666D01*
X90345238Y-128455952D02*
X90218749Y-128515476D01*
X89921130Y-128515476D01*
X89809523Y-128455952D01*
X89764880Y-128336904D01*
X89779761Y-128217857D01*
X89854166Y-128098809D01*
X89980654Y-128039285D01*
X90278273Y-128039285D01*
X90404761Y-127979761D01*
X90933035Y-128515476D02*
X91037202Y-127682142D01*
X91007440Y-127920238D02*
X91081845Y-127801190D01*
X91148809Y-127741666D01*
X91275297Y-127682142D01*
X91394345Y-127682142D01*
X92242559Y-128515476D02*
X92398809Y-127265476D01*
X92249999Y-128455952D02*
X92123511Y-128515476D01*
X91885416Y-128515476D01*
X91773809Y-128455952D01*
X91721726Y-128396428D01*
X91677083Y-128277380D01*
X91721726Y-127920238D01*
X91796130Y-127801190D01*
X91863095Y-127741666D01*
X91989583Y-127682142D01*
X92227678Y-127682142D01*
X92339285Y-127741666D01*
D10*
X17392857Y-107792857D02*
X17357142Y-107828571D01*
X17249999Y-107864285D01*
X17178571Y-107864285D01*
X17071428Y-107828571D01*
X16999999Y-107757142D01*
X16964285Y-107685714D01*
X16928571Y-107542857D01*
X16928571Y-107435714D01*
X16964285Y-107292857D01*
X16999999Y-107221428D01*
X17071428Y-107150000D01*
X17178571Y-107114285D01*
X17249999Y-107114285D01*
X17357142Y-107150000D01*
X17392857Y-107185714D01*
X17678571Y-107650000D02*
X18035714Y-107650000D01*
X17607142Y-107864285D02*
X17857142Y-107114285D01*
X18107142Y-107864285D01*
X18357142Y-107864285D02*
X18357142Y-107114285D01*
X18785714Y-107864285D01*
X18785714Y-107114285D01*
X19392857Y-107471428D02*
X19499999Y-107507142D01*
X19535714Y-107542857D01*
X19571428Y-107614285D01*
X19571428Y-107721428D01*
X19535714Y-107792857D01*
X19499999Y-107828571D01*
X19428571Y-107864285D01*
X19142857Y-107864285D01*
X19142857Y-107114285D01*
X19392857Y-107114285D01*
X19464285Y-107150000D01*
X19499999Y-107185714D01*
X19535714Y-107257142D01*
X19535714Y-107328571D01*
X19499999Y-107400000D01*
X19464285Y-107435714D01*
X19392857Y-107471428D01*
X19142857Y-107471428D01*
X19892857Y-107114285D02*
X19892857Y-107721428D01*
X19928571Y-107792857D01*
X19964285Y-107828571D01*
X20035714Y-107864285D01*
X20178571Y-107864285D01*
X20249999Y-107828571D01*
X20285714Y-107792857D01*
X20321428Y-107721428D01*
X20321428Y-107114285D01*
X20642857Y-107828571D02*
X20749999Y-107864285D01*
X20928571Y-107864285D01*
X20999999Y-107828571D01*
X21035714Y-107792857D01*
X21071428Y-107721428D01*
X21071428Y-107650000D01*
X21035714Y-107578571D01*
X20999999Y-107542857D01*
X20928571Y-107507142D01*
X20785714Y-107471428D01*
X20714285Y-107435714D01*
X20678571Y-107400000D01*
X20642857Y-107328571D01*
X20642857Y-107257142D01*
X20678571Y-107185714D01*
X20714285Y-107150000D01*
X20785714Y-107114285D01*
X20964285Y-107114285D01*
X21071428Y-107150000D01*
X20152380Y-113003571D02*
X20128571Y-113027380D01*
X20057142Y-113051190D01*
X20009523Y-113051190D01*
X19938095Y-113027380D01*
X19890476Y-112979761D01*
X19866666Y-112932142D01*
X19842857Y-112836904D01*
X19842857Y-112765476D01*
X19866666Y-112670238D01*
X19890476Y-112622619D01*
X19938095Y-112575000D01*
X20009523Y-112551190D01*
X20057142Y-112551190D01*
X20128571Y-112575000D01*
X20152380Y-112598809D01*
X20604761Y-113051190D02*
X20366666Y-113051190D01*
X20366666Y-112551190D01*
X20094047Y-110050000D02*
X20046428Y-110026190D01*
X19975000Y-110026190D01*
X19903571Y-110050000D01*
X19855952Y-110097619D01*
X19832142Y-110145238D01*
X19808333Y-110240476D01*
X19808333Y-110311904D01*
X19832142Y-110407142D01*
X19855952Y-110454761D01*
X19903571Y-110502380D01*
X19975000Y-110526190D01*
X20022619Y-110526190D01*
X20094047Y-110502380D01*
X20117857Y-110478571D01*
X20117857Y-110311904D01*
X20022619Y-110311904D01*
X20332142Y-110526190D02*
X20332142Y-110026190D01*
X20617857Y-110526190D01*
X20617857Y-110026190D01*
X20855952Y-110526190D02*
X20855952Y-110026190D01*
X20975000Y-110026190D01*
X21046428Y-110050000D01*
X21094047Y-110097619D01*
X21117857Y-110145238D01*
X21141666Y-110240476D01*
X21141666Y-110311904D01*
X21117857Y-110407142D01*
X21094047Y-110454761D01*
X21046428Y-110502380D01*
X20975000Y-110526190D01*
X20855952Y-110526190D01*
X20067857Y-115603571D02*
X20044047Y-115627380D01*
X19972619Y-115651190D01*
X19925000Y-115651190D01*
X19853571Y-115627380D01*
X19805952Y-115579761D01*
X19782142Y-115532142D01*
X19758333Y-115436904D01*
X19758333Y-115365476D01*
X19782142Y-115270238D01*
X19805952Y-115222619D01*
X19853571Y-115175000D01*
X19925000Y-115151190D01*
X19972619Y-115151190D01*
X20044047Y-115175000D01*
X20067857Y-115198809D01*
X20282142Y-115651190D02*
X20282142Y-115151190D01*
X20282142Y-115389285D02*
X20567857Y-115389285D01*
X20567857Y-115651190D02*
X20567857Y-115151190D01*
X107852380Y-120351190D02*
X107852380Y-119851190D01*
X108042857Y-119851190D01*
X108090476Y-119875000D01*
X108114285Y-119898809D01*
X108138095Y-119946428D01*
X108138095Y-120017857D01*
X108114285Y-120065476D01*
X108090476Y-120089285D01*
X108042857Y-120113095D01*
X107852380Y-120113095D01*
X108352380Y-120351190D02*
X108352380Y-119851190D01*
X108352380Y-120089285D02*
X108638095Y-120089285D01*
X108638095Y-120351190D02*
X108638095Y-119851190D01*
X108757142Y-120398809D02*
X109138095Y-120398809D01*
X109233333Y-120208333D02*
X109471428Y-120208333D01*
X109185714Y-120351190D02*
X109352380Y-119851190D01*
X109519047Y-120351190D01*
X104066666Y-120326190D02*
X104066666Y-119826190D01*
X104257142Y-119826190D01*
X104304761Y-119850000D01*
X104328571Y-119873809D01*
X104352380Y-119921428D01*
X104352380Y-119992857D01*
X104328571Y-120040476D01*
X104304761Y-120064285D01*
X104257142Y-120088095D01*
X104066666Y-120088095D01*
X104566666Y-120326190D02*
X104566666Y-119826190D01*
X104566666Y-120064285D02*
X104852380Y-120064285D01*
X104852380Y-120326190D02*
X104852380Y-119826190D01*
X104971428Y-120373809D02*
X105352380Y-120373809D01*
X105638095Y-120064285D02*
X105709523Y-120088095D01*
X105733333Y-120111904D01*
X105757142Y-120159523D01*
X105757142Y-120230952D01*
X105733333Y-120278571D01*
X105709523Y-120302380D01*
X105661904Y-120326190D01*
X105471428Y-120326190D01*
X105471428Y-119826190D01*
X105638095Y-119826190D01*
X105685714Y-119850000D01*
X105709523Y-119873809D01*
X105733333Y-119921428D01*
X105733333Y-119969047D01*
X105709523Y-120016666D01*
X105685714Y-120040476D01*
X105638095Y-120064285D01*
X105471428Y-120064285D01*
X100366666Y-120251190D02*
X100366666Y-119751190D01*
X100557142Y-119751190D01*
X100604761Y-119775000D01*
X100628571Y-119798809D01*
X100652380Y-119846428D01*
X100652380Y-119917857D01*
X100628571Y-119965476D01*
X100604761Y-119989285D01*
X100557142Y-120013095D01*
X100366666Y-120013095D01*
X100866666Y-120251190D02*
X100866666Y-119751190D01*
X100866666Y-119989285D02*
X101152380Y-119989285D01*
X101152380Y-120251190D02*
X101152380Y-119751190D01*
X101271428Y-120298809D02*
X101652380Y-120298809D01*
X102057142Y-120203571D02*
X102033333Y-120227380D01*
X101961904Y-120251190D01*
X101914285Y-120251190D01*
X101842857Y-120227380D01*
X101795238Y-120179761D01*
X101771428Y-120132142D01*
X101747619Y-120036904D01*
X101747619Y-119965476D01*
X101771428Y-119870238D01*
X101795238Y-119822619D01*
X101842857Y-119775000D01*
X101914285Y-119751190D01*
X101961904Y-119751190D01*
X102033333Y-119775000D01*
X102057142Y-119798809D01*
X97169047Y-119825000D02*
X97121428Y-119801190D01*
X97050000Y-119801190D01*
X96978571Y-119825000D01*
X96930952Y-119872619D01*
X96907142Y-119920238D01*
X96883333Y-120015476D01*
X96883333Y-120086904D01*
X96907142Y-120182142D01*
X96930952Y-120229761D01*
X96978571Y-120277380D01*
X97050000Y-120301190D01*
X97097619Y-120301190D01*
X97169047Y-120277380D01*
X97192857Y-120253571D01*
X97192857Y-120086904D01*
X97097619Y-120086904D01*
X97407142Y-120301190D02*
X97407142Y-119801190D01*
X97692857Y-120301190D01*
X97692857Y-119801190D01*
X97930952Y-120301190D02*
X97930952Y-119801190D01*
X98050000Y-119801190D01*
X98121428Y-119825000D01*
X98169047Y-119872619D01*
X98192857Y-119920238D01*
X98216666Y-120015476D01*
X98216666Y-120086904D01*
X98192857Y-120182142D01*
X98169047Y-120229761D01*
X98121428Y-120277380D01*
X98050000Y-120301190D01*
X97930952Y-120301190D01*
X68580952Y-115927380D02*
X68652380Y-115951190D01*
X68771428Y-115951190D01*
X68819047Y-115927380D01*
X68842857Y-115903571D01*
X68866666Y-115855952D01*
X68866666Y-115808333D01*
X68842857Y-115760714D01*
X68819047Y-115736904D01*
X68771428Y-115713095D01*
X68676190Y-115689285D01*
X68628571Y-115665476D01*
X68604761Y-115641666D01*
X68580952Y-115594047D01*
X68580952Y-115546428D01*
X68604761Y-115498809D01*
X68628571Y-115475000D01*
X68676190Y-115451190D01*
X68795238Y-115451190D01*
X68866666Y-115475000D01*
X69080952Y-115951190D02*
X69080952Y-115451190D01*
X69271428Y-115451190D01*
X69319047Y-115475000D01*
X69342857Y-115498809D01*
X69366666Y-115546428D01*
X69366666Y-115617857D01*
X69342857Y-115665476D01*
X69319047Y-115689285D01*
X69271428Y-115713095D01*
X69080952Y-115713095D01*
X69580952Y-115951190D02*
X69580952Y-115451190D01*
X69700000Y-115998809D02*
X70080952Y-115998809D01*
X70485714Y-115903571D02*
X70461904Y-115927380D01*
X70390476Y-115951190D01*
X70342857Y-115951190D01*
X70271428Y-115927380D01*
X70223809Y-115879761D01*
X70200000Y-115832142D01*
X70176190Y-115736904D01*
X70176190Y-115665476D01*
X70200000Y-115570238D01*
X70223809Y-115522619D01*
X70271428Y-115475000D01*
X70342857Y-115451190D01*
X70390476Y-115451190D01*
X70461904Y-115475000D01*
X70485714Y-115498809D01*
X70676190Y-115927380D02*
X70747619Y-115951190D01*
X70866666Y-115951190D01*
X70914285Y-115927380D01*
X70938095Y-115903571D01*
X70961904Y-115855952D01*
X70961904Y-115808333D01*
X70938095Y-115760714D01*
X70914285Y-115736904D01*
X70866666Y-115713095D01*
X70771428Y-115689285D01*
X70723809Y-115665476D01*
X70700000Y-115641666D01*
X70676190Y-115594047D01*
X70676190Y-115546428D01*
X70700000Y-115498809D01*
X70723809Y-115475000D01*
X70771428Y-115451190D01*
X70890476Y-115451190D01*
X70961904Y-115475000D01*
X71057142Y-115998809D02*
X71438095Y-115998809D01*
X71652380Y-115451190D02*
X71700000Y-115451190D01*
X71747619Y-115475000D01*
X71771428Y-115498809D01*
X71795238Y-115546428D01*
X71819047Y-115641666D01*
X71819047Y-115760714D01*
X71795238Y-115855952D01*
X71771428Y-115903571D01*
X71747619Y-115927380D01*
X71700000Y-115951190D01*
X71652380Y-115951190D01*
X71604761Y-115927380D01*
X71580952Y-115903571D01*
X71557142Y-115855952D01*
X71533333Y-115760714D01*
X71533333Y-115641666D01*
X71557142Y-115546428D01*
X71580952Y-115498809D01*
X71604761Y-115475000D01*
X71652380Y-115451190D01*
X68171428Y-109576785D02*
X68338095Y-109576785D01*
X68409523Y-109838690D02*
X68171428Y-109838690D01*
X68171428Y-109338690D01*
X68409523Y-109338690D01*
X68623809Y-109838690D02*
X68623809Y-109338690D01*
X68814285Y-109338690D01*
X68861904Y-109362500D01*
X68885714Y-109386309D01*
X68909523Y-109433928D01*
X68909523Y-109505357D01*
X68885714Y-109552976D01*
X68861904Y-109576785D01*
X68814285Y-109600595D01*
X68623809Y-109600595D01*
X69076190Y-109338690D02*
X69195238Y-109838690D01*
X69290476Y-109481547D01*
X69385714Y-109838690D01*
X69504761Y-109338690D01*
X69695238Y-109838690D02*
X69695238Y-109338690D01*
X69861904Y-109695833D01*
X70028571Y-109338690D01*
X70028571Y-109838690D01*
X68683333Y-110213690D02*
X68992857Y-110213690D01*
X68826190Y-110404166D01*
X68897619Y-110404166D01*
X68945238Y-110427976D01*
X68969047Y-110451785D01*
X68992857Y-110499404D01*
X68992857Y-110618452D01*
X68969047Y-110666071D01*
X68945238Y-110689880D01*
X68897619Y-110713690D01*
X68754761Y-110713690D01*
X68707142Y-110689880D01*
X68683333Y-110666071D01*
X69373809Y-110451785D02*
X69445238Y-110475595D01*
X69469047Y-110499404D01*
X69492857Y-110547023D01*
X69492857Y-110618452D01*
X69469047Y-110666071D01*
X69445238Y-110689880D01*
X69397619Y-110713690D01*
X69207142Y-110713690D01*
X69207142Y-110213690D01*
X69373809Y-110213690D01*
X69421428Y-110237500D01*
X69445238Y-110261309D01*
X69469047Y-110308928D01*
X69469047Y-110356547D01*
X69445238Y-110404166D01*
X69421428Y-110427976D01*
X69373809Y-110451785D01*
X69207142Y-110451785D01*
X65669047Y-115500000D02*
X65621428Y-115476190D01*
X65550000Y-115476190D01*
X65478571Y-115500000D01*
X65430952Y-115547619D01*
X65407142Y-115595238D01*
X65383333Y-115690476D01*
X65383333Y-115761904D01*
X65407142Y-115857142D01*
X65430952Y-115904761D01*
X65478571Y-115952380D01*
X65550000Y-115976190D01*
X65597619Y-115976190D01*
X65669047Y-115952380D01*
X65692857Y-115928571D01*
X65692857Y-115761904D01*
X65597619Y-115761904D01*
X65907142Y-115976190D02*
X65907142Y-115476190D01*
X66192857Y-115976190D01*
X66192857Y-115476190D01*
X66430952Y-115976190D02*
X66430952Y-115476190D01*
X66550000Y-115476190D01*
X66621428Y-115500000D01*
X66669047Y-115547619D01*
X66692857Y-115595238D01*
X66716666Y-115690476D01*
X66716666Y-115761904D01*
X66692857Y-115857142D01*
X66669047Y-115904761D01*
X66621428Y-115952380D01*
X66550000Y-115976190D01*
X66430952Y-115976190D01*
X68171428Y-106526785D02*
X68338095Y-106526785D01*
X68409523Y-106788690D02*
X68171428Y-106788690D01*
X68171428Y-106288690D01*
X68409523Y-106288690D01*
X68623809Y-106788690D02*
X68623809Y-106288690D01*
X68814285Y-106288690D01*
X68861904Y-106312500D01*
X68885714Y-106336309D01*
X68909523Y-106383928D01*
X68909523Y-106455357D01*
X68885714Y-106502976D01*
X68861904Y-106526785D01*
X68814285Y-106550595D01*
X68623809Y-106550595D01*
X69076190Y-106288690D02*
X69195238Y-106788690D01*
X69290476Y-106431547D01*
X69385714Y-106788690D01*
X69504761Y-106288690D01*
X69695238Y-106788690D02*
X69695238Y-106288690D01*
X69861904Y-106645833D01*
X70028571Y-106288690D01*
X70028571Y-106788690D01*
X68719047Y-107163690D02*
X69028571Y-107163690D01*
X68861904Y-107354166D01*
X68933333Y-107354166D01*
X68980952Y-107377976D01*
X69004761Y-107401785D01*
X69028571Y-107449404D01*
X69028571Y-107568452D01*
X69004761Y-107616071D01*
X68980952Y-107639880D01*
X68933333Y-107663690D01*
X68790476Y-107663690D01*
X68742857Y-107639880D01*
X68719047Y-107616071D01*
X69219047Y-107520833D02*
X69457142Y-107520833D01*
X69171428Y-107663690D02*
X69338095Y-107163690D01*
X69504761Y-107663690D01*
X68021428Y-103101785D02*
X68188095Y-103101785D01*
X68259523Y-103363690D02*
X68021428Y-103363690D01*
X68021428Y-102863690D01*
X68259523Y-102863690D01*
X68473809Y-103363690D02*
X68473809Y-102863690D01*
X68664285Y-102863690D01*
X68711904Y-102887500D01*
X68735714Y-102911309D01*
X68759523Y-102958928D01*
X68759523Y-103030357D01*
X68735714Y-103077976D01*
X68711904Y-103101785D01*
X68664285Y-103125595D01*
X68473809Y-103125595D01*
X68926190Y-102863690D02*
X69045238Y-103363690D01*
X69140476Y-103006547D01*
X69235714Y-103363690D01*
X69354761Y-102863690D01*
X69545238Y-103363690D02*
X69545238Y-102863690D01*
X69711904Y-103220833D01*
X69878571Y-102863690D01*
X69878571Y-103363690D01*
X68557142Y-103786309D02*
X68580952Y-103762500D01*
X68628571Y-103738690D01*
X68747619Y-103738690D01*
X68795238Y-103762500D01*
X68819047Y-103786309D01*
X68842857Y-103833928D01*
X68842857Y-103881547D01*
X68819047Y-103952976D01*
X68533333Y-104238690D01*
X68842857Y-104238690D01*
X69223809Y-103976785D02*
X69295238Y-104000595D01*
X69319047Y-104024404D01*
X69342857Y-104072023D01*
X69342857Y-104143452D01*
X69319047Y-104191071D01*
X69295238Y-104214880D01*
X69247619Y-104238690D01*
X69057142Y-104238690D01*
X69057142Y-103738690D01*
X69223809Y-103738690D01*
X69271428Y-103762500D01*
X69295238Y-103786309D01*
X69319047Y-103833928D01*
X69319047Y-103881547D01*
X69295238Y-103929166D01*
X69271428Y-103952976D01*
X69223809Y-103976785D01*
X69057142Y-103976785D01*
X68021428Y-100076785D02*
X68188095Y-100076785D01*
X68259523Y-100338690D02*
X68021428Y-100338690D01*
X68021428Y-99838690D01*
X68259523Y-99838690D01*
X68473809Y-100338690D02*
X68473809Y-99838690D01*
X68664285Y-99838690D01*
X68711904Y-99862500D01*
X68735714Y-99886309D01*
X68759523Y-99933928D01*
X68759523Y-100005357D01*
X68735714Y-100052976D01*
X68711904Y-100076785D01*
X68664285Y-100100595D01*
X68473809Y-100100595D01*
X68926190Y-99838690D02*
X69045238Y-100338690D01*
X69140476Y-99981547D01*
X69235714Y-100338690D01*
X69354761Y-99838690D01*
X69545238Y-100338690D02*
X69545238Y-99838690D01*
X69711904Y-100195833D01*
X69878571Y-99838690D01*
X69878571Y-100338690D01*
X68592857Y-100761309D02*
X68616666Y-100737500D01*
X68664285Y-100713690D01*
X68783333Y-100713690D01*
X68830952Y-100737500D01*
X68854761Y-100761309D01*
X68878571Y-100808928D01*
X68878571Y-100856547D01*
X68854761Y-100927976D01*
X68569047Y-101213690D01*
X68878571Y-101213690D01*
X69069047Y-101070833D02*
X69307142Y-101070833D01*
X69021428Y-101213690D02*
X69188095Y-100713690D01*
X69354761Y-101213690D01*
X62846428Y-96526785D02*
X63013095Y-96526785D01*
X63084523Y-96788690D02*
X62846428Y-96788690D01*
X62846428Y-96288690D01*
X63084523Y-96288690D01*
X63298809Y-96788690D02*
X63298809Y-96288690D01*
X63489285Y-96288690D01*
X63536904Y-96312500D01*
X63560714Y-96336309D01*
X63584523Y-96383928D01*
X63584523Y-96455357D01*
X63560714Y-96502976D01*
X63536904Y-96526785D01*
X63489285Y-96550595D01*
X63298809Y-96550595D01*
X63751190Y-96288690D02*
X63870238Y-96788690D01*
X63965476Y-96431547D01*
X64060714Y-96788690D01*
X64179761Y-96288690D01*
X64370238Y-96788690D02*
X64370238Y-96288690D01*
X64536904Y-96645833D01*
X64703571Y-96288690D01*
X64703571Y-96788690D01*
X63667857Y-97663690D02*
X63382142Y-97663690D01*
X63525000Y-97663690D02*
X63525000Y-97163690D01*
X63477380Y-97235119D01*
X63429761Y-97282738D01*
X63382142Y-97306547D01*
X64048809Y-97401785D02*
X64120238Y-97425595D01*
X64144047Y-97449404D01*
X64167857Y-97497023D01*
X64167857Y-97568452D01*
X64144047Y-97616071D01*
X64120238Y-97639880D01*
X64072619Y-97663690D01*
X63882142Y-97663690D01*
X63882142Y-97163690D01*
X64048809Y-97163690D01*
X64096428Y-97187500D01*
X64120238Y-97211309D01*
X64144047Y-97258928D01*
X64144047Y-97306547D01*
X64120238Y-97354166D01*
X64096428Y-97377976D01*
X64048809Y-97401785D01*
X63882142Y-97401785D01*
X62671428Y-93801785D02*
X62838095Y-93801785D01*
X62909523Y-94063690D02*
X62671428Y-94063690D01*
X62671428Y-93563690D01*
X62909523Y-93563690D01*
X63123809Y-94063690D02*
X63123809Y-93563690D01*
X63314285Y-93563690D01*
X63361904Y-93587500D01*
X63385714Y-93611309D01*
X63409523Y-93658928D01*
X63409523Y-93730357D01*
X63385714Y-93777976D01*
X63361904Y-93801785D01*
X63314285Y-93825595D01*
X63123809Y-93825595D01*
X63576190Y-93563690D02*
X63695238Y-94063690D01*
X63790476Y-93706547D01*
X63885714Y-94063690D01*
X64004761Y-93563690D01*
X64195238Y-94063690D02*
X64195238Y-93563690D01*
X64361904Y-93920833D01*
X64528571Y-93563690D01*
X64528571Y-94063690D01*
X63528571Y-94938690D02*
X63242857Y-94938690D01*
X63385714Y-94938690D02*
X63385714Y-94438690D01*
X63338095Y-94510119D01*
X63290476Y-94557738D01*
X63242857Y-94581547D01*
X63719047Y-94795833D02*
X63957142Y-94795833D01*
X63671428Y-94938690D02*
X63838095Y-94438690D01*
X64004761Y-94938690D01*
X100798809Y-79835714D02*
X101179761Y-79835714D01*
X100989285Y-80026190D02*
X100989285Y-79645238D01*
X101346428Y-79526190D02*
X101513095Y-80026190D01*
X101679761Y-79526190D01*
X101727380Y-80073809D02*
X102108333Y-80073809D01*
X102227380Y-80026190D02*
X102227380Y-79526190D01*
X102465476Y-80026190D02*
X102465476Y-79526190D01*
X102751190Y-80026190D01*
X102751190Y-79526190D01*
X104869047Y-86875000D02*
X104821428Y-86851190D01*
X104750000Y-86851190D01*
X104678571Y-86875000D01*
X104630952Y-86922619D01*
X104607142Y-86970238D01*
X104583333Y-87065476D01*
X104583333Y-87136904D01*
X104607142Y-87232142D01*
X104630952Y-87279761D01*
X104678571Y-87327380D01*
X104750000Y-87351190D01*
X104797619Y-87351190D01*
X104869047Y-87327380D01*
X104892857Y-87303571D01*
X104892857Y-87136904D01*
X104797619Y-87136904D01*
X105107142Y-87351190D02*
X105107142Y-86851190D01*
X105392857Y-87351190D01*
X105392857Y-86851190D01*
X105630952Y-87351190D02*
X105630952Y-86851190D01*
X105750000Y-86851190D01*
X105821428Y-86875000D01*
X105869047Y-86922619D01*
X105892857Y-86970238D01*
X105916666Y-87065476D01*
X105916666Y-87136904D01*
X105892857Y-87232142D01*
X105869047Y-87279761D01*
X105821428Y-87327380D01*
X105750000Y-87351190D01*
X105630952Y-87351190D01*
X58459523Y-109576190D02*
X58459523Y-109076190D01*
X58578571Y-109623809D02*
X58959523Y-109623809D01*
X59364285Y-109528571D02*
X59340476Y-109552380D01*
X59269047Y-109576190D01*
X59221428Y-109576190D01*
X59150000Y-109552380D01*
X59102380Y-109504761D01*
X59078571Y-109457142D01*
X59054761Y-109361904D01*
X59054761Y-109290476D01*
X59078571Y-109195238D01*
X59102380Y-109147619D01*
X59150000Y-109100000D01*
X59221428Y-109076190D01*
X59269047Y-109076190D01*
X59340476Y-109100000D01*
X59364285Y-109123809D01*
X55259523Y-109576190D02*
X55259523Y-109076190D01*
X55378571Y-109623809D02*
X55759523Y-109623809D01*
X56045238Y-109314285D02*
X56116666Y-109338095D01*
X56140476Y-109361904D01*
X56164285Y-109409523D01*
X56164285Y-109480952D01*
X56140476Y-109528571D01*
X56116666Y-109552380D01*
X56069047Y-109576190D01*
X55878571Y-109576190D01*
X55878571Y-109076190D01*
X56045238Y-109076190D01*
X56092857Y-109100000D01*
X56116666Y-109123809D01*
X56140476Y-109171428D01*
X56140476Y-109219047D01*
X56116666Y-109266666D01*
X56092857Y-109290476D01*
X56045238Y-109314285D01*
X55878571Y-109314285D01*
X52145238Y-109576190D02*
X52145238Y-109076190D01*
X52264285Y-109623809D02*
X52645238Y-109623809D01*
X52740476Y-109433333D02*
X52978571Y-109433333D01*
X52692857Y-109576190D02*
X52859523Y-109076190D01*
X53026190Y-109576190D01*
X45619047Y-111300000D02*
X45571428Y-111276190D01*
X45500000Y-111276190D01*
X45428571Y-111300000D01*
X45380952Y-111347619D01*
X45357142Y-111395238D01*
X45333333Y-111490476D01*
X45333333Y-111561904D01*
X45357142Y-111657142D01*
X45380952Y-111704761D01*
X45428571Y-111752380D01*
X45500000Y-111776190D01*
X45547619Y-111776190D01*
X45619047Y-111752380D01*
X45642857Y-111728571D01*
X45642857Y-111561904D01*
X45547619Y-111561904D01*
X45857142Y-111776190D02*
X45857142Y-111276190D01*
X46142857Y-111776190D01*
X46142857Y-111276190D01*
X46380952Y-111776190D02*
X46380952Y-111276190D01*
X46500000Y-111276190D01*
X46571428Y-111300000D01*
X46619047Y-111347619D01*
X46642857Y-111395238D01*
X46666666Y-111490476D01*
X46666666Y-111561904D01*
X46642857Y-111657142D01*
X46619047Y-111704761D01*
X46571428Y-111752380D01*
X46500000Y-111776190D01*
X46380952Y-111776190D01*
X44592857Y-107676190D02*
X44759523Y-108176190D01*
X44926190Y-107676190D01*
X44973809Y-108223809D02*
X45354761Y-108223809D01*
X45640476Y-107914285D02*
X45711904Y-107938095D01*
X45735714Y-107961904D01*
X45759523Y-108009523D01*
X45759523Y-108080952D01*
X45735714Y-108128571D01*
X45711904Y-108152380D01*
X45664285Y-108176190D01*
X45473809Y-108176190D01*
X45473809Y-107676190D01*
X45640476Y-107676190D01*
X45688095Y-107700000D01*
X45711904Y-107723809D01*
X45735714Y-107771428D01*
X45735714Y-107819047D01*
X45711904Y-107866666D01*
X45688095Y-107890476D01*
X45640476Y-107914285D01*
X45473809Y-107914285D01*
X45973809Y-107676190D02*
X45973809Y-108080952D01*
X45997619Y-108128571D01*
X46021428Y-108152380D01*
X46069047Y-108176190D01*
X46164285Y-108176190D01*
X46211904Y-108152380D01*
X46235714Y-108128571D01*
X46259523Y-108080952D01*
X46259523Y-107676190D01*
X46473809Y-108152380D02*
X46545238Y-108176190D01*
X46664285Y-108176190D01*
X46711904Y-108152380D01*
X46735714Y-108128571D01*
X46759523Y-108080952D01*
X46759523Y-108033333D01*
X46735714Y-107985714D01*
X46711904Y-107961904D01*
X46664285Y-107938095D01*
X46569047Y-107914285D01*
X46521428Y-107890476D01*
X46497619Y-107866666D01*
X46473809Y-107819047D01*
X46473809Y-107771428D01*
X46497619Y-107723809D01*
X46521428Y-107700000D01*
X46569047Y-107676190D01*
X46688095Y-107676190D01*
X46759523Y-107700000D01*
X45542857Y-104176190D02*
X45709523Y-104676190D01*
X45876190Y-104176190D01*
X45923809Y-104723809D02*
X46304761Y-104723809D01*
X46709523Y-104628571D02*
X46685714Y-104652380D01*
X46614285Y-104676190D01*
X46566666Y-104676190D01*
X46495238Y-104652380D01*
X46447619Y-104604761D01*
X46423809Y-104557142D01*
X46400000Y-104461904D01*
X46400000Y-104390476D01*
X46423809Y-104295238D01*
X46447619Y-104247619D01*
X46495238Y-104200000D01*
X46566666Y-104176190D01*
X46614285Y-104176190D01*
X46685714Y-104200000D01*
X46709523Y-104223809D01*
X45592857Y-100976190D02*
X45759523Y-101476190D01*
X45926190Y-100976190D01*
X45973809Y-101523809D02*
X46354761Y-101523809D01*
X46640476Y-101214285D02*
X46711904Y-101238095D01*
X46735714Y-101261904D01*
X46759523Y-101309523D01*
X46759523Y-101380952D01*
X46735714Y-101428571D01*
X46711904Y-101452380D01*
X46664285Y-101476190D01*
X46473809Y-101476190D01*
X46473809Y-100976190D01*
X46640476Y-100976190D01*
X46688095Y-101000000D01*
X46711904Y-101023809D01*
X46735714Y-101071428D01*
X46735714Y-101119047D01*
X46711904Y-101166666D01*
X46688095Y-101190476D01*
X46640476Y-101214285D01*
X46473809Y-101214285D01*
X45678571Y-97676190D02*
X45845238Y-98176190D01*
X46011904Y-97676190D01*
X46059523Y-98223809D02*
X46440476Y-98223809D01*
X46535714Y-98033333D02*
X46773809Y-98033333D01*
X46488095Y-98176190D02*
X46654761Y-97676190D01*
X46821428Y-98176190D01*
X44366666Y-119378571D02*
X44342857Y-119402380D01*
X44271428Y-119426190D01*
X44223809Y-119426190D01*
X44152380Y-119402380D01*
X44104761Y-119354761D01*
X44080952Y-119307142D01*
X44057142Y-119211904D01*
X44057142Y-119140476D01*
X44080952Y-119045238D01*
X44104761Y-118997619D01*
X44152380Y-118950000D01*
X44223809Y-118926190D01*
X44271428Y-118926190D01*
X44342857Y-118950000D01*
X44366666Y-118973809D01*
X44557142Y-119283333D02*
X44795238Y-119283333D01*
X44509523Y-119426190D02*
X44676190Y-118926190D01*
X44842857Y-119426190D01*
X45009523Y-119426190D02*
X45009523Y-118926190D01*
X45295238Y-119426190D01*
X45295238Y-118926190D01*
X45414285Y-119473809D02*
X45795238Y-119473809D01*
X45914285Y-119426190D02*
X45914285Y-118926190D01*
X46152380Y-119426190D02*
X46152380Y-118926190D01*
X46438095Y-119426190D01*
X46438095Y-118926190D01*
X46604761Y-118926190D02*
X46890476Y-118926190D01*
X46747619Y-119426190D02*
X46747619Y-118926190D01*
X42573809Y-81026190D02*
X42407142Y-80788095D01*
X42288095Y-81026190D02*
X42288095Y-80526190D01*
X42478571Y-80526190D01*
X42526190Y-80550000D01*
X42550000Y-80573809D01*
X42573809Y-80621428D01*
X42573809Y-80692857D01*
X42550000Y-80740476D01*
X42526190Y-80764285D01*
X42478571Y-80788095D01*
X42288095Y-80788095D01*
X42788095Y-80764285D02*
X42954761Y-80764285D01*
X43026190Y-81026190D02*
X42788095Y-81026190D01*
X42788095Y-80526190D01*
X43026190Y-80526190D01*
X43216666Y-81002380D02*
X43288095Y-81026190D01*
X43407142Y-81026190D01*
X43454761Y-81002380D01*
X43478571Y-80978571D01*
X43502380Y-80930952D01*
X43502380Y-80883333D01*
X43478571Y-80835714D01*
X43454761Y-80811904D01*
X43407142Y-80788095D01*
X43311904Y-80764285D01*
X43264285Y-80740476D01*
X43240476Y-80716666D01*
X43216666Y-80669047D01*
X43216666Y-80621428D01*
X43240476Y-80573809D01*
X43264285Y-80550000D01*
X43311904Y-80526190D01*
X43430952Y-80526190D01*
X43502380Y-80550000D01*
X43716666Y-80764285D02*
X43883333Y-80764285D01*
X43954761Y-81026190D02*
X43716666Y-81026190D01*
X43716666Y-80526190D01*
X43954761Y-80526190D01*
X44097619Y-80526190D02*
X44383333Y-80526190D01*
X44240476Y-81026190D02*
X44240476Y-80526190D01*
X51330952Y-123078571D02*
X51307142Y-123102380D01*
X51235714Y-123126190D01*
X51188095Y-123126190D01*
X51116666Y-123102380D01*
X51069047Y-123054761D01*
X51045238Y-123007142D01*
X51021428Y-122911904D01*
X51021428Y-122840476D01*
X51045238Y-122745238D01*
X51069047Y-122697619D01*
X51116666Y-122650000D01*
X51188095Y-122626190D01*
X51235714Y-122626190D01*
X51307142Y-122650000D01*
X51330952Y-122673809D01*
X51521428Y-122983333D02*
X51759523Y-122983333D01*
X51473809Y-123126190D02*
X51640476Y-122626190D01*
X51807142Y-123126190D01*
X51973809Y-123126190D02*
X51973809Y-122626190D01*
X52259523Y-123126190D01*
X52259523Y-122626190D01*
X52378571Y-123173809D02*
X52759523Y-123173809D01*
X52878571Y-123126190D02*
X52878571Y-122626190D01*
X53116666Y-123126190D02*
X53116666Y-122626190D01*
X53402380Y-123126190D01*
X53402380Y-122626190D01*
X53569047Y-122626190D02*
X53854761Y-122626190D01*
X53711904Y-123126190D02*
X53711904Y-122626190D01*
X53902380Y-123173809D02*
X54283333Y-123173809D01*
X54330952Y-122626190D02*
X54616666Y-122626190D01*
X54473809Y-123126190D02*
X54473809Y-122626190D01*
X54783333Y-122864285D02*
X54950000Y-122864285D01*
X55021428Y-123126190D02*
X54783333Y-123126190D01*
X54783333Y-122626190D01*
X55021428Y-122626190D01*
X55211904Y-123102380D02*
X55283333Y-123126190D01*
X55402380Y-123126190D01*
X55450000Y-123102380D01*
X55473809Y-123078571D01*
X55497619Y-123030952D01*
X55497619Y-122983333D01*
X55473809Y-122935714D01*
X55450000Y-122911904D01*
X55402380Y-122888095D01*
X55307142Y-122864285D01*
X55259523Y-122840476D01*
X55235714Y-122816666D01*
X55211904Y-122769047D01*
X55211904Y-122721428D01*
X55235714Y-122673809D01*
X55259523Y-122650000D01*
X55307142Y-122626190D01*
X55426190Y-122626190D01*
X55497619Y-122650000D01*
X55640476Y-122626190D02*
X55926190Y-122626190D01*
X55783333Y-123126190D02*
X55783333Y-122626190D01*
X19690476Y-119776190D02*
X19523809Y-119538095D01*
X19404761Y-119776190D02*
X19404761Y-119276190D01*
X19595238Y-119276190D01*
X19642857Y-119300000D01*
X19666666Y-119323809D01*
X19690476Y-119371428D01*
X19690476Y-119442857D01*
X19666666Y-119490476D01*
X19642857Y-119514285D01*
X19595238Y-119538095D01*
X19404761Y-119538095D01*
X19857142Y-119276190D02*
X20190476Y-119776190D01*
X20190476Y-119276190D02*
X19857142Y-119776190D01*
X20666666Y-119728571D02*
X20642857Y-119752380D01*
X20571428Y-119776190D01*
X20523809Y-119776190D01*
X20452380Y-119752380D01*
X20404761Y-119704761D01*
X20380952Y-119657142D01*
X20357142Y-119561904D01*
X20357142Y-119490476D01*
X20380952Y-119395238D01*
X20404761Y-119347619D01*
X20452380Y-119300000D01*
X20523809Y-119276190D01*
X20571428Y-119276190D01*
X20642857Y-119300000D01*
X20666666Y-119323809D01*
X20857142Y-119633333D02*
X21095238Y-119633333D01*
X20809523Y-119776190D02*
X20976190Y-119276190D01*
X21142857Y-119776190D01*
X21309523Y-119776190D02*
X21309523Y-119276190D01*
X21595238Y-119776190D01*
X21595238Y-119276190D01*
X28592857Y-126526190D02*
X28878571Y-126526190D01*
X28735714Y-127026190D02*
X28735714Y-126526190D01*
X28997619Y-126526190D02*
X29330952Y-127026190D01*
X29330952Y-126526190D02*
X28997619Y-127026190D01*
X29807142Y-126978571D02*
X29783333Y-127002380D01*
X29711904Y-127026190D01*
X29664285Y-127026190D01*
X29592857Y-127002380D01*
X29545238Y-126954761D01*
X29521428Y-126907142D01*
X29497619Y-126811904D01*
X29497619Y-126740476D01*
X29521428Y-126645238D01*
X29545238Y-126597619D01*
X29592857Y-126550000D01*
X29664285Y-126526190D01*
X29711904Y-126526190D01*
X29783333Y-126550000D01*
X29807142Y-126573809D01*
X29997619Y-126883333D02*
X30235714Y-126883333D01*
X29950000Y-127026190D02*
X30116666Y-126526190D01*
X30283333Y-127026190D01*
X30450000Y-127026190D02*
X30450000Y-126526190D01*
X30735714Y-127026190D01*
X30735714Y-126526190D01*
X17301190Y-124753571D02*
X17277380Y-124777380D01*
X17205952Y-124801190D01*
X17158333Y-124801190D01*
X17086904Y-124777380D01*
X17039285Y-124729761D01*
X17015476Y-124682142D01*
X16991666Y-124586904D01*
X16991666Y-124515476D01*
X17015476Y-124420238D01*
X17039285Y-124372619D01*
X17086904Y-124325000D01*
X17158333Y-124301190D01*
X17205952Y-124301190D01*
X17277380Y-124325000D01*
X17301190Y-124348809D01*
X17491666Y-124658333D02*
X17729761Y-124658333D01*
X17444047Y-124801190D02*
X17610714Y-124301190D01*
X17777380Y-124801190D01*
X17944047Y-124801190D02*
X17944047Y-124301190D01*
X18229761Y-124801190D01*
X18229761Y-124301190D01*
X18705952Y-124801190D02*
X18467857Y-124801190D01*
X18467857Y-124301190D01*
X17266666Y-126103571D02*
X17242857Y-126127380D01*
X17171428Y-126151190D01*
X17123809Y-126151190D01*
X17052380Y-126127380D01*
X17004761Y-126079761D01*
X16980952Y-126032142D01*
X16957142Y-125936904D01*
X16957142Y-125865476D01*
X16980952Y-125770238D01*
X17004761Y-125722619D01*
X17052380Y-125675000D01*
X17123809Y-125651190D01*
X17171428Y-125651190D01*
X17242857Y-125675000D01*
X17266666Y-125698809D01*
X17457142Y-126008333D02*
X17695238Y-126008333D01*
X17409523Y-126151190D02*
X17576190Y-125651190D01*
X17742857Y-126151190D01*
X17909523Y-126151190D02*
X17909523Y-125651190D01*
X18195238Y-126151190D01*
X18195238Y-125651190D01*
X18433333Y-126151190D02*
X18433333Y-125651190D01*
X18433333Y-125889285D02*
X18719047Y-125889285D01*
X18719047Y-126151190D02*
X18719047Y-125651190D01*
X4985714Y-119876190D02*
X4700000Y-119876190D01*
X4842857Y-119876190D02*
X4842857Y-119376190D01*
X4795238Y-119447619D01*
X4747619Y-119495238D01*
X4700000Y-119519047D01*
X5176190Y-119423809D02*
X5200000Y-119400000D01*
X5247619Y-119376190D01*
X5366666Y-119376190D01*
X5414285Y-119400000D01*
X5438095Y-119423809D01*
X5461904Y-119471428D01*
X5461904Y-119519047D01*
X5438095Y-119590476D01*
X5152380Y-119876190D01*
X5461904Y-119876190D01*
X5771428Y-119376190D02*
X5819047Y-119376190D01*
X5866666Y-119400000D01*
X5890476Y-119423809D01*
X5914285Y-119471428D01*
X5938095Y-119566666D01*
X5938095Y-119685714D01*
X5914285Y-119780952D01*
X5890476Y-119828571D01*
X5866666Y-119852380D01*
X5819047Y-119876190D01*
X5771428Y-119876190D01*
X5723809Y-119852380D01*
X5700000Y-119828571D01*
X5676190Y-119780952D01*
X5652380Y-119685714D01*
X5652380Y-119566666D01*
X5676190Y-119471428D01*
X5700000Y-119423809D01*
X5723809Y-119400000D01*
X5771428Y-119376190D01*
X6628571Y-119376190D02*
X6723809Y-119376190D01*
X6771428Y-119400000D01*
X6819047Y-119447619D01*
X6842857Y-119542857D01*
X6842857Y-119709523D01*
X6819047Y-119804761D01*
X6771428Y-119852380D01*
X6723809Y-119876190D01*
X6628571Y-119876190D01*
X6580952Y-119852380D01*
X6533333Y-119804761D01*
X6509523Y-119709523D01*
X6509523Y-119542857D01*
X6533333Y-119447619D01*
X6580952Y-119400000D01*
X6628571Y-119376190D01*
X7057142Y-119876190D02*
X7057142Y-119376190D01*
X7271428Y-119876190D02*
X7271428Y-119614285D01*
X7247619Y-119566666D01*
X7200000Y-119542857D01*
X7128571Y-119542857D01*
X7080952Y-119566666D01*
X7057142Y-119590476D01*
X7509523Y-119876190D02*
X7509523Y-119542857D01*
X7509523Y-119590476D02*
X7533333Y-119566666D01*
X7580952Y-119542857D01*
X7652380Y-119542857D01*
X7700000Y-119566666D01*
X7723809Y-119614285D01*
X7723809Y-119876190D01*
X7723809Y-119614285D02*
X7747619Y-119566666D01*
X7795238Y-119542857D01*
X7866666Y-119542857D01*
X7914285Y-119566666D01*
X7938095Y-119614285D01*
X7938095Y-119876190D01*
X8485714Y-119376190D02*
X8771428Y-119376190D01*
X8628571Y-119876190D02*
X8628571Y-119376190D01*
X9128571Y-119852380D02*
X9080952Y-119876190D01*
X8985714Y-119876190D01*
X8938095Y-119852380D01*
X8914285Y-119804761D01*
X8914285Y-119614285D01*
X8938095Y-119566666D01*
X8985714Y-119542857D01*
X9080952Y-119542857D01*
X9128571Y-119566666D01*
X9152380Y-119614285D01*
X9152380Y-119661904D01*
X8914285Y-119709523D01*
X9366666Y-119876190D02*
X9366666Y-119542857D01*
X9366666Y-119638095D02*
X9390476Y-119590476D01*
X9414285Y-119566666D01*
X9461904Y-119542857D01*
X9509523Y-119542857D01*
X9676190Y-119876190D02*
X9676190Y-119542857D01*
X9676190Y-119590476D02*
X9700000Y-119566666D01*
X9747619Y-119542857D01*
X9819047Y-119542857D01*
X9866666Y-119566666D01*
X9890476Y-119614285D01*
X9890476Y-119876190D01*
X9890476Y-119614285D02*
X9914285Y-119566666D01*
X9961904Y-119542857D01*
X10033333Y-119542857D01*
X10080952Y-119566666D01*
X10104761Y-119614285D01*
X10104761Y-119876190D01*
X10342857Y-119876190D02*
X10342857Y-119542857D01*
X10342857Y-119376190D02*
X10319047Y-119400000D01*
X10342857Y-119423809D01*
X10366666Y-119400000D01*
X10342857Y-119376190D01*
X10342857Y-119423809D01*
X10580952Y-119542857D02*
X10580952Y-119876190D01*
X10580952Y-119590476D02*
X10604761Y-119566666D01*
X10652380Y-119542857D01*
X10723809Y-119542857D01*
X10771428Y-119566666D01*
X10795238Y-119614285D01*
X10795238Y-119876190D01*
X11247619Y-119876190D02*
X11247619Y-119614285D01*
X11223809Y-119566666D01*
X11176190Y-119542857D01*
X11080952Y-119542857D01*
X11033333Y-119566666D01*
X11247619Y-119852380D02*
X11200000Y-119876190D01*
X11080952Y-119876190D01*
X11033333Y-119852380D01*
X11009523Y-119804761D01*
X11009523Y-119757142D01*
X11033333Y-119709523D01*
X11080952Y-119685714D01*
X11200000Y-119685714D01*
X11247619Y-119661904D01*
X11414285Y-119542857D02*
X11604761Y-119542857D01*
X11485714Y-119376190D02*
X11485714Y-119804761D01*
X11509523Y-119852380D01*
X11557142Y-119876190D01*
X11604761Y-119876190D01*
X11771428Y-119876190D02*
X11771428Y-119542857D01*
X11771428Y-119376190D02*
X11747619Y-119400000D01*
X11771428Y-119423809D01*
X11795238Y-119400000D01*
X11771428Y-119376190D01*
X11771428Y-119423809D01*
X12080952Y-119876190D02*
X12033333Y-119852380D01*
X12009523Y-119828571D01*
X11985714Y-119780952D01*
X11985714Y-119638095D01*
X12009523Y-119590476D01*
X12033333Y-119566666D01*
X12080952Y-119542857D01*
X12152380Y-119542857D01*
X12200000Y-119566666D01*
X12223809Y-119590476D01*
X12247619Y-119638095D01*
X12247619Y-119780952D01*
X12223809Y-119828571D01*
X12200000Y-119852380D01*
X12152380Y-119876190D01*
X12080952Y-119876190D01*
X12461904Y-119542857D02*
X12461904Y-119876190D01*
X12461904Y-119590476D02*
X12485714Y-119566666D01*
X12533333Y-119542857D01*
X12604761Y-119542857D01*
X12652380Y-119566666D01*
X12676190Y-119614285D01*
X12676190Y-119876190D01*
X38495238Y-113352380D02*
X38566666Y-113376190D01*
X38685714Y-113376190D01*
X38733333Y-113352380D01*
X38757142Y-113328571D01*
X38780952Y-113280952D01*
X38780952Y-113233333D01*
X38757142Y-113185714D01*
X38733333Y-113161904D01*
X38685714Y-113138095D01*
X38590476Y-113114285D01*
X38542857Y-113090476D01*
X38519047Y-113066666D01*
X38495238Y-113019047D01*
X38495238Y-112971428D01*
X38519047Y-112923809D01*
X38542857Y-112900000D01*
X38590476Y-112876190D01*
X38709523Y-112876190D01*
X38780952Y-112900000D01*
X38995238Y-113376190D02*
X38995238Y-112876190D01*
X39185714Y-112876190D01*
X39233333Y-112900000D01*
X39257142Y-112923809D01*
X39280952Y-112971428D01*
X39280952Y-113042857D01*
X39257142Y-113090476D01*
X39233333Y-113114285D01*
X39185714Y-113138095D01*
X38995238Y-113138095D01*
X39495238Y-113376190D02*
X39495238Y-112876190D01*
X39614285Y-113423809D02*
X39995238Y-113423809D01*
X40400000Y-113328571D02*
X40376190Y-113352380D01*
X40304761Y-113376190D01*
X40257142Y-113376190D01*
X40185714Y-113352380D01*
X40138095Y-113304761D01*
X40114285Y-113257142D01*
X40090476Y-113161904D01*
X40090476Y-113090476D01*
X40114285Y-112995238D01*
X40138095Y-112947619D01*
X40185714Y-112900000D01*
X40257142Y-112876190D01*
X40304761Y-112876190D01*
X40376190Y-112900000D01*
X40400000Y-112923809D01*
X40852380Y-113376190D02*
X40614285Y-113376190D01*
X40614285Y-112876190D01*
X41019047Y-113376190D02*
X41019047Y-112876190D01*
X41304761Y-113376190D02*
X41090476Y-113090476D01*
X41304761Y-112876190D02*
X41019047Y-113161904D01*
X34692857Y-113352380D02*
X34764285Y-113376190D01*
X34883333Y-113376190D01*
X34930952Y-113352380D01*
X34954761Y-113328571D01*
X34978571Y-113280952D01*
X34978571Y-113233333D01*
X34954761Y-113185714D01*
X34930952Y-113161904D01*
X34883333Y-113138095D01*
X34788095Y-113114285D01*
X34740476Y-113090476D01*
X34716666Y-113066666D01*
X34692857Y-113019047D01*
X34692857Y-112971428D01*
X34716666Y-112923809D01*
X34740476Y-112900000D01*
X34788095Y-112876190D01*
X34907142Y-112876190D01*
X34978571Y-112900000D01*
X35192857Y-113376190D02*
X35192857Y-112876190D01*
X35383333Y-112876190D01*
X35430952Y-112900000D01*
X35454761Y-112923809D01*
X35478571Y-112971428D01*
X35478571Y-113042857D01*
X35454761Y-113090476D01*
X35430952Y-113114285D01*
X35383333Y-113138095D01*
X35192857Y-113138095D01*
X35692857Y-113376190D02*
X35692857Y-112876190D01*
X35811904Y-113423809D02*
X36192857Y-113423809D01*
X36311904Y-113376190D02*
X36311904Y-112876190D01*
X36478571Y-113233333D01*
X36645238Y-112876190D01*
X36645238Y-113376190D01*
X36978571Y-112876190D02*
X37073809Y-112876190D01*
X37121428Y-112900000D01*
X37169047Y-112947619D01*
X37192857Y-113042857D01*
X37192857Y-113209523D01*
X37169047Y-113304761D01*
X37121428Y-113352380D01*
X37073809Y-113376190D01*
X36978571Y-113376190D01*
X36930952Y-113352380D01*
X36883333Y-113304761D01*
X36859523Y-113209523D01*
X36859523Y-113042857D01*
X36883333Y-112947619D01*
X36930952Y-112900000D01*
X36978571Y-112876190D01*
X37383333Y-113352380D02*
X37454761Y-113376190D01*
X37573809Y-113376190D01*
X37621428Y-113352380D01*
X37645238Y-113328571D01*
X37669047Y-113280952D01*
X37669047Y-113233333D01*
X37645238Y-113185714D01*
X37621428Y-113161904D01*
X37573809Y-113138095D01*
X37478571Y-113114285D01*
X37430952Y-113090476D01*
X37407142Y-113066666D01*
X37383333Y-113019047D01*
X37383333Y-112971428D01*
X37407142Y-112923809D01*
X37430952Y-112900000D01*
X37478571Y-112876190D01*
X37597619Y-112876190D01*
X37669047Y-112900000D01*
X37883333Y-113376190D02*
X37883333Y-112876190D01*
X31142857Y-113352380D02*
X31214285Y-113376190D01*
X31333333Y-113376190D01*
X31380952Y-113352380D01*
X31404761Y-113328571D01*
X31428571Y-113280952D01*
X31428571Y-113233333D01*
X31404761Y-113185714D01*
X31380952Y-113161904D01*
X31333333Y-113138095D01*
X31238095Y-113114285D01*
X31190476Y-113090476D01*
X31166666Y-113066666D01*
X31142857Y-113019047D01*
X31142857Y-112971428D01*
X31166666Y-112923809D01*
X31190476Y-112900000D01*
X31238095Y-112876190D01*
X31357142Y-112876190D01*
X31428571Y-112900000D01*
X31642857Y-113376190D02*
X31642857Y-112876190D01*
X31833333Y-112876190D01*
X31880952Y-112900000D01*
X31904761Y-112923809D01*
X31928571Y-112971428D01*
X31928571Y-113042857D01*
X31904761Y-113090476D01*
X31880952Y-113114285D01*
X31833333Y-113138095D01*
X31642857Y-113138095D01*
X32142857Y-113376190D02*
X32142857Y-112876190D01*
X32261904Y-113423809D02*
X32642857Y-113423809D01*
X32761904Y-113376190D02*
X32761904Y-112876190D01*
X32928571Y-113233333D01*
X33095238Y-112876190D01*
X33095238Y-113376190D01*
X33333333Y-113376190D02*
X33333333Y-112876190D01*
X33547619Y-113352380D02*
X33619047Y-113376190D01*
X33738095Y-113376190D01*
X33785714Y-113352380D01*
X33809523Y-113328571D01*
X33833333Y-113280952D01*
X33833333Y-113233333D01*
X33809523Y-113185714D01*
X33785714Y-113161904D01*
X33738095Y-113138095D01*
X33642857Y-113114285D01*
X33595238Y-113090476D01*
X33571428Y-113066666D01*
X33547619Y-113019047D01*
X33547619Y-112971428D01*
X33571428Y-112923809D01*
X33595238Y-112900000D01*
X33642857Y-112876190D01*
X33761904Y-112876190D01*
X33833333Y-112900000D01*
X34142857Y-112876190D02*
X34238095Y-112876190D01*
X34285714Y-112900000D01*
X34333333Y-112947619D01*
X34357142Y-113042857D01*
X34357142Y-113209523D01*
X34333333Y-113304761D01*
X34285714Y-113352380D01*
X34238095Y-113376190D01*
X34142857Y-113376190D01*
X34095238Y-113352380D01*
X34047619Y-113304761D01*
X34023809Y-113209523D01*
X34023809Y-113042857D01*
X34047619Y-112947619D01*
X34095238Y-112900000D01*
X34142857Y-112876190D01*
X27580952Y-113352380D02*
X27652380Y-113376190D01*
X27771428Y-113376190D01*
X27819047Y-113352380D01*
X27842857Y-113328571D01*
X27866666Y-113280952D01*
X27866666Y-113233333D01*
X27842857Y-113185714D01*
X27819047Y-113161904D01*
X27771428Y-113138095D01*
X27676190Y-113114285D01*
X27628571Y-113090476D01*
X27604761Y-113066666D01*
X27580952Y-113019047D01*
X27580952Y-112971428D01*
X27604761Y-112923809D01*
X27628571Y-112900000D01*
X27676190Y-112876190D01*
X27795238Y-112876190D01*
X27866666Y-112900000D01*
X28080952Y-113376190D02*
X28080952Y-112876190D01*
X28271428Y-112876190D01*
X28319047Y-112900000D01*
X28342857Y-112923809D01*
X28366666Y-112971428D01*
X28366666Y-113042857D01*
X28342857Y-113090476D01*
X28319047Y-113114285D01*
X28271428Y-113138095D01*
X28080952Y-113138095D01*
X28580952Y-113376190D02*
X28580952Y-112876190D01*
X28700000Y-113423809D02*
X29080952Y-113423809D01*
X29485714Y-113328571D02*
X29461904Y-113352380D01*
X29390476Y-113376190D01*
X29342857Y-113376190D01*
X29271428Y-113352380D01*
X29223809Y-113304761D01*
X29200000Y-113257142D01*
X29176190Y-113161904D01*
X29176190Y-113090476D01*
X29200000Y-112995238D01*
X29223809Y-112947619D01*
X29271428Y-112900000D01*
X29342857Y-112876190D01*
X29390476Y-112876190D01*
X29461904Y-112900000D01*
X29485714Y-112923809D01*
X29676190Y-113352380D02*
X29747619Y-113376190D01*
X29866666Y-113376190D01*
X29914285Y-113352380D01*
X29938095Y-113328571D01*
X29961904Y-113280952D01*
X29961904Y-113233333D01*
X29938095Y-113185714D01*
X29914285Y-113161904D01*
X29866666Y-113138095D01*
X29771428Y-113114285D01*
X29723809Y-113090476D01*
X29700000Y-113066666D01*
X29676190Y-113019047D01*
X29676190Y-112971428D01*
X29700000Y-112923809D01*
X29723809Y-112900000D01*
X29771428Y-112876190D01*
X29890476Y-112876190D01*
X29961904Y-112900000D01*
X30057142Y-113423809D02*
X30438095Y-113423809D01*
X30819047Y-113376190D02*
X30533333Y-113376190D01*
X30676190Y-113376190D02*
X30676190Y-112876190D01*
X30628571Y-112947619D01*
X30580952Y-112995238D01*
X30533333Y-113019047D01*
X25669047Y-112900000D02*
X25621428Y-112876190D01*
X25550000Y-112876190D01*
X25478571Y-112900000D01*
X25430952Y-112947619D01*
X25407142Y-112995238D01*
X25383333Y-113090476D01*
X25383333Y-113161904D01*
X25407142Y-113257142D01*
X25430952Y-113304761D01*
X25478571Y-113352380D01*
X25550000Y-113376190D01*
X25597619Y-113376190D01*
X25669047Y-113352380D01*
X25692857Y-113328571D01*
X25692857Y-113161904D01*
X25597619Y-113161904D01*
X25907142Y-113376190D02*
X25907142Y-112876190D01*
X26192857Y-113376190D01*
X26192857Y-112876190D01*
X26430952Y-113376190D02*
X26430952Y-112876190D01*
X26550000Y-112876190D01*
X26621428Y-112900000D01*
X26669047Y-112947619D01*
X26692857Y-112995238D01*
X26716666Y-113090476D01*
X26716666Y-113161904D01*
X26692857Y-113257142D01*
X26669047Y-113304761D01*
X26621428Y-113352380D01*
X26550000Y-113376190D01*
X26430952Y-113376190D01*
X22019047Y-113000000D02*
X21971428Y-112976190D01*
X21900000Y-112976190D01*
X21828571Y-113000000D01*
X21780952Y-113047619D01*
X21757142Y-113095238D01*
X21733333Y-113190476D01*
X21733333Y-113261904D01*
X21757142Y-113357142D01*
X21780952Y-113404761D01*
X21828571Y-113452380D01*
X21900000Y-113476190D01*
X21947619Y-113476190D01*
X22019047Y-113452380D01*
X22042857Y-113428571D01*
X22042857Y-113261904D01*
X21947619Y-113261904D01*
X22257142Y-113476190D02*
X22257142Y-112976190D01*
X22542857Y-113476190D01*
X22542857Y-112976190D01*
X22780952Y-113476190D02*
X22780952Y-112976190D01*
X22900000Y-112976190D01*
X22971428Y-113000000D01*
X23019047Y-113047619D01*
X23042857Y-113095238D01*
X23066666Y-113190476D01*
X23066666Y-113261904D01*
X23042857Y-113357142D01*
X23019047Y-113404761D01*
X22971428Y-113452380D01*
X22900000Y-113476190D01*
X22780952Y-113476190D01*
X32778571Y-101076190D02*
X33064285Y-101076190D01*
X32921428Y-101576190D02*
X32921428Y-101076190D01*
X33516666Y-101576190D02*
X33350000Y-101338095D01*
X33230952Y-101576190D02*
X33230952Y-101076190D01*
X33421428Y-101076190D01*
X33469047Y-101100000D01*
X33492857Y-101123809D01*
X33516666Y-101171428D01*
X33516666Y-101242857D01*
X33492857Y-101290476D01*
X33469047Y-101314285D01*
X33421428Y-101338095D01*
X33230952Y-101338095D01*
X33707142Y-101552380D02*
X33778571Y-101576190D01*
X33897619Y-101576190D01*
X33945238Y-101552380D01*
X33969047Y-101528571D01*
X33992857Y-101480952D01*
X33992857Y-101433333D01*
X33969047Y-101385714D01*
X33945238Y-101361904D01*
X33897619Y-101338095D01*
X33802380Y-101314285D01*
X33754761Y-101290476D01*
X33730952Y-101266666D01*
X33707142Y-101219047D01*
X33707142Y-101171428D01*
X33730952Y-101123809D01*
X33754761Y-101100000D01*
X33802380Y-101076190D01*
X33921428Y-101076190D01*
X33992857Y-101100000D01*
X34135714Y-101076190D02*
X34421428Y-101076190D01*
X34278571Y-101576190D02*
X34278571Y-101076190D01*
X33088095Y-99326190D02*
X33373809Y-99326190D01*
X33230952Y-99826190D02*
X33230952Y-99326190D01*
X33540476Y-99826190D02*
X33540476Y-99326190D01*
X33659523Y-99326190D01*
X33730952Y-99350000D01*
X33778571Y-99397619D01*
X33802380Y-99445238D01*
X33826190Y-99540476D01*
X33826190Y-99611904D01*
X33802380Y-99707142D01*
X33778571Y-99754761D01*
X33730952Y-99802380D01*
X33659523Y-99826190D01*
X33540476Y-99826190D01*
X34040476Y-99826190D02*
X34040476Y-99326190D01*
D13*
X14600000Y-89300000D02*
X15000000Y-89600000D01*
X14600000Y-89300000D02*
X15000000Y-89000000D01*
X16600000Y-89300000D02*
X14600000Y-89300000D01*
X24600000Y-91100000D02*
X24950000Y-90700000D01*
X24600000Y-91100000D02*
X24200000Y-90700000D01*
X24600000Y-89400000D02*
X24600000Y-91100000D01*
X22350000Y-89400000D02*
X24600000Y-89400000D01*
D10*
X32895238Y-94776190D02*
X33180952Y-94776190D01*
X33038095Y-95276190D02*
X33038095Y-94776190D01*
X33347619Y-95276190D02*
X33347619Y-94776190D01*
X33466666Y-94776190D01*
X33538095Y-94800000D01*
X33585714Y-94847619D01*
X33609523Y-94895238D01*
X33633333Y-94990476D01*
X33633333Y-95061904D01*
X33609523Y-95157142D01*
X33585714Y-95204761D01*
X33538095Y-95252380D01*
X33466666Y-95276190D01*
X33347619Y-95276190D01*
X33942857Y-94776190D02*
X34038095Y-94776190D01*
X34085714Y-94800000D01*
X34133333Y-94847619D01*
X34157142Y-94942857D01*
X34157142Y-95109523D01*
X34133333Y-95204761D01*
X34085714Y-95252380D01*
X34038095Y-95276190D01*
X33942857Y-95276190D01*
X33895238Y-95252380D01*
X33847619Y-95204761D01*
X33823809Y-95109523D01*
X33823809Y-94942857D01*
X33847619Y-94847619D01*
X33895238Y-94800000D01*
X33942857Y-94776190D01*
X32907142Y-92526190D02*
X33192857Y-92526190D01*
X33050000Y-93026190D02*
X33050000Y-92526190D01*
X33645238Y-92978571D02*
X33621428Y-93002380D01*
X33550000Y-93026190D01*
X33502380Y-93026190D01*
X33430952Y-93002380D01*
X33383333Y-92954761D01*
X33359523Y-92907142D01*
X33335714Y-92811904D01*
X33335714Y-92740476D01*
X33359523Y-92645238D01*
X33383333Y-92597619D01*
X33430952Y-92550000D01*
X33502380Y-92526190D01*
X33550000Y-92526190D01*
X33621428Y-92550000D01*
X33645238Y-92573809D01*
X33859523Y-93026190D02*
X33859523Y-92526190D01*
X34145238Y-93026190D02*
X33930952Y-92740476D01*
X34145238Y-92526190D02*
X33859523Y-92811904D01*
X32883333Y-89126190D02*
X33169047Y-89126190D01*
X33026190Y-89626190D02*
X33026190Y-89126190D01*
X33335714Y-89626190D02*
X33335714Y-89126190D01*
X33502380Y-89483333D01*
X33669047Y-89126190D01*
X33669047Y-89626190D01*
X33883333Y-89602380D02*
X33954761Y-89626190D01*
X34073809Y-89626190D01*
X34121428Y-89602380D01*
X34145238Y-89578571D01*
X34169047Y-89530952D01*
X34169047Y-89483333D01*
X34145238Y-89435714D01*
X34121428Y-89411904D01*
X34073809Y-89388095D01*
X33978571Y-89364285D01*
X33930952Y-89340476D01*
X33907142Y-89316666D01*
X33883333Y-89269047D01*
X33883333Y-89221428D01*
X33907142Y-89173809D01*
X33930952Y-89150000D01*
X33978571Y-89126190D01*
X34097619Y-89126190D01*
X34169047Y-89150000D01*
X29669047Y-84050000D02*
X29621428Y-84026190D01*
X29550000Y-84026190D01*
X29478571Y-84050000D01*
X29430952Y-84097619D01*
X29407142Y-84145238D01*
X29383333Y-84240476D01*
X29383333Y-84311904D01*
X29407142Y-84407142D01*
X29430952Y-84454761D01*
X29478571Y-84502380D01*
X29550000Y-84526190D01*
X29597619Y-84526190D01*
X29669047Y-84502380D01*
X29692857Y-84478571D01*
X29692857Y-84311904D01*
X29597619Y-84311904D01*
X29907142Y-84526190D02*
X29907142Y-84026190D01*
X30192857Y-84526190D01*
X30192857Y-84026190D01*
X30430952Y-84526190D02*
X30430952Y-84026190D01*
X30550000Y-84026190D01*
X30621428Y-84050000D01*
X30669047Y-84097619D01*
X30692857Y-84145238D01*
X30716666Y-84240476D01*
X30716666Y-84311904D01*
X30692857Y-84407142D01*
X30669047Y-84454761D01*
X30621428Y-84502380D01*
X30550000Y-84526190D01*
X30430952Y-84526190D01*
X22769047Y-84000000D02*
X22721428Y-83976190D01*
X22650000Y-83976190D01*
X22578571Y-84000000D01*
X22530952Y-84047619D01*
X22507142Y-84095238D01*
X22483333Y-84190476D01*
X22483333Y-84261904D01*
X22507142Y-84357142D01*
X22530952Y-84404761D01*
X22578571Y-84452380D01*
X22650000Y-84476190D01*
X22697619Y-84476190D01*
X22769047Y-84452380D01*
X22792857Y-84428571D01*
X22792857Y-84261904D01*
X22697619Y-84261904D01*
X23007142Y-84476190D02*
X23007142Y-83976190D01*
X23292857Y-84476190D01*
X23292857Y-83976190D01*
X23530952Y-84476190D02*
X23530952Y-83976190D01*
X23650000Y-83976190D01*
X23721428Y-84000000D01*
X23769047Y-84047619D01*
X23792857Y-84095238D01*
X23816666Y-84190476D01*
X23816666Y-84261904D01*
X23792857Y-84357142D01*
X23769047Y-84404761D01*
X23721428Y-84452380D01*
X23650000Y-84476190D01*
X23530952Y-84476190D01*
X18816666Y-88638690D02*
X18816666Y-88995833D01*
X18792857Y-89067261D01*
X18745238Y-89114880D01*
X18673809Y-89138690D01*
X18626190Y-89138690D01*
X18983333Y-88638690D02*
X19269047Y-88638690D01*
X19126190Y-89138690D02*
X19126190Y-88638690D01*
X19411904Y-88995833D02*
X19650000Y-88995833D01*
X19364285Y-89138690D02*
X19530952Y-88638690D01*
X19697619Y-89138690D01*
X20126190Y-88662500D02*
X20078571Y-88638690D01*
X20007142Y-88638690D01*
X19935714Y-88662500D01*
X19888095Y-88710119D01*
X19864285Y-88757738D01*
X19840476Y-88852976D01*
X19840476Y-88924404D01*
X19864285Y-89019642D01*
X19888095Y-89067261D01*
X19935714Y-89114880D01*
X20007142Y-89138690D01*
X20054761Y-89138690D01*
X20126190Y-89114880D01*
X20150000Y-89091071D01*
X20150000Y-88924404D01*
X20054761Y-88924404D01*
X16840476Y-90013690D02*
X16840476Y-89513690D01*
X17030952Y-89513690D01*
X17078571Y-89537500D01*
X17102380Y-89561309D01*
X17126190Y-89608928D01*
X17126190Y-89680357D01*
X17102380Y-89727976D01*
X17078571Y-89751785D01*
X17030952Y-89775595D01*
X16840476Y-89775595D01*
X17626190Y-90013690D02*
X17459523Y-89775595D01*
X17340476Y-90013690D02*
X17340476Y-89513690D01*
X17530952Y-89513690D01*
X17578571Y-89537500D01*
X17602380Y-89561309D01*
X17626190Y-89608928D01*
X17626190Y-89680357D01*
X17602380Y-89727976D01*
X17578571Y-89751785D01*
X17530952Y-89775595D01*
X17340476Y-89775595D01*
X17935714Y-89513690D02*
X18030952Y-89513690D01*
X18078571Y-89537500D01*
X18126190Y-89585119D01*
X18150000Y-89680357D01*
X18150000Y-89847023D01*
X18126190Y-89942261D01*
X18078571Y-89989880D01*
X18030952Y-90013690D01*
X17935714Y-90013690D01*
X17888095Y-89989880D01*
X17840476Y-89942261D01*
X17816666Y-89847023D01*
X17816666Y-89680357D01*
X17840476Y-89585119D01*
X17888095Y-89537500D01*
X17935714Y-89513690D01*
X18626190Y-89537500D02*
X18578571Y-89513690D01*
X18507142Y-89513690D01*
X18435714Y-89537500D01*
X18388095Y-89585119D01*
X18364285Y-89632738D01*
X18340476Y-89727976D01*
X18340476Y-89799404D01*
X18364285Y-89894642D01*
X18388095Y-89942261D01*
X18435714Y-89989880D01*
X18507142Y-90013690D01*
X18554761Y-90013690D01*
X18626190Y-89989880D01*
X18650000Y-89966071D01*
X18650000Y-89799404D01*
X18554761Y-89799404D01*
X19150000Y-90013690D02*
X18983333Y-89775595D01*
X18864285Y-90013690D02*
X18864285Y-89513690D01*
X19054761Y-89513690D01*
X19102380Y-89537500D01*
X19126190Y-89561309D01*
X19150000Y-89608928D01*
X19150000Y-89680357D01*
X19126190Y-89727976D01*
X19102380Y-89751785D01*
X19054761Y-89775595D01*
X18864285Y-89775595D01*
X19340476Y-89870833D02*
X19578571Y-89870833D01*
X19292857Y-90013690D02*
X19459523Y-89513690D01*
X19626190Y-90013690D01*
X19792857Y-90013690D02*
X19792857Y-89513690D01*
X19959523Y-89870833D01*
X20126190Y-89513690D01*
X20126190Y-90013690D01*
X20364285Y-90013690D02*
X20364285Y-89513690D01*
X20530952Y-89870833D01*
X20697619Y-89513690D01*
X20697619Y-90013690D01*
X20935714Y-90013690D02*
X20935714Y-89513690D01*
X21173809Y-90013690D02*
X21173809Y-89513690D01*
X21459523Y-90013690D01*
X21459523Y-89513690D01*
X21959523Y-89537500D02*
X21911904Y-89513690D01*
X21840476Y-89513690D01*
X21769047Y-89537500D01*
X21721428Y-89585119D01*
X21697619Y-89632738D01*
X21673809Y-89727976D01*
X21673809Y-89799404D01*
X21697619Y-89894642D01*
X21721428Y-89942261D01*
X21769047Y-89989880D01*
X21840476Y-90013690D01*
X21888095Y-90013690D01*
X21959523Y-89989880D01*
X21983333Y-89966071D01*
X21983333Y-89799404D01*
X21888095Y-89799404D01*
X19173809Y-101500000D02*
X19126190Y-101476190D01*
X19054761Y-101476190D01*
X18983333Y-101500000D01*
X18935714Y-101547619D01*
X18911904Y-101595238D01*
X18888095Y-101690476D01*
X18888095Y-101761904D01*
X18911904Y-101857142D01*
X18935714Y-101904761D01*
X18983333Y-101952380D01*
X19054761Y-101976190D01*
X19102380Y-101976190D01*
X19173809Y-101952380D01*
X19197619Y-101928571D01*
X19197619Y-101761904D01*
X19102380Y-101761904D01*
X19411904Y-101976190D02*
X19411904Y-101476190D01*
X19602380Y-101476190D01*
X19650000Y-101500000D01*
X19673809Y-101523809D01*
X19697619Y-101571428D01*
X19697619Y-101642857D01*
X19673809Y-101690476D01*
X19650000Y-101714285D01*
X19602380Y-101738095D01*
X19411904Y-101738095D01*
X19911904Y-101976190D02*
X19911904Y-101476190D01*
X20245238Y-101476190D02*
X20340476Y-101476190D01*
X20388095Y-101500000D01*
X20435714Y-101547619D01*
X20459523Y-101642857D01*
X20459523Y-101809523D01*
X20435714Y-101904761D01*
X20388095Y-101952380D01*
X20340476Y-101976190D01*
X20245238Y-101976190D01*
X20197619Y-101952380D01*
X20150000Y-101904761D01*
X20126190Y-101809523D01*
X20126190Y-101642857D01*
X20150000Y-101547619D01*
X20197619Y-101500000D01*
X20245238Y-101476190D01*
X20650000Y-101523809D02*
X20673809Y-101500000D01*
X20721428Y-101476190D01*
X20840476Y-101476190D01*
X20888095Y-101500000D01*
X20911904Y-101523809D01*
X20935714Y-101571428D01*
X20935714Y-101619047D01*
X20911904Y-101690476D01*
X20626190Y-101976190D01*
X20935714Y-101976190D01*
X21173809Y-101976190D02*
X21269047Y-101976190D01*
X21316666Y-101952380D01*
X21340476Y-101928571D01*
X21388095Y-101857142D01*
X21411904Y-101761904D01*
X21411904Y-101571428D01*
X21388095Y-101523809D01*
X21364285Y-101500000D01*
X21316666Y-101476190D01*
X21221428Y-101476190D01*
X21173809Y-101500000D01*
X21150000Y-101523809D01*
X21126190Y-101571428D01*
X21126190Y-101690476D01*
X21150000Y-101738095D01*
X21173809Y-101761904D01*
X21221428Y-101785714D01*
X21316666Y-101785714D01*
X21364285Y-101761904D01*
X21388095Y-101738095D01*
X21411904Y-101690476D01*
X19173809Y-97800000D02*
X19126190Y-97776190D01*
X19054761Y-97776190D01*
X18983333Y-97800000D01*
X18935714Y-97847619D01*
X18911904Y-97895238D01*
X18888095Y-97990476D01*
X18888095Y-98061904D01*
X18911904Y-98157142D01*
X18935714Y-98204761D01*
X18983333Y-98252380D01*
X19054761Y-98276190D01*
X19102380Y-98276190D01*
X19173809Y-98252380D01*
X19197619Y-98228571D01*
X19197619Y-98061904D01*
X19102380Y-98061904D01*
X19411904Y-98276190D02*
X19411904Y-97776190D01*
X19602380Y-97776190D01*
X19650000Y-97800000D01*
X19673809Y-97823809D01*
X19697619Y-97871428D01*
X19697619Y-97942857D01*
X19673809Y-97990476D01*
X19650000Y-98014285D01*
X19602380Y-98038095D01*
X19411904Y-98038095D01*
X19911904Y-98276190D02*
X19911904Y-97776190D01*
X20245238Y-97776190D02*
X20340476Y-97776190D01*
X20388095Y-97800000D01*
X20435714Y-97847619D01*
X20459523Y-97942857D01*
X20459523Y-98109523D01*
X20435714Y-98204761D01*
X20388095Y-98252380D01*
X20340476Y-98276190D01*
X20245238Y-98276190D01*
X20197619Y-98252380D01*
X20150000Y-98204761D01*
X20126190Y-98109523D01*
X20126190Y-97942857D01*
X20150000Y-97847619D01*
X20197619Y-97800000D01*
X20245238Y-97776190D01*
X20650000Y-97823809D02*
X20673809Y-97800000D01*
X20721428Y-97776190D01*
X20840476Y-97776190D01*
X20888095Y-97800000D01*
X20911904Y-97823809D01*
X20935714Y-97871428D01*
X20935714Y-97919047D01*
X20911904Y-97990476D01*
X20626190Y-98276190D01*
X20935714Y-98276190D01*
X21221428Y-97990476D02*
X21173809Y-97966666D01*
X21150000Y-97942857D01*
X21126190Y-97895238D01*
X21126190Y-97871428D01*
X21150000Y-97823809D01*
X21173809Y-97800000D01*
X21221428Y-97776190D01*
X21316666Y-97776190D01*
X21364285Y-97800000D01*
X21388095Y-97823809D01*
X21411904Y-97871428D01*
X21411904Y-97895238D01*
X21388095Y-97942857D01*
X21364285Y-97966666D01*
X21316666Y-97990476D01*
X21221428Y-97990476D01*
X21173809Y-98014285D01*
X21150000Y-98038095D01*
X21126190Y-98085714D01*
X21126190Y-98180952D01*
X21150000Y-98228571D01*
X21173809Y-98252380D01*
X21221428Y-98276190D01*
X21316666Y-98276190D01*
X21364285Y-98252380D01*
X21388095Y-98228571D01*
X21411904Y-98180952D01*
X21411904Y-98085714D01*
X21388095Y-98038095D01*
X21364285Y-98014285D01*
X21316666Y-97990476D01*
D11*
X54450000Y-99325000D02*
X53075000Y-99325000D01*
X61700000Y-98875000D02*
X61175000Y-98875000D01*
X61700000Y-106125000D02*
X61175000Y-106125000D01*
X54450000Y-106125000D02*
X54975000Y-106125000D01*
X54450000Y-98875000D02*
X54975000Y-98875000D01*
X54450000Y-106125000D02*
X54450000Y-105600000D01*
X61700000Y-106125000D02*
X61700000Y-105600000D01*
X61700000Y-98875000D02*
X61700000Y-99400000D01*
X54450000Y-98875000D02*
X54450000Y-99325000D01*
D13*
X56600000Y-123650000D02*
X56600000Y-123850000D01*
X56600000Y-129850000D02*
X56600000Y-129650000D01*
X49900000Y-129850000D02*
X49900000Y-129650000D01*
X49900000Y-123650000D02*
X49900000Y-123850000D01*
X49900000Y-125550000D02*
X49900000Y-127950000D01*
X56600000Y-125550000D02*
X56600000Y-127950000D01*
X56600000Y-123650000D02*
X49900000Y-123650000D01*
X49900000Y-129850000D02*
X56600000Y-129850000D01*
X75520000Y-93965000D02*
X75520000Y-93265000D01*
X76720000Y-93265000D02*
X76720000Y-93965000D01*
X73745000Y-93190000D02*
X73745000Y-93890000D01*
X72545000Y-93890000D02*
X72545000Y-93190000D01*
X76325000Y-121655000D02*
X76325000Y-122355000D01*
X75125000Y-122355000D02*
X75125000Y-121655000D01*
X76355000Y-118810000D02*
X76355000Y-119510000D01*
X75155000Y-119510000D02*
X75155000Y-118810000D01*
X75105000Y-125280000D02*
X75105000Y-124580000D01*
X76305000Y-124580000D02*
X76305000Y-125280000D01*
X92730000Y-97690000D02*
X85110000Y-97690000D01*
X93490000Y-96930000D02*
X92730000Y-97690000D01*
X92730000Y-89310000D02*
X93490000Y-90070000D01*
X85110000Y-89310000D02*
X92730000Y-89310000D01*
X85110000Y-97690000D02*
X85110000Y-95010000D01*
X85110000Y-89310000D02*
X85110000Y-91990000D01*
X93490000Y-96930000D02*
X93490000Y-95010000D01*
X93490000Y-90070000D02*
X93490000Y-91990000D01*
X93490000Y-107970000D02*
X93490000Y-109890000D01*
X93490000Y-114830000D02*
X93490000Y-112910000D01*
X85110000Y-107210000D02*
X85110000Y-109890000D01*
X85110000Y-115590000D02*
X85110000Y-112910000D01*
X85110000Y-107210000D02*
X92730000Y-107210000D01*
X92730000Y-107210000D02*
X93490000Y-107970000D01*
X93490000Y-114830000D02*
X92730000Y-115590000D01*
X92730000Y-115590000D02*
X85110000Y-115590000D01*
X92730000Y-106690000D02*
X85110000Y-106690000D01*
X93490000Y-105930000D02*
X92730000Y-106690000D01*
X92730000Y-98310000D02*
X93490000Y-99070000D01*
X85110000Y-98310000D02*
X92730000Y-98310000D01*
X85110000Y-106690000D02*
X85110000Y-104010000D01*
X85110000Y-98310000D02*
X85110000Y-100990000D01*
X93490000Y-105930000D02*
X93490000Y-104010000D01*
X93490000Y-99070000D02*
X93490000Y-100990000D01*
X75220000Y-116630000D02*
X75220000Y-115930000D01*
X76420000Y-115930000D02*
X76420000Y-116630000D01*
X78570000Y-95315000D02*
X78570000Y-94615000D01*
X79770000Y-94615000D02*
X79770000Y-95315000D01*
X79945000Y-95940000D02*
X79945000Y-95240000D01*
X81145000Y-95240000D02*
X81145000Y-95940000D01*
X43500000Y-125750000D02*
X43500000Y-126450000D01*
X42300000Y-126450000D02*
X42300000Y-125750000D01*
X40075000Y-122225000D02*
X40775000Y-122225000D01*
X40775000Y-123425000D02*
X40075000Y-123425000D01*
X32125000Y-122975000D02*
X32125000Y-123675000D01*
X30925000Y-123675000D02*
X30925000Y-122975000D01*
X54500000Y-114660000D02*
X54500000Y-115360000D01*
X53300000Y-115360000D02*
X53300000Y-114660000D01*
X56480000Y-115390000D02*
X56480000Y-114690000D01*
X57680000Y-114690000D02*
X57680000Y-115390000D01*
X60900000Y-114640000D02*
X60900000Y-115340000D01*
X59700000Y-115340000D02*
X59700000Y-114640000D01*
X71170000Y-97040000D02*
X70470000Y-97040000D01*
X70470000Y-95840000D02*
X71170000Y-95840000D01*
X29075000Y-122475000D02*
X29075000Y-123475000D01*
X30775000Y-123475000D02*
X30775000Y-122475000D01*
X26850000Y-123500000D02*
X26850000Y-122500000D01*
X25150000Y-122500000D02*
X25150000Y-123500000D01*
X28200000Y-122800000D02*
X28200000Y-123500000D01*
X27000000Y-123500000D02*
X27000000Y-122800000D01*
X74730000Y-86090000D02*
X74730000Y-87090000D01*
X76430000Y-87090000D02*
X76430000Y-86090000D01*
X67250000Y-82355000D02*
X66550000Y-82355000D01*
X66550000Y-81155000D02*
X67250000Y-81155000D01*
X98750000Y-84720000D02*
X99750000Y-84720000D01*
X99750000Y-84720000D02*
X99750000Y-82620000D01*
X98750000Y-84720000D02*
X98750000Y-82620000D01*
X69460000Y-94510000D02*
X69460000Y-92410000D01*
X70460000Y-94510000D02*
X70460000Y-92410000D01*
X69460000Y-94510000D02*
X70460000Y-94510000D01*
X78135000Y-85680000D02*
X78135000Y-87780000D01*
X77135000Y-85680000D02*
X77135000Y-87780000D01*
X78135000Y-85680000D02*
X77135000Y-85680000D01*
X68960000Y-79855000D02*
X72810000Y-79855000D01*
X68960000Y-81855000D02*
X72810000Y-81855000D01*
X68960000Y-79855000D02*
X68960000Y-81855000D01*
X54175000Y-84590000D02*
X54175000Y-87390000D01*
X52775000Y-84590000D02*
X52775000Y-87390000D01*
X54175000Y-84590000D02*
X52775000Y-84590000D01*
X51525000Y-84590000D02*
X50125000Y-84590000D01*
X50125000Y-84590000D02*
X50125000Y-87390000D01*
X51525000Y-84590000D02*
X51525000Y-87390000D01*
X59475000Y-84565000D02*
X58075000Y-84565000D01*
X58075000Y-84565000D02*
X58075000Y-87365000D01*
X59475000Y-84565000D02*
X59475000Y-87365000D01*
X56825000Y-84565000D02*
X56825000Y-87365000D01*
X55425000Y-84565000D02*
X55425000Y-87365000D01*
X56825000Y-84565000D02*
X55425000Y-84565000D01*
X6600000Y-89690000D02*
X7930000Y-89690000D01*
X6600000Y-91020000D02*
X6600000Y-89690000D01*
X9200000Y-89690000D02*
X11800000Y-89690000D01*
X9200000Y-92290000D02*
X9200000Y-89690000D01*
X6600000Y-92290000D02*
X9200000Y-92290000D01*
X11800000Y-89690000D02*
X11800000Y-102510000D01*
X6600000Y-92290000D02*
X6600000Y-102510000D01*
X6600000Y-102510000D02*
X11800000Y-102510000D01*
D11*
X14200000Y-96100000D02*
X14200000Y-85600000D01*
X14200000Y-85600000D02*
X4200000Y-85600000D01*
X4200000Y-85600000D02*
X4200000Y-106600000D01*
X4200000Y-106600000D02*
X14200000Y-106600000D01*
X14200000Y-106600000D02*
X14200000Y-96100000D01*
X4200000Y-93600000D02*
X5200000Y-93600000D01*
X5200000Y-93600000D02*
X5200000Y-98600000D01*
X5200000Y-98600000D02*
X4200000Y-98600000D01*
D13*
X23530000Y-93710000D02*
X23530000Y-93075000D01*
X23530000Y-93075000D02*
X24165000Y-93075000D01*
D14*
X4326200Y-107561200D02*
X4326200Y-108672500D01*
X4326200Y-108672500D02*
X4326200Y-118038700D01*
X4326200Y-118038700D02*
X15915000Y-118038800D01*
X7660000Y-114070000D02*
X13375000Y-114070000D01*
X13375000Y-114070000D02*
X13375000Y-111530000D01*
X13375000Y-111530000D02*
X7660000Y-111530000D01*
X4326300Y-116927500D02*
X7660000Y-116927500D01*
X7660000Y-116927500D02*
X7660000Y-115975000D01*
X7660000Y-115975000D02*
X7660000Y-114070000D01*
X7660000Y-111530000D02*
X7660000Y-109625000D01*
X7660000Y-109625000D02*
X7660000Y-108672500D01*
X7660000Y-108672500D02*
X4326200Y-108672500D01*
X7660000Y-115975000D02*
X7025000Y-115975000D01*
X5755000Y-114705000D02*
G75*
G03X7025000Y-115975000I1270000J0D01*
G01*
X5755000Y-114705000D02*
X5755000Y-110895000D01*
X7025000Y-109625000D02*
G75*
G03X5755000Y-110895000I0J-1270000D01*
G01*
X7025000Y-109625000D02*
X7660000Y-109625000D01*
X15915000Y-118038800D02*
X15915000Y-107561200D01*
X15915000Y-107561200D02*
X4326200Y-107561200D01*
D15*
G36*
X4326200Y-116768800D02*
G01*
X6231100Y-116292400D01*
X4326200Y-115816300D01*
X4326200Y-116768800D01*
G37*
D16*
X80950000Y-82200000D02*
G75*
G03X80950000Y-82200000I-150000J0D01*
G01*
D17*
X81450000Y-83500000D02*
X82470000Y-84400000D01*
X84450000Y-86150000D02*
X83320000Y-85150000D01*
X81450000Y-80700000D02*
X82470000Y-79800000D01*
X84450000Y-78050000D02*
X83320000Y-79050000D01*
X81450000Y-83500000D02*
X81450000Y-80700000D01*
X96950000Y-86150000D02*
X84450000Y-86150000D01*
X96950000Y-78050000D02*
X96950000Y-86150000D01*
X84450000Y-78050000D02*
X96950000Y-78050000D01*
D11*
X72760000Y-82205000D02*
X74510000Y-84205000D01*
X74510000Y-84205000D02*
X74510000Y-86205000D01*
X74510000Y-86205000D02*
X72760000Y-88205000D01*
X70760000Y-88205000D02*
X69010000Y-86205000D01*
X69010000Y-86205000D02*
X69010000Y-84205000D01*
X69010000Y-84205000D02*
X70760000Y-82205000D01*
X70760000Y-82205000D02*
X72760000Y-82205000D01*
X70760000Y-88205000D02*
X72760000Y-88205000D01*
X73562776Y-85205000D02*
G75*
G03X73562776Y-85205000I-1802776J0D01*
G01*
D13*
X73990000Y-94040000D02*
X73990000Y-93040000D01*
X75350000Y-93040000D02*
X75350000Y-94040000D01*
X79330000Y-121380000D02*
X79330000Y-122380000D01*
X77970000Y-122380000D02*
X77970000Y-121380000D01*
X77975000Y-119510000D02*
X77975000Y-118510000D01*
X79335000Y-118510000D02*
X79335000Y-119510000D01*
X77950000Y-125280000D02*
X77950000Y-124280000D01*
X79310000Y-124280000D02*
X79310000Y-125280000D01*
X71060000Y-91640000D02*
X70060000Y-91640000D01*
X70060000Y-90280000D02*
X71060000Y-90280000D01*
X99900000Y-85690000D02*
X99900000Y-86690000D01*
X98540000Y-86690000D02*
X98540000Y-85690000D01*
X70730000Y-93560000D02*
X70730000Y-92560000D01*
X72090000Y-92560000D02*
X72090000Y-93560000D01*
X77830000Y-121380000D02*
X77830000Y-122380000D01*
X76470000Y-122380000D02*
X76470000Y-121380000D01*
X76500000Y-119510000D02*
X76500000Y-118510000D01*
X77860000Y-118510000D02*
X77860000Y-119510000D01*
X76450000Y-125280000D02*
X76450000Y-124280000D01*
X77810000Y-124280000D02*
X77810000Y-125280000D01*
X79470000Y-115630000D02*
X79470000Y-116630000D01*
X78110000Y-116630000D02*
X78110000Y-115630000D01*
X77970000Y-115630000D02*
X77970000Y-116630000D01*
X76610000Y-116630000D02*
X76610000Y-115630000D01*
X37905000Y-119525000D02*
X37905000Y-120725000D01*
X36145000Y-120725000D02*
X36145000Y-119525000D01*
X33225000Y-127120000D02*
X34425000Y-127120000D01*
X34425000Y-128880000D02*
X33225000Y-128880000D01*
X78420000Y-87580000D02*
X78420000Y-86580000D01*
X79780000Y-86580000D02*
X79780000Y-87580000D01*
X53130000Y-114380000D02*
X53130000Y-115380000D01*
X51770000Y-115380000D02*
X51770000Y-114380000D01*
X56330000Y-114400000D02*
X56330000Y-115400000D01*
X54970000Y-115400000D02*
X54970000Y-114400000D01*
X58160000Y-115350000D02*
X58160000Y-114350000D01*
X59520000Y-114350000D02*
X59520000Y-115350000D01*
X65410000Y-87685000D02*
X64410000Y-87685000D01*
X64410000Y-86325000D02*
X65410000Y-86325000D01*
X63380000Y-85080000D02*
X63380000Y-84080000D01*
X64740000Y-84080000D02*
X64740000Y-85080000D01*
X34720000Y-97760000D02*
X34720000Y-96560000D01*
X36480000Y-96560000D02*
X36480000Y-97760000D01*
X32870000Y-104150000D02*
X32870000Y-102950000D01*
X34630000Y-102950000D02*
X34630000Y-104150000D01*
X34580000Y-96560000D02*
X34580000Y-97760000D01*
X32820000Y-97760000D02*
X32820000Y-96560000D01*
X37180000Y-85250000D02*
X37180000Y-86450000D01*
X35420000Y-86450000D02*
X35420000Y-85250000D01*
D11*
X71545000Y-99215000D02*
X70270000Y-99215000D01*
X78895000Y-98765000D02*
X78345000Y-98765000D01*
X78895000Y-106115000D02*
X78345000Y-106115000D01*
X71545000Y-106115000D02*
X72095000Y-106115000D01*
X71545000Y-98765000D02*
X72095000Y-98765000D01*
X71545000Y-106115000D02*
X71545000Y-105565000D01*
X78895000Y-106115000D02*
X78895000Y-105565000D01*
X78895000Y-98765000D02*
X78895000Y-99315000D01*
X71545000Y-98765000D02*
X71545000Y-99215000D01*
D13*
X67765001Y-82670001D02*
X65315001Y-82670001D01*
X65965001Y-85890001D02*
X67765001Y-85890001D01*
X38900000Y-123625000D02*
X38900000Y-127625000D01*
X42050000Y-123625000D02*
X38900000Y-123625000D01*
X39800000Y-87850000D02*
X46500000Y-87850000D01*
X46500000Y-81650000D02*
X39800000Y-81650000D01*
X46500000Y-83550000D02*
X46500000Y-85950000D01*
X39800000Y-83550000D02*
X39800000Y-85950000D01*
X39800000Y-81650000D02*
X39800000Y-81850000D01*
X39800000Y-87850000D02*
X39800000Y-87650000D01*
X46500000Y-87850000D02*
X46500000Y-87650000D01*
X46500000Y-81650000D02*
X46500000Y-81850000D01*
X50850000Y-84015000D02*
X53450000Y-84015000D01*
X53450000Y-84015000D02*
X53450000Y-83815000D01*
X53450000Y-81815000D02*
X53450000Y-81615000D01*
X53450000Y-81615000D02*
X50850000Y-81615000D01*
X50850000Y-81615000D02*
X50850000Y-81715000D01*
X50850000Y-81715000D02*
X50450000Y-81715000D01*
X50850000Y-84015000D02*
X50850000Y-83815000D01*
X56150000Y-84015000D02*
X56150000Y-83815000D01*
X56150000Y-81715000D02*
X55750000Y-81715000D01*
X56150000Y-81615000D02*
X56150000Y-81715000D01*
X58750000Y-81615000D02*
X56150000Y-81615000D01*
X58750000Y-81815000D02*
X58750000Y-81615000D01*
X58750000Y-84015000D02*
X58750000Y-83815000D01*
X56150000Y-84015000D02*
X58750000Y-84015000D01*
D11*
X32725000Y-122275000D02*
X32725000Y-123050000D01*
X37025000Y-122275000D02*
X37025000Y-123050000D01*
X37025000Y-126575000D02*
X37025000Y-125800000D01*
X32725000Y-126575000D02*
X32725000Y-125800000D01*
X37025000Y-122275000D02*
X36250000Y-122275000D01*
X37025000Y-126575000D02*
X36250000Y-126575000D01*
X32725000Y-122275000D02*
X33500000Y-122275000D01*
D13*
X79795000Y-109810000D02*
X80295000Y-109810000D01*
X80295000Y-108870000D02*
X79795000Y-108870000D01*
X78195000Y-108870000D02*
X77695000Y-108870000D01*
X77695000Y-109810000D02*
X78195000Y-109810000D01*
X75620000Y-109810000D02*
X76120000Y-109810000D01*
X76120000Y-108870000D02*
X75620000Y-108870000D01*
X74520000Y-97060000D02*
X75020000Y-97060000D01*
X75020000Y-96120000D02*
X74520000Y-96120000D01*
X76945000Y-97060000D02*
X77445000Y-97060000D01*
X77445000Y-96120000D02*
X76945000Y-96120000D01*
X102730000Y-118040000D02*
G75*
G03X102730000Y-118040000I-1500000J0D01*
G01*
X106410000Y-118030000D02*
G75*
G03X106410000Y-118030000I-1500000J0D01*
G01*
X110120000Y-118070000D02*
G75*
G03X110120000Y-118070000I-1500000J0D01*
G01*
X99060000Y-118040000D02*
G75*
G03X99060000Y-118040000I-1500000J0D01*
G01*
X28350000Y-126825000D02*
G75*
G03X28350000Y-126825000I-1500000J0D01*
G01*
X17050000Y-127275000D02*
G75*
G03X17050000Y-127275000I-1500000J0D01*
G01*
X32550000Y-102600000D02*
G75*
G03X32550000Y-102600000I-1500000J0D01*
G01*
X24875000Y-120225000D02*
G75*
G03X24875000Y-120225000I-1500000J0D01*
G01*
X32540000Y-99580000D02*
G75*
G03X32540000Y-99580000I-1500000J0D01*
G01*
X17050000Y-123500000D02*
G75*
G03X17050000Y-123500000I-1500000J0D01*
G01*
X32530000Y-96190000D02*
G75*
G03X32530000Y-96190000I-1500000J0D01*
G01*
X18645000Y-98065000D02*
G75*
G03X18645000Y-98065000I-1500000J0D01*
G01*
X32505000Y-92800000D02*
G75*
G03X32505000Y-92800000I-1500000J0D01*
G01*
X18645000Y-101665000D02*
G75*
G03X18645000Y-101665000I-1500000J0D01*
G01*
X32505000Y-89350000D02*
G75*
G03X32505000Y-89350000I-1500000J0D01*
G01*
X28850000Y-84180000D02*
G75*
G03X28850000Y-84180000I-1500000J0D01*
G01*
X22040000Y-84190000D02*
G75*
G03X22040000Y-84190000I-1500000J0D01*
G01*
X69000000Y-89350000D02*
G75*
G03X69000000Y-89350000I-1500000J0D01*
G01*
X104160000Y-86940000D02*
G75*
G03X104160000Y-86940000I-1500000J0D01*
G01*
X100710000Y-79740000D02*
G75*
G03X100710000Y-79740000I-1500000J0D01*
G01*
X65400000Y-89400000D02*
G75*
G03X65400000Y-89400000I-1500000J0D01*
G01*
X50100000Y-98025000D02*
G75*
G03X50100000Y-98025000I-1500000J0D01*
G01*
X50100000Y-101250000D02*
G75*
G03X50100000Y-101250000I-1500000J0D01*
G01*
X50100000Y-104450000D02*
G75*
G03X50100000Y-104450000I-1500000J0D01*
G01*
X50100000Y-107875000D02*
G75*
G03X50100000Y-107875000I-1500000J0D01*
G01*
X53950000Y-111575000D02*
G75*
G03X53950000Y-111575000I-1500000J0D01*
G01*
X57175000Y-111575000D02*
G75*
G03X57175000Y-111575000I-1500000J0D01*
G01*
X60350000Y-111575000D02*
G75*
G03X60350000Y-111575000I-1500000J0D01*
G01*
X67870000Y-94215000D02*
G75*
G03X67870000Y-94215000I-1500000J0D01*
G01*
X67845000Y-97390000D02*
G75*
G03X67845000Y-97390000I-1500000J0D01*
G01*
X67820000Y-100565000D02*
G75*
G03X67820000Y-100565000I-1500000J0D01*
G01*
X67845000Y-103740000D02*
G75*
G03X67845000Y-103740000I-1500000J0D01*
G01*
X67845000Y-106940000D02*
G75*
G03X67845000Y-106940000I-1500000J0D01*
G01*
X67845000Y-110115000D02*
G75*
G03X67845000Y-110115000I-1500000J0D01*
G01*
X71590000Y-113670000D02*
G75*
G03X71590000Y-113670000I-1500000J0D01*
G01*
X31000000Y-115275000D02*
G75*
G03X31000000Y-115275000I-1500000J0D01*
G01*
X37475000Y-115275000D02*
G75*
G03X37475000Y-115275000I-1500000J0D01*
G01*
X34300000Y-115275000D02*
G75*
G03X34300000Y-115275000I-1500000J0D01*
G01*
X40700000Y-115275000D02*
G75*
G03X40700000Y-115275000I-1500000J0D01*
G01*
X43725000Y-119175000D02*
G75*
G03X43725000Y-119175000I-1500000J0D01*
G01*
X50100000Y-111500000D02*
G75*
G03X50100000Y-111500000I-1500000J0D01*
G01*
X23900000Y-115250000D02*
G75*
G03X23900000Y-115250000I-1500000J0D01*
G01*
X67790000Y-113640000D02*
G75*
G03X67790000Y-113640000I-1500000J0D01*
G01*
X27650000Y-115250000D02*
G75*
G03X27650000Y-115250000I-1500000J0D01*
G01*
X23200000Y-118750000D02*
X24200000Y-118750000D01*
X24200000Y-117050000D02*
X23200000Y-117050000D01*
X18900000Y-122950000D02*
X18900000Y-122250000D01*
X20100000Y-122250000D02*
X20100000Y-122950000D01*
X15200000Y-120480000D02*
X14000000Y-120480000D01*
X14000000Y-118720000D02*
X15200000Y-118720000D01*
D11*
X25850000Y-117275000D02*
X29025000Y-117275000D01*
X26575000Y-120525000D02*
X29025000Y-120525000D01*
X23725000Y-122875000D02*
X21275000Y-122875000D01*
X24450000Y-126125000D02*
X21275000Y-126125000D01*
D10*
X53244047Y-107926190D02*
X53244047Y-108330952D01*
X53267857Y-108378571D01*
X53291666Y-108402380D01*
X53339285Y-108426190D01*
X53434523Y-108426190D01*
X53482142Y-108402380D01*
X53505952Y-108378571D01*
X53529761Y-108330952D01*
X53529761Y-107926190D01*
X54005952Y-107926190D02*
X53767857Y-107926190D01*
X53744047Y-108164285D01*
X53767857Y-108140476D01*
X53815476Y-108116666D01*
X53934523Y-108116666D01*
X53982142Y-108140476D01*
X54005952Y-108164285D01*
X54029761Y-108211904D01*
X54029761Y-108330952D01*
X54005952Y-108378571D01*
X53982142Y-108402380D01*
X53934523Y-108426190D01*
X53815476Y-108426190D01*
X53767857Y-108402380D01*
X53744047Y-108378571D01*
X46433333Y-129752380D02*
X46504761Y-129776190D01*
X46623809Y-129776190D01*
X46671428Y-129752380D01*
X46695238Y-129728571D01*
X46719047Y-129680952D01*
X46719047Y-129633333D01*
X46695238Y-129585714D01*
X46671428Y-129561904D01*
X46623809Y-129538095D01*
X46528571Y-129514285D01*
X46480952Y-129490476D01*
X46457142Y-129466666D01*
X46433333Y-129419047D01*
X46433333Y-129371428D01*
X46457142Y-129323809D01*
X46480952Y-129300000D01*
X46528571Y-129276190D01*
X46647619Y-129276190D01*
X46719047Y-129300000D01*
X46885714Y-129276190D02*
X47004761Y-129776190D01*
X47100000Y-129419047D01*
X47195238Y-129776190D01*
X47314285Y-129276190D01*
X47480952Y-129323809D02*
X47504761Y-129300000D01*
X47552380Y-129276190D01*
X47671428Y-129276190D01*
X47719047Y-129300000D01*
X47742857Y-129323809D01*
X47766666Y-129371428D01*
X47766666Y-129419047D01*
X47742857Y-129490476D01*
X47457142Y-129776190D01*
X47766666Y-129776190D01*
X77391666Y-93278571D02*
X77367857Y-93302380D01*
X77296428Y-93326190D01*
X77248809Y-93326190D01*
X77177380Y-93302380D01*
X77129761Y-93254761D01*
X77105952Y-93207142D01*
X77082142Y-93111904D01*
X77082142Y-93040476D01*
X77105952Y-92945238D01*
X77129761Y-92897619D01*
X77177380Y-92850000D01*
X77248809Y-92826190D01*
X77296428Y-92826190D01*
X77367857Y-92850000D01*
X77391666Y-92873809D01*
X77867857Y-93326190D02*
X77582142Y-93326190D01*
X77725000Y-93326190D02*
X77725000Y-92826190D01*
X77677380Y-92897619D01*
X77629761Y-92945238D01*
X77582142Y-92969047D01*
X73066666Y-95578571D02*
X73042857Y-95602380D01*
X72971428Y-95626190D01*
X72923809Y-95626190D01*
X72852380Y-95602380D01*
X72804761Y-95554761D01*
X72780952Y-95507142D01*
X72757142Y-95411904D01*
X72757142Y-95340476D01*
X72780952Y-95245238D01*
X72804761Y-95197619D01*
X72852380Y-95150000D01*
X72923809Y-95126190D01*
X72971428Y-95126190D01*
X73042857Y-95150000D01*
X73066666Y-95173809D01*
X73519047Y-95126190D02*
X73280952Y-95126190D01*
X73257142Y-95364285D01*
X73280952Y-95340476D01*
X73328571Y-95316666D01*
X73447619Y-95316666D01*
X73495238Y-95340476D01*
X73519047Y-95364285D01*
X73542857Y-95411904D01*
X73542857Y-95530952D01*
X73519047Y-95578571D01*
X73495238Y-95602380D01*
X73447619Y-95626190D01*
X73328571Y-95626190D01*
X73280952Y-95602380D01*
X73257142Y-95578571D01*
X74366666Y-122178571D02*
X74342857Y-122202380D01*
X74271428Y-122226190D01*
X74223809Y-122226190D01*
X74152380Y-122202380D01*
X74104761Y-122154761D01*
X74080952Y-122107142D01*
X74057142Y-122011904D01*
X74057142Y-121940476D01*
X74080952Y-121845238D01*
X74104761Y-121797619D01*
X74152380Y-121750000D01*
X74223809Y-121726190D01*
X74271428Y-121726190D01*
X74342857Y-121750000D01*
X74366666Y-121773809D01*
X74795238Y-121726190D02*
X74700000Y-121726190D01*
X74652380Y-121750000D01*
X74628571Y-121773809D01*
X74580952Y-121845238D01*
X74557142Y-121940476D01*
X74557142Y-122130952D01*
X74580952Y-122178571D01*
X74604761Y-122202380D01*
X74652380Y-122226190D01*
X74747619Y-122226190D01*
X74795238Y-122202380D01*
X74819047Y-122178571D01*
X74842857Y-122130952D01*
X74842857Y-122011904D01*
X74819047Y-121964285D01*
X74795238Y-121940476D01*
X74747619Y-121916666D01*
X74652380Y-121916666D01*
X74604761Y-121940476D01*
X74580952Y-121964285D01*
X74557142Y-122011904D01*
X74366666Y-119303571D02*
X74342857Y-119327380D01*
X74271428Y-119351190D01*
X74223809Y-119351190D01*
X74152380Y-119327380D01*
X74104761Y-119279761D01*
X74080952Y-119232142D01*
X74057142Y-119136904D01*
X74057142Y-119065476D01*
X74080952Y-118970238D01*
X74104761Y-118922619D01*
X74152380Y-118875000D01*
X74223809Y-118851190D01*
X74271428Y-118851190D01*
X74342857Y-118875000D01*
X74366666Y-118898809D01*
X74533333Y-118851190D02*
X74866666Y-118851190D01*
X74652380Y-119351190D01*
X74366666Y-125103571D02*
X74342857Y-125127380D01*
X74271428Y-125151190D01*
X74223809Y-125151190D01*
X74152380Y-125127380D01*
X74104761Y-125079761D01*
X74080952Y-125032142D01*
X74057142Y-124936904D01*
X74057142Y-124865476D01*
X74080952Y-124770238D01*
X74104761Y-124722619D01*
X74152380Y-124675000D01*
X74223809Y-124651190D01*
X74271428Y-124651190D01*
X74342857Y-124675000D01*
X74366666Y-124698809D01*
X74652380Y-124865476D02*
X74604761Y-124841666D01*
X74580952Y-124817857D01*
X74557142Y-124770238D01*
X74557142Y-124746428D01*
X74580952Y-124698809D01*
X74604761Y-124675000D01*
X74652380Y-124651190D01*
X74747619Y-124651190D01*
X74795238Y-124675000D01*
X74819047Y-124698809D01*
X74842857Y-124746428D01*
X74842857Y-124770238D01*
X74819047Y-124817857D01*
X74795238Y-124841666D01*
X74747619Y-124865476D01*
X74652380Y-124865476D01*
X74604761Y-124889285D01*
X74580952Y-124913095D01*
X74557142Y-124960714D01*
X74557142Y-125055952D01*
X74580952Y-125103571D01*
X74604761Y-125127380D01*
X74652380Y-125151190D01*
X74747619Y-125151190D01*
X74795238Y-125127380D01*
X74819047Y-125103571D01*
X74842857Y-125055952D01*
X74842857Y-124960714D01*
X74819047Y-124913095D01*
X74795238Y-124889285D01*
X74747619Y-124865476D01*
X94903571Y-93728571D02*
X94879761Y-93752380D01*
X94808333Y-93776190D01*
X94760714Y-93776190D01*
X94689285Y-93752380D01*
X94641666Y-93704761D01*
X94617857Y-93657142D01*
X94594047Y-93561904D01*
X94594047Y-93490476D01*
X94617857Y-93395238D01*
X94641666Y-93347619D01*
X94689285Y-93300000D01*
X94760714Y-93276190D01*
X94808333Y-93276190D01*
X94879761Y-93300000D01*
X94903571Y-93323809D01*
X95379761Y-93776190D02*
X95094047Y-93776190D01*
X95236904Y-93776190D02*
X95236904Y-93276190D01*
X95189285Y-93347619D01*
X95141666Y-93395238D01*
X95094047Y-93419047D01*
X95689285Y-93276190D02*
X95736904Y-93276190D01*
X95784523Y-93300000D01*
X95808333Y-93323809D01*
X95832142Y-93371428D01*
X95855952Y-93466666D01*
X95855952Y-93585714D01*
X95832142Y-93680952D01*
X95808333Y-93728571D01*
X95784523Y-93752380D01*
X95736904Y-93776190D01*
X95689285Y-93776190D01*
X95641666Y-93752380D01*
X95617857Y-93728571D01*
X95594047Y-93680952D01*
X95570238Y-93585714D01*
X95570238Y-93466666D01*
X95594047Y-93371428D01*
X95617857Y-93323809D01*
X95641666Y-93300000D01*
X95689285Y-93276190D01*
D11*
X93699047Y-89661428D02*
X94460952Y-89661428D01*
X94080000Y-90042380D02*
X94080000Y-89280476D01*
D10*
X95328571Y-111603571D02*
X95304761Y-111627380D01*
X95233333Y-111651190D01*
X95185714Y-111651190D01*
X95114285Y-111627380D01*
X95066666Y-111579761D01*
X95042857Y-111532142D01*
X95019047Y-111436904D01*
X95019047Y-111365476D01*
X95042857Y-111270238D01*
X95066666Y-111222619D01*
X95114285Y-111175000D01*
X95185714Y-111151190D01*
X95233333Y-111151190D01*
X95304761Y-111175000D01*
X95328571Y-111198809D01*
X95804761Y-111651190D02*
X95519047Y-111651190D01*
X95661904Y-111651190D02*
X95661904Y-111151190D01*
X95614285Y-111222619D01*
X95566666Y-111270238D01*
X95519047Y-111294047D01*
X96280952Y-111651190D02*
X95995238Y-111651190D01*
X96138095Y-111651190D02*
X96138095Y-111151190D01*
X96090476Y-111222619D01*
X96042857Y-111270238D01*
X95995238Y-111294047D01*
D11*
X93699047Y-107561428D02*
X94460952Y-107561428D01*
X94080000Y-107942380D02*
X94080000Y-107180476D01*
D10*
X94928571Y-102728571D02*
X94904761Y-102752380D01*
X94833333Y-102776190D01*
X94785714Y-102776190D01*
X94714285Y-102752380D01*
X94666666Y-102704761D01*
X94642857Y-102657142D01*
X94619047Y-102561904D01*
X94619047Y-102490476D01*
X94642857Y-102395238D01*
X94666666Y-102347619D01*
X94714285Y-102300000D01*
X94785714Y-102276190D01*
X94833333Y-102276190D01*
X94904761Y-102300000D01*
X94928571Y-102323809D01*
X95404761Y-102776190D02*
X95119047Y-102776190D01*
X95261904Y-102776190D02*
X95261904Y-102276190D01*
X95214285Y-102347619D01*
X95166666Y-102395238D01*
X95119047Y-102419047D01*
X95595238Y-102323809D02*
X95619047Y-102300000D01*
X95666666Y-102276190D01*
X95785714Y-102276190D01*
X95833333Y-102300000D01*
X95857142Y-102323809D01*
X95880952Y-102371428D01*
X95880952Y-102419047D01*
X95857142Y-102490476D01*
X95571428Y-102776190D01*
X95880952Y-102776190D01*
D11*
X93699047Y-98661428D02*
X94460952Y-98661428D01*
X94080000Y-99042380D02*
X94080000Y-98280476D01*
D10*
X75328571Y-114653571D02*
X75304761Y-114677380D01*
X75233333Y-114701190D01*
X75185714Y-114701190D01*
X75114285Y-114677380D01*
X75066666Y-114629761D01*
X75042857Y-114582142D01*
X75019047Y-114486904D01*
X75019047Y-114415476D01*
X75042857Y-114320238D01*
X75066666Y-114272619D01*
X75114285Y-114225000D01*
X75185714Y-114201190D01*
X75233333Y-114201190D01*
X75304761Y-114225000D01*
X75328571Y-114248809D01*
X75804761Y-114701190D02*
X75519047Y-114701190D01*
X75661904Y-114701190D02*
X75661904Y-114201190D01*
X75614285Y-114272619D01*
X75566666Y-114320238D01*
X75519047Y-114344047D01*
X75971428Y-114201190D02*
X76304761Y-114201190D01*
X76090476Y-114701190D01*
X78653571Y-93203571D02*
X78629761Y-93227380D01*
X78558333Y-93251190D01*
X78510714Y-93251190D01*
X78439285Y-93227380D01*
X78391666Y-93179761D01*
X78367857Y-93132142D01*
X78344047Y-93036904D01*
X78344047Y-92965476D01*
X78367857Y-92870238D01*
X78391666Y-92822619D01*
X78439285Y-92775000D01*
X78510714Y-92751190D01*
X78558333Y-92751190D01*
X78629761Y-92775000D01*
X78653571Y-92798809D01*
X79129761Y-93251190D02*
X78844047Y-93251190D01*
X78986904Y-93251190D02*
X78986904Y-92751190D01*
X78939285Y-92822619D01*
X78891666Y-92870238D01*
X78844047Y-92894047D01*
X79367857Y-93251190D02*
X79463095Y-93251190D01*
X79510714Y-93227380D01*
X79534523Y-93203571D01*
X79582142Y-93132142D01*
X79605952Y-93036904D01*
X79605952Y-92846428D01*
X79582142Y-92798809D01*
X79558333Y-92775000D01*
X79510714Y-92751190D01*
X79415476Y-92751190D01*
X79367857Y-92775000D01*
X79344047Y-92798809D01*
X79320238Y-92846428D01*
X79320238Y-92965476D01*
X79344047Y-93013095D01*
X79367857Y-93036904D01*
X79415476Y-93060714D01*
X79510714Y-93060714D01*
X79558333Y-93036904D01*
X79582142Y-93013095D01*
X79605952Y-92965476D01*
X80328571Y-93803571D02*
X80304761Y-93827380D01*
X80233333Y-93851190D01*
X80185714Y-93851190D01*
X80114285Y-93827380D01*
X80066666Y-93779761D01*
X80042857Y-93732142D01*
X80019047Y-93636904D01*
X80019047Y-93565476D01*
X80042857Y-93470238D01*
X80066666Y-93422619D01*
X80114285Y-93375000D01*
X80185714Y-93351190D01*
X80233333Y-93351190D01*
X80304761Y-93375000D01*
X80328571Y-93398809D01*
X80519047Y-93398809D02*
X80542857Y-93375000D01*
X80590476Y-93351190D01*
X80709523Y-93351190D01*
X80757142Y-93375000D01*
X80780952Y-93398809D01*
X80804761Y-93446428D01*
X80804761Y-93494047D01*
X80780952Y-93565476D01*
X80495238Y-93851190D01*
X80804761Y-93851190D01*
X81114285Y-93351190D02*
X81161904Y-93351190D01*
X81209523Y-93375000D01*
X81233333Y-93398809D01*
X81257142Y-93446428D01*
X81280952Y-93541666D01*
X81280952Y-93660714D01*
X81257142Y-93755952D01*
X81233333Y-93803571D01*
X81209523Y-93827380D01*
X81161904Y-93851190D01*
X81114285Y-93851190D01*
X81066666Y-93827380D01*
X81042857Y-93803571D01*
X81019047Y-93755952D01*
X80995238Y-93660714D01*
X80995238Y-93541666D01*
X81019047Y-93446428D01*
X81042857Y-93398809D01*
X81066666Y-93375000D01*
X81114285Y-93351190D01*
X42678571Y-128228571D02*
X42654761Y-128252380D01*
X42583333Y-128276190D01*
X42535714Y-128276190D01*
X42464285Y-128252380D01*
X42416666Y-128204761D01*
X42392857Y-128157142D01*
X42369047Y-128061904D01*
X42369047Y-127990476D01*
X42392857Y-127895238D01*
X42416666Y-127847619D01*
X42464285Y-127800000D01*
X42535714Y-127776190D01*
X42583333Y-127776190D01*
X42654761Y-127800000D01*
X42678571Y-127823809D01*
X42869047Y-127823809D02*
X42892857Y-127800000D01*
X42940476Y-127776190D01*
X43059523Y-127776190D01*
X43107142Y-127800000D01*
X43130952Y-127823809D01*
X43154761Y-127871428D01*
X43154761Y-127919047D01*
X43130952Y-127990476D01*
X42845238Y-128276190D01*
X43154761Y-128276190D01*
X43630952Y-128276190D02*
X43345238Y-128276190D01*
X43488095Y-128276190D02*
X43488095Y-127776190D01*
X43440476Y-127847619D01*
X43392857Y-127895238D01*
X43345238Y-127919047D01*
X40103571Y-121928571D02*
X40079761Y-121952380D01*
X40008333Y-121976190D01*
X39960714Y-121976190D01*
X39889285Y-121952380D01*
X39841666Y-121904761D01*
X39817857Y-121857142D01*
X39794047Y-121761904D01*
X39794047Y-121690476D01*
X39817857Y-121595238D01*
X39841666Y-121547619D01*
X39889285Y-121500000D01*
X39960714Y-121476190D01*
X40008333Y-121476190D01*
X40079761Y-121500000D01*
X40103571Y-121523809D01*
X40294047Y-121523809D02*
X40317857Y-121500000D01*
X40365476Y-121476190D01*
X40484523Y-121476190D01*
X40532142Y-121500000D01*
X40555952Y-121523809D01*
X40579761Y-121571428D01*
X40579761Y-121619047D01*
X40555952Y-121690476D01*
X40270238Y-121976190D01*
X40579761Y-121976190D01*
X40770238Y-121523809D02*
X40794047Y-121500000D01*
X40841666Y-121476190D01*
X40960714Y-121476190D01*
X41008333Y-121500000D01*
X41032142Y-121523809D01*
X41055952Y-121571428D01*
X41055952Y-121619047D01*
X41032142Y-121690476D01*
X40746428Y-121976190D01*
X41055952Y-121976190D01*
X31228571Y-121128571D02*
X31204761Y-121152380D01*
X31133333Y-121176190D01*
X31085714Y-121176190D01*
X31014285Y-121152380D01*
X30966666Y-121104761D01*
X30942857Y-121057142D01*
X30919047Y-120961904D01*
X30919047Y-120890476D01*
X30942857Y-120795238D01*
X30966666Y-120747619D01*
X31014285Y-120700000D01*
X31085714Y-120676190D01*
X31133333Y-120676190D01*
X31204761Y-120700000D01*
X31228571Y-120723809D01*
X31419047Y-120723809D02*
X31442857Y-120700000D01*
X31490476Y-120676190D01*
X31609523Y-120676190D01*
X31657142Y-120700000D01*
X31680952Y-120723809D01*
X31704761Y-120771428D01*
X31704761Y-120819047D01*
X31680952Y-120890476D01*
X31395238Y-121176190D01*
X31704761Y-121176190D01*
X31871428Y-120676190D02*
X32180952Y-120676190D01*
X32014285Y-120866666D01*
X32085714Y-120866666D01*
X32133333Y-120890476D01*
X32157142Y-120914285D01*
X32180952Y-120961904D01*
X32180952Y-121080952D01*
X32157142Y-121128571D01*
X32133333Y-121152380D01*
X32085714Y-121176190D01*
X31942857Y-121176190D01*
X31895238Y-121152380D01*
X31871428Y-121128571D01*
X53628571Y-117128571D02*
X53604761Y-117152380D01*
X53533333Y-117176190D01*
X53485714Y-117176190D01*
X53414285Y-117152380D01*
X53366666Y-117104761D01*
X53342857Y-117057142D01*
X53319047Y-116961904D01*
X53319047Y-116890476D01*
X53342857Y-116795238D01*
X53366666Y-116747619D01*
X53414285Y-116700000D01*
X53485714Y-116676190D01*
X53533333Y-116676190D01*
X53604761Y-116700000D01*
X53628571Y-116723809D01*
X53819047Y-116723809D02*
X53842857Y-116700000D01*
X53890476Y-116676190D01*
X54009523Y-116676190D01*
X54057142Y-116700000D01*
X54080952Y-116723809D01*
X54104761Y-116771428D01*
X54104761Y-116819047D01*
X54080952Y-116890476D01*
X53795238Y-117176190D01*
X54104761Y-117176190D01*
X54533333Y-116842857D02*
X54533333Y-117176190D01*
X54414285Y-116652380D02*
X54295238Y-117009523D01*
X54604761Y-117009523D01*
X56928571Y-117428571D02*
X56904761Y-117452380D01*
X56833333Y-117476190D01*
X56785714Y-117476190D01*
X56714285Y-117452380D01*
X56666666Y-117404761D01*
X56642857Y-117357142D01*
X56619047Y-117261904D01*
X56619047Y-117190476D01*
X56642857Y-117095238D01*
X56666666Y-117047619D01*
X56714285Y-117000000D01*
X56785714Y-116976190D01*
X56833333Y-116976190D01*
X56904761Y-117000000D01*
X56928571Y-117023809D01*
X57119047Y-117023809D02*
X57142857Y-117000000D01*
X57190476Y-116976190D01*
X57309523Y-116976190D01*
X57357142Y-117000000D01*
X57380952Y-117023809D01*
X57404761Y-117071428D01*
X57404761Y-117119047D01*
X57380952Y-117190476D01*
X57095238Y-117476190D01*
X57404761Y-117476190D01*
X57857142Y-116976190D02*
X57619047Y-116976190D01*
X57595238Y-117214285D01*
X57619047Y-117190476D01*
X57666666Y-117166666D01*
X57785714Y-117166666D01*
X57833333Y-117190476D01*
X57857142Y-117214285D01*
X57880952Y-117261904D01*
X57880952Y-117380952D01*
X57857142Y-117428571D01*
X57833333Y-117452380D01*
X57785714Y-117476190D01*
X57666666Y-117476190D01*
X57619047Y-117452380D01*
X57595238Y-117428571D01*
X59978571Y-117328571D02*
X59954761Y-117352380D01*
X59883333Y-117376190D01*
X59835714Y-117376190D01*
X59764285Y-117352380D01*
X59716666Y-117304761D01*
X59692857Y-117257142D01*
X59669047Y-117161904D01*
X59669047Y-117090476D01*
X59692857Y-116995238D01*
X59716666Y-116947619D01*
X59764285Y-116900000D01*
X59835714Y-116876190D01*
X59883333Y-116876190D01*
X59954761Y-116900000D01*
X59978571Y-116923809D01*
X60169047Y-116923809D02*
X60192857Y-116900000D01*
X60240476Y-116876190D01*
X60359523Y-116876190D01*
X60407142Y-116900000D01*
X60430952Y-116923809D01*
X60454761Y-116971428D01*
X60454761Y-117019047D01*
X60430952Y-117090476D01*
X60145238Y-117376190D01*
X60454761Y-117376190D01*
X60883333Y-116876190D02*
X60788095Y-116876190D01*
X60740476Y-116900000D01*
X60716666Y-116923809D01*
X60669047Y-116995238D01*
X60645238Y-117090476D01*
X60645238Y-117280952D01*
X60669047Y-117328571D01*
X60692857Y-117352380D01*
X60740476Y-117376190D01*
X60835714Y-117376190D01*
X60883333Y-117352380D01*
X60907142Y-117328571D01*
X60930952Y-117280952D01*
X60930952Y-117161904D01*
X60907142Y-117114285D01*
X60883333Y-117090476D01*
X60835714Y-117066666D01*
X60740476Y-117066666D01*
X60692857Y-117090476D01*
X60669047Y-117114285D01*
X60645238Y-117161904D01*
X69203571Y-95578571D02*
X69179761Y-95602380D01*
X69108333Y-95626190D01*
X69060714Y-95626190D01*
X68989285Y-95602380D01*
X68941666Y-95554761D01*
X68917857Y-95507142D01*
X68894047Y-95411904D01*
X68894047Y-95340476D01*
X68917857Y-95245238D01*
X68941666Y-95197619D01*
X68989285Y-95150000D01*
X69060714Y-95126190D01*
X69108333Y-95126190D01*
X69179761Y-95150000D01*
X69203571Y-95173809D01*
X69394047Y-95173809D02*
X69417857Y-95150000D01*
X69465476Y-95126190D01*
X69584523Y-95126190D01*
X69632142Y-95150000D01*
X69655952Y-95173809D01*
X69679761Y-95221428D01*
X69679761Y-95269047D01*
X69655952Y-95340476D01*
X69370238Y-95626190D01*
X69679761Y-95626190D01*
X69846428Y-95126190D02*
X70179761Y-95126190D01*
X69965476Y-95626190D01*
X29578571Y-125428571D02*
X29554761Y-125452380D01*
X29483333Y-125476190D01*
X29435714Y-125476190D01*
X29364285Y-125452380D01*
X29316666Y-125404761D01*
X29292857Y-125357142D01*
X29269047Y-125261904D01*
X29269047Y-125190476D01*
X29292857Y-125095238D01*
X29316666Y-125047619D01*
X29364285Y-125000000D01*
X29435714Y-124976190D01*
X29483333Y-124976190D01*
X29554761Y-125000000D01*
X29578571Y-125023809D01*
X29769047Y-125023809D02*
X29792857Y-125000000D01*
X29840476Y-124976190D01*
X29959523Y-124976190D01*
X30007142Y-125000000D01*
X30030952Y-125023809D01*
X30054761Y-125071428D01*
X30054761Y-125119047D01*
X30030952Y-125190476D01*
X29745238Y-125476190D01*
X30054761Y-125476190D01*
X30340476Y-125190476D02*
X30292857Y-125166666D01*
X30269047Y-125142857D01*
X30245238Y-125095238D01*
X30245238Y-125071428D01*
X30269047Y-125023809D01*
X30292857Y-125000000D01*
X30340476Y-124976190D01*
X30435714Y-124976190D01*
X30483333Y-125000000D01*
X30507142Y-125023809D01*
X30530952Y-125071428D01*
X30530952Y-125095238D01*
X30507142Y-125142857D01*
X30483333Y-125166666D01*
X30435714Y-125190476D01*
X30340476Y-125190476D01*
X30292857Y-125214285D01*
X30269047Y-125238095D01*
X30245238Y-125285714D01*
X30245238Y-125380952D01*
X30269047Y-125428571D01*
X30292857Y-125452380D01*
X30340476Y-125476190D01*
X30435714Y-125476190D01*
X30483333Y-125452380D01*
X30507142Y-125428571D01*
X30530952Y-125380952D01*
X30530952Y-125285714D01*
X30507142Y-125238095D01*
X30483333Y-125214285D01*
X30435714Y-125190476D01*
X25128571Y-125328571D02*
X25104761Y-125352380D01*
X25033333Y-125376190D01*
X24985714Y-125376190D01*
X24914285Y-125352380D01*
X24866666Y-125304761D01*
X24842857Y-125257142D01*
X24819047Y-125161904D01*
X24819047Y-125090476D01*
X24842857Y-124995238D01*
X24866666Y-124947619D01*
X24914285Y-124900000D01*
X24985714Y-124876190D01*
X25033333Y-124876190D01*
X25104761Y-124900000D01*
X25128571Y-124923809D01*
X25319047Y-124923809D02*
X25342857Y-124900000D01*
X25390476Y-124876190D01*
X25509523Y-124876190D01*
X25557142Y-124900000D01*
X25580952Y-124923809D01*
X25604761Y-124971428D01*
X25604761Y-125019047D01*
X25580952Y-125090476D01*
X25295238Y-125376190D01*
X25604761Y-125376190D01*
X25842857Y-125376190D02*
X25938095Y-125376190D01*
X25985714Y-125352380D01*
X26009523Y-125328571D01*
X26057142Y-125257142D01*
X26080952Y-125161904D01*
X26080952Y-124971428D01*
X26057142Y-124923809D01*
X26033333Y-124900000D01*
X25985714Y-124876190D01*
X25890476Y-124876190D01*
X25842857Y-124900000D01*
X25819047Y-124923809D01*
X25795238Y-124971428D01*
X25795238Y-125090476D01*
X25819047Y-125138095D01*
X25842857Y-125161904D01*
X25890476Y-125185714D01*
X25985714Y-125185714D01*
X26033333Y-125161904D01*
X26057142Y-125138095D01*
X26080952Y-125090476D01*
X27328571Y-125228571D02*
X27304761Y-125252380D01*
X27233333Y-125276190D01*
X27185714Y-125276190D01*
X27114285Y-125252380D01*
X27066666Y-125204761D01*
X27042857Y-125157142D01*
X27019047Y-125061904D01*
X27019047Y-124990476D01*
X27042857Y-124895238D01*
X27066666Y-124847619D01*
X27114285Y-124800000D01*
X27185714Y-124776190D01*
X27233333Y-124776190D01*
X27304761Y-124800000D01*
X27328571Y-124823809D01*
X27495238Y-124776190D02*
X27804761Y-124776190D01*
X27638095Y-124966666D01*
X27709523Y-124966666D01*
X27757142Y-124990476D01*
X27780952Y-125014285D01*
X27804761Y-125061904D01*
X27804761Y-125180952D01*
X27780952Y-125228571D01*
X27757142Y-125252380D01*
X27709523Y-125276190D01*
X27566666Y-125276190D01*
X27519047Y-125252380D01*
X27495238Y-125228571D01*
X28114285Y-124776190D02*
X28161904Y-124776190D01*
X28209523Y-124800000D01*
X28233333Y-124823809D01*
X28257142Y-124871428D01*
X28280952Y-124966666D01*
X28280952Y-125085714D01*
X28257142Y-125180952D01*
X28233333Y-125228571D01*
X28209523Y-125252380D01*
X28161904Y-125276190D01*
X28114285Y-125276190D01*
X28066666Y-125252380D01*
X28042857Y-125228571D01*
X28019047Y-125180952D01*
X27995238Y-125085714D01*
X27995238Y-124966666D01*
X28019047Y-124871428D01*
X28042857Y-124823809D01*
X28066666Y-124800000D01*
X28114285Y-124776190D01*
X75253571Y-84528571D02*
X75229761Y-84552380D01*
X75158333Y-84576190D01*
X75110714Y-84576190D01*
X75039285Y-84552380D01*
X74991666Y-84504761D01*
X74967857Y-84457142D01*
X74944047Y-84361904D01*
X74944047Y-84290476D01*
X74967857Y-84195238D01*
X74991666Y-84147619D01*
X75039285Y-84100000D01*
X75110714Y-84076190D01*
X75158333Y-84076190D01*
X75229761Y-84100000D01*
X75253571Y-84123809D01*
X75420238Y-84076190D02*
X75729761Y-84076190D01*
X75563095Y-84266666D01*
X75634523Y-84266666D01*
X75682142Y-84290476D01*
X75705952Y-84314285D01*
X75729761Y-84361904D01*
X75729761Y-84480952D01*
X75705952Y-84528571D01*
X75682142Y-84552380D01*
X75634523Y-84576190D01*
X75491666Y-84576190D01*
X75444047Y-84552380D01*
X75420238Y-84528571D01*
X76205952Y-84576190D02*
X75920238Y-84576190D01*
X76063095Y-84576190D02*
X76063095Y-84076190D01*
X76015476Y-84147619D01*
X75967857Y-84195238D01*
X75920238Y-84219047D01*
X66528571Y-80878571D02*
X66504761Y-80902380D01*
X66433333Y-80926190D01*
X66385714Y-80926190D01*
X66314285Y-80902380D01*
X66266666Y-80854761D01*
X66242857Y-80807142D01*
X66219047Y-80711904D01*
X66219047Y-80640476D01*
X66242857Y-80545238D01*
X66266666Y-80497619D01*
X66314285Y-80450000D01*
X66385714Y-80426190D01*
X66433333Y-80426190D01*
X66504761Y-80450000D01*
X66528571Y-80473809D01*
X66695238Y-80426190D02*
X67004761Y-80426190D01*
X66838095Y-80616666D01*
X66909523Y-80616666D01*
X66957142Y-80640476D01*
X66980952Y-80664285D01*
X67004761Y-80711904D01*
X67004761Y-80830952D01*
X66980952Y-80878571D01*
X66957142Y-80902380D01*
X66909523Y-80926190D01*
X66766666Y-80926190D01*
X66719047Y-80902380D01*
X66695238Y-80878571D01*
X67195238Y-80473809D02*
X67219047Y-80450000D01*
X67266666Y-80426190D01*
X67385714Y-80426190D01*
X67433333Y-80450000D01*
X67457142Y-80473809D01*
X67480952Y-80521428D01*
X67480952Y-80569047D01*
X67457142Y-80640476D01*
X67171428Y-80926190D01*
X67480952Y-80926190D01*
X100255952Y-84026190D02*
X100255952Y-83526190D01*
X100375000Y-83526190D01*
X100446428Y-83550000D01*
X100494047Y-83597619D01*
X100517857Y-83645238D01*
X100541666Y-83740476D01*
X100541666Y-83811904D01*
X100517857Y-83907142D01*
X100494047Y-83954761D01*
X100446428Y-84002380D01*
X100375000Y-84026190D01*
X100255952Y-84026190D01*
X101017857Y-84026190D02*
X100732142Y-84026190D01*
X100875000Y-84026190D02*
X100875000Y-83526190D01*
X100827380Y-83597619D01*
X100779761Y-83645238D01*
X100732142Y-83669047D01*
X68230952Y-93801190D02*
X68230952Y-93301190D01*
X68350000Y-93301190D01*
X68421428Y-93325000D01*
X68469047Y-93372619D01*
X68492857Y-93420238D01*
X68516666Y-93515476D01*
X68516666Y-93586904D01*
X68492857Y-93682142D01*
X68469047Y-93729761D01*
X68421428Y-93777380D01*
X68350000Y-93801190D01*
X68230952Y-93801190D01*
X68707142Y-93348809D02*
X68730952Y-93325000D01*
X68778571Y-93301190D01*
X68897619Y-93301190D01*
X68945238Y-93325000D01*
X68969047Y-93348809D01*
X68992857Y-93396428D01*
X68992857Y-93444047D01*
X68969047Y-93515476D01*
X68683333Y-93801190D01*
X68992857Y-93801190D01*
X77205952Y-85326190D02*
X77205952Y-84826190D01*
X77325000Y-84826190D01*
X77396428Y-84850000D01*
X77444047Y-84897619D01*
X77467857Y-84945238D01*
X77491666Y-85040476D01*
X77491666Y-85111904D01*
X77467857Y-85207142D01*
X77444047Y-85254761D01*
X77396428Y-85302380D01*
X77325000Y-85326190D01*
X77205952Y-85326190D01*
X77658333Y-84826190D02*
X77967857Y-84826190D01*
X77801190Y-85016666D01*
X77872619Y-85016666D01*
X77920238Y-85040476D01*
X77944047Y-85064285D01*
X77967857Y-85111904D01*
X77967857Y-85230952D01*
X77944047Y-85278571D01*
X77920238Y-85302380D01*
X77872619Y-85326190D01*
X77729761Y-85326190D01*
X77682142Y-85302380D01*
X77658333Y-85278571D01*
X70730952Y-79526190D02*
X70730952Y-79026190D01*
X70850000Y-79026190D01*
X70921428Y-79050000D01*
X70969047Y-79097619D01*
X70992857Y-79145238D01*
X71016666Y-79240476D01*
X71016666Y-79311904D01*
X70992857Y-79407142D01*
X70969047Y-79454761D01*
X70921428Y-79502380D01*
X70850000Y-79526190D01*
X70730952Y-79526190D01*
X71445238Y-79192857D02*
X71445238Y-79526190D01*
X71326190Y-79002380D02*
X71207142Y-79359523D01*
X71516666Y-79359523D01*
X53130952Y-89101190D02*
X53130952Y-88601190D01*
X53250000Y-88601190D01*
X53321428Y-88625000D01*
X53369047Y-88672619D01*
X53392857Y-88720238D01*
X53416666Y-88815476D01*
X53416666Y-88886904D01*
X53392857Y-88982142D01*
X53369047Y-89029761D01*
X53321428Y-89077380D01*
X53250000Y-89101190D01*
X53130952Y-89101190D01*
X53869047Y-88601190D02*
X53630952Y-88601190D01*
X53607142Y-88839285D01*
X53630952Y-88815476D01*
X53678571Y-88791666D01*
X53797619Y-88791666D01*
X53845238Y-88815476D01*
X53869047Y-88839285D01*
X53892857Y-88886904D01*
X53892857Y-89005952D01*
X53869047Y-89053571D01*
X53845238Y-89077380D01*
X53797619Y-89101190D01*
X53678571Y-89101190D01*
X53630952Y-89077380D01*
X53607142Y-89053571D01*
X50430952Y-89076190D02*
X50430952Y-88576190D01*
X50550000Y-88576190D01*
X50621428Y-88600000D01*
X50669047Y-88647619D01*
X50692857Y-88695238D01*
X50716666Y-88790476D01*
X50716666Y-88861904D01*
X50692857Y-88957142D01*
X50669047Y-89004761D01*
X50621428Y-89052380D01*
X50550000Y-89076190D01*
X50430952Y-89076190D01*
X51145238Y-88576190D02*
X51050000Y-88576190D01*
X51002380Y-88600000D01*
X50978571Y-88623809D01*
X50930952Y-88695238D01*
X50907142Y-88790476D01*
X50907142Y-88980952D01*
X50930952Y-89028571D01*
X50954761Y-89052380D01*
X51002380Y-89076190D01*
X51097619Y-89076190D01*
X51145238Y-89052380D01*
X51169047Y-89028571D01*
X51192857Y-88980952D01*
X51192857Y-88861904D01*
X51169047Y-88814285D01*
X51145238Y-88790476D01*
X51097619Y-88766666D01*
X51002380Y-88766666D01*
X50954761Y-88790476D01*
X50930952Y-88814285D01*
X50907142Y-88861904D01*
X58405952Y-89076190D02*
X58405952Y-88576190D01*
X58525000Y-88576190D01*
X58596428Y-88600000D01*
X58644047Y-88647619D01*
X58667857Y-88695238D01*
X58691666Y-88790476D01*
X58691666Y-88861904D01*
X58667857Y-88957142D01*
X58644047Y-89004761D01*
X58596428Y-89052380D01*
X58525000Y-89076190D01*
X58405952Y-89076190D01*
X58858333Y-88576190D02*
X59191666Y-88576190D01*
X58977380Y-89076190D01*
X55855952Y-89076190D02*
X55855952Y-88576190D01*
X55975000Y-88576190D01*
X56046428Y-88600000D01*
X56094047Y-88647619D01*
X56117857Y-88695238D01*
X56141666Y-88790476D01*
X56141666Y-88861904D01*
X56117857Y-88957142D01*
X56094047Y-89004761D01*
X56046428Y-89052380D01*
X55975000Y-89076190D01*
X55855952Y-89076190D01*
X56427380Y-88790476D02*
X56379761Y-88766666D01*
X56355952Y-88742857D01*
X56332142Y-88695238D01*
X56332142Y-88671428D01*
X56355952Y-88623809D01*
X56379761Y-88600000D01*
X56427380Y-88576190D01*
X56522619Y-88576190D01*
X56570238Y-88600000D01*
X56594047Y-88623809D01*
X56617857Y-88671428D01*
X56617857Y-88695238D01*
X56594047Y-88742857D01*
X56570238Y-88766666D01*
X56522619Y-88790476D01*
X56427380Y-88790476D01*
X56379761Y-88814285D01*
X56355952Y-88838095D01*
X56332142Y-88885714D01*
X56332142Y-88980952D01*
X56355952Y-89028571D01*
X56379761Y-89052380D01*
X56427380Y-89076190D01*
X56522619Y-89076190D01*
X56570238Y-89052380D01*
X56594047Y-89028571D01*
X56617857Y-88980952D01*
X56617857Y-88885714D01*
X56594047Y-88838095D01*
X56570238Y-88814285D01*
X56522619Y-88790476D01*
D18*
X91997100Y-87652693D02*
X91997100Y-86652003D01*
X92378316Y-86652003D01*
X92473620Y-86699655D01*
X92521271Y-86747306D01*
X92568923Y-86842610D01*
X92568923Y-86985566D01*
X92521271Y-87080870D01*
X92473620Y-87128522D01*
X92378316Y-87176174D01*
X91997100Y-87176174D01*
X92902487Y-86652003D02*
X93140746Y-87652693D01*
X93331354Y-86937914D01*
X93521961Y-87652693D01*
X93760221Y-86652003D01*
X94713259Y-87652693D02*
X94379696Y-87176174D01*
X94141436Y-87652693D02*
X94141436Y-86652003D01*
X94522651Y-86652003D01*
X94617955Y-86699655D01*
X94665607Y-86747306D01*
X94713259Y-86842610D01*
X94713259Y-86985566D01*
X94665607Y-87080870D01*
X94617955Y-87128522D01*
X94522651Y-87176174D01*
X94141436Y-87176174D01*
X94903867Y-87747996D02*
X95666297Y-87747996D01*
X95904557Y-87652693D02*
X95904557Y-86652003D01*
X96381076Y-87652693D02*
X96381076Y-86652003D01*
X96952899Y-87652693D01*
X96952899Y-86652003D01*
D11*
X66212380Y-85371666D02*
X66212380Y-85847857D01*
X65212380Y-85847857D01*
X66212380Y-84514523D02*
X66212380Y-85085952D01*
X66212380Y-84800238D02*
X65212380Y-84800238D01*
X65355238Y-84895476D01*
X65450476Y-84990714D01*
X65498095Y-85085952D01*
D10*
X73941666Y-92026190D02*
X73775000Y-91788095D01*
X73655952Y-92026190D02*
X73655952Y-91526190D01*
X73846428Y-91526190D01*
X73894047Y-91550000D01*
X73917857Y-91573809D01*
X73941666Y-91621428D01*
X73941666Y-91692857D01*
X73917857Y-91740476D01*
X73894047Y-91764285D01*
X73846428Y-91788095D01*
X73655952Y-91788095D01*
X74132142Y-91573809D02*
X74155952Y-91550000D01*
X74203571Y-91526190D01*
X74322619Y-91526190D01*
X74370238Y-91550000D01*
X74394047Y-91573809D01*
X74417857Y-91621428D01*
X74417857Y-91669047D01*
X74394047Y-91740476D01*
X74108333Y-92026190D01*
X74417857Y-92026190D01*
X81566666Y-122076190D02*
X81400000Y-121838095D01*
X81280952Y-122076190D02*
X81280952Y-121576190D01*
X81471428Y-121576190D01*
X81519047Y-121600000D01*
X81542857Y-121623809D01*
X81566666Y-121671428D01*
X81566666Y-121742857D01*
X81542857Y-121790476D01*
X81519047Y-121814285D01*
X81471428Y-121838095D01*
X81280952Y-121838095D01*
X81733333Y-121576190D02*
X82042857Y-121576190D01*
X81876190Y-121766666D01*
X81947619Y-121766666D01*
X81995238Y-121790476D01*
X82019047Y-121814285D01*
X82042857Y-121861904D01*
X82042857Y-121980952D01*
X82019047Y-122028571D01*
X81995238Y-122052380D01*
X81947619Y-122076190D01*
X81804761Y-122076190D01*
X81757142Y-122052380D01*
X81733333Y-122028571D01*
X81641666Y-119251190D02*
X81475000Y-119013095D01*
X81355952Y-119251190D02*
X81355952Y-118751190D01*
X81546428Y-118751190D01*
X81594047Y-118775000D01*
X81617857Y-118798809D01*
X81641666Y-118846428D01*
X81641666Y-118917857D01*
X81617857Y-118965476D01*
X81594047Y-118989285D01*
X81546428Y-119013095D01*
X81355952Y-119013095D01*
X82070238Y-118917857D02*
X82070238Y-119251190D01*
X81951190Y-118727380D02*
X81832142Y-119084523D01*
X82141666Y-119084523D01*
X81591666Y-124901190D02*
X81425000Y-124663095D01*
X81305952Y-124901190D02*
X81305952Y-124401190D01*
X81496428Y-124401190D01*
X81544047Y-124425000D01*
X81567857Y-124448809D01*
X81591666Y-124496428D01*
X81591666Y-124567857D01*
X81567857Y-124615476D01*
X81544047Y-124639285D01*
X81496428Y-124663095D01*
X81305952Y-124663095D01*
X82044047Y-124401190D02*
X81805952Y-124401190D01*
X81782142Y-124639285D01*
X81805952Y-124615476D01*
X81853571Y-124591666D01*
X81972619Y-124591666D01*
X82020238Y-124615476D01*
X82044047Y-124639285D01*
X82067857Y-124686904D01*
X82067857Y-124805952D01*
X82044047Y-124853571D01*
X82020238Y-124877380D01*
X81972619Y-124901190D01*
X81853571Y-124901190D01*
X81805952Y-124877380D01*
X81782142Y-124853571D01*
X72416666Y-91101190D02*
X72250000Y-90863095D01*
X72130952Y-91101190D02*
X72130952Y-90601190D01*
X72321428Y-90601190D01*
X72369047Y-90625000D01*
X72392857Y-90648809D01*
X72416666Y-90696428D01*
X72416666Y-90767857D01*
X72392857Y-90815476D01*
X72369047Y-90839285D01*
X72321428Y-90863095D01*
X72130952Y-90863095D01*
X72845238Y-90601190D02*
X72750000Y-90601190D01*
X72702380Y-90625000D01*
X72678571Y-90648809D01*
X72630952Y-90720238D01*
X72607142Y-90815476D01*
X72607142Y-91005952D01*
X72630952Y-91053571D01*
X72654761Y-91077380D01*
X72702380Y-91101190D01*
X72797619Y-91101190D01*
X72845238Y-91077380D01*
X72869047Y-91053571D01*
X72892857Y-91005952D01*
X72892857Y-90886904D01*
X72869047Y-90839285D01*
X72845238Y-90815476D01*
X72797619Y-90791666D01*
X72702380Y-90791666D01*
X72654761Y-90815476D01*
X72630952Y-90839285D01*
X72607142Y-90886904D01*
X100616666Y-86401190D02*
X100450000Y-86163095D01*
X100330952Y-86401190D02*
X100330952Y-85901190D01*
X100521428Y-85901190D01*
X100569047Y-85925000D01*
X100592857Y-85948809D01*
X100616666Y-85996428D01*
X100616666Y-86067857D01*
X100592857Y-86115476D01*
X100569047Y-86139285D01*
X100521428Y-86163095D01*
X100330952Y-86163095D01*
X100783333Y-85901190D02*
X101116666Y-85901190D01*
X100902380Y-86401190D01*
X71103571Y-94976190D02*
X70936904Y-94738095D01*
X70817857Y-94976190D02*
X70817857Y-94476190D01*
X71008333Y-94476190D01*
X71055952Y-94500000D01*
X71079761Y-94523809D01*
X71103571Y-94571428D01*
X71103571Y-94642857D01*
X71079761Y-94690476D01*
X71055952Y-94714285D01*
X71008333Y-94738095D01*
X70817857Y-94738095D01*
X71579761Y-94976190D02*
X71294047Y-94976190D01*
X71436904Y-94976190D02*
X71436904Y-94476190D01*
X71389285Y-94547619D01*
X71341666Y-94595238D01*
X71294047Y-94619047D01*
X71889285Y-94476190D02*
X71936904Y-94476190D01*
X71984523Y-94500000D01*
X72008333Y-94523809D01*
X72032142Y-94571428D01*
X72055952Y-94666666D01*
X72055952Y-94785714D01*
X72032142Y-94880952D01*
X72008333Y-94928571D01*
X71984523Y-94952380D01*
X71936904Y-94976190D01*
X71889285Y-94976190D01*
X71841666Y-94952380D01*
X71817857Y-94928571D01*
X71794047Y-94880952D01*
X71770238Y-94785714D01*
X71770238Y-94666666D01*
X71794047Y-94571428D01*
X71817857Y-94523809D01*
X71841666Y-94500000D01*
X71889285Y-94476190D01*
X79878571Y-122076190D02*
X79711904Y-121838095D01*
X79592857Y-122076190D02*
X79592857Y-121576190D01*
X79783333Y-121576190D01*
X79830952Y-121600000D01*
X79854761Y-121623809D01*
X79878571Y-121671428D01*
X79878571Y-121742857D01*
X79854761Y-121790476D01*
X79830952Y-121814285D01*
X79783333Y-121838095D01*
X79592857Y-121838095D01*
X80354761Y-122076190D02*
X80069047Y-122076190D01*
X80211904Y-122076190D02*
X80211904Y-121576190D01*
X80164285Y-121647619D01*
X80116666Y-121695238D01*
X80069047Y-121719047D01*
X80545238Y-121623809D02*
X80569047Y-121600000D01*
X80616666Y-121576190D01*
X80735714Y-121576190D01*
X80783333Y-121600000D01*
X80807142Y-121623809D01*
X80830952Y-121671428D01*
X80830952Y-121719047D01*
X80807142Y-121790476D01*
X80521428Y-122076190D01*
X80830952Y-122076190D01*
X79928571Y-119236190D02*
X79761904Y-118998095D01*
X79642857Y-119236190D02*
X79642857Y-118736190D01*
X79833333Y-118736190D01*
X79880952Y-118760000D01*
X79904761Y-118783809D01*
X79928571Y-118831428D01*
X79928571Y-118902857D01*
X79904761Y-118950476D01*
X79880952Y-118974285D01*
X79833333Y-118998095D01*
X79642857Y-118998095D01*
X80404761Y-119236190D02*
X80119047Y-119236190D01*
X80261904Y-119236190D02*
X80261904Y-118736190D01*
X80214285Y-118807619D01*
X80166666Y-118855238D01*
X80119047Y-118879047D01*
X80571428Y-118736190D02*
X80880952Y-118736190D01*
X80714285Y-118926666D01*
X80785714Y-118926666D01*
X80833333Y-118950476D01*
X80857142Y-118974285D01*
X80880952Y-119021904D01*
X80880952Y-119140952D01*
X80857142Y-119188571D01*
X80833333Y-119212380D01*
X80785714Y-119236190D01*
X80642857Y-119236190D01*
X80595238Y-119212380D01*
X80571428Y-119188571D01*
X79828571Y-124901190D02*
X79661904Y-124663095D01*
X79542857Y-124901190D02*
X79542857Y-124401190D01*
X79733333Y-124401190D01*
X79780952Y-124425000D01*
X79804761Y-124448809D01*
X79828571Y-124496428D01*
X79828571Y-124567857D01*
X79804761Y-124615476D01*
X79780952Y-124639285D01*
X79733333Y-124663095D01*
X79542857Y-124663095D01*
X80304761Y-124901190D02*
X80019047Y-124901190D01*
X80161904Y-124901190D02*
X80161904Y-124401190D01*
X80114285Y-124472619D01*
X80066666Y-124520238D01*
X80019047Y-124544047D01*
X80733333Y-124567857D02*
X80733333Y-124901190D01*
X80614285Y-124377380D02*
X80495238Y-124734523D01*
X80804761Y-124734523D01*
X81578571Y-116376190D02*
X81411904Y-116138095D01*
X81292857Y-116376190D02*
X81292857Y-115876190D01*
X81483333Y-115876190D01*
X81530952Y-115900000D01*
X81554761Y-115923809D01*
X81578571Y-115971428D01*
X81578571Y-116042857D01*
X81554761Y-116090476D01*
X81530952Y-116114285D01*
X81483333Y-116138095D01*
X81292857Y-116138095D01*
X82054761Y-116376190D02*
X81769047Y-116376190D01*
X81911904Y-116376190D02*
X81911904Y-115876190D01*
X81864285Y-115947619D01*
X81816666Y-115995238D01*
X81769047Y-116019047D01*
X82507142Y-115876190D02*
X82269047Y-115876190D01*
X82245238Y-116114285D01*
X82269047Y-116090476D01*
X82316666Y-116066666D01*
X82435714Y-116066666D01*
X82483333Y-116090476D01*
X82507142Y-116114285D01*
X82530952Y-116161904D01*
X82530952Y-116280952D01*
X82507142Y-116328571D01*
X82483333Y-116352380D01*
X82435714Y-116376190D01*
X82316666Y-116376190D01*
X82269047Y-116352380D01*
X82245238Y-116328571D01*
X79978571Y-116376190D02*
X79811904Y-116138095D01*
X79692857Y-116376190D02*
X79692857Y-115876190D01*
X79883333Y-115876190D01*
X79930952Y-115900000D01*
X79954761Y-115923809D01*
X79978571Y-115971428D01*
X79978571Y-116042857D01*
X79954761Y-116090476D01*
X79930952Y-116114285D01*
X79883333Y-116138095D01*
X79692857Y-116138095D01*
X80454761Y-116376190D02*
X80169047Y-116376190D01*
X80311904Y-116376190D02*
X80311904Y-115876190D01*
X80264285Y-115947619D01*
X80216666Y-115995238D01*
X80169047Y-116019047D01*
X80883333Y-115876190D02*
X80788095Y-115876190D01*
X80740476Y-115900000D01*
X80716666Y-115923809D01*
X80669047Y-115995238D01*
X80645238Y-116090476D01*
X80645238Y-116280952D01*
X80669047Y-116328571D01*
X80692857Y-116352380D01*
X80740476Y-116376190D01*
X80835714Y-116376190D01*
X80883333Y-116352380D01*
X80907142Y-116328571D01*
X80930952Y-116280952D01*
X80930952Y-116161904D01*
X80907142Y-116114285D01*
X80883333Y-116090476D01*
X80835714Y-116066666D01*
X80740476Y-116066666D01*
X80692857Y-116090476D01*
X80669047Y-116114285D01*
X80645238Y-116161904D01*
X38478571Y-120226190D02*
X38311904Y-119988095D01*
X38192857Y-120226190D02*
X38192857Y-119726190D01*
X38383333Y-119726190D01*
X38430952Y-119750000D01*
X38454761Y-119773809D01*
X38478571Y-119821428D01*
X38478571Y-119892857D01*
X38454761Y-119940476D01*
X38430952Y-119964285D01*
X38383333Y-119988095D01*
X38192857Y-119988095D01*
X38954761Y-120226190D02*
X38669047Y-120226190D01*
X38811904Y-120226190D02*
X38811904Y-119726190D01*
X38764285Y-119797619D01*
X38716666Y-119845238D01*
X38669047Y-119869047D01*
X39121428Y-119726190D02*
X39454761Y-119726190D01*
X39240476Y-120226190D01*
X33528571Y-129576190D02*
X33361904Y-129338095D01*
X33242857Y-129576190D02*
X33242857Y-129076190D01*
X33433333Y-129076190D01*
X33480952Y-129100000D01*
X33504761Y-129123809D01*
X33528571Y-129171428D01*
X33528571Y-129242857D01*
X33504761Y-129290476D01*
X33480952Y-129314285D01*
X33433333Y-129338095D01*
X33242857Y-129338095D01*
X34004761Y-129576190D02*
X33719047Y-129576190D01*
X33861904Y-129576190D02*
X33861904Y-129076190D01*
X33814285Y-129147619D01*
X33766666Y-129195238D01*
X33719047Y-129219047D01*
X34290476Y-129290476D02*
X34242857Y-129266666D01*
X34219047Y-129242857D01*
X34195238Y-129195238D01*
X34195238Y-129171428D01*
X34219047Y-129123809D01*
X34242857Y-129100000D01*
X34290476Y-129076190D01*
X34385714Y-129076190D01*
X34433333Y-129100000D01*
X34457142Y-129123809D01*
X34480952Y-129171428D01*
X34480952Y-129195238D01*
X34457142Y-129242857D01*
X34433333Y-129266666D01*
X34385714Y-129290476D01*
X34290476Y-129290476D01*
X34242857Y-129314285D01*
X34219047Y-129338095D01*
X34195238Y-129385714D01*
X34195238Y-129480952D01*
X34219047Y-129528571D01*
X34242857Y-129552380D01*
X34290476Y-129576190D01*
X34385714Y-129576190D01*
X34433333Y-129552380D01*
X34457142Y-129528571D01*
X34480952Y-129480952D01*
X34480952Y-129385714D01*
X34457142Y-129338095D01*
X34433333Y-129314285D01*
X34385714Y-129290476D01*
X78878571Y-85576190D02*
X78711904Y-85338095D01*
X78592857Y-85576190D02*
X78592857Y-85076190D01*
X78783333Y-85076190D01*
X78830952Y-85100000D01*
X78854761Y-85123809D01*
X78878571Y-85171428D01*
X78878571Y-85242857D01*
X78854761Y-85290476D01*
X78830952Y-85314285D01*
X78783333Y-85338095D01*
X78592857Y-85338095D01*
X79354761Y-85576190D02*
X79069047Y-85576190D01*
X79211904Y-85576190D02*
X79211904Y-85076190D01*
X79164285Y-85147619D01*
X79116666Y-85195238D01*
X79069047Y-85219047D01*
X79592857Y-85576190D02*
X79688095Y-85576190D01*
X79735714Y-85552380D01*
X79759523Y-85528571D01*
X79807142Y-85457142D01*
X79830952Y-85361904D01*
X79830952Y-85171428D01*
X79807142Y-85123809D01*
X79783333Y-85100000D01*
X79735714Y-85076190D01*
X79640476Y-85076190D01*
X79592857Y-85100000D01*
X79569047Y-85123809D01*
X79545238Y-85171428D01*
X79545238Y-85290476D01*
X79569047Y-85338095D01*
X79592857Y-85361904D01*
X79640476Y-85385714D01*
X79735714Y-85385714D01*
X79783333Y-85361904D01*
X79807142Y-85338095D01*
X79830952Y-85290476D01*
X52028571Y-116976190D02*
X51861904Y-116738095D01*
X51742857Y-116976190D02*
X51742857Y-116476190D01*
X51933333Y-116476190D01*
X51980952Y-116500000D01*
X52004761Y-116523809D01*
X52028571Y-116571428D01*
X52028571Y-116642857D01*
X52004761Y-116690476D01*
X51980952Y-116714285D01*
X51933333Y-116738095D01*
X51742857Y-116738095D01*
X52219047Y-116523809D02*
X52242857Y-116500000D01*
X52290476Y-116476190D01*
X52409523Y-116476190D01*
X52457142Y-116500000D01*
X52480952Y-116523809D01*
X52504761Y-116571428D01*
X52504761Y-116619047D01*
X52480952Y-116690476D01*
X52195238Y-116976190D01*
X52504761Y-116976190D01*
X52814285Y-116476190D02*
X52861904Y-116476190D01*
X52909523Y-116500000D01*
X52933333Y-116523809D01*
X52957142Y-116571428D01*
X52980952Y-116666666D01*
X52980952Y-116785714D01*
X52957142Y-116880952D01*
X52933333Y-116928571D01*
X52909523Y-116952380D01*
X52861904Y-116976190D01*
X52814285Y-116976190D01*
X52766666Y-116952380D01*
X52742857Y-116928571D01*
X52719047Y-116880952D01*
X52695238Y-116785714D01*
X52695238Y-116666666D01*
X52719047Y-116571428D01*
X52742857Y-116523809D01*
X52766666Y-116500000D01*
X52814285Y-116476190D01*
X55378571Y-116976190D02*
X55211904Y-116738095D01*
X55092857Y-116976190D02*
X55092857Y-116476190D01*
X55283333Y-116476190D01*
X55330952Y-116500000D01*
X55354761Y-116523809D01*
X55378571Y-116571428D01*
X55378571Y-116642857D01*
X55354761Y-116690476D01*
X55330952Y-116714285D01*
X55283333Y-116738095D01*
X55092857Y-116738095D01*
X55569047Y-116523809D02*
X55592857Y-116500000D01*
X55640476Y-116476190D01*
X55759523Y-116476190D01*
X55807142Y-116500000D01*
X55830952Y-116523809D01*
X55854761Y-116571428D01*
X55854761Y-116619047D01*
X55830952Y-116690476D01*
X55545238Y-116976190D01*
X55854761Y-116976190D01*
X56330952Y-116976190D02*
X56045238Y-116976190D01*
X56188095Y-116976190D02*
X56188095Y-116476190D01*
X56140476Y-116547619D01*
X56092857Y-116595238D01*
X56045238Y-116619047D01*
X58528571Y-116876190D02*
X58361904Y-116638095D01*
X58242857Y-116876190D02*
X58242857Y-116376190D01*
X58433333Y-116376190D01*
X58480952Y-116400000D01*
X58504761Y-116423809D01*
X58528571Y-116471428D01*
X58528571Y-116542857D01*
X58504761Y-116590476D01*
X58480952Y-116614285D01*
X58433333Y-116638095D01*
X58242857Y-116638095D01*
X58719047Y-116423809D02*
X58742857Y-116400000D01*
X58790476Y-116376190D01*
X58909523Y-116376190D01*
X58957142Y-116400000D01*
X58980952Y-116423809D01*
X59004761Y-116471428D01*
X59004761Y-116519047D01*
X58980952Y-116590476D01*
X58695238Y-116876190D01*
X59004761Y-116876190D01*
X59195238Y-116423809D02*
X59219047Y-116400000D01*
X59266666Y-116376190D01*
X59385714Y-116376190D01*
X59433333Y-116400000D01*
X59457142Y-116423809D01*
X59480952Y-116471428D01*
X59480952Y-116519047D01*
X59457142Y-116590476D01*
X59171428Y-116876190D01*
X59480952Y-116876190D01*
X62528571Y-87276190D02*
X62361904Y-87038095D01*
X62242857Y-87276190D02*
X62242857Y-86776190D01*
X62433333Y-86776190D01*
X62480952Y-86800000D01*
X62504761Y-86823809D01*
X62528571Y-86871428D01*
X62528571Y-86942857D01*
X62504761Y-86990476D01*
X62480952Y-87014285D01*
X62433333Y-87038095D01*
X62242857Y-87038095D01*
X62719047Y-86823809D02*
X62742857Y-86800000D01*
X62790476Y-86776190D01*
X62909523Y-86776190D01*
X62957142Y-86800000D01*
X62980952Y-86823809D01*
X63004761Y-86871428D01*
X63004761Y-86919047D01*
X62980952Y-86990476D01*
X62695238Y-87276190D01*
X63004761Y-87276190D01*
X63171428Y-86776190D02*
X63480952Y-86776190D01*
X63314285Y-86966666D01*
X63385714Y-86966666D01*
X63433333Y-86990476D01*
X63457142Y-87014285D01*
X63480952Y-87061904D01*
X63480952Y-87180952D01*
X63457142Y-87228571D01*
X63433333Y-87252380D01*
X63385714Y-87276190D01*
X63242857Y-87276190D01*
X63195238Y-87252380D01*
X63171428Y-87228571D01*
X62128571Y-84926190D02*
X61961904Y-84688095D01*
X61842857Y-84926190D02*
X61842857Y-84426190D01*
X62033333Y-84426190D01*
X62080952Y-84450000D01*
X62104761Y-84473809D01*
X62128571Y-84521428D01*
X62128571Y-84592857D01*
X62104761Y-84640476D01*
X62080952Y-84664285D01*
X62033333Y-84688095D01*
X61842857Y-84688095D01*
X62319047Y-84473809D02*
X62342857Y-84450000D01*
X62390476Y-84426190D01*
X62509523Y-84426190D01*
X62557142Y-84450000D01*
X62580952Y-84473809D01*
X62604761Y-84521428D01*
X62604761Y-84569047D01*
X62580952Y-84640476D01*
X62295238Y-84926190D01*
X62604761Y-84926190D01*
X63033333Y-84592857D02*
X63033333Y-84926190D01*
X62914285Y-84402380D02*
X62795238Y-84759523D01*
X63104761Y-84759523D01*
X38928571Y-97526190D02*
X38761904Y-97288095D01*
X38642857Y-97526190D02*
X38642857Y-97026190D01*
X38833333Y-97026190D01*
X38880952Y-97050000D01*
X38904761Y-97073809D01*
X38928571Y-97121428D01*
X38928571Y-97192857D01*
X38904761Y-97240476D01*
X38880952Y-97264285D01*
X38833333Y-97288095D01*
X38642857Y-97288095D01*
X39119047Y-97073809D02*
X39142857Y-97050000D01*
X39190476Y-97026190D01*
X39309523Y-97026190D01*
X39357142Y-97050000D01*
X39380952Y-97073809D01*
X39404761Y-97121428D01*
X39404761Y-97169047D01*
X39380952Y-97240476D01*
X39095238Y-97526190D01*
X39404761Y-97526190D01*
X39857142Y-97026190D02*
X39619047Y-97026190D01*
X39595238Y-97264285D01*
X39619047Y-97240476D01*
X39666666Y-97216666D01*
X39785714Y-97216666D01*
X39833333Y-97240476D01*
X39857142Y-97264285D01*
X39880952Y-97311904D01*
X39880952Y-97430952D01*
X39857142Y-97478571D01*
X39833333Y-97502380D01*
X39785714Y-97526190D01*
X39666666Y-97526190D01*
X39619047Y-97502380D01*
X39595238Y-97478571D01*
X35378571Y-102976190D02*
X35211904Y-102738095D01*
X35092857Y-102976190D02*
X35092857Y-102476190D01*
X35283333Y-102476190D01*
X35330952Y-102500000D01*
X35354761Y-102523809D01*
X35378571Y-102571428D01*
X35378571Y-102642857D01*
X35354761Y-102690476D01*
X35330952Y-102714285D01*
X35283333Y-102738095D01*
X35092857Y-102738095D01*
X35569047Y-102523809D02*
X35592857Y-102500000D01*
X35640476Y-102476190D01*
X35759523Y-102476190D01*
X35807142Y-102500000D01*
X35830952Y-102523809D01*
X35854761Y-102571428D01*
X35854761Y-102619047D01*
X35830952Y-102690476D01*
X35545238Y-102976190D01*
X35854761Y-102976190D01*
X36021428Y-102476190D02*
X36354761Y-102476190D01*
X36140476Y-102976190D01*
X36978571Y-97526190D02*
X36811904Y-97288095D01*
X36692857Y-97526190D02*
X36692857Y-97026190D01*
X36883333Y-97026190D01*
X36930952Y-97050000D01*
X36954761Y-97073809D01*
X36978571Y-97121428D01*
X36978571Y-97192857D01*
X36954761Y-97240476D01*
X36930952Y-97264285D01*
X36883333Y-97288095D01*
X36692857Y-97288095D01*
X37169047Y-97073809D02*
X37192857Y-97050000D01*
X37240476Y-97026190D01*
X37359523Y-97026190D01*
X37407142Y-97050000D01*
X37430952Y-97073809D01*
X37454761Y-97121428D01*
X37454761Y-97169047D01*
X37430952Y-97240476D01*
X37145238Y-97526190D01*
X37454761Y-97526190D01*
X37740476Y-97240476D02*
X37692857Y-97216666D01*
X37669047Y-97192857D01*
X37645238Y-97145238D01*
X37645238Y-97121428D01*
X37669047Y-97073809D01*
X37692857Y-97050000D01*
X37740476Y-97026190D01*
X37835714Y-97026190D01*
X37883333Y-97050000D01*
X37907142Y-97073809D01*
X37930952Y-97121428D01*
X37930952Y-97145238D01*
X37907142Y-97192857D01*
X37883333Y-97216666D01*
X37835714Y-97240476D01*
X37740476Y-97240476D01*
X37692857Y-97264285D01*
X37669047Y-97288095D01*
X37645238Y-97335714D01*
X37645238Y-97430952D01*
X37669047Y-97478571D01*
X37692857Y-97502380D01*
X37740476Y-97526190D01*
X37835714Y-97526190D01*
X37883333Y-97502380D01*
X37907142Y-97478571D01*
X37930952Y-97430952D01*
X37930952Y-97335714D01*
X37907142Y-97288095D01*
X37883333Y-97264285D01*
X37835714Y-97240476D01*
X36003571Y-83951190D02*
X35836904Y-83713095D01*
X35717857Y-83951190D02*
X35717857Y-83451190D01*
X35908333Y-83451190D01*
X35955952Y-83475000D01*
X35979761Y-83498809D01*
X36003571Y-83546428D01*
X36003571Y-83617857D01*
X35979761Y-83665476D01*
X35955952Y-83689285D01*
X35908333Y-83713095D01*
X35717857Y-83713095D01*
X36170238Y-83451190D02*
X36479761Y-83451190D01*
X36313095Y-83641666D01*
X36384523Y-83641666D01*
X36432142Y-83665476D01*
X36455952Y-83689285D01*
X36479761Y-83736904D01*
X36479761Y-83855952D01*
X36455952Y-83903571D01*
X36432142Y-83927380D01*
X36384523Y-83951190D01*
X36241666Y-83951190D01*
X36194047Y-83927380D01*
X36170238Y-83903571D01*
X36789285Y-83451190D02*
X36836904Y-83451190D01*
X36884523Y-83475000D01*
X36908333Y-83498809D01*
X36932142Y-83546428D01*
X36955952Y-83641666D01*
X36955952Y-83760714D01*
X36932142Y-83855952D01*
X36908333Y-83903571D01*
X36884523Y-83927380D01*
X36836904Y-83951190D01*
X36789285Y-83951190D01*
X36741666Y-83927380D01*
X36717857Y-83903571D01*
X36694047Y-83855952D01*
X36670238Y-83760714D01*
X36670238Y-83641666D01*
X36694047Y-83546428D01*
X36717857Y-83498809D01*
X36741666Y-83475000D01*
X36789285Y-83451190D01*
X70719047Y-107826190D02*
X70719047Y-108230952D01*
X70742857Y-108278571D01*
X70766666Y-108302380D01*
X70814285Y-108326190D01*
X70909523Y-108326190D01*
X70957142Y-108302380D01*
X70980952Y-108278571D01*
X71004761Y-108230952D01*
X71004761Y-107826190D01*
X71504761Y-108326190D02*
X71219047Y-108326190D01*
X71361904Y-108326190D02*
X71361904Y-107826190D01*
X71314285Y-107897619D01*
X71266666Y-107945238D01*
X71219047Y-107969047D01*
X66569047Y-86226190D02*
X66569047Y-86630952D01*
X66592857Y-86678571D01*
X66616666Y-86702380D01*
X66664285Y-86726190D01*
X66759523Y-86726190D01*
X66807142Y-86702380D01*
X66830952Y-86678571D01*
X66854761Y-86630952D01*
X66854761Y-86226190D01*
X67307142Y-86392857D02*
X67307142Y-86726190D01*
X67188095Y-86202380D02*
X67069047Y-86559523D01*
X67378571Y-86559523D01*
X38961904Y-128188095D02*
X38961904Y-128426190D01*
X38795238Y-127926190D02*
X38961904Y-128188095D01*
X39128571Y-127926190D01*
X39557142Y-128426190D02*
X39271428Y-128426190D01*
X39414285Y-128426190D02*
X39414285Y-127926190D01*
X39366666Y-127997619D01*
X39319047Y-128045238D01*
X39271428Y-128069047D01*
X39683333Y-88852380D02*
X39754761Y-88876190D01*
X39873809Y-88876190D01*
X39921428Y-88852380D01*
X39945238Y-88828571D01*
X39969047Y-88780952D01*
X39969047Y-88733333D01*
X39945238Y-88685714D01*
X39921428Y-88661904D01*
X39873809Y-88638095D01*
X39778571Y-88614285D01*
X39730952Y-88590476D01*
X39707142Y-88566666D01*
X39683333Y-88519047D01*
X39683333Y-88471428D01*
X39707142Y-88423809D01*
X39730952Y-88400000D01*
X39778571Y-88376190D01*
X39897619Y-88376190D01*
X39969047Y-88400000D01*
X40135714Y-88376190D02*
X40254761Y-88876190D01*
X40350000Y-88519047D01*
X40445238Y-88876190D01*
X40564285Y-88376190D01*
X41016666Y-88876190D02*
X40730952Y-88876190D01*
X40873809Y-88876190D02*
X40873809Y-88376190D01*
X40826190Y-88447619D01*
X40778571Y-88495238D01*
X40730952Y-88519047D01*
X51719047Y-80776190D02*
X51719047Y-81180952D01*
X51742857Y-81228571D01*
X51766666Y-81252380D01*
X51814285Y-81276190D01*
X51909523Y-81276190D01*
X51957142Y-81252380D01*
X51980952Y-81228571D01*
X52004761Y-81180952D01*
X52004761Y-80776190D01*
X52457142Y-80776190D02*
X52361904Y-80776190D01*
X52314285Y-80800000D01*
X52290476Y-80823809D01*
X52242857Y-80895238D01*
X52219047Y-80990476D01*
X52219047Y-81180952D01*
X52242857Y-81228571D01*
X52266666Y-81252380D01*
X52314285Y-81276190D01*
X52409523Y-81276190D01*
X52457142Y-81252380D01*
X52480952Y-81228571D01*
X52504761Y-81180952D01*
X52504761Y-81061904D01*
X52480952Y-81014285D01*
X52457142Y-80990476D01*
X52409523Y-80966666D01*
X52314285Y-80966666D01*
X52266666Y-80990476D01*
X52242857Y-81014285D01*
X52219047Y-81061904D01*
X57019047Y-80726190D02*
X57019047Y-81130952D01*
X57042857Y-81178571D01*
X57066666Y-81202380D01*
X57114285Y-81226190D01*
X57209523Y-81226190D01*
X57257142Y-81202380D01*
X57280952Y-81178571D01*
X57304761Y-81130952D01*
X57304761Y-80726190D01*
X57495238Y-80726190D02*
X57828571Y-80726190D01*
X57614285Y-81226190D01*
X35869047Y-127226190D02*
X35869047Y-127630952D01*
X35892857Y-127678571D01*
X35916666Y-127702380D01*
X35964285Y-127726190D01*
X36059523Y-127726190D01*
X36107142Y-127702380D01*
X36130952Y-127678571D01*
X36154761Y-127630952D01*
X36154761Y-127226190D01*
X36345238Y-127226190D02*
X36654761Y-127226190D01*
X36488095Y-127416666D01*
X36559523Y-127416666D01*
X36607142Y-127440476D01*
X36630952Y-127464285D01*
X36654761Y-127511904D01*
X36654761Y-127630952D01*
X36630952Y-127678571D01*
X36607142Y-127702380D01*
X36559523Y-127726190D01*
X36416666Y-127726190D01*
X36369047Y-127702380D01*
X36345238Y-127678571D01*
X79966666Y-110428571D02*
X79942857Y-110452380D01*
X79871428Y-110476190D01*
X79823809Y-110476190D01*
X79752380Y-110452380D01*
X79704761Y-110404761D01*
X79680952Y-110357142D01*
X79657142Y-110261904D01*
X79657142Y-110190476D01*
X79680952Y-110095238D01*
X79704761Y-110047619D01*
X79752380Y-110000000D01*
X79823809Y-109976190D01*
X79871428Y-109976190D01*
X79942857Y-110000000D01*
X79966666Y-110023809D01*
X80204761Y-110476190D02*
X80300000Y-110476190D01*
X80347619Y-110452380D01*
X80371428Y-110428571D01*
X80419047Y-110357142D01*
X80442857Y-110261904D01*
X80442857Y-110071428D01*
X80419047Y-110023809D01*
X80395238Y-110000000D01*
X80347619Y-109976190D01*
X80252380Y-109976190D01*
X80204761Y-110000000D01*
X80180952Y-110023809D01*
X80157142Y-110071428D01*
X80157142Y-110190476D01*
X80180952Y-110238095D01*
X80204761Y-110261904D01*
X80252380Y-110285714D01*
X80347619Y-110285714D01*
X80395238Y-110261904D01*
X80419047Y-110238095D01*
X80442857Y-110190476D01*
X77578571Y-110428571D02*
X77554761Y-110452380D01*
X77483333Y-110476190D01*
X77435714Y-110476190D01*
X77364285Y-110452380D01*
X77316666Y-110404761D01*
X77292857Y-110357142D01*
X77269047Y-110261904D01*
X77269047Y-110190476D01*
X77292857Y-110095238D01*
X77316666Y-110047619D01*
X77364285Y-110000000D01*
X77435714Y-109976190D01*
X77483333Y-109976190D01*
X77554761Y-110000000D01*
X77578571Y-110023809D01*
X78054761Y-110476190D02*
X77769047Y-110476190D01*
X77911904Y-110476190D02*
X77911904Y-109976190D01*
X77864285Y-110047619D01*
X77816666Y-110095238D01*
X77769047Y-110119047D01*
X78483333Y-109976190D02*
X78388095Y-109976190D01*
X78340476Y-110000000D01*
X78316666Y-110023809D01*
X78269047Y-110095238D01*
X78245238Y-110190476D01*
X78245238Y-110380952D01*
X78269047Y-110428571D01*
X78292857Y-110452380D01*
X78340476Y-110476190D01*
X78435714Y-110476190D01*
X78483333Y-110452380D01*
X78507142Y-110428571D01*
X78530952Y-110380952D01*
X78530952Y-110261904D01*
X78507142Y-110214285D01*
X78483333Y-110190476D01*
X78435714Y-110166666D01*
X78340476Y-110166666D01*
X78292857Y-110190476D01*
X78269047Y-110214285D01*
X78245238Y-110261904D01*
X75478571Y-110378571D02*
X75454761Y-110402380D01*
X75383333Y-110426190D01*
X75335714Y-110426190D01*
X75264285Y-110402380D01*
X75216666Y-110354761D01*
X75192857Y-110307142D01*
X75169047Y-110211904D01*
X75169047Y-110140476D01*
X75192857Y-110045238D01*
X75216666Y-109997619D01*
X75264285Y-109950000D01*
X75335714Y-109926190D01*
X75383333Y-109926190D01*
X75454761Y-109950000D01*
X75478571Y-109973809D01*
X75954761Y-110426190D02*
X75669047Y-110426190D01*
X75811904Y-110426190D02*
X75811904Y-109926190D01*
X75764285Y-109997619D01*
X75716666Y-110045238D01*
X75669047Y-110069047D01*
X76240476Y-110140476D02*
X76192857Y-110116666D01*
X76169047Y-110092857D01*
X76145238Y-110045238D01*
X76145238Y-110021428D01*
X76169047Y-109973809D01*
X76192857Y-109950000D01*
X76240476Y-109926190D01*
X76335714Y-109926190D01*
X76383333Y-109950000D01*
X76407142Y-109973809D01*
X76430952Y-110021428D01*
X76430952Y-110045238D01*
X76407142Y-110092857D01*
X76383333Y-110116666D01*
X76335714Y-110140476D01*
X76240476Y-110140476D01*
X76192857Y-110164285D01*
X76169047Y-110188095D01*
X76145238Y-110235714D01*
X76145238Y-110330952D01*
X76169047Y-110378571D01*
X76192857Y-110402380D01*
X76240476Y-110426190D01*
X76335714Y-110426190D01*
X76383333Y-110402380D01*
X76407142Y-110378571D01*
X76430952Y-110330952D01*
X76430952Y-110235714D01*
X76407142Y-110188095D01*
X76383333Y-110164285D01*
X76335714Y-110140476D01*
X74641666Y-95753571D02*
X74617857Y-95777380D01*
X74546428Y-95801190D01*
X74498809Y-95801190D01*
X74427380Y-95777380D01*
X74379761Y-95729761D01*
X74355952Y-95682142D01*
X74332142Y-95586904D01*
X74332142Y-95515476D01*
X74355952Y-95420238D01*
X74379761Y-95372619D01*
X74427380Y-95325000D01*
X74498809Y-95301190D01*
X74546428Y-95301190D01*
X74617857Y-95325000D01*
X74641666Y-95348809D01*
X74832142Y-95348809D02*
X74855952Y-95325000D01*
X74903571Y-95301190D01*
X75022619Y-95301190D01*
X75070238Y-95325000D01*
X75094047Y-95348809D01*
X75117857Y-95396428D01*
X75117857Y-95444047D01*
X75094047Y-95515476D01*
X74808333Y-95801190D01*
X75117857Y-95801190D01*
X77091666Y-95803571D02*
X77067857Y-95827380D01*
X76996428Y-95851190D01*
X76948809Y-95851190D01*
X76877380Y-95827380D01*
X76829761Y-95779761D01*
X76805952Y-95732142D01*
X76782142Y-95636904D01*
X76782142Y-95565476D01*
X76805952Y-95470238D01*
X76829761Y-95422619D01*
X76877380Y-95375000D01*
X76948809Y-95351190D01*
X76996428Y-95351190D01*
X77067857Y-95375000D01*
X77091666Y-95398809D01*
X77520238Y-95517857D02*
X77520238Y-95851190D01*
X77401190Y-95327380D02*
X77282142Y-95684523D01*
X77591666Y-95684523D01*
X20778571Y-118078571D02*
X20754761Y-118102380D01*
X20683333Y-118126190D01*
X20635714Y-118126190D01*
X20564285Y-118102380D01*
X20516666Y-118054761D01*
X20492857Y-118007142D01*
X20469047Y-117911904D01*
X20469047Y-117840476D01*
X20492857Y-117745238D01*
X20516666Y-117697619D01*
X20564285Y-117650000D01*
X20635714Y-117626190D01*
X20683333Y-117626190D01*
X20754761Y-117650000D01*
X20778571Y-117673809D01*
X20945238Y-117626190D02*
X21254761Y-117626190D01*
X21088095Y-117816666D01*
X21159523Y-117816666D01*
X21207142Y-117840476D01*
X21230952Y-117864285D01*
X21254761Y-117911904D01*
X21254761Y-118030952D01*
X21230952Y-118078571D01*
X21207142Y-118102380D01*
X21159523Y-118126190D01*
X21016666Y-118126190D01*
X20969047Y-118102380D01*
X20945238Y-118078571D01*
X21492857Y-118126190D02*
X21588095Y-118126190D01*
X21635714Y-118102380D01*
X21659523Y-118078571D01*
X21707142Y-118007142D01*
X21730952Y-117911904D01*
X21730952Y-117721428D01*
X21707142Y-117673809D01*
X21683333Y-117650000D01*
X21635714Y-117626190D01*
X21540476Y-117626190D01*
X21492857Y-117650000D01*
X21469047Y-117673809D01*
X21445238Y-117721428D01*
X21445238Y-117840476D01*
X21469047Y-117888095D01*
X21492857Y-117911904D01*
X21540476Y-117935714D01*
X21635714Y-117935714D01*
X21683333Y-117911904D01*
X21707142Y-117888095D01*
X21730952Y-117840476D01*
X19078571Y-120978571D02*
X19054761Y-121002380D01*
X18983333Y-121026190D01*
X18935714Y-121026190D01*
X18864285Y-121002380D01*
X18816666Y-120954761D01*
X18792857Y-120907142D01*
X18769047Y-120811904D01*
X18769047Y-120740476D01*
X18792857Y-120645238D01*
X18816666Y-120597619D01*
X18864285Y-120550000D01*
X18935714Y-120526190D01*
X18983333Y-120526190D01*
X19054761Y-120550000D01*
X19078571Y-120573809D01*
X19507142Y-120692857D02*
X19507142Y-121026190D01*
X19388095Y-120502380D02*
X19269047Y-120859523D01*
X19578571Y-120859523D01*
X19745238Y-120573809D02*
X19769047Y-120550000D01*
X19816666Y-120526190D01*
X19935714Y-120526190D01*
X19983333Y-120550000D01*
X20007142Y-120573809D01*
X20030952Y-120621428D01*
X20030952Y-120669047D01*
X20007142Y-120740476D01*
X19721428Y-121026190D01*
X20030952Y-121026190D01*
X16678571Y-119876190D02*
X16511904Y-119638095D01*
X16392857Y-119876190D02*
X16392857Y-119376190D01*
X16583333Y-119376190D01*
X16630952Y-119400000D01*
X16654761Y-119423809D01*
X16678571Y-119471428D01*
X16678571Y-119542857D01*
X16654761Y-119590476D01*
X16630952Y-119614285D01*
X16583333Y-119638095D01*
X16392857Y-119638095D01*
X16845238Y-119376190D02*
X17154761Y-119376190D01*
X16988095Y-119566666D01*
X17059523Y-119566666D01*
X17107142Y-119590476D01*
X17130952Y-119614285D01*
X17154761Y-119661904D01*
X17154761Y-119780952D01*
X17130952Y-119828571D01*
X17107142Y-119852380D01*
X17059523Y-119876190D01*
X16916666Y-119876190D01*
X16869047Y-119852380D01*
X16845238Y-119828571D01*
X17607142Y-119376190D02*
X17369047Y-119376190D01*
X17345238Y-119614285D01*
X17369047Y-119590476D01*
X17416666Y-119566666D01*
X17535714Y-119566666D01*
X17583333Y-119590476D01*
X17607142Y-119614285D01*
X17630952Y-119661904D01*
X17630952Y-119780952D01*
X17607142Y-119828571D01*
X17583333Y-119852380D01*
X17535714Y-119876190D01*
X17416666Y-119876190D01*
X17369047Y-119852380D01*
X17345238Y-119828571D01*
X27419047Y-120826190D02*
X27419047Y-121230952D01*
X27442857Y-121278571D01*
X27466666Y-121302380D01*
X27514285Y-121326190D01*
X27609523Y-121326190D01*
X27657142Y-121302380D01*
X27680952Y-121278571D01*
X27704761Y-121230952D01*
X27704761Y-120826190D01*
X27919047Y-120873809D02*
X27942857Y-120850000D01*
X27990476Y-120826190D01*
X28109523Y-120826190D01*
X28157142Y-120850000D01*
X28180952Y-120873809D01*
X28204761Y-120921428D01*
X28204761Y-120969047D01*
X28180952Y-121040476D01*
X27895238Y-121326190D01*
X28204761Y-121326190D01*
X22169047Y-126526190D02*
X22169047Y-126930952D01*
X22192857Y-126978571D01*
X22216666Y-127002380D01*
X22264285Y-127026190D01*
X22359523Y-127026190D01*
X22407142Y-127002380D01*
X22430952Y-126978571D01*
X22454761Y-126930952D01*
X22454761Y-126526190D01*
X22764285Y-126740476D02*
X22716666Y-126716666D01*
X22692857Y-126692857D01*
X22669047Y-126645238D01*
X22669047Y-126621428D01*
X22692857Y-126573809D01*
X22716666Y-126550000D01*
X22764285Y-126526190D01*
X22859523Y-126526190D01*
X22907142Y-126550000D01*
X22930952Y-126573809D01*
X22954761Y-126621428D01*
X22954761Y-126645238D01*
X22930952Y-126692857D01*
X22907142Y-126716666D01*
X22859523Y-126740476D01*
X22764285Y-126740476D01*
X22716666Y-126764285D01*
X22692857Y-126788095D01*
X22669047Y-126835714D01*
X22669047Y-126930952D01*
X22692857Y-126978571D01*
X22716666Y-127002380D01*
X22764285Y-127026190D01*
X22859523Y-127026190D01*
X22907142Y-127002380D01*
X22930952Y-126978571D01*
X22954761Y-126930952D01*
X22954761Y-126835714D01*
X22930952Y-126788095D01*
X22907142Y-126764285D01*
X22859523Y-126740476D01*
M02*
