G04 #@! TF.GenerationSoftware,KiCad,Pcbnew,(5.1.5)-3*
G04 #@! TF.CreationDate,2020-01-25T00:11:38-03:30*
G04 #@! TF.ProjectId,Power Sense PCB,506f7765-7220-4536-956e-736520504342,rev?*
G04 #@! TF.SameCoordinates,Original*
G04 #@! TF.FileFunction,Copper,L1,Top*
G04 #@! TF.FilePolarity,Positive*
%FSLAX46Y46*%
G04 Gerber Fmt 4.6, Leading zero omitted, Abs format (unit mm)*
G04 Created by KiCad (PCBNEW (5.1.5)-3) date 2020-01-25 00:11:38*
%MOMM*%
%LPD*%
G04 APERTURE LIST*
%ADD10C,0.100000*%
%ADD11C,0.250000*%
%ADD12R,1.250000X1.000000*%
%ADD13R,0.800000X0.750000*%
%ADD14R,0.750000X0.800000*%
%ADD15C,6.000000*%
%ADD16C,0.800000*%
%ADD17R,3.500000X3.500000*%
%ADD18C,5.516000*%
%ADD19R,5.516000X5.516000*%
%ADD20R,13.000000X7.500000*%
%ADD21R,0.900000X0.500000*%
%ADD22R,1.000000X3.200000*%
%ADD23R,0.500000X0.900000*%
%ADD24C,2.000000*%
%ADD25C,1.600000*%
%ADD26R,1.600000X1.600000*%
%ADD27R,0.800000X0.800000*%
%ADD28O,1.700000X1.700000*%
%ADD29R,1.700000X1.700000*%
%ADD30R,1.550000X0.600000*%
%ADD31C,0.500000*%
%ADD32C,0.250000*%
%ADD33C,3.000000*%
%ADD34C,1.000000*%
%ADD35C,0.254000*%
G04 APERTURE END LIST*
D10*
G36*
X89875000Y-56425000D02*
G01*
X89875000Y-57075000D01*
X89625000Y-57075000D01*
X89625000Y-56425000D01*
X89875000Y-56425000D01*
G37*
G36*
X91375000Y-56425000D02*
G01*
X91375000Y-57075000D01*
X91125000Y-57075000D01*
X91125000Y-56425000D01*
X91375000Y-56425000D01*
G37*
G36*
X89625000Y-76175000D02*
G01*
X89625000Y-76825000D01*
X89375000Y-76825000D01*
X89375000Y-76175000D01*
X89625000Y-76175000D01*
G37*
G36*
X91125000Y-76175000D02*
G01*
X91125000Y-76825000D01*
X90875000Y-76825000D01*
X90875000Y-76175000D01*
X91125000Y-76175000D01*
G37*
G36*
X89625000Y-88175000D02*
G01*
X89625000Y-88825000D01*
X89375000Y-88825000D01*
X89375000Y-88175000D01*
X89625000Y-88175000D01*
G37*
G36*
X91125000Y-88175000D02*
G01*
X91125000Y-88825000D01*
X90875000Y-88825000D01*
X90875000Y-88175000D01*
X91125000Y-88175000D01*
G37*
G36*
X89625000Y-100175000D02*
G01*
X89625000Y-100825000D01*
X89375000Y-100825000D01*
X89375000Y-100175000D01*
X89625000Y-100175000D01*
G37*
G36*
X91125000Y-100175000D02*
G01*
X91125000Y-100825000D01*
X90875000Y-100825000D01*
X90875000Y-100175000D01*
X91125000Y-100175000D01*
G37*
D11*
X89750000Y-57075000D03*
X89750000Y-56425000D03*
X91250000Y-57075000D03*
X91250000Y-56425000D03*
X89500000Y-76825000D03*
X89500000Y-76175000D03*
X91000000Y-76825000D03*
X91000000Y-76175000D03*
X89500000Y-88825000D03*
X89500000Y-88175000D03*
X91000000Y-88825000D03*
X91000000Y-88175000D03*
X89500000Y-100825000D03*
X89500000Y-100175000D03*
X91000000Y-100825000D03*
X91000000Y-100175000D03*
D12*
X80500000Y-62500000D03*
X80500000Y-64500000D03*
X80000000Y-84750000D03*
X80000000Y-82750000D03*
D13*
X91250000Y-58500000D03*
X89750000Y-58500000D03*
X89500000Y-78500000D03*
X91000000Y-78500000D03*
D14*
X98000000Y-64250000D03*
X98000000Y-62750000D03*
X97750000Y-82750000D03*
X97750000Y-84250000D03*
D12*
X95250000Y-60500000D03*
X95250000Y-62500000D03*
D13*
X89500000Y-90500000D03*
X91000000Y-90500000D03*
D14*
X98000000Y-94500000D03*
X98000000Y-96000000D03*
D12*
X95000000Y-80500000D03*
X95000000Y-82500000D03*
D13*
X91000000Y-102500000D03*
X89500000Y-102500000D03*
D14*
X98000000Y-108250000D03*
X98000000Y-106750000D03*
D12*
X95000000Y-94250000D03*
X95000000Y-92250000D03*
X95000000Y-104500000D03*
X95000000Y-106500000D03*
X79750000Y-94500000D03*
X79750000Y-96500000D03*
X80000000Y-106500000D03*
X80000000Y-108500000D03*
D15*
X60500000Y-121000000D03*
D16*
X62750000Y-121000000D03*
X62090990Y-122590990D03*
X60500000Y-123250000D03*
X58909010Y-122590990D03*
X58250000Y-121000000D03*
X58909010Y-119409010D03*
X60500000Y-118750000D03*
X62090990Y-119409010D03*
X125090990Y-44409010D03*
X123500000Y-43750000D03*
X121909010Y-44409010D03*
X121250000Y-46000000D03*
X121909010Y-47590990D03*
X123500000Y-48250000D03*
X125090990Y-47590990D03*
X125750000Y-46000000D03*
D15*
X123500000Y-46000000D03*
D16*
X62090990Y-44409010D03*
X60500000Y-43750000D03*
X58909010Y-44409010D03*
X58250000Y-46000000D03*
X58909010Y-47590990D03*
X60500000Y-48250000D03*
X62090990Y-47590990D03*
X62750000Y-46000000D03*
D15*
X60500000Y-46000000D03*
X123500000Y-121000000D03*
D16*
X125750000Y-121000000D03*
X125090990Y-122590990D03*
X123500000Y-123250000D03*
X121909010Y-122590990D03*
X121250000Y-121000000D03*
X121909010Y-119409010D03*
X123500000Y-118750000D03*
X125090990Y-119409010D03*
D17*
X66500000Y-115200000D03*
X63500000Y-110500000D03*
X69500000Y-110500000D03*
D18*
X62000000Y-56150000D03*
D19*
X62000000Y-63350000D03*
X122000000Y-63350000D03*
D18*
X122000000Y-56150000D03*
D20*
X62000000Y-76000000D03*
X122000000Y-76000000D03*
X62000000Y-88000000D03*
X122000000Y-88000000D03*
X62000000Y-100000000D03*
X122000000Y-100000000D03*
D21*
X78500000Y-63750000D03*
X78500000Y-62250000D03*
X78250000Y-82500000D03*
X78250000Y-84000000D03*
D22*
X93600000Y-56000000D03*
X87400000Y-56000000D03*
X87150000Y-76000000D03*
X93350000Y-76000000D03*
D23*
X95000000Y-64250000D03*
X96500000Y-64250000D03*
X96250000Y-84250000D03*
X94750000Y-84250000D03*
D21*
X78250000Y-79750000D03*
X78250000Y-81250000D03*
D23*
X117500000Y-82000000D03*
X116000000Y-82000000D03*
X115750000Y-94000000D03*
X117250000Y-94000000D03*
D22*
X93350000Y-88000000D03*
X87150000Y-88000000D03*
D23*
X117500000Y-106250000D03*
X116000000Y-106250000D03*
X95000000Y-96000000D03*
X96500000Y-96000000D03*
D21*
X78000000Y-95750000D03*
X78000000Y-94250000D03*
D22*
X87150000Y-100000000D03*
X93350000Y-100000000D03*
D23*
X95000000Y-108250000D03*
X96500000Y-108250000D03*
D21*
X78000000Y-91500000D03*
X78000000Y-93000000D03*
X78250000Y-106250000D03*
X78250000Y-107750000D03*
X78250000Y-103500000D03*
X78250000Y-105000000D03*
X78500000Y-61000000D03*
X78500000Y-59500000D03*
D24*
X75500000Y-62250000D03*
X83750000Y-62250000D03*
X75250000Y-82000000D03*
X83750000Y-82000000D03*
X101000000Y-62250000D03*
X101000000Y-82000000D03*
X75500000Y-56000000D03*
X106500000Y-62250000D03*
X75250000Y-94000000D03*
X106500000Y-82000000D03*
X112250000Y-82000000D03*
X112250000Y-106250000D03*
X112250000Y-94000000D03*
X101000000Y-94000000D03*
X83750000Y-94000000D03*
X75500000Y-106000000D03*
X106500000Y-94000000D03*
X101000000Y-106250000D03*
X83750000Y-106000000D03*
X112250000Y-76000000D03*
X112250000Y-88000000D03*
X112250000Y-100000000D03*
X106500000Y-106250000D03*
D25*
X77000000Y-116000000D03*
D26*
X77000000Y-112500000D03*
D27*
X82500000Y-114000000D03*
X82500000Y-112400000D03*
D21*
X82500000Y-116750000D03*
X82500000Y-115250000D03*
D28*
X106820000Y-117000000D03*
X104280000Y-117000000D03*
X101740000Y-117000000D03*
X99200000Y-117000000D03*
X96660000Y-117000000D03*
X94120000Y-117000000D03*
X91580000Y-117000000D03*
X89040000Y-117000000D03*
D29*
X86500000Y-117000000D03*
D30*
X93200000Y-60095000D03*
X93200000Y-61365000D03*
X93200000Y-62635000D03*
X93200000Y-63905000D03*
X87800000Y-63905000D03*
X87800000Y-62635000D03*
X87800000Y-61365000D03*
X87800000Y-60095000D03*
X87550000Y-80095000D03*
X87550000Y-81365000D03*
X87550000Y-82635000D03*
X87550000Y-83905000D03*
X92950000Y-83905000D03*
X92950000Y-82635000D03*
X92950000Y-81365000D03*
X92950000Y-80095000D03*
X87550000Y-92095000D03*
X87550000Y-93365000D03*
X87550000Y-94635000D03*
X87550000Y-95905000D03*
X92950000Y-95905000D03*
X92950000Y-94635000D03*
X92950000Y-93365000D03*
X92950000Y-92095000D03*
X92950000Y-104095000D03*
X92950000Y-105365000D03*
X92950000Y-106635000D03*
X92950000Y-107905000D03*
X87550000Y-107905000D03*
X87550000Y-106635000D03*
X87550000Y-105365000D03*
X87550000Y-104095000D03*
D16*
X87472182Y-109222182D03*
X89027818Y-110777818D03*
X85250004Y-85400000D03*
X85250000Y-90600000D03*
X85250006Y-79000000D03*
X85200000Y-73400000D03*
X85250000Y-97200000D03*
X85199996Y-103000000D03*
X97750000Y-82000000D03*
X96000000Y-80500000D03*
X95000000Y-79500000D03*
X86500000Y-81500000D03*
X86500000Y-84000000D03*
X78250000Y-84500000D03*
X80000000Y-85500000D03*
X95250000Y-60000000D03*
X86500000Y-61250000D03*
X86500000Y-63750000D03*
X97750000Y-62250000D03*
X78500000Y-64250000D03*
X80500000Y-65250000D03*
X86500000Y-105250000D03*
X86500000Y-107750000D03*
X95000000Y-103750000D03*
X98000000Y-94000000D03*
X86500000Y-93250000D03*
X86500000Y-95750000D03*
X95000000Y-91750000D03*
X98000000Y-106250000D03*
X78250000Y-108250000D03*
X80000000Y-109250000D03*
X82500000Y-117250000D03*
X78000000Y-96250000D03*
X79750000Y-97250000D03*
X92000000Y-61400000D03*
X91800000Y-81400000D03*
X91600000Y-93400000D03*
X91600000Y-105400000D03*
X86500000Y-110000000D03*
X87777818Y-112027818D03*
X81500000Y-85400000D03*
X81500000Y-90600000D03*
X83600000Y-103000000D03*
X83599994Y-97200000D03*
X91000000Y-119800021D03*
X104800000Y-73000000D03*
X104750000Y-79200000D03*
X105200000Y-85000000D03*
X105200000Y-91000000D03*
X105000000Y-102800000D03*
X105200000Y-97200000D03*
X103750000Y-85400000D03*
X103750000Y-90800000D03*
X103750000Y-102800000D03*
X103600000Y-97200000D03*
X89000000Y-109250000D03*
X93750000Y-106750000D03*
X93750000Y-94635000D03*
X93885000Y-82635000D03*
X94250000Y-62750000D03*
X102000000Y-102600000D03*
X102000000Y-97200000D03*
X86000000Y-113500000D03*
X82000000Y-103600000D03*
X85701761Y-110992603D03*
X82000000Y-97200000D03*
X84500000Y-111250000D03*
X84500000Y-113500000D03*
D31*
X78500000Y-61000000D02*
X78500000Y-62250000D01*
X80500000Y-62500000D02*
X79750000Y-62500000D01*
X79500000Y-62250000D02*
X78500000Y-62250000D01*
X79750000Y-62500000D02*
X79500000Y-62250000D01*
X78500000Y-62250000D02*
X75500000Y-62250000D01*
D32*
X89027818Y-110777818D02*
X89427817Y-111177817D01*
X89427817Y-111177817D02*
X89427817Y-112177817D01*
X89427817Y-112177817D02*
X92750000Y-115500000D01*
X97835001Y-116435999D02*
X97835001Y-118164999D01*
X92750000Y-115500000D02*
X96899002Y-115500000D01*
X96899002Y-115500000D02*
X97835001Y-116435999D01*
X96924979Y-119075021D02*
X87325021Y-119075021D01*
X97835001Y-118164999D02*
X96924979Y-119075021D01*
X86500000Y-118250000D02*
X86500000Y-117000000D01*
X87325021Y-119075021D02*
X86500000Y-118250000D01*
X85250004Y-85400000D02*
X85250004Y-79000002D01*
X85250004Y-79000002D02*
X85250006Y-79000000D01*
X85200000Y-72834315D02*
X85200000Y-73400000D01*
X81800000Y-69434315D02*
X85200000Y-72834315D01*
X81800000Y-62925000D02*
X81800000Y-69434315D01*
X80500000Y-62500000D02*
X81375000Y-62500000D01*
X81375000Y-62500000D02*
X81800000Y-62925000D01*
X85250000Y-90600000D02*
X85250000Y-97200000D01*
X85599995Y-107922997D02*
X85599995Y-103399999D01*
X85599995Y-103399999D02*
X85199996Y-103000000D01*
X87472182Y-109222182D02*
X86899180Y-109222182D01*
X86899180Y-109222182D02*
X85599995Y-107922997D01*
X97750000Y-82750000D02*
X97750000Y-82000000D01*
D31*
X95000000Y-80500000D02*
X96000000Y-80500000D01*
X95000000Y-80500000D02*
X95000000Y-79500000D01*
D32*
X87550000Y-81365000D02*
X86635000Y-81365000D01*
X86635000Y-81365000D02*
X86500000Y-81500000D01*
X87550000Y-83905000D02*
X86595000Y-83905000D01*
X86595000Y-83905000D02*
X86500000Y-84000000D01*
D31*
X78250000Y-84000000D02*
X78250000Y-84500000D01*
X80000000Y-84750000D02*
X80000000Y-85500000D01*
X95250000Y-60500000D02*
X95250000Y-60000000D01*
X87800000Y-61365000D02*
X86615000Y-61365000D01*
X86615000Y-61365000D02*
X86500000Y-61250000D01*
X87800000Y-63905000D02*
X86655000Y-63905000D01*
X86655000Y-63905000D02*
X86500000Y-63750000D01*
D32*
X98000000Y-62750000D02*
X98000000Y-62500000D01*
X98000000Y-62500000D02*
X97750000Y-62250000D01*
D31*
X78500000Y-63750000D02*
X78500000Y-64250000D01*
X80500000Y-64500000D02*
X80500000Y-65250000D01*
X87550000Y-105365000D02*
X86615000Y-105365000D01*
X86615000Y-105365000D02*
X86500000Y-105250000D01*
X87550000Y-107905000D02*
X86655000Y-107905000D01*
X86655000Y-107905000D02*
X86500000Y-107750000D01*
X95000000Y-104500000D02*
X95000000Y-103750000D01*
D32*
X98000000Y-94500000D02*
X98000000Y-94000000D01*
D31*
X87550000Y-93365000D02*
X86615000Y-93365000D01*
X86615000Y-93365000D02*
X86500000Y-93250000D01*
X87550000Y-95905000D02*
X86655000Y-95905000D01*
X86655000Y-95905000D02*
X86500000Y-95750000D01*
X95000000Y-92250000D02*
X95000000Y-91750000D01*
D32*
X98000000Y-106750000D02*
X98000000Y-106250000D01*
D31*
X78250000Y-107750000D02*
X78250000Y-108250000D01*
X80000000Y-108500000D02*
X80000000Y-109250000D01*
X82500000Y-116750000D02*
X82500000Y-117250000D01*
X78000000Y-95750000D02*
X78000000Y-96250000D01*
X79750000Y-96500000D02*
X79750000Y-97250000D01*
D32*
X93200000Y-61365000D02*
X92035000Y-61365000D01*
X92035000Y-61365000D02*
X92000000Y-61400000D01*
X92950000Y-81365000D02*
X91835000Y-81365000D01*
X91835000Y-81365000D02*
X91800000Y-81400000D01*
X92950000Y-93365000D02*
X91635000Y-93365000D01*
X91635000Y-93365000D02*
X91600000Y-93400000D01*
X92950000Y-105365000D02*
X91635000Y-105365000D01*
X91635000Y-105365000D02*
X91600000Y-105400000D01*
D31*
X78250000Y-81250000D02*
X78250000Y-82500000D01*
X79250000Y-82500000D02*
X78250000Y-82500000D01*
X80000000Y-82750000D02*
X79250000Y-82500000D01*
X77300000Y-82500000D02*
X76800000Y-82000000D01*
X78250000Y-82500000D02*
X77300000Y-82500000D01*
X76800000Y-82000000D02*
X75250000Y-82000000D01*
D32*
X87777818Y-112027818D02*
X88750000Y-113000000D01*
X91580000Y-115830000D02*
X87777818Y-112027818D01*
X91580000Y-117000000D02*
X91580000Y-115830000D01*
X81500000Y-83375000D02*
X81500000Y-84834315D01*
X81500000Y-84834315D02*
X81500000Y-85400000D01*
X80000000Y-82750000D02*
X80875000Y-82750000D01*
X80875000Y-82750000D02*
X81500000Y-83375000D01*
X86500000Y-110000000D02*
X85075001Y-108575001D01*
X85075001Y-108575001D02*
X85075001Y-104475001D01*
X85075001Y-104475001D02*
X83999999Y-103399999D01*
X83999999Y-103399999D02*
X83600000Y-103000000D01*
X83599994Y-96634315D02*
X83599994Y-97200000D01*
X81500000Y-94534321D02*
X83599994Y-96634315D01*
X81500000Y-90600000D02*
X81500000Y-94534321D01*
X91500000Y-58250000D02*
X91250000Y-58500000D01*
X91250000Y-57075000D02*
X91250000Y-58500000D01*
X92220000Y-60095000D02*
X93200000Y-60095000D01*
X91250000Y-59125000D02*
X92220000Y-60095000D01*
X91250000Y-58500000D02*
X91250000Y-59125000D01*
X89500000Y-58250000D02*
X89750000Y-58500000D01*
X88780000Y-60095000D02*
X87800000Y-60095000D01*
X89750000Y-59125000D02*
X88780000Y-60095000D01*
X89750000Y-58500000D02*
X89750000Y-59125000D01*
X89750000Y-58500000D02*
X89750000Y-57075000D01*
X89500000Y-78500000D02*
X89500000Y-76825000D01*
X89500000Y-79170000D02*
X89500000Y-79125000D01*
X88575000Y-80095000D02*
X89500000Y-79170000D01*
X89500000Y-79125000D02*
X89500000Y-78500000D01*
X87550000Y-80095000D02*
X88575000Y-80095000D01*
X91000000Y-78500000D02*
X91000000Y-76825000D01*
X91970000Y-80095000D02*
X92950000Y-80095000D01*
X91000000Y-79125000D02*
X91970000Y-80095000D01*
X91000000Y-78500000D02*
X91000000Y-79125000D01*
X96500000Y-64250000D02*
X98000000Y-64250000D01*
X99000000Y-64250000D02*
X101000000Y-62250000D01*
X98000000Y-64250000D02*
X99000000Y-64250000D01*
X101000000Y-70000000D02*
X101000000Y-62250000D01*
X104800000Y-73000000D02*
X101000000Y-70000000D01*
X104750000Y-79200000D02*
X104750000Y-84550000D01*
X104750000Y-84550000D02*
X105200000Y-85000000D01*
X104800000Y-103000000D02*
X105000000Y-102800000D01*
X108750000Y-114150000D02*
X104800000Y-110200000D01*
X106949979Y-119800021D02*
X108750000Y-118000000D01*
X108750000Y-118000000D02*
X108750000Y-114150000D01*
X91000000Y-119800021D02*
X106949979Y-119800021D01*
X104800000Y-110200000D02*
X104800000Y-103000000D01*
X105200000Y-91000000D02*
X104800001Y-91399999D01*
X104800001Y-91399999D02*
X104800001Y-96800001D01*
X104800001Y-96800001D02*
X105200000Y-97200000D01*
X96250000Y-84250000D02*
X97750000Y-84250000D01*
X98750000Y-84250000D02*
X101000000Y-82000000D01*
X97750000Y-84250000D02*
X98750000Y-84250000D01*
X103750000Y-84750000D02*
X101000000Y-82000000D01*
X103750000Y-85400000D02*
X103750000Y-84750000D01*
X107374989Y-118625011D02*
X107995001Y-118004999D01*
X100825011Y-118625011D02*
X107374989Y-118625011D01*
X103750000Y-111750000D02*
X103750000Y-103365685D01*
X107995001Y-115995001D02*
X103750000Y-111750000D01*
X107995001Y-118004999D02*
X107995001Y-115995001D01*
X103750000Y-103365685D02*
X103750000Y-102800000D01*
X99200000Y-117000000D02*
X100825011Y-118625011D01*
X103600000Y-90950000D02*
X103600000Y-97200000D01*
X103750000Y-90800000D02*
X103600000Y-90950000D01*
D31*
X94865000Y-82635000D02*
X95000000Y-82500000D01*
X95115000Y-62635000D02*
X95250000Y-62500000D01*
X94865000Y-106635000D02*
X95000000Y-106500000D01*
D33*
X75000000Y-110500000D02*
X77000000Y-112500000D01*
X69500000Y-110500000D02*
X75000000Y-110500000D01*
D34*
X82400000Y-112500000D02*
X82500000Y-112400000D01*
X77000000Y-112500000D02*
X82400000Y-112500000D01*
X82500000Y-112400000D02*
X85850000Y-112400000D01*
X85850000Y-112400000D02*
X89000000Y-109250000D01*
D31*
X92950000Y-106635000D02*
X93750000Y-106750000D01*
X93750000Y-106750000D02*
X94865000Y-106635000D01*
X93750000Y-94635000D02*
X94615000Y-94635000D01*
X94615000Y-94635000D02*
X95000000Y-94250000D01*
X92950000Y-82635000D02*
X93885000Y-82635000D01*
X93885000Y-82635000D02*
X94865000Y-82635000D01*
X93200000Y-62635000D02*
X94250000Y-62750000D01*
X94250000Y-62750000D02*
X95115000Y-62635000D01*
D32*
X92950000Y-94635000D02*
X93750000Y-94635000D01*
X93200000Y-62635000D02*
X87800000Y-62635000D01*
X91925000Y-82635000D02*
X87550000Y-82635000D01*
X92950000Y-82635000D02*
X91925000Y-82635000D01*
X88575000Y-94635000D02*
X92950000Y-94635000D01*
X87550000Y-94635000D02*
X88575000Y-94635000D01*
X88575000Y-106635000D02*
X92950000Y-106635000D01*
X87550000Y-106635000D02*
X88575000Y-106635000D01*
X89500000Y-88825000D02*
X89500000Y-90500000D01*
X88530000Y-92095000D02*
X87550000Y-92095000D01*
X89500000Y-91125000D02*
X88530000Y-92095000D01*
X89500000Y-90500000D02*
X89500000Y-91125000D01*
X91000000Y-90500000D02*
X91000000Y-88825000D01*
X91000000Y-91125000D02*
X91970000Y-92095000D01*
X91970000Y-92095000D02*
X92950000Y-92095000D01*
X91000000Y-90500000D02*
X91000000Y-91125000D01*
X96500000Y-96000000D02*
X98000000Y-96000000D01*
X99000000Y-96000000D02*
X101000000Y-94000000D01*
X98000000Y-96000000D02*
X99000000Y-96000000D01*
X105455001Y-117564001D02*
X105455001Y-115955001D01*
X102399999Y-112899999D02*
X102399999Y-102999999D01*
X101740000Y-117000000D02*
X102915001Y-118175001D01*
X105455001Y-115955001D02*
X102399999Y-112899999D01*
X104844001Y-118175001D02*
X105455001Y-117564001D01*
X102915001Y-118175001D02*
X104844001Y-118175001D01*
X102399999Y-102999999D02*
X102000000Y-102600000D01*
X102000000Y-95000000D02*
X102000000Y-97200000D01*
X101000000Y-94000000D02*
X102000000Y-95000000D01*
X91000000Y-102500000D02*
X91000000Y-100825000D01*
X91970000Y-104095000D02*
X92950000Y-104095000D01*
X91000000Y-103125000D02*
X91970000Y-104095000D01*
X91000000Y-102500000D02*
X91000000Y-103125000D01*
X89500000Y-100825000D02*
X89500000Y-102500000D01*
X88530000Y-104095000D02*
X87550000Y-104095000D01*
X89500000Y-103125000D02*
X88530000Y-104095000D01*
X89500000Y-102500000D02*
X89500000Y-103125000D01*
X96500000Y-108250000D02*
X98000000Y-108250000D01*
X99000000Y-108250000D02*
X101000000Y-106250000D01*
X98000000Y-108250000D02*
X99000000Y-108250000D01*
X104000000Y-117000000D02*
X104280000Y-117000000D01*
X101000000Y-106250000D02*
X101000000Y-114000000D01*
X101000000Y-114000000D02*
X104000000Y-117000000D01*
D31*
X78000000Y-93000000D02*
X78000000Y-94250000D01*
X75500000Y-94250000D02*
X75250000Y-94000000D01*
X78000000Y-94250000D02*
X75500000Y-94250000D01*
X79500000Y-94250000D02*
X79750000Y-94500000D01*
X78000000Y-94250000D02*
X79500000Y-94250000D01*
D32*
X86000000Y-113500000D02*
X86500000Y-114000000D01*
X92944999Y-118175001D02*
X93270001Y-117849999D01*
X91015999Y-118175001D02*
X92944999Y-118175001D01*
X90404999Y-117564001D02*
X91015999Y-118175001D01*
X93270001Y-117849999D02*
X94120000Y-117000000D01*
X90404999Y-116625997D02*
X90404999Y-117564001D01*
X87779002Y-114000000D02*
X90404999Y-116625997D01*
X86500000Y-114000000D02*
X87779002Y-114000000D01*
X79750000Y-94500000D02*
X80625000Y-94500000D01*
X80625000Y-94500000D02*
X82000000Y-95875000D01*
X82000000Y-95875000D02*
X82000000Y-97200000D01*
X85701761Y-110701761D02*
X85701761Y-110992603D01*
X82000000Y-103600000D02*
X82000000Y-107000000D01*
X82000000Y-107000000D02*
X85701761Y-110701761D01*
D31*
X78250000Y-105000000D02*
X78250000Y-106250000D01*
X75750000Y-106250000D02*
X75500000Y-106000000D01*
X78250000Y-106250000D02*
X75750000Y-106250000D01*
X80000000Y-106500000D02*
X79500000Y-106500000D01*
X79250000Y-106250000D02*
X78250000Y-106250000D01*
X79500000Y-106500000D02*
X79250000Y-106250000D01*
D32*
X84500000Y-113500000D02*
X85250000Y-114250000D01*
X80000000Y-106500000D02*
X80500000Y-106500000D01*
X80250000Y-106500000D02*
X80000000Y-106500000D01*
X84500000Y-111250000D02*
X84500000Y-110750000D01*
X84500000Y-110750000D02*
X80250000Y-106500000D01*
X95810001Y-117849999D02*
X96660000Y-117000000D01*
X88926009Y-118625011D02*
X95034989Y-118625011D01*
X95034989Y-118625011D02*
X95810001Y-117849999D01*
X87864999Y-117564001D02*
X88926009Y-118625011D01*
X86035002Y-114250000D02*
X87864999Y-116079997D01*
X87864999Y-116079997D02*
X87864999Y-117564001D01*
X85250000Y-114250000D02*
X86035002Y-114250000D01*
D33*
X62150000Y-56000000D02*
X62000000Y-56150000D01*
D32*
X89250000Y-56000000D02*
X87400000Y-56000000D01*
X89750000Y-56425000D02*
X89250000Y-56000000D01*
D31*
X78500000Y-59500000D02*
X78500000Y-56000000D01*
D32*
X91750000Y-56000000D02*
X93600000Y-56000000D01*
X91250000Y-56425000D02*
X91750000Y-56000000D01*
D31*
X78250000Y-79000000D02*
X78250000Y-76000000D01*
X78250000Y-79750000D02*
X78250000Y-79000000D01*
D32*
X89500000Y-76175000D02*
X89325000Y-76000000D01*
X89325000Y-76000000D02*
X87150000Y-76000000D01*
D31*
X117500000Y-82000000D02*
X120500000Y-82000000D01*
X122000000Y-80500000D02*
X122000000Y-76000000D01*
X120500000Y-82000000D02*
X122000000Y-80500000D01*
D32*
X91000000Y-76175000D02*
X91175000Y-76000000D01*
X91175000Y-76000000D02*
X93350000Y-76000000D01*
X89500000Y-88175000D02*
X89325000Y-88000000D01*
X89325000Y-88000000D02*
X87150000Y-88000000D01*
D31*
X78000000Y-91500000D02*
X78000000Y-88000000D01*
X117250000Y-94000000D02*
X120750000Y-94000000D01*
X122000000Y-92750000D02*
X122000000Y-88000000D01*
X120750000Y-94000000D02*
X122000000Y-92750000D01*
D32*
X91000000Y-88175000D02*
X91175000Y-88000000D01*
X91175000Y-88000000D02*
X93350000Y-88000000D01*
X89500000Y-100175000D02*
X89325000Y-100000000D01*
X89325000Y-100000000D02*
X87150000Y-100000000D01*
D31*
X78250000Y-103500000D02*
X78250000Y-100000000D01*
X117500000Y-106250000D02*
X120750000Y-106250000D01*
X122000000Y-105000000D02*
X122000000Y-100000000D01*
X120750000Y-106250000D02*
X122000000Y-105000000D01*
D32*
X91000000Y-100175000D02*
X91175000Y-100000000D01*
X91175000Y-100000000D02*
X93350000Y-100000000D01*
X93200000Y-63905000D02*
X93655000Y-63905000D01*
X94000000Y-64250000D02*
X95000000Y-64250000D01*
X93655000Y-63905000D02*
X94000000Y-64250000D01*
X94750000Y-84250000D02*
X94500000Y-84250000D01*
X94155000Y-83905000D02*
X92950000Y-83905000D01*
X94500000Y-84250000D02*
X94155000Y-83905000D01*
D31*
X112250000Y-82000000D02*
X116000000Y-82000000D01*
X112250000Y-94000000D02*
X115750000Y-94000000D01*
X112250000Y-106250000D02*
X116000000Y-106250000D01*
D32*
X94905000Y-95905000D02*
X95000000Y-96000000D01*
X92950000Y-95905000D02*
X94905000Y-95905000D01*
X94320000Y-108250000D02*
X95000000Y-108250000D01*
X92950000Y-107905000D02*
X93975000Y-107905000D01*
X93975000Y-107905000D02*
X94320000Y-108250000D01*
D31*
X82500000Y-114000000D02*
X82500000Y-115250000D01*
D35*
G36*
X77971631Y-86523791D02*
G01*
X78000000Y-86527000D01*
X79857842Y-86527000D01*
X79898061Y-86535000D01*
X80101939Y-86535000D01*
X80142158Y-86527000D01*
X87473000Y-86527000D01*
X87473000Y-89473000D01*
X78000000Y-89473000D01*
X77971059Y-89476342D01*
X68585338Y-91673000D01*
X61930386Y-91673000D01*
X62123702Y-84327000D01*
X68385634Y-84327000D01*
X77971631Y-86523791D01*
G37*
X77971631Y-86523791D02*
X78000000Y-86527000D01*
X79857842Y-86527000D01*
X79898061Y-86535000D01*
X80101939Y-86535000D01*
X80142158Y-86527000D01*
X87473000Y-86527000D01*
X87473000Y-89473000D01*
X78000000Y-89473000D01*
X77971059Y-89476342D01*
X68585338Y-91673000D01*
X61930386Y-91673000D01*
X62123702Y-84327000D01*
X68385634Y-84327000D01*
X77971631Y-86523791D01*
G36*
X78172182Y-74523916D02*
G01*
X78200000Y-74527000D01*
X87473000Y-74527000D01*
X87473000Y-77473000D01*
X78200000Y-77473000D01*
X78172182Y-77476084D01*
X68385920Y-79673000D01*
X60527000Y-79673000D01*
X60527000Y-72327000D01*
X68385920Y-72327000D01*
X78172182Y-74523916D01*
G37*
X78172182Y-74523916D02*
X78200000Y-74527000D01*
X87473000Y-74527000D01*
X87473000Y-77473000D01*
X78200000Y-77473000D01*
X78172182Y-77476084D01*
X68385920Y-79673000D01*
X60527000Y-79673000D01*
X60527000Y-72327000D01*
X68385920Y-72327000D01*
X78172182Y-74523916D01*
G36*
X121873000Y-79673000D02*
G01*
X115411178Y-79673000D01*
X103022186Y-77474953D01*
X103000000Y-77473000D01*
X92927000Y-77473000D01*
X92927000Y-74527000D01*
X103000000Y-74527000D01*
X103022186Y-74525047D01*
X115411178Y-72327000D01*
X121873000Y-72327000D01*
X121873000Y-79673000D01*
G37*
X121873000Y-79673000D02*
X115411178Y-79673000D01*
X103022186Y-77474953D01*
X103000000Y-77473000D01*
X92927000Y-77473000D01*
X92927000Y-74527000D01*
X103000000Y-74527000D01*
X103022186Y-74525047D01*
X115411178Y-72327000D01*
X121873000Y-72327000D01*
X121873000Y-79673000D01*
G36*
X121873000Y-91673000D02*
G01*
X115611178Y-91673000D01*
X103222186Y-89474953D01*
X103200000Y-89473000D01*
X92927000Y-89473000D01*
X92927000Y-86527000D01*
X103200000Y-86527000D01*
X103220545Y-86525327D01*
X103771540Y-86435000D01*
X103851939Y-86435000D01*
X104051898Y-86395226D01*
X104076616Y-86384987D01*
X115412246Y-84526687D01*
X121873000Y-84330907D01*
X121873000Y-91673000D01*
G37*
X121873000Y-91673000D02*
X115611178Y-91673000D01*
X103222186Y-89474953D01*
X103200000Y-89473000D01*
X92927000Y-89473000D01*
X92927000Y-86527000D01*
X103200000Y-86527000D01*
X103220545Y-86525327D01*
X103771540Y-86435000D01*
X103851939Y-86435000D01*
X104051898Y-86395226D01*
X104076616Y-86384987D01*
X115412246Y-84526687D01*
X121873000Y-84330907D01*
X121873000Y-91673000D01*
G36*
X121873000Y-103673000D02*
G01*
X115411358Y-103673000D01*
X105492621Y-101884375D01*
X105490256Y-101882795D01*
X105301898Y-101804774D01*
X105101939Y-101765000D01*
X104898061Y-101765000D01*
X104865998Y-101771378D01*
X103222538Y-101475016D01*
X103200000Y-101473000D01*
X92927000Y-101473000D01*
X92927000Y-98527000D01*
X103200000Y-98527000D01*
X103222538Y-98524984D01*
X104970898Y-98209706D01*
X105098061Y-98235000D01*
X105301939Y-98235000D01*
X105501898Y-98195226D01*
X105690256Y-98117205D01*
X105766549Y-98066228D01*
X115411358Y-96327000D01*
X121873000Y-96327000D01*
X121873000Y-103673000D01*
G37*
X121873000Y-103673000D02*
X115411358Y-103673000D01*
X105492621Y-101884375D01*
X105490256Y-101882795D01*
X105301898Y-101804774D01*
X105101939Y-101765000D01*
X104898061Y-101765000D01*
X104865998Y-101771378D01*
X103222538Y-101475016D01*
X103200000Y-101473000D01*
X92927000Y-101473000D01*
X92927000Y-98527000D01*
X103200000Y-98527000D01*
X103222538Y-98524984D01*
X104970898Y-98209706D01*
X105098061Y-98235000D01*
X105301939Y-98235000D01*
X105501898Y-98195226D01*
X105690256Y-98117205D01*
X105766549Y-98066228D01*
X115411358Y-96327000D01*
X121873000Y-96327000D01*
X121873000Y-103673000D01*
G36*
X77971059Y-98523658D02*
G01*
X78000000Y-98527000D01*
X87673000Y-98527000D01*
X87673000Y-101473000D01*
X78000000Y-101473000D01*
X77971059Y-101476342D01*
X68585338Y-103673000D01*
X61927000Y-103673000D01*
X61927000Y-96327000D01*
X68585338Y-96327000D01*
X77971059Y-98523658D01*
G37*
X77971059Y-98523658D02*
X78000000Y-98527000D01*
X87673000Y-98527000D01*
X87673000Y-101473000D01*
X78000000Y-101473000D01*
X77971059Y-101476342D01*
X68585338Y-103673000D01*
X61927000Y-103673000D01*
X61927000Y-96327000D01*
X68585338Y-96327000D01*
X77971059Y-98523658D01*
G36*
X65923627Y-52325130D02*
G01*
X66051710Y-52337172D01*
X78099104Y-54312155D01*
X78109343Y-54313409D01*
X78271118Y-54326581D01*
X78281424Y-54327000D01*
X86793766Y-54327000D01*
X86970189Y-54344376D01*
X87133850Y-54394022D01*
X87284672Y-54474638D01*
X87416870Y-54583130D01*
X87525362Y-54715328D01*
X87605978Y-54866150D01*
X87655624Y-55029811D01*
X87673000Y-55206234D01*
X87673000Y-56593766D01*
X87655624Y-56770189D01*
X87605978Y-56933850D01*
X87525362Y-57084672D01*
X87416870Y-57216870D01*
X87284672Y-57325362D01*
X87133850Y-57405978D01*
X86970189Y-57455624D01*
X86793766Y-57473000D01*
X78265294Y-57473000D01*
X78257020Y-57473270D01*
X78126986Y-57481760D01*
X78118746Y-57482568D01*
X66052326Y-59065050D01*
X65930567Y-59073000D01*
X59006234Y-59073000D01*
X58829811Y-59055624D01*
X58666150Y-59005978D01*
X58515328Y-58925362D01*
X58383130Y-58816870D01*
X58274638Y-58684672D01*
X58194022Y-58533850D01*
X58144376Y-58370189D01*
X58127000Y-58193766D01*
X58127000Y-53031652D01*
X58144933Y-52852447D01*
X58196141Y-52686443D01*
X58279229Y-52533874D01*
X58390898Y-52400799D01*
X58526733Y-52292483D01*
X58681326Y-52213236D01*
X58848564Y-52166191D01*
X59028153Y-52152743D01*
X65923627Y-52325130D01*
G37*
X65923627Y-52325130D02*
X66051710Y-52337172D01*
X78099104Y-54312155D01*
X78109343Y-54313409D01*
X78271118Y-54326581D01*
X78281424Y-54327000D01*
X86793766Y-54327000D01*
X86970189Y-54344376D01*
X87133850Y-54394022D01*
X87284672Y-54474638D01*
X87416870Y-54583130D01*
X87525362Y-54715328D01*
X87605978Y-54866150D01*
X87655624Y-55029811D01*
X87673000Y-55206234D01*
X87673000Y-56593766D01*
X87655624Y-56770189D01*
X87605978Y-56933850D01*
X87525362Y-57084672D01*
X87416870Y-57216870D01*
X87284672Y-57325362D01*
X87133850Y-57405978D01*
X86970189Y-57455624D01*
X86793766Y-57473000D01*
X78265294Y-57473000D01*
X78257020Y-57473270D01*
X78126986Y-57481760D01*
X78118746Y-57482568D01*
X66052326Y-59065050D01*
X65930567Y-59073000D01*
X59006234Y-59073000D01*
X58829811Y-59055624D01*
X58666150Y-59005978D01*
X58515328Y-58925362D01*
X58383130Y-58816870D01*
X58274638Y-58684672D01*
X58194022Y-58533850D01*
X58144376Y-58370189D01*
X58127000Y-58193766D01*
X58127000Y-53031652D01*
X58144933Y-52852447D01*
X58196141Y-52686443D01*
X58279229Y-52533874D01*
X58390898Y-52400799D01*
X58526733Y-52292483D01*
X58681326Y-52213236D01*
X58848564Y-52166191D01*
X59028153Y-52152743D01*
X65923627Y-52325130D01*
G36*
X125170189Y-52144376D02*
G01*
X125333850Y-52194022D01*
X125484672Y-52274638D01*
X125616870Y-52383130D01*
X125725362Y-52515328D01*
X125805978Y-52666150D01*
X125855624Y-52829811D01*
X125873000Y-53006234D01*
X125873000Y-58393766D01*
X125855624Y-58570189D01*
X125805978Y-58733850D01*
X125725362Y-58884672D01*
X125616870Y-59016870D01*
X125484672Y-59125362D01*
X125333850Y-59205978D01*
X125170189Y-59255624D01*
X124993766Y-59273000D01*
X118064440Y-59273000D01*
X117951365Y-59266149D01*
X103275477Y-57481244D01*
X103267825Y-57480547D01*
X103147093Y-57473232D01*
X103139412Y-57473000D01*
X94206234Y-57473000D01*
X94029811Y-57455624D01*
X93866150Y-57405978D01*
X93715328Y-57325362D01*
X93583130Y-57216870D01*
X93474638Y-57084672D01*
X93394022Y-56933850D01*
X93344376Y-56770189D01*
X93327000Y-56593766D01*
X93327000Y-55406234D01*
X93344376Y-55229811D01*
X93394022Y-55066150D01*
X93474638Y-54915328D01*
X93583130Y-54783130D01*
X93715328Y-54674638D01*
X93866150Y-54594022D01*
X94029811Y-54544376D01*
X94206234Y-54527000D01*
X103119445Y-54527000D01*
X103129643Y-54526590D01*
X103289714Y-54513695D01*
X103299845Y-54512467D01*
X117935766Y-52139075D01*
X118085663Y-52127000D01*
X124993766Y-52127000D01*
X125170189Y-52144376D01*
G37*
X125170189Y-52144376D02*
X125333850Y-52194022D01*
X125484672Y-52274638D01*
X125616870Y-52383130D01*
X125725362Y-52515328D01*
X125805978Y-52666150D01*
X125855624Y-52829811D01*
X125873000Y-53006234D01*
X125873000Y-58393766D01*
X125855624Y-58570189D01*
X125805978Y-58733850D01*
X125725362Y-58884672D01*
X125616870Y-59016870D01*
X125484672Y-59125362D01*
X125333850Y-59205978D01*
X125170189Y-59255624D01*
X124993766Y-59273000D01*
X118064440Y-59273000D01*
X117951365Y-59266149D01*
X103275477Y-57481244D01*
X103267825Y-57480547D01*
X103147093Y-57473232D01*
X103139412Y-57473000D01*
X94206234Y-57473000D01*
X94029811Y-57455624D01*
X93866150Y-57405978D01*
X93715328Y-57325362D01*
X93583130Y-57216870D01*
X93474638Y-57084672D01*
X93394022Y-56933850D01*
X93344376Y-56770189D01*
X93327000Y-56593766D01*
X93327000Y-55406234D01*
X93344376Y-55229811D01*
X93394022Y-55066150D01*
X93474638Y-54915328D01*
X93583130Y-54783130D01*
X93715328Y-54674638D01*
X93866150Y-54594022D01*
X94029811Y-54544376D01*
X94206234Y-54527000D01*
X103119445Y-54527000D01*
X103129643Y-54526590D01*
X103289714Y-54513695D01*
X103299845Y-54512467D01*
X117935766Y-52139075D01*
X118085663Y-52127000D01*
X124993766Y-52127000D01*
X125170189Y-52144376D01*
M02*
