G04 #@! TF.GenerationSoftware,KiCad,Pcbnew,(5.1.5)-3*
G04 #@! TF.CreationDate,2020-04-05T02:52:48-02:30*
G04 #@! TF.ProjectId,Thruster_Controller,54687275-7374-4657-925f-436f6e74726f,rev?*
G04 #@! TF.SameCoordinates,Original*
G04 #@! TF.FileFunction,Legend,Bot*
G04 #@! TF.FilePolarity,Positive*
%FSLAX46Y46*%
G04 Gerber Fmt 4.6, Leading zero omitted, Abs format (unit mm)*
G04 Created by KiCad (PCBNEW (5.1.5)-3) date 2020-04-05 02:52:48*
%MOMM*%
%LPD*%
G04 APERTURE LIST*
%ADD10C,0.125000*%
%ADD11C,0.150000*%
%ADD12C,0.120000*%
G04 APERTURE END LIST*
D10*
X95427142Y-106716190D02*
X95712857Y-106716190D01*
X95570000Y-106716190D02*
X95570000Y-106216190D01*
X95617619Y-106287619D01*
X95665238Y-106335238D01*
X95712857Y-106359047D01*
X113573333Y-105408690D02*
X113573333Y-105765833D01*
X113597142Y-105837261D01*
X113644761Y-105884880D01*
X113716190Y-105908690D01*
X113763809Y-105908690D01*
X113406666Y-105408690D02*
X113120952Y-105408690D01*
X113263809Y-105908690D02*
X113263809Y-105408690D01*
X112978095Y-105765833D02*
X112740000Y-105765833D01*
X113025714Y-105908690D02*
X112859047Y-105408690D01*
X112692380Y-105908690D01*
X112263809Y-105432500D02*
X112311428Y-105408690D01*
X112382857Y-105408690D01*
X112454285Y-105432500D01*
X112501904Y-105480119D01*
X112525714Y-105527738D01*
X112549523Y-105622976D01*
X112549523Y-105694404D01*
X112525714Y-105789642D01*
X112501904Y-105837261D01*
X112454285Y-105884880D01*
X112382857Y-105908690D01*
X112335238Y-105908690D01*
X112263809Y-105884880D01*
X112240000Y-105861071D01*
X112240000Y-105694404D01*
X112335238Y-105694404D01*
X115549523Y-106783690D02*
X115549523Y-106283690D01*
X115359047Y-106283690D01*
X115311428Y-106307500D01*
X115287619Y-106331309D01*
X115263809Y-106378928D01*
X115263809Y-106450357D01*
X115287619Y-106497976D01*
X115311428Y-106521785D01*
X115359047Y-106545595D01*
X115549523Y-106545595D01*
X114763809Y-106783690D02*
X114930476Y-106545595D01*
X115049523Y-106783690D02*
X115049523Y-106283690D01*
X114859047Y-106283690D01*
X114811428Y-106307500D01*
X114787619Y-106331309D01*
X114763809Y-106378928D01*
X114763809Y-106450357D01*
X114787619Y-106497976D01*
X114811428Y-106521785D01*
X114859047Y-106545595D01*
X115049523Y-106545595D01*
X114454285Y-106283690D02*
X114359047Y-106283690D01*
X114311428Y-106307500D01*
X114263809Y-106355119D01*
X114240000Y-106450357D01*
X114240000Y-106617023D01*
X114263809Y-106712261D01*
X114311428Y-106759880D01*
X114359047Y-106783690D01*
X114454285Y-106783690D01*
X114501904Y-106759880D01*
X114549523Y-106712261D01*
X114573333Y-106617023D01*
X114573333Y-106450357D01*
X114549523Y-106355119D01*
X114501904Y-106307500D01*
X114454285Y-106283690D01*
X113763809Y-106307500D02*
X113811428Y-106283690D01*
X113882857Y-106283690D01*
X113954285Y-106307500D01*
X114001904Y-106355119D01*
X114025714Y-106402738D01*
X114049523Y-106497976D01*
X114049523Y-106569404D01*
X114025714Y-106664642D01*
X114001904Y-106712261D01*
X113954285Y-106759880D01*
X113882857Y-106783690D01*
X113835238Y-106783690D01*
X113763809Y-106759880D01*
X113740000Y-106736071D01*
X113740000Y-106569404D01*
X113835238Y-106569404D01*
X113240000Y-106783690D02*
X113406666Y-106545595D01*
X113525714Y-106783690D02*
X113525714Y-106283690D01*
X113335238Y-106283690D01*
X113287619Y-106307500D01*
X113263809Y-106331309D01*
X113240000Y-106378928D01*
X113240000Y-106450357D01*
X113263809Y-106497976D01*
X113287619Y-106521785D01*
X113335238Y-106545595D01*
X113525714Y-106545595D01*
X113049523Y-106640833D02*
X112811428Y-106640833D01*
X113097142Y-106783690D02*
X112930476Y-106283690D01*
X112763809Y-106783690D01*
X112597142Y-106783690D02*
X112597142Y-106283690D01*
X112430476Y-106640833D01*
X112263809Y-106283690D01*
X112263809Y-106783690D01*
X112025714Y-106783690D02*
X112025714Y-106283690D01*
X111859047Y-106640833D01*
X111692380Y-106283690D01*
X111692380Y-106783690D01*
X111454285Y-106783690D02*
X111454285Y-106283690D01*
X111216190Y-106783690D02*
X111216190Y-106283690D01*
X110930476Y-106783690D01*
X110930476Y-106283690D01*
X110430476Y-106307500D02*
X110478095Y-106283690D01*
X110549523Y-106283690D01*
X110620952Y-106307500D01*
X110668571Y-106355119D01*
X110692380Y-106402738D01*
X110716190Y-106497976D01*
X110716190Y-106569404D01*
X110692380Y-106664642D01*
X110668571Y-106712261D01*
X110620952Y-106759880D01*
X110549523Y-106783690D01*
X110501904Y-106783690D01*
X110430476Y-106759880D01*
X110406666Y-106736071D01*
X110406666Y-106569404D01*
X110501904Y-106569404D01*
D11*
X96325000Y-105725000D02*
X95050000Y-105725000D01*
X103675000Y-106175000D02*
X103125000Y-106175000D01*
X103675000Y-98825000D02*
X103125000Y-98825000D01*
X96325000Y-98825000D02*
X96875000Y-98825000D01*
X96325000Y-106175000D02*
X96875000Y-106175000D01*
X96325000Y-98825000D02*
X96325000Y-99375000D01*
X103675000Y-98825000D02*
X103675000Y-99375000D01*
X103675000Y-106175000D02*
X103675000Y-105625000D01*
X96325000Y-106175000D02*
X96325000Y-105725000D01*
D12*
X114694077Y-109451974D02*
X115143090Y-109002962D01*
X115143090Y-109002962D02*
X114694077Y-108553949D01*
X101370000Y-113800000D02*
X101370000Y-115000000D01*
X103130000Y-115000000D02*
X103130000Y-113800000D01*
X97170000Y-110825000D02*
X97170000Y-110325000D01*
X98230000Y-110325000D02*
X98230000Y-110825000D01*
X91025000Y-108475000D02*
X91025000Y-112475000D01*
X87875000Y-108475000D02*
X91025000Y-108475000D01*
X109895000Y-92750000D02*
X109895000Y-93250000D01*
X108955000Y-93250000D02*
X108955000Y-92750000D01*
X100105000Y-93250000D02*
X100105000Y-92750000D01*
X101045000Y-92750000D02*
X101045000Y-93250000D01*
X92145000Y-92775000D02*
X92145000Y-93275000D01*
X91205000Y-93275000D02*
X91205000Y-92775000D01*
X99475000Y-107705000D02*
X99975000Y-107705000D01*
X99975000Y-108645000D02*
X99475000Y-108645000D01*
X101550000Y-107705000D02*
X102050000Y-107705000D01*
X102050000Y-108645000D02*
X101550000Y-108645000D01*
X114850000Y-93650000D02*
X114850000Y-94650000D01*
X116210000Y-94650000D02*
X116210000Y-93650000D01*
X101700000Y-84680000D02*
X102200000Y-84680000D01*
X102200000Y-85620000D02*
X101700000Y-85620000D01*
X93300000Y-85620000D02*
X92800000Y-85620000D01*
X92800000Y-84680000D02*
X93300000Y-84680000D01*
X103800000Y-84680000D02*
X104300000Y-84680000D01*
X104300000Y-85620000D02*
X103800000Y-85620000D01*
X95400000Y-85620000D02*
X94900000Y-85620000D01*
X94900000Y-84680000D02*
X95400000Y-84680000D01*
X93500000Y-98280000D02*
X94000000Y-98280000D01*
X94000000Y-99220000D02*
X93500000Y-99220000D01*
X94000000Y-98245000D02*
X93500000Y-98245000D01*
X93500000Y-97305000D02*
X94000000Y-97305000D01*
X93500000Y-96330000D02*
X94000000Y-96330000D01*
X94000000Y-97270000D02*
X93500000Y-97270000D01*
X102400000Y-86630000D02*
X101900000Y-86630000D01*
X101900000Y-85570000D02*
X102400000Y-85570000D01*
X93500000Y-86650000D02*
X93000000Y-86650000D01*
X93000000Y-85590000D02*
X93500000Y-85590000D01*
X103675000Y-86570000D02*
X104175000Y-86570000D01*
X104175000Y-87630000D02*
X103675000Y-87630000D01*
X102400000Y-87630000D02*
X101900000Y-87630000D01*
X101900000Y-86570000D02*
X102400000Y-86570000D01*
X93500000Y-87630000D02*
X93000000Y-87630000D01*
X93000000Y-86570000D02*
X93500000Y-86570000D01*
X104100000Y-86630000D02*
X103600000Y-86630000D01*
X103600000Y-85570000D02*
X104100000Y-85570000D01*
X94775000Y-86570000D02*
X95275000Y-86570000D01*
X95275000Y-87630000D02*
X94775000Y-87630000D01*
X94700000Y-85595000D02*
X95200000Y-85595000D01*
X95200000Y-86655000D02*
X94700000Y-86655000D01*
X97275000Y-112255000D02*
X97775000Y-112255000D01*
X97775000Y-113195000D02*
X97275000Y-113195000D01*
X104220000Y-112675000D02*
X104220000Y-113175000D01*
X103280000Y-113175000D02*
X103280000Y-112675000D01*
X103280000Y-115250000D02*
X103280000Y-114750000D01*
X104220000Y-114750000D02*
X104220000Y-115250000D01*
X98355000Y-110850000D02*
X98355000Y-110350000D01*
X99295000Y-110350000D02*
X99295000Y-110850000D01*
X100170000Y-110350000D02*
X100170000Y-110850000D01*
X99230000Y-110850000D02*
X99230000Y-110350000D01*
X89925000Y-96825000D02*
X89225000Y-96825000D01*
X89225000Y-98025000D02*
X89925000Y-98025000D01*
X90550000Y-99875000D02*
X89850000Y-99875000D01*
X89850000Y-101075000D02*
X90550000Y-101075000D01*
X87745000Y-109950000D02*
X87745000Y-110450000D01*
X86805000Y-110450000D02*
X86805000Y-109950000D01*
X89675000Y-108395000D02*
X89175000Y-108395000D01*
X89175000Y-107455000D02*
X89675000Y-107455000D01*
X88875000Y-105570000D02*
X89375000Y-105570000D01*
X89375000Y-106630000D02*
X88875000Y-106630000D01*
X89200000Y-106580000D02*
X89700000Y-106580000D01*
X89700000Y-107520000D02*
X89200000Y-107520000D01*
X86500000Y-107500000D02*
X87200000Y-107500000D01*
X87200000Y-106300000D02*
X86500000Y-106300000D01*
X89150000Y-103225000D02*
X89850000Y-103225000D01*
X89850000Y-102025000D02*
X89150000Y-102025000D01*
X88145000Y-103025000D02*
X88145000Y-103525000D01*
X87205000Y-103525000D02*
X87205000Y-103025000D01*
X90530000Y-104950000D02*
X90530000Y-104450000D01*
X91470000Y-104450000D02*
X91470000Y-104950000D01*
X90225000Y-95320000D02*
X89225000Y-95320000D01*
X89225000Y-96680000D02*
X90225000Y-96680000D01*
X105295000Y-107350000D02*
X105295000Y-108350000D01*
X106655000Y-108350000D02*
X106655000Y-107350000D01*
X112600000Y-103130000D02*
X111400000Y-103130000D01*
X111400000Y-104890000D02*
X112600000Y-104890000D01*
X101080000Y-89050000D02*
X101080000Y-94250000D01*
X104720000Y-94250000D02*
X104720000Y-89050000D01*
X92180000Y-89050000D02*
X92180000Y-94250000D01*
X95820000Y-94250000D02*
X95820000Y-89050000D01*
X113620000Y-94250000D02*
X113620000Y-89050000D01*
X109980000Y-89050000D02*
X109980000Y-94250000D01*
D10*
X104140952Y-97866190D02*
X104140952Y-98270952D01*
X104117142Y-98318571D01*
X104093333Y-98342380D01*
X104045714Y-98366190D01*
X103950476Y-98366190D01*
X103902857Y-98342380D01*
X103879047Y-98318571D01*
X103855238Y-98270952D01*
X103855238Y-97866190D01*
X103355238Y-98366190D02*
X103640952Y-98366190D01*
X103498095Y-98366190D02*
X103498095Y-97866190D01*
X103545714Y-97937619D01*
X103593333Y-97985238D01*
X103640952Y-98009047D01*
X97197619Y-92623809D02*
X97245238Y-92600000D01*
X97292857Y-92552380D01*
X97364285Y-92480952D01*
X97411904Y-92457142D01*
X97459523Y-92457142D01*
X97435714Y-92576190D02*
X97483333Y-92552380D01*
X97530952Y-92504761D01*
X97554761Y-92409523D01*
X97554761Y-92242857D01*
X97530952Y-92147619D01*
X97483333Y-92100000D01*
X97435714Y-92076190D01*
X97340476Y-92076190D01*
X97292857Y-92100000D01*
X97245238Y-92147619D01*
X97221428Y-92242857D01*
X97221428Y-92409523D01*
X97245238Y-92504761D01*
X97292857Y-92552380D01*
X97340476Y-92576190D01*
X97435714Y-92576190D01*
X96745238Y-92576190D02*
X97030952Y-92576190D01*
X96888095Y-92576190D02*
X96888095Y-92076190D01*
X96935714Y-92147619D01*
X96983333Y-92195238D01*
X97030952Y-92219047D01*
X102583333Y-112616190D02*
X102821428Y-112616190D01*
X102821428Y-112116190D01*
X102440476Y-112163809D02*
X102416666Y-112140000D01*
X102369047Y-112116190D01*
X102250000Y-112116190D01*
X102202380Y-112140000D01*
X102178571Y-112163809D01*
X102154761Y-112211428D01*
X102154761Y-112259047D01*
X102178571Y-112330476D01*
X102464285Y-112616190D01*
X102154761Y-112616190D01*
X97773333Y-109476190D02*
X98011428Y-109476190D01*
X98011428Y-108976190D01*
X97654285Y-108976190D02*
X97344761Y-108976190D01*
X97511428Y-109166666D01*
X97440000Y-109166666D01*
X97392380Y-109190476D01*
X97368571Y-109214285D01*
X97344761Y-109261904D01*
X97344761Y-109380952D01*
X97368571Y-109428571D01*
X97392380Y-109452380D01*
X97440000Y-109476190D01*
X97582857Y-109476190D01*
X97630476Y-109452380D01*
X97654285Y-109428571D01*
X90963095Y-113038095D02*
X90963095Y-113276190D01*
X91129761Y-112776190D02*
X90963095Y-113038095D01*
X90796428Y-112776190D01*
X90367857Y-113276190D02*
X90653571Y-113276190D01*
X90510714Y-113276190D02*
X90510714Y-112776190D01*
X90558333Y-112847619D01*
X90605952Y-112895238D01*
X90653571Y-112919047D01*
X108563333Y-92538571D02*
X108587142Y-92562380D01*
X108658571Y-92586190D01*
X108706190Y-92586190D01*
X108777619Y-92562380D01*
X108825238Y-92514761D01*
X108849047Y-92467142D01*
X108872857Y-92371904D01*
X108872857Y-92300476D01*
X108849047Y-92205238D01*
X108825238Y-92157619D01*
X108777619Y-92110000D01*
X108706190Y-92086190D01*
X108658571Y-92086190D01*
X108587142Y-92110000D01*
X108563333Y-92133809D01*
X108325238Y-92586190D02*
X108230000Y-92586190D01*
X108182380Y-92562380D01*
X108158571Y-92538571D01*
X108110952Y-92467142D01*
X108087142Y-92371904D01*
X108087142Y-92181428D01*
X108110952Y-92133809D01*
X108134761Y-92110000D01*
X108182380Y-92086190D01*
X108277619Y-92086190D01*
X108325238Y-92110000D01*
X108349047Y-92133809D01*
X108372857Y-92181428D01*
X108372857Y-92300476D01*
X108349047Y-92348095D01*
X108325238Y-92371904D01*
X108277619Y-92395714D01*
X108182380Y-92395714D01*
X108134761Y-92371904D01*
X108110952Y-92348095D01*
X108087142Y-92300476D01*
X99651428Y-92558571D02*
X99675238Y-92582380D01*
X99746666Y-92606190D01*
X99794285Y-92606190D01*
X99865714Y-92582380D01*
X99913333Y-92534761D01*
X99937142Y-92487142D01*
X99960952Y-92391904D01*
X99960952Y-92320476D01*
X99937142Y-92225238D01*
X99913333Y-92177619D01*
X99865714Y-92130000D01*
X99794285Y-92106190D01*
X99746666Y-92106190D01*
X99675238Y-92130000D01*
X99651428Y-92153809D01*
X99175238Y-92606190D02*
X99460952Y-92606190D01*
X99318095Y-92606190D02*
X99318095Y-92106190D01*
X99365714Y-92177619D01*
X99413333Y-92225238D01*
X99460952Y-92249047D01*
X98746666Y-92106190D02*
X98841904Y-92106190D01*
X98889523Y-92130000D01*
X98913333Y-92153809D01*
X98960952Y-92225238D01*
X98984761Y-92320476D01*
X98984761Y-92510952D01*
X98960952Y-92558571D01*
X98937142Y-92582380D01*
X98889523Y-92606190D01*
X98794285Y-92606190D01*
X98746666Y-92582380D01*
X98722857Y-92558571D01*
X98699047Y-92510952D01*
X98699047Y-92391904D01*
X98722857Y-92344285D01*
X98746666Y-92320476D01*
X98794285Y-92296666D01*
X98889523Y-92296666D01*
X98937142Y-92320476D01*
X98960952Y-92344285D01*
X98984761Y-92391904D01*
X90701428Y-92528571D02*
X90725238Y-92552380D01*
X90796666Y-92576190D01*
X90844285Y-92576190D01*
X90915714Y-92552380D01*
X90963333Y-92504761D01*
X90987142Y-92457142D01*
X91010952Y-92361904D01*
X91010952Y-92290476D01*
X90987142Y-92195238D01*
X90963333Y-92147619D01*
X90915714Y-92100000D01*
X90844285Y-92076190D01*
X90796666Y-92076190D01*
X90725238Y-92100000D01*
X90701428Y-92123809D01*
X90225238Y-92576190D02*
X90510952Y-92576190D01*
X90368095Y-92576190D02*
X90368095Y-92076190D01*
X90415714Y-92147619D01*
X90463333Y-92195238D01*
X90510952Y-92219047D01*
X89939523Y-92290476D02*
X89987142Y-92266666D01*
X90010952Y-92242857D01*
X90034761Y-92195238D01*
X90034761Y-92171428D01*
X90010952Y-92123809D01*
X89987142Y-92100000D01*
X89939523Y-92076190D01*
X89844285Y-92076190D01*
X89796666Y-92100000D01*
X89772857Y-92123809D01*
X89749047Y-92171428D01*
X89749047Y-92195238D01*
X89772857Y-92242857D01*
X89796666Y-92266666D01*
X89844285Y-92290476D01*
X89939523Y-92290476D01*
X89987142Y-92314285D01*
X90010952Y-92338095D01*
X90034761Y-92385714D01*
X90034761Y-92480952D01*
X90010952Y-92528571D01*
X89987142Y-92552380D01*
X89939523Y-92576190D01*
X89844285Y-92576190D01*
X89796666Y-92552380D01*
X89772857Y-92528571D01*
X89749047Y-92480952D01*
X89749047Y-92385714D01*
X89772857Y-92338095D01*
X89796666Y-92314285D01*
X89844285Y-92290476D01*
X99853333Y-109278571D02*
X99877142Y-109302380D01*
X99948571Y-109326190D01*
X99996190Y-109326190D01*
X100067619Y-109302380D01*
X100115238Y-109254761D01*
X100139047Y-109207142D01*
X100162857Y-109111904D01*
X100162857Y-109040476D01*
X100139047Y-108945238D01*
X100115238Y-108897619D01*
X100067619Y-108850000D01*
X99996190Y-108826190D01*
X99948571Y-108826190D01*
X99877142Y-108850000D01*
X99853333Y-108873809D01*
X99662857Y-108873809D02*
X99639047Y-108850000D01*
X99591428Y-108826190D01*
X99472380Y-108826190D01*
X99424761Y-108850000D01*
X99400952Y-108873809D01*
X99377142Y-108921428D01*
X99377142Y-108969047D01*
X99400952Y-109040476D01*
X99686666Y-109326190D01*
X99377142Y-109326190D01*
X101863333Y-109318571D02*
X101887142Y-109342380D01*
X101958571Y-109366190D01*
X102006190Y-109366190D01*
X102077619Y-109342380D01*
X102125238Y-109294761D01*
X102149047Y-109247142D01*
X102172857Y-109151904D01*
X102172857Y-109080476D01*
X102149047Y-108985238D01*
X102125238Y-108937619D01*
X102077619Y-108890000D01*
X102006190Y-108866190D01*
X101958571Y-108866190D01*
X101887142Y-108890000D01*
X101863333Y-108913809D01*
X101434761Y-109032857D02*
X101434761Y-109366190D01*
X101553809Y-108842380D02*
X101672857Y-109199523D01*
X101363333Y-109199523D01*
X115483333Y-92626190D02*
X115650000Y-92388095D01*
X115769047Y-92626190D02*
X115769047Y-92126190D01*
X115578571Y-92126190D01*
X115530952Y-92150000D01*
X115507142Y-92173809D01*
X115483333Y-92221428D01*
X115483333Y-92292857D01*
X115507142Y-92340476D01*
X115530952Y-92364285D01*
X115578571Y-92388095D01*
X115769047Y-92388095D01*
X115316666Y-92126190D02*
X114983333Y-92126190D01*
X115197619Y-92626190D01*
X100483333Y-85338571D02*
X100507142Y-85362380D01*
X100578571Y-85386190D01*
X100626190Y-85386190D01*
X100697619Y-85362380D01*
X100745238Y-85314761D01*
X100769047Y-85267142D01*
X100792857Y-85171904D01*
X100792857Y-85100476D01*
X100769047Y-85005238D01*
X100745238Y-84957619D01*
X100697619Y-84910000D01*
X100626190Y-84886190D01*
X100578571Y-84886190D01*
X100507142Y-84910000D01*
X100483333Y-84933809D01*
X100054761Y-84886190D02*
X100150000Y-84886190D01*
X100197619Y-84910000D01*
X100221428Y-84933809D01*
X100269047Y-85005238D01*
X100292857Y-85100476D01*
X100292857Y-85290952D01*
X100269047Y-85338571D01*
X100245238Y-85362380D01*
X100197619Y-85386190D01*
X100102380Y-85386190D01*
X100054761Y-85362380D01*
X100030952Y-85338571D01*
X100007142Y-85290952D01*
X100007142Y-85171904D01*
X100030952Y-85124285D01*
X100054761Y-85100476D01*
X100102380Y-85076666D01*
X100197619Y-85076666D01*
X100245238Y-85100476D01*
X100269047Y-85124285D01*
X100292857Y-85171904D01*
X91593333Y-85328571D02*
X91617142Y-85352380D01*
X91688571Y-85376190D01*
X91736190Y-85376190D01*
X91807619Y-85352380D01*
X91855238Y-85304761D01*
X91879047Y-85257142D01*
X91902857Y-85161904D01*
X91902857Y-85090476D01*
X91879047Y-84995238D01*
X91855238Y-84947619D01*
X91807619Y-84900000D01*
X91736190Y-84876190D01*
X91688571Y-84876190D01*
X91617142Y-84900000D01*
X91593333Y-84923809D01*
X91426666Y-84876190D02*
X91093333Y-84876190D01*
X91307619Y-85376190D01*
X105603333Y-85058571D02*
X105627142Y-85082380D01*
X105698571Y-85106190D01*
X105746190Y-85106190D01*
X105817619Y-85082380D01*
X105865238Y-85034761D01*
X105889047Y-84987142D01*
X105912857Y-84891904D01*
X105912857Y-84820476D01*
X105889047Y-84725238D01*
X105865238Y-84677619D01*
X105817619Y-84630000D01*
X105746190Y-84606190D01*
X105698571Y-84606190D01*
X105627142Y-84630000D01*
X105603333Y-84653809D01*
X105317619Y-84820476D02*
X105365238Y-84796666D01*
X105389047Y-84772857D01*
X105412857Y-84725238D01*
X105412857Y-84701428D01*
X105389047Y-84653809D01*
X105365238Y-84630000D01*
X105317619Y-84606190D01*
X105222380Y-84606190D01*
X105174761Y-84630000D01*
X105150952Y-84653809D01*
X105127142Y-84701428D01*
X105127142Y-84725238D01*
X105150952Y-84772857D01*
X105174761Y-84796666D01*
X105222380Y-84820476D01*
X105317619Y-84820476D01*
X105365238Y-84844285D01*
X105389047Y-84868095D01*
X105412857Y-84915714D01*
X105412857Y-85010952D01*
X105389047Y-85058571D01*
X105365238Y-85082380D01*
X105317619Y-85106190D01*
X105222380Y-85106190D01*
X105174761Y-85082380D01*
X105150952Y-85058571D01*
X105127142Y-85010952D01*
X105127142Y-84915714D01*
X105150952Y-84868095D01*
X105174761Y-84844285D01*
X105222380Y-84820476D01*
X96931428Y-85028571D02*
X96955238Y-85052380D01*
X97026666Y-85076190D01*
X97074285Y-85076190D01*
X97145714Y-85052380D01*
X97193333Y-85004761D01*
X97217142Y-84957142D01*
X97240952Y-84861904D01*
X97240952Y-84790476D01*
X97217142Y-84695238D01*
X97193333Y-84647619D01*
X97145714Y-84600000D01*
X97074285Y-84576190D01*
X97026666Y-84576190D01*
X96955238Y-84600000D01*
X96931428Y-84623809D01*
X96455238Y-85076190D02*
X96740952Y-85076190D01*
X96598095Y-85076190D02*
X96598095Y-84576190D01*
X96645714Y-84647619D01*
X96693333Y-84695238D01*
X96740952Y-84719047D01*
X96288571Y-84576190D02*
X95955238Y-84576190D01*
X96169523Y-85076190D01*
X94151428Y-99928571D02*
X94175238Y-99952380D01*
X94246666Y-99976190D01*
X94294285Y-99976190D01*
X94365714Y-99952380D01*
X94413333Y-99904761D01*
X94437142Y-99857142D01*
X94460952Y-99761904D01*
X94460952Y-99690476D01*
X94437142Y-99595238D01*
X94413333Y-99547619D01*
X94365714Y-99500000D01*
X94294285Y-99476190D01*
X94246666Y-99476190D01*
X94175238Y-99500000D01*
X94151428Y-99523809D01*
X93960952Y-99523809D02*
X93937142Y-99500000D01*
X93889523Y-99476190D01*
X93770476Y-99476190D01*
X93722857Y-99500000D01*
X93699047Y-99523809D01*
X93675238Y-99571428D01*
X93675238Y-99619047D01*
X93699047Y-99690476D01*
X93984761Y-99976190D01*
X93675238Y-99976190D01*
X93246666Y-99642857D02*
X93246666Y-99976190D01*
X93365714Y-99452380D02*
X93484761Y-99809523D01*
X93175238Y-99809523D01*
X95851428Y-98068571D02*
X95875238Y-98092380D01*
X95946666Y-98116190D01*
X95994285Y-98116190D01*
X96065714Y-98092380D01*
X96113333Y-98044761D01*
X96137142Y-97997142D01*
X96160952Y-97901904D01*
X96160952Y-97830476D01*
X96137142Y-97735238D01*
X96113333Y-97687619D01*
X96065714Y-97640000D01*
X95994285Y-97616190D01*
X95946666Y-97616190D01*
X95875238Y-97640000D01*
X95851428Y-97663809D01*
X95660952Y-97663809D02*
X95637142Y-97640000D01*
X95589523Y-97616190D01*
X95470476Y-97616190D01*
X95422857Y-97640000D01*
X95399047Y-97663809D01*
X95375238Y-97711428D01*
X95375238Y-97759047D01*
X95399047Y-97830476D01*
X95684761Y-98116190D01*
X95375238Y-98116190D01*
X94922857Y-97616190D02*
X95160952Y-97616190D01*
X95184761Y-97854285D01*
X95160952Y-97830476D01*
X95113333Y-97806666D01*
X94994285Y-97806666D01*
X94946666Y-97830476D01*
X94922857Y-97854285D01*
X94899047Y-97901904D01*
X94899047Y-98020952D01*
X94922857Y-98068571D01*
X94946666Y-98092380D01*
X94994285Y-98116190D01*
X95113333Y-98116190D01*
X95160952Y-98092380D01*
X95184761Y-98068571D01*
X95871428Y-96378571D02*
X95895238Y-96402380D01*
X95966666Y-96426190D01*
X96014285Y-96426190D01*
X96085714Y-96402380D01*
X96133333Y-96354761D01*
X96157142Y-96307142D01*
X96180952Y-96211904D01*
X96180952Y-96140476D01*
X96157142Y-96045238D01*
X96133333Y-95997619D01*
X96085714Y-95950000D01*
X96014285Y-95926190D01*
X95966666Y-95926190D01*
X95895238Y-95950000D01*
X95871428Y-95973809D01*
X95680952Y-95973809D02*
X95657142Y-95950000D01*
X95609523Y-95926190D01*
X95490476Y-95926190D01*
X95442857Y-95950000D01*
X95419047Y-95973809D01*
X95395238Y-96021428D01*
X95395238Y-96069047D01*
X95419047Y-96140476D01*
X95704761Y-96426190D01*
X95395238Y-96426190D01*
X94966666Y-95926190D02*
X95061904Y-95926190D01*
X95109523Y-95950000D01*
X95133333Y-95973809D01*
X95180952Y-96045238D01*
X95204761Y-96140476D01*
X95204761Y-96330952D01*
X95180952Y-96378571D01*
X95157142Y-96402380D01*
X95109523Y-96426190D01*
X95014285Y-96426190D01*
X94966666Y-96402380D01*
X94942857Y-96378571D01*
X94919047Y-96330952D01*
X94919047Y-96211904D01*
X94942857Y-96164285D01*
X94966666Y-96140476D01*
X95014285Y-96116666D01*
X95109523Y-96116666D01*
X95157142Y-96140476D01*
X95180952Y-96164285D01*
X95204761Y-96211904D01*
X102063333Y-84076190D02*
X102230000Y-83838095D01*
X102349047Y-84076190D02*
X102349047Y-83576190D01*
X102158571Y-83576190D01*
X102110952Y-83600000D01*
X102087142Y-83623809D01*
X102063333Y-83671428D01*
X102063333Y-83742857D01*
X102087142Y-83790476D01*
X102110952Y-83814285D01*
X102158571Y-83838095D01*
X102349047Y-83838095D01*
X101896666Y-83576190D02*
X101587142Y-83576190D01*
X101753809Y-83766666D01*
X101682380Y-83766666D01*
X101634761Y-83790476D01*
X101610952Y-83814285D01*
X101587142Y-83861904D01*
X101587142Y-83980952D01*
X101610952Y-84028571D01*
X101634761Y-84052380D01*
X101682380Y-84076190D01*
X101825238Y-84076190D01*
X101872857Y-84052380D01*
X101896666Y-84028571D01*
X93093333Y-84486190D02*
X93260000Y-84248095D01*
X93379047Y-84486190D02*
X93379047Y-83986190D01*
X93188571Y-83986190D01*
X93140952Y-84010000D01*
X93117142Y-84033809D01*
X93093333Y-84081428D01*
X93093333Y-84152857D01*
X93117142Y-84200476D01*
X93140952Y-84224285D01*
X93188571Y-84248095D01*
X93379047Y-84248095D01*
X92664761Y-84152857D02*
X92664761Y-84486190D01*
X92783809Y-83962380D02*
X92902857Y-84319523D01*
X92593333Y-84319523D01*
X104213333Y-91266190D02*
X104380000Y-91028095D01*
X104499047Y-91266190D02*
X104499047Y-90766190D01*
X104308571Y-90766190D01*
X104260952Y-90790000D01*
X104237142Y-90813809D01*
X104213333Y-90861428D01*
X104213333Y-90932857D01*
X104237142Y-90980476D01*
X104260952Y-91004285D01*
X104308571Y-91028095D01*
X104499047Y-91028095D01*
X103760952Y-90766190D02*
X103999047Y-90766190D01*
X104022857Y-91004285D01*
X103999047Y-90980476D01*
X103951428Y-90956666D01*
X103832380Y-90956666D01*
X103784761Y-90980476D01*
X103760952Y-91004285D01*
X103737142Y-91051904D01*
X103737142Y-91170952D01*
X103760952Y-91218571D01*
X103784761Y-91242380D01*
X103832380Y-91266190D01*
X103951428Y-91266190D01*
X103999047Y-91242380D01*
X104022857Y-91218571D01*
X102391428Y-83356190D02*
X102558095Y-83118095D01*
X102677142Y-83356190D02*
X102677142Y-82856190D01*
X102486666Y-82856190D01*
X102439047Y-82880000D01*
X102415238Y-82903809D01*
X102391428Y-82951428D01*
X102391428Y-83022857D01*
X102415238Y-83070476D01*
X102439047Y-83094285D01*
X102486666Y-83118095D01*
X102677142Y-83118095D01*
X101915238Y-83356190D02*
X102200952Y-83356190D01*
X102058095Y-83356190D02*
X102058095Y-82856190D01*
X102105714Y-82927619D01*
X102153333Y-82975238D01*
X102200952Y-82999047D01*
X101724761Y-82903809D02*
X101700952Y-82880000D01*
X101653333Y-82856190D01*
X101534285Y-82856190D01*
X101486666Y-82880000D01*
X101462857Y-82903809D01*
X101439047Y-82951428D01*
X101439047Y-82999047D01*
X101462857Y-83070476D01*
X101748571Y-83356190D01*
X101439047Y-83356190D01*
X93371428Y-83666190D02*
X93538095Y-83428095D01*
X93657142Y-83666190D02*
X93657142Y-83166190D01*
X93466666Y-83166190D01*
X93419047Y-83190000D01*
X93395238Y-83213809D01*
X93371428Y-83261428D01*
X93371428Y-83332857D01*
X93395238Y-83380476D01*
X93419047Y-83404285D01*
X93466666Y-83428095D01*
X93657142Y-83428095D01*
X92895238Y-83666190D02*
X93180952Y-83666190D01*
X93038095Y-83666190D02*
X93038095Y-83166190D01*
X93085714Y-83237619D01*
X93133333Y-83285238D01*
X93180952Y-83309047D01*
X92728571Y-83166190D02*
X92419047Y-83166190D01*
X92585714Y-83356666D01*
X92514285Y-83356666D01*
X92466666Y-83380476D01*
X92442857Y-83404285D01*
X92419047Y-83451904D01*
X92419047Y-83570952D01*
X92442857Y-83618571D01*
X92466666Y-83642380D01*
X92514285Y-83666190D01*
X92657142Y-83666190D01*
X92704761Y-83642380D01*
X92728571Y-83618571D01*
X103771428Y-84106190D02*
X103938095Y-83868095D01*
X104057142Y-84106190D02*
X104057142Y-83606190D01*
X103866666Y-83606190D01*
X103819047Y-83630000D01*
X103795238Y-83653809D01*
X103771428Y-83701428D01*
X103771428Y-83772857D01*
X103795238Y-83820476D01*
X103819047Y-83844285D01*
X103866666Y-83868095D01*
X104057142Y-83868095D01*
X103295238Y-84106190D02*
X103580952Y-84106190D01*
X103438095Y-84106190D02*
X103438095Y-83606190D01*
X103485714Y-83677619D01*
X103533333Y-83725238D01*
X103580952Y-83749047D01*
X102866666Y-83772857D02*
X102866666Y-84106190D01*
X102985714Y-83582380D02*
X103104761Y-83939523D01*
X102795238Y-83939523D01*
X95201428Y-83676190D02*
X95368095Y-83438095D01*
X95487142Y-83676190D02*
X95487142Y-83176190D01*
X95296666Y-83176190D01*
X95249047Y-83200000D01*
X95225238Y-83223809D01*
X95201428Y-83271428D01*
X95201428Y-83342857D01*
X95225238Y-83390476D01*
X95249047Y-83414285D01*
X95296666Y-83438095D01*
X95487142Y-83438095D01*
X94725238Y-83676190D02*
X95010952Y-83676190D01*
X94868095Y-83676190D02*
X94868095Y-83176190D01*
X94915714Y-83247619D01*
X94963333Y-83295238D01*
X95010952Y-83319047D01*
X94272857Y-83176190D02*
X94510952Y-83176190D01*
X94534761Y-83414285D01*
X94510952Y-83390476D01*
X94463333Y-83366666D01*
X94344285Y-83366666D01*
X94296666Y-83390476D01*
X94272857Y-83414285D01*
X94249047Y-83461904D01*
X94249047Y-83580952D01*
X94272857Y-83628571D01*
X94296666Y-83652380D01*
X94344285Y-83676190D01*
X94463333Y-83676190D01*
X94510952Y-83652380D01*
X94534761Y-83628571D01*
X95191428Y-84556190D02*
X95358095Y-84318095D01*
X95477142Y-84556190D02*
X95477142Y-84056190D01*
X95286666Y-84056190D01*
X95239047Y-84080000D01*
X95215238Y-84103809D01*
X95191428Y-84151428D01*
X95191428Y-84222857D01*
X95215238Y-84270476D01*
X95239047Y-84294285D01*
X95286666Y-84318095D01*
X95477142Y-84318095D01*
X94715238Y-84556190D02*
X95000952Y-84556190D01*
X94858095Y-84556190D02*
X94858095Y-84056190D01*
X94905714Y-84127619D01*
X94953333Y-84175238D01*
X95000952Y-84199047D01*
X94286666Y-84056190D02*
X94381904Y-84056190D01*
X94429523Y-84080000D01*
X94453333Y-84103809D01*
X94500952Y-84175238D01*
X94524761Y-84270476D01*
X94524761Y-84460952D01*
X94500952Y-84508571D01*
X94477142Y-84532380D01*
X94429523Y-84556190D01*
X94334285Y-84556190D01*
X94286666Y-84532380D01*
X94262857Y-84508571D01*
X94239047Y-84460952D01*
X94239047Y-84341904D01*
X94262857Y-84294285D01*
X94286666Y-84270476D01*
X94334285Y-84246666D01*
X94429523Y-84246666D01*
X94477142Y-84270476D01*
X94500952Y-84294285D01*
X94524761Y-84341904D01*
X88307619Y-92613809D02*
X88355238Y-92590000D01*
X88402857Y-92542380D01*
X88474285Y-92470952D01*
X88521904Y-92447142D01*
X88569523Y-92447142D01*
X88545714Y-92566190D02*
X88593333Y-92542380D01*
X88640952Y-92494761D01*
X88664761Y-92399523D01*
X88664761Y-92232857D01*
X88640952Y-92137619D01*
X88593333Y-92090000D01*
X88545714Y-92066190D01*
X88450476Y-92066190D01*
X88402857Y-92090000D01*
X88355238Y-92137619D01*
X88331428Y-92232857D01*
X88331428Y-92399523D01*
X88355238Y-92494761D01*
X88402857Y-92542380D01*
X88450476Y-92566190D01*
X88545714Y-92566190D01*
X88140952Y-92113809D02*
X88117142Y-92090000D01*
X88069523Y-92066190D01*
X87950476Y-92066190D01*
X87902857Y-92090000D01*
X87879047Y-92113809D01*
X87855238Y-92161428D01*
X87855238Y-92209047D01*
X87879047Y-92280476D01*
X88164761Y-92566190D01*
X87855238Y-92566190D01*
X106117619Y-92663809D02*
X106165238Y-92640000D01*
X106212857Y-92592380D01*
X106284285Y-92520952D01*
X106331904Y-92497142D01*
X106379523Y-92497142D01*
X106355714Y-92616190D02*
X106403333Y-92592380D01*
X106450952Y-92544761D01*
X106474761Y-92449523D01*
X106474761Y-92282857D01*
X106450952Y-92187619D01*
X106403333Y-92140000D01*
X106355714Y-92116190D01*
X106260476Y-92116190D01*
X106212857Y-92140000D01*
X106165238Y-92187619D01*
X106141428Y-92282857D01*
X106141428Y-92449523D01*
X106165238Y-92544761D01*
X106212857Y-92592380D01*
X106260476Y-92616190D01*
X106355714Y-92616190D01*
X105974761Y-92116190D02*
X105665238Y-92116190D01*
X105831904Y-92306666D01*
X105760476Y-92306666D01*
X105712857Y-92330476D01*
X105689047Y-92354285D01*
X105665238Y-92401904D01*
X105665238Y-92520952D01*
X105689047Y-92568571D01*
X105712857Y-92592380D01*
X105760476Y-92616190D01*
X105903333Y-92616190D01*
X105950952Y-92592380D01*
X105974761Y-92568571D01*
X97871428Y-113838571D02*
X97895238Y-113862380D01*
X97966666Y-113886190D01*
X98014285Y-113886190D01*
X98085714Y-113862380D01*
X98133333Y-113814761D01*
X98157142Y-113767142D01*
X98180952Y-113671904D01*
X98180952Y-113600476D01*
X98157142Y-113505238D01*
X98133333Y-113457619D01*
X98085714Y-113410000D01*
X98014285Y-113386190D01*
X97966666Y-113386190D01*
X97895238Y-113410000D01*
X97871428Y-113433809D01*
X97704761Y-113386190D02*
X97395238Y-113386190D01*
X97561904Y-113576666D01*
X97490476Y-113576666D01*
X97442857Y-113600476D01*
X97419047Y-113624285D01*
X97395238Y-113671904D01*
X97395238Y-113790952D01*
X97419047Y-113838571D01*
X97442857Y-113862380D01*
X97490476Y-113886190D01*
X97633333Y-113886190D01*
X97680952Y-113862380D01*
X97704761Y-113838571D01*
X96966666Y-113552857D02*
X96966666Y-113886190D01*
X97085714Y-113362380D02*
X97204761Y-113719523D01*
X96895238Y-113719523D01*
X105341428Y-112328571D02*
X105365238Y-112352380D01*
X105436666Y-112376190D01*
X105484285Y-112376190D01*
X105555714Y-112352380D01*
X105603333Y-112304761D01*
X105627142Y-112257142D01*
X105650952Y-112161904D01*
X105650952Y-112090476D01*
X105627142Y-111995238D01*
X105603333Y-111947619D01*
X105555714Y-111900000D01*
X105484285Y-111876190D01*
X105436666Y-111876190D01*
X105365238Y-111900000D01*
X105341428Y-111923809D01*
X105174761Y-111876190D02*
X104865238Y-111876190D01*
X105031904Y-112066666D01*
X104960476Y-112066666D01*
X104912857Y-112090476D01*
X104889047Y-112114285D01*
X104865238Y-112161904D01*
X104865238Y-112280952D01*
X104889047Y-112328571D01*
X104912857Y-112352380D01*
X104960476Y-112376190D01*
X105103333Y-112376190D01*
X105150952Y-112352380D01*
X105174761Y-112328571D01*
X104412857Y-111876190D02*
X104650952Y-111876190D01*
X104674761Y-112114285D01*
X104650952Y-112090476D01*
X104603333Y-112066666D01*
X104484285Y-112066666D01*
X104436666Y-112090476D01*
X104412857Y-112114285D01*
X104389047Y-112161904D01*
X104389047Y-112280952D01*
X104412857Y-112328571D01*
X104436666Y-112352380D01*
X104484285Y-112376190D01*
X104603333Y-112376190D01*
X104650952Y-112352380D01*
X104674761Y-112328571D01*
X105391428Y-113728571D02*
X105415238Y-113752380D01*
X105486666Y-113776190D01*
X105534285Y-113776190D01*
X105605714Y-113752380D01*
X105653333Y-113704761D01*
X105677142Y-113657142D01*
X105700952Y-113561904D01*
X105700952Y-113490476D01*
X105677142Y-113395238D01*
X105653333Y-113347619D01*
X105605714Y-113300000D01*
X105534285Y-113276190D01*
X105486666Y-113276190D01*
X105415238Y-113300000D01*
X105391428Y-113323809D01*
X105224761Y-113276190D02*
X104915238Y-113276190D01*
X105081904Y-113466666D01*
X105010476Y-113466666D01*
X104962857Y-113490476D01*
X104939047Y-113514285D01*
X104915238Y-113561904D01*
X104915238Y-113680952D01*
X104939047Y-113728571D01*
X104962857Y-113752380D01*
X105010476Y-113776190D01*
X105153333Y-113776190D01*
X105200952Y-113752380D01*
X105224761Y-113728571D01*
X104486666Y-113276190D02*
X104581904Y-113276190D01*
X104629523Y-113300000D01*
X104653333Y-113323809D01*
X104700952Y-113395238D01*
X104724761Y-113490476D01*
X104724761Y-113680952D01*
X104700952Y-113728571D01*
X104677142Y-113752380D01*
X104629523Y-113776190D01*
X104534285Y-113776190D01*
X104486666Y-113752380D01*
X104462857Y-113728571D01*
X104439047Y-113680952D01*
X104439047Y-113561904D01*
X104462857Y-113514285D01*
X104486666Y-113490476D01*
X104534285Y-113466666D01*
X104629523Y-113466666D01*
X104677142Y-113490476D01*
X104700952Y-113514285D01*
X104724761Y-113561904D01*
X98771428Y-112178571D02*
X98795238Y-112202380D01*
X98866666Y-112226190D01*
X98914285Y-112226190D01*
X98985714Y-112202380D01*
X99033333Y-112154761D01*
X99057142Y-112107142D01*
X99080952Y-112011904D01*
X99080952Y-111940476D01*
X99057142Y-111845238D01*
X99033333Y-111797619D01*
X98985714Y-111750000D01*
X98914285Y-111726190D01*
X98866666Y-111726190D01*
X98795238Y-111750000D01*
X98771428Y-111773809D01*
X98604761Y-111726190D02*
X98295238Y-111726190D01*
X98461904Y-111916666D01*
X98390476Y-111916666D01*
X98342857Y-111940476D01*
X98319047Y-111964285D01*
X98295238Y-112011904D01*
X98295238Y-112130952D01*
X98319047Y-112178571D01*
X98342857Y-112202380D01*
X98390476Y-112226190D01*
X98533333Y-112226190D01*
X98580952Y-112202380D01*
X98604761Y-112178571D01*
X98128571Y-111726190D02*
X97795238Y-111726190D01*
X98009523Y-112226190D01*
X100291428Y-112188571D02*
X100315238Y-112212380D01*
X100386666Y-112236190D01*
X100434285Y-112236190D01*
X100505714Y-112212380D01*
X100553333Y-112164761D01*
X100577142Y-112117142D01*
X100600952Y-112021904D01*
X100600952Y-111950476D01*
X100577142Y-111855238D01*
X100553333Y-111807619D01*
X100505714Y-111760000D01*
X100434285Y-111736190D01*
X100386666Y-111736190D01*
X100315238Y-111760000D01*
X100291428Y-111783809D01*
X100124761Y-111736190D02*
X99815238Y-111736190D01*
X99981904Y-111926666D01*
X99910476Y-111926666D01*
X99862857Y-111950476D01*
X99839047Y-111974285D01*
X99815238Y-112021904D01*
X99815238Y-112140952D01*
X99839047Y-112188571D01*
X99862857Y-112212380D01*
X99910476Y-112236190D01*
X100053333Y-112236190D01*
X100100952Y-112212380D01*
X100124761Y-112188571D01*
X99529523Y-111950476D02*
X99577142Y-111926666D01*
X99600952Y-111902857D01*
X99624761Y-111855238D01*
X99624761Y-111831428D01*
X99600952Y-111783809D01*
X99577142Y-111760000D01*
X99529523Y-111736190D01*
X99434285Y-111736190D01*
X99386666Y-111760000D01*
X99362857Y-111783809D01*
X99339047Y-111831428D01*
X99339047Y-111855238D01*
X99362857Y-111902857D01*
X99386666Y-111926666D01*
X99434285Y-111950476D01*
X99529523Y-111950476D01*
X99577142Y-111974285D01*
X99600952Y-111998095D01*
X99624761Y-112045714D01*
X99624761Y-112140952D01*
X99600952Y-112188571D01*
X99577142Y-112212380D01*
X99529523Y-112236190D01*
X99434285Y-112236190D01*
X99386666Y-112212380D01*
X99362857Y-112188571D01*
X99339047Y-112140952D01*
X99339047Y-112045714D01*
X99362857Y-111998095D01*
X99386666Y-111974285D01*
X99434285Y-111950476D01*
X92031428Y-97598571D02*
X92055238Y-97622380D01*
X92126666Y-97646190D01*
X92174285Y-97646190D01*
X92245714Y-97622380D01*
X92293333Y-97574761D01*
X92317142Y-97527142D01*
X92340952Y-97431904D01*
X92340952Y-97360476D01*
X92317142Y-97265238D01*
X92293333Y-97217619D01*
X92245714Y-97170000D01*
X92174285Y-97146190D01*
X92126666Y-97146190D01*
X92055238Y-97170000D01*
X92031428Y-97193809D01*
X91864761Y-97146190D02*
X91555238Y-97146190D01*
X91721904Y-97336666D01*
X91650476Y-97336666D01*
X91602857Y-97360476D01*
X91579047Y-97384285D01*
X91555238Y-97431904D01*
X91555238Y-97550952D01*
X91579047Y-97598571D01*
X91602857Y-97622380D01*
X91650476Y-97646190D01*
X91793333Y-97646190D01*
X91840952Y-97622380D01*
X91864761Y-97598571D01*
X91317142Y-97646190D02*
X91221904Y-97646190D01*
X91174285Y-97622380D01*
X91150476Y-97598571D01*
X91102857Y-97527142D01*
X91079047Y-97431904D01*
X91079047Y-97241428D01*
X91102857Y-97193809D01*
X91126666Y-97170000D01*
X91174285Y-97146190D01*
X91269523Y-97146190D01*
X91317142Y-97170000D01*
X91340952Y-97193809D01*
X91364761Y-97241428D01*
X91364761Y-97360476D01*
X91340952Y-97408095D01*
X91317142Y-97431904D01*
X91269523Y-97455714D01*
X91174285Y-97455714D01*
X91126666Y-97431904D01*
X91102857Y-97408095D01*
X91079047Y-97360476D01*
X92561428Y-100548571D02*
X92585238Y-100572380D01*
X92656666Y-100596190D01*
X92704285Y-100596190D01*
X92775714Y-100572380D01*
X92823333Y-100524761D01*
X92847142Y-100477142D01*
X92870952Y-100381904D01*
X92870952Y-100310476D01*
X92847142Y-100215238D01*
X92823333Y-100167619D01*
X92775714Y-100120000D01*
X92704285Y-100096190D01*
X92656666Y-100096190D01*
X92585238Y-100120000D01*
X92561428Y-100143809D01*
X92132857Y-100262857D02*
X92132857Y-100596190D01*
X92251904Y-100072380D02*
X92370952Y-100429523D01*
X92061428Y-100429523D01*
X91609047Y-100596190D02*
X91894761Y-100596190D01*
X91751904Y-100596190D02*
X91751904Y-100096190D01*
X91799523Y-100167619D01*
X91847142Y-100215238D01*
X91894761Y-100239047D01*
X87191428Y-108908571D02*
X87215238Y-108932380D01*
X87286666Y-108956190D01*
X87334285Y-108956190D01*
X87405714Y-108932380D01*
X87453333Y-108884761D01*
X87477142Y-108837142D01*
X87500952Y-108741904D01*
X87500952Y-108670476D01*
X87477142Y-108575238D01*
X87453333Y-108527619D01*
X87405714Y-108480000D01*
X87334285Y-108456190D01*
X87286666Y-108456190D01*
X87215238Y-108480000D01*
X87191428Y-108503809D01*
X87000952Y-108503809D02*
X86977142Y-108480000D01*
X86929523Y-108456190D01*
X86810476Y-108456190D01*
X86762857Y-108480000D01*
X86739047Y-108503809D01*
X86715238Y-108551428D01*
X86715238Y-108599047D01*
X86739047Y-108670476D01*
X87024761Y-108956190D01*
X86715238Y-108956190D01*
X86239047Y-108956190D02*
X86524761Y-108956190D01*
X86381904Y-108956190D02*
X86381904Y-108456190D01*
X86429523Y-108527619D01*
X86477142Y-108575238D01*
X86524761Y-108599047D01*
X92631428Y-108048571D02*
X92655238Y-108072380D01*
X92726666Y-108096190D01*
X92774285Y-108096190D01*
X92845714Y-108072380D01*
X92893333Y-108024761D01*
X92917142Y-107977142D01*
X92940952Y-107881904D01*
X92940952Y-107810476D01*
X92917142Y-107715238D01*
X92893333Y-107667619D01*
X92845714Y-107620000D01*
X92774285Y-107596190D01*
X92726666Y-107596190D01*
X92655238Y-107620000D01*
X92631428Y-107643809D01*
X92440952Y-107643809D02*
X92417142Y-107620000D01*
X92369523Y-107596190D01*
X92250476Y-107596190D01*
X92202857Y-107620000D01*
X92179047Y-107643809D01*
X92155238Y-107691428D01*
X92155238Y-107739047D01*
X92179047Y-107810476D01*
X92464761Y-108096190D01*
X92155238Y-108096190D01*
X91964761Y-107643809D02*
X91940952Y-107620000D01*
X91893333Y-107596190D01*
X91774285Y-107596190D01*
X91726666Y-107620000D01*
X91702857Y-107643809D01*
X91679047Y-107691428D01*
X91679047Y-107739047D01*
X91702857Y-107810476D01*
X91988571Y-108096190D01*
X91679047Y-108096190D01*
X91111428Y-106366190D02*
X91278095Y-106128095D01*
X91397142Y-106366190D02*
X91397142Y-105866190D01*
X91206666Y-105866190D01*
X91159047Y-105890000D01*
X91135238Y-105913809D01*
X91111428Y-105961428D01*
X91111428Y-106032857D01*
X91135238Y-106080476D01*
X91159047Y-106104285D01*
X91206666Y-106128095D01*
X91397142Y-106128095D01*
X90635238Y-106366190D02*
X90920952Y-106366190D01*
X90778095Y-106366190D02*
X90778095Y-105866190D01*
X90825714Y-105937619D01*
X90873333Y-105985238D01*
X90920952Y-106009047D01*
X90349523Y-106080476D02*
X90397142Y-106056666D01*
X90420952Y-106032857D01*
X90444761Y-105985238D01*
X90444761Y-105961428D01*
X90420952Y-105913809D01*
X90397142Y-105890000D01*
X90349523Y-105866190D01*
X90254285Y-105866190D01*
X90206666Y-105890000D01*
X90182857Y-105913809D01*
X90159047Y-105961428D01*
X90159047Y-105985238D01*
X90182857Y-106032857D01*
X90206666Y-106056666D01*
X90254285Y-106080476D01*
X90349523Y-106080476D01*
X90397142Y-106104285D01*
X90420952Y-106128095D01*
X90444761Y-106175714D01*
X90444761Y-106270952D01*
X90420952Y-106318571D01*
X90397142Y-106342380D01*
X90349523Y-106366190D01*
X90254285Y-106366190D01*
X90206666Y-106342380D01*
X90182857Y-106318571D01*
X90159047Y-106270952D01*
X90159047Y-106175714D01*
X90182857Y-106128095D01*
X90206666Y-106104285D01*
X90254285Y-106080476D01*
X92101428Y-107088571D02*
X92125238Y-107112380D01*
X92196666Y-107136190D01*
X92244285Y-107136190D01*
X92315714Y-107112380D01*
X92363333Y-107064761D01*
X92387142Y-107017142D01*
X92410952Y-106921904D01*
X92410952Y-106850476D01*
X92387142Y-106755238D01*
X92363333Y-106707619D01*
X92315714Y-106660000D01*
X92244285Y-106636190D01*
X92196666Y-106636190D01*
X92125238Y-106660000D01*
X92101428Y-106683809D01*
X91910952Y-106683809D02*
X91887142Y-106660000D01*
X91839523Y-106636190D01*
X91720476Y-106636190D01*
X91672857Y-106660000D01*
X91649047Y-106683809D01*
X91625238Y-106731428D01*
X91625238Y-106779047D01*
X91649047Y-106850476D01*
X91934761Y-107136190D01*
X91625238Y-107136190D01*
X91458571Y-106636190D02*
X91149047Y-106636190D01*
X91315714Y-106826666D01*
X91244285Y-106826666D01*
X91196666Y-106850476D01*
X91172857Y-106874285D01*
X91149047Y-106921904D01*
X91149047Y-107040952D01*
X91172857Y-107088571D01*
X91196666Y-107112380D01*
X91244285Y-107136190D01*
X91387142Y-107136190D01*
X91434761Y-107112380D01*
X91458571Y-107088571D01*
X86581428Y-105908571D02*
X86605238Y-105932380D01*
X86676666Y-105956190D01*
X86724285Y-105956190D01*
X86795714Y-105932380D01*
X86843333Y-105884761D01*
X86867142Y-105837142D01*
X86890952Y-105741904D01*
X86890952Y-105670476D01*
X86867142Y-105575238D01*
X86843333Y-105527619D01*
X86795714Y-105480000D01*
X86724285Y-105456190D01*
X86676666Y-105456190D01*
X86605238Y-105480000D01*
X86581428Y-105503809D01*
X86390952Y-105503809D02*
X86367142Y-105480000D01*
X86319523Y-105456190D01*
X86200476Y-105456190D01*
X86152857Y-105480000D01*
X86129047Y-105503809D01*
X86105238Y-105551428D01*
X86105238Y-105599047D01*
X86129047Y-105670476D01*
X86414761Y-105956190D01*
X86105238Y-105956190D01*
X85819523Y-105670476D02*
X85867142Y-105646666D01*
X85890952Y-105622857D01*
X85914761Y-105575238D01*
X85914761Y-105551428D01*
X85890952Y-105503809D01*
X85867142Y-105480000D01*
X85819523Y-105456190D01*
X85724285Y-105456190D01*
X85676666Y-105480000D01*
X85652857Y-105503809D01*
X85629047Y-105551428D01*
X85629047Y-105575238D01*
X85652857Y-105622857D01*
X85676666Y-105646666D01*
X85724285Y-105670476D01*
X85819523Y-105670476D01*
X85867142Y-105694285D01*
X85890952Y-105718095D01*
X85914761Y-105765714D01*
X85914761Y-105860952D01*
X85890952Y-105908571D01*
X85867142Y-105932380D01*
X85819523Y-105956190D01*
X85724285Y-105956190D01*
X85676666Y-105932380D01*
X85652857Y-105908571D01*
X85629047Y-105860952D01*
X85629047Y-105765714D01*
X85652857Y-105718095D01*
X85676666Y-105694285D01*
X85724285Y-105670476D01*
X92071428Y-103208571D02*
X92095238Y-103232380D01*
X92166666Y-103256190D01*
X92214285Y-103256190D01*
X92285714Y-103232380D01*
X92333333Y-103184761D01*
X92357142Y-103137142D01*
X92380952Y-103041904D01*
X92380952Y-102970476D01*
X92357142Y-102875238D01*
X92333333Y-102827619D01*
X92285714Y-102780000D01*
X92214285Y-102756190D01*
X92166666Y-102756190D01*
X92095238Y-102780000D01*
X92071428Y-102803809D01*
X91880952Y-102803809D02*
X91857142Y-102780000D01*
X91809523Y-102756190D01*
X91690476Y-102756190D01*
X91642857Y-102780000D01*
X91619047Y-102803809D01*
X91595238Y-102851428D01*
X91595238Y-102899047D01*
X91619047Y-102970476D01*
X91904761Y-103256190D01*
X91595238Y-103256190D01*
X91357142Y-103256190D02*
X91261904Y-103256190D01*
X91214285Y-103232380D01*
X91190476Y-103208571D01*
X91142857Y-103137142D01*
X91119047Y-103041904D01*
X91119047Y-102851428D01*
X91142857Y-102803809D01*
X91166666Y-102780000D01*
X91214285Y-102756190D01*
X91309523Y-102756190D01*
X91357142Y-102780000D01*
X91380952Y-102803809D01*
X91404761Y-102851428D01*
X91404761Y-102970476D01*
X91380952Y-103018095D01*
X91357142Y-103041904D01*
X91309523Y-103065714D01*
X91214285Y-103065714D01*
X91166666Y-103041904D01*
X91142857Y-103018095D01*
X91119047Y-102970476D01*
X86791428Y-102848571D02*
X86815238Y-102872380D01*
X86886666Y-102896190D01*
X86934285Y-102896190D01*
X87005714Y-102872380D01*
X87053333Y-102824761D01*
X87077142Y-102777142D01*
X87100952Y-102681904D01*
X87100952Y-102610476D01*
X87077142Y-102515238D01*
X87053333Y-102467619D01*
X87005714Y-102420000D01*
X86934285Y-102396190D01*
X86886666Y-102396190D01*
X86815238Y-102420000D01*
X86791428Y-102443809D01*
X86624761Y-102396190D02*
X86315238Y-102396190D01*
X86481904Y-102586666D01*
X86410476Y-102586666D01*
X86362857Y-102610476D01*
X86339047Y-102634285D01*
X86315238Y-102681904D01*
X86315238Y-102800952D01*
X86339047Y-102848571D01*
X86362857Y-102872380D01*
X86410476Y-102896190D01*
X86553333Y-102896190D01*
X86600952Y-102872380D01*
X86624761Y-102848571D01*
X86005714Y-102396190D02*
X85958095Y-102396190D01*
X85910476Y-102420000D01*
X85886666Y-102443809D01*
X85862857Y-102491428D01*
X85839047Y-102586666D01*
X85839047Y-102705714D01*
X85862857Y-102800952D01*
X85886666Y-102848571D01*
X85910476Y-102872380D01*
X85958095Y-102896190D01*
X86005714Y-102896190D01*
X86053333Y-102872380D01*
X86077142Y-102848571D01*
X86100952Y-102800952D01*
X86124761Y-102705714D01*
X86124761Y-102586666D01*
X86100952Y-102491428D01*
X86077142Y-102443809D01*
X86053333Y-102420000D01*
X86005714Y-102396190D01*
X92401428Y-104388571D02*
X92425238Y-104412380D01*
X92496666Y-104436190D01*
X92544285Y-104436190D01*
X92615714Y-104412380D01*
X92663333Y-104364761D01*
X92687142Y-104317142D01*
X92710952Y-104221904D01*
X92710952Y-104150476D01*
X92687142Y-104055238D01*
X92663333Y-104007619D01*
X92615714Y-103960000D01*
X92544285Y-103936190D01*
X92496666Y-103936190D01*
X92425238Y-103960000D01*
X92401428Y-103983809D01*
X91972857Y-104102857D02*
X91972857Y-104436190D01*
X92091904Y-103912380D02*
X92210952Y-104269523D01*
X91901428Y-104269523D01*
X91734761Y-103983809D02*
X91710952Y-103960000D01*
X91663333Y-103936190D01*
X91544285Y-103936190D01*
X91496666Y-103960000D01*
X91472857Y-103983809D01*
X91449047Y-104031428D01*
X91449047Y-104079047D01*
X91472857Y-104150476D01*
X91758571Y-104436190D01*
X91449047Y-104436190D01*
X92071428Y-96226190D02*
X92238095Y-95988095D01*
X92357142Y-96226190D02*
X92357142Y-95726190D01*
X92166666Y-95726190D01*
X92119047Y-95750000D01*
X92095238Y-95773809D01*
X92071428Y-95821428D01*
X92071428Y-95892857D01*
X92095238Y-95940476D01*
X92119047Y-95964285D01*
X92166666Y-95988095D01*
X92357142Y-95988095D01*
X91880952Y-95773809D02*
X91857142Y-95750000D01*
X91809523Y-95726190D01*
X91690476Y-95726190D01*
X91642857Y-95750000D01*
X91619047Y-95773809D01*
X91595238Y-95821428D01*
X91595238Y-95869047D01*
X91619047Y-95940476D01*
X91904761Y-96226190D01*
X91595238Y-96226190D01*
X91166666Y-95892857D02*
X91166666Y-96226190D01*
X91285714Y-95702380D02*
X91404761Y-96059523D01*
X91095238Y-96059523D01*
X106241428Y-106676190D02*
X106408095Y-106438095D01*
X106527142Y-106676190D02*
X106527142Y-106176190D01*
X106336666Y-106176190D01*
X106289047Y-106200000D01*
X106265238Y-106223809D01*
X106241428Y-106271428D01*
X106241428Y-106342857D01*
X106265238Y-106390476D01*
X106289047Y-106414285D01*
X106336666Y-106438095D01*
X106527142Y-106438095D01*
X106074761Y-106176190D02*
X105765238Y-106176190D01*
X105931904Y-106366666D01*
X105860476Y-106366666D01*
X105812857Y-106390476D01*
X105789047Y-106414285D01*
X105765238Y-106461904D01*
X105765238Y-106580952D01*
X105789047Y-106628571D01*
X105812857Y-106652380D01*
X105860476Y-106676190D01*
X106003333Y-106676190D01*
X106050952Y-106652380D01*
X106074761Y-106628571D01*
X105289047Y-106676190D02*
X105574761Y-106676190D01*
X105431904Y-106676190D02*
X105431904Y-106176190D01*
X105479523Y-106247619D01*
X105527142Y-106295238D01*
X105574761Y-106319047D01*
D11*
X112642857Y-102812380D02*
X112976190Y-102336190D01*
X113214285Y-102812380D02*
X113214285Y-101812380D01*
X112833333Y-101812380D01*
X112738095Y-101860000D01*
X112690476Y-101907619D01*
X112642857Y-102002857D01*
X112642857Y-102145714D01*
X112690476Y-102240952D01*
X112738095Y-102288571D01*
X112833333Y-102336190D01*
X113214285Y-102336190D01*
X111690476Y-102812380D02*
X112261904Y-102812380D01*
X111976190Y-102812380D02*
X111976190Y-101812380D01*
X112071428Y-101955238D01*
X112166666Y-102050476D01*
X112261904Y-102098095D01*
X111214285Y-102812380D02*
X111023809Y-102812380D01*
X110928571Y-102764761D01*
X110880952Y-102717142D01*
X110785714Y-102574285D01*
X110738095Y-102383809D01*
X110738095Y-102002857D01*
X110785714Y-101907619D01*
X110833333Y-101860000D01*
X110928571Y-101812380D01*
X111119047Y-101812380D01*
X111214285Y-101860000D01*
X111261904Y-101907619D01*
X111309523Y-102002857D01*
X111309523Y-102240952D01*
X111261904Y-102336190D01*
X111214285Y-102383809D01*
X111119047Y-102431428D01*
X110928571Y-102431428D01*
X110833333Y-102383809D01*
X110785714Y-102336190D01*
X110738095Y-102240952D01*
X100752380Y-91483333D02*
X100276190Y-91150000D01*
X100752380Y-90911904D02*
X99752380Y-90911904D01*
X99752380Y-91292857D01*
X99800000Y-91388095D01*
X99847619Y-91435714D01*
X99942857Y-91483333D01*
X100085714Y-91483333D01*
X100180952Y-91435714D01*
X100228571Y-91388095D01*
X100276190Y-91292857D01*
X100276190Y-90911904D01*
X100180952Y-92054761D02*
X100133333Y-91959523D01*
X100085714Y-91911904D01*
X99990476Y-91864285D01*
X99942857Y-91864285D01*
X99847619Y-91911904D01*
X99800000Y-91959523D01*
X99752380Y-92054761D01*
X99752380Y-92245238D01*
X99800000Y-92340476D01*
X99847619Y-92388095D01*
X99942857Y-92435714D01*
X99990476Y-92435714D01*
X100085714Y-92388095D01*
X100133333Y-92340476D01*
X100180952Y-92245238D01*
X100180952Y-92054761D01*
X100228571Y-91959523D01*
X100276190Y-91911904D01*
X100371428Y-91864285D01*
X100561904Y-91864285D01*
X100657142Y-91911904D01*
X100704761Y-91959523D01*
X100752380Y-92054761D01*
X100752380Y-92245238D01*
X100704761Y-92340476D01*
X100657142Y-92388095D01*
X100561904Y-92435714D01*
X100371428Y-92435714D01*
X100276190Y-92388095D01*
X100228571Y-92340476D01*
X100180952Y-92245238D01*
X91852380Y-91483333D02*
X91376190Y-91150000D01*
X91852380Y-90911904D02*
X90852380Y-90911904D01*
X90852380Y-91292857D01*
X90900000Y-91388095D01*
X90947619Y-91435714D01*
X91042857Y-91483333D01*
X91185714Y-91483333D01*
X91280952Y-91435714D01*
X91328571Y-91388095D01*
X91376190Y-91292857D01*
X91376190Y-90911904D01*
X91852380Y-91959523D02*
X91852380Y-92150000D01*
X91804761Y-92245238D01*
X91757142Y-92292857D01*
X91614285Y-92388095D01*
X91423809Y-92435714D01*
X91042857Y-92435714D01*
X90947619Y-92388095D01*
X90900000Y-92340476D01*
X90852380Y-92245238D01*
X90852380Y-92054761D01*
X90900000Y-91959523D01*
X90947619Y-91911904D01*
X91042857Y-91864285D01*
X91280952Y-91864285D01*
X91376190Y-91911904D01*
X91423809Y-91959523D01*
X91471428Y-92054761D01*
X91471428Y-92245238D01*
X91423809Y-92340476D01*
X91376190Y-92388095D01*
X91280952Y-92435714D01*
X109652380Y-91007142D02*
X109176190Y-90673809D01*
X109652380Y-90435714D02*
X108652380Y-90435714D01*
X108652380Y-90816666D01*
X108700000Y-90911904D01*
X108747619Y-90959523D01*
X108842857Y-91007142D01*
X108985714Y-91007142D01*
X109080952Y-90959523D01*
X109128571Y-90911904D01*
X109176190Y-90816666D01*
X109176190Y-90435714D01*
X109652380Y-91959523D02*
X109652380Y-91388095D01*
X109652380Y-91673809D02*
X108652380Y-91673809D01*
X108795238Y-91578571D01*
X108890476Y-91483333D01*
X108938095Y-91388095D01*
X109652380Y-92911904D02*
X109652380Y-92340476D01*
X109652380Y-92626190D02*
X108652380Y-92626190D01*
X108795238Y-92530952D01*
X108890476Y-92435714D01*
X108938095Y-92340476D01*
M02*
