G04 #@! TF.GenerationSoftware,KiCad,Pcbnew,(5.1.5)-3*
G04 #@! TF.CreationDate,2020-01-28T19:09:49-03:30*
G04 #@! TF.ProjectId,RPM Sensor,52504d20-5365-46e7-936f-722e6b696361,rev?*
G04 #@! TF.SameCoordinates,Original*
G04 #@! TF.FileFunction,Legend,Top*
G04 #@! TF.FilePolarity,Positive*
%FSLAX46Y46*%
G04 Gerber Fmt 4.6, Leading zero omitted, Abs format (unit mm)*
G04 Created by KiCad (PCBNEW (5.1.5)-3) date 2020-01-28 19:09:49*
%MOMM*%
%LPD*%
G04 APERTURE LIST*
%ADD10C,0.120000*%
%ADD11C,0.150000*%
%ADD12C,0.250000*%
%ADD13C,0.125000*%
G04 APERTURE END LIST*
D10*
X103336225Y-82762843D02*
G75*
G02X116499999Y-94000001I-3336225J-17237157D01*
G01*
X116311575Y-105931483D02*
G75*
G02X103499999Y-116999999I-16311575J5931483D01*
G01*
X96517903Y-117410485D02*
G75*
G02X97000000Y-82500000I3482097J17410485D01*
G01*
X96400000Y-98500000D02*
X96800000Y-98200000D01*
X96400000Y-98000000D02*
X96400000Y-98500000D01*
X96410625Y-98461697D02*
X96400000Y-98000000D01*
X96404737Y-98501974D02*
G75*
G02X97400000Y-97100000I3595263J-1498026D01*
G01*
X103201562Y-100000000D02*
G75*
G03X103201562Y-100000000I-3201562J0D01*
G01*
D11*
X97632142Y-92046428D02*
X97382142Y-92046428D01*
X97382142Y-92439285D02*
X97382142Y-91689285D01*
X97739285Y-91689285D01*
X98132142Y-92439285D02*
X98060714Y-92403571D01*
X98025000Y-92367857D01*
X97989285Y-92296428D01*
X97989285Y-92082142D01*
X98025000Y-92010714D01*
X98060714Y-91975000D01*
X98132142Y-91939285D01*
X98239285Y-91939285D01*
X98310714Y-91975000D01*
X98346428Y-92010714D01*
X98382142Y-92082142D01*
X98382142Y-92296428D01*
X98346428Y-92367857D01*
X98310714Y-92403571D01*
X98239285Y-92439285D01*
X98132142Y-92439285D01*
X98703571Y-92439285D02*
X98703571Y-91939285D01*
X98703571Y-92082142D02*
X98739285Y-92010714D01*
X98775000Y-91975000D01*
X98846428Y-91939285D01*
X98917857Y-91939285D01*
X99632142Y-91939285D02*
X99917857Y-91939285D01*
X99739285Y-91689285D02*
X99739285Y-92332142D01*
X99775000Y-92403571D01*
X99846428Y-92439285D01*
X99917857Y-92439285D01*
X100167857Y-92439285D02*
X100167857Y-91689285D01*
X100489285Y-92439285D02*
X100489285Y-92046428D01*
X100453571Y-91975000D01*
X100382142Y-91939285D01*
X100275000Y-91939285D01*
X100203571Y-91975000D01*
X100167857Y-92010714D01*
X101132142Y-92403571D02*
X101060714Y-92439285D01*
X100917857Y-92439285D01*
X100846428Y-92403571D01*
X100810714Y-92332142D01*
X100810714Y-92046428D01*
X100846428Y-91975000D01*
X100917857Y-91939285D01*
X101060714Y-91939285D01*
X101132142Y-91975000D01*
X101167857Y-92046428D01*
X101167857Y-92117857D01*
X100810714Y-92189285D01*
X101953571Y-91689285D02*
X102382142Y-91689285D01*
X102167857Y-92439285D02*
X102167857Y-91689285D01*
X102596428Y-91760714D02*
X102632142Y-91725000D01*
X102703571Y-91689285D01*
X102882142Y-91689285D01*
X102953571Y-91725000D01*
X102989285Y-91760714D01*
X103025000Y-91832142D01*
X103025000Y-91903571D01*
X102989285Y-92010714D01*
X102560714Y-92439285D01*
X103025000Y-92439285D01*
X103489285Y-91689285D02*
X103560714Y-91689285D01*
X103632142Y-91725000D01*
X103667857Y-91760714D01*
X103703571Y-91832142D01*
X103739285Y-91975000D01*
X103739285Y-92153571D01*
X103703571Y-92296428D01*
X103667857Y-92367857D01*
X103632142Y-92403571D01*
X103560714Y-92439285D01*
X103489285Y-92439285D01*
X103417857Y-92403571D01*
X103382142Y-92367857D01*
X103346428Y-92296428D01*
X103310714Y-92153571D01*
X103310714Y-91975000D01*
X103346428Y-91832142D01*
X103382142Y-91760714D01*
X103417857Y-91725000D01*
X103489285Y-91689285D01*
X104203571Y-91689285D02*
X104275000Y-91689285D01*
X104346428Y-91725000D01*
X104382142Y-91760714D01*
X104417857Y-91832142D01*
X104453571Y-91975000D01*
X104453571Y-92153571D01*
X104417857Y-92296428D01*
X104382142Y-92367857D01*
X104346428Y-92403571D01*
X104275000Y-92439285D01*
X104203571Y-92439285D01*
X104132142Y-92403571D01*
X104096428Y-92367857D01*
X104060714Y-92296428D01*
X104025000Y-92153571D01*
X104025000Y-91975000D01*
X104060714Y-91832142D01*
X104096428Y-91760714D01*
X104132142Y-91725000D01*
X104203571Y-91689285D01*
X84454313Y-106934136D02*
X84984643Y-106403805D01*
X84782613Y-106959389D01*
X85338197Y-106757359D01*
X84807866Y-107287689D01*
X85287689Y-107767511D02*
X85565481Y-107489719D01*
X85590735Y-107413958D01*
X85565481Y-107338197D01*
X85464466Y-107237181D01*
X85388704Y-107211927D01*
X85312943Y-107742258D02*
X85237181Y-107717004D01*
X85110912Y-107590735D01*
X85085658Y-107514973D01*
X85110912Y-107439212D01*
X85161420Y-107388704D01*
X85237181Y-107363450D01*
X85312943Y-107388704D01*
X85439212Y-107514973D01*
X85514973Y-107540227D01*
X85540227Y-108020049D02*
X85893780Y-107666496D01*
X85792765Y-107767511D02*
X85868527Y-107742258D01*
X85919034Y-107742258D01*
X85994796Y-107767511D01*
X86045303Y-107818019D01*
X85868527Y-108348349D02*
X86398857Y-107818019D01*
X86121065Y-108196826D02*
X86070557Y-108550380D01*
X86424111Y-108196826D02*
X86020049Y-108196826D01*
X87156471Y-109080710D02*
X87206979Y-109181725D01*
X87206979Y-109232233D01*
X87181725Y-109307994D01*
X87105963Y-109383755D01*
X87030202Y-109409009D01*
X86979694Y-109409009D01*
X86903933Y-109383755D01*
X86701902Y-109181725D01*
X87232233Y-108651395D01*
X87409009Y-108828172D01*
X87434263Y-108903933D01*
X87434263Y-108954441D01*
X87409009Y-109030202D01*
X87358502Y-109080710D01*
X87282740Y-109105963D01*
X87232233Y-109105963D01*
X87156471Y-109080710D01*
X86979694Y-108903933D01*
X87459517Y-109888832D02*
X87383755Y-109863578D01*
X87282740Y-109762563D01*
X87257486Y-109686801D01*
X87282740Y-109611040D01*
X87484771Y-109409009D01*
X87560532Y-109383755D01*
X87636294Y-109409009D01*
X87737309Y-109510024D01*
X87762563Y-109585786D01*
X87737309Y-109661547D01*
X87686801Y-109712055D01*
X87383755Y-109510024D01*
X87762563Y-110242385D02*
X87737309Y-110166624D01*
X87762563Y-110090862D01*
X88217131Y-109636294D01*
X87964593Y-110444416D02*
X88494923Y-109914086D01*
X88292893Y-110116116D02*
X88368654Y-110141370D01*
X88469669Y-110242385D01*
X88494923Y-110318147D01*
X88494923Y-110368654D01*
X88469669Y-110444416D01*
X88318147Y-110595938D01*
X88242385Y-110621192D01*
X88191877Y-110621192D01*
X88116116Y-110595938D01*
X88015101Y-110494923D01*
X87989847Y-110419162D01*
X88444416Y-110924238D02*
X88797969Y-110570685D01*
X88974746Y-110393908D02*
X88924238Y-110393908D01*
X88924238Y-110444416D01*
X88974746Y-110444416D01*
X88974746Y-110393908D01*
X88924238Y-110444416D01*
X89050507Y-110823223D02*
X88696954Y-111176776D01*
X89000000Y-110873730D02*
X89050507Y-110873730D01*
X89126269Y-110898984D01*
X89202030Y-110974746D01*
X89227284Y-111050507D01*
X89202030Y-111126269D01*
X88924238Y-111404061D01*
X89782868Y-111858629D02*
X90186929Y-112262690D01*
X90439467Y-112515228D02*
X90843528Y-112919289D01*
X91752665Y-113272843D02*
X91803173Y-113272843D01*
X91878934Y-113298097D01*
X92005203Y-113424366D01*
X92030457Y-113500127D01*
X92030457Y-113550635D01*
X92005203Y-113626396D01*
X91954696Y-113676904D01*
X91853680Y-113727411D01*
X91247589Y-113727411D01*
X91575888Y-114055711D01*
X92434518Y-113853680D02*
X92485026Y-113904188D01*
X92510280Y-113979950D01*
X92510280Y-114030457D01*
X92485026Y-114106219D01*
X92409264Y-114232488D01*
X92282995Y-114358757D01*
X92156726Y-114434518D01*
X92080965Y-114459772D01*
X92030457Y-114459772D01*
X91954696Y-114434518D01*
X91904188Y-114384011D01*
X91878934Y-114308249D01*
X91878934Y-114257741D01*
X91904188Y-114181980D01*
X91979950Y-114055711D01*
X92106219Y-113929442D01*
X92232488Y-113853680D01*
X92308249Y-113828427D01*
X92358757Y-113828427D01*
X92434518Y-113853680D01*
X92762818Y-114282995D02*
X92813325Y-114282995D01*
X92889087Y-114308249D01*
X93015356Y-114434518D01*
X93040610Y-114510280D01*
X93040610Y-114560787D01*
X93015356Y-114636549D01*
X92964848Y-114687056D01*
X92863833Y-114737564D01*
X92257741Y-114737564D01*
X92586041Y-115065863D01*
X93444671Y-114863833D02*
X93495178Y-114914341D01*
X93520432Y-114990102D01*
X93520432Y-115040610D01*
X93495178Y-115116371D01*
X93419417Y-115242640D01*
X93293148Y-115368909D01*
X93166879Y-115444671D01*
X93091117Y-115469925D01*
X93040610Y-115469925D01*
X92964848Y-115444671D01*
X92914341Y-115394163D01*
X92889087Y-115318402D01*
X92889087Y-115267894D01*
X92914341Y-115192133D01*
X92990102Y-115065863D01*
X93116371Y-114939594D01*
X93242640Y-114863833D01*
X93318402Y-114838579D01*
X93368909Y-114838579D01*
X93444671Y-114863833D01*
D12*
X93976190Y-87877380D02*
X93976190Y-86877380D01*
X94309523Y-87591666D01*
X94642857Y-86877380D01*
X94642857Y-87877380D01*
X95547619Y-87877380D02*
X95547619Y-87353571D01*
X95500000Y-87258333D01*
X95404761Y-87210714D01*
X95214285Y-87210714D01*
X95119047Y-87258333D01*
X95547619Y-87829761D02*
X95452380Y-87877380D01*
X95214285Y-87877380D01*
X95119047Y-87829761D01*
X95071428Y-87734523D01*
X95071428Y-87639285D01*
X95119047Y-87544047D01*
X95214285Y-87496428D01*
X95452380Y-87496428D01*
X95547619Y-87448809D01*
X96452380Y-87210714D02*
X96452380Y-88020238D01*
X96404761Y-88115476D01*
X96357142Y-88163095D01*
X96261904Y-88210714D01*
X96119047Y-88210714D01*
X96023809Y-88163095D01*
X96452380Y-87829761D02*
X96357142Y-87877380D01*
X96166666Y-87877380D01*
X96071428Y-87829761D01*
X96023809Y-87782142D01*
X95976190Y-87686904D01*
X95976190Y-87401190D01*
X96023809Y-87305952D01*
X96071428Y-87258333D01*
X96166666Y-87210714D01*
X96357142Y-87210714D01*
X96452380Y-87258333D01*
X96928571Y-87210714D02*
X96928571Y-87877380D01*
X96928571Y-87305952D02*
X96976190Y-87258333D01*
X97071428Y-87210714D01*
X97214285Y-87210714D01*
X97309523Y-87258333D01*
X97357142Y-87353571D01*
X97357142Y-87877380D01*
X98214285Y-87829761D02*
X98119047Y-87877380D01*
X97928571Y-87877380D01*
X97833333Y-87829761D01*
X97785714Y-87734523D01*
X97785714Y-87353571D01*
X97833333Y-87258333D01*
X97928571Y-87210714D01*
X98119047Y-87210714D01*
X98214285Y-87258333D01*
X98261904Y-87353571D01*
X98261904Y-87448809D01*
X97785714Y-87544047D01*
X98547619Y-87210714D02*
X98928571Y-87210714D01*
X98690476Y-86877380D02*
X98690476Y-87734523D01*
X98738095Y-87829761D01*
X98833333Y-87877380D01*
X98928571Y-87877380D01*
X99261904Y-87877380D02*
X99261904Y-87210714D01*
X99261904Y-86877380D02*
X99214285Y-86925000D01*
X99261904Y-86972619D01*
X99309523Y-86925000D01*
X99261904Y-86877380D01*
X99261904Y-86972619D01*
X100166666Y-87829761D02*
X100071428Y-87877380D01*
X99880952Y-87877380D01*
X99785714Y-87829761D01*
X99738095Y-87782142D01*
X99690476Y-87686904D01*
X99690476Y-87401190D01*
X99738095Y-87305952D01*
X99785714Y-87258333D01*
X99880952Y-87210714D01*
X100071428Y-87210714D01*
X100166666Y-87258333D01*
X101928571Y-87877380D02*
X101595238Y-87401190D01*
X101357142Y-87877380D02*
X101357142Y-86877380D01*
X101738095Y-86877380D01*
X101833333Y-86925000D01*
X101880952Y-86972619D01*
X101928571Y-87067857D01*
X101928571Y-87210714D01*
X101880952Y-87305952D01*
X101833333Y-87353571D01*
X101738095Y-87401190D01*
X101357142Y-87401190D01*
X102357142Y-87877380D02*
X102357142Y-86877380D01*
X102738095Y-86877380D01*
X102833333Y-86925000D01*
X102880952Y-86972619D01*
X102928571Y-87067857D01*
X102928571Y-87210714D01*
X102880952Y-87305952D01*
X102833333Y-87353571D01*
X102738095Y-87401190D01*
X102357142Y-87401190D01*
X103357142Y-87877380D02*
X103357142Y-86877380D01*
X103690476Y-87591666D01*
X104023809Y-86877380D01*
X104023809Y-87877380D01*
X94119047Y-89579761D02*
X94261904Y-89627380D01*
X94500000Y-89627380D01*
X94595238Y-89579761D01*
X94642857Y-89532142D01*
X94690476Y-89436904D01*
X94690476Y-89341666D01*
X94642857Y-89246428D01*
X94595238Y-89198809D01*
X94500000Y-89151190D01*
X94309523Y-89103571D01*
X94214285Y-89055952D01*
X94166666Y-89008333D01*
X94119047Y-88913095D01*
X94119047Y-88817857D01*
X94166666Y-88722619D01*
X94214285Y-88675000D01*
X94309523Y-88627380D01*
X94547619Y-88627380D01*
X94690476Y-88675000D01*
X95500000Y-89579761D02*
X95404761Y-89627380D01*
X95214285Y-89627380D01*
X95119047Y-89579761D01*
X95071428Y-89484523D01*
X95071428Y-89103571D01*
X95119047Y-89008333D01*
X95214285Y-88960714D01*
X95404761Y-88960714D01*
X95500000Y-89008333D01*
X95547619Y-89103571D01*
X95547619Y-89198809D01*
X95071428Y-89294047D01*
X95976190Y-88960714D02*
X95976190Y-89627380D01*
X95976190Y-89055952D02*
X96023809Y-89008333D01*
X96119047Y-88960714D01*
X96261904Y-88960714D01*
X96357142Y-89008333D01*
X96404761Y-89103571D01*
X96404761Y-89627380D01*
X96833333Y-89579761D02*
X96928571Y-89627380D01*
X97119047Y-89627380D01*
X97214285Y-89579761D01*
X97261904Y-89484523D01*
X97261904Y-89436904D01*
X97214285Y-89341666D01*
X97119047Y-89294047D01*
X96976190Y-89294047D01*
X96880952Y-89246428D01*
X96833333Y-89151190D01*
X96833333Y-89103571D01*
X96880952Y-89008333D01*
X96976190Y-88960714D01*
X97119047Y-88960714D01*
X97214285Y-89008333D01*
X97833333Y-89627380D02*
X97738095Y-89579761D01*
X97690476Y-89532142D01*
X97642857Y-89436904D01*
X97642857Y-89151190D01*
X97690476Y-89055952D01*
X97738095Y-89008333D01*
X97833333Y-88960714D01*
X97976190Y-88960714D01*
X98071428Y-89008333D01*
X98119047Y-89055952D01*
X98166666Y-89151190D01*
X98166666Y-89436904D01*
X98119047Y-89532142D01*
X98071428Y-89579761D01*
X97976190Y-89627380D01*
X97833333Y-89627380D01*
X98595238Y-89627380D02*
X98595238Y-88960714D01*
X98595238Y-89151190D02*
X98642857Y-89055952D01*
X98690476Y-89008333D01*
X98785714Y-88960714D01*
X98880952Y-88960714D01*
X100309523Y-89103571D02*
X100452380Y-89151190D01*
X100500000Y-89198809D01*
X100547619Y-89294047D01*
X100547619Y-89436904D01*
X100500000Y-89532142D01*
X100452380Y-89579761D01*
X100357142Y-89627380D01*
X99976190Y-89627380D01*
X99976190Y-88627380D01*
X100309523Y-88627380D01*
X100404761Y-88675000D01*
X100452380Y-88722619D01*
X100500000Y-88817857D01*
X100500000Y-88913095D01*
X100452380Y-89008333D01*
X100404761Y-89055952D01*
X100309523Y-89103571D01*
X99976190Y-89103571D01*
X101119047Y-89627380D02*
X101023809Y-89579761D01*
X100976190Y-89532142D01*
X100928571Y-89436904D01*
X100928571Y-89151190D01*
X100976190Y-89055952D01*
X101023809Y-89008333D01*
X101119047Y-88960714D01*
X101261904Y-88960714D01*
X101357142Y-89008333D01*
X101404761Y-89055952D01*
X101452380Y-89151190D01*
X101452380Y-89436904D01*
X101404761Y-89532142D01*
X101357142Y-89579761D01*
X101261904Y-89627380D01*
X101119047Y-89627380D01*
X102309523Y-89627380D02*
X102309523Y-89103571D01*
X102261904Y-89008333D01*
X102166666Y-88960714D01*
X101976190Y-88960714D01*
X101880952Y-89008333D01*
X102309523Y-89579761D02*
X102214285Y-89627380D01*
X101976190Y-89627380D01*
X101880952Y-89579761D01*
X101833333Y-89484523D01*
X101833333Y-89389285D01*
X101880952Y-89294047D01*
X101976190Y-89246428D01*
X102214285Y-89246428D01*
X102309523Y-89198809D01*
X102785714Y-89627380D02*
X102785714Y-88960714D01*
X102785714Y-89151190D02*
X102833333Y-89055952D01*
X102880952Y-89008333D01*
X102976190Y-88960714D01*
X103071428Y-88960714D01*
X103833333Y-89627380D02*
X103833333Y-88627380D01*
X103833333Y-89579761D02*
X103738095Y-89627380D01*
X103547619Y-89627380D01*
X103452380Y-89579761D01*
X103404761Y-89532142D01*
X103357142Y-89436904D01*
X103357142Y-89151190D01*
X103404761Y-89055952D01*
X103452380Y-89008333D01*
X103547619Y-88960714D01*
X103738095Y-88960714D01*
X103833333Y-89008333D01*
D13*
X106657142Y-100335714D02*
X107038095Y-100335714D01*
X106847619Y-100526190D02*
X106847619Y-100145238D01*
X107514285Y-100026190D02*
X107276190Y-100026190D01*
X107252380Y-100264285D01*
X107276190Y-100240476D01*
X107323809Y-100216666D01*
X107442857Y-100216666D01*
X107490476Y-100240476D01*
X107514285Y-100264285D01*
X107538095Y-100311904D01*
X107538095Y-100430952D01*
X107514285Y-100478571D01*
X107490476Y-100502380D01*
X107442857Y-100526190D01*
X107323809Y-100526190D01*
X107276190Y-100502380D01*
X107252380Y-100478571D01*
X107680952Y-100026190D02*
X107847619Y-100526190D01*
X108014285Y-100026190D01*
X107019047Y-95150000D02*
X106971428Y-95126190D01*
X106900000Y-95126190D01*
X106828571Y-95150000D01*
X106780952Y-95197619D01*
X106757142Y-95245238D01*
X106733333Y-95340476D01*
X106733333Y-95411904D01*
X106757142Y-95507142D01*
X106780952Y-95554761D01*
X106828571Y-95602380D01*
X106900000Y-95626190D01*
X106947619Y-95626190D01*
X107019047Y-95602380D01*
X107042857Y-95578571D01*
X107042857Y-95411904D01*
X106947619Y-95411904D01*
X107257142Y-95626190D02*
X107257142Y-95126190D01*
X107542857Y-95626190D01*
X107542857Y-95126190D01*
X107780952Y-95626190D02*
X107780952Y-95126190D01*
X107900000Y-95126190D01*
X107971428Y-95150000D01*
X108019047Y-95197619D01*
X108042857Y-95245238D01*
X108066666Y-95340476D01*
X108066666Y-95411904D01*
X108042857Y-95507142D01*
X108019047Y-95554761D01*
X107971428Y-95602380D01*
X107900000Y-95626190D01*
X107780952Y-95626190D01*
D10*
X98900000Y-110400000D02*
X98700000Y-110700000D01*
X98900000Y-110400000D02*
X98500000Y-110400000D01*
X97300000Y-111100000D02*
X98900000Y-110400000D01*
X97200000Y-109300000D02*
X97300000Y-109700000D01*
X97200000Y-109300000D02*
X96900000Y-109500000D01*
X96900000Y-110000000D02*
X97200000Y-109300000D01*
D13*
X95800000Y-110964880D02*
X95871428Y-110988690D01*
X95990476Y-110988690D01*
X96038095Y-110964880D01*
X96061904Y-110941071D01*
X96085714Y-110893452D01*
X96085714Y-110845833D01*
X96061904Y-110798214D01*
X96038095Y-110774404D01*
X95990476Y-110750595D01*
X95895238Y-110726785D01*
X95847619Y-110702976D01*
X95823809Y-110679166D01*
X95800000Y-110631547D01*
X95800000Y-110583928D01*
X95823809Y-110536309D01*
X95847619Y-110512500D01*
X95895238Y-110488690D01*
X96014285Y-110488690D01*
X96085714Y-110512500D01*
X96276190Y-110964880D02*
X96347619Y-110988690D01*
X96466666Y-110988690D01*
X96514285Y-110964880D01*
X96538095Y-110941071D01*
X96561904Y-110893452D01*
X96561904Y-110845833D01*
X96538095Y-110798214D01*
X96514285Y-110774404D01*
X96466666Y-110750595D01*
X96371428Y-110726785D01*
X96323809Y-110702976D01*
X96300000Y-110679166D01*
X96276190Y-110631547D01*
X96276190Y-110583928D01*
X96300000Y-110536309D01*
X96323809Y-110512500D01*
X96371428Y-110488690D01*
X96490476Y-110488690D01*
X96561904Y-110512500D01*
X96776190Y-110988690D02*
X96776190Y-110488690D01*
X95788095Y-111839880D02*
X95859523Y-111863690D01*
X95978571Y-111863690D01*
X96026190Y-111839880D01*
X96050000Y-111816071D01*
X96073809Y-111768452D01*
X96073809Y-111720833D01*
X96050000Y-111673214D01*
X96026190Y-111649404D01*
X95978571Y-111625595D01*
X95883333Y-111601785D01*
X95835714Y-111577976D01*
X95811904Y-111554166D01*
X95788095Y-111506547D01*
X95788095Y-111458928D01*
X95811904Y-111411309D01*
X95835714Y-111387500D01*
X95883333Y-111363690D01*
X96002380Y-111363690D01*
X96073809Y-111387500D01*
X96288095Y-111863690D02*
X96288095Y-111363690D01*
X96478571Y-111363690D01*
X96526190Y-111387500D01*
X96550000Y-111411309D01*
X96573809Y-111458928D01*
X96573809Y-111530357D01*
X96550000Y-111577976D01*
X96526190Y-111601785D01*
X96478571Y-111625595D01*
X96288095Y-111625595D01*
X96788095Y-111863690D02*
X96788095Y-111363690D01*
X104307142Y-108188690D02*
X104307142Y-107688690D01*
X104426190Y-107688690D01*
X104497619Y-107712500D01*
X104545238Y-107760119D01*
X104569047Y-107807738D01*
X104592857Y-107902976D01*
X104592857Y-107974404D01*
X104569047Y-108069642D01*
X104545238Y-108117261D01*
X104497619Y-108164880D01*
X104426190Y-108188690D01*
X104307142Y-108188690D01*
X104902380Y-107688690D02*
X104997619Y-107688690D01*
X105045238Y-107712500D01*
X105092857Y-107760119D01*
X105116666Y-107855357D01*
X105116666Y-108022023D01*
X105092857Y-108117261D01*
X105045238Y-108164880D01*
X104997619Y-108188690D01*
X104902380Y-108188690D01*
X104854761Y-108164880D01*
X104807142Y-108117261D01*
X104783333Y-108022023D01*
X104783333Y-107855357D01*
X104807142Y-107760119D01*
X104854761Y-107712500D01*
X104902380Y-107688690D01*
X104307142Y-109063690D02*
X104307142Y-108563690D01*
X104426190Y-108563690D01*
X104497619Y-108587500D01*
X104545238Y-108635119D01*
X104569047Y-108682738D01*
X104592857Y-108777976D01*
X104592857Y-108849404D01*
X104569047Y-108944642D01*
X104545238Y-108992261D01*
X104497619Y-109039880D01*
X104426190Y-109063690D01*
X104307142Y-109063690D01*
X104902380Y-108563690D02*
X104997619Y-108563690D01*
X105045238Y-108587500D01*
X105092857Y-108635119D01*
X105116666Y-108730357D01*
X105116666Y-108897023D01*
X105092857Y-108992261D01*
X105045238Y-109039880D01*
X104997619Y-109063690D01*
X104902380Y-109063690D01*
X104854761Y-109039880D01*
X104807142Y-108992261D01*
X104783333Y-108897023D01*
X104783333Y-108730357D01*
X104807142Y-108635119D01*
X104854761Y-108587500D01*
X104902380Y-108563690D01*
X101816666Y-108188690D02*
X101816666Y-107688690D01*
X102102380Y-108188690D01*
X102102380Y-107688690D01*
X102316666Y-108164880D02*
X102388095Y-108188690D01*
X102507142Y-108188690D01*
X102554761Y-108164880D01*
X102578571Y-108141071D01*
X102602380Y-108093452D01*
X102602380Y-108045833D01*
X102578571Y-107998214D01*
X102554761Y-107974404D01*
X102507142Y-107950595D01*
X102411904Y-107926785D01*
X102364285Y-107902976D01*
X102340476Y-107879166D01*
X102316666Y-107831547D01*
X102316666Y-107783928D01*
X102340476Y-107736309D01*
X102364285Y-107712500D01*
X102411904Y-107688690D01*
X102530952Y-107688690D01*
X102602380Y-107712500D01*
X103054761Y-108188690D02*
X102816666Y-108188690D01*
X102816666Y-107688690D01*
X102150000Y-109063690D02*
X102150000Y-108563690D01*
X102269047Y-108563690D01*
X102340476Y-108587500D01*
X102388095Y-108635119D01*
X102411904Y-108682738D01*
X102435714Y-108777976D01*
X102435714Y-108849404D01*
X102411904Y-108944642D01*
X102388095Y-108992261D01*
X102340476Y-109039880D01*
X102269047Y-109063690D01*
X102150000Y-109063690D01*
X102650000Y-109063690D02*
X102650000Y-108563690D01*
X99428571Y-110964880D02*
X99500000Y-110988690D01*
X99619047Y-110988690D01*
X99666666Y-110964880D01*
X99690476Y-110941071D01*
X99714285Y-110893452D01*
X99714285Y-110845833D01*
X99690476Y-110798214D01*
X99666666Y-110774404D01*
X99619047Y-110750595D01*
X99523809Y-110726785D01*
X99476190Y-110702976D01*
X99452380Y-110679166D01*
X99428571Y-110631547D01*
X99428571Y-110583928D01*
X99452380Y-110536309D01*
X99476190Y-110512500D01*
X99523809Y-110488690D01*
X99642857Y-110488690D01*
X99714285Y-110512500D01*
X99928571Y-110726785D02*
X100095238Y-110726785D01*
X100166666Y-110988690D02*
X99928571Y-110988690D01*
X99928571Y-110488690D01*
X100166666Y-110488690D01*
X100619047Y-110988690D02*
X100380952Y-110988690D01*
X100380952Y-110488690D01*
X99916666Y-111816071D02*
X99892857Y-111839880D01*
X99821428Y-111863690D01*
X99773809Y-111863690D01*
X99702380Y-111839880D01*
X99654761Y-111792261D01*
X99630952Y-111744642D01*
X99607142Y-111649404D01*
X99607142Y-111577976D01*
X99630952Y-111482738D01*
X99654761Y-111435119D01*
X99702380Y-111387500D01*
X99773809Y-111363690D01*
X99821428Y-111363690D01*
X99892857Y-111387500D01*
X99916666Y-111411309D01*
X100107142Y-111839880D02*
X100178571Y-111863690D01*
X100297619Y-111863690D01*
X100345238Y-111839880D01*
X100369047Y-111816071D01*
X100392857Y-111768452D01*
X100392857Y-111720833D01*
X100369047Y-111673214D01*
X100345238Y-111649404D01*
X100297619Y-111625595D01*
X100202380Y-111601785D01*
X100154761Y-111577976D01*
X100130952Y-111554166D01*
X100107142Y-111506547D01*
X100107142Y-111458928D01*
X100130952Y-111411309D01*
X100154761Y-111387500D01*
X100202380Y-111363690D01*
X100321428Y-111363690D01*
X100392857Y-111387500D01*
X96804761Y-107864880D02*
X96876190Y-107888690D01*
X96995238Y-107888690D01*
X97042857Y-107864880D01*
X97066666Y-107841071D01*
X97090476Y-107793452D01*
X97090476Y-107745833D01*
X97066666Y-107698214D01*
X97042857Y-107674404D01*
X96995238Y-107650595D01*
X96900000Y-107626785D01*
X96852380Y-107602976D01*
X96828571Y-107579166D01*
X96804761Y-107531547D01*
X96804761Y-107483928D01*
X96828571Y-107436309D01*
X96852380Y-107412500D01*
X96900000Y-107388690D01*
X97019047Y-107388690D01*
X97090476Y-107412500D01*
X97590476Y-107841071D02*
X97566666Y-107864880D01*
X97495238Y-107888690D01*
X97447619Y-107888690D01*
X97376190Y-107864880D01*
X97328571Y-107817261D01*
X97304761Y-107769642D01*
X97280952Y-107674404D01*
X97280952Y-107602976D01*
X97304761Y-107507738D01*
X97328571Y-107460119D01*
X97376190Y-107412500D01*
X97447619Y-107388690D01*
X97495238Y-107388690D01*
X97566666Y-107412500D01*
X97590476Y-107436309D01*
X98042857Y-107888690D02*
X97804761Y-107888690D01*
X97804761Y-107388690D01*
X97102380Y-108716071D02*
X97078571Y-108739880D01*
X97007142Y-108763690D01*
X96959523Y-108763690D01*
X96888095Y-108739880D01*
X96840476Y-108692261D01*
X96816666Y-108644642D01*
X96792857Y-108549404D01*
X96792857Y-108477976D01*
X96816666Y-108382738D01*
X96840476Y-108335119D01*
X96888095Y-108287500D01*
X96959523Y-108263690D01*
X97007142Y-108263690D01*
X97078571Y-108287500D01*
X97102380Y-108311309D01*
X97554761Y-108763690D02*
X97316666Y-108763690D01*
X97316666Y-108263690D01*
X97721428Y-108763690D02*
X97721428Y-108263690D01*
X98007142Y-108763690D02*
X97792857Y-108477976D01*
X98007142Y-108263690D02*
X97721428Y-108549404D01*
X95480952Y-105983333D02*
X95719047Y-105983333D01*
X95433333Y-106126190D02*
X95600000Y-105626190D01*
X95766666Y-106126190D01*
X94035714Y-103764285D02*
X94107142Y-103788095D01*
X94130952Y-103811904D01*
X94154761Y-103859523D01*
X94154761Y-103930952D01*
X94130952Y-103978571D01*
X94107142Y-104002380D01*
X94059523Y-104026190D01*
X93869047Y-104026190D01*
X93869047Y-103526190D01*
X94035714Y-103526190D01*
X94083333Y-103550000D01*
X94107142Y-103573809D01*
X94130952Y-103621428D01*
X94130952Y-103669047D01*
X94107142Y-103716666D01*
X94083333Y-103740476D01*
X94035714Y-103764285D01*
X93869047Y-103764285D01*
X93400000Y-101726190D02*
X93400000Y-101226190D01*
X93002380Y-98426190D02*
X93121428Y-98926190D01*
X93216666Y-98569047D01*
X93311904Y-98926190D01*
X93430952Y-98426190D01*
X93978571Y-98402380D02*
X93550000Y-99045238D01*
X94145238Y-98926190D02*
X94145238Y-98426190D01*
X94335714Y-98426190D01*
X94383333Y-98450000D01*
X94407142Y-98473809D01*
X94430952Y-98521428D01*
X94430952Y-98592857D01*
X94407142Y-98640476D01*
X94383333Y-98664285D01*
X94335714Y-98688095D01*
X94145238Y-98688095D01*
X94597619Y-98426190D02*
X94716666Y-98926190D01*
X94811904Y-98569047D01*
X94907142Y-98926190D01*
X95026190Y-98426190D01*
X95216666Y-98926190D02*
X95216666Y-98426190D01*
X95383333Y-98783333D01*
X95550000Y-98426190D01*
X95550000Y-98926190D01*
X93733333Y-95926190D02*
X93900000Y-96426190D01*
X94066666Y-95926190D01*
X95657142Y-93226190D02*
X95657142Y-93630952D01*
X95680952Y-93678571D01*
X95704761Y-93702380D01*
X95752380Y-93726190D01*
X95847619Y-93726190D01*
X95895238Y-93702380D01*
X95919047Y-93678571D01*
X95942857Y-93630952D01*
X95942857Y-93226190D01*
X90019047Y-107250000D02*
X89971428Y-107226190D01*
X89900000Y-107226190D01*
X89828571Y-107250000D01*
X89780952Y-107297619D01*
X89757142Y-107345238D01*
X89733333Y-107440476D01*
X89733333Y-107511904D01*
X89757142Y-107607142D01*
X89780952Y-107654761D01*
X89828571Y-107702380D01*
X89900000Y-107726190D01*
X89947619Y-107726190D01*
X90019047Y-107702380D01*
X90042857Y-107678571D01*
X90042857Y-107511904D01*
X89947619Y-107511904D01*
X90257142Y-107726190D02*
X90257142Y-107226190D01*
X90542857Y-107726190D01*
X90542857Y-107226190D01*
X90780952Y-107726190D02*
X90780952Y-107226190D01*
X90900000Y-107226190D01*
X90971428Y-107250000D01*
X91019047Y-107297619D01*
X91042857Y-107345238D01*
X91066666Y-107440476D01*
X91066666Y-107511904D01*
X91042857Y-107607142D01*
X91019047Y-107654761D01*
X90971428Y-107702380D01*
X90900000Y-107726190D01*
X90780952Y-107726190D01*
X86919047Y-101250000D02*
X86871428Y-101226190D01*
X86800000Y-101226190D01*
X86728571Y-101250000D01*
X86680952Y-101297619D01*
X86657142Y-101345238D01*
X86633333Y-101440476D01*
X86633333Y-101511904D01*
X86657142Y-101607142D01*
X86680952Y-101654761D01*
X86728571Y-101702380D01*
X86800000Y-101726190D01*
X86847619Y-101726190D01*
X86919047Y-101702380D01*
X86942857Y-101678571D01*
X86942857Y-101511904D01*
X86847619Y-101511904D01*
X87157142Y-101726190D02*
X87157142Y-101226190D01*
X87442857Y-101726190D01*
X87442857Y-101226190D01*
X87680952Y-101726190D02*
X87680952Y-101226190D01*
X87800000Y-101226190D01*
X87871428Y-101250000D01*
X87919047Y-101297619D01*
X87942857Y-101345238D01*
X87966666Y-101440476D01*
X87966666Y-101511904D01*
X87942857Y-101607142D01*
X87919047Y-101654761D01*
X87871428Y-101702380D01*
X87800000Y-101726190D01*
X87680952Y-101726190D01*
X87019047Y-93750000D02*
X86971428Y-93726190D01*
X86900000Y-93726190D01*
X86828571Y-93750000D01*
X86780952Y-93797619D01*
X86757142Y-93845238D01*
X86733333Y-93940476D01*
X86733333Y-94011904D01*
X86757142Y-94107142D01*
X86780952Y-94154761D01*
X86828571Y-94202380D01*
X86900000Y-94226190D01*
X86947619Y-94226190D01*
X87019047Y-94202380D01*
X87042857Y-94178571D01*
X87042857Y-94011904D01*
X86947619Y-94011904D01*
X87257142Y-94226190D02*
X87257142Y-93726190D01*
X87542857Y-94226190D01*
X87542857Y-93726190D01*
X87780952Y-94226190D02*
X87780952Y-93726190D01*
X87900000Y-93726190D01*
X87971428Y-93750000D01*
X88019047Y-93797619D01*
X88042857Y-93845238D01*
X88066666Y-93940476D01*
X88066666Y-94011904D01*
X88042857Y-94107142D01*
X88019047Y-94154761D01*
X87971428Y-94202380D01*
X87900000Y-94226190D01*
X87780952Y-94226190D01*
X90019047Y-88350000D02*
X89971428Y-88326190D01*
X89900000Y-88326190D01*
X89828571Y-88350000D01*
X89780952Y-88397619D01*
X89757142Y-88445238D01*
X89733333Y-88540476D01*
X89733333Y-88611904D01*
X89757142Y-88707142D01*
X89780952Y-88754761D01*
X89828571Y-88802380D01*
X89900000Y-88826190D01*
X89947619Y-88826190D01*
X90019047Y-88802380D01*
X90042857Y-88778571D01*
X90042857Y-88611904D01*
X89947619Y-88611904D01*
X90257142Y-88826190D02*
X90257142Y-88326190D01*
X90542857Y-88826190D01*
X90542857Y-88326190D01*
X90780952Y-88826190D02*
X90780952Y-88326190D01*
X90900000Y-88326190D01*
X90971428Y-88350000D01*
X91019047Y-88397619D01*
X91042857Y-88445238D01*
X91066666Y-88540476D01*
X91066666Y-88611904D01*
X91042857Y-88707142D01*
X91019047Y-88754761D01*
X90971428Y-88802380D01*
X90900000Y-88826190D01*
X90780952Y-88826190D01*
X95785714Y-104226190D02*
X95785714Y-103726190D01*
X95952380Y-104083333D01*
X96119047Y-103726190D01*
X96119047Y-104226190D01*
X96571428Y-104226190D02*
X96571428Y-103964285D01*
X96547619Y-103916666D01*
X96500000Y-103892857D01*
X96404761Y-103892857D01*
X96357142Y-103916666D01*
X96571428Y-104202380D02*
X96523809Y-104226190D01*
X96404761Y-104226190D01*
X96357142Y-104202380D01*
X96333333Y-104154761D01*
X96333333Y-104107142D01*
X96357142Y-104059523D01*
X96404761Y-104035714D01*
X96523809Y-104035714D01*
X96571428Y-104011904D01*
X97023809Y-103892857D02*
X97023809Y-104297619D01*
X97000000Y-104345238D01*
X96976190Y-104369047D01*
X96928571Y-104392857D01*
X96857142Y-104392857D01*
X96809523Y-104369047D01*
X97023809Y-104202380D02*
X96976190Y-104226190D01*
X96880952Y-104226190D01*
X96833333Y-104202380D01*
X96809523Y-104178571D01*
X96785714Y-104130952D01*
X96785714Y-103988095D01*
X96809523Y-103940476D01*
X96833333Y-103916666D01*
X96880952Y-103892857D01*
X96976190Y-103892857D01*
X97023809Y-103916666D01*
X97261904Y-103892857D02*
X97261904Y-104226190D01*
X97261904Y-103940476D02*
X97285714Y-103916666D01*
X97333333Y-103892857D01*
X97404761Y-103892857D01*
X97452380Y-103916666D01*
X97476190Y-103964285D01*
X97476190Y-104226190D01*
X97904761Y-104202380D02*
X97857142Y-104226190D01*
X97761904Y-104226190D01*
X97714285Y-104202380D01*
X97690476Y-104154761D01*
X97690476Y-103964285D01*
X97714285Y-103916666D01*
X97761904Y-103892857D01*
X97857142Y-103892857D01*
X97904761Y-103916666D01*
X97928571Y-103964285D01*
X97928571Y-104011904D01*
X97690476Y-104059523D01*
X98071428Y-103892857D02*
X98261904Y-103892857D01*
X98142857Y-103726190D02*
X98142857Y-104154761D01*
X98166666Y-104202380D01*
X98214285Y-104226190D01*
X98261904Y-104226190D01*
X98428571Y-104226190D02*
X98428571Y-103892857D01*
X98428571Y-103726190D02*
X98404761Y-103750000D01*
X98428571Y-103773809D01*
X98452380Y-103750000D01*
X98428571Y-103726190D01*
X98428571Y-103773809D01*
X98880952Y-104202380D02*
X98833333Y-104226190D01*
X98738095Y-104226190D01*
X98690476Y-104202380D01*
X98666666Y-104178571D01*
X98642857Y-104130952D01*
X98642857Y-103988095D01*
X98666666Y-103940476D01*
X98690476Y-103916666D01*
X98738095Y-103892857D01*
X98833333Y-103892857D01*
X98880952Y-103916666D01*
X99476190Y-103964285D02*
X99642857Y-103964285D01*
X99714285Y-104226190D02*
X99476190Y-104226190D01*
X99476190Y-103726190D01*
X99714285Y-103726190D01*
X99928571Y-103892857D02*
X99928571Y-104226190D01*
X99928571Y-103940476D02*
X99952380Y-103916666D01*
X100000000Y-103892857D01*
X100071428Y-103892857D01*
X100119047Y-103916666D01*
X100142857Y-103964285D01*
X100142857Y-104226190D01*
X100595238Y-104202380D02*
X100547619Y-104226190D01*
X100452380Y-104226190D01*
X100404761Y-104202380D01*
X100380952Y-104178571D01*
X100357142Y-104130952D01*
X100357142Y-103988095D01*
X100380952Y-103940476D01*
X100404761Y-103916666D01*
X100452380Y-103892857D01*
X100547619Y-103892857D01*
X100595238Y-103916666D01*
X100880952Y-104226190D02*
X100833333Y-104202380D01*
X100809523Y-104178571D01*
X100785714Y-104130952D01*
X100785714Y-103988095D01*
X100809523Y-103940476D01*
X100833333Y-103916666D01*
X100880952Y-103892857D01*
X100952380Y-103892857D01*
X101000000Y-103916666D01*
X101023809Y-103940476D01*
X101047619Y-103988095D01*
X101047619Y-104130952D01*
X101023809Y-104178571D01*
X101000000Y-104202380D01*
X100952380Y-104226190D01*
X100880952Y-104226190D01*
X101476190Y-104226190D02*
X101476190Y-103726190D01*
X101476190Y-104202380D02*
X101428571Y-104226190D01*
X101333333Y-104226190D01*
X101285714Y-104202380D01*
X101261904Y-104178571D01*
X101238095Y-104130952D01*
X101238095Y-103988095D01*
X101261904Y-103940476D01*
X101285714Y-103916666D01*
X101333333Y-103892857D01*
X101428571Y-103892857D01*
X101476190Y-103916666D01*
X101904761Y-104202380D02*
X101857142Y-104226190D01*
X101761904Y-104226190D01*
X101714285Y-104202380D01*
X101690476Y-104154761D01*
X101690476Y-103964285D01*
X101714285Y-103916666D01*
X101761904Y-103892857D01*
X101857142Y-103892857D01*
X101904761Y-103916666D01*
X101928571Y-103964285D01*
X101928571Y-104011904D01*
X101690476Y-104059523D01*
X102142857Y-104226190D02*
X102142857Y-103892857D01*
X102142857Y-103988095D02*
X102166666Y-103940476D01*
X102190476Y-103916666D01*
X102238095Y-103892857D01*
X102285714Y-103892857D01*
D10*
X110190990Y-94507285D02*
X105170532Y-89486827D01*
X112807285Y-91890990D02*
X107786827Y-86870532D01*
X110190990Y-94507285D02*
X112807285Y-91890990D01*
X112607285Y-108009010D02*
X109990990Y-105392715D01*
X109990990Y-105392715D02*
X104970532Y-110413173D01*
X112607285Y-108009010D02*
X107586827Y-113029468D01*
X102650000Y-96000000D02*
X102650000Y-95000000D01*
X100950000Y-95000000D02*
X100950000Y-96000000D01*
X104450000Y-102600000D02*
X104450000Y-101600000D01*
X102750000Y-101600000D02*
X102750000Y-102600000D01*
D11*
X102150000Y-97850000D02*
X101625000Y-97850000D01*
X102150000Y-102150000D02*
X101625000Y-102150000D01*
X97850000Y-102150000D02*
X98375000Y-102150000D01*
X97850000Y-97850000D02*
X98375000Y-97850000D01*
X102150000Y-102150000D02*
X102150000Y-101625000D01*
X97850000Y-102150000D02*
X97850000Y-101625000D01*
X102150000Y-97850000D02*
X102150000Y-98375000D01*
D10*
X92600000Y-101900000D02*
G75*
G03X92600000Y-101900000I-1200000J0D01*
G01*
X93600000Y-105100000D02*
G75*
G03X93600000Y-105100000I-1200000J0D01*
G01*
X108200000Y-102400000D02*
G75*
G03X108200000Y-102400000I-1200000J0D01*
G01*
X95600000Y-107500000D02*
G75*
G03X95600000Y-107500000I-1200000J0D01*
G01*
X95400000Y-92100000D02*
G75*
G03X95400000Y-92100000I-1200000J0D01*
G01*
X93600000Y-94700000D02*
G75*
G03X93600000Y-94700000I-1200000J0D01*
G01*
X92600000Y-97800000D02*
G75*
G03X92600000Y-97800000I-1200000J0D01*
G01*
X99700000Y-105900000D02*
G75*
G03X99700000Y-105900000I-1200000J0D01*
G01*
X102900000Y-106000000D02*
G75*
G03X102900000Y-106000000I-1200000J0D01*
G01*
X106000000Y-106000000D02*
G75*
G03X106000000Y-106000000I-1200000J0D01*
G01*
X101200000Y-108800000D02*
G75*
G03X101200000Y-108800000I-1200000J0D01*
G01*
X108200000Y-97600000D02*
G75*
G03X108200000Y-97600000I-1200000J0D01*
G01*
X88600000Y-96300000D02*
G75*
G03X88600000Y-96300000I-1200000J0D01*
G01*
X91700000Y-90900000D02*
G75*
G03X91700000Y-90900000I-1200000J0D01*
G01*
X88600000Y-103500000D02*
G75*
G03X88600000Y-103500000I-1200000J0D01*
G01*
X91700000Y-109500000D02*
G75*
G03X91700000Y-109500000I-1200000J0D01*
G01*
D13*
X112167343Y-93785194D02*
X112167343Y-93818866D01*
X112133671Y-93886209D01*
X112100000Y-93919881D01*
X112032656Y-93953553D01*
X111965312Y-93953553D01*
X111914805Y-93936717D01*
X111830625Y-93886209D01*
X111780118Y-93835702D01*
X111729610Y-93751522D01*
X111712774Y-93701015D01*
X111712774Y-93633671D01*
X111746446Y-93566328D01*
X111780118Y-93532656D01*
X111847461Y-93498984D01*
X111881133Y-93498984D01*
X112537732Y-93482148D02*
X112335702Y-93684179D01*
X112436717Y-93583164D02*
X112083164Y-93229610D01*
X112100000Y-93313790D01*
X112100000Y-93381133D01*
X112083164Y-93431641D01*
X110467343Y-111385194D02*
X110467343Y-111418866D01*
X110433671Y-111486209D01*
X110400000Y-111519881D01*
X110332656Y-111553553D01*
X110265312Y-111553553D01*
X110214805Y-111536717D01*
X110130625Y-111486209D01*
X110080118Y-111435702D01*
X110029610Y-111351522D01*
X110012774Y-111301015D01*
X110012774Y-111233671D01*
X110046446Y-111166328D01*
X110080118Y-111132656D01*
X110147461Y-111098984D01*
X110181133Y-111098984D01*
X110315820Y-110964297D02*
X110315820Y-110930625D01*
X110332656Y-110880118D01*
X110416835Y-110795938D01*
X110467343Y-110779103D01*
X110501015Y-110779103D01*
X110551522Y-110795938D01*
X110585194Y-110829610D01*
X110618866Y-110896954D01*
X110618866Y-111301015D01*
X110837732Y-111082148D01*
X100216666Y-95678571D02*
X100192857Y-95702380D01*
X100121428Y-95726190D01*
X100073809Y-95726190D01*
X100002380Y-95702380D01*
X99954761Y-95654761D01*
X99930952Y-95607142D01*
X99907142Y-95511904D01*
X99907142Y-95440476D01*
X99930952Y-95345238D01*
X99954761Y-95297619D01*
X100002380Y-95250000D01*
X100073809Y-95226190D01*
X100121428Y-95226190D01*
X100192857Y-95250000D01*
X100216666Y-95273809D01*
X100383333Y-95226190D02*
X100692857Y-95226190D01*
X100526190Y-95416666D01*
X100597619Y-95416666D01*
X100645238Y-95440476D01*
X100669047Y-95464285D01*
X100692857Y-95511904D01*
X100692857Y-95630952D01*
X100669047Y-95678571D01*
X100645238Y-95702380D01*
X100597619Y-95726190D01*
X100454761Y-95726190D01*
X100407142Y-95702380D01*
X100383333Y-95678571D01*
X103716666Y-99878571D02*
X103692857Y-99902380D01*
X103621428Y-99926190D01*
X103573809Y-99926190D01*
X103502380Y-99902380D01*
X103454761Y-99854761D01*
X103430952Y-99807142D01*
X103407142Y-99711904D01*
X103407142Y-99640476D01*
X103430952Y-99545238D01*
X103454761Y-99497619D01*
X103502380Y-99450000D01*
X103573809Y-99426190D01*
X103621428Y-99426190D01*
X103692857Y-99450000D01*
X103716666Y-99473809D01*
X104145238Y-99592857D02*
X104145238Y-99926190D01*
X104026190Y-99402380D02*
X103907142Y-99759523D01*
X104216666Y-99759523D01*
X97719047Y-96426190D02*
X97719047Y-96830952D01*
X97742857Y-96878571D01*
X97766666Y-96902380D01*
X97814285Y-96926190D01*
X97909523Y-96926190D01*
X97957142Y-96902380D01*
X97980952Y-96878571D01*
X98004761Y-96830952D01*
X98004761Y-96426190D01*
X98504761Y-96926190D02*
X98219047Y-96926190D01*
X98361904Y-96926190D02*
X98361904Y-96426190D01*
X98314285Y-96497619D01*
X98266666Y-96545238D01*
X98219047Y-96569047D01*
M02*
