G04 #@! TF.GenerationSoftware,KiCad,Pcbnew,(5.1.5)-3*
G04 #@! TF.CreationDate,2020-02-14T12:09:09-03:30*
G04 #@! TF.ProjectId,RPM Sensor,52504d20-5365-46e7-936f-722e6b696361,rev?*
G04 #@! TF.SameCoordinates,Original*
G04 #@! TF.FileFunction,Soldermask,Bot*
G04 #@! TF.FilePolarity,Negative*
%FSLAX46Y46*%
G04 Gerber Fmt 4.6, Leading zero omitted, Abs format (unit mm)*
G04 Created by KiCad (PCBNEW (5.1.5)-3) date 2020-02-14 12:09:09*
%MOMM*%
%LPD*%
G04 APERTURE LIST*
%ADD10C,0.100000*%
G04 APERTURE END LIST*
D10*
G36*
X100375256Y-114266298D02*
G01*
X100481579Y-114287447D01*
X100782042Y-114411903D01*
X101052451Y-114592585D01*
X101282415Y-114822549D01*
X101463097Y-115092958D01*
X101587553Y-115393421D01*
X101651000Y-115712391D01*
X101651000Y-116037609D01*
X101587553Y-116356579D01*
X101463097Y-116657042D01*
X101282415Y-116927451D01*
X101052451Y-117157415D01*
X100782042Y-117338097D01*
X100481579Y-117462553D01*
X100375256Y-117483702D01*
X100162611Y-117526000D01*
X99837389Y-117526000D01*
X99624744Y-117483702D01*
X99518421Y-117462553D01*
X99217958Y-117338097D01*
X98947549Y-117157415D01*
X98717585Y-116927451D01*
X98536903Y-116657042D01*
X98412447Y-116356579D01*
X98349000Y-116037609D01*
X98349000Y-115712391D01*
X98412447Y-115393421D01*
X98536903Y-115092958D01*
X98717585Y-114822549D01*
X98947549Y-114592585D01*
X99217958Y-114411903D01*
X99518421Y-114287447D01*
X99624744Y-114266298D01*
X99837389Y-114224000D01*
X100162611Y-114224000D01*
X100375256Y-114266298D01*
G37*
G36*
X100375256Y-82516298D02*
G01*
X100481579Y-82537447D01*
X100782042Y-82661903D01*
X101052451Y-82842585D01*
X101282415Y-83072549D01*
X101463097Y-83342958D01*
X101587553Y-83643421D01*
X101651000Y-83962391D01*
X101651000Y-84287609D01*
X101587553Y-84606579D01*
X101463097Y-84907042D01*
X101282415Y-85177451D01*
X101052451Y-85407415D01*
X100782042Y-85588097D01*
X100481579Y-85712553D01*
X100375256Y-85733702D01*
X100162611Y-85776000D01*
X99837389Y-85776000D01*
X99624744Y-85733702D01*
X99518421Y-85712553D01*
X99217958Y-85588097D01*
X98947549Y-85407415D01*
X98717585Y-85177451D01*
X98536903Y-84907042D01*
X98412447Y-84606579D01*
X98349000Y-84287609D01*
X98349000Y-83962391D01*
X98412447Y-83643421D01*
X98536903Y-83342958D01*
X98717585Y-83072549D01*
X98947549Y-82842585D01*
X99217958Y-82661903D01*
X99518421Y-82537447D01*
X99624744Y-82516298D01*
X99837389Y-82474000D01*
X100162611Y-82474000D01*
X100375256Y-82516298D01*
G37*
M02*
