M48
INCH,TZ
T1C0.0157
%
G90
G05
T1
X33858Y-37913
X33858Y-40748
X34409Y-37362
X34409Y-41299
X35079Y-35787
X35157Y-43110
X35630Y-43622
X35630Y-35236
X39055Y-39055
X39055Y-39685
X39370Y-39370
X39567Y-38071
X39646Y-39055
X39646Y-39685
X39843Y-37087
X40197Y-40079
X40315Y-37087
X40551Y-40787
X41024Y-40787
X41339Y-34843
X41339Y-43858
X41575Y-34409
X41575Y-38346
X41614Y-44173
X41654Y-43504
X41732Y-35236
X41969Y-44449
X42047Y-34173
X42126Y-37913
X42126Y-38898
X42323Y-44134
X42520Y-34567
X42638Y-38346
T0
M30
